<?xml version="1.0" encoding="utf-8" standalone="no"?>
<!DOCTYPE svg PUBLIC "-//W3C//DTD SVG 1.1//EN"
  "http://www.w3.org/Graphics/SVG/1.1/DTD/svg11.dtd">
<svg xmlns:xlink="http://www.w3.org/1999/xlink" width="1000.79pt" height="568.885pt" viewBox="0 0 1000.79 568.885" xmlns="http://www.w3.org/2000/svg" version="1.1">
 <metadata>
  <rdf:RDF xmlns:dc="http://purl.org/dc/elements/1.1/" xmlns:cc="http://creativecommons.org/ns#" xmlns:rdf="http://www.w3.org/1999/02/22-rdf-syntax-ns#">
   <cc:Work>
    <dc:type rdf:resource="http://purl.org/dc/dcmitype/StillImage"/>
    <dc:date>2024-02-04T19:56:22.811358</dc:date>
    <dc:format>image/svg+xml</dc:format>
    <dc:creator>
     <cc:Agent>
      <dc:title>Matplotlib v3.6.2, https://matplotlib.org/</dc:title>
     </cc:Agent>
    </dc:creator>
   </cc:Work>
  </rdf:RDF>
 </metadata>
 <defs>
  <style type="text/css">*{stroke-linejoin: round; stroke-linecap: butt}</style>
 </defs>
 <g id="figure_1">
  <g id="patch_1">
   <path d="M 0 568.885 
L 1000.79 568.885 
L 1000.79 0 
L 0 0 
L 0 568.885 
z
" style="fill: none"/>
  </g>
  <g id="axes_1">
   <g id="patch_2">
    <path d="M 56.895 539.12 
L 993.59 539.12 
L 993.59 7.2 
L 56.895 7.2 
L 56.895 539.12 
z
" style="fill: none"/>
   </g>
   <g id="matplotlib.axis_1">
    <g id="xtick_1">
     <g id="line2d_1">
      <path d="M 99.472045 539.12 
L 99.472045 7.2 
" clip-path="url(#pf205628ea2)" style="fill: none; stroke: #b0b0b0; stroke-width: 0.8; stroke-linecap: square"/>
     </g>
     <g id="line2d_2">
      <defs>
       <path id="mc0b490b5c8" d="M 0 0 
L 0 3.5 
" style="stroke: #000000; stroke-width: 0.8"/>
      </defs>
      <g>
       <use xlink:href="#mc0b490b5c8" x="99.472045" y="539.12" style="stroke: #000000; stroke-width: 0.8"/>
      </g>
     </g>
     <g id="text_1">
      <!-- 0 -->
      <g transform="translate(94.562045 558.215) scale(0.16 -0.16)">
       <defs>
        <path id="Georgia-30" d="M 3209 2919 
Q 3409 2678 3507 2354 
Q 3606 2031 3606 1678 
Q 3606 1253 3484 917 
Q 3363 581 3150 359 
Q 2931 131 2631 15 
Q 2331 -100 1963 -100 
Q 1559 -100 1243 34 
Q 928 169 731 403 
Q 525 647 423 973 
Q 322 1300 322 1678 
Q 322 2050 420 2362 
Q 519 2675 728 2928 
Q 928 3172 1243 3312 
Q 1559 3453 1966 3453 
Q 2394 3453 2700 3309 
Q 3006 3166 3209 2919 
z
M 2916 1678 
Q 2916 2422 2661 2831 
Q 2406 3241 1969 3241 
Q 1525 3241 1269 2831 
Q 1013 2422 1013 1678 
Q 1013 972 1258 542 
Q 1503 113 1963 113 
Q 2422 113 2669 542 
Q 2916 972 2916 1678 
z
" transform="scale(0.015625)"/>
       </defs>
       <use xlink:href="#Georgia-30"/>
      </g>
     </g>
    </g>
    <g id="xtick_2">
     <g id="line2d_3">
      <path d="M 234.99899 539.12 
L 234.99899 7.2 
" clip-path="url(#pf205628ea2)" style="fill: none; stroke: #b0b0b0; stroke-width: 0.8; stroke-linecap: square"/>
     </g>
     <g id="line2d_4">
      <g>
       <use xlink:href="#mc0b490b5c8" x="234.99899" y="539.12" style="stroke: #000000; stroke-width: 0.8"/>
      </g>
     </g>
     <g id="text_2">
      <!-- 1 -->
      <g transform="translate(231.56149 558.215) scale(0.16 -0.16)">
       <defs>
        <path id="Georgia-31" d="M 2528 0 
L 422 0 
L 422 222 
Q 516 228 714 248 
Q 913 269 988 291 
Q 1084 322 1136 392 
Q 1188 463 1188 603 
L 1188 2797 
L 409 2797 
L 409 3059 
L 581 3059 
Q 919 3059 1186 3184 
Q 1453 3309 1569 3453 
L 1828 3453 
Q 1819 3250 1809 2978 
Q 1800 2706 1800 2491 
L 1800 638 
Q 1800 528 1848 442 
Q 1897 356 1988 316 
Q 2069 281 2253 253 
Q 2438 225 2528 222 
L 2528 0 
z
" transform="scale(0.015625)"/>
       </defs>
       <use xlink:href="#Georgia-31"/>
      </g>
     </g>
    </g>
    <g id="xtick_3">
     <g id="line2d_5">
      <path d="M 370.525935 539.12 
L 370.525935 7.2 
" clip-path="url(#pf205628ea2)" style="fill: none; stroke: #b0b0b0; stroke-width: 0.8; stroke-linecap: square"/>
     </g>
     <g id="line2d_6">
      <g>
       <use xlink:href="#mc0b490b5c8" x="370.525935" y="539.12" style="stroke: #000000; stroke-width: 0.8"/>
      </g>
     </g>
     <g id="text_3">
      <!-- 2 -->
      <g transform="translate(366.057185 558.215) scale(0.16 -0.16)">
       <defs>
        <path id="Georgia-32" d="M 3272 0 
L 344 0 
L 344 425 
Q 428 522 578 642 
Q 728 763 934 903 
Q 1059 988 1234 1088 
Q 1409 1188 1631 1306 
Q 1878 1438 2011 1538 
Q 2144 1638 2253 1784 
Q 2325 1881 2369 2026 
Q 2413 2172 2413 2441 
Q 2413 2831 2203 3014 
Q 1994 3197 1666 3197 
Q 1463 3197 1281 3117 
Q 1100 3038 1009 2897 
Q 1031 2797 1064 2659 
Q 1097 2522 1097 2391 
Q 1097 2272 998 2180 
Q 900 2088 706 2088 
Q 550 2088 465 2195 
Q 381 2303 381 2484 
Q 381 2653 475 2823 
Q 569 2994 744 3138 
Q 916 3278 1169 3365 
Q 1422 3453 1716 3453 
Q 2356 3453 2732 3167 
Q 3109 2881 3109 2403 
Q 3109 2175 3042 1987 
Q 2975 1800 2825 1656 
Q 2659 1497 2437 1383 
Q 2216 1269 1759 1066 
Q 1488 944 1253 811 
Q 1019 678 869 553 
L 3272 553 
L 3272 0 
z
" transform="scale(0.015625)"/>
       </defs>
       <use xlink:href="#Georgia-32"/>
      </g>
     </g>
    </g>
    <g id="xtick_4">
     <g id="line2d_7">
      <path d="M 506.05288 539.12 
L 506.05288 7.2 
" clip-path="url(#pf205628ea2)" style="fill: none; stroke: #b0b0b0; stroke-width: 0.8; stroke-linecap: square"/>
     </g>
     <g id="line2d_8">
      <g>
       <use xlink:href="#mc0b490b5c8" x="506.05288" y="539.12" style="stroke: #000000; stroke-width: 0.8"/>
      </g>
     </g>
     <g id="text_4">
      <!-- 3 -->
      <g transform="translate(501.63913 558.215) scale(0.16 -0.16)">
       <defs>
        <path id="Georgia-33" d="M 1522 -1141 
Q 1228 -1141 984 -1067 
Q 741 -994 566 -869 
Q 391 -744 295 -581 
Q 200 -419 200 -247 
Q 200 -94 275 29 
Q 350 153 516 153 
Q 703 153 801 61 
Q 900 -31 900 -150 
Q 900 -250 867 -403 
Q 834 -556 816 -622 
Q 838 -650 895 -697 
Q 953 -744 1038 -781 
Q 1138 -828 1247 -856 
Q 1356 -884 1556 -884 
Q 1744 -884 1917 -821 
Q 2091 -759 2222 -622 
Q 2359 -478 2436 -286 
Q 2513 -94 2513 219 
Q 2513 388 2477 553 
Q 2441 719 2344 841 
Q 2247 963 2080 1030 
Q 1913 1097 1656 1097 
L 1247 1097 
L 1247 1456 
L 1519 1456 
Q 1950 1456 2140 1693 
Q 2331 1931 2331 2409 
Q 2331 2800 2147 2998 
Q 1963 3197 1625 3197 
Q 1463 3197 1358 3158 
Q 1253 3119 1188 3081 
Q 1109 3038 1059 2984 
Q 1009 2931 984 2906 
Q 1006 2806 1037 2661 
Q 1069 2516 1069 2384 
Q 1069 2269 970 2176 
Q 872 2084 681 2084 
Q 516 2084 439 2203 
Q 363 2322 363 2478 
Q 363 2641 453 2809 
Q 544 2978 722 3125 
Q 900 3272 1156 3362 
Q 1413 3453 1747 3453 
Q 2131 3453 2382 3339 
Q 2634 3225 2778 3063 
Q 2919 2903 2972 2728 
Q 3025 2553 3025 2428 
Q 3025 2272 2981 2114 
Q 2938 1956 2838 1822 
Q 2728 1675 2548 1554 
Q 2369 1434 2097 1359 
L 2097 1309 
Q 2272 1294 2470 1231 
Q 2669 1169 2828 1047 
Q 2994 919 3100 717 
Q 3206 516 3206 206 
Q 3206 -394 2725 -767 
Q 2244 -1141 1522 -1141 
z
" transform="scale(0.015625)"/>
       </defs>
       <use xlink:href="#Georgia-33"/>
      </g>
     </g>
    </g>
    <g id="xtick_5">
     <g id="line2d_9">
      <path d="M 641.579825 539.12 
L 641.579825 7.2 
" clip-path="url(#pf205628ea2)" style="fill: none; stroke: #b0b0b0; stroke-width: 0.8; stroke-linecap: square"/>
     </g>
     <g id="line2d_10">
      <g>
       <use xlink:href="#mc0b490b5c8" x="641.579825" y="539.12" style="stroke: #000000; stroke-width: 0.8"/>
      </g>
     </g>
     <g id="text_5">
      <!-- 4 -->
      <g transform="translate(637.059825 558.215) scale(0.16 -0.16)">
       <defs>
        <path id="Georgia-34" d="M 3388 281 
L 2753 281 
L 2753 -1141 
L 2153 -1141 
L 2153 281 
L 153 281 
L 153 763 
L 2344 3434 
L 2753 3434 
L 2753 691 
L 3388 691 
L 3388 281 
z
M 2153 691 
L 2153 2738 
L 466 691 
L 2153 691 
z
" transform="scale(0.015625)"/>
       </defs>
       <use xlink:href="#Georgia-34"/>
      </g>
     </g>
    </g>
    <g id="xtick_6">
     <g id="line2d_11">
      <path d="M 777.10677 539.12 
L 777.10677 7.2 
" clip-path="url(#pf205628ea2)" style="fill: none; stroke: #b0b0b0; stroke-width: 0.8; stroke-linecap: square"/>
     </g>
     <g id="line2d_12">
      <g>
       <use xlink:href="#mc0b490b5c8" x="777.10677" y="539.12" style="stroke: #000000; stroke-width: 0.8"/>
      </g>
     </g>
     <g id="text_6">
      <!-- 5 -->
      <g transform="translate(772.88052 558.215) scale(0.16 -0.16)">
       <defs>
        <path id="Georgia-35" d="M 2634 1466 
Q 2841 1303 2977 1047 
Q 3113 791 3113 406 
Q 3113 -266 2653 -703 
Q 2194 -1141 1488 -1141 
Q 941 -1141 562 -881 
Q 184 -622 184 -278 
Q 184 -119 262 0 
Q 341 119 503 119 
Q 691 119 789 20 
Q 888 -78 888 -194 
Q 888 -294 853 -444 
Q 819 -594 800 -666 
Q 825 -688 881 -725 
Q 938 -763 1016 -797 
Q 1097 -831 1214 -857 
Q 1331 -884 1488 -884 
Q 1688 -884 1866 -803 
Q 2044 -722 2166 -563 
Q 2300 -388 2367 -164 
Q 2434 59 2434 403 
Q 2434 844 2189 1133 
Q 1944 1422 1544 1422 
Q 1294 1422 1076 1328 
Q 859 1234 688 1016 
L 478 1097 
L 744 3353 
L 2981 3353 
L 2981 2797 
L 997 2797 
L 834 1472 
Q 975 1572 1204 1670 
Q 1434 1769 1709 1769 
Q 1938 1769 2183 1698 
Q 2428 1628 2634 1466 
z
" transform="scale(0.015625)"/>
       </defs>
       <use xlink:href="#Georgia-35"/>
      </g>
     </g>
    </g>
    <g id="xtick_7">
     <g id="line2d_13">
      <path d="M 912.633715 539.12 
L 912.633715 7.2 
" clip-path="url(#pf205628ea2)" style="fill: none; stroke: #b0b0b0; stroke-width: 0.8; stroke-linecap: square"/>
     </g>
     <g id="line2d_14">
      <g>
       <use xlink:href="#mc0b490b5c8" x="912.633715" y="539.12" style="stroke: #000000; stroke-width: 0.8"/>
      </g>
     </g>
     <g id="text_7">
      <!-- 6 -->
      <g transform="translate(908.106215 558.215) scale(0.16 -0.16)">
       <defs>
        <path id="Georgia-36" d="M 3359 1441 
Q 3359 1116 3242 831 
Q 3125 547 2928 347 
Q 2700 119 2423 9 
Q 2147 -100 1847 -100 
Q 1500 -100 1219 28 
Q 938 156 741 391 
Q 541 628 431 972 
Q 322 1316 322 1744 
Q 322 2859 986 3625 
Q 1650 4391 2766 4544 
L 2822 4263 
L 2541 4213 
Q 1863 3994 1492 3531 
Q 1122 3069 1013 2409 
Q 1281 2644 1543 2741 
Q 1806 2838 2097 2838 
Q 2619 2838 2989 2438 
Q 3359 2038 3359 1441 
z
M 2681 1356 
Q 2681 1863 2448 2169 
Q 2216 2475 1825 2475 
Q 1591 2475 1389 2387 
Q 1188 2300 1000 2094 
Q 997 2056 990 1920 
Q 984 1784 984 1706 
Q 984 975 1223 561 
Q 1463 147 1853 147 
Q 2225 147 2453 470 
Q 2681 794 2681 1356 
z
" transform="scale(0.015625)"/>
       </defs>
       <use xlink:href="#Georgia-36"/>
      </g>
     </g>
    </g>
   </g>
   <g id="matplotlib.axis_2">
    <g id="ytick_1">
     <g id="line2d_15">
      <path d="M 56.895 514.942117 
L 993.59 514.942117 
" clip-path="url(#pf205628ea2)" style="fill: none; stroke: #b0b0b0; stroke-width: 0.8; stroke-linecap: square"/>
     </g>
     <g id="line2d_16">
      <defs>
       <path id="mf783391377" d="M 0 0 
L -3.5 0 
" style="stroke: #000000; stroke-width: 0.8"/>
      </defs>
      <g>
       <use xlink:href="#mf783391377" x="56.895" y="514.942117" style="stroke: #000000; stroke-width: 0.8"/>
      </g>
     </g>
     <g id="text_8">
      <!-- −1.00 -->
      <g transform="translate(8.7775 520.989617) scale(0.16 -0.16)">
       <defs>
        <path id="Georgia-2212" d="M 3650 1553 
L 466 1553 
L 466 1944 
L 3650 1944 
L 3650 1553 
z
" transform="scale(0.015625)"/>
        <path id="Georgia-2e" d="M 1297 359 
Q 1297 184 1170 60 
Q 1044 -63 869 -63 
Q 694 -63 567 60 
Q 441 184 441 359 
Q 441 534 567 661 
Q 694 788 869 788 
Q 1044 788 1170 661 
Q 1297 534 1297 359 
z
" transform="scale(0.015625)"/>
       </defs>
       <use xlink:href="#Georgia-2212"/>
       <use xlink:href="#Georgia-31" x="64.306641"/>
       <use xlink:href="#Georgia-2e" x="107.275391"/>
       <use xlink:href="#Georgia-30" x="134.228516"/>
       <use xlink:href="#Georgia-30" x="195.605469"/>
      </g>
     </g>
    </g>
    <g id="ytick_2">
     <g id="line2d_17">
      <path d="M 56.895 454.496588 
L 993.59 454.496588 
" clip-path="url(#pf205628ea2)" style="fill: none; stroke: #b0b0b0; stroke-width: 0.8; stroke-linecap: square"/>
     </g>
     <g id="line2d_18">
      <g>
       <use xlink:href="#mf783391377" x="56.895" y="454.496588" style="stroke: #000000; stroke-width: 0.8"/>
      </g>
     </g>
     <g id="text_9">
      <!-- −0.75 -->
      <g transform="translate(8.98 460.544088) scale(0.16 -0.16)">
       <defs>
        <path id="Georgia-37" d="M 3216 3150 
L 988 -1141 
L 597 -1141 
L 2694 2828 
L 1466 2828 
Q 1194 2828 1041 2822 
Q 888 2816 759 2763 
Q 663 2722 586 2555 
Q 509 2388 469 2128 
L 278 2128 
L 278 3353 
L 3216 3353 
L 3216 3150 
z
" transform="scale(0.015625)"/>
       </defs>
       <use xlink:href="#Georgia-2212"/>
       <use xlink:href="#Georgia-30" x="64.306641"/>
       <use xlink:href="#Georgia-2e" x="125.683594"/>
       <use xlink:href="#Georgia-37" x="152.636719"/>
       <use xlink:href="#Georgia-35" x="202.880859"/>
      </g>
     </g>
    </g>
    <g id="ytick_3">
     <g id="line2d_19">
      <path d="M 56.895 394.051059 
L 993.59 394.051059 
" clip-path="url(#pf205628ea2)" style="fill: none; stroke: #b0b0b0; stroke-width: 0.8; stroke-linecap: square"/>
     </g>
     <g id="line2d_20">
      <g>
       <use xlink:href="#mf783391377" x="56.895" y="394.051059" style="stroke: #000000; stroke-width: 0.8"/>
      </g>
     </g>
     <g id="text_10">
      <!-- −0.50 -->
      <g transform="translate(7.2 400.098559) scale(0.16 -0.16)">
       <use xlink:href="#Georgia-2212"/>
       <use xlink:href="#Georgia-30" x="64.306641"/>
       <use xlink:href="#Georgia-2e" x="125.683594"/>
       <use xlink:href="#Georgia-35" x="152.636719"/>
       <use xlink:href="#Georgia-30" x="205.46875"/>
      </g>
     </g>
    </g>
    <g id="ytick_4">
     <g id="line2d_21">
      <path d="M 56.895 333.605529 
L 993.59 333.605529 
" clip-path="url(#pf205628ea2)" style="fill: none; stroke: #b0b0b0; stroke-width: 0.8; stroke-linecap: square"/>
     </g>
     <g id="line2d_22">
      <g>
       <use xlink:href="#mf783391377" x="56.895" y="333.605529" style="stroke: #000000; stroke-width: 0.8"/>
      </g>
     </g>
     <g id="text_11">
      <!-- −0.25 -->
      <g transform="translate(8.0825 339.653029) scale(0.16 -0.16)">
       <use xlink:href="#Georgia-2212"/>
       <use xlink:href="#Georgia-30" x="64.306641"/>
       <use xlink:href="#Georgia-2e" x="125.683594"/>
       <use xlink:href="#Georgia-32" x="152.636719"/>
       <use xlink:href="#Georgia-35" x="208.496094"/>
      </g>
     </g>
    </g>
    <g id="ytick_5">
     <g id="line2d_23">
      <path d="M 56.895 273.16 
L 993.59 273.16 
" clip-path="url(#pf205628ea2)" style="fill: none; stroke: #b0b0b0; stroke-width: 0.8; stroke-linecap: square"/>
     </g>
     <g id="line2d_24">
      <g>
       <use xlink:href="#mf783391377" x="56.895" y="273.16" style="stroke: #000000; stroke-width: 0.8"/>
      </g>
     </g>
     <g id="text_12">
      <!-- 0.00 -->
      <g transform="translate(16.1225 279.2075) scale(0.16 -0.16)">
       <use xlink:href="#Georgia-30"/>
       <use xlink:href="#Georgia-2e" x="61.376953"/>
       <use xlink:href="#Georgia-30" x="88.330078"/>
       <use xlink:href="#Georgia-30" x="149.707031"/>
      </g>
     </g>
    </g>
    <g id="ytick_6">
     <g id="line2d_25">
      <path d="M 56.895 212.714471 
L 993.59 212.714471 
" clip-path="url(#pf205628ea2)" style="fill: none; stroke: #b0b0b0; stroke-width: 0.8; stroke-linecap: square"/>
     </g>
     <g id="line2d_26">
      <g>
       <use xlink:href="#mf783391377" x="56.895" y="212.714471" style="stroke: #000000; stroke-width: 0.8"/>
      </g>
     </g>
     <g id="text_13">
      <!-- 0.25 -->
      <g transform="translate(18.3725 218.761971) scale(0.16 -0.16)">
       <use xlink:href="#Georgia-30"/>
       <use xlink:href="#Georgia-2e" x="61.376953"/>
       <use xlink:href="#Georgia-32" x="88.330078"/>
       <use xlink:href="#Georgia-35" x="144.189453"/>
      </g>
     </g>
    </g>
    <g id="ytick_7">
     <g id="line2d_27">
      <path d="M 56.895 152.268941 
L 993.59 152.268941 
" clip-path="url(#pf205628ea2)" style="fill: none; stroke: #b0b0b0; stroke-width: 0.8; stroke-linecap: square"/>
     </g>
     <g id="line2d_28">
      <g>
       <use xlink:href="#mf783391377" x="56.895" y="152.268941" style="stroke: #000000; stroke-width: 0.8"/>
      </g>
     </g>
     <g id="text_14">
      <!-- 0.50 -->
      <g transform="translate(17.49 158.316441) scale(0.16 -0.16)">
       <use xlink:href="#Georgia-30"/>
       <use xlink:href="#Georgia-2e" x="61.376953"/>
       <use xlink:href="#Georgia-35" x="88.330078"/>
       <use xlink:href="#Georgia-30" x="141.162109"/>
      </g>
     </g>
    </g>
    <g id="ytick_8">
     <g id="line2d_29">
      <path d="M 56.895 91.823412 
L 993.59 91.823412 
" clip-path="url(#pf205628ea2)" style="fill: none; stroke: #b0b0b0; stroke-width: 0.8; stroke-linecap: square"/>
     </g>
     <g id="line2d_30">
      <g>
       <use xlink:href="#mf783391377" x="56.895" y="91.823412" style="stroke: #000000; stroke-width: 0.8"/>
      </g>
     </g>
     <g id="text_15">
      <!-- 0.75 -->
      <g transform="translate(19.27 97.870912) scale(0.16 -0.16)">
       <use xlink:href="#Georgia-30"/>
       <use xlink:href="#Georgia-2e" x="61.376953"/>
       <use xlink:href="#Georgia-37" x="88.330078"/>
       <use xlink:href="#Georgia-35" x="138.574219"/>
      </g>
     </g>
    </g>
    <g id="ytick_9">
     <g id="line2d_31">
      <path d="M 56.895 31.377883 
L 993.59 31.377883 
" clip-path="url(#pf205628ea2)" style="fill: none; stroke: #b0b0b0; stroke-width: 0.8; stroke-linecap: square"/>
     </g>
     <g id="line2d_32">
      <g>
       <use xlink:href="#mf783391377" x="56.895" y="31.377883" style="stroke: #000000; stroke-width: 0.8"/>
      </g>
     </g>
     <g id="text_16">
      <!-- 1.00 -->
      <g transform="translate(19.0675 37.425383) scale(0.16 -0.16)">
       <use xlink:href="#Georgia-31"/>
       <use xlink:href="#Georgia-2e" x="42.96875"/>
       <use xlink:href="#Georgia-30" x="69.921875"/>
       <use xlink:href="#Georgia-30" x="131.298828"/>
      </g>
     </g>
    </g>
   </g>
   <g id="line2d_33">
    <path d="M 99.472045 273.16 
L 123.339058 230.800633 
L 136.124957 208.564857 
L 147.20607 189.751569 
L 156.582397 174.26298 
L 165.10633 160.591147 
L 172.777869 148.665592 
L 180.449409 137.138831 
L 187.268556 127.257491 
L 194.087702 117.745451 
L 200.906848 108.626788 
L 206.873602 100.98882 
L 212.840355 93.68452 
L 218.807108 86.728044 
L 224.773861 80.132875 
L 230.740614 73.911793 
L 235.854974 68.886338 
L 240.969334 64.15175 
L 246.083693 59.714768 
L 251.198053 55.581711 
L 256.312413 51.758464 
L 261.426773 48.250471 
L 265.688739 45.57158 
L 269.950706 43.117741 
L 274.212672 40.89138 
L 278.474639 38.8947 
L 282.736605 37.129674 
L 286.998572 35.598048 
L 291.260538 34.301337 
L 295.522505 33.240822 
L 299.784472 32.417553 
L 304.046438 31.832343 
L 308.308405 31.485772 
L 312.570371 31.378182 
L 316.832338 31.509679 
L 321.094304 31.880133 
L 325.356271 32.489179 
L 329.618237 33.336213 
L 333.880204 34.420398 
L 338.14217 35.740662 
L 342.404137 37.2957 
L 346.666103 39.083974 
L 350.92807 41.103715 
L 355.190036 43.352926 
L 359.452003 45.829384 
L 363.713969 48.530638 
L 368.828329 52.065099 
L 373.942689 55.914378 
L 379.057049 60.072993 
L 384.171408 64.535022 
L 389.285768 69.294113 
L 394.400128 74.343488 
L 399.514488 79.675959 
L 405.481241 86.244823 
L 411.447994 93.17593 
L 417.414747 100.455847 
L 423.3815 108.070465 
L 430.200647 117.163765 
L 437.019793 126.651914 
L 443.83894 136.510897 
L 451.510479 148.014408 
L 459.182019 159.918798 
L 467.705952 173.569644 
L 477.082278 189.038317 
L 487.310998 206.369652 
L 499.244504 227.063116 
L 514.587584 254.171044 
L 554.650069 325.212822 
L 566.583575 345.774635 
L 576.812295 362.957161 
L 586.188621 378.261013 
L 594.712554 391.739121 
L 602.384094 403.469976 
L 610.055634 414.78341 
L 616.87478 424.460038 
L 623.693926 433.753704 
L 630.513073 442.640883 
L 636.479826 450.066009 
L 642.446579 457.148291 
L 648.413332 463.874003 
L 654.380085 470.23011 
L 659.494445 475.374669 
L 664.608805 480.231295 
L 669.723165 484.793072 
L 674.837525 489.053504 
L 679.951884 493.006526 
L 685.066244 496.646508 
L 690.180604 499.968267 
L 694.442571 502.489887 
L 698.704537 504.784732 
L 702.966504 506.850535 
L 707.22847 508.685251 
L 711.490437 510.287066 
L 715.752403 511.654397 
L 720.01437 512.785891 
L 724.276336 513.68043 
L 728.538303 514.337129 
L 732.800269 514.755338 
L 737.062236 514.934645 
L 741.324202 514.874871 
L 745.586169 514.576076 
L 749.848135 514.038556 
L 754.110102 513.262841 
L 758.372068 512.249699 
L 762.634035 511.000132 
L 766.896001 509.515375 
L 771.157968 507.796897 
L 775.419934 505.846397 
L 779.681901 503.665803 
L 783.943867 501.257273 
L 788.205834 498.623187 
L 792.4678 495.766151 
L 797.58216 492.047406 
L 802.69652 488.016986 
L 807.81088 483.680632 
L 812.92524 479.044518 
L 818.039599 474.115244 
L 823.153959 468.89983 
L 829.120712 462.46346 
L 835.087465 455.660219 
L 841.054219 448.503292 
L 847.020972 441.006549 
L 852.987725 433.184519 
L 859.806871 423.866219 
L 866.626018 414.16646 
L 874.297557 402.828872 
L 881.969097 391.075916 
L 890.49303 377.575748 
L 899.016963 363.662673 
L 908.393289 347.947092 
L 919.474402 328.918793 
L 932.260302 306.508364 
L 951.012955 273.16 
L 951.012955 273.16 
" clip-path="url(#pf205628ea2)" style="fill: none; stroke: #a80000; stroke-width: 3; stroke-linecap: square"/>
   </g>
   <g id="line2d_34">
    <path d="M 99.472045 273.16 
L 105.438799 199.820485 
L 108.848372 160.591147 
L 111.405552 133.391619 
L 113.962732 108.626788 
L 115.667518 93.68452 
L 117.372305 80.132875 
L 119.077091 68.076854 
L 120.781878 57.609871 
L 122.486665 48.813027 
L 124.191451 41.754481 
L 125.043845 38.8947 
L 125.896238 36.488925 
L 126.748631 34.541821 
L 127.601024 33.057159 
L 128.453418 32.037818 
L 129.305811 31.485772 
L 130.158204 31.402092 
L 131.010598 31.78694 
L 131.862991 32.63957 
L 132.715384 33.958329 
L 133.567778 35.740662 
L 134.420171 37.983115 
L 135.272564 40.681342 
L 136.124957 43.830113 
L 137.829744 51.454019 
L 139.534531 60.79576 
L 141.239317 71.782955 
L 142.944104 84.330471 
L 144.64889 98.341088 
L 147.20607 121.859962 
L 149.76325 148.014408 
L 152.32043 176.348829 
L 155.730003 216.661637 
L 162.54915 301.229191 
L 166.811116 352.989939 
L 170.22069 391.739121 
L 172.777869 418.45549 
L 175.335049 442.640883 
L 177.039836 457.148291 
L 178.744623 470.23011 
L 180.449409 481.784978 
L 182.154196 491.723365 
L 183.858982 499.968267 
L 185.563769 506.455799 
L 186.416162 509.0243 
L 187.268556 511.135694 
L 188.120949 512.785891 
L 188.973342 513.971692 
L 189.825736 514.690799 
L 190.678129 514.941818 
L 191.530522 514.724263 
L 192.382915 514.038556 
L 193.235309 512.886025 
L 194.087702 511.268903 
L 194.940095 509.190326 
L 195.792489 506.654321 
L 196.644882 503.665803 
L 198.349669 496.355262 
L 200.054455 487.315345 
L 201.759242 476.616097 
L 203.464028 464.340418 
L 205.168815 450.583423 
L 206.873602 435.451705 
L 209.430781 410.435686 
L 211.987961 383.028392 
L 215.397535 343.595716 
L 219.659501 291.390871 
L 227.331041 196.928289 
L 230.740614 157.908497 
L 233.297794 130.92104 
L 235.854974 106.411315 
L 237.55976 91.660861 
L 239.264547 78.31671 
L 240.969334 66.482255 
L 242.67412 56.249193 
L 244.378907 47.696813 
L 246.083693 40.89138 
L 246.936087 38.160788 
L 247.78848 35.885625 
L 248.640873 34.070301 
L 249.493267 32.718334 
L 250.34566 31.832343 
L 251.198053 31.414047 
L 252.050447 31.464255 
L 252.90284 31.982871 
L 253.755233 32.968889 
L 254.607626 34.420398 
L 255.46002 36.334586 
L 256.312413 38.707742 
L 257.164806 41.535268 
L 258.0172 44.811683 
L 259.721986 52.684926 
L 261.426773 62.266468 
L 263.13156 73.482067 
L 264.836346 86.244823 
L 266.541133 100.455847 
L 269.098313 124.244157 
L 271.655493 150.626507 
L 274.212672 179.143331 
L 277.622246 219.623193 
L 290.408145 375.513782 
L 292.965325 403.469976 
L 295.522505 429.156235 
L 298.079685 452.125115 
L 299.784472 465.7283 
L 301.489258 477.839416 
L 303.194045 488.364622 
L 304.898831 497.222366 
L 306.603618 504.344017 
L 307.456011 507.236026 
L 308.308405 509.674394 
L 309.160798 511.654397 
L 310.013191 513.172196 
L 310.865584 514.224851 
L 311.717978 514.810321 
L 312.570371 514.927472 
L 313.422764 514.576076 
L 314.275158 513.756815 
L 315.127551 512.471277 
L 315.979944 510.721952 
L 316.832338 508.512231 
L 317.684731 505.846397 
L 318.537124 502.729615 
L 320.241911 495.168234 
L 321.946697 485.886675 
L 323.651484 474.956855 
L 325.356271 462.46346 
L 327.061057 448.503292 
L 329.618237 425.052361 
L 332.175417 398.955539 
L 334.732597 370.667421 
L 338.14217 330.397373 
L 344.108923 256.445833 
L 349.223283 194.048156 
L 352.632856 155.244084 
L 355.190036 128.472966 
L 357.747216 104.222226 
L 359.452003 89.66592 
L 361.156789 76.531374 
L 362.861576 64.920358 
L 364.566362 54.922836 
L 366.271149 46.616274 
L 367.975936 40.065031 
L 368.828329 37.464059 
L 369.680722 35.319868 
L 370.533116 33.636612 
L 371.385509 32.417553 
L 372.237902 31.665054 
L 373.090296 31.380573 
L 373.942689 31.564662 
L 374.795082 32.216963 
L 375.647475 33.336213 
L 376.499869 34.920242 
L 377.352262 36.965981 
L 378.204655 39.469465 
L 379.057049 42.425843 
L 380.761835 49.673492 
L 382.466622 58.652774 
L 384.171408 69.294113 
L 385.876195 81.515058 
L 387.580982 95.220918 
L 389.285768 110.305497 
L 391.842948 135.259088 
L 394.400128 162.614846 
L 397.809701 201.997272 
L 402.071668 254.171044 
L 409.743208 348.669775 
L 413.152781 387.742533 
L 415.709961 414.78341 
L 418.267141 439.357277 
L 419.971927 454.155904 
L 421.676714 467.552128 
L 423.3815 479.442151 
L 425.086287 489.733847 
L 426.791074 498.347471 
L 428.49586 505.216285 
L 429.348253 507.979216 
L 430.200647 510.287066 
L 431.05304 512.135363 
L 431.905433 513.520525 
L 432.757827 514.439867 
L 433.61022 514.891607 
L 434.462613 514.874871 
L 435.315007 514.389691 
L 436.1674 513.437006 
L 437.019793 512.018663 
L 437.872187 510.137412 
L 438.72458 507.796897 
L 439.576973 505.001655 
L 440.429366 501.757103 
L 442.134153 493.946079 
L 443.83894 484.424347 
L 445.543726 473.265683 
L 447.248513 460.556549 
L 448.953299 446.395418 
L 451.510479 422.674116 
L 454.067659 396.348351 
L 456.624839 367.876706 
L 460.034412 327.438008 
L 467.705952 232.298624 
L 471.967919 181.248995 
L 475.377492 143.491128 
L 477.934672 117.745451 
L 480.491852 94.707019 
L 482.196638 81.052429 
L 483.901425 68.886338 
L 485.606211 58.303014 
L 487.310998 49.384456 
L 489.015785 42.199771 
L 489.868178 39.275563 
L 490.720571 36.804625 
L 491.572965 34.791744 
L 492.425358 33.240822 
L 493.277751 32.154864 
L 494.130144 31.535975 
L 494.982538 31.385355 
L 495.834931 31.703295 
L 496.687324 32.489179 
L 497.539718 33.741484 
L 498.392111 35.457783 
L 499.244504 37.634749 
L 500.096898 40.268165 
L 500.949291 43.352926 
L 502.654077 50.851708 
L 504.358864 60.072993 
L 506.063651 70.945331 
L 507.768437 83.384481 
L 509.473224 97.294061 
L 512.030404 120.676818 
L 514.587584 146.715758 
L 517.144764 174.957294 
L 520.554337 215.184182 
L 526.52109 289.115563 
L 531.63545 351.552966 
L 535.045023 390.411545 
L 537.602203 417.237146 
L 540.159383 441.552994 
L 541.864169 456.158055 
L 543.568956 469.345198 
L 545.273743 481.012248 
L 546.978529 491.068804 
L 548.683316 499.436946 
L 550.388102 506.051835 
L 551.240496 508.685251 
L 552.092889 510.862217 
L 552.945282 512.578516 
L 553.797676 513.830821 
L 554.650069 514.616705 
L 555.502462 514.934645 
L 556.354856 514.784025 
L 557.207249 514.165136 
L 558.059642 513.079178 
L 558.912035 511.528256 
L 559.764429 509.515375 
L 560.616822 507.044437 
L 561.469215 504.120229 
L 563.174002 496.935544 
L 564.878789 488.016986 
L 566.583575 477.433662 
L 568.288362 465.267571 
L 569.993148 451.612981 
L 571.697935 436.575691 
L 574.255115 411.684773 
L 576.812295 384.380823 
L 580.221868 345.049037 
L 584.483835 292.906854 
L 592.155374 198.372908 
L 595.564947 159.247569 
L 598.122127 132.15354 
L 600.679307 107.515775 
L 602.384094 92.669121 
L 604.08888 79.220956 
L 605.793667 67.275482 
L 607.498454 56.925255 
L 609.20324 48.250471 
L 610.908027 41.318345 
L 611.76042 38.523103 
L 612.612813 36.182588 
L 613.465207 34.301337 
L 614.3176 32.882994 
L 615.169993 31.930309 
L 616.022387 31.445129 
L 616.87478 31.428393 
L 617.727173 31.880133 
L 618.579567 32.799475 
L 619.43196 34.184637 
L 620.284353 36.032934 
L 621.136747 38.340784 
L 621.98914 41.103715 
L 622.841533 44.316372 
L 624.54632 52.065099 
L 626.251106 61.526928 
L 627.955893 72.628545 
L 629.66068 85.283931 
L 631.365466 99.395031 
L 633.922646 123.04909 
L 636.479826 149.318008 
L 639.037006 177.744193 
L 642.446579 218.141327 
L 649.265725 302.739026 
L 653.527692 354.423754 
L 656.937265 393.062005 
L 659.494445 419.668086 
L 662.051625 443.722068 
L 663.756412 458.131249 
L 665.461198 471.107226 
L 667.165985 482.549456 
L 668.870771 492.369281 
L 670.575558 500.490616 
L 672.280345 506.850535 
L 673.132738 509.354019 
L 673.985131 511.399758 
L 674.837525 512.983787 
L 675.689918 514.103037 
L 676.542311 514.755338 
L 677.394704 514.939427 
L 678.247098 514.654946 
L 679.099491 513.902447 
L 679.951884 512.683388 
L 680.804278 511.000132 
L 681.656671 508.855941 
L 682.509064 506.254969 
L 683.361458 503.202259 
L 685.066244 495.766151 
L 686.771031 486.605232 
L 688.475817 475.790484 
L 690.180604 463.405702 
L 691.885391 449.546846 
L 694.442571 426.232494 
L 696.99975 400.251695 
L 699.55693 372.05702 
L 702.966504 331.873689 
L 708.933257 257.963198 
L 714.047616 195.486686 
L 717.45719 156.573985 
L 720.01437 129.694165 
L 722.57155 105.313451 
L 724.276336 90.659781 
L 725.981123 77.42017 
L 727.685909 65.697203 
L 729.390696 55.581711 
L 731.095483 47.152073 
L 732.800269 40.473603 
L 733.652662 37.807769 
L 734.505056 35.598048 
L 735.357449 33.848723 
L 736.209842 32.563185 
L 737.062236 31.743924 
L 737.914629 31.392528 
L 738.767022 31.509679 
L 739.619416 32.095149 
L 740.471809 33.147804 
L 741.324202 34.665603 
L 742.176595 36.645606 
L 743.028989 39.083974 
L 743.881382 41.975983 
L 745.586169 49.097634 
L 747.290955 57.955378 
L 748.995742 68.480584 
L 750.700528 80.5917 
L 752.405315 94.194885 
L 754.110102 109.184738 
L 756.667282 134.012735 
L 759.224462 161.264609 
L 762.634035 200.545365 
L 766.896001 252.655444 
L 774.567541 347.22367 
L 777.977114 386.401202 
L 780.534294 413.548114 
L 783.091474 438.249535 
L 784.796261 453.14407 
L 786.501047 466.644041 
L 788.205834 478.644848 
L 789.91062 489.053504 
L 791.615407 497.789362 
L 793.320194 504.784732 
L 794.172587 507.612258 
L 795.02498 509.985414 
L 795.877374 511.899602 
L 796.729767 513.351111 
L 797.58216 514.337129 
L 798.434553 514.855745 
L 799.286947 514.905953 
L 800.13934 514.487657 
L 800.991733 513.601666 
L 801.844127 512.249699 
L 802.69652 510.434375 
L 803.548913 508.159212 
L 804.401307 505.42862 
L 805.2537 502.24789 
L 806.958486 494.561536 
L 808.663273 485.159704 
L 810.36806 474.115244 
L 812.072846 461.51373 
L 813.777633 447.452802 
L 816.334813 423.866219 
L 818.891993 397.654408 
L 821.449173 369.273965 
L 824.858746 328.918793 
L 831.677892 244.335749 
L 835.939859 192.612755 
L 839.349432 153.918848 
L 841.906612 127.257491 
L 844.463792 103.137684 
L 846.168578 88.679318 
L 847.873365 75.650356 
L 849.578152 64.15175 
L 851.282938 54.272594 
L 852.987725 46.089436 
L 854.692511 39.665679 
L 855.544905 37.129674 
L 856.397298 35.051097 
L 857.249691 33.433975 
L 858.102085 32.281444 
L 858.954478 31.595737 
L 859.806871 31.378182 
L 860.659264 31.629201 
L 861.511658 32.348308 
L 862.364051 33.534109 
L 863.216444 35.184306 
L 864.068838 37.2957 
L 864.921231 39.864201 
L 865.773624 42.88483 
L 867.478411 50.258192 
L 869.183198 59.358654 
L 870.887984 70.115706 
L 872.592771 82.445997 
L 874.297557 96.253991 
L 876.854737 119.499707 
L 879.411917 145.42211 
L 881.969097 173.569644 
L 885.37867 213.709021 
L 891.345423 287.59789 
L 896.459783 350.112893 
L 899.869356 389.079332 
L 902.426536 416.013104 
L 904.983716 440.458445 
L 906.688503 455.160579 
L 908.393289 468.452526 
L 910.098076 480.231295 
L 911.802863 490.405622 
L 913.507649 498.896673 
L 915.212436 505.638658 
L 916.064829 508.336885 
L 916.917222 510.579338 
L 917.769616 512.361671 
L 918.622009 513.68043 
L 919.474402 514.53306 
L 920.326796 514.917908 
L 921.179189 514.834228 
L 922.031582 514.282182 
L 922.883976 513.262841 
L 923.736369 511.778179 
L 924.588762 509.831075 
L 925.441155 507.4253 
L 926.293549 504.565519 
L 927.998335 497.506973 
L 929.703122 488.710129 
L 931.407909 478.243146 
L 933.112695 466.187125 
L 934.817482 452.63548 
L 936.522268 437.693212 
L 939.079448 412.928381 
L 941.636628 385.728853 
L 945.046201 346.499515 
L 949.308168 294.422055 
L 951.012955 273.16 
L 951.012955 273.16 
" clip-path="url(#pf205628ea2)" style="fill: none; stroke: #1f77b4; stroke-width: 3; stroke-linecap: square"/>
   </g>
   <g id="line2d_35">
    <defs>
     <path id="m1b8a7273bd" d="M 0 12.5 
C 3.315039 12.5 6.494748 11.182921 8.838835 8.838835 
C 11.182921 6.494748 12.5 3.315039 12.5 0 
C 12.5 -3.315039 11.182921 -6.494748 8.838835 -8.838835 
C 6.494748 -11.182921 3.315039 -12.5 0 -12.5 
C -3.315039 -12.5 -6.494748 -11.182921 -8.838835 -8.838835 
C -11.182921 -6.494748 -12.5 -3.315039 -12.5 0 
C -12.5 3.315039 -11.182921 6.494748 -8.838835 8.838835 
C -6.494748 11.182921 -3.315039 12.5 0 12.5 
z
" style="stroke: #ff7f0e; stroke-opacity: 0.5"/>
    </defs>
    <g clip-path="url(#pf205628ea2)">
     <use xlink:href="#m1b8a7273bd" x="99.472045" y="273.16" style="fill: #ff7f0e; fill-opacity: 0.5; stroke: #ff7f0e; stroke-opacity: 0.5"/>
     <use xlink:href="#m1b8a7273bd" x="383.319015" y="63.770544" style="fill: #ff7f0e; fill-opacity: 0.5; stroke: #ff7f0e; stroke-opacity: 0.5"/>
     <use xlink:href="#m1b8a7273bd" x="667.165985" y="482.549456" style="fill: #ff7f0e; fill-opacity: 0.5; stroke: #ff7f0e; stroke-opacity: 0.5"/>
     <use xlink:href="#m1b8a7273bd" x="951.012955" y="273.16" style="fill: #ff7f0e; fill-opacity: 0.5; stroke: #ff7f0e; stroke-opacity: 0.5"/>
    </g>
   </g>
   <g id="patch_3">
    <path d="M 56.895 539.12 
L 56.895 7.2 
" style="fill: none; stroke: #000000; stroke-width: 1.5; stroke-linejoin: miter; stroke-linecap: square"/>
   </g>
   <g id="patch_4">
    <path d="M 993.59 539.12 
L 993.59 7.2 
" style="fill: none; stroke: #000000; stroke-width: 1.5; stroke-linejoin: miter; stroke-linecap: square"/>
   </g>
   <g id="patch_5">
    <path d="M 56.895 539.12 
L 993.59 539.12 
" style="fill: none; stroke: #000000; stroke-width: 1.5; stroke-linejoin: miter; stroke-linecap: square"/>
   </g>
   <g id="patch_6">
    <path d="M 56.895 7.2 
L 993.59 7.2 
" style="fill: none; stroke: #000000; stroke-width: 1.5; stroke-linejoin: miter; stroke-linecap: square"/>
   </g>
   <g id="legend_1">
    <g id="patch_7">
     <path d="M 920.09 44.65625 
L 986.59 44.65625 
Q 988.59 44.65625 988.59 42.65625 
L 988.59 14.2 
Q 988.59 12.2 986.59 12.2 
L 920.09 12.2 
Q 918.09 12.2 918.09 14.2 
L 918.09 42.65625 
Q 918.09 44.65625 920.09 44.65625 
z
" style="fill: #ffffff; opacity: 0.8; stroke: #cccccc; stroke-linejoin: miter"/>
    </g>
    <g id="line2d_36">
     <path d="M 922.09 20.259375 
L 932.09 20.259375 
L 942.09 20.259375 
" style="fill: none; stroke: #a80000; stroke-width: 3; stroke-linecap: square"/>
    </g>
    <g id="text_17">
     <!-- $\sin(1x)$ -->
     <g transform="translate(950.09 23.759375) scale(0.1 -0.1)">
      <defs>
       <path id="DejaVuSans-73" d="M 2834 3397 
L 2834 2853 
Q 2591 2978 2328 3040 
Q 2066 3103 1784 3103 
Q 1356 3103 1142 2972 
Q 928 2841 928 2578 
Q 928 2378 1081 2264 
Q 1234 2150 1697 2047 
L 1894 2003 
Q 2506 1872 2764 1633 
Q 3022 1394 3022 966 
Q 3022 478 2636 193 
Q 2250 -91 1575 -91 
Q 1294 -91 989 -36 
Q 684 19 347 128 
L 347 722 
Q 666 556 975 473 
Q 1284 391 1588 391 
Q 1994 391 2212 530 
Q 2431 669 2431 922 
Q 2431 1156 2273 1281 
Q 2116 1406 1581 1522 
L 1381 1569 
Q 847 1681 609 1914 
Q 372 2147 372 2553 
Q 372 3047 722 3315 
Q 1072 3584 1716 3584 
Q 2034 3584 2315 3537 
Q 2597 3491 2834 3397 
z
" transform="scale(0.015625)"/>
       <path id="DejaVuSans-69" d="M 603 3500 
L 1178 3500 
L 1178 0 
L 603 0 
L 603 3500 
z
M 603 4863 
L 1178 4863 
L 1178 4134 
L 603 4134 
L 603 4863 
z
" transform="scale(0.015625)"/>
       <path id="DejaVuSans-6e" d="M 3513 2113 
L 3513 0 
L 2938 0 
L 2938 2094 
Q 2938 2591 2744 2837 
Q 2550 3084 2163 3084 
Q 1697 3084 1428 2787 
Q 1159 2491 1159 1978 
L 1159 0 
L 581 0 
L 581 3500 
L 1159 3500 
L 1159 2956 
Q 1366 3272 1645 3428 
Q 1925 3584 2291 3584 
Q 2894 3584 3203 3211 
Q 3513 2838 3513 2113 
z
" transform="scale(0.015625)"/>
       <path id="DejaVuSans-28" d="M 1984 4856 
Q 1566 4138 1362 3434 
Q 1159 2731 1159 2009 
Q 1159 1288 1364 580 
Q 1569 -128 1984 -844 
L 1484 -844 
Q 1016 -109 783 600 
Q 550 1309 550 2009 
Q 550 2706 781 3412 
Q 1013 4119 1484 4856 
L 1984 4856 
z
" transform="scale(0.015625)"/>
       <path id="DejaVuSans-31" d="M 794 531 
L 1825 531 
L 1825 4091 
L 703 3866 
L 703 4441 
L 1819 4666 
L 2450 4666 
L 2450 531 
L 3481 531 
L 3481 0 
L 794 0 
L 794 531 
z
" transform="scale(0.015625)"/>
       <path id="DejaVuSans-Oblique-78" d="M 3841 3500 
L 2234 1784 
L 3219 0 
L 2559 0 
L 1819 1388 
L 531 0 
L -166 0 
L 1556 1844 
L 641 3500 
L 1300 3500 
L 1972 2234 
L 3144 3500 
L 3841 3500 
z
" transform="scale(0.015625)"/>
       <path id="DejaVuSans-29" d="M 513 4856 
L 1013 4856 
Q 1481 4119 1714 3412 
Q 1947 2706 1947 2009 
Q 1947 1309 1714 600 
Q 1481 -109 1013 -844 
L 513 -844 
Q 928 -128 1133 580 
Q 1338 1288 1338 2009 
Q 1338 2731 1133 3434 
Q 928 4138 513 4856 
z
" transform="scale(0.015625)"/>
      </defs>
      <use xlink:href="#DejaVuSans-73" transform="translate(0 0.015625)"/>
      <use xlink:href="#DejaVuSans-69" transform="translate(52.099609 0.015625)"/>
      <use xlink:href="#DejaVuSans-6e" transform="translate(79.882812 0.015625)"/>
      <use xlink:href="#DejaVuSans-28" transform="translate(143.261719 0.015625)"/>
      <use xlink:href="#DejaVuSans-31" transform="translate(182.275391 0.015625)"/>
      <use xlink:href="#DejaVuSans-Oblique-78" transform="translate(245.898438 0.015625)"/>
      <use xlink:href="#DejaVuSans-29" transform="translate(305.078125 0.015625)"/>
     </g>
    </g>
    <g id="line2d_37">
     <path d="M 922.09 34.9875 
L 932.09 34.9875 
L 942.09 34.9875 
" style="fill: none; stroke: #1f77b4; stroke-width: 3; stroke-linecap: square"/>
    </g>
    <g id="text_18">
     <!-- $\sin(7x)$ -->
     <g transform="translate(950.09 38.4875) scale(0.1 -0.1)">
      <defs>
       <path id="DejaVuSans-37" d="M 525 4666 
L 3525 4666 
L 3525 4397 
L 1831 0 
L 1172 0 
L 2766 4134 
L 525 4134 
L 525 4666 
z
" transform="scale(0.015625)"/>
      </defs>
      <use xlink:href="#DejaVuSans-73" transform="translate(0 0.015625)"/>
      <use xlink:href="#DejaVuSans-69" transform="translate(52.099609 0.015625)"/>
      <use xlink:href="#DejaVuSans-6e" transform="translate(79.882812 0.015625)"/>
      <use xlink:href="#DejaVuSans-28" transform="translate(143.261719 0.015625)"/>
      <use xlink:href="#DejaVuSans-37" transform="translate(182.275391 0.015625)"/>
      <use xlink:href="#DejaVuSans-Oblique-78" transform="translate(245.898438 0.015625)"/>
      <use xlink:href="#DejaVuSans-29" transform="translate(305.078125 0.015625)"/>
     </g>
    </g>
   </g>
  </g>
 </g>
 <defs>
  <clipPath id="pf205628ea2">
   <rect x="56.895" y="7.2" width="936.695" height="531.92"/>
  </clipPath>
 </defs>
</svg>
