<?xml version="1.0" encoding="utf-8" standalone="no"?>
<!DOCTYPE svg PUBLIC "-//W3C//DTD SVG 1.1//EN"
  "http://www.w3.org/Graphics/SVG/1.1/DTD/svg11.dtd">
<svg xmlns:xlink="http://www.w3.org/1999/xlink" width="1000.79625pt" height="568.90125pt" viewBox="0 0 1000.79625 568.90125" xmlns="http://www.w3.org/2000/svg" version="1.1">
 <metadata>
  <rdf:RDF xmlns:dc="http://purl.org/dc/elements/1.1/" xmlns:cc="http://creativecommons.org/ns#" xmlns:rdf="http://www.w3.org/1999/02/22-rdf-syntax-ns#">
   <cc:Work>
    <dc:type rdf:resource="http://purl.org/dc/dcmitype/StillImage"/>
    <dc:date>2023-11-29T02:29:41.120239</dc:date>
    <dc:format>image/svg+xml</dc:format>
    <dc:creator>
     <cc:Agent>
      <dc:title>Matplotlib v3.6.2, https://matplotlib.org/</dc:title>
     </cc:Agent>
    </dc:creator>
   </cc:Work>
  </rdf:RDF>
 </metadata>
 <defs>
  <style type="text/css">*{stroke-linejoin: round; stroke-linecap: butt}</style>
 </defs>
 <g id="figure_1">
  <g id="patch_1">
   <path d="M 0 568.90125 
L 1000.79625 568.90125 
L 1000.79625 0 
L 0 0 
L 0 568.90125 
z
" style="fill: none"/>
  </g>
  <g id="axes_1">
   <g id="patch_2">
    <path d="M 70.53125 515.68 
L 677.23095 515.68 
L 677.23095 7.2 
L 70.53125 7.2 
L 70.53125 515.68 
z
" style="fill: none"/>
   </g>
   <g id="matplotlib.axis_1">
    <g id="xtick_1">
     <g id="line2d_1">
      <path d="M 98.108509 515.68 
L 98.108509 7.2 
" clip-path="url(#pfb745283ae)" style="fill: none; stroke: #b0b0b0; stroke-width: 0.8; stroke-linecap: square"/>
     </g>
     <g id="line2d_2">
      <defs>
       <path id="mf200505690" d="M 0 0 
L 0 3.5 
" style="stroke: #000000; stroke-width: 0.8"/>
      </defs>
      <g>
       <use xlink:href="#mf200505690" x="98.108509" y="515.68" style="stroke: #000000; stroke-width: 0.8"/>
      </g>
     </g>
     <g id="text_1">
      <!-- 0 -->
      <g transform="translate(93.198509 534.775) scale(0.16 -0.16)">
       <defs>
        <path id="Georgia-30" d="M 3209 2919 
Q 3409 2678 3507 2354 
Q 3606 2031 3606 1678 
Q 3606 1253 3484 917 
Q 3363 581 3150 359 
Q 2931 131 2631 15 
Q 2331 -100 1963 -100 
Q 1559 -100 1243 34 
Q 928 169 731 403 
Q 525 647 423 973 
Q 322 1300 322 1678 
Q 322 2050 420 2362 
Q 519 2675 728 2928 
Q 928 3172 1243 3312 
Q 1559 3453 1966 3453 
Q 2394 3453 2700 3309 
Q 3006 3166 3209 2919 
z
M 2916 1678 
Q 2916 2422 2661 2831 
Q 2406 3241 1969 3241 
Q 1525 3241 1269 2831 
Q 1013 2422 1013 1678 
Q 1013 972 1258 542 
Q 1503 113 1963 113 
Q 2422 113 2669 542 
Q 2916 972 2916 1678 
z
" transform="scale(0.015625)"/>
       </defs>
       <use xlink:href="#Georgia-30"/>
      </g>
     </g>
    </g>
    <g id="xtick_2">
     <g id="line2d_3">
      <path d="M 185.889651 515.68 
L 185.889651 7.2 
" clip-path="url(#pfb745283ae)" style="fill: none; stroke: #b0b0b0; stroke-width: 0.8; stroke-linecap: square"/>
     </g>
     <g id="line2d_4">
      <g>
       <use xlink:href="#mf200505690" x="185.889651" y="515.68" style="stroke: #000000; stroke-width: 0.8"/>
      </g>
     </g>
     <g id="text_2">
      <!-- 1 -->
      <g transform="translate(182.452151 534.775) scale(0.16 -0.16)">
       <defs>
        <path id="Georgia-31" d="M 2528 0 
L 422 0 
L 422 222 
Q 516 228 714 248 
Q 913 269 988 291 
Q 1084 322 1136 392 
Q 1188 463 1188 603 
L 1188 2797 
L 409 2797 
L 409 3059 
L 581 3059 
Q 919 3059 1186 3184 
Q 1453 3309 1569 3453 
L 1828 3453 
Q 1819 3250 1809 2978 
Q 1800 2706 1800 2491 
L 1800 638 
Q 1800 528 1848 442 
Q 1897 356 1988 316 
Q 2069 281 2253 253 
Q 2438 225 2528 222 
L 2528 0 
z
" transform="scale(0.015625)"/>
       </defs>
       <use xlink:href="#Georgia-31"/>
      </g>
     </g>
    </g>
    <g id="xtick_3">
     <g id="line2d_5">
      <path d="M 273.670793 515.68 
L 273.670793 7.2 
" clip-path="url(#pfb745283ae)" style="fill: none; stroke: #b0b0b0; stroke-width: 0.8; stroke-linecap: square"/>
     </g>
     <g id="line2d_6">
      <g>
       <use xlink:href="#mf200505690" x="273.670793" y="515.68" style="stroke: #000000; stroke-width: 0.8"/>
      </g>
     </g>
     <g id="text_3">
      <!-- 2 -->
      <g transform="translate(269.202043 534.775) scale(0.16 -0.16)">
       <defs>
        <path id="Georgia-32" d="M 3272 0 
L 344 0 
L 344 425 
Q 428 522 578 642 
Q 728 763 934 903 
Q 1059 988 1234 1088 
Q 1409 1188 1631 1306 
Q 1878 1438 2011 1538 
Q 2144 1638 2253 1784 
Q 2325 1881 2369 2026 
Q 2413 2172 2413 2441 
Q 2413 2831 2203 3014 
Q 1994 3197 1666 3197 
Q 1463 3197 1281 3117 
Q 1100 3038 1009 2897 
Q 1031 2797 1064 2659 
Q 1097 2522 1097 2391 
Q 1097 2272 998 2180 
Q 900 2088 706 2088 
Q 550 2088 465 2195 
Q 381 2303 381 2484 
Q 381 2653 475 2823 
Q 569 2994 744 3138 
Q 916 3278 1169 3365 
Q 1422 3453 1716 3453 
Q 2356 3453 2732 3167 
Q 3109 2881 3109 2403 
Q 3109 2175 3042 1987 
Q 2975 1800 2825 1656 
Q 2659 1497 2437 1383 
Q 2216 1269 1759 1066 
Q 1488 944 1253 811 
Q 1019 678 869 553 
L 3272 553 
L 3272 0 
z
" transform="scale(0.015625)"/>
       </defs>
       <use xlink:href="#Georgia-32"/>
      </g>
     </g>
    </g>
    <g id="xtick_4">
     <g id="line2d_7">
      <path d="M 361.451935 515.68 
L 361.451935 7.2 
" clip-path="url(#pfb745283ae)" style="fill: none; stroke: #b0b0b0; stroke-width: 0.8; stroke-linecap: square"/>
     </g>
     <g id="line2d_8">
      <g>
       <use xlink:href="#mf200505690" x="361.451935" y="515.68" style="stroke: #000000; stroke-width: 0.8"/>
      </g>
     </g>
     <g id="text_4">
      <!-- 3 -->
      <g transform="translate(357.038185 534.775) scale(0.16 -0.16)">
       <defs>
        <path id="Georgia-33" d="M 1522 -1141 
Q 1228 -1141 984 -1067 
Q 741 -994 566 -869 
Q 391 -744 295 -581 
Q 200 -419 200 -247 
Q 200 -94 275 29 
Q 350 153 516 153 
Q 703 153 801 61 
Q 900 -31 900 -150 
Q 900 -250 867 -403 
Q 834 -556 816 -622 
Q 838 -650 895 -697 
Q 953 -744 1038 -781 
Q 1138 -828 1247 -856 
Q 1356 -884 1556 -884 
Q 1744 -884 1917 -821 
Q 2091 -759 2222 -622 
Q 2359 -478 2436 -286 
Q 2513 -94 2513 219 
Q 2513 388 2477 553 
Q 2441 719 2344 841 
Q 2247 963 2080 1030 
Q 1913 1097 1656 1097 
L 1247 1097 
L 1247 1456 
L 1519 1456 
Q 1950 1456 2140 1693 
Q 2331 1931 2331 2409 
Q 2331 2800 2147 2998 
Q 1963 3197 1625 3197 
Q 1463 3197 1358 3158 
Q 1253 3119 1188 3081 
Q 1109 3038 1059 2984 
Q 1009 2931 984 2906 
Q 1006 2806 1037 2661 
Q 1069 2516 1069 2384 
Q 1069 2269 970 2176 
Q 872 2084 681 2084 
Q 516 2084 439 2203 
Q 363 2322 363 2478 
Q 363 2641 453 2809 
Q 544 2978 722 3125 
Q 900 3272 1156 3362 
Q 1413 3453 1747 3453 
Q 2131 3453 2382 3339 
Q 2634 3225 2778 3063 
Q 2919 2903 2972 2728 
Q 3025 2553 3025 2428 
Q 3025 2272 2981 2114 
Q 2938 1956 2838 1822 
Q 2728 1675 2548 1554 
Q 2369 1434 2097 1359 
L 2097 1309 
Q 2272 1294 2470 1231 
Q 2669 1169 2828 1047 
Q 2994 919 3100 717 
Q 3206 516 3206 206 
Q 3206 -394 2725 -767 
Q 2244 -1141 1522 -1141 
z
" transform="scale(0.015625)"/>
       </defs>
       <use xlink:href="#Georgia-33"/>
      </g>
     </g>
    </g>
    <g id="xtick_5">
     <g id="line2d_9">
      <path d="M 449.233077 515.68 
L 449.233077 7.2 
" clip-path="url(#pfb745283ae)" style="fill: none; stroke: #b0b0b0; stroke-width: 0.8; stroke-linecap: square"/>
     </g>
     <g id="line2d_10">
      <g>
       <use xlink:href="#mf200505690" x="449.233077" y="515.68" style="stroke: #000000; stroke-width: 0.8"/>
      </g>
     </g>
     <g id="text_5">
      <!-- 4 -->
      <g transform="translate(444.713077 534.775) scale(0.16 -0.16)">
       <defs>
        <path id="Georgia-34" d="M 3388 281 
L 2753 281 
L 2753 -1141 
L 2153 -1141 
L 2153 281 
L 153 281 
L 153 763 
L 2344 3434 
L 2753 3434 
L 2753 691 
L 3388 691 
L 3388 281 
z
M 2153 691 
L 2153 2738 
L 466 691 
L 2153 691 
z
" transform="scale(0.015625)"/>
       </defs>
       <use xlink:href="#Georgia-34"/>
      </g>
     </g>
    </g>
    <g id="xtick_6">
     <g id="line2d_11">
      <path d="M 537.014219 515.68 
L 537.014219 7.2 
" clip-path="url(#pfb745283ae)" style="fill: none; stroke: #b0b0b0; stroke-width: 0.8; stroke-linecap: square"/>
     </g>
     <g id="line2d_12">
      <g>
       <use xlink:href="#mf200505690" x="537.014219" y="515.68" style="stroke: #000000; stroke-width: 0.8"/>
      </g>
     </g>
     <g id="text_6">
      <!-- 5 -->
      <g transform="translate(532.787969 534.775) scale(0.16 -0.16)">
       <defs>
        <path id="Georgia-35" d="M 2634 1466 
Q 2841 1303 2977 1047 
Q 3113 791 3113 406 
Q 3113 -266 2653 -703 
Q 2194 -1141 1488 -1141 
Q 941 -1141 562 -881 
Q 184 -622 184 -278 
Q 184 -119 262 0 
Q 341 119 503 119 
Q 691 119 789 20 
Q 888 -78 888 -194 
Q 888 -294 853 -444 
Q 819 -594 800 -666 
Q 825 -688 881 -725 
Q 938 -763 1016 -797 
Q 1097 -831 1214 -857 
Q 1331 -884 1488 -884 
Q 1688 -884 1866 -803 
Q 2044 -722 2166 -563 
Q 2300 -388 2367 -164 
Q 2434 59 2434 403 
Q 2434 844 2189 1133 
Q 1944 1422 1544 1422 
Q 1294 1422 1076 1328 
Q 859 1234 688 1016 
L 478 1097 
L 744 3353 
L 2981 3353 
L 2981 2797 
L 997 2797 
L 834 1472 
Q 975 1572 1204 1670 
Q 1434 1769 1709 1769 
Q 1938 1769 2183 1698 
Q 2428 1628 2634 1466 
z
" transform="scale(0.015625)"/>
       </defs>
       <use xlink:href="#Georgia-35"/>
      </g>
     </g>
    </g>
    <g id="xtick_7">
     <g id="line2d_13">
      <path d="M 624.795361 515.68 
L 624.795361 7.2 
" clip-path="url(#pfb745283ae)" style="fill: none; stroke: #b0b0b0; stroke-width: 0.8; stroke-linecap: square"/>
     </g>
     <g id="line2d_14">
      <g>
       <use xlink:href="#mf200505690" x="624.795361" y="515.68" style="stroke: #000000; stroke-width: 0.8"/>
      </g>
     </g>
     <g id="text_7">
      <!-- 6 -->
      <g transform="translate(620.267861 534.775) scale(0.16 -0.16)">
       <defs>
        <path id="Georgia-36" d="M 3359 1441 
Q 3359 1116 3242 831 
Q 3125 547 2928 347 
Q 2700 119 2423 9 
Q 2147 -100 1847 -100 
Q 1500 -100 1219 28 
Q 938 156 741 391 
Q 541 628 431 972 
Q 322 1316 322 1744 
Q 322 2859 986 3625 
Q 1650 4391 2766 4544 
L 2822 4263 
L 2541 4213 
Q 1863 3994 1492 3531 
Q 1122 3069 1013 2409 
Q 1281 2644 1543 2741 
Q 1806 2838 2097 2838 
Q 2619 2838 2989 2438 
Q 3359 2038 3359 1441 
z
M 2681 1356 
Q 2681 1863 2448 2169 
Q 2216 2475 1825 2475 
Q 1591 2475 1389 2387 
Q 1188 2300 1000 2094 
Q 997 2056 990 1920 
Q 984 1784 984 1706 
Q 984 975 1223 561 
Q 1463 147 1853 147 
Q 2225 147 2453 470 
Q 2681 794 2681 1356 
z
" transform="scale(0.015625)"/>
       </defs>
       <use xlink:href="#Georgia-36"/>
      </g>
     </g>
    </g>
    <g id="text_8">
     <!-- $x$ -->
     <g transform="translate(367.8811 557.36375) scale(0.2 -0.2)">
      <defs>
       <path id="DejaVuSans-Oblique-78" d="M 3841 3500 
L 2234 1784 
L 3219 0 
L 2559 0 
L 1819 1388 
L 531 0 
L -166 0 
L 1556 1844 
L 641 3500 
L 1300 3500 
L 1972 2234 
L 3144 3500 
L 3841 3500 
z
" transform="scale(0.015625)"/>
      </defs>
      <use xlink:href="#DejaVuSans-Oblique-78" transform="translate(0 0.3125)"/>
     </g>
    </g>
   </g>
   <g id="matplotlib.axis_2">
    <g id="ytick_1">
     <g id="line2d_15">
      <path d="M 70.53125 446.947939 
L 677.23095 446.947939 
" clip-path="url(#pfb745283ae)" style="fill: none; stroke: #b0b0b0; stroke-width: 0.8; stroke-linecap: square"/>
     </g>
     <g id="line2d_16">
      <defs>
       <path id="mc31b3b2a44" d="M 0 0 
L -3.5 0 
" style="stroke: #000000; stroke-width: 0.8"/>
      </defs>
      <g>
       <use xlink:href="#mc31b3b2a44" x="70.53125" y="446.947939" style="stroke: #000000; stroke-width: 0.8"/>
      </g>
     </g>
     <g id="text_9">
      <!-- −1.0 -->
      <g transform="translate(32.23375 452.995439) scale(0.16 -0.16)">
       <defs>
        <path id="Georgia-2212" d="M 3650 1553 
L 466 1553 
L 466 1944 
L 3650 1944 
L 3650 1553 
z
" transform="scale(0.015625)"/>
        <path id="Georgia-2e" d="M 1297 359 
Q 1297 184 1170 60 
Q 1044 -63 869 -63 
Q 694 -63 567 60 
Q 441 184 441 359 
Q 441 534 567 661 
Q 694 788 869 788 
Q 1044 788 1170 661 
Q 1297 534 1297 359 
z
" transform="scale(0.015625)"/>
       </defs>
       <use xlink:href="#Georgia-2212"/>
       <use xlink:href="#Georgia-31" x="64.306641"/>
       <use xlink:href="#Georgia-2e" x="107.275391"/>
       <use xlink:href="#Georgia-30" x="134.228516"/>
      </g>
     </g>
    </g>
    <g id="ytick_2">
     <g id="line2d_17">
      <path d="M 70.53125 354.193314 
L 677.23095 354.193314 
" clip-path="url(#pfb745283ae)" style="fill: none; stroke: #b0b0b0; stroke-width: 0.8; stroke-linecap: square"/>
     </g>
     <g id="line2d_18">
      <g>
       <use xlink:href="#mc31b3b2a44" x="70.53125" y="354.193314" style="stroke: #000000; stroke-width: 0.8"/>
      </g>
     </g>
     <g id="text_10">
      <!-- −0.5 -->
      <g transform="translate(30.65625 360.240814) scale(0.16 -0.16)">
       <use xlink:href="#Georgia-2212"/>
       <use xlink:href="#Georgia-30" x="64.306641"/>
       <use xlink:href="#Georgia-2e" x="125.683594"/>
       <use xlink:href="#Georgia-35" x="152.636719"/>
      </g>
     </g>
    </g>
    <g id="ytick_3">
     <g id="line2d_19">
      <path d="M 70.53125 261.438689 
L 677.23095 261.438689 
" clip-path="url(#pfb745283ae)" style="fill: none; stroke: #b0b0b0; stroke-width: 0.8; stroke-linecap: square"/>
     </g>
     <g id="line2d_20">
      <g>
       <use xlink:href="#mc31b3b2a44" x="70.53125" y="261.438689" style="stroke: #000000; stroke-width: 0.8"/>
      </g>
     </g>
     <g id="text_11">
      <!-- 0.0 -->
      <g transform="translate(39.57875 267.486189) scale(0.16 -0.16)">
       <use xlink:href="#Georgia-30"/>
       <use xlink:href="#Georgia-2e" x="61.376953"/>
       <use xlink:href="#Georgia-30" x="88.330078"/>
      </g>
     </g>
    </g>
    <g id="ytick_4">
     <g id="line2d_21">
      <path d="M 70.53125 168.684064 
L 677.23095 168.684064 
" clip-path="url(#pfb745283ae)" style="fill: none; stroke: #b0b0b0; stroke-width: 0.8; stroke-linecap: square"/>
     </g>
     <g id="line2d_22">
      <g>
       <use xlink:href="#mc31b3b2a44" x="70.53125" y="168.684064" style="stroke: #000000; stroke-width: 0.8"/>
      </g>
     </g>
     <g id="text_12">
      <!-- 0.5 -->
      <g transform="translate(40.94625 174.731564) scale(0.16 -0.16)">
       <use xlink:href="#Georgia-30"/>
       <use xlink:href="#Georgia-2e" x="61.376953"/>
       <use xlink:href="#Georgia-35" x="88.330078"/>
      </g>
     </g>
    </g>
    <g id="ytick_5">
     <g id="line2d_23">
      <path d="M 70.53125 75.929439 
L 677.23095 75.929439 
" clip-path="url(#pfb745283ae)" style="fill: none; stroke: #b0b0b0; stroke-width: 0.8; stroke-linecap: square"/>
     </g>
     <g id="line2d_24">
      <g>
       <use xlink:href="#mc31b3b2a44" x="70.53125" y="75.929439" style="stroke: #000000; stroke-width: 0.8"/>
      </g>
     </g>
     <g id="text_13">
      <!-- 1.0 -->
      <g transform="translate(42.52375 81.976939) scale(0.16 -0.16)">
       <use xlink:href="#Georgia-31"/>
       <use xlink:href="#Georgia-2e" x="42.96875"/>
       <use xlink:href="#Georgia-30" x="69.921875"/>
      </g>
     </g>
    </g>
    <g id="text_14">
     <!-- $y$ -->
     <g transform="translate(22.31875 267.44) rotate(-90) scale(0.2 -0.2)">
      <defs>
       <path id="DejaVuSans-Oblique-79" d="M 1588 -325 
Q 1188 -997 936 -1164 
Q 684 -1331 294 -1331 
L -159 -1331 
L -63 -850 
L 269 -850 
Q 509 -850 678 -719 
Q 847 -588 1056 -206 
L 1234 128 
L 459 3500 
L 1069 3500 
L 1650 819 
L 3256 3500 
L 3859 3500 
L 1588 -325 
z
" transform="scale(0.015625)"/>
      </defs>
      <use xlink:href="#DejaVuSans-Oblique-79" transform="translate(0 0.3125)"/>
     </g>
    </g>
   </g>
   <g id="line2d_25">
    <path d="M 98.108509 261.438689 
L 115.775622 224.354057 
L 125.161276 205.168363 
L 132.890638 189.841476 
L 140.067902 176.103629 
L 146.69307 163.926577 
L 152.76614 153.250363 
L 158.287112 143.992602 
L 163.255988 136.056702 
L 168.224863 128.522438 
L 173.193739 121.413946 
L 177.610517 115.471163 
L 182.027295 109.897845 
L 186.444074 104.708099 
L 190.308755 100.492072 
L 194.173436 96.587959 
L 198.038117 93.003328 
L 201.902797 89.745125 
L 205.215381 87.216994 
L 208.527965 84.936938 
L 211.840548 82.908202 
L 215.153132 81.133676 
L 218.465716 79.615887 
L 221.778299 78.356995 
L 225.090883 77.358793 
L 228.403467 76.622703 
L 231.716051 76.149773 
L 235.028634 75.940675 
L 238.341218 75.995709 
L 241.653802 76.314794 
L 244.966385 76.897478 
L 248.278969 77.74293 
L 251.591553 78.849947 
L 254.904136 80.216952 
L 258.21672 81.841998 
L 261.529304 83.722773 
L 264.841887 85.856597 
L 268.154471 88.240433 
L 271.467055 90.870886 
L 275.331736 94.246428 
L 279.196416 97.94599 
L 283.061097 101.962401 
L 286.925778 106.287877 
L 291.342557 111.598947 
L 295.759335 117.289283 
L 300.176113 123.344482 
L 304.592891 129.749217 
L 309.561767 137.352131 
L 314.530642 145.352533 
L 320.051615 154.676844 
L 325.572588 164.42334 
L 331.645658 175.586061 
L 338.270825 188.230153 
L 345.44809 202.395971 
L 353.729549 219.225175 
L 364.219397 241.061664 
L 397.345234 310.437409 
L 405.626693 327.074295 
L 412.803958 341.025933 
L 419.429125 353.434455 
L 425.502195 364.350475 
L 431.023168 373.848182 
L 436.544141 382.901371 
L 441.513016 390.639552 
L 446.481892 397.963863 
L 450.89867 404.107918 
L 455.315448 409.890857 
L 459.732227 415.298041 
L 463.596908 419.710309 
L 467.461588 423.815845 
L 471.326269 427.606694 
L 475.19095 431.075508 
L 479.055631 434.215566 
L 482.368215 436.64075 
L 485.680799 438.816463 
L 488.993382 440.739608 
L 492.305966 442.407447 
L 495.61855 443.817604 
L 498.931133 444.968071 
L 502.243717 445.857211 
L 505.556301 446.483757 
L 508.868884 446.846818 
L 512.181468 446.945875 
L 515.494052 446.780789 
L 518.806635 446.351794 
L 522.119219 445.659501 
L 525.431803 444.704896 
L 528.744386 443.489338 
L 532.05697 442.014558 
L 535.369554 440.282656 
L 538.682137 438.296098 
L 541.994721 436.057713 
L 545.307305 433.570687 
L 548.619888 430.838562 
L 552.484569 427.346515 
L 556.34925 423.532938 
L 560.213931 419.405221 
L 564.078612 414.971365 
L 568.49539 409.540284 
L 572.912169 403.734338 
L 577.328947 397.56822 
L 582.297822 390.220288 
L 587.266698 382.459829 
L 592.787671 373.383548 
L 598.308644 363.864588 
L 604.381714 352.92741 
L 611.006881 340.498578 
L 618.184146 326.528329 
L 626.465605 309.874507 
L 636.403356 289.334609 
L 649.65369 261.438689 
L 649.65369 261.438689 
" clip-path="url(#pfb745283ae)" style="fill: none; stroke: #000000; stroke-linecap: square"/>
   </g>
   <g id="line2d_26">
    <defs>
     <path id="m189e8f258f" d="M 0 0.4 
C 0.106081 0.4 0.207832 0.357853 0.282843 0.282843 
C 0.357853 0.207832 0.4 0.106081 0.4 0 
C 0.4 -0.106081 0.357853 -0.207832 0.282843 -0.282843 
C 0.207832 -0.357853 0.106081 -0.4 0 -0.4 
C -0.106081 -0.4 -0.207832 -0.357853 -0.282843 -0.282843 
C -0.357853 -0.207832 -0.4 -0.106081 -0.4 0 
C -0.4 0.106081 -0.357853 0.207832 -0.282843 0.282843 
C -0.207832 0.357853 -0.106081 0.4 0 0.4 
z
" style="stroke: #000000"/>
    </defs>
    <g clip-path="url(#pfb745283ae)">
     <use xlink:href="#m189e8f258f" x="98.108509" y="261.438689" style="stroke: #000000"/>
     <use xlink:href="#m189e8f258f" x="103.679673" y="254.274519" style="stroke: #000000"/>
     <use xlink:href="#m189e8f258f" x="109.250836" y="249.085421" style="stroke: #000000"/>
     <use xlink:href="#m189e8f258f" x="114.821999" y="243.975722" style="stroke: #000000"/>
     <use xlink:href="#m189e8f258f" x="120.393163" y="238.887693" style="stroke: #000000"/>
     <use xlink:href="#m189e8f258f" x="125.964326" y="233.812476" style="stroke: #000000"/>
     <use xlink:href="#m189e8f258f" x="131.53549" y="228.749099" style="stroke: #000000"/>
     <use xlink:href="#m189e8f258f" x="137.106653" y="223.698391" style="stroke: #000000"/>
     <use xlink:href="#m189e8f258f" x="142.677817" y="218.661692" style="stroke: #000000"/>
     <use xlink:href="#m189e8f258f" x="148.24898" y="213.640532" style="stroke: #000000"/>
     <use xlink:href="#m189e8f258f" x="153.820144" y="208.636546" style="stroke: #000000"/>
     <use xlink:href="#m189e8f258f" x="159.391307" y="203.65145" style="stroke: #000000"/>
     <use xlink:href="#m189e8f258f" x="164.96247" y="198.687042" style="stroke: #000000"/>
     <use xlink:href="#m189e8f258f" x="170.533634" y="193.745213" style="stroke: #000000"/>
     <use xlink:href="#m189e8f258f" x="176.104797" y="188.827952" style="stroke: #000000"/>
     <use xlink:href="#m189e8f258f" x="181.675961" y="183.937359" style="stroke: #000000"/>
     <use xlink:href="#m189e8f258f" x="187.247124" y="179.075663" style="stroke: #000000"/>
     <use xlink:href="#m189e8f258f" x="192.818288" y="174.245233" style="stroke: #000000"/>
     <use xlink:href="#m189e8f258f" x="198.389451" y="169.448596" style="stroke: #000000"/>
     <use xlink:href="#m189e8f258f" x="203.960615" y="164.688463" style="stroke: #000000"/>
     <use xlink:href="#m189e8f258f" x="209.531778" y="159.967743" style="stroke: #000000"/>
     <use xlink:href="#m189e8f258f" x="215.102941" y="155.289578" style="stroke: #000000"/>
     <use xlink:href="#m189e8f258f" x="220.674105" y="150.657369" style="stroke: #000000"/>
     <use xlink:href="#m189e8f258f" x="226.245268" y="146.074814" style="stroke: #000000"/>
     <use xlink:href="#m189e8f258f" x="231.816432" y="141.545951" style="stroke: #000000"/>
     <use xlink:href="#m189e8f258f" x="237.387595" y="137.075203" style="stroke: #000000"/>
     <use xlink:href="#m189e8f258f" x="242.958759" y="132.667445" style="stroke: #000000"/>
     <use xlink:href="#m189e8f258f" x="248.529922" y="128.328066" style="stroke: #000000"/>
     <use xlink:href="#m189e8f258f" x="254.101086" y="124.063057" style="stroke: #000000"/>
     <use xlink:href="#m189e8f258f" x="259.672249" y="119.879116" style="stroke: #000000"/>
     <use xlink:href="#m189e8f258f" x="265.243413" y="115.78377" style="stroke: #000000"/>
     <use xlink:href="#m189e8f258f" x="270.814576" y="111.785527" style="stroke: #000000"/>
     <use xlink:href="#m189e8f258f" x="276.385739" y="107.894078" style="stroke: #000000"/>
     <use xlink:href="#m189e8f258f" x="281.956903" y="104.12053" style="stroke: #000000"/>
     <use xlink:href="#m189e8f258f" x="287.528066" y="100.477721" style="stroke: #000000"/>
     <use xlink:href="#m189e8f258f" x="293.09923" y="96.980622" style="stroke: #000000"/>
     <use xlink:href="#m189e8f258f" x="298.670393" y="93.646864" style="stroke: #000000"/>
     <use xlink:href="#m189e8f258f" x="304.241557" y="90.497441" style="stroke: #000000"/>
     <use xlink:href="#m189e8f258f" x="309.81272" y="87.557677" style="stroke: #000000"/>
     <use xlink:href="#m189e8f258f" x="315.383884" y="84.858565" style="stroke: #000000"/>
     <use xlink:href="#m189e8f258f" x="320.955047" y="82.438694" style="stroke: #000000"/>
     <use xlink:href="#m189e8f258f" x="326.52621" y="80.34709" style="stroke: #000000"/>
     <use xlink:href="#m189e8f258f" x="332.097374" y="78.647577" style="stroke: #000000"/>
     <use xlink:href="#m189e8f258f" x="337.668537" y="77.425781" style="stroke: #000000"/>
     <use xlink:href="#m189e8f258f" x="343.239701" y="76.801011" style="stroke: #000000"/>
     <use xlink:href="#m189e8f258f" x="348.810864" y="76.947968" style="stroke: #000000"/>
     <use xlink:href="#m189e8f258f" x="354.382028" y="78.140419" style="stroke: #000000"/>
     <use xlink:href="#m189e8f258f" x="359.953191" y="80.851879" style="stroke: #000000"/>
     <use xlink:href="#m189e8f258f" x="365.524355" y="86.039918" style="stroke: #000000"/>
     <use xlink:href="#m189e8f258f" x="371.095518" y="96.255662" style="stroke: #000000"/>
     <use xlink:href="#m189e8f258f" x="376.666681" y="426.621716" style="stroke: #000000"/>
     <use xlink:href="#m189e8f258f" x="382.237845" y="436.83746" style="stroke: #000000"/>
     <use xlink:href="#m189e8f258f" x="387.809008" y="442.025499" style="stroke: #000000"/>
     <use xlink:href="#m189e8f258f" x="393.380172" y="444.736959" style="stroke: #000000"/>
     <use xlink:href="#m189e8f258f" x="398.951335" y="445.92941" style="stroke: #000000"/>
     <use xlink:href="#m189e8f258f" x="404.522499" y="446.076367" style="stroke: #000000"/>
     <use xlink:href="#m189e8f258f" x="410.093662" y="445.451597" style="stroke: #000000"/>
     <use xlink:href="#m189e8f258f" x="415.664826" y="444.229801" style="stroke: #000000"/>
     <use xlink:href="#m189e8f258f" x="421.235989" y="442.530288" style="stroke: #000000"/>
     <use xlink:href="#m189e8f258f" x="426.807153" y="440.438684" style="stroke: #000000"/>
     <use xlink:href="#m189e8f258f" x="432.378316" y="438.018813" style="stroke: #000000"/>
     <use xlink:href="#m189e8f258f" x="437.949479" y="435.319701" style="stroke: #000000"/>
     <use xlink:href="#m189e8f258f" x="443.520643" y="432.379937" style="stroke: #000000"/>
     <use xlink:href="#m189e8f258f" x="449.091806" y="429.230514" style="stroke: #000000"/>
     <use xlink:href="#m189e8f258f" x="454.66297" y="425.896756" style="stroke: #000000"/>
     <use xlink:href="#m189e8f258f" x="460.234133" y="422.399657" style="stroke: #000000"/>
     <use xlink:href="#m189e8f258f" x="465.805297" y="418.756848" style="stroke: #000000"/>
     <use xlink:href="#m189e8f258f" x="471.37646" y="414.9833" style="stroke: #000000"/>
     <use xlink:href="#m189e8f258f" x="476.947624" y="411.091851" style="stroke: #000000"/>
     <use xlink:href="#m189e8f258f" x="482.518787" y="407.093608" style="stroke: #000000"/>
     <use xlink:href="#m189e8f258f" x="488.08995" y="402.998262" style="stroke: #000000"/>
     <use xlink:href="#m189e8f258f" x="493.661114" y="398.814321" style="stroke: #000000"/>
     <use xlink:href="#m189e8f258f" x="499.232277" y="394.549312" style="stroke: #000000"/>
     <use xlink:href="#m189e8f258f" x="504.803441" y="390.209933" style="stroke: #000000"/>
     <use xlink:href="#m189e8f258f" x="510.374604" y="385.802175" style="stroke: #000000"/>
     <use xlink:href="#m189e8f258f" x="515.945768" y="381.331427" style="stroke: #000000"/>
     <use xlink:href="#m189e8f258f" x="521.516931" y="376.802564" style="stroke: #000000"/>
     <use xlink:href="#m189e8f258f" x="527.088095" y="372.220009" style="stroke: #000000"/>
     <use xlink:href="#m189e8f258f" x="532.659258" y="367.5878" style="stroke: #000000"/>
     <use xlink:href="#m189e8f258f" x="538.230421" y="362.909635" style="stroke: #000000"/>
     <use xlink:href="#m189e8f258f" x="543.801585" y="358.188915" style="stroke: #000000"/>
     <use xlink:href="#m189e8f258f" x="549.372748" y="353.428782" style="stroke: #000000"/>
     <use xlink:href="#m189e8f258f" x="554.943912" y="348.632145" style="stroke: #000000"/>
     <use xlink:href="#m189e8f258f" x="560.515075" y="343.801715" style="stroke: #000000"/>
     <use xlink:href="#m189e8f258f" x="566.086239" y="338.940019" style="stroke: #000000"/>
     <use xlink:href="#m189e8f258f" x="571.657402" y="334.049426" style="stroke: #000000"/>
     <use xlink:href="#m189e8f258f" x="577.228566" y="329.132165" style="stroke: #000000"/>
     <use xlink:href="#m189e8f258f" x="582.799729" y="324.190336" style="stroke: #000000"/>
     <use xlink:href="#m189e8f258f" x="588.370893" y="319.225928" style="stroke: #000000"/>
     <use xlink:href="#m189e8f258f" x="593.942056" y="314.240832" style="stroke: #000000"/>
     <use xlink:href="#m189e8f258f" x="599.513219" y="309.236846" style="stroke: #000000"/>
     <use xlink:href="#m189e8f258f" x="605.084383" y="304.215686" style="stroke: #000000"/>
     <use xlink:href="#m189e8f258f" x="610.655546" y="299.178987" style="stroke: #000000"/>
     <use xlink:href="#m189e8f258f" x="616.22671" y="294.128279" style="stroke: #000000"/>
     <use xlink:href="#m189e8f258f" x="621.797873" y="289.064902" style="stroke: #000000"/>
     <use xlink:href="#m189e8f258f" x="627.369037" y="283.989685" style="stroke: #000000"/>
     <use xlink:href="#m189e8f258f" x="632.9402" y="278.901656" style="stroke: #000000"/>
     <use xlink:href="#m189e8f258f" x="638.511364" y="273.791957" style="stroke: #000000"/>
     <use xlink:href="#m189e8f258f" x="644.082527" y="268.602859" style="stroke: #000000"/>
     <use xlink:href="#m189e8f258f" x="649.65369" y="261.438689" style="stroke: #000000"/>
    </g>
   </g>
   <g id="line2d_27">
    <path d="M 98.108509 261.438982 
L 103.679673 253.846479 
L 109.250836 254.226549 
L 114.821999 252.243118 
L 120.393163 232.555069 
L 125.964326 248.982109 
L 131.53549 229.488415 
L 137.106653 220.720394 
L 142.677817 236.150658 
L 148.24898 205.905677 
L 153.820144 213.413034 
L 159.391307 214.648671 
L 164.96247 190.487525 
L 170.533634 200.808942 
L 176.104797 195.818551 
L 181.675961 175.975587 
L 187.247124 187.473498 
L 192.818288 178.843908 
L 198.389451 160.98444 
L 203.960615 175.878354 
L 209.531778 160.64675 
L 215.102941 148.164832 
L 220.674105 163.82438 
L 226.245268 142.36689 
L 231.816432 137.446215 
L 237.387595 150.570277 
L 242.958759 125.215181 
L 248.529922 128.024002 
L 254.101086 136.544481 
L 259.672249 109.516374 
L 265.243413 119.683832 
L 270.814576 122.068743 
L 276.385739 95.554718 
L 281.956903 112.425733 
L 287.528066 107.399731 
L 293.09923 83.74978 
L 298.670393 106.319744 
L 304.241557 92.892683 
L 309.81272 74.63026 
L 315.383884 101.632822 
L 320.955047 79.03329 
L 326.52621 68.909658 
L 332.097374 99.166772 
L 337.668537 66.343948 
L 343.239701 67.81127 
L 348.810864 101.371208 
L 354.382028 54.610039 
L 359.953191 74.307111 
L 365.524355 121.200944 
L 371.095518 30.312727 
L 376.666681 492.567273 
L 382.237845 401.670765 
L 387.809008 448.574363 
L 393.380172 468.268865 
L 398.951335 421.496482 
L 404.522499 455.082083 
L 410.093662 456.516476 
L 415.664826 423.721247 
L 421.235989 453.969229 
L 426.807153 443.829508 
L 432.378316 421.268118 
L 437.949479 448.223406 
L 443.520643 430.000315 
L 449.091806 416.555285 
L 454.66297 439.117767 
L 460.234133 415.493726 
L 465.805297 410.436762 
L 471.37646 427.330696 
L 476.947624 400.808335 
L 482.518787 403.188876 
L 488.08995 413.366079 
L 493.661114 386.330593 
L 499.232277 394.852396 
L 504.803441 397.664672 
L 510.374604 372.30541 
L 515.945768 385.430952 
L 521.516931 380.512033 
L 527.088095 359.051586 
L 532.659258 374.712733 
L 538.230421 362.231618 
L 543.801585 346.99782 
L 549.372748 361.893361 
L 554.943912 344.034059 
L 560.515075 335.402884 
L 566.086239 346.90233 
L 571.657402 327.059131 
L 577.228566 322.067628 
L 582.799729 332.390437 
L 588.370893 308.22881 
L 593.942056 309.463698 
L 599.513219 316.972294 
L 605.084383 286.726682 
L 610.655546 302.156471 
L 616.22671 293.389547 
L 621.797873 273.895129 
L 627.369037 290.321902 
L 632.9402 270.634841 
L 638.511364 268.650603 
L 644.082527 269.03058 
L 649.65369 261.438982 
" clip-path="url(#pfb745283ae)" style="fill: none; stroke: #a80000; stroke-width: 3; stroke-linecap: square"/>
   </g>
   <g id="line2d_28">
    <path d="M 100.262982 267.48732 
L 104.571929 260.167012 
L 108.880876 254.581587 
L 113.189823 249.966238 
L 117.498769 245.836038 
L 134.734556 230.045438 
L 147.661396 217.721973 
L 164.897183 201.327171 
L 177.824024 189.428334 
L 190.750864 177.879336 
L 203.677704 166.615677 
L 216.604544 155.609961 
L 229.531384 144.879612 
L 242.458225 134.468622 
L 255.385065 124.436899 
L 264.002958 117.996791 
L 272.620852 111.786821 
L 281.238745 105.840418 
L 289.856639 100.198127 
L 298.474532 94.910246 
L 307.092425 90.040676 
L 311.401372 87.787695 
L 315.710319 85.672165 
L 320.019266 83.708658 
L 324.328212 81.914261 
L 328.637159 80.309405 
L 332.946106 78.919171 
L 337.255053 77.77535 
L 341.563999 76.919646 
L 345.872946 76.408529 
L 350.181893 76.320472 
L 354.490839 76.7665 
L 358.799786 77.905272 
L 363.108733 79.964246 
L 367.41768 83.26892 
L 371.726626 88.282579 
L 376.035573 434.585926 
L 380.34452 439.605647 
L 384.653467 442.912962 
L 388.962413 444.972795 
L 393.27136 446.111612 
L 397.580307 446.557406 
L 401.889254 446.469093 
L 406.1982 445.9578 
L 410.507147 445.102017 
L 414.816094 443.958191 
L 419.12504 442.567992 
L 423.433987 440.963183 
L 427.742934 439.168823 
L 432.051881 437.205334 
L 436.360827 435.089799 
L 444.978721 430.458926 
L 453.596614 425.37111 
L 462.214508 419.898951 
L 470.832401 414.098997 
L 479.450295 408.016253 
L 488.068188 401.687426 
L 496.686082 395.143043 
L 509.612922 384.977305 
L 522.539762 374.453924 
L 535.466602 363.627858 
L 548.393442 352.536093 
L 561.320282 341.182902 
L 574.247123 329.52475 
L 587.173963 317.499559 
L 621.645537 284.878493 
L 630.26343 277.038079 
L 634.572377 272.903796 
L 638.881324 268.280791 
L 643.19027 262.681788 
L 647.499217 255.338427 
L 647.499217 255.338427 
" clip-path="url(#pfb745283ae)" style="fill: none; stroke: #1f77b4; stroke-width: 3; stroke-linecap: square"/>
   </g>
   <g id="patch_3">
    <path d="M 70.53125 515.68 
L 70.53125 7.2 
" style="fill: none; stroke: #000000; stroke-width: 1.5; stroke-linejoin: miter; stroke-linecap: square"/>
   </g>
   <g id="patch_4">
    <path d="M 677.23095 515.68 
L 677.23095 7.2 
" style="fill: none; stroke: #000000; stroke-width: 1.5; stroke-linejoin: miter; stroke-linecap: square"/>
   </g>
   <g id="patch_5">
    <path d="M 70.53125 515.68 
L 677.23095 515.68 
" style="fill: none; stroke: #000000; stroke-width: 1.5; stroke-linejoin: miter; stroke-linecap: square"/>
   </g>
   <g id="patch_6">
    <path d="M 70.53125 7.2 
L 677.23095 7.2 
" style="fill: none; stroke: #000000; stroke-width: 1.5; stroke-linejoin: miter; stroke-linecap: square"/>
   </g>
   <g id="legend_1">
    <g id="patch_7">
     <path d="M 576.40595 74.1125 
L 670.23095 74.1125 
Q 672.23095 74.1125 672.23095 72.1125 
L 672.23095 14.2 
Q 672.23095 12.2 670.23095 12.2 
L 576.40595 12.2 
Q 574.40595 12.2 574.40595 14.2 
L 574.40595 72.1125 
Q 574.40595 74.1125 576.40595 74.1125 
z
" style="fill: #ffffff; opacity: 0.8; stroke: #cccccc; stroke-linejoin: miter"/>
    </g>
    <g id="line2d_29">
     <path d="M 578.40595 20.259375 
L 588.40595 20.259375 
L 598.40595 20.259375 
" style="fill: none; stroke: #000000; stroke-linecap: square"/>
    </g>
    <g id="text_15">
     <!-- Init -->
     <g transform="translate(606.40595 23.759375) scale(0.1 -0.1)">
      <defs>
       <path id="Georgia-49" d="M 2244 0 
L 247 0 
L 247 222 
Q 331 228 490 240 
Q 650 253 716 278 
Q 819 319 866 389 
Q 913 459 913 584 
L 913 3797 
Q 913 3906 878 3979 
Q 844 4053 716 4103 
Q 622 4141 480 4173 
Q 338 4206 247 4213 
L 247 4434 
L 2244 4434 
L 2244 4213 
Q 2147 4209 2012 4189 
Q 1878 4169 1778 4138 
Q 1659 4100 1618 4015 
Q 1578 3931 1578 3828 
L 1578 619 
Q 1578 516 1623 436 
Q 1669 356 1778 309 
Q 1844 284 1992 254 
Q 2141 225 2244 222 
L 2244 0 
z
" transform="scale(0.015625)"/>
       <path id="Georgia-6e" d="M 3628 0 
L 2119 0 
L 2119 206 
Q 2191 213 2277 219 
Q 2363 225 2419 244 
Q 2506 272 2548 342 
Q 2591 413 2591 525 
L 2591 2109 
Q 2591 2438 2436 2616 
Q 2281 2794 2059 2794 
Q 1894 2794 1756 2742 
Q 1619 2691 1513 2616 
Q 1409 2544 1348 2461 
Q 1288 2378 1259 2328 
L 1259 556 
Q 1259 450 1303 381 
Q 1347 313 1434 275 
Q 1500 244 1576 228 
Q 1653 213 1734 206 
L 1734 0 
L 225 0 
L 225 206 
Q 297 213 373 219 
Q 450 225 506 244 
Q 594 272 636 342 
Q 678 413 678 525 
L 678 2428 
Q 678 2534 633 2623 
Q 588 2713 506 2769 
Q 447 2806 365 2823 
Q 284 2841 191 2847 
L 191 3050 
L 1216 3119 
L 1259 3075 
L 1259 2641 
L 1275 2641 
Q 1350 2716 1462 2820 
Q 1575 2925 1675 2991 
Q 1791 3066 1950 3116 
Q 2109 3166 2309 3166 
Q 2753 3166 2967 2889 
Q 3181 2613 3181 2153 
L 3181 550 
Q 3181 441 3218 373 
Q 3256 306 3347 269 
Q 3422 238 3476 225 
Q 3531 213 3628 206 
L 3628 0 
z
" transform="scale(0.015625)"/>
       <path id="Georgia-69" d="M 1722 0 
L 231 0 
L 231 206 
Q 303 213 379 219 
Q 456 225 513 244 
Q 600 272 642 342 
Q 684 413 684 525 
L 684 2428 
Q 684 2528 639 2611 
Q 594 2694 513 2750 
Q 453 2788 340 2814 
Q 228 2841 134 2847 
L 134 3050 
L 1222 3119 
L 1266 3075 
L 1266 563 
Q 1266 453 1308 381 
Q 1350 309 1441 275 
Q 1509 247 1575 230 
Q 1641 213 1722 206 
L 1722 0 
z
M 1328 4334 
Q 1328 4156 1211 4023 
Q 1094 3891 922 3891 
Q 763 3891 645 4017 
Q 528 4144 528 4306 
Q 528 4478 645 4606 
Q 763 4734 922 4734 
Q 1100 4734 1214 4614 
Q 1328 4494 1328 4334 
z
" transform="scale(0.015625)"/>
       <path id="Georgia-74" d="M 2128 134 
Q 1925 50 1744 -8 
Q 1563 -66 1300 -66 
Q 913 -66 755 129 
Q 597 325 597 681 
L 597 2769 
L 41 2769 
L 41 3069 
L 609 3069 
L 609 4028 
L 1178 4028 
L 1178 3069 
L 2063 3069 
L 2063 2769 
L 1184 2769 
L 1184 1047 
Q 1184 853 1198 723 
Q 1213 594 1266 497 
Q 1316 406 1416 359 
Q 1516 313 1684 313 
Q 1763 313 1914 327 
Q 2066 341 2128 363 
L 2128 134 
z
" transform="scale(0.015625)"/>
      </defs>
      <use xlink:href="#Georgia-49"/>
      <use xlink:href="#Georgia-6e" x="38.964844"/>
      <use xlink:href="#Georgia-69" x="98.046875"/>
      <use xlink:href="#Georgia-74" x="127.34375"/>
     </g>
    </g>
    <g id="line2d_30">
     <g>
      <use xlink:href="#m189e8f258f" x="588.40595" y="34.9875" style="stroke: #000000"/>
     </g>
    </g>
    <g id="text_16">
     <!-- Exact -->
     <g transform="translate(606.40595 38.4875) scale(0.1 -0.1)">
      <defs>
       <path id="Georgia-45" d="M 4034 1306 
L 3950 0 
L 269 0 
L 269 222 
Q 363 228 519 248 
Q 675 269 722 291 
Q 822 338 861 413 
Q 900 488 900 603 
L 900 3791 
Q 900 3894 865 3973 
Q 831 4053 722 4103 
Q 638 4144 495 4175 
Q 353 4206 269 4213 
L 269 4434 
L 3700 4434 
L 3700 3366 
L 3466 3366 
Q 3403 3603 3195 3870 
Q 2988 4138 2800 4163 
Q 2703 4175 2568 4181 
Q 2434 4188 2263 4188 
L 1566 4188 
L 1566 2425 
L 2066 2425 
Q 2306 2425 2417 2470 
Q 2528 2516 2613 2622 
Q 2681 2713 2729 2864 
Q 2778 3016 2794 3150 
L 3028 3150 
L 3028 1416 
L 2794 1416 
Q 2781 1566 2726 1733 
Q 2672 1900 2613 1975 
Q 2516 2097 2392 2134 
Q 2269 2172 2066 2172 
L 1566 2172 
L 1566 841 
Q 1566 641 1594 525 
Q 1622 409 1703 350 
Q 1784 291 1925 273 
Q 2066 256 2325 256 
Q 2428 256 2597 256 
Q 2766 256 2881 269 
Q 3000 281 3126 314 
Q 3253 347 3306 403 
Q 3450 553 3608 858 
Q 3766 1163 3809 1306 
L 4034 1306 
z
" transform="scale(0.015625)"/>
       <path id="Georgia-78" d="M 3194 0 
L 1781 0 
L 1781 206 
Q 1922 222 2020 237 
Q 2119 253 2119 319 
Q 2119 347 2087 406 
Q 2056 466 2025 516 
Q 1947 638 1811 842 
Q 1675 1047 1478 1331 
Q 1316 1128 1178 936 
Q 1041 744 891 528 
Q 869 497 845 450 
Q 822 403 822 375 
Q 822 306 911 261 
Q 1000 216 1178 200 
L 1178 0 
L 38 0 
L 38 194 
Q 250 256 379 345 
Q 509 434 619 566 
Q 716 691 889 909 
Q 1063 1128 1338 1503 
Q 1178 1731 948 2061 
Q 719 2391 569 2609 
Q 488 2728 383 2801 
Q 278 2875 88 2875 
L 88 3081 
L 1428 3081 
L 1428 2875 
Q 1328 2875 1231 2862 
Q 1134 2850 1134 2806 
Q 1134 2778 1153 2743 
Q 1172 2709 1200 2669 
Q 1269 2563 1414 2341 
Q 1559 2119 1728 1872 
Q 1838 2022 1983 2222 
Q 2128 2422 2250 2603 
Q 2263 2625 2275 2658 
Q 2288 2691 2288 2722 
Q 2288 2788 2180 2827 
Q 2072 2866 1975 2881 
L 1975 3081 
L 3113 3081 
L 3113 2888 
Q 2872 2825 2737 2739 
Q 2603 2653 2509 2541 
Q 2406 2413 2264 2225 
Q 2122 2038 1866 1700 
Q 2150 1300 2328 1044 
Q 2506 788 2688 516 
Q 2778 378 2889 298 
Q 3000 219 3194 206 
L 3194 0 
z
" transform="scale(0.015625)"/>
       <path id="Georgia-61" d="M 3144 56 
Q 2997 3 2886 -30 
Q 2775 -63 2634 -63 
Q 2391 -63 2245 51 
Q 2100 166 2059 384 
L 2041 384 
Q 1838 159 1605 40 
Q 1372 -78 1044 -78 
Q 697 -78 473 134 
Q 250 347 250 691 
Q 250 869 300 1009 
Q 350 1150 450 1263 
Q 528 1356 656 1429 
Q 784 1503 897 1547 
Q 1038 1600 1467 1744 
Q 1897 1888 2047 1969 
L 2047 2278 
Q 2047 2319 2030 2434 
Q 2013 2550 1956 2653 
Q 1894 2769 1780 2855 
Q 1666 2941 1456 2941 
Q 1313 2941 1189 2892 
Q 1066 2844 1016 2791 
Q 1016 2728 1045 2606 
Q 1075 2484 1075 2381 
Q 1075 2272 976 2181 
Q 878 2091 703 2091 
Q 547 2091 473 2202 
Q 400 2313 400 2450 
Q 400 2594 501 2725 
Q 603 2856 766 2959 
Q 906 3047 1106 3108 
Q 1306 3169 1497 3169 
Q 1759 3169 1954 3133 
Q 2150 3097 2309 2978 
Q 2469 2863 2551 2664 
Q 2634 2466 2634 2153 
Q 2634 1706 2625 1361 
Q 2616 1016 2616 606 
Q 2616 484 2658 412 
Q 2700 341 2788 291 
Q 2834 263 2936 259 
Q 3038 256 3144 256 
L 3144 56 
z
M 2053 1706 
Q 1788 1628 1588 1553 
Q 1388 1478 1216 1366 
Q 1059 1259 968 1114 
Q 878 969 878 769 
Q 878 509 1014 387 
Q 1150 266 1359 266 
Q 1581 266 1750 373 
Q 1919 481 2034 628 
L 2053 1706 
z
" transform="scale(0.015625)"/>
       <path id="Georgia-63" d="M 1650 -81 
Q 981 -81 603 362 
Q 225 806 225 1553 
Q 225 1878 326 2161 
Q 428 2444 622 2675 
Q 806 2897 1084 3033 
Q 1363 3169 1691 3169 
Q 2144 3169 2428 2951 
Q 2713 2734 2713 2359 
Q 2713 2203 2638 2083 
Q 2563 1963 2391 1963 
Q 2206 1963 2104 2056 
Q 2003 2150 2003 2266 
Q 2003 2406 2040 2554 
Q 2078 2703 2084 2772 
Q 2028 2869 1917 2901 
Q 1806 2934 1678 2934 
Q 1528 2934 1392 2870 
Q 1256 2806 1128 2634 
Q 1013 2478 941 2212 
Q 869 1947 869 1578 
Q 869 997 1126 630 
Q 1384 263 1803 263 
Q 2106 263 2311 409 
Q 2516 556 2691 850 
L 2891 719 
Q 2684 350 2346 134 
Q 2009 -81 1650 -81 
z
" transform="scale(0.015625)"/>
      </defs>
      <use xlink:href="#Georgia-45"/>
      <use xlink:href="#Georgia-78" x="65.332031"/>
      <use xlink:href="#Georgia-61" x="115.820312"/>
      <use xlink:href="#Georgia-63" x="166.210938"/>
      <use xlink:href="#Georgia-74" x="211.621094"/>
     </g>
    </g>
    <g id="line2d_31">
     <path d="M 578.40595 49.715625 
L 588.40595 49.715625 
L 598.40595 49.715625 
" style="fill: none; stroke: #a80000; stroke-width: 3; stroke-linecap: square"/>
    </g>
    <g id="text_17">
     <!-- 128, t=1.3 -->
     <g transform="translate(606.40595 53.215625) scale(0.1 -0.1)">
      <defs>
       <path id="Georgia-38" d="M 3491 1175 
Q 3491 650 3037 272 
Q 2584 -106 1847 -106 
Q 1156 -106 740 241 
Q 325 588 325 1134 
Q 325 1538 570 1808 
Q 816 2078 1297 2266 
Q 900 2488 703 2753 
Q 506 3019 506 3353 
Q 506 3863 939 4206 
Q 1372 4550 1975 4550 
Q 2578 4550 2951 4225 
Q 3325 3900 3325 3409 
Q 3325 3094 3119 2811 
Q 2913 2528 2513 2347 
Q 3031 2125 3261 1856 
Q 3491 1588 3491 1175 
z
M 2734 3444 
Q 2734 3825 2507 4064 
Q 2281 4303 1928 4303 
Q 1575 4303 1350 4073 
Q 1125 3844 1125 3503 
Q 1125 3175 1381 2947 
Q 1638 2719 2294 2459 
Q 2528 2609 2631 2856 
Q 2734 3103 2734 3444 
z
M 2866 1028 
Q 2866 1225 2781 1373 
Q 2697 1522 2538 1644 
Q 2384 1763 2111 1892 
Q 1838 2022 1519 2156 
Q 1219 1994 1078 1742 
Q 938 1491 938 1169 
Q 938 709 1208 426 
Q 1478 144 1928 144 
Q 2359 144 2612 394 
Q 2866 644 2866 1028 
z
" transform="scale(0.015625)"/>
       <path id="Georgia-2c" d="M 1341 109 
Q 1341 -116 1239 -316 
Q 1138 -516 1006 -659 
Q 872 -809 722 -925 
Q 572 -1041 447 -1106 
L 303 -897 
Q 453 -803 572 -709 
Q 691 -616 766 -522 
Q 859 -413 925 -284 
Q 991 -156 1009 6 
L 850 6 
Q 641 6 523 115 
Q 406 225 406 409 
Q 406 541 512 664 
Q 619 788 803 788 
Q 1072 788 1206 608 
Q 1341 428 1341 109 
z
" transform="scale(0.015625)"/>
       <path id="Georgia-20" transform="scale(0.015625)"/>
       <path id="Georgia-3d" d="M 3634 2134 
L 481 2134 
L 481 2525 
L 3634 2525 
L 3634 2134 
z
M 3634 972 
L 481 972 
L 481 1363 
L 3634 1363 
L 3634 972 
z
" transform="scale(0.015625)"/>
      </defs>
      <use xlink:href="#Georgia-31"/>
      <use xlink:href="#Georgia-32" x="42.96875"/>
      <use xlink:href="#Georgia-38" x="98.828125"/>
      <use xlink:href="#Georgia-2c" x="158.447266"/>
      <use xlink:href="#Georgia-20" x="185.400391"/>
      <use xlink:href="#Georgia-74" x="209.521484"/>
      <use xlink:href="#Georgia-3d" x="244.042969"/>
      <use xlink:href="#Georgia-31" x="308.349609"/>
      <use xlink:href="#Georgia-2e" x="351.318359"/>
      <use xlink:href="#Georgia-33" x="378.271484"/>
     </g>
    </g>
    <g id="line2d_32">
     <path d="M 578.40595 64.44375 
L 588.40595 64.44375 
L 598.40595 64.44375 
" style="fill: none; stroke: #1f77b4; stroke-width: 3; stroke-linecap: square"/>
    </g>
    <g id="text_18">
     <!-- 128, t=1.3,ggb -->
     <g transform="translate(606.40595 67.94375) scale(0.1 -0.1)">
      <defs>
       <path id="Georgia-67" d="M 2866 319 
Q 2991 200 3062 50 
Q 3134 -100 3134 -322 
Q 3134 -544 3037 -739 
Q 2941 -934 2744 -1078 
Q 2534 -1225 2243 -1306 
Q 1953 -1388 1525 -1388 
Q 825 -1388 478 -1183 
Q 131 -978 131 -584 
Q 131 -266 381 -81 
Q 631 103 1019 119 
L 1019 163 
Q 925 191 825 233 
Q 725 275 653 331 
Q 572 397 522 486 
Q 472 575 472 706 
Q 472 872 589 1011 
Q 706 1150 944 1250 
L 944 1297 
Q 644 1438 478 1658 
Q 313 1878 313 2169 
Q 313 2606 639 2887 
Q 966 3169 1475 3169 
Q 1616 3169 1755 3141 
Q 1894 3113 2038 3069 
L 3113 3069 
L 3113 2769 
L 2388 2769 
L 2388 2750 
Q 2503 2616 2559 2453 
Q 2616 2291 2616 2134 
Q 2616 1728 2286 1447 
Q 1956 1166 1519 1166 
L 1141 1166 
Q 1069 1141 991 1075 
Q 913 1009 913 897 
Q 913 781 978 720 
Q 1044 659 1138 638 
Q 1228 613 1348 606 
Q 1469 600 1597 597 
Q 1734 594 1973 578 
Q 2213 563 2313 559 
Q 2456 553 2601 490 
Q 2747 428 2866 319 
z
M 2022 2147 
Q 2022 2513 1873 2730 
Q 1725 2947 1456 2947 
Q 1309 2947 1204 2886 
Q 1100 2825 1034 2713 
Q 972 2609 945 2464 
Q 919 2319 919 2166 
Q 919 1819 1070 1600 
Q 1222 1381 1463 1381 
Q 1731 1381 1876 1598 
Q 2022 1816 2022 2147 
z
M 2622 -438 
Q 2622 -263 2540 -150 
Q 2459 -38 2294 3 
Q 2206 16 1934 31 
Q 1663 47 1303 47 
Q 966 -19 823 -173 
Q 681 -328 681 -572 
Q 681 -681 728 -781 
Q 775 -881 891 -966 
Q 1000 -1047 1184 -1098 
Q 1369 -1150 1634 -1150 
Q 2094 -1150 2358 -973 
Q 2622 -797 2622 -438 
z
" transform="scale(0.015625)"/>
       <path id="Georgia-62" d="M 3353 1544 
Q 3353 850 2915 378 
Q 2478 -94 1900 -94 
Q 1647 -94 1401 -15 
Q 1156 63 941 194 
L 709 -166 
L 516 -122 
Q 531 109 537 434 
Q 544 759 544 1063 
L 544 4113 
Q 544 4219 495 4325 
Q 447 4431 372 4478 
Q 313 4519 173 4539 
Q 34 4559 -50 4566 
L -50 4766 
L 1081 4838 
L 1125 4791 
L 1125 2759 
L 1147 2753 
Q 1341 2959 1570 3062 
Q 1800 3166 2022 3166 
Q 2591 3166 2972 2716 
Q 3353 2266 3353 1544 
z
M 2700 1522 
Q 2700 1753 2650 1993 
Q 2600 2234 2494 2413 
Q 2388 2594 2216 2706 
Q 2044 2819 1803 2819 
Q 1584 2819 1420 2733 
Q 1256 2647 1125 2500 
L 1125 706 
Q 1144 631 1198 531 
Q 1253 431 1347 341 
Q 1441 253 1559 198 
Q 1678 144 1850 144 
Q 2231 144 2465 512 
Q 2700 881 2700 1522 
z
" transform="scale(0.015625)"/>
      </defs>
      <use xlink:href="#Georgia-31"/>
      <use xlink:href="#Georgia-32" x="42.96875"/>
      <use xlink:href="#Georgia-38" x="98.828125"/>
      <use xlink:href="#Georgia-2c" x="158.447266"/>
      <use xlink:href="#Georgia-20" x="185.400391"/>
      <use xlink:href="#Georgia-74" x="209.521484"/>
      <use xlink:href="#Georgia-3d" x="244.042969"/>
      <use xlink:href="#Georgia-31" x="308.349609"/>
      <use xlink:href="#Georgia-2e" x="351.318359"/>
      <use xlink:href="#Georgia-33" x="378.271484"/>
      <use xlink:href="#Georgia-2c" x="433.447266"/>
      <use xlink:href="#Georgia-67" x="460.400391"/>
      <use xlink:href="#Georgia-67" x="511.328125"/>
      <use xlink:href="#Georgia-62" x="562.255859"/>
     </g>
    </g>
   </g>
  </g>
  <g id="axes_2">
   <g id="patch_8">
    <path d="M 750.91637 515.68 
L 993.59625 515.68 
L 993.59625 7.2 
L 750.91637 7.2 
L 750.91637 515.68 
z
" style="fill: none"/>
   </g>
   <g id="matplotlib.axis_3">
    <g id="xtick_8">
     <g id="line2d_33">
      <g>
       <use xlink:href="#mf200505690" x="761.947274" y="515.68" style="stroke: #000000; stroke-width: 0.8"/>
      </g>
     </g>
     <g id="text_19">
      <!-- 0 -->
      <g transform="translate(757.037274 534.775) scale(0.16 -0.16)">
       <use xlink:href="#Georgia-30"/>
      </g>
     </g>
    </g>
    <g id="xtick_9">
     <g id="line2d_34">
      <g>
       <use xlink:href="#mf200505690" x="832.172187" y="515.68" style="stroke: #000000; stroke-width: 0.8"/>
      </g>
     </g>
     <g id="text_20">
      <!-- 2 -->
      <g transform="translate(827.703437 534.775) scale(0.16 -0.16)">
       <use xlink:href="#Georgia-32"/>
      </g>
     </g>
    </g>
    <g id="xtick_10">
     <g id="line2d_35">
      <g>
       <use xlink:href="#mf200505690" x="902.397101" y="515.68" style="stroke: #000000; stroke-width: 0.8"/>
      </g>
     </g>
     <g id="text_21">
      <!-- 4 -->
      <g transform="translate(897.877101 534.775) scale(0.16 -0.16)">
       <use xlink:href="#Georgia-34"/>
      </g>
     </g>
    </g>
    <g id="xtick_11">
     <g id="line2d_36">
      <g>
       <use xlink:href="#mf200505690" x="972.622015" y="515.68" style="stroke: #000000; stroke-width: 0.8"/>
      </g>
     </g>
     <g id="text_22">
      <!-- 6 -->
      <g transform="translate(968.094515 534.775) scale(0.16 -0.16)">
       <use xlink:href="#Georgia-36"/>
      </g>
     </g>
    </g>
    <g id="text_23">
     <!-- $k$ -->
     <g transform="translate(866.45631 557.36375) scale(0.2 -0.2)">
      <defs>
       <path id="DejaVuSans-Oblique-6b" d="M 1172 4863 
L 1747 4863 
L 1197 2028 
L 3169 3500 
L 3916 3500 
L 1716 1825 
L 3322 0 
L 2625 0 
L 1131 1709 
L 800 0 
L 225 0 
L 1172 4863 
z
" transform="scale(0.015625)"/>
      </defs>
      <use xlink:href="#DejaVuSans-Oblique-6b" transform="translate(0 0.015625)"/>
     </g>
    </g>
   </g>
   <g id="matplotlib.axis_4">
    <g id="ytick_6">
     <g id="line2d_37">
      <g>
       <use xlink:href="#mc31b3b2a44" x="750.91637" y="509.76254" style="stroke: #000000; stroke-width: 0.8"/>
      </g>
     </g>
     <g id="text_24">
      <!-- $\mathdefault{10^{-6}}$ -->
      <g transform="translate(713.03637 515.81004) scale(0.16 -0.16)">
       <use xlink:href="#Georgia-31" transform="translate(0 0.601562)"/>
       <use xlink:href="#Georgia-30" transform="translate(42.96875 0.601562)"/>
       <use xlink:href="#Georgia-2212" transform="translate(105.188164 34.3) scale(0.7)"/>
       <use xlink:href="#Georgia-36" transform="translate(150.202812 34.3) scale(0.7)"/>
      </g>
     </g>
    </g>
    <g id="ytick_7">
     <g id="line2d_38">
      <g>
       <use xlink:href="#mc31b3b2a44" x="750.91637" y="423.387948" style="stroke: #000000; stroke-width: 0.8"/>
      </g>
     </g>
     <g id="text_25">
      <!-- $\mathdefault{10^{-5}}$ -->
      <g transform="translate(713.51637 429.435448) scale(0.16 -0.16)">
       <use xlink:href="#Georgia-31" transform="translate(0 0.628125)"/>
       <use xlink:href="#Georgia-30" transform="translate(42.96875 0.628125)"/>
       <use xlink:href="#Georgia-2212" transform="translate(105.188164 34.326563) scale(0.7)"/>
       <use xlink:href="#Georgia-35" transform="translate(150.202812 34.326563) scale(0.7)"/>
      </g>
     </g>
    </g>
    <g id="ytick_8">
     <g id="line2d_39">
      <g>
       <use xlink:href="#mc31b3b2a44" x="750.91637" y="337.013355" style="stroke: #000000; stroke-width: 0.8"/>
      </g>
     </g>
     <g id="text_26">
      <!-- $\mathdefault{10^{-4}}$ -->
      <g transform="translate(713.03637 343.060855) scale(0.16 -0.16)">
       <use xlink:href="#Georgia-31" transform="translate(0 0.742188)"/>
       <use xlink:href="#Georgia-30" transform="translate(42.96875 0.742188)"/>
       <use xlink:href="#Georgia-2212" transform="translate(105.188164 34.440625) scale(0.7)"/>
       <use xlink:href="#Georgia-34" transform="translate(150.202812 34.440625) scale(0.7)"/>
      </g>
     </g>
    </g>
    <g id="ytick_9">
     <g id="line2d_40">
      <g>
       <use xlink:href="#mc31b3b2a44" x="750.91637" y="250.638763" style="stroke: #000000; stroke-width: 0.8"/>
      </g>
     </g>
     <g id="text_27">
      <!-- $\mathdefault{10^{-3}}$ -->
      <g transform="translate(713.19637 256.686263) scale(0.16 -0.16)">
       <use xlink:href="#Georgia-31" transform="translate(0 0.534375)"/>
       <use xlink:href="#Georgia-30" transform="translate(42.96875 0.534375)"/>
       <use xlink:href="#Georgia-2212" transform="translate(105.188164 34.232813) scale(0.7)"/>
       <use xlink:href="#Georgia-33" transform="translate(150.202812 34.232813) scale(0.7)"/>
      </g>
     </g>
    </g>
    <g id="ytick_10">
     <g id="line2d_41">
      <g>
       <use xlink:href="#mc31b3b2a44" x="750.91637" y="164.26417" style="stroke: #000000; stroke-width: 0.8"/>
      </g>
     </g>
     <g id="text_28">
      <!-- $\mathdefault{10^{-2}}$ -->
      <g transform="translate(713.19637 170.31167) scale(0.16 -0.16)">
       <use xlink:href="#Georgia-31" transform="translate(0 0.534375)"/>
       <use xlink:href="#Georgia-30" transform="translate(42.96875 0.534375)"/>
       <use xlink:href="#Georgia-2212" transform="translate(105.188164 34.232813) scale(0.7)"/>
       <use xlink:href="#Georgia-32" transform="translate(150.202812 34.232813) scale(0.7)"/>
      </g>
     </g>
    </g>
    <g id="ytick_11">
     <g id="line2d_42">
      <g>
       <use xlink:href="#mc31b3b2a44" x="750.91637" y="77.889578" style="stroke: #000000; stroke-width: 0.8"/>
      </g>
     </g>
     <g id="text_29">
      <!-- $\mathdefault{10^{-1}}$ -->
      <g transform="translate(714.63637 83.937078) scale(0.16 -0.16)">
       <use xlink:href="#Georgia-31" transform="translate(0 0.534375)"/>
       <use xlink:href="#Georgia-30" transform="translate(42.96875 0.534375)"/>
       <use xlink:href="#Georgia-2212" transform="translate(105.188164 34.232813) scale(0.7)"/>
       <use xlink:href="#Georgia-31" transform="translate(150.202812 34.232813) scale(0.7)"/>
      </g>
     </g>
    </g>
    <g id="ytick_12">
     <g id="line2d_43">
      <defs>
       <path id="m6376782b46" d="M 0 0 
L -2 0 
" style="stroke: #000000; stroke-width: 0.6"/>
      </defs>
      <g>
       <use xlink:href="#m6376782b46" x="750.91637" y="513.714825" style="stroke: #000000; stroke-width: 0.6"/>
      </g>
     </g>
    </g>
    <g id="ytick_13">
     <g id="line2d_44">
      <g>
       <use xlink:href="#m6376782b46" x="750.91637" y="483.761197" style="stroke: #000000; stroke-width: 0.6"/>
      </g>
     </g>
    </g>
    <g id="ytick_14">
     <g id="line2d_45">
      <g>
       <use xlink:href="#m6376782b46" x="750.91637" y="468.551386" style="stroke: #000000; stroke-width: 0.6"/>
      </g>
     </g>
    </g>
    <g id="ytick_15">
     <g id="line2d_46">
      <g>
       <use xlink:href="#m6376782b46" x="750.91637" y="457.759854" style="stroke: #000000; stroke-width: 0.6"/>
      </g>
     </g>
    </g>
    <g id="ytick_16">
     <g id="line2d_47">
      <g>
       <use xlink:href="#m6376782b46" x="750.91637" y="449.389291" style="stroke: #000000; stroke-width: 0.6"/>
      </g>
     </g>
    </g>
    <g id="ytick_17">
     <g id="line2d_48">
      <g>
       <use xlink:href="#m6376782b46" x="750.91637" y="442.550043" style="stroke: #000000; stroke-width: 0.6"/>
      </g>
     </g>
    </g>
    <g id="ytick_18">
     <g id="line2d_49">
      <g>
       <use xlink:href="#m6376782b46" x="750.91637" y="436.767541" style="stroke: #000000; stroke-width: 0.6"/>
      </g>
     </g>
    </g>
    <g id="ytick_19">
     <g id="line2d_50">
      <g>
       <use xlink:href="#m6376782b46" x="750.91637" y="431.758511" style="stroke: #000000; stroke-width: 0.6"/>
      </g>
     </g>
    </g>
    <g id="ytick_20">
     <g id="line2d_51">
      <g>
       <use xlink:href="#m6376782b46" x="750.91637" y="427.340232" style="stroke: #000000; stroke-width: 0.6"/>
      </g>
     </g>
    </g>
    <g id="ytick_21">
     <g id="line2d_52">
      <g>
       <use xlink:href="#m6376782b46" x="750.91637" y="397.386605" style="stroke: #000000; stroke-width: 0.6"/>
      </g>
     </g>
    </g>
    <g id="ytick_22">
     <g id="line2d_53">
      <g>
       <use xlink:href="#m6376782b46" x="750.91637" y="382.176794" style="stroke: #000000; stroke-width: 0.6"/>
      </g>
     </g>
    </g>
    <g id="ytick_23">
     <g id="line2d_54">
      <g>
       <use xlink:href="#m6376782b46" x="750.91637" y="371.385261" style="stroke: #000000; stroke-width: 0.6"/>
      </g>
     </g>
    </g>
    <g id="ytick_24">
     <g id="line2d_55">
      <g>
       <use xlink:href="#m6376782b46" x="750.91637" y="363.014698" style="stroke: #000000; stroke-width: 0.6"/>
      </g>
     </g>
    </g>
    <g id="ytick_25">
     <g id="line2d_56">
      <g>
       <use xlink:href="#m6376782b46" x="750.91637" y="356.175451" style="stroke: #000000; stroke-width: 0.6"/>
      </g>
     </g>
    </g>
    <g id="ytick_26">
     <g id="line2d_57">
      <g>
       <use xlink:href="#m6376782b46" x="750.91637" y="350.392949" style="stroke: #000000; stroke-width: 0.6"/>
      </g>
     </g>
    </g>
    <g id="ytick_27">
     <g id="line2d_58">
      <g>
       <use xlink:href="#m6376782b46" x="750.91637" y="345.383918" style="stroke: #000000; stroke-width: 0.6"/>
      </g>
     </g>
    </g>
    <g id="ytick_28">
     <g id="line2d_59">
      <g>
       <use xlink:href="#m6376782b46" x="750.91637" y="340.96564" style="stroke: #000000; stroke-width: 0.6"/>
      </g>
     </g>
    </g>
    <g id="ytick_29">
     <g id="line2d_60">
      <g>
       <use xlink:href="#m6376782b46" x="750.91637" y="311.012012" style="stroke: #000000; stroke-width: 0.6"/>
      </g>
     </g>
    </g>
    <g id="ytick_30">
     <g id="line2d_61">
      <g>
       <use xlink:href="#m6376782b46" x="750.91637" y="295.802201" style="stroke: #000000; stroke-width: 0.6"/>
      </g>
     </g>
    </g>
    <g id="ytick_31">
     <g id="line2d_62">
      <g>
       <use xlink:href="#m6376782b46" x="750.91637" y="285.010669" style="stroke: #000000; stroke-width: 0.6"/>
      </g>
     </g>
    </g>
    <g id="ytick_32">
     <g id="line2d_63">
      <g>
       <use xlink:href="#m6376782b46" x="750.91637" y="276.640106" style="stroke: #000000; stroke-width: 0.6"/>
      </g>
     </g>
    </g>
    <g id="ytick_33">
     <g id="line2d_64">
      <g>
       <use xlink:href="#m6376782b46" x="750.91637" y="269.800858" style="stroke: #000000; stroke-width: 0.6"/>
      </g>
     </g>
    </g>
    <g id="ytick_34">
     <g id="line2d_65">
      <g>
       <use xlink:href="#m6376782b46" x="750.91637" y="264.018356" style="stroke: #000000; stroke-width: 0.6"/>
      </g>
     </g>
    </g>
    <g id="ytick_35">
     <g id="line2d_66">
      <g>
       <use xlink:href="#m6376782b46" x="750.91637" y="259.009326" style="stroke: #000000; stroke-width: 0.6"/>
      </g>
     </g>
    </g>
    <g id="ytick_36">
     <g id="line2d_67">
      <g>
       <use xlink:href="#m6376782b46" x="750.91637" y="254.591047" style="stroke: #000000; stroke-width: 0.6"/>
      </g>
     </g>
    </g>
    <g id="ytick_37">
     <g id="line2d_68">
      <g>
       <use xlink:href="#m6376782b46" x="750.91637" y="224.63742" style="stroke: #000000; stroke-width: 0.6"/>
      </g>
     </g>
    </g>
    <g id="ytick_38">
     <g id="line2d_69">
      <g>
       <use xlink:href="#m6376782b46" x="750.91637" y="209.427609" style="stroke: #000000; stroke-width: 0.6"/>
      </g>
     </g>
    </g>
    <g id="ytick_39">
     <g id="line2d_70">
      <g>
       <use xlink:href="#m6376782b46" x="750.91637" y="198.636076" style="stroke: #000000; stroke-width: 0.6"/>
      </g>
     </g>
    </g>
    <g id="ytick_40">
     <g id="line2d_71">
      <g>
       <use xlink:href="#m6376782b46" x="750.91637" y="190.265514" style="stroke: #000000; stroke-width: 0.6"/>
      </g>
     </g>
    </g>
    <g id="ytick_41">
     <g id="line2d_72">
      <g>
       <use xlink:href="#m6376782b46" x="750.91637" y="183.426266" style="stroke: #000000; stroke-width: 0.6"/>
      </g>
     </g>
    </g>
    <g id="ytick_42">
     <g id="line2d_73">
      <g>
       <use xlink:href="#m6376782b46" x="750.91637" y="177.643764" style="stroke: #000000; stroke-width: 0.6"/>
      </g>
     </g>
    </g>
    <g id="ytick_43">
     <g id="line2d_74">
      <g>
       <use xlink:href="#m6376782b46" x="750.91637" y="172.634733" style="stroke: #000000; stroke-width: 0.6"/>
      </g>
     </g>
    </g>
    <g id="ytick_44">
     <g id="line2d_75">
      <g>
       <use xlink:href="#m6376782b46" x="750.91637" y="168.216455" style="stroke: #000000; stroke-width: 0.6"/>
      </g>
     </g>
    </g>
    <g id="ytick_45">
     <g id="line2d_76">
      <g>
       <use xlink:href="#m6376782b46" x="750.91637" y="138.262827" style="stroke: #000000; stroke-width: 0.6"/>
      </g>
     </g>
    </g>
    <g id="ytick_46">
     <g id="line2d_77">
      <g>
       <use xlink:href="#m6376782b46" x="750.91637" y="123.053016" style="stroke: #000000; stroke-width: 0.6"/>
      </g>
     </g>
    </g>
    <g id="ytick_47">
     <g id="line2d_78">
      <g>
       <use xlink:href="#m6376782b46" x="750.91637" y="112.261484" style="stroke: #000000; stroke-width: 0.6"/>
      </g>
     </g>
    </g>
    <g id="ytick_48">
     <g id="line2d_79">
      <g>
       <use xlink:href="#m6376782b46" x="750.91637" y="103.890921" style="stroke: #000000; stroke-width: 0.6"/>
      </g>
     </g>
    </g>
    <g id="ytick_49">
     <g id="line2d_80">
      <g>
       <use xlink:href="#m6376782b46" x="750.91637" y="97.051673" style="stroke: #000000; stroke-width: 0.6"/>
      </g>
     </g>
    </g>
    <g id="ytick_50">
     <g id="line2d_81">
      <g>
       <use xlink:href="#m6376782b46" x="750.91637" y="91.269171" style="stroke: #000000; stroke-width: 0.6"/>
      </g>
     </g>
    </g>
    <g id="ytick_51">
     <g id="line2d_82">
      <g>
       <use xlink:href="#m6376782b46" x="750.91637" y="86.260141" style="stroke: #000000; stroke-width: 0.6"/>
      </g>
     </g>
    </g>
    <g id="ytick_52">
     <g id="line2d_83">
      <g>
       <use xlink:href="#m6376782b46" x="750.91637" y="81.841862" style="stroke: #000000; stroke-width: 0.6"/>
      </g>
     </g>
    </g>
    <g id="ytick_53">
     <g id="line2d_84">
      <g>
       <use xlink:href="#m6376782b46" x="750.91637" y="51.888235" style="stroke: #000000; stroke-width: 0.6"/>
      </g>
     </g>
    </g>
    <g id="ytick_54">
     <g id="line2d_85">
      <g>
       <use xlink:href="#m6376782b46" x="750.91637" y="36.678424" style="stroke: #000000; stroke-width: 0.6"/>
      </g>
     </g>
    </g>
    <g id="ytick_55">
     <g id="line2d_86">
      <g>
       <use xlink:href="#m6376782b46" x="750.91637" y="25.886891" style="stroke: #000000; stroke-width: 0.6"/>
      </g>
     </g>
    </g>
    <g id="ytick_56">
     <g id="line2d_87">
      <g>
       <use xlink:href="#m6376782b46" x="750.91637" y="17.516329" style="stroke: #000000; stroke-width: 0.6"/>
      </g>
     </g>
    </g>
    <g id="ytick_57">
     <g id="line2d_88">
      <g>
       <use xlink:href="#m6376782b46" x="750.91637" y="10.677081" style="stroke: #000000; stroke-width: 0.6"/>
      </g>
     </g>
    </g>
    <g id="text_30">
     <!-- $|y-y_{exact}|$ -->
     <g transform="translate(704.23637 311.94) rotate(-90) scale(0.2 -0.2)">
      <defs>
       <path id="DejaVuSans-7c" d="M 1344 4891 
L 1344 -1509 
L 813 -1509 
L 813 4891 
L 1344 4891 
z
" transform="scale(0.015625)"/>
       <path id="DejaVuSans-2212" d="M 678 2272 
L 4684 2272 
L 4684 1741 
L 678 1741 
L 678 2272 
z
" transform="scale(0.015625)"/>
       <path id="DejaVuSans-Oblique-65" d="M 3078 2063 
Q 3088 2113 3092 2166 
Q 3097 2219 3097 2272 
Q 3097 2653 2873 2875 
Q 2650 3097 2266 3097 
Q 1838 3097 1509 2826 
Q 1181 2556 1013 2059 
L 3078 2063 
z
M 3578 1613 
L 903 1613 
Q 884 1494 878 1425 
Q 872 1356 872 1306 
Q 872 872 1139 634 
Q 1406 397 1894 397 
Q 2269 397 2603 481 
Q 2938 566 3225 728 
L 3116 159 
Q 2806 34 2476 -28 
Q 2147 -91 1806 -91 
Q 1078 -91 686 257 
Q 294 606 294 1247 
Q 294 1794 489 2264 
Q 684 2734 1063 3103 
Q 1306 3334 1642 3459 
Q 1978 3584 2356 3584 
Q 2950 3584 3301 3228 
Q 3653 2872 3653 2272 
Q 3653 2128 3634 1964 
Q 3616 1800 3578 1613 
z
" transform="scale(0.015625)"/>
       <path id="DejaVuSans-Oblique-61" d="M 3438 1997 
L 3047 0 
L 2472 0 
L 2578 531 
Q 2325 219 2001 64 
Q 1678 -91 1281 -91 
Q 834 -91 548 182 
Q 263 456 263 884 
Q 263 1497 752 1853 
Q 1241 2209 2100 2209 
L 2900 2209 
L 2931 2363 
Q 2938 2388 2941 2417 
Q 2944 2447 2944 2509 
Q 2944 2788 2717 2942 
Q 2491 3097 2081 3097 
Q 1800 3097 1504 3025 
Q 1209 2953 897 2809 
L 997 3341 
Q 1322 3463 1633 3523 
Q 1944 3584 2234 3584 
Q 2853 3584 3176 3315 
Q 3500 3047 3500 2534 
Q 3500 2431 3484 2292 
Q 3469 2153 3438 1997 
z
M 2816 1759 
L 2241 1759 
Q 1534 1759 1195 1570 
Q 856 1381 856 984 
Q 856 709 1029 553 
Q 1203 397 1509 397 
Q 1978 397 2328 733 
Q 2678 1069 2791 1631 
L 2816 1759 
z
" transform="scale(0.015625)"/>
       <path id="DejaVuSans-Oblique-63" d="M 3431 3366 
L 3316 2797 
Q 3109 2947 2876 3022 
Q 2644 3097 2394 3097 
Q 2119 3097 1870 3000 
Q 1622 2903 1453 2725 
Q 1184 2453 1037 2087 
Q 891 1722 891 1331 
Q 891 859 1127 628 
Q 1363 397 1844 397 
Q 2081 397 2348 469 
Q 2616 541 2906 684 
L 2797 116 
Q 2547 13 2283 -39 
Q 2019 -91 1741 -91 
Q 1044 -91 669 257 
Q 294 606 294 1253 
Q 294 1797 489 2255 
Q 684 2713 1069 3078 
Q 1331 3328 1684 3456 
Q 2038 3584 2456 3584 
Q 2700 3584 2940 3529 
Q 3181 3475 3431 3366 
z
" transform="scale(0.015625)"/>
       <path id="DejaVuSans-Oblique-74" d="M 2706 3500 
L 2619 3053 
L 1472 3053 
L 1100 1153 
Q 1081 1047 1072 975 
Q 1063 903 1063 863 
Q 1063 663 1183 572 
Q 1303 481 1569 481 
L 2150 481 
L 2053 0 
L 1503 0 
Q 991 0 739 200 
Q 488 400 488 806 
Q 488 878 497 964 
Q 506 1050 525 1153 
L 897 3053 
L 409 3053 
L 500 3500 
L 978 3500 
L 1172 4494 
L 1747 4494 
L 1556 3500 
L 2706 3500 
z
" transform="scale(0.015625)"/>
      </defs>
      <use xlink:href="#DejaVuSans-7c" transform="translate(0 0.578125)"/>
      <use xlink:href="#DejaVuSans-Oblique-79" transform="translate(33.691406 0.578125)"/>
      <use xlink:href="#DejaVuSans-2212" transform="translate(112.353516 0.578125)"/>
      <use xlink:href="#DejaVuSans-Oblique-79" transform="translate(215.625 0.578125)"/>
      <use xlink:href="#DejaVuSans-Oblique-65" transform="translate(274.804688 -15.828125) scale(0.7)"/>
      <use xlink:href="#DejaVuSans-Oblique-78" transform="translate(317.871094 -15.828125) scale(0.7)"/>
      <use xlink:href="#DejaVuSans-Oblique-61" transform="translate(359.296875 -15.828125) scale(0.7)"/>
      <use xlink:href="#DejaVuSans-Oblique-63" transform="translate(402.192383 -15.828125) scale(0.7)"/>
      <use xlink:href="#DejaVuSans-Oblique-74" transform="translate(440.678711 -15.828125) scale(0.7)"/>
      <use xlink:href="#DejaVuSans-7c" transform="translate(470.859375 0.578125)"/>
     </g>
    </g>
   </g>
   <g id="line2d_89">
    <path d="M 761.947274 492.567273 
L 764.175739 219.274532 
L 766.404205 126.026752 
L 768.63267 108.206784 
L 770.861135 118.207669 
L 773.089601 85.437896 
L 775.318066 198.773872 
L 777.546531 146.50913 
L 779.774997 80.100891 
L 782.003462 110.704439 
L 784.231928 128.786403 
L 786.460393 97.503745 
L 788.688858 108.516045 
L 790.917324 114.10917 
L 793.145789 114.499551 
L 795.374255 109.61979 
L 797.60272 107.619562 
L 799.831185 130.209506 
L 802.059651 107.324477 
L 804.288116 96.852231 
L 806.516581 201.965902 
L 808.745047 113.786528 
L 810.973512 90.748885 
L 813.201978 138.28569 
L 815.430443 134.517603 
L 817.658908 89.82571 
L 819.887374 112.100596 
L 822.115839 232.102821 
L 824.344304 92.75477 
L 826.57277 99.732924 
L 828.801235 136.390573 
L 831.029701 100.021913 
L 833.258166 93.184181 
L 835.486631 108.035631 
L 837.715097 114.869423 
L 839.943562 90.567476 
L 842.172027 92.183732 
L 844.400493 154.677995 
L 846.628958 91.437761 
L 848.857424 81.666072 
L 851.085889 141.478289 
L 853.314354 96.031444 
L 855.54282 74.106825 
L 857.771285 97.216234 
L 859.999751 105.064615 
L 862.228216 67.573195 
L 864.456681 68.970245 
L 866.685147 116.971605 
L 868.913612 53.903702 
L 871.142077 30.314219 
L 873.370543 30.312727 
L 875.599008 53.897654 
L 877.827474 116.948133 
L 880.055939 68.967813 
L 882.284404 67.558318 
L 884.51287 104.998014 
L 886.741335 97.273667 
L 888.9698 74.126284 
L 891.198266 96.026495 
L 893.426731 141.639236 
L 895.655197 81.718802 
L 897.883662 91.506631 
L 900.112127 154.923424 
L 902.340593 92.176777 
L 904.569058 90.595358 
L 906.797523 114.95666 
L 909.025989 107.96847 
L 911.254454 93.159757 
L 913.48292 100.020816 
L 915.711385 136.345685 
L 917.93985 99.714558 
L 920.168316 92.747848 
L 922.396781 232.223999 
L 924.625247 112.088137 
L 926.853712 89.82101 
L 929.082177 134.519527 
L 931.310643 138.27007 
L 933.539108 90.744862 
L 935.767573 113.785544 
L 937.996039 202.020667 
L 940.224504 96.848196 
L 942.45297 107.3226 
L 944.681435 130.214309 
L 946.9099 107.61511 
L 949.138366 109.61725 
L 951.366831 114.50118 
L 953.595296 114.104879 
L 955.823762 108.513374 
L 958.052227 97.504098 
L 960.280693 128.781326 
L 962.509158 110.701568 
L 964.737623 80.100809 
L 966.966089 146.515592 
L 969.194554 198.803509 
L 971.423019 85.437551 
L 973.651485 118.210084 
L 975.87995 108.209419 
L 978.108416 126.025109 
L 980.336881 219.3025 
L 982.565346 492.567273 
" clip-path="url(#p91db5ccf94)" style="fill: none; stroke: #a80000; stroke-width: 3; stroke-linecap: square"/>
   </g>
   <g id="line2d_90">
    <path d="M 762.809063 105.783288 
L 766.256221 125.950585 
L 767.979799 131.077108 
L 769.703378 132.685355 
L 771.426957 132.718536 
L 773.150535 132.515276 
L 774.874114 132.752223 
L 776.597693 133.642059 
L 778.321271 135.19351 
L 780.04485 137.317234 
L 781.768429 139.898684 
L 785.215586 145.854113 
L 788.662744 151.862279 
L 790.386322 154.670163 
L 792.109901 157.209705 
L 793.83348 159.441688 
L 795.557058 161.355175 
L 797.280637 163.049539 
L 799.004216 164.538806 
L 800.727794 165.810701 
L 804.174952 167.86078 
L 807.622109 169.752768 
L 814.516424 172.836327 
L 817.963581 174.0929 
L 819.68716 174.684195 
L 823.134317 176.033843 
L 824.857896 176.518474 
L 826.581475 176.836279 
L 830.028632 178.199167 
L 831.752211 178.686237 
L 833.47579 178.99072 
L 835.199368 179.573414 
L 838.646526 181.169174 
L 842.093683 182.326224 
L 845.54084 185.700927 
L 848.987998 189.156072 
L 850.711576 192.949424 
L 852.435155 198.639558 
L 854.158734 206.216183 
L 855.882313 216.759184 
L 857.605891 238.136263 
L 859.32947 287.583892 
L 861.053049 216.415225 
L 862.776627 190.533195 
L 864.500206 174.109057 
L 866.223785 154.834796 
L 869.670942 118.743835 
L 871.394521 44.318792 
L 873.118099 44.326125 
L 874.841678 118.760731 
L 880.012414 174.089754 
L 881.735993 190.512858 
L 883.459572 216.395433 
L 885.18315 287.546859 
L 886.906729 238.134708 
L 888.630308 216.757874 
L 890.353886 206.21739 
L 892.077465 198.642895 
L 893.801044 192.953903 
L 895.524622 189.160805 
L 902.418937 182.327139 
L 905.866095 181.16825 
L 911.036831 178.989249 
L 912.760409 178.684989 
L 914.483988 178.198226 
L 917.931145 176.83592 
L 919.654724 176.518305 
L 921.378303 176.033787 
L 929.996196 172.836286 
L 938.61409 168.856598 
L 943.784826 165.810657 
L 945.508404 164.538748 
L 947.231983 163.049487 
L 948.955562 161.355147 
L 950.679141 159.441693 
L 952.402719 157.209735 
L 954.126298 154.67019 
L 957.573455 148.915736 
L 962.744191 139.898646 
L 964.46777 137.317417 
L 966.191349 135.193982 
L 967.914927 133.642644 
L 969.638506 132.752123 
L 971.362085 132.512308 
L 973.085664 132.707727 
L 974.809242 132.656953 
L 976.532821 131.015854 
L 978.2564 125.841525 
L 981.703557 105.564319 
L 981.703557 105.564319 
" clip-path="url(#p91db5ccf94)" style="fill: none; stroke: #1f77b4; stroke-width: 3; stroke-linecap: square"/>
   </g>
   <g id="patch_9">
    <path d="M 750.91637 515.68 
L 750.91637 7.2 
" style="fill: none; stroke: #000000; stroke-width: 1.5; stroke-linejoin: miter; stroke-linecap: square"/>
   </g>
   <g id="patch_10">
    <path d="M 993.59625 515.68 
L 993.59625 7.2 
" style="fill: none; stroke: #000000; stroke-width: 1.5; stroke-linejoin: miter; stroke-linecap: square"/>
   </g>
   <g id="patch_11">
    <path d="M 750.91637 515.68 
L 993.59625 515.68 
" style="fill: none; stroke: #000000; stroke-width: 1.5; stroke-linejoin: miter; stroke-linecap: square"/>
   </g>
   <g id="patch_12">
    <path d="M 750.91637 7.2 
L 993.59625 7.2 
" style="fill: none; stroke: #000000; stroke-width: 1.5; stroke-linejoin: miter; stroke-linecap: square"/>
   </g>
   <g id="legend_2">
    <g id="patch_13">
     <path d="M 892.77125 44.65625 
L 986.59625 44.65625 
Q 988.59625 44.65625 988.59625 42.65625 
L 988.59625 14.2 
Q 988.59625 12.2 986.59625 12.2 
L 892.77125 12.2 
Q 890.77125 12.2 890.77125 14.2 
L 890.77125 42.65625 
Q 890.77125 44.65625 892.77125 44.65625 
z
" style="fill: #ffffff; opacity: 0.8; stroke: #cccccc; stroke-linejoin: miter"/>
    </g>
    <g id="line2d_91">
     <path d="M 894.77125 20.259375 
L 904.77125 20.259375 
L 914.77125 20.259375 
" style="fill: none; stroke: #a80000; stroke-width: 3; stroke-linecap: square"/>
    </g>
    <g id="text_31">
     <!-- 128, t=1.3 -->
     <g transform="translate(922.77125 23.759375) scale(0.1 -0.1)">
      <use xlink:href="#Georgia-31"/>
      <use xlink:href="#Georgia-32" x="42.96875"/>
      <use xlink:href="#Georgia-38" x="98.828125"/>
      <use xlink:href="#Georgia-2c" x="158.447266"/>
      <use xlink:href="#Georgia-20" x="185.400391"/>
      <use xlink:href="#Georgia-74" x="209.521484"/>
      <use xlink:href="#Georgia-3d" x="244.042969"/>
      <use xlink:href="#Georgia-31" x="308.349609"/>
      <use xlink:href="#Georgia-2e" x="351.318359"/>
      <use xlink:href="#Georgia-33" x="378.271484"/>
     </g>
    </g>
    <g id="line2d_92">
     <path d="M 894.77125 34.9875 
L 904.77125 34.9875 
L 914.77125 34.9875 
" style="fill: none; stroke: #1f77b4; stroke-width: 3; stroke-linecap: square"/>
    </g>
    <g id="text_32">
     <!-- 128, t=1.3,ggb -->
     <g transform="translate(922.77125 38.4875) scale(0.1 -0.1)">
      <use xlink:href="#Georgia-31"/>
      <use xlink:href="#Georgia-32" x="42.96875"/>
      <use xlink:href="#Georgia-38" x="98.828125"/>
      <use xlink:href="#Georgia-2c" x="158.447266"/>
      <use xlink:href="#Georgia-20" x="185.400391"/>
      <use xlink:href="#Georgia-74" x="209.521484"/>
      <use xlink:href="#Georgia-3d" x="244.042969"/>
      <use xlink:href="#Georgia-31" x="308.349609"/>
      <use xlink:href="#Georgia-2e" x="351.318359"/>
      <use xlink:href="#Georgia-33" x="378.271484"/>
      <use xlink:href="#Georgia-2c" x="433.447266"/>
      <use xlink:href="#Georgia-67" x="460.400391"/>
      <use xlink:href="#Georgia-67" x="511.328125"/>
      <use xlink:href="#Georgia-62" x="562.255859"/>
     </g>
    </g>
   </g>
  </g>
 </g>
 <defs>
  <clipPath id="pfb745283ae">
   <rect x="70.53125" y="7.2" width="606.6997" height="508.48"/>
  </clipPath>
  <clipPath id="p91db5ccf94">
   <rect x="750.91637" y="7.2" width="242.67988" height="508.48"/>
  </clipPath>
 </defs>
</svg>
