<?xml version="1.0" encoding="utf-8" standalone="no"?>
<!DOCTYPE svg PUBLIC "-//W3C//DTD SVG 1.1//EN"
  "http://www.w3.org/Graphics/SVG/1.1/DTD/svg11.dtd">
<svg xmlns:xlink="http://www.w3.org/1999/xlink" width="1000.78375pt" height="568.90125pt" viewBox="0 0 1000.78375 568.90125" xmlns="http://www.w3.org/2000/svg" version="1.1">
 <metadata>
  <rdf:RDF xmlns:dc="http://purl.org/dc/elements/1.1/" xmlns:cc="http://creativecommons.org/ns#" xmlns:rdf="http://www.w3.org/1999/02/22-rdf-syntax-ns#">
   <cc:Work>
    <dc:type rdf:resource="http://purl.org/dc/dcmitype/StillImage"/>
    <dc:date>2023-11-29T02:31:00.110698</dc:date>
    <dc:format>image/svg+xml</dc:format>
    <dc:creator>
     <cc:Agent>
      <dc:title>Matplotlib v3.6.2, https://matplotlib.org/</dc:title>
     </cc:Agent>
    </dc:creator>
   </cc:Work>
  </rdf:RDF>
 </metadata>
 <defs>
  <style type="text/css">*{stroke-linejoin: round; stroke-linecap: butt}</style>
 </defs>
 <g id="figure_1">
  <g id="patch_1">
   <path d="M 0 568.90125 
L 1000.78375 568.90125 
L 1000.78375 0 
L 0 0 
L 0 568.90125 
z
" style="fill: none"/>
  </g>
  <g id="axes_1">
   <g id="patch_2">
    <path d="M 56.88375 515.68 
L 673.322735 515.68 
L 673.322735 7.2 
L 56.88375 7.2 
L 56.88375 515.68 
z
" style="fill: none"/>
   </g>
   <g id="matplotlib.axis_1">
    <g id="xtick_1">
     <g id="line2d_1">
      <path d="M 84.903704 515.68 
L 84.903704 7.2 
" clip-path="url(#p774a399211)" style="fill: none; stroke: #b0b0b0; stroke-width: 0.8; stroke-linecap: square"/>
     </g>
     <g id="line2d_2">
      <defs>
       <path id="m3b5cdb03ed" d="M 0 0 
L 0 3.5 
" style="stroke: #000000; stroke-width: 0.8"/>
      </defs>
      <g>
       <use xlink:href="#m3b5cdb03ed" x="84.903704" y="515.68" style="stroke: #000000; stroke-width: 0.8"/>
      </g>
     </g>
     <g id="text_1">
      <!-- 0 -->
      <g transform="translate(79.993704 534.775) scale(0.16 -0.16)">
       <defs>
        <path id="Georgia-30" d="M 3209 2919 
Q 3409 2678 3507 2354 
Q 3606 2031 3606 1678 
Q 3606 1253 3484 917 
Q 3363 581 3150 359 
Q 2931 131 2631 15 
Q 2331 -100 1963 -100 
Q 1559 -100 1243 34 
Q 928 169 731 403 
Q 525 647 423 973 
Q 322 1300 322 1678 
Q 322 2050 420 2362 
Q 519 2675 728 2928 
Q 928 3172 1243 3312 
Q 1559 3453 1966 3453 
Q 2394 3453 2700 3309 
Q 3006 3166 3209 2919 
z
M 2916 1678 
Q 2916 2422 2661 2831 
Q 2406 3241 1969 3241 
Q 1525 3241 1269 2831 
Q 1013 2422 1013 1678 
Q 1013 972 1258 542 
Q 1503 113 1963 113 
Q 2422 113 2669 542 
Q 2916 972 2916 1678 
z
" transform="scale(0.015625)"/>
       </defs>
       <use xlink:href="#Georgia-30"/>
      </g>
     </g>
    </g>
    <g id="xtick_2">
     <g id="line2d_3">
      <path d="M 174.093987 515.68 
L 174.093987 7.2 
" clip-path="url(#p774a399211)" style="fill: none; stroke: #b0b0b0; stroke-width: 0.8; stroke-linecap: square"/>
     </g>
     <g id="line2d_4">
      <g>
       <use xlink:href="#m3b5cdb03ed" x="174.093987" y="515.68" style="stroke: #000000; stroke-width: 0.8"/>
      </g>
     </g>
     <g id="text_2">
      <!-- 1 -->
      <g transform="translate(170.656487 534.775) scale(0.16 -0.16)">
       <defs>
        <path id="Georgia-31" d="M 2528 0 
L 422 0 
L 422 222 
Q 516 228 714 248 
Q 913 269 988 291 
Q 1084 322 1136 392 
Q 1188 463 1188 603 
L 1188 2797 
L 409 2797 
L 409 3059 
L 581 3059 
Q 919 3059 1186 3184 
Q 1453 3309 1569 3453 
L 1828 3453 
Q 1819 3250 1809 2978 
Q 1800 2706 1800 2491 
L 1800 638 
Q 1800 528 1848 442 
Q 1897 356 1988 316 
Q 2069 281 2253 253 
Q 2438 225 2528 222 
L 2528 0 
z
" transform="scale(0.015625)"/>
       </defs>
       <use xlink:href="#Georgia-31"/>
      </g>
     </g>
    </g>
    <g id="xtick_3">
     <g id="line2d_5">
      <path d="M 263.28427 515.68 
L 263.28427 7.2 
" clip-path="url(#p774a399211)" style="fill: none; stroke: #b0b0b0; stroke-width: 0.8; stroke-linecap: square"/>
     </g>
     <g id="line2d_6">
      <g>
       <use xlink:href="#m3b5cdb03ed" x="263.28427" y="515.68" style="stroke: #000000; stroke-width: 0.8"/>
      </g>
     </g>
     <g id="text_3">
      <!-- 2 -->
      <g transform="translate(258.81552 534.775) scale(0.16 -0.16)">
       <defs>
        <path id="Georgia-32" d="M 3272 0 
L 344 0 
L 344 425 
Q 428 522 578 642 
Q 728 763 934 903 
Q 1059 988 1234 1088 
Q 1409 1188 1631 1306 
Q 1878 1438 2011 1538 
Q 2144 1638 2253 1784 
Q 2325 1881 2369 2026 
Q 2413 2172 2413 2441 
Q 2413 2831 2203 3014 
Q 1994 3197 1666 3197 
Q 1463 3197 1281 3117 
Q 1100 3038 1009 2897 
Q 1031 2797 1064 2659 
Q 1097 2522 1097 2391 
Q 1097 2272 998 2180 
Q 900 2088 706 2088 
Q 550 2088 465 2195 
Q 381 2303 381 2484 
Q 381 2653 475 2823 
Q 569 2994 744 3138 
Q 916 3278 1169 3365 
Q 1422 3453 1716 3453 
Q 2356 3453 2732 3167 
Q 3109 2881 3109 2403 
Q 3109 2175 3042 1987 
Q 2975 1800 2825 1656 
Q 2659 1497 2437 1383 
Q 2216 1269 1759 1066 
Q 1488 944 1253 811 
Q 1019 678 869 553 
L 3272 553 
L 3272 0 
z
" transform="scale(0.015625)"/>
       </defs>
       <use xlink:href="#Georgia-32"/>
      </g>
     </g>
    </g>
    <g id="xtick_4">
     <g id="line2d_7">
      <path d="M 352.474554 515.68 
L 352.474554 7.2 
" clip-path="url(#p774a399211)" style="fill: none; stroke: #b0b0b0; stroke-width: 0.8; stroke-linecap: square"/>
     </g>
     <g id="line2d_8">
      <g>
       <use xlink:href="#m3b5cdb03ed" x="352.474554" y="515.68" style="stroke: #000000; stroke-width: 0.8"/>
      </g>
     </g>
     <g id="text_4">
      <!-- 3 -->
      <g transform="translate(348.060804 534.775) scale(0.16 -0.16)">
       <defs>
        <path id="Georgia-33" d="M 1522 -1141 
Q 1228 -1141 984 -1067 
Q 741 -994 566 -869 
Q 391 -744 295 -581 
Q 200 -419 200 -247 
Q 200 -94 275 29 
Q 350 153 516 153 
Q 703 153 801 61 
Q 900 -31 900 -150 
Q 900 -250 867 -403 
Q 834 -556 816 -622 
Q 838 -650 895 -697 
Q 953 -744 1038 -781 
Q 1138 -828 1247 -856 
Q 1356 -884 1556 -884 
Q 1744 -884 1917 -821 
Q 2091 -759 2222 -622 
Q 2359 -478 2436 -286 
Q 2513 -94 2513 219 
Q 2513 388 2477 553 
Q 2441 719 2344 841 
Q 2247 963 2080 1030 
Q 1913 1097 1656 1097 
L 1247 1097 
L 1247 1456 
L 1519 1456 
Q 1950 1456 2140 1693 
Q 2331 1931 2331 2409 
Q 2331 2800 2147 2998 
Q 1963 3197 1625 3197 
Q 1463 3197 1358 3158 
Q 1253 3119 1188 3081 
Q 1109 3038 1059 2984 
Q 1009 2931 984 2906 
Q 1006 2806 1037 2661 
Q 1069 2516 1069 2384 
Q 1069 2269 970 2176 
Q 872 2084 681 2084 
Q 516 2084 439 2203 
Q 363 2322 363 2478 
Q 363 2641 453 2809 
Q 544 2978 722 3125 
Q 900 3272 1156 3362 
Q 1413 3453 1747 3453 
Q 2131 3453 2382 3339 
Q 2634 3225 2778 3063 
Q 2919 2903 2972 2728 
Q 3025 2553 3025 2428 
Q 3025 2272 2981 2114 
Q 2938 1956 2838 1822 
Q 2728 1675 2548 1554 
Q 2369 1434 2097 1359 
L 2097 1309 
Q 2272 1294 2470 1231 
Q 2669 1169 2828 1047 
Q 2994 919 3100 717 
Q 3206 516 3206 206 
Q 3206 -394 2725 -767 
Q 2244 -1141 1522 -1141 
z
" transform="scale(0.015625)"/>
       </defs>
       <use xlink:href="#Georgia-33"/>
      </g>
     </g>
    </g>
    <g id="xtick_5">
     <g id="line2d_9">
      <path d="M 441.664837 515.68 
L 441.664837 7.2 
" clip-path="url(#p774a399211)" style="fill: none; stroke: #b0b0b0; stroke-width: 0.8; stroke-linecap: square"/>
     </g>
     <g id="line2d_10">
      <g>
       <use xlink:href="#m3b5cdb03ed" x="441.664837" y="515.68" style="stroke: #000000; stroke-width: 0.8"/>
      </g>
     </g>
     <g id="text_5">
      <!-- 4 -->
      <g transform="translate(437.144837 534.775) scale(0.16 -0.16)">
       <defs>
        <path id="Georgia-34" d="M 3388 281 
L 2753 281 
L 2753 -1141 
L 2153 -1141 
L 2153 281 
L 153 281 
L 153 763 
L 2344 3434 
L 2753 3434 
L 2753 691 
L 3388 691 
L 3388 281 
z
M 2153 691 
L 2153 2738 
L 466 691 
L 2153 691 
z
" transform="scale(0.015625)"/>
       </defs>
       <use xlink:href="#Georgia-34"/>
      </g>
     </g>
    </g>
    <g id="xtick_6">
     <g id="line2d_11">
      <path d="M 530.85512 515.68 
L 530.85512 7.2 
" clip-path="url(#p774a399211)" style="fill: none; stroke: #b0b0b0; stroke-width: 0.8; stroke-linecap: square"/>
     </g>
     <g id="line2d_12">
      <g>
       <use xlink:href="#m3b5cdb03ed" x="530.85512" y="515.68" style="stroke: #000000; stroke-width: 0.8"/>
      </g>
     </g>
     <g id="text_6">
      <!-- 5 -->
      <g transform="translate(526.62887 534.775) scale(0.16 -0.16)">
       <defs>
        <path id="Georgia-35" d="M 2634 1466 
Q 2841 1303 2977 1047 
Q 3113 791 3113 406 
Q 3113 -266 2653 -703 
Q 2194 -1141 1488 -1141 
Q 941 -1141 562 -881 
Q 184 -622 184 -278 
Q 184 -119 262 0 
Q 341 119 503 119 
Q 691 119 789 20 
Q 888 -78 888 -194 
Q 888 -294 853 -444 
Q 819 -594 800 -666 
Q 825 -688 881 -725 
Q 938 -763 1016 -797 
Q 1097 -831 1214 -857 
Q 1331 -884 1488 -884 
Q 1688 -884 1866 -803 
Q 2044 -722 2166 -563 
Q 2300 -388 2367 -164 
Q 2434 59 2434 403 
Q 2434 844 2189 1133 
Q 1944 1422 1544 1422 
Q 1294 1422 1076 1328 
Q 859 1234 688 1016 
L 478 1097 
L 744 3353 
L 2981 3353 
L 2981 2797 
L 997 2797 
L 834 1472 
Q 975 1572 1204 1670 
Q 1434 1769 1709 1769 
Q 1938 1769 2183 1698 
Q 2428 1628 2634 1466 
z
" transform="scale(0.015625)"/>
       </defs>
       <use xlink:href="#Georgia-35"/>
      </g>
     </g>
    </g>
    <g id="xtick_7">
     <g id="line2d_13">
      <path d="M 620.045404 515.68 
L 620.045404 7.2 
" clip-path="url(#p774a399211)" style="fill: none; stroke: #b0b0b0; stroke-width: 0.8; stroke-linecap: square"/>
     </g>
     <g id="line2d_14">
      <g>
       <use xlink:href="#m3b5cdb03ed" x="620.045404" y="515.68" style="stroke: #000000; stroke-width: 0.8"/>
      </g>
     </g>
     <g id="text_7">
      <!-- 6 -->
      <g transform="translate(615.517904 534.775) scale(0.16 -0.16)">
       <defs>
        <path id="Georgia-36" d="M 3359 1441 
Q 3359 1116 3242 831 
Q 3125 547 2928 347 
Q 2700 119 2423 9 
Q 2147 -100 1847 -100 
Q 1500 -100 1219 28 
Q 938 156 741 391 
Q 541 628 431 972 
Q 322 1316 322 1744 
Q 322 2859 986 3625 
Q 1650 4391 2766 4544 
L 2822 4263 
L 2541 4213 
Q 1863 3994 1492 3531 
Q 1122 3069 1013 2409 
Q 1281 2644 1543 2741 
Q 1806 2838 2097 2838 
Q 2619 2838 2989 2438 
Q 3359 2038 3359 1441 
z
M 2681 1356 
Q 2681 1863 2448 2169 
Q 2216 2475 1825 2475 
Q 1591 2475 1389 2387 
Q 1188 2300 1000 2094 
Q 997 2056 990 1920 
Q 984 1784 984 1706 
Q 984 975 1223 561 
Q 1463 147 1853 147 
Q 2225 147 2453 470 
Q 2681 794 2681 1356 
z
" transform="scale(0.015625)"/>
       </defs>
       <use xlink:href="#Georgia-36"/>
      </g>
     </g>
    </g>
    <g id="text_8">
     <!-- $x$ -->
     <g transform="translate(359.103243 557.36375) scale(0.2 -0.2)">
      <defs>
       <path id="DejaVuSans-Oblique-78" d="M 3841 3500 
L 2234 1784 
L 3219 0 
L 2559 0 
L 1819 1388 
L 531 0 
L -166 0 
L 1556 1844 
L 641 3500 
L 1300 3500 
L 1972 2234 
L 3144 3500 
L 3841 3500 
z
" transform="scale(0.015625)"/>
      </defs>
      <use xlink:href="#DejaVuSans-Oblique-78" transform="translate(0 0.3125)"/>
     </g>
    </g>
   </g>
   <g id="matplotlib.axis_2">
    <g id="ytick_1">
     <g id="line2d_15">
      <path d="M 56.88375 448.283412 
L 673.322735 448.283412 
" clip-path="url(#p774a399211)" style="fill: none; stroke: #b0b0b0; stroke-width: 0.8; stroke-linecap: square"/>
     </g>
     <g id="line2d_16">
      <defs>
       <path id="meef173d3e5" d="M 0 0 
L -3.5 0 
" style="stroke: #000000; stroke-width: 0.8"/>
      </defs>
      <g>
       <use xlink:href="#meef173d3e5" x="56.88375" y="448.283412" style="stroke: #000000; stroke-width: 0.8"/>
      </g>
     </g>
     <g id="text_9">
      <!-- −2 -->
      <g transform="translate(30.65625 454.330912) scale(0.16 -0.16)">
       <defs>
        <path id="Georgia-2212" d="M 3650 1553 
L 466 1553 
L 466 1944 
L 3650 1944 
L 3650 1553 
z
" transform="scale(0.015625)"/>
       </defs>
       <use xlink:href="#Georgia-2212"/>
       <use xlink:href="#Georgia-32" x="64.306641"/>
      </g>
     </g>
    </g>
    <g id="ytick_2">
     <g id="line2d_17">
      <path d="M 56.88375 355.524796 
L 673.322735 355.524796 
" clip-path="url(#p774a399211)" style="fill: none; stroke: #b0b0b0; stroke-width: 0.8; stroke-linecap: square"/>
     </g>
     <g id="line2d_18">
      <g>
       <use xlink:href="#meef173d3e5" x="56.88375" y="355.524796" style="stroke: #000000; stroke-width: 0.8"/>
      </g>
     </g>
     <g id="text_10">
      <!-- −1 -->
      <g transform="translate(32.71875 361.572296) scale(0.16 -0.16)">
       <use xlink:href="#Georgia-2212"/>
       <use xlink:href="#Georgia-31" x="64.306641"/>
      </g>
     </g>
    </g>
    <g id="ytick_3">
     <g id="line2d_19">
      <path d="M 56.88375 262.76618 
L 673.322735 262.76618 
" clip-path="url(#p774a399211)" style="fill: none; stroke: #b0b0b0; stroke-width: 0.8; stroke-linecap: square"/>
     </g>
     <g id="line2d_20">
      <g>
       <use xlink:href="#meef173d3e5" x="56.88375" y="262.76618" style="stroke: #000000; stroke-width: 0.8"/>
      </g>
     </g>
     <g id="text_11">
      <!-- 0 -->
      <g transform="translate(40.06375 268.81368) scale(0.16 -0.16)">
       <use xlink:href="#Georgia-30"/>
      </g>
     </g>
    </g>
    <g id="ytick_4">
     <g id="line2d_21">
      <path d="M 56.88375 170.007564 
L 673.322735 170.007564 
" clip-path="url(#p774a399211)" style="fill: none; stroke: #b0b0b0; stroke-width: 0.8; stroke-linecap: square"/>
     </g>
     <g id="line2d_22">
      <g>
       <use xlink:href="#meef173d3e5" x="56.88375" y="170.007564" style="stroke: #000000; stroke-width: 0.8"/>
      </g>
     </g>
     <g id="text_12">
      <!-- 1 -->
      <g transform="translate(43.00875 176.055064) scale(0.16 -0.16)">
       <use xlink:href="#Georgia-31"/>
      </g>
     </g>
    </g>
    <g id="ytick_5">
     <g id="line2d_23">
      <path d="M 56.88375 77.248948 
L 673.322735 77.248948 
" clip-path="url(#p774a399211)" style="fill: none; stroke: #b0b0b0; stroke-width: 0.8; stroke-linecap: square"/>
     </g>
     <g id="line2d_24">
      <g>
       <use xlink:href="#meef173d3e5" x="56.88375" y="77.248948" style="stroke: #000000; stroke-width: 0.8"/>
      </g>
     </g>
     <g id="text_13">
      <!-- 2 -->
      <g transform="translate(40.94625 83.296448) scale(0.16 -0.16)">
       <use xlink:href="#Georgia-32"/>
      </g>
     </g>
    </g>
    <g id="text_14">
     <!-- $y$ -->
     <g transform="translate(22.31875 267.44) rotate(-90) scale(0.2 -0.2)">
      <defs>
       <path id="DejaVuSans-Oblique-79" d="M 1588 -325 
Q 1188 -997 936 -1164 
Q 684 -1331 294 -1331 
L -159 -1331 
L -63 -850 
L 269 -850 
Q 509 -850 678 -719 
Q 847 -588 1056 -206 
L 1234 128 
L 459 3500 
L 1069 3500 
L 1650 819 
L 3256 3500 
L 3859 3500 
L 1588 -325 
z
" transform="scale(0.015625)"/>
      </defs>
      <use xlink:href="#DejaVuSans-Oblique-79" transform="translate(0 0.3125)"/>
     </g>
    </g>
   </g>
   <g id="line2d_25">
    <path d="M 84.903704 262.76618 
L 103.976345 243.08131 
L 114.073626 232.967165 
L 122.488026 224.824786 
L 130.341467 217.528272 
L 137.633947 211.065628 
L 144.365468 205.405766 
L 150.536028 200.503701 
L 156.706589 195.899535 
L 162.316189 191.991 
L 167.925789 188.362343 
L 172.97443 185.347729 
L 178.02307 182.58111 
L 183.07171 180.071348 
L 188.120351 177.826482 
L 192.608031 176.059261 
L 197.095711 174.511507 
L 201.583392 173.187139 
L 206.071072 172.089509 
L 210.558752 171.221395 
L 215.046433 170.584993 
L 219.534113 170.181916 
L 224.021793 170.013183 
L 228.509473 170.079221 
L 232.997154 170.379863 
L 237.484834 170.914349 
L 241.972514 171.681325 
L 246.460195 172.67885 
L 250.947875 173.904399 
L 255.435555 175.35487 
L 259.923236 177.026592 
L 264.410916 178.915333 
L 269.459556 181.2936 
L 274.508197 183.932847 
L 279.556837 186.824622 
L 284.605477 189.95966 
L 290.215078 193.716106 
L 295.824678 197.745606 
L 301.995238 202.474385 
L 308.165799 207.491634 
L 314.897319 213.265752 
L 322.1898 219.838019 
L 330.04324 227.23531 
L 339.018601 236.023019 
L 349.676842 246.80247 
L 365.383723 263.057881 
L 384.456364 282.73601 
L 394.553645 292.841287 
L 402.968045 300.97357 
L 410.821486 308.258524 
L 418.113966 314.708666 
L 424.845487 320.355552 
L 431.016047 325.244574 
L 437.186607 329.834665 
L 442.796208 333.729564 
L 448.405808 337.343841 
L 453.454449 340.344924 
L 458.503089 343.097498 
L 463.551729 345.592747 
L 468.60037 347.822677 
L 473.08805 349.576307 
L 477.57573 351.110208 
L 482.06341 352.420497 
L 486.551091 353.503858 
L 491.038771 354.357549 
L 495.526451 354.979409 
L 500.014132 355.367863 
L 504.501812 355.521929 
L 508.989492 355.441217 
L 513.477173 355.125931 
L 517.964853 354.576869 
L 522.452533 353.795421 
L 526.940213 352.783565 
L 531.427894 351.543861 
L 535.915574 350.079448 
L 540.403254 348.394033 
L 544.890935 346.491881 
L 549.939575 344.098908 
L 554.988215 341.445402 
L 560.036856 338.539862 
L 565.085496 335.391597 
L 570.695096 331.621137 
L 576.304697 327.578393 
L 582.475257 322.836 
L 588.645818 317.806199 
L 595.377338 312.019669 
L 602.669819 305.435546 
L 610.523259 298.027422 
L 619.49862 289.229895 
L 630.15686 278.442462 
L 645.302781 262.76618 
L 645.302781 262.76618 
" clip-path="url(#p774a399211)" style="fill: none; stroke: #000000; stroke-linecap: square"/>
   </g>
   <g id="line2d_26">
    <defs>
     <path id="m46cf8d3801" d="M 0 0.4 
C 0.106081 0.4 0.207832 0.357853 0.282843 0.282843 
C 0.357853 0.207832 0.4 0.106081 0.4 0 
C 0.4 -0.106081 0.357853 -0.207832 0.282843 -0.282843 
C 0.207832 -0.357853 0.106081 -0.4 0 -0.4 
C -0.106081 -0.4 -0.207832 -0.357853 -0.282843 -0.282843 
C -0.357853 -0.207832 -0.4 -0.106081 -0.4 0 
C -0.4 0.106081 -0.357853 0.207832 -0.282843 0.282843 
C -0.207832 0.357853 -0.106081 0.4 0 0.4 
z
" style="stroke: #000000"/>
    </defs>
    <g clip-path="url(#p774a399211)">
     <use xlink:href="#m46cf8d3801" x="84.903704" y="262.76618" style="stroke: #000000"/>
     <use xlink:href="#m46cf8d3801" x="90.564301" y="259.183941" style="stroke: #000000"/>
     <use xlink:href="#m46cf8d3801" x="96.224897" y="256.58928" style="stroke: #000000"/>
     <use xlink:href="#m46cf8d3801" x="101.885494" y="254.034321" style="stroke: #000000"/>
     <use xlink:href="#m46cf8d3801" x="107.546091" y="251.490197" style="stroke: #000000"/>
     <use xlink:href="#m46cf8d3801" x="113.206688" y="248.952479" style="stroke: #000000"/>
     <use xlink:href="#m46cf8d3801" x="118.867284" y="246.420682" style="stroke: #000000"/>
     <use xlink:href="#m46cf8d3801" x="124.527881" y="243.895219" style="stroke: #000000"/>
     <use xlink:href="#m46cf8d3801" x="130.188478" y="241.376761" style="stroke: #000000"/>
     <use xlink:href="#m46cf8d3801" x="135.849075" y="238.866073" style="stroke: #000000"/>
     <use xlink:href="#m46cf8d3801" x="141.509671" y="236.363973" style="stroke: #000000"/>
     <use xlink:href="#m46cf8d3801" x="147.170268" y="233.871317" style="stroke: #000000"/>
     <use xlink:href="#m46cf8d3801" x="152.830865" y="231.389007" style="stroke: #000000"/>
     <use xlink:href="#m46cf8d3801" x="158.491462" y="228.917986" style="stroke: #000000"/>
     <use xlink:href="#m46cf8d3801" x="164.152058" y="226.459249" style="stroke: #000000"/>
     <use xlink:href="#m46cf8d3801" x="169.812655" y="224.013848" style="stroke: #000000"/>
     <use xlink:href="#m46cf8d3801" x="175.473252" y="221.582895" style="stroke: #000000"/>
     <use xlink:href="#m46cf8d3801" x="181.133848" y="219.167576" style="stroke: #000000"/>
     <use xlink:href="#m46cf8d3801" x="186.794445" y="216.769155" style="stroke: #000000"/>
     <use xlink:href="#m46cf8d3801" x="192.455042" y="214.388986" style="stroke: #000000"/>
     <use xlink:href="#m46cf8d3801" x="198.115639" y="212.028524" style="stroke: #000000"/>
     <use xlink:href="#m46cf8d3801" x="203.776235" y="209.689341" style="stroke: #000000"/>
     <use xlink:href="#m46cf8d3801" x="209.436832" y="207.373137" style="stroke: #000000"/>
     <use xlink:href="#m46cf8d3801" x="215.097429" y="205.081761" style="stroke: #000000"/>
     <use xlink:href="#m46cf8d3801" x="220.758026" y="202.817232" style="stroke: #000000"/>
     <use xlink:href="#m46cf8d3801" x="226.418622" y="200.581762" style="stroke: #000000"/>
     <use xlink:href="#m46cf8d3801" x="232.079219" y="198.377788" style="stroke: #000000"/>
     <use xlink:href="#m46cf8d3801" x="237.739816" y="196.208005" style="stroke: #000000"/>
     <use xlink:href="#m46cf8d3801" x="243.400413" y="194.075409" style="stroke: #000000"/>
     <use xlink:href="#m46cf8d3801" x="249.061009" y="191.983348" style="stroke: #000000"/>
     <use xlink:href="#m46cf8d3801" x="254.721606" y="189.935587" style="stroke: #000000"/>
     <use xlink:href="#m46cf8d3801" x="260.382203" y="187.93638" style="stroke: #000000"/>
     <use xlink:href="#m46cf8d3801" x="266.0428" y="185.990571" style="stroke: #000000"/>
     <use xlink:href="#m46cf8d3801" x="271.703396" y="184.103716" style="stroke: #000000"/>
     <use xlink:href="#m46cf8d3801" x="277.363993" y="182.282233" style="stroke: #000000"/>
     <use xlink:href="#m46cf8d3801" x="283.02459" y="180.533609" style="stroke: #000000"/>
     <use xlink:href="#m46cf8d3801" x="288.685187" y="178.866658" style="stroke: #000000"/>
     <use xlink:href="#m46cf8d3801" x="294.345783" y="177.291879" style="stroke: #000000"/>
     <use xlink:href="#m46cf8d3801" x="300.00638" y="175.821934" style="stroke: #000000"/>
     <use xlink:href="#m46cf8d3801" x="305.666977" y="174.47232" style="stroke: #000000"/>
     <use xlink:href="#m46cf8d3801" x="311.327574" y="173.262332" style="stroke: #000000"/>
     <use xlink:href="#m46cf8d3801" x="316.98817" y="172.216485" style="stroke: #000000"/>
     <use xlink:href="#m46cf8d3801" x="322.648767" y="171.366692" style="stroke: #000000"/>
     <use xlink:href="#m46cf8d3801" x="328.309364" y="170.755768" style="stroke: #000000"/>
     <use xlink:href="#m46cf8d3801" x="333.969961" y="170.443369" style="stroke: #000000"/>
     <use xlink:href="#m46cf8d3801" x="339.630557" y="170.516851" style="stroke: #000000"/>
     <use xlink:href="#m46cf8d3801" x="345.291154" y="171.113102" style="stroke: #000000"/>
     <use xlink:href="#m46cf8d3801" x="350.951751" y="172.46889" style="stroke: #000000"/>
     <use xlink:href="#m46cf8d3801" x="356.612348" y="175.063021" style="stroke: #000000"/>
     <use xlink:href="#m46cf8d3801" x="362.272944" y="180.171113" style="stroke: #000000"/>
     <use xlink:href="#m46cf8d3801" x="367.933541" y="345.361247" style="stroke: #000000"/>
     <use xlink:href="#m46cf8d3801" x="373.594138" y="350.469339" style="stroke: #000000"/>
     <use xlink:href="#m46cf8d3801" x="379.254734" y="353.06347" style="stroke: #000000"/>
     <use xlink:href="#m46cf8d3801" x="384.915331" y="354.419258" style="stroke: #000000"/>
     <use xlink:href="#m46cf8d3801" x="390.575928" y="355.01551" style="stroke: #000000"/>
     <use xlink:href="#m46cf8d3801" x="396.236525" y="355.088991" style="stroke: #000000"/>
     <use xlink:href="#m46cf8d3801" x="401.897121" y="354.776593" style="stroke: #000000"/>
     <use xlink:href="#m46cf8d3801" x="407.557718" y="354.165668" style="stroke: #000000"/>
     <use xlink:href="#m46cf8d3801" x="413.218315" y="353.315876" style="stroke: #000000"/>
     <use xlink:href="#m46cf8d3801" x="418.878912" y="352.270028" style="stroke: #000000"/>
     <use xlink:href="#m46cf8d3801" x="424.539508" y="351.060041" style="stroke: #000000"/>
     <use xlink:href="#m46cf8d3801" x="430.200105" y="349.710427" style="stroke: #000000"/>
     <use xlink:href="#m46cf8d3801" x="435.860702" y="348.240481" style="stroke: #000000"/>
     <use xlink:href="#m46cf8d3801" x="441.521299" y="346.665702" style="stroke: #000000"/>
     <use xlink:href="#m46cf8d3801" x="447.181895" y="344.998751" style="stroke: #000000"/>
     <use xlink:href="#m46cf8d3801" x="452.842492" y="343.250127" style="stroke: #000000"/>
     <use xlink:href="#m46cf8d3801" x="458.503089" y="341.428644" style="stroke: #000000"/>
     <use xlink:href="#m46cf8d3801" x="464.163686" y="339.541789" style="stroke: #000000"/>
     <use xlink:href="#m46cf8d3801" x="469.824282" y="337.59598" style="stroke: #000000"/>
     <use xlink:href="#m46cf8d3801" x="475.484879" y="335.596773" style="stroke: #000000"/>
     <use xlink:href="#m46cf8d3801" x="481.145476" y="333.549012" style="stroke: #000000"/>
     <use xlink:href="#m46cf8d3801" x="486.806073" y="331.456951" style="stroke: #000000"/>
     <use xlink:href="#m46cf8d3801" x="492.466669" y="329.324355" style="stroke: #000000"/>
     <use xlink:href="#m46cf8d3801" x="498.127266" y="327.154572" style="stroke: #000000"/>
     <use xlink:href="#m46cf8d3801" x="503.787863" y="324.950598" style="stroke: #000000"/>
     <use xlink:href="#m46cf8d3801" x="509.44846" y="322.715129" style="stroke: #000000"/>
     <use xlink:href="#m46cf8d3801" x="515.109056" y="320.450599" style="stroke: #000000"/>
     <use xlink:href="#m46cf8d3801" x="520.769653" y="318.159223" style="stroke: #000000"/>
     <use xlink:href="#m46cf8d3801" x="526.43025" y="315.843019" style="stroke: #000000"/>
     <use xlink:href="#m46cf8d3801" x="532.090847" y="313.503836" style="stroke: #000000"/>
     <use xlink:href="#m46cf8d3801" x="537.751443" y="311.143375" style="stroke: #000000"/>
     <use xlink:href="#m46cf8d3801" x="543.41204" y="308.763205" style="stroke: #000000"/>
     <use xlink:href="#m46cf8d3801" x="549.072637" y="306.364784" style="stroke: #000000"/>
     <use xlink:href="#m46cf8d3801" x="554.733233" y="303.949465" style="stroke: #000000"/>
     <use xlink:href="#m46cf8d3801" x="560.39383" y="301.518512" style="stroke: #000000"/>
     <use xlink:href="#m46cf8d3801" x="566.054427" y="299.073111" style="stroke: #000000"/>
     <use xlink:href="#m46cf8d3801" x="571.715024" y="296.614374" style="stroke: #000000"/>
     <use xlink:href="#m46cf8d3801" x="577.37562" y="294.143353" style="stroke: #000000"/>
     <use xlink:href="#m46cf8d3801" x="583.036217" y="291.661043" style="stroke: #000000"/>
     <use xlink:href="#m46cf8d3801" x="588.696814" y="289.168387" style="stroke: #000000"/>
     <use xlink:href="#m46cf8d3801" x="594.357411" y="286.666287" style="stroke: #000000"/>
     <use xlink:href="#m46cf8d3801" x="600.018007" y="284.155599" style="stroke: #000000"/>
     <use xlink:href="#m46cf8d3801" x="605.678604" y="281.637141" style="stroke: #000000"/>
     <use xlink:href="#m46cf8d3801" x="611.339201" y="279.111678" style="stroke: #000000"/>
     <use xlink:href="#m46cf8d3801" x="616.999798" y="276.579881" style="stroke: #000000"/>
     <use xlink:href="#m46cf8d3801" x="622.660394" y="274.042163" style="stroke: #000000"/>
     <use xlink:href="#m46cf8d3801" x="628.320991" y="271.498039" style="stroke: #000000"/>
     <use xlink:href="#m46cf8d3801" x="633.981588" y="268.94308" style="stroke: #000000"/>
     <use xlink:href="#m46cf8d3801" x="639.642185" y="266.348419" style="stroke: #000000"/>
     <use xlink:href="#m46cf8d3801" x="645.302781" y="262.76618" style="stroke: #000000"/>
    </g>
   </g>
   <g id="line2d_27">
    <path d="M 84.903704 262.768287 
L 90.564301 264.80219 
L 96.224897 258.622347 
L 101.885494 257.326722 
L 107.546091 260.560036 
L 113.206688 253.744123 
L 118.867284 245.426986 
L 124.527881 247.146757 
L 130.188478 245.435726 
L 135.849075 236.734467 
L 141.509671 236.407588 
L 147.170268 239.049126 
L 152.830865 231.697744 
L 158.491462 226.655148 
L 164.152058 230.113753 
L 169.812655 226.527165 
L 175.473252 218.617846 
L 181.133848 220.511219 
L 186.794445 221.296449 
L 192.455042 212.705333 
L 198.115639 210.514406 
L 203.776235 214.288454 
L 209.436832 208.262026 
L 215.097429 201.812405 
L 220.758026 205.692047 
L 226.418622 204.176889 
L 232.079219 195.195102 
L 237.739816 196.108255 
L 243.400413 199.177351 
L 249.061009 190.900303 
L 254.721606 186.971668 
L 260.382203 192.433153 
L 266.0428 188.138016 
L 271.703396 179.800379 
L 277.363993 184.106938 
L 283.02459 185.529345 
L 288.685187 175.581721 
L 294.345783 175.51732 
L 300.00638 181.812039 
L 305.666977 173.893838 
L 311.327574 168.045312 
L 316.98817 177.210843 
L 322.648767 175.408875 
L 328.309364 163.312021 
L 333.969961 170.392474 
L 339.630557 178.909589 
L 345.291154 164.402555 
L 350.951751 163.271083 
L 356.612348 187.285147 
L 362.272944 174.646017 
L 367.933541 350.926877 
L 373.594138 338.085923 
L 379.254734 362.1303 
L 384.915331 361.365337 
L 390.575928 346.917044 
L 396.236525 354.881596 
L 401.897121 361.697231 
L 407.557718 350.266962 
L 413.218315 349.03019 
L 418.878912 357.642277 
L 424.539508 351.028146 
L 430.200105 343.339172 
L 435.860702 350.278216 
L 441.521299 350.212284 
L 447.181895 339.911188 
L 452.842492 341.325454 
L 458.503089 345.78738 
L 464.163686 337.416431 
L 469.824282 333.064088 
L 475.484879 338.570701 
L 481.145476 334.647457 
L 486.806073 326.336195 
L 492.466669 329.424763 
L 498.127266 330.352706 
L 503.787863 321.345378 
L 509.44846 319.833358 
L 515.109056 323.732468 
L 520.769653 317.268757 
L 526.43025 311.234438 
L 532.090847 315.025012 
L 537.751443 312.830705 
L 543.41204 304.227583 
L 549.072637 305.023197 
L 554.733233 306.920501 
L 560.39383 298.99958 
L 566.054427 295.416887 
L 571.715024 298.883346 
L 577.37562 293.832207 
L 583.036217 286.479277 
L 588.696814 289.129591 
L 594.357411 288.798337 
L 600.018007 280.091885 
L 605.678604 278.388425 
L 611.339201 280.107999 
L 616.999798 271.783876 
L 622.660394 264.972948 
L 628.320991 268.20949 
L 633.981588 266.906657 
L 639.642185 260.728542 
L 645.302781 262.768287 
" clip-path="url(#p774a399211)" style="fill: none; stroke: #a80000; stroke-width: 3; stroke-linecap: square"/>
   </g>
   <g id="line2d_28">
    <path d="M 85.998233 30.312727 
L 88.187292 101.238309 
L 90.376351 152.417599 
L 92.56541 188.713277 
L 94.754469 213.91051 
L 96.943528 230.931539 
L 99.132587 242.012026 
L 101.321646 248.845215 
L 103.510704 252.699118 
L 105.699763 254.511195 
L 107.888822 254.964356 
L 110.077881 254.547526 
L 112.26694 253.603536 
L 114.455999 252.366669 
L 125.401293 245.542868 
L 129.779411 243.149399 
L 136.346588 239.904843 
L 147.291882 234.906935 
L 171.37153 224.251819 
L 191.07306 215.78562 
L 208.585532 208.474435 
L 226.098003 201.411332 
L 241.421415 195.48405 
L 254.555768 190.635886 
L 267.690122 186.050422 
L 278.635416 182.473443 
L 287.391652 179.804433 
L 296.147887 177.338637 
L 304.904123 175.116169 
L 311.4713 173.641879 
L 318.038476 172.363456 
L 324.605653 171.309945 
L 331.17283 170.52707 
L 335.550948 170.223858 
L 339.929065 170.244169 
L 342.118124 170.466603 
L 344.307183 170.917655 
L 346.496242 171.701066 
L 348.685301 172.965527 
L 350.87436 174.920856 
L 353.063419 177.858983 
L 355.252478 182.180926 
L 357.441536 188.43117 
L 359.630595 197.341161 
L 361.819654 209.883923 
L 364.008713 227.342211 
L 366.197772 303.898968 
L 368.386831 319.616859 
L 370.57589 330.903846 
L 372.764949 338.919997 
L 374.954008 344.54376 
L 377.143067 348.434314 
L 379.332125 351.081463 
L 381.521184 352.845289 
L 383.710243 353.987446 
L 385.899302 354.695666 
L 388.088361 355.102773 
L 390.27742 355.301323 
L 394.655538 355.3057 
L 399.033656 355.002972 
L 405.600832 354.224018 
L 412.168009 353.170748 
L 418.735186 351.890782 
L 425.302362 350.415399 
L 434.058598 348.192866 
L 442.814833 345.727609 
L 451.571069 343.058921 
L 462.516364 339.48198 
L 473.461658 335.680393 
L 486.596011 330.872506 
L 499.730365 325.841036 
L 515.053777 319.738731 
L 532.566248 312.513984 
L 552.267778 304.129708 
L 571.969308 295.502676 
L 591.670838 286.65149 
L 598.238015 283.501521 
L 602.616133 281.215012 
L 606.994251 278.702166 
L 613.561427 274.541422 
L 615.750486 273.165364 
L 617.939545 271.925399 
L 620.128604 270.974937 
L 622.317663 270.54598 
L 624.506722 270.977942 
L 626.695781 272.754753 
L 628.88484 276.55216 
L 631.073899 283.297542 
L 633.262957 294.244921 
L 635.452016 311.068397 
L 637.641075 335.977749 
L 639.830134 371.860601 
L 642.019193 422.456272 
L 644.208252 492.567273 
L 644.208252 492.567273 
" clip-path="url(#p774a399211)" style="fill: none; stroke: #1f77b4; stroke-width: 3; stroke-linecap: square"/>
   </g>
   <g id="patch_3">
    <path d="M 56.88375 515.68 
L 56.88375 7.2 
" style="fill: none; stroke: #000000; stroke-width: 1.5; stroke-linejoin: miter; stroke-linecap: square"/>
   </g>
   <g id="patch_4">
    <path d="M 673.322735 515.68 
L 673.322735 7.2 
" style="fill: none; stroke: #000000; stroke-width: 1.5; stroke-linejoin: miter; stroke-linecap: square"/>
   </g>
   <g id="patch_5">
    <path d="M 56.88375 515.68 
L 673.322735 515.68 
" style="fill: none; stroke: #000000; stroke-width: 1.5; stroke-linejoin: miter; stroke-linecap: square"/>
   </g>
   <g id="patch_6">
    <path d="M 56.88375 7.2 
L 673.322735 7.2 
" style="fill: none; stroke: #000000; stroke-width: 1.5; stroke-linejoin: miter; stroke-linecap: square"/>
   </g>
   <g id="legend_1">
    <g id="patch_7">
     <path d="M 571.814923 74.1125 
L 666.322735 74.1125 
Q 668.322735 74.1125 668.322735 72.1125 
L 668.322735 14.2 
Q 668.322735 12.2 666.322735 12.2 
L 571.814923 12.2 
Q 569.814923 12.2 569.814923 14.2 
L 569.814923 72.1125 
Q 569.814923 74.1125 571.814923 74.1125 
z
" style="fill: #ffffff; opacity: 0.8; stroke: #cccccc; stroke-linejoin: miter"/>
    </g>
    <g id="line2d_29">
     <path d="M 573.814923 20.259375 
L 583.814923 20.259375 
L 593.814923 20.259375 
" style="fill: none; stroke: #000000; stroke-linecap: square"/>
    </g>
    <g id="text_15">
     <!-- Init -->
     <g transform="translate(601.814923 23.759375) scale(0.1 -0.1)">
      <defs>
       <path id="Georgia-49" d="M 2244 0 
L 247 0 
L 247 222 
Q 331 228 490 240 
Q 650 253 716 278 
Q 819 319 866 389 
Q 913 459 913 584 
L 913 3797 
Q 913 3906 878 3979 
Q 844 4053 716 4103 
Q 622 4141 480 4173 
Q 338 4206 247 4213 
L 247 4434 
L 2244 4434 
L 2244 4213 
Q 2147 4209 2012 4189 
Q 1878 4169 1778 4138 
Q 1659 4100 1618 4015 
Q 1578 3931 1578 3828 
L 1578 619 
Q 1578 516 1623 436 
Q 1669 356 1778 309 
Q 1844 284 1992 254 
Q 2141 225 2244 222 
L 2244 0 
z
" transform="scale(0.015625)"/>
       <path id="Georgia-6e" d="M 3628 0 
L 2119 0 
L 2119 206 
Q 2191 213 2277 219 
Q 2363 225 2419 244 
Q 2506 272 2548 342 
Q 2591 413 2591 525 
L 2591 2109 
Q 2591 2438 2436 2616 
Q 2281 2794 2059 2794 
Q 1894 2794 1756 2742 
Q 1619 2691 1513 2616 
Q 1409 2544 1348 2461 
Q 1288 2378 1259 2328 
L 1259 556 
Q 1259 450 1303 381 
Q 1347 313 1434 275 
Q 1500 244 1576 228 
Q 1653 213 1734 206 
L 1734 0 
L 225 0 
L 225 206 
Q 297 213 373 219 
Q 450 225 506 244 
Q 594 272 636 342 
Q 678 413 678 525 
L 678 2428 
Q 678 2534 633 2623 
Q 588 2713 506 2769 
Q 447 2806 365 2823 
Q 284 2841 191 2847 
L 191 3050 
L 1216 3119 
L 1259 3075 
L 1259 2641 
L 1275 2641 
Q 1350 2716 1462 2820 
Q 1575 2925 1675 2991 
Q 1791 3066 1950 3116 
Q 2109 3166 2309 3166 
Q 2753 3166 2967 2889 
Q 3181 2613 3181 2153 
L 3181 550 
Q 3181 441 3218 373 
Q 3256 306 3347 269 
Q 3422 238 3476 225 
Q 3531 213 3628 206 
L 3628 0 
z
" transform="scale(0.015625)"/>
       <path id="Georgia-69" d="M 1722 0 
L 231 0 
L 231 206 
Q 303 213 379 219 
Q 456 225 513 244 
Q 600 272 642 342 
Q 684 413 684 525 
L 684 2428 
Q 684 2528 639 2611 
Q 594 2694 513 2750 
Q 453 2788 340 2814 
Q 228 2841 134 2847 
L 134 3050 
L 1222 3119 
L 1266 3075 
L 1266 563 
Q 1266 453 1308 381 
Q 1350 309 1441 275 
Q 1509 247 1575 230 
Q 1641 213 1722 206 
L 1722 0 
z
M 1328 4334 
Q 1328 4156 1211 4023 
Q 1094 3891 922 3891 
Q 763 3891 645 4017 
Q 528 4144 528 4306 
Q 528 4478 645 4606 
Q 763 4734 922 4734 
Q 1100 4734 1214 4614 
Q 1328 4494 1328 4334 
z
" transform="scale(0.015625)"/>
       <path id="Georgia-74" d="M 2128 134 
Q 1925 50 1744 -8 
Q 1563 -66 1300 -66 
Q 913 -66 755 129 
Q 597 325 597 681 
L 597 2769 
L 41 2769 
L 41 3069 
L 609 3069 
L 609 4028 
L 1178 4028 
L 1178 3069 
L 2063 3069 
L 2063 2769 
L 1184 2769 
L 1184 1047 
Q 1184 853 1198 723 
Q 1213 594 1266 497 
Q 1316 406 1416 359 
Q 1516 313 1684 313 
Q 1763 313 1914 327 
Q 2066 341 2128 363 
L 2128 134 
z
" transform="scale(0.015625)"/>
      </defs>
      <use xlink:href="#Georgia-49"/>
      <use xlink:href="#Georgia-6e" x="38.964844"/>
      <use xlink:href="#Georgia-69" x="98.046875"/>
      <use xlink:href="#Georgia-74" x="127.34375"/>
     </g>
    </g>
    <g id="line2d_30">
     <g>
      <use xlink:href="#m46cf8d3801" x="583.814923" y="34.9875" style="stroke: #000000"/>
     </g>
    </g>
    <g id="text_16">
     <!-- Exact -->
     <g transform="translate(601.814923 38.4875) scale(0.1 -0.1)">
      <defs>
       <path id="Georgia-45" d="M 4034 1306 
L 3950 0 
L 269 0 
L 269 222 
Q 363 228 519 248 
Q 675 269 722 291 
Q 822 338 861 413 
Q 900 488 900 603 
L 900 3791 
Q 900 3894 865 3973 
Q 831 4053 722 4103 
Q 638 4144 495 4175 
Q 353 4206 269 4213 
L 269 4434 
L 3700 4434 
L 3700 3366 
L 3466 3366 
Q 3403 3603 3195 3870 
Q 2988 4138 2800 4163 
Q 2703 4175 2568 4181 
Q 2434 4188 2263 4188 
L 1566 4188 
L 1566 2425 
L 2066 2425 
Q 2306 2425 2417 2470 
Q 2528 2516 2613 2622 
Q 2681 2713 2729 2864 
Q 2778 3016 2794 3150 
L 3028 3150 
L 3028 1416 
L 2794 1416 
Q 2781 1566 2726 1733 
Q 2672 1900 2613 1975 
Q 2516 2097 2392 2134 
Q 2269 2172 2066 2172 
L 1566 2172 
L 1566 841 
Q 1566 641 1594 525 
Q 1622 409 1703 350 
Q 1784 291 1925 273 
Q 2066 256 2325 256 
Q 2428 256 2597 256 
Q 2766 256 2881 269 
Q 3000 281 3126 314 
Q 3253 347 3306 403 
Q 3450 553 3608 858 
Q 3766 1163 3809 1306 
L 4034 1306 
z
" transform="scale(0.015625)"/>
       <path id="Georgia-78" d="M 3194 0 
L 1781 0 
L 1781 206 
Q 1922 222 2020 237 
Q 2119 253 2119 319 
Q 2119 347 2087 406 
Q 2056 466 2025 516 
Q 1947 638 1811 842 
Q 1675 1047 1478 1331 
Q 1316 1128 1178 936 
Q 1041 744 891 528 
Q 869 497 845 450 
Q 822 403 822 375 
Q 822 306 911 261 
Q 1000 216 1178 200 
L 1178 0 
L 38 0 
L 38 194 
Q 250 256 379 345 
Q 509 434 619 566 
Q 716 691 889 909 
Q 1063 1128 1338 1503 
Q 1178 1731 948 2061 
Q 719 2391 569 2609 
Q 488 2728 383 2801 
Q 278 2875 88 2875 
L 88 3081 
L 1428 3081 
L 1428 2875 
Q 1328 2875 1231 2862 
Q 1134 2850 1134 2806 
Q 1134 2778 1153 2743 
Q 1172 2709 1200 2669 
Q 1269 2563 1414 2341 
Q 1559 2119 1728 1872 
Q 1838 2022 1983 2222 
Q 2128 2422 2250 2603 
Q 2263 2625 2275 2658 
Q 2288 2691 2288 2722 
Q 2288 2788 2180 2827 
Q 2072 2866 1975 2881 
L 1975 3081 
L 3113 3081 
L 3113 2888 
Q 2872 2825 2737 2739 
Q 2603 2653 2509 2541 
Q 2406 2413 2264 2225 
Q 2122 2038 1866 1700 
Q 2150 1300 2328 1044 
Q 2506 788 2688 516 
Q 2778 378 2889 298 
Q 3000 219 3194 206 
L 3194 0 
z
" transform="scale(0.015625)"/>
       <path id="Georgia-61" d="M 3144 56 
Q 2997 3 2886 -30 
Q 2775 -63 2634 -63 
Q 2391 -63 2245 51 
Q 2100 166 2059 384 
L 2041 384 
Q 1838 159 1605 40 
Q 1372 -78 1044 -78 
Q 697 -78 473 134 
Q 250 347 250 691 
Q 250 869 300 1009 
Q 350 1150 450 1263 
Q 528 1356 656 1429 
Q 784 1503 897 1547 
Q 1038 1600 1467 1744 
Q 1897 1888 2047 1969 
L 2047 2278 
Q 2047 2319 2030 2434 
Q 2013 2550 1956 2653 
Q 1894 2769 1780 2855 
Q 1666 2941 1456 2941 
Q 1313 2941 1189 2892 
Q 1066 2844 1016 2791 
Q 1016 2728 1045 2606 
Q 1075 2484 1075 2381 
Q 1075 2272 976 2181 
Q 878 2091 703 2091 
Q 547 2091 473 2202 
Q 400 2313 400 2450 
Q 400 2594 501 2725 
Q 603 2856 766 2959 
Q 906 3047 1106 3108 
Q 1306 3169 1497 3169 
Q 1759 3169 1954 3133 
Q 2150 3097 2309 2978 
Q 2469 2863 2551 2664 
Q 2634 2466 2634 2153 
Q 2634 1706 2625 1361 
Q 2616 1016 2616 606 
Q 2616 484 2658 412 
Q 2700 341 2788 291 
Q 2834 263 2936 259 
Q 3038 256 3144 256 
L 3144 56 
z
M 2053 1706 
Q 1788 1628 1588 1553 
Q 1388 1478 1216 1366 
Q 1059 1259 968 1114 
Q 878 969 878 769 
Q 878 509 1014 387 
Q 1150 266 1359 266 
Q 1581 266 1750 373 
Q 1919 481 2034 628 
L 2053 1706 
z
" transform="scale(0.015625)"/>
       <path id="Georgia-63" d="M 1650 -81 
Q 981 -81 603 362 
Q 225 806 225 1553 
Q 225 1878 326 2161 
Q 428 2444 622 2675 
Q 806 2897 1084 3033 
Q 1363 3169 1691 3169 
Q 2144 3169 2428 2951 
Q 2713 2734 2713 2359 
Q 2713 2203 2638 2083 
Q 2563 1963 2391 1963 
Q 2206 1963 2104 2056 
Q 2003 2150 2003 2266 
Q 2003 2406 2040 2554 
Q 2078 2703 2084 2772 
Q 2028 2869 1917 2901 
Q 1806 2934 1678 2934 
Q 1528 2934 1392 2870 
Q 1256 2806 1128 2634 
Q 1013 2478 941 2212 
Q 869 1947 869 1578 
Q 869 997 1126 630 
Q 1384 263 1803 263 
Q 2106 263 2311 409 
Q 2516 556 2691 850 
L 2891 719 
Q 2684 350 2346 134 
Q 2009 -81 1650 -81 
z
" transform="scale(0.015625)"/>
      </defs>
      <use xlink:href="#Georgia-45"/>
      <use xlink:href="#Georgia-78" x="65.332031"/>
      <use xlink:href="#Georgia-61" x="115.820312"/>
      <use xlink:href="#Georgia-63" x="166.210938"/>
      <use xlink:href="#Georgia-74" x="211.621094"/>
     </g>
    </g>
    <g id="line2d_31">
     <path d="M 573.814923 49.715625 
L 583.814923 49.715625 
L 593.814923 49.715625 
" style="fill: none; stroke: #a80000; stroke-width: 3; stroke-linecap: square"/>
    </g>
    <g id="text_17">
     <!-- 256, t=1.3 -->
     <g transform="translate(601.814923 53.215625) scale(0.1 -0.1)">
      <defs>
       <path id="Georgia-2c" d="M 1341 109 
Q 1341 -116 1239 -316 
Q 1138 -516 1006 -659 
Q 872 -809 722 -925 
Q 572 -1041 447 -1106 
L 303 -897 
Q 453 -803 572 -709 
Q 691 -616 766 -522 
Q 859 -413 925 -284 
Q 991 -156 1009 6 
L 850 6 
Q 641 6 523 115 
Q 406 225 406 409 
Q 406 541 512 664 
Q 619 788 803 788 
Q 1072 788 1206 608 
Q 1341 428 1341 109 
z
" transform="scale(0.015625)"/>
       <path id="Georgia-20" transform="scale(0.015625)"/>
       <path id="Georgia-3d" d="M 3634 2134 
L 481 2134 
L 481 2525 
L 3634 2525 
L 3634 2134 
z
M 3634 972 
L 481 972 
L 481 1363 
L 3634 1363 
L 3634 972 
z
" transform="scale(0.015625)"/>
       <path id="Georgia-2e" d="M 1297 359 
Q 1297 184 1170 60 
Q 1044 -63 869 -63 
Q 694 -63 567 60 
Q 441 184 441 359 
Q 441 534 567 661 
Q 694 788 869 788 
Q 1044 788 1170 661 
Q 1297 534 1297 359 
z
" transform="scale(0.015625)"/>
      </defs>
      <use xlink:href="#Georgia-32"/>
      <use xlink:href="#Georgia-35" x="55.859375"/>
      <use xlink:href="#Georgia-36" x="108.691406"/>
      <use xlink:href="#Georgia-2c" x="165.283203"/>
      <use xlink:href="#Georgia-20" x="192.236328"/>
      <use xlink:href="#Georgia-74" x="216.357422"/>
      <use xlink:href="#Georgia-3d" x="250.878906"/>
      <use xlink:href="#Georgia-31" x="315.185547"/>
      <use xlink:href="#Georgia-2e" x="358.154297"/>
      <use xlink:href="#Georgia-33" x="385.107422"/>
     </g>
    </g>
    <g id="line2d_32">
     <path d="M 573.814923 64.44375 
L 583.814923 64.44375 
L 593.814923 64.44375 
" style="fill: none; stroke: #1f77b4; stroke-width: 3; stroke-linecap: square"/>
    </g>
    <g id="text_18">
     <!-- 256, t=1.3,ggb -->
     <g transform="translate(601.814923 67.94375) scale(0.1 -0.1)">
      <defs>
       <path id="Georgia-67" d="M 2866 319 
Q 2991 200 3062 50 
Q 3134 -100 3134 -322 
Q 3134 -544 3037 -739 
Q 2941 -934 2744 -1078 
Q 2534 -1225 2243 -1306 
Q 1953 -1388 1525 -1388 
Q 825 -1388 478 -1183 
Q 131 -978 131 -584 
Q 131 -266 381 -81 
Q 631 103 1019 119 
L 1019 163 
Q 925 191 825 233 
Q 725 275 653 331 
Q 572 397 522 486 
Q 472 575 472 706 
Q 472 872 589 1011 
Q 706 1150 944 1250 
L 944 1297 
Q 644 1438 478 1658 
Q 313 1878 313 2169 
Q 313 2606 639 2887 
Q 966 3169 1475 3169 
Q 1616 3169 1755 3141 
Q 1894 3113 2038 3069 
L 3113 3069 
L 3113 2769 
L 2388 2769 
L 2388 2750 
Q 2503 2616 2559 2453 
Q 2616 2291 2616 2134 
Q 2616 1728 2286 1447 
Q 1956 1166 1519 1166 
L 1141 1166 
Q 1069 1141 991 1075 
Q 913 1009 913 897 
Q 913 781 978 720 
Q 1044 659 1138 638 
Q 1228 613 1348 606 
Q 1469 600 1597 597 
Q 1734 594 1973 578 
Q 2213 563 2313 559 
Q 2456 553 2601 490 
Q 2747 428 2866 319 
z
M 2022 2147 
Q 2022 2513 1873 2730 
Q 1725 2947 1456 2947 
Q 1309 2947 1204 2886 
Q 1100 2825 1034 2713 
Q 972 2609 945 2464 
Q 919 2319 919 2166 
Q 919 1819 1070 1600 
Q 1222 1381 1463 1381 
Q 1731 1381 1876 1598 
Q 2022 1816 2022 2147 
z
M 2622 -438 
Q 2622 -263 2540 -150 
Q 2459 -38 2294 3 
Q 2206 16 1934 31 
Q 1663 47 1303 47 
Q 966 -19 823 -173 
Q 681 -328 681 -572 
Q 681 -681 728 -781 
Q 775 -881 891 -966 
Q 1000 -1047 1184 -1098 
Q 1369 -1150 1634 -1150 
Q 2094 -1150 2358 -973 
Q 2622 -797 2622 -438 
z
" transform="scale(0.015625)"/>
       <path id="Georgia-62" d="M 3353 1544 
Q 3353 850 2915 378 
Q 2478 -94 1900 -94 
Q 1647 -94 1401 -15 
Q 1156 63 941 194 
L 709 -166 
L 516 -122 
Q 531 109 537 434 
Q 544 759 544 1063 
L 544 4113 
Q 544 4219 495 4325 
Q 447 4431 372 4478 
Q 313 4519 173 4539 
Q 34 4559 -50 4566 
L -50 4766 
L 1081 4838 
L 1125 4791 
L 1125 2759 
L 1147 2753 
Q 1341 2959 1570 3062 
Q 1800 3166 2022 3166 
Q 2591 3166 2972 2716 
Q 3353 2266 3353 1544 
z
M 2700 1522 
Q 2700 1753 2650 1993 
Q 2600 2234 2494 2413 
Q 2388 2594 2216 2706 
Q 2044 2819 1803 2819 
Q 1584 2819 1420 2733 
Q 1256 2647 1125 2500 
L 1125 706 
Q 1144 631 1198 531 
Q 1253 431 1347 341 
Q 1441 253 1559 198 
Q 1678 144 1850 144 
Q 2231 144 2465 512 
Q 2700 881 2700 1522 
z
" transform="scale(0.015625)"/>
      </defs>
      <use xlink:href="#Georgia-32"/>
      <use xlink:href="#Georgia-35" x="55.859375"/>
      <use xlink:href="#Georgia-36" x="108.691406"/>
      <use xlink:href="#Georgia-2c" x="165.283203"/>
      <use xlink:href="#Georgia-20" x="192.236328"/>
      <use xlink:href="#Georgia-74" x="216.357422"/>
      <use xlink:href="#Georgia-3d" x="250.878906"/>
      <use xlink:href="#Georgia-31" x="315.185547"/>
      <use xlink:href="#Georgia-2e" x="358.154297"/>
      <use xlink:href="#Georgia-33" x="385.107422"/>
      <use xlink:href="#Georgia-2c" x="440.283203"/>
      <use xlink:href="#Georgia-67" x="467.236328"/>
      <use xlink:href="#Georgia-67" x="518.164062"/>
      <use xlink:href="#Georgia-62" x="569.091797"/>
     </g>
    </g>
   </g>
  </g>
  <g id="axes_2">
   <g id="patch_8">
    <path d="M 747.008156 515.68 
L 993.58375 515.68 
L 993.58375 7.2 
L 747.008156 7.2 
L 747.008156 515.68 
z
" style="fill: none"/>
   </g>
   <g id="matplotlib.axis_3">
    <g id="xtick_8">
     <g id="line2d_33">
      <g>
       <use xlink:href="#m3b5cdb03ed" x="758.216137" y="515.68" style="stroke: #000000; stroke-width: 0.8"/>
      </g>
     </g>
     <g id="text_19">
      <!-- 0 -->
      <g transform="translate(753.306137 534.775) scale(0.16 -0.16)">
       <use xlink:href="#Georgia-30"/>
      </g>
     </g>
    </g>
    <g id="xtick_9">
     <g id="line2d_34">
      <g>
       <use xlink:href="#m3b5cdb03ed" x="829.568364" y="515.68" style="stroke: #000000; stroke-width: 0.8"/>
      </g>
     </g>
     <g id="text_20">
      <!-- 2 -->
      <g transform="translate(825.099614 534.775) scale(0.16 -0.16)">
       <use xlink:href="#Georgia-32"/>
      </g>
     </g>
    </g>
    <g id="xtick_10">
     <g id="line2d_35">
      <g>
       <use xlink:href="#m3b5cdb03ed" x="900.920591" y="515.68" style="stroke: #000000; stroke-width: 0.8"/>
      </g>
     </g>
     <g id="text_21">
      <!-- 4 -->
      <g transform="translate(896.400591 534.775) scale(0.16 -0.16)">
       <use xlink:href="#Georgia-34"/>
      </g>
     </g>
    </g>
    <g id="xtick_11">
     <g id="line2d_36">
      <g>
       <use xlink:href="#m3b5cdb03ed" x="972.272817" y="515.68" style="stroke: #000000; stroke-width: 0.8"/>
      </g>
     </g>
     <g id="text_22">
      <!-- 6 -->
      <g transform="translate(967.745317 534.775) scale(0.16 -0.16)">
       <use xlink:href="#Georgia-36"/>
      </g>
     </g>
    </g>
    <g id="text_23">
     <!-- $k$ -->
     <g transform="translate(864.495953 557.36375) scale(0.2 -0.2)">
      <defs>
       <path id="DejaVuSans-Oblique-6b" d="M 1172 4863 
L 1747 4863 
L 1197 2028 
L 3169 3500 
L 3916 3500 
L 1716 1825 
L 3322 0 
L 2625 0 
L 1131 1709 
L 800 0 
L 225 0 
L 1172 4863 
z
" transform="scale(0.015625)"/>
      </defs>
      <use xlink:href="#DejaVuSans-Oblique-6b" transform="translate(0 0.015625)"/>
     </g>
    </g>
   </g>
   <g id="matplotlib.axis_4">
    <g id="ytick_6">
     <g id="line2d_37">
      <g>
       <use xlink:href="#meef173d3e5" x="747.008156" y="433.547854" style="stroke: #000000; stroke-width: 0.8"/>
      </g>
     </g>
     <g id="text_24">
      <!-- $\mathdefault{10^{-4}}$ -->
      <g transform="translate(709.128156 439.595354) scale(0.16 -0.16)">
       <use xlink:href="#Georgia-31" transform="translate(0 0.742188)"/>
       <use xlink:href="#Georgia-30" transform="translate(42.96875 0.742188)"/>
       <use xlink:href="#Georgia-2212" transform="translate(105.188164 34.440625) scale(0.7)"/>
       <use xlink:href="#Georgia-34" transform="translate(150.202812 34.440625) scale(0.7)"/>
      </g>
     </g>
    </g>
    <g id="ytick_7">
     <g id="line2d_38">
      <g>
       <use xlink:href="#meef173d3e5" x="747.008156" y="341.855279" style="stroke: #000000; stroke-width: 0.8"/>
      </g>
     </g>
     <g id="text_25">
      <!-- $\mathdefault{10^{-3}}$ -->
      <g transform="translate(709.288156 347.902779) scale(0.16 -0.16)">
       <use xlink:href="#Georgia-31" transform="translate(0 0.534375)"/>
       <use xlink:href="#Georgia-30" transform="translate(42.96875 0.534375)"/>
       <use xlink:href="#Georgia-2212" transform="translate(105.188164 34.232813) scale(0.7)"/>
       <use xlink:href="#Georgia-33" transform="translate(150.202812 34.232813) scale(0.7)"/>
      </g>
     </g>
    </g>
    <g id="ytick_8">
     <g id="line2d_39">
      <g>
       <use xlink:href="#meef173d3e5" x="747.008156" y="250.162704" style="stroke: #000000; stroke-width: 0.8"/>
      </g>
     </g>
     <g id="text_26">
      <!-- $\mathdefault{10^{-2}}$ -->
      <g transform="translate(709.288156 256.210204) scale(0.16 -0.16)">
       <use xlink:href="#Georgia-31" transform="translate(0 0.534375)"/>
       <use xlink:href="#Georgia-30" transform="translate(42.96875 0.534375)"/>
       <use xlink:href="#Georgia-2212" transform="translate(105.188164 34.232813) scale(0.7)"/>
       <use xlink:href="#Georgia-32" transform="translate(150.202812 34.232813) scale(0.7)"/>
      </g>
     </g>
    </g>
    <g id="ytick_9">
     <g id="line2d_40">
      <g>
       <use xlink:href="#meef173d3e5" x="747.008156" y="158.470129" style="stroke: #000000; stroke-width: 0.8"/>
      </g>
     </g>
     <g id="text_27">
      <!-- $\mathdefault{10^{-1}}$ -->
      <g transform="translate(710.728156 164.517629) scale(0.16 -0.16)">
       <use xlink:href="#Georgia-31" transform="translate(0 0.534375)"/>
       <use xlink:href="#Georgia-30" transform="translate(42.96875 0.534375)"/>
       <use xlink:href="#Georgia-2212" transform="translate(105.188164 34.232813) scale(0.7)"/>
       <use xlink:href="#Georgia-31" transform="translate(150.202812 34.232813) scale(0.7)"/>
      </g>
     </g>
    </g>
    <g id="ytick_10">
     <g id="line2d_41">
      <g>
       <use xlink:href="#meef173d3e5" x="747.008156" y="66.777554" style="stroke: #000000; stroke-width: 0.8"/>
      </g>
     </g>
     <g id="text_28">
      <!-- $\mathdefault{10^{0}}$ -->
      <g transform="translate(715.848156 72.825054) scale(0.16 -0.16)">
       <use xlink:href="#Georgia-31" transform="translate(0 0.534375)"/>
       <use xlink:href="#Georgia-30" transform="translate(42.96875 0.534375)"/>
       <use xlink:href="#Georgia-30" transform="translate(105.188164 34.232813) scale(0.7)"/>
      </g>
     </g>
    </g>
    <g id="ytick_11">
     <g id="line2d_42">
      <defs>
       <path id="m4dc2a2a1af" d="M 0 0 
L -2 0 
" style="stroke: #000000; stroke-width: 0.6"/>
      </defs>
      <g>
       <use xlink:href="#m4dc2a2a1af" x="747.008156" y="497.638214" style="stroke: #000000; stroke-width: 0.6"/>
      </g>
     </g>
    </g>
    <g id="ytick_12">
     <g id="line2d_43">
      <g>
       <use xlink:href="#m4dc2a2a1af" x="747.008156" y="481.491953" style="stroke: #000000; stroke-width: 0.6"/>
      </g>
     </g>
    </g>
    <g id="ytick_13">
     <g id="line2d_44">
      <g>
       <use xlink:href="#m4dc2a2a1af" x="747.008156" y="470.035998" style="stroke: #000000; stroke-width: 0.6"/>
      </g>
     </g>
    </g>
    <g id="ytick_14">
     <g id="line2d_45">
      <g>
       <use xlink:href="#m4dc2a2a1af" x="747.008156" y="461.15007" style="stroke: #000000; stroke-width: 0.6"/>
      </g>
     </g>
    </g>
    <g id="ytick_15">
     <g id="line2d_46">
      <g>
       <use xlink:href="#m4dc2a2a1af" x="747.008156" y="453.889737" style="stroke: #000000; stroke-width: 0.6"/>
      </g>
     </g>
    </g>
    <g id="ytick_16">
     <g id="line2d_47">
      <g>
       <use xlink:href="#m4dc2a2a1af" x="747.008156" y="447.751214" style="stroke: #000000; stroke-width: 0.6"/>
      </g>
     </g>
    </g>
    <g id="ytick_17">
     <g id="line2d_48">
      <g>
       <use xlink:href="#m4dc2a2a1af" x="747.008156" y="442.433783" style="stroke: #000000; stroke-width: 0.6"/>
      </g>
     </g>
    </g>
    <g id="ytick_18">
     <g id="line2d_49">
      <g>
       <use xlink:href="#m4dc2a2a1af" x="747.008156" y="437.743476" style="stroke: #000000; stroke-width: 0.6"/>
      </g>
     </g>
    </g>
    <g id="ytick_19">
     <g id="line2d_50">
      <g>
       <use xlink:href="#m4dc2a2a1af" x="747.008156" y="405.945639" style="stroke: #000000; stroke-width: 0.6"/>
      </g>
     </g>
    </g>
    <g id="ytick_20">
     <g id="line2d_51">
      <g>
       <use xlink:href="#m4dc2a2a1af" x="747.008156" y="389.799378" style="stroke: #000000; stroke-width: 0.6"/>
      </g>
     </g>
    </g>
    <g id="ytick_21">
     <g id="line2d_52">
      <g>
       <use xlink:href="#m4dc2a2a1af" x="747.008156" y="378.343423" style="stroke: #000000; stroke-width: 0.6"/>
      </g>
     </g>
    </g>
    <g id="ytick_22">
     <g id="line2d_53">
      <g>
       <use xlink:href="#m4dc2a2a1af" x="747.008156" y="369.457495" style="stroke: #000000; stroke-width: 0.6"/>
      </g>
     </g>
    </g>
    <g id="ytick_23">
     <g id="line2d_54">
      <g>
       <use xlink:href="#m4dc2a2a1af" x="747.008156" y="362.197162" style="stroke: #000000; stroke-width: 0.6"/>
      </g>
     </g>
    </g>
    <g id="ytick_24">
     <g id="line2d_55">
      <g>
       <use xlink:href="#m4dc2a2a1af" x="747.008156" y="356.058639" style="stroke: #000000; stroke-width: 0.6"/>
      </g>
     </g>
    </g>
    <g id="ytick_25">
     <g id="line2d_56">
      <g>
       <use xlink:href="#m4dc2a2a1af" x="747.008156" y="350.741208" style="stroke: #000000; stroke-width: 0.6"/>
      </g>
     </g>
    </g>
    <g id="ytick_26">
     <g id="line2d_57">
      <g>
       <use xlink:href="#m4dc2a2a1af" x="747.008156" y="346.050901" style="stroke: #000000; stroke-width: 0.6"/>
      </g>
     </g>
    </g>
    <g id="ytick_27">
     <g id="line2d_58">
      <g>
       <use xlink:href="#m4dc2a2a1af" x="747.008156" y="314.253064" style="stroke: #000000; stroke-width: 0.6"/>
      </g>
     </g>
    </g>
    <g id="ytick_28">
     <g id="line2d_59">
      <g>
       <use xlink:href="#m4dc2a2a1af" x="747.008156" y="298.106803" style="stroke: #000000; stroke-width: 0.6"/>
      </g>
     </g>
    </g>
    <g id="ytick_29">
     <g id="line2d_60">
      <g>
       <use xlink:href="#m4dc2a2a1af" x="747.008156" y="286.650848" style="stroke: #000000; stroke-width: 0.6"/>
      </g>
     </g>
    </g>
    <g id="ytick_30">
     <g id="line2d_61">
      <g>
       <use xlink:href="#m4dc2a2a1af" x="747.008156" y="277.76492" style="stroke: #000000; stroke-width: 0.6"/>
      </g>
     </g>
    </g>
    <g id="ytick_31">
     <g id="line2d_62">
      <g>
       <use xlink:href="#m4dc2a2a1af" x="747.008156" y="270.504587" style="stroke: #000000; stroke-width: 0.6"/>
      </g>
     </g>
    </g>
    <g id="ytick_32">
     <g id="line2d_63">
      <g>
       <use xlink:href="#m4dc2a2a1af" x="747.008156" y="264.366064" style="stroke: #000000; stroke-width: 0.6"/>
      </g>
     </g>
    </g>
    <g id="ytick_33">
     <g id="line2d_64">
      <g>
       <use xlink:href="#m4dc2a2a1af" x="747.008156" y="259.048633" style="stroke: #000000; stroke-width: 0.6"/>
      </g>
     </g>
    </g>
    <g id="ytick_34">
     <g id="line2d_65">
      <g>
       <use xlink:href="#m4dc2a2a1af" x="747.008156" y="254.358326" style="stroke: #000000; stroke-width: 0.6"/>
      </g>
     </g>
    </g>
    <g id="ytick_35">
     <g id="line2d_66">
      <g>
       <use xlink:href="#m4dc2a2a1af" x="747.008156" y="222.560489" style="stroke: #000000; stroke-width: 0.6"/>
      </g>
     </g>
    </g>
    <g id="ytick_36">
     <g id="line2d_67">
      <g>
       <use xlink:href="#m4dc2a2a1af" x="747.008156" y="206.414228" style="stroke: #000000; stroke-width: 0.6"/>
      </g>
     </g>
    </g>
    <g id="ytick_37">
     <g id="line2d_68">
      <g>
       <use xlink:href="#m4dc2a2a1af" x="747.008156" y="194.958273" style="stroke: #000000; stroke-width: 0.6"/>
      </g>
     </g>
    </g>
    <g id="ytick_38">
     <g id="line2d_69">
      <g>
       <use xlink:href="#m4dc2a2a1af" x="747.008156" y="186.072345" style="stroke: #000000; stroke-width: 0.6"/>
      </g>
     </g>
    </g>
    <g id="ytick_39">
     <g id="line2d_70">
      <g>
       <use xlink:href="#m4dc2a2a1af" x="747.008156" y="178.812012" style="stroke: #000000; stroke-width: 0.6"/>
      </g>
     </g>
    </g>
    <g id="ytick_40">
     <g id="line2d_71">
      <g>
       <use xlink:href="#m4dc2a2a1af" x="747.008156" y="172.673489" style="stroke: #000000; stroke-width: 0.6"/>
      </g>
     </g>
    </g>
    <g id="ytick_41">
     <g id="line2d_72">
      <g>
       <use xlink:href="#m4dc2a2a1af" x="747.008156" y="167.356058" style="stroke: #000000; stroke-width: 0.6"/>
      </g>
     </g>
    </g>
    <g id="ytick_42">
     <g id="line2d_73">
      <g>
       <use xlink:href="#m4dc2a2a1af" x="747.008156" y="162.665751" style="stroke: #000000; stroke-width: 0.6"/>
      </g>
     </g>
    </g>
    <g id="ytick_43">
     <g id="line2d_74">
      <g>
       <use xlink:href="#m4dc2a2a1af" x="747.008156" y="130.867914" style="stroke: #000000; stroke-width: 0.6"/>
      </g>
     </g>
    </g>
    <g id="ytick_44">
     <g id="line2d_75">
      <g>
       <use xlink:href="#m4dc2a2a1af" x="747.008156" y="114.721653" style="stroke: #000000; stroke-width: 0.6"/>
      </g>
     </g>
    </g>
    <g id="ytick_45">
     <g id="line2d_76">
      <g>
       <use xlink:href="#m4dc2a2a1af" x="747.008156" y="103.265698" style="stroke: #000000; stroke-width: 0.6"/>
      </g>
     </g>
    </g>
    <g id="ytick_46">
     <g id="line2d_77">
      <g>
       <use xlink:href="#m4dc2a2a1af" x="747.008156" y="94.379769" style="stroke: #000000; stroke-width: 0.6"/>
      </g>
     </g>
    </g>
    <g id="ytick_47">
     <g id="line2d_78">
      <g>
       <use xlink:href="#m4dc2a2a1af" x="747.008156" y="87.119437" style="stroke: #000000; stroke-width: 0.6"/>
      </g>
     </g>
    </g>
    <g id="ytick_48">
     <g id="line2d_79">
      <g>
       <use xlink:href="#m4dc2a2a1af" x="747.008156" y="80.980914" style="stroke: #000000; stroke-width: 0.6"/>
      </g>
     </g>
    </g>
    <g id="ytick_49">
     <g id="line2d_80">
      <g>
       <use xlink:href="#m4dc2a2a1af" x="747.008156" y="75.663483" style="stroke: #000000; stroke-width: 0.6"/>
      </g>
     </g>
    </g>
    <g id="ytick_50">
     <g id="line2d_81">
      <g>
       <use xlink:href="#m4dc2a2a1af" x="747.008156" y="70.973176" style="stroke: #000000; stroke-width: 0.6"/>
      </g>
     </g>
    </g>
    <g id="ytick_51">
     <g id="line2d_82">
      <g>
       <use xlink:href="#m4dc2a2a1af" x="747.008156" y="39.175339" style="stroke: #000000; stroke-width: 0.6"/>
      </g>
     </g>
    </g>
    <g id="ytick_52">
     <g id="line2d_83">
      <g>
       <use xlink:href="#m4dc2a2a1af" x="747.008156" y="23.029078" style="stroke: #000000; stroke-width: 0.6"/>
      </g>
     </g>
    </g>
    <g id="ytick_53">
     <g id="line2d_84">
      <g>
       <use xlink:href="#m4dc2a2a1af" x="747.008156" y="11.573123" style="stroke: #000000; stroke-width: 0.6"/>
      </g>
     </g>
    </g>
    <g id="text_29">
     <!-- $|y-y_{exact}|$ -->
     <g transform="translate(700.328156 311.94) rotate(-90) scale(0.2 -0.2)">
      <defs>
       <path id="DejaVuSans-7c" d="M 1344 4891 
L 1344 -1509 
L 813 -1509 
L 813 4891 
L 1344 4891 
z
" transform="scale(0.015625)"/>
       <path id="DejaVuSans-2212" d="M 678 2272 
L 4684 2272 
L 4684 1741 
L 678 1741 
L 678 2272 
z
" transform="scale(0.015625)"/>
       <path id="DejaVuSans-Oblique-65" d="M 3078 2063 
Q 3088 2113 3092 2166 
Q 3097 2219 3097 2272 
Q 3097 2653 2873 2875 
Q 2650 3097 2266 3097 
Q 1838 3097 1509 2826 
Q 1181 2556 1013 2059 
L 3078 2063 
z
M 3578 1613 
L 903 1613 
Q 884 1494 878 1425 
Q 872 1356 872 1306 
Q 872 872 1139 634 
Q 1406 397 1894 397 
Q 2269 397 2603 481 
Q 2938 566 3225 728 
L 3116 159 
Q 2806 34 2476 -28 
Q 2147 -91 1806 -91 
Q 1078 -91 686 257 
Q 294 606 294 1247 
Q 294 1794 489 2264 
Q 684 2734 1063 3103 
Q 1306 3334 1642 3459 
Q 1978 3584 2356 3584 
Q 2950 3584 3301 3228 
Q 3653 2872 3653 2272 
Q 3653 2128 3634 1964 
Q 3616 1800 3578 1613 
z
" transform="scale(0.015625)"/>
       <path id="DejaVuSans-Oblique-61" d="M 3438 1997 
L 3047 0 
L 2472 0 
L 2578 531 
Q 2325 219 2001 64 
Q 1678 -91 1281 -91 
Q 834 -91 548 182 
Q 263 456 263 884 
Q 263 1497 752 1853 
Q 1241 2209 2100 2209 
L 2900 2209 
L 2931 2363 
Q 2938 2388 2941 2417 
Q 2944 2447 2944 2509 
Q 2944 2788 2717 2942 
Q 2491 3097 2081 3097 
Q 1800 3097 1504 3025 
Q 1209 2953 897 2809 
L 997 3341 
Q 1322 3463 1633 3523 
Q 1944 3584 2234 3584 
Q 2853 3584 3176 3315 
Q 3500 3047 3500 2534 
Q 3500 2431 3484 2292 
Q 3469 2153 3438 1997 
z
M 2816 1759 
L 2241 1759 
Q 1534 1759 1195 1570 
Q 856 1381 856 984 
Q 856 709 1029 553 
Q 1203 397 1509 397 
Q 1978 397 2328 733 
Q 2678 1069 2791 1631 
L 2816 1759 
z
" transform="scale(0.015625)"/>
       <path id="DejaVuSans-Oblique-63" d="M 3431 3366 
L 3316 2797 
Q 3109 2947 2876 3022 
Q 2644 3097 2394 3097 
Q 2119 3097 1870 3000 
Q 1622 2903 1453 2725 
Q 1184 2453 1037 2087 
Q 891 1722 891 1331 
Q 891 859 1127 628 
Q 1363 397 1844 397 
Q 2081 397 2348 469 
Q 2616 541 2906 684 
L 2797 116 
Q 2547 13 2283 -39 
Q 2019 -91 1741 -91 
Q 1044 -91 669 257 
Q 294 606 294 1253 
Q 294 1797 489 2255 
Q 684 2713 1069 3078 
Q 1331 3328 1684 3456 
Q 2038 3584 2456 3584 
Q 2700 3584 2940 3529 
Q 3181 3475 3431 3366 
z
" transform="scale(0.015625)"/>
       <path id="DejaVuSans-Oblique-74" d="M 2706 3500 
L 2619 3053 
L 1472 3053 
L 1100 1153 
Q 1081 1047 1072 975 
Q 1063 903 1063 863 
Q 1063 663 1183 572 
Q 1303 481 1569 481 
L 2150 481 
L 2053 0 
L 1503 0 
Q 991 0 739 200 
Q 488 400 488 806 
Q 488 878 497 964 
Q 506 1050 525 1153 
L 897 3053 
L 409 3053 
L 500 3500 
L 978 3500 
L 1172 4494 
L 1747 4494 
L 1556 3500 
L 2706 3500 
z
" transform="scale(0.015625)"/>
      </defs>
      <use xlink:href="#DejaVuSans-7c" transform="translate(0 0.578125)"/>
      <use xlink:href="#DejaVuSans-Oblique-79" transform="translate(33.691406 0.578125)"/>
      <use xlink:href="#DejaVuSans-2212" transform="translate(112.353516 0.578125)"/>
      <use xlink:href="#DejaVuSans-Oblique-79" transform="translate(215.625 0.578125)"/>
      <use xlink:href="#DejaVuSans-Oblique-65" transform="translate(274.804688 -15.828125) scale(0.7)"/>
      <use xlink:href="#DejaVuSans-Oblique-78" transform="translate(317.871094 -15.828125) scale(0.7)"/>
      <use xlink:href="#DejaVuSans-Oblique-61" transform="translate(359.296875 -15.828125) scale(0.7)"/>
      <use xlink:href="#DejaVuSans-Oblique-63" transform="translate(402.192383 -15.828125) scale(0.7)"/>
      <use xlink:href="#DejaVuSans-Oblique-74" transform="translate(440.678711 -15.828125) scale(0.7)"/>
      <use xlink:href="#DejaVuSans-7c" transform="translate(470.859375 0.578125)"/>
     </g>
    </g>
   </g>
   <g id="line2d_85">
    <path d="M 758.216137 492.567273 
L 760.480376 178.436485 
L 762.744615 218.914112 
L 765.008854 199.717252 
L 767.273092 159.364562 
L 769.537331 184.773958 
L 771.80157 247.421149 
L 774.065808 200.214589 
L 776.330047 191.382169 
L 778.594286 217.029338 
L 780.858524 371.90471 
L 783.122763 181.687448 
L 785.387002 293.970189 
L 787.651241 214.650249 
L 789.915479 195.562148 
L 792.179718 210.469629 
L 794.443957 203.887517 
L 796.708195 235.406663 
L 798.972434 187.033796 
L 801.236673 226.423667 
L 803.500911 230.650014 
L 805.76515 186.407038 
L 808.029389 251.859637 
L 810.293627 199.996964 
L 812.557866 205.118206 
L 814.822105 196.214467 
L 817.086344 201.066876 
L 819.350582 338.961452 
L 821.614821 182.275238 
L 823.87906 243.992493 
L 826.143298 203.902694 
L 828.407537 187.30316 
L 830.671776 216.734553 
L 832.936014 189.054088 
L 835.200253 223.219916 
L 837.464492 183.112945 
L 839.728731 199.807637 
L 841.992969 224.329584 
L 844.257208 175.884366 
L 846.521447 268.965588 
L 848.785685 181.387017 
L 851.049924 183.123934 
L 853.314163 191.547147 
L 855.578401 167.232516 
L 857.84264 365.757307 
L 860.106879 162.454224 
L 862.371118 171.361769 
L 864.635356 158.806638 
L 866.899595 147.486047 
L 869.163834 179.102283 
L 871.428072 178.8112 
L 873.692311 146.963976 
L 875.95655 159.377778 
L 878.220788 169.988051 
L 880.485027 163.875544 
L 882.749266 309.813717 
L 885.013504 170.134167 
L 887.277743 192.986309 
L 889.541982 189.217759 
L 891.806221 180.219435 
L 894.070459 384.366794 
L 896.334698 173.427871 
L 898.598937 218.822802 
L 900.863175 196.755836 
L 903.127414 182.387627 
L 905.391653 221.095909 
L 907.655891 188.544721 
L 909.92013 217.146246 
L 912.184369 186.993364 
L 914.448608 203.768455 
L 916.712846 243.430238 
L 918.977085 182.128665 
L 921.241324 338.699865 
L 923.505562 200.874065 
L 925.769801 196.102818 
L 928.03404 205.021978 
L 930.298278 199.844848 
L 932.562517 251.78904 
L 934.826756 186.325146 
L 937.090995 230.464839 
L 939.355233 226.33678 
L 941.619472 186.960608 
L 943.883711 235.467621 
L 946.147949 203.807186 
L 948.412188 210.380761 
L 950.676427 195.543408 
L 952.940665 214.542452 
L 955.204904 293.660736 
L 957.469143 181.657025 
L 959.733381 376.56644 
L 961.99762 217.02105 
L 964.261859 191.335602 
L 966.526098 200.249165 
L 968.790336 247.31614 
L 971.054575 184.737729 
L 973.318814 159.367298 
L 975.583052 199.763873 
L 977.847291 218.848423 
L 980.11153 178.424946 
L 982.375768 492.567273 
" clip-path="url(#p49ebcbfe2c)" style="fill: none; stroke: #a80000; stroke-width: 3; stroke-linecap: square"/>
   </g>
   <g id="line2d_86">
    <path d="M 758.653949 30.312727 
L 760.405196 61.132624 
L 762.156443 97.067038 
L 763.032067 118.461092 
L 763.907691 144.225884 
L 764.783314 179.694007 
L 765.658938 267.19646 
L 766.534561 215.931758 
L 767.410185 195.854089 
L 768.285808 190.094479 
L 769.161432 189.74087 
L 770.037055 192.234955 
L 770.912679 196.413523 
L 772.663926 207.310885 
L 774.415173 218.852032 
L 776.16642 228.686696 
L 777.042044 232.553388 
L 777.917668 235.638782 
L 778.793291 238.007818 
L 779.668915 239.833861 
L 780.544538 241.170433 
L 781.420162 242.227432 
L 782.295785 243.081299 
L 789.300774 248.539337 
L 793.678892 251.59814 
L 802.435127 256.155901 
L 803.310751 256.475087 
L 805.061998 257.355596 
L 805.937621 257.667499 
L 806.813245 258.164411 
L 808.564492 258.881091 
L 809.440116 259.284969 
L 810.315739 259.48473 
L 811.191363 260.00943 
L 812.94261 260.62303 
L 813.818233 261.045274 
L 814.693857 261.205157 
L 815.569481 261.683322 
L 820.823222 263.531296 
L 821.698845 263.58979 
L 822.574469 264.132006 
L 823.450093 264.288694 
L 825.20134 264.967945 
L 826.076963 264.922138 
L 826.952587 265.508266 
L 828.703834 265.873722 
L 829.579457 266.394215 
L 830.455081 266.380871 
L 831.330705 266.921278 
L 832.206328 267.250419 
L 833.081952 267.24639 
L 833.957575 268.002824 
L 834.833199 268.093856 
L 836.584446 269.161524 
L 837.46007 268.961031 
L 838.335693 270.137564 
L 839.211317 270.483157 
L 840.08694 270.971174 
L 840.962564 272.046167 
L 841.838187 272.110817 
L 842.713811 273.615419 
L 843.589434 274.543816 
L 844.465058 275.103057 
L 845.340682 277.228 
L 846.216305 277.921956 
L 847.967552 282.342619 
L 848.843176 283.054654 
L 849.718799 287.716982 
L 850.594423 290.224044 
L 851.470046 294.501283 
L 852.34567 301.49314 
L 853.221294 305.247658 
L 854.096917 321.551044 
L 854.972541 340.547824 
L 855.848164 381.838912 
L 856.723788 352.687084 
L 858.475035 303.993761 
L 859.350658 293.41145 
L 860.226282 294.569677 
L 861.101906 293.516926 
L 861.977529 342.268179 
L 863.728776 245.627332 
L 864.6044 211.153839 
L 866.355647 165.672706 
L 868.106894 128.771617 
L 868.982518 111.566858 
L 869.858141 197.477275 
L 871.609388 117.192472 
L 873.360635 152.408042 
L 874.236259 172.333493 
L 875.987506 219.556294 
L 876.86313 258.044092 
L 877.738753 324.569414 
L 878.614377 317.089595 
L 879.49 289.056003 
L 880.365624 292.886295 
L 881.241247 293.209966 
L 882.116871 304.461264 
L 884.743742 380.962952 
L 885.619365 340.815479 
L 886.494989 321.96657 
L 887.370612 305.604247 
L 888.246236 301.824131 
L 889.121859 294.742959 
L 889.997483 290.386414 
L 890.873107 287.809366 
L 891.74873 283.084147 
L 892.624354 282.326325 
L 894.375601 277.853697 
L 895.251224 277.148834 
L 896.126848 275.024406 
L 897.002471 274.468912 
L 897.878095 273.54919 
L 898.753719 272.056341 
L 899.629342 272.002257 
L 900.504966 270.938687 
L 901.380589 270.460439 
L 902.256213 270.123067 
L 903.131836 268.953255 
L 904.00746 269.158482 
L 905.758707 268.096102 
L 906.634331 268.006058 
L 907.509954 267.249823 
L 908.385578 267.25364 
L 909.261201 266.924002 
L 910.136825 266.383002 
L 911.012448 266.395814 
L 911.888072 265.874871 
L 913.639319 265.508928 
L 914.514943 264.922726 
L 915.390566 264.968542 
L 917.141813 264.289381 
L 918.017437 264.132724 
L 918.89306 263.590496 
L 919.768684 263.531959 
L 925.898049 261.205186 
L 926.773672 261.045304 
L 928.52492 260.301344 
L 929.400543 260.009602 
L 930.276167 259.484958 
L 931.15179 259.285239 
L 943.41052 253.546542 
L 946.913014 251.598328 
L 949.539885 249.855651 
L 959.171744 242.227976 
L 960.047368 241.169991 
L 960.922991 239.832189 
L 961.798615 238.004958 
L 962.674238 235.635194 
L 963.549862 232.550024 
L 964.425485 228.684893 
L 965.301109 224.103685 
L 967.052356 213.179029 
L 968.803603 201.60168 
L 969.679227 196.423239 
L 970.55485 192.231674 
L 971.430474 189.708639 
L 972.306098 190.000579 
L 973.181721 195.613059 
L 974.057345 215.153879 
L 974.932968 272.732318 
L 975.808592 180.693907 
L 976.684215 144.900394 
L 977.559839 119.0245 
L 979.311086 78.727039 
L 981.062333 45.666683 
L 981.937957 30.771089 
L 981.937957 30.771089 
" clip-path="url(#p49ebcbfe2c)" style="fill: none; stroke: #1f77b4; stroke-width: 3; stroke-linecap: square"/>
   </g>
   <g id="patch_9">
    <path d="M 747.008156 515.68 
L 747.008156 7.2 
" style="fill: none; stroke: #000000; stroke-width: 1.5; stroke-linejoin: miter; stroke-linecap: square"/>
   </g>
   <g id="patch_10">
    <path d="M 993.58375 515.68 
L 993.58375 7.2 
" style="fill: none; stroke: #000000; stroke-width: 1.5; stroke-linejoin: miter; stroke-linecap: square"/>
   </g>
   <g id="patch_11">
    <path d="M 747.008156 515.68 
L 993.58375 515.68 
" style="fill: none; stroke: #000000; stroke-width: 1.5; stroke-linejoin: miter; stroke-linecap: square"/>
   </g>
   <g id="patch_12">
    <path d="M 747.008156 7.2 
L 993.58375 7.2 
" style="fill: none; stroke: #000000; stroke-width: 1.5; stroke-linejoin: miter; stroke-linecap: square"/>
   </g>
   <g id="legend_2">
    <g id="patch_13">
     <path d="M 823.042047 510.68 
L 917.549859 510.68 
Q 919.549859 510.68 919.549859 508.68 
L 919.549859 480.22375 
Q 919.549859 478.22375 917.549859 478.22375 
L 823.042047 478.22375 
Q 821.042047 478.22375 821.042047 480.22375 
L 821.042047 508.68 
Q 821.042047 510.68 823.042047 510.68 
z
" style="fill: #ffffff; opacity: 0.8; stroke: #cccccc; stroke-linejoin: miter"/>
    </g>
    <g id="line2d_87">
     <path d="M 825.042047 486.283125 
L 835.042047 486.283125 
L 845.042047 486.283125 
" style="fill: none; stroke: #a80000; stroke-width: 3; stroke-linecap: square"/>
    </g>
    <g id="text_30">
     <!-- 256, t=1.3 -->
     <g transform="translate(853.042047 489.783125) scale(0.1 -0.1)">
      <use xlink:href="#Georgia-32"/>
      <use xlink:href="#Georgia-35" x="55.859375"/>
      <use xlink:href="#Georgia-36" x="108.691406"/>
      <use xlink:href="#Georgia-2c" x="165.283203"/>
      <use xlink:href="#Georgia-20" x="192.236328"/>
      <use xlink:href="#Georgia-74" x="216.357422"/>
      <use xlink:href="#Georgia-3d" x="250.878906"/>
      <use xlink:href="#Georgia-31" x="315.185547"/>
      <use xlink:href="#Georgia-2e" x="358.154297"/>
      <use xlink:href="#Georgia-33" x="385.107422"/>
     </g>
    </g>
    <g id="line2d_88">
     <path d="M 825.042047 501.01125 
L 835.042047 501.01125 
L 845.042047 501.01125 
" style="fill: none; stroke: #1f77b4; stroke-width: 3; stroke-linecap: square"/>
    </g>
    <g id="text_31">
     <!-- 256, t=1.3,ggb -->
     <g transform="translate(853.042047 504.51125) scale(0.1 -0.1)">
      <use xlink:href="#Georgia-32"/>
      <use xlink:href="#Georgia-35" x="55.859375"/>
      <use xlink:href="#Georgia-36" x="108.691406"/>
      <use xlink:href="#Georgia-2c" x="165.283203"/>
      <use xlink:href="#Georgia-20" x="192.236328"/>
      <use xlink:href="#Georgia-74" x="216.357422"/>
      <use xlink:href="#Georgia-3d" x="250.878906"/>
      <use xlink:href="#Georgia-31" x="315.185547"/>
      <use xlink:href="#Georgia-2e" x="358.154297"/>
      <use xlink:href="#Georgia-33" x="385.107422"/>
      <use xlink:href="#Georgia-2c" x="440.283203"/>
      <use xlink:href="#Georgia-67" x="467.236328"/>
      <use xlink:href="#Georgia-67" x="518.164062"/>
      <use xlink:href="#Georgia-62" x="569.091797"/>
     </g>
    </g>
   </g>
  </g>
 </g>
 <defs>
  <clipPath id="p774a399211">
   <rect x="56.88375" y="7.2" width="616.438985" height="508.48"/>
  </clipPath>
  <clipPath id="p49ebcbfe2c">
   <rect x="747.008156" y="7.2" width="246.575594" height="508.48"/>
  </clipPath>
 </defs>
</svg>
