<?xml version="1.0" encoding="utf-8" standalone="no"?>
<!DOCTYPE svg PUBLIC "-//W3C//DTD SVG 1.1//EN"
  "http://www.w3.org/Graphics/SVG/1.1/DTD/svg11.dtd">
<svg xmlns:xlink="http://www.w3.org/1999/xlink" width="1000.80625pt" height="568.90125pt" viewBox="0 0 1000.80625 568.90125" xmlns="http://www.w3.org/2000/svg" version="1.1">
 <metadata>
  <rdf:RDF xmlns:dc="http://purl.org/dc/elements/1.1/" xmlns:cc="http://creativecommons.org/ns#" xmlns:rdf="http://www.w3.org/1999/02/22-rdf-syntax-ns#">
   <cc:Work>
    <dc:type rdf:resource="http://purl.org/dc/dcmitype/StillImage"/>
    <dc:date>2023-11-29T02:25:57.975403</dc:date>
    <dc:format>image/svg+xml</dc:format>
    <dc:creator>
     <cc:Agent>
      <dc:title>Matplotlib v3.6.2, https://matplotlib.org/</dc:title>
     </cc:Agent>
    </dc:creator>
   </cc:Work>
  </rdf:RDF>
 </metadata>
 <defs>
  <style type="text/css">*{stroke-linejoin: round; stroke-linecap: butt}</style>
 </defs>
 <g id="figure_1">
  <g id="patch_1">
   <path d="M 0 568.90125 
L 1000.80625 568.90125 
L 1000.80625 0 
L 0 0 
L 0 568.90125 
z
" style="fill: none"/>
  </g>
  <g id="axes_1">
   <g id="patch_2">
    <path d="M 80.35125 515.68 
L 676.799097 515.68 
L 676.799097 7.2 
L 80.35125 7.2 
L 80.35125 515.68 
z
" style="fill: none"/>
   </g>
   <g id="matplotlib.axis_1">
    <g id="xtick_1">
     <g id="line2d_1">
      <path d="M 107.462516 515.68 
L 107.462516 7.2 
" clip-path="url(#p12de6834d8)" style="fill: none; stroke: #b0b0b0; stroke-width: 0.8; stroke-linecap: square"/>
     </g>
     <g id="line2d_2">
      <defs>
       <path id="ma0c3a7b3e3" d="M 0 0 
L 0 3.5 
" style="stroke: #000000; stroke-width: 0.8"/>
      </defs>
      <g>
       <use xlink:href="#ma0c3a7b3e3" x="107.462516" y="515.68" style="stroke: #000000; stroke-width: 0.8"/>
      </g>
     </g>
     <g id="text_1">
      <!-- 0 -->
      <g transform="translate(102.552516 534.775) scale(0.16 -0.16)">
       <defs>
        <path id="Georgia-30" d="M 3209 2919 
Q 3409 2678 3507 2354 
Q 3606 2031 3606 1678 
Q 3606 1253 3484 917 
Q 3363 581 3150 359 
Q 2931 131 2631 15 
Q 2331 -100 1963 -100 
Q 1559 -100 1243 34 
Q 928 169 731 403 
Q 525 647 423 973 
Q 322 1300 322 1678 
Q 322 2050 420 2362 
Q 519 2675 728 2928 
Q 928 3172 1243 3312 
Q 1559 3453 1966 3453 
Q 2394 3453 2700 3309 
Q 3006 3166 3209 2919 
z
M 2916 1678 
Q 2916 2422 2661 2831 
Q 2406 3241 1969 3241 
Q 1525 3241 1269 2831 
Q 1013 2422 1013 1678 
Q 1013 972 1258 542 
Q 1503 113 1963 113 
Q 2422 113 2669 542 
Q 2916 972 2916 1678 
z
" transform="scale(0.015625)"/>
       </defs>
       <use xlink:href="#Georgia-30"/>
      </g>
     </g>
    </g>
    <g id="xtick_2">
     <g id="line2d_3">
      <path d="M 193.760355 515.68 
L 193.760355 7.2 
" clip-path="url(#p12de6834d8)" style="fill: none; stroke: #b0b0b0; stroke-width: 0.8; stroke-linecap: square"/>
     </g>
     <g id="line2d_4">
      <g>
       <use xlink:href="#ma0c3a7b3e3" x="193.760355" y="515.68" style="stroke: #000000; stroke-width: 0.8"/>
      </g>
     </g>
     <g id="text_2">
      <!-- 1 -->
      <g transform="translate(190.322855 534.775) scale(0.16 -0.16)">
       <defs>
        <path id="Georgia-31" d="M 2528 0 
L 422 0 
L 422 222 
Q 516 228 714 248 
Q 913 269 988 291 
Q 1084 322 1136 392 
Q 1188 463 1188 603 
L 1188 2797 
L 409 2797 
L 409 3059 
L 581 3059 
Q 919 3059 1186 3184 
Q 1453 3309 1569 3453 
L 1828 3453 
Q 1819 3250 1809 2978 
Q 1800 2706 1800 2491 
L 1800 638 
Q 1800 528 1848 442 
Q 1897 356 1988 316 
Q 2069 281 2253 253 
Q 2438 225 2528 222 
L 2528 0 
z
" transform="scale(0.015625)"/>
       </defs>
       <use xlink:href="#Georgia-31"/>
      </g>
     </g>
    </g>
    <g id="xtick_3">
     <g id="line2d_5">
      <path d="M 280.058194 515.68 
L 280.058194 7.2 
" clip-path="url(#p12de6834d8)" style="fill: none; stroke: #b0b0b0; stroke-width: 0.8; stroke-linecap: square"/>
     </g>
     <g id="line2d_6">
      <g>
       <use xlink:href="#ma0c3a7b3e3" x="280.058194" y="515.68" style="stroke: #000000; stroke-width: 0.8"/>
      </g>
     </g>
     <g id="text_3">
      <!-- 2 -->
      <g transform="translate(275.589444 534.775) scale(0.16 -0.16)">
       <defs>
        <path id="Georgia-32" d="M 3272 0 
L 344 0 
L 344 425 
Q 428 522 578 642 
Q 728 763 934 903 
Q 1059 988 1234 1088 
Q 1409 1188 1631 1306 
Q 1878 1438 2011 1538 
Q 2144 1638 2253 1784 
Q 2325 1881 2369 2026 
Q 2413 2172 2413 2441 
Q 2413 2831 2203 3014 
Q 1994 3197 1666 3197 
Q 1463 3197 1281 3117 
Q 1100 3038 1009 2897 
Q 1031 2797 1064 2659 
Q 1097 2522 1097 2391 
Q 1097 2272 998 2180 
Q 900 2088 706 2088 
Q 550 2088 465 2195 
Q 381 2303 381 2484 
Q 381 2653 475 2823 
Q 569 2994 744 3138 
Q 916 3278 1169 3365 
Q 1422 3453 1716 3453 
Q 2356 3453 2732 3167 
Q 3109 2881 3109 2403 
Q 3109 2175 3042 1987 
Q 2975 1800 2825 1656 
Q 2659 1497 2437 1383 
Q 2216 1269 1759 1066 
Q 1488 944 1253 811 
Q 1019 678 869 553 
L 3272 553 
L 3272 0 
z
" transform="scale(0.015625)"/>
       </defs>
       <use xlink:href="#Georgia-32"/>
      </g>
     </g>
    </g>
    <g id="xtick_4">
     <g id="line2d_7">
      <path d="M 366.356033 515.68 
L 366.356033 7.2 
" clip-path="url(#p12de6834d8)" style="fill: none; stroke: #b0b0b0; stroke-width: 0.8; stroke-linecap: square"/>
     </g>
     <g id="line2d_8">
      <g>
       <use xlink:href="#ma0c3a7b3e3" x="366.356033" y="515.68" style="stroke: #000000; stroke-width: 0.8"/>
      </g>
     </g>
     <g id="text_4">
      <!-- 3 -->
      <g transform="translate(361.942283 534.775) scale(0.16 -0.16)">
       <defs>
        <path id="Georgia-33" d="M 1522 -1141 
Q 1228 -1141 984 -1067 
Q 741 -994 566 -869 
Q 391 -744 295 -581 
Q 200 -419 200 -247 
Q 200 -94 275 29 
Q 350 153 516 153 
Q 703 153 801 61 
Q 900 -31 900 -150 
Q 900 -250 867 -403 
Q 834 -556 816 -622 
Q 838 -650 895 -697 
Q 953 -744 1038 -781 
Q 1138 -828 1247 -856 
Q 1356 -884 1556 -884 
Q 1744 -884 1917 -821 
Q 2091 -759 2222 -622 
Q 2359 -478 2436 -286 
Q 2513 -94 2513 219 
Q 2513 388 2477 553 
Q 2441 719 2344 841 
Q 2247 963 2080 1030 
Q 1913 1097 1656 1097 
L 1247 1097 
L 1247 1456 
L 1519 1456 
Q 1950 1456 2140 1693 
Q 2331 1931 2331 2409 
Q 2331 2800 2147 2998 
Q 1963 3197 1625 3197 
Q 1463 3197 1358 3158 
Q 1253 3119 1188 3081 
Q 1109 3038 1059 2984 
Q 1009 2931 984 2906 
Q 1006 2806 1037 2661 
Q 1069 2516 1069 2384 
Q 1069 2269 970 2176 
Q 872 2084 681 2084 
Q 516 2084 439 2203 
Q 363 2322 363 2478 
Q 363 2641 453 2809 
Q 544 2978 722 3125 
Q 900 3272 1156 3362 
Q 1413 3453 1747 3453 
Q 2131 3453 2382 3339 
Q 2634 3225 2778 3063 
Q 2919 2903 2972 2728 
Q 3025 2553 3025 2428 
Q 3025 2272 2981 2114 
Q 2938 1956 2838 1822 
Q 2728 1675 2548 1554 
Q 2369 1434 2097 1359 
L 2097 1309 
Q 2272 1294 2470 1231 
Q 2669 1169 2828 1047 
Q 2994 919 3100 717 
Q 3206 516 3206 206 
Q 3206 -394 2725 -767 
Q 2244 -1141 1522 -1141 
z
" transform="scale(0.015625)"/>
       </defs>
       <use xlink:href="#Georgia-33"/>
      </g>
     </g>
    </g>
    <g id="xtick_5">
     <g id="line2d_9">
      <path d="M 452.653872 515.68 
L 452.653872 7.2 
" clip-path="url(#p12de6834d8)" style="fill: none; stroke: #b0b0b0; stroke-width: 0.8; stroke-linecap: square"/>
     </g>
     <g id="line2d_10">
      <g>
       <use xlink:href="#ma0c3a7b3e3" x="452.653872" y="515.68" style="stroke: #000000; stroke-width: 0.8"/>
      </g>
     </g>
     <g id="text_5">
      <!-- 4 -->
      <g transform="translate(448.133872 534.775) scale(0.16 -0.16)">
       <defs>
        <path id="Georgia-34" d="M 3388 281 
L 2753 281 
L 2753 -1141 
L 2153 -1141 
L 2153 281 
L 153 281 
L 153 763 
L 2344 3434 
L 2753 3434 
L 2753 691 
L 3388 691 
L 3388 281 
z
M 2153 691 
L 2153 2738 
L 466 691 
L 2153 691 
z
" transform="scale(0.015625)"/>
       </defs>
       <use xlink:href="#Georgia-34"/>
      </g>
     </g>
    </g>
    <g id="xtick_6">
     <g id="line2d_11">
      <path d="M 538.951712 515.68 
L 538.951712 7.2 
" clip-path="url(#p12de6834d8)" style="fill: none; stroke: #b0b0b0; stroke-width: 0.8; stroke-linecap: square"/>
     </g>
     <g id="line2d_12">
      <g>
       <use xlink:href="#ma0c3a7b3e3" x="538.951712" y="515.68" style="stroke: #000000; stroke-width: 0.8"/>
      </g>
     </g>
     <g id="text_6">
      <!-- 5 -->
      <g transform="translate(534.725462 534.775) scale(0.16 -0.16)">
       <defs>
        <path id="Georgia-35" d="M 2634 1466 
Q 2841 1303 2977 1047 
Q 3113 791 3113 406 
Q 3113 -266 2653 -703 
Q 2194 -1141 1488 -1141 
Q 941 -1141 562 -881 
Q 184 -622 184 -278 
Q 184 -119 262 0 
Q 341 119 503 119 
Q 691 119 789 20 
Q 888 -78 888 -194 
Q 888 -294 853 -444 
Q 819 -594 800 -666 
Q 825 -688 881 -725 
Q 938 -763 1016 -797 
Q 1097 -831 1214 -857 
Q 1331 -884 1488 -884 
Q 1688 -884 1866 -803 
Q 2044 -722 2166 -563 
Q 2300 -388 2367 -164 
Q 2434 59 2434 403 
Q 2434 844 2189 1133 
Q 1944 1422 1544 1422 
Q 1294 1422 1076 1328 
Q 859 1234 688 1016 
L 478 1097 
L 744 3353 
L 2981 3353 
L 2981 2797 
L 997 2797 
L 834 1472 
Q 975 1572 1204 1670 
Q 1434 1769 1709 1769 
Q 1938 1769 2183 1698 
Q 2428 1628 2634 1466 
z
" transform="scale(0.015625)"/>
       </defs>
       <use xlink:href="#Georgia-35"/>
      </g>
     </g>
    </g>
    <g id="xtick_7">
     <g id="line2d_13">
      <path d="M 625.249551 515.68 
L 625.249551 7.2 
" clip-path="url(#p12de6834d8)" style="fill: none; stroke: #b0b0b0; stroke-width: 0.8; stroke-linecap: square"/>
     </g>
     <g id="line2d_14">
      <g>
       <use xlink:href="#ma0c3a7b3e3" x="625.249551" y="515.68" style="stroke: #000000; stroke-width: 0.8"/>
      </g>
     </g>
     <g id="text_7">
      <!-- 6 -->
      <g transform="translate(620.722051 534.775) scale(0.16 -0.16)">
       <defs>
        <path id="Georgia-36" d="M 3359 1441 
Q 3359 1116 3242 831 
Q 3125 547 2928 347 
Q 2700 119 2423 9 
Q 2147 -100 1847 -100 
Q 1500 -100 1219 28 
Q 938 156 741 391 
Q 541 628 431 972 
Q 322 1316 322 1744 
Q 322 2859 986 3625 
Q 1650 4391 2766 4544 
L 2822 4263 
L 2541 4213 
Q 1863 3994 1492 3531 
Q 1122 3069 1013 2409 
Q 1281 2644 1543 2741 
Q 1806 2838 2097 2838 
Q 2619 2838 2989 2438 
Q 3359 2038 3359 1441 
z
M 2681 1356 
Q 2681 1863 2448 2169 
Q 2216 2475 1825 2475 
Q 1591 2475 1389 2387 
Q 1188 2300 1000 2094 
Q 997 2056 990 1920 
Q 984 1784 984 1706 
Q 984 975 1223 561 
Q 1463 147 1853 147 
Q 2225 147 2453 470 
Q 2681 794 2681 1356 
z
" transform="scale(0.015625)"/>
       </defs>
       <use xlink:href="#Georgia-36"/>
      </g>
     </g>
    </g>
    <g id="text_8">
     <!-- $x$ -->
     <g transform="translate(372.575173 557.36375) scale(0.2 -0.2)">
      <defs>
       <path id="DejaVuSans-Oblique-78" d="M 3841 3500 
L 2234 1784 
L 3219 0 
L 2559 0 
L 1819 1388 
L 531 0 
L -166 0 
L 1556 1844 
L 641 3500 
L 1300 3500 
L 1972 2234 
L 3144 3500 
L 3841 3500 
z
" transform="scale(0.015625)"/>
      </defs>
      <use xlink:href="#DejaVuSans-Oblique-78" transform="translate(0 0.3125)"/>
     </g>
    </g>
   </g>
   <g id="matplotlib.axis_2">
    <g id="ytick_1">
     <g id="line2d_15">
      <path d="M 80.35125 492.567558 
L 676.799097 492.567558 
" clip-path="url(#p12de6834d8)" style="fill: none; stroke: #b0b0b0; stroke-width: 0.8; stroke-linecap: square"/>
     </g>
     <g id="line2d_16">
      <defs>
       <path id="m251a423384" d="M 0 0 
L -3.5 0 
" style="stroke: #000000; stroke-width: 0.8"/>
      </defs>
      <g>
       <use xlink:href="#m251a423384" x="80.35125" y="492.567558" style="stroke: #000000; stroke-width: 0.8"/>
      </g>
     </g>
     <g id="text_9">
      <!-- −1.00 -->
      <g transform="translate(32.23375 498.615058) scale(0.16 -0.16)">
       <defs>
        <path id="Georgia-2212" d="M 3650 1553 
L 466 1553 
L 466 1944 
L 3650 1944 
L 3650 1553 
z
" transform="scale(0.015625)"/>
        <path id="Georgia-2e" d="M 1297 359 
Q 1297 184 1170 60 
Q 1044 -63 869 -63 
Q 694 -63 567 60 
Q 441 184 441 359 
Q 441 534 567 661 
Q 694 788 869 788 
Q 1044 788 1170 661 
Q 1297 534 1297 359 
z
" transform="scale(0.015625)"/>
       </defs>
       <use xlink:href="#Georgia-2212"/>
       <use xlink:href="#Georgia-31" x="64.306641"/>
       <use xlink:href="#Georgia-2e" x="107.275391"/>
       <use xlink:href="#Georgia-30" x="134.228516"/>
       <use xlink:href="#Georgia-30" x="195.605469"/>
      </g>
     </g>
    </g>
    <g id="ytick_2">
     <g id="line2d_17">
      <path d="M 80.35125 434.785669 
L 676.799097 434.785669 
" clip-path="url(#p12de6834d8)" style="fill: none; stroke: #b0b0b0; stroke-width: 0.8; stroke-linecap: square"/>
     </g>
     <g id="line2d_18">
      <g>
       <use xlink:href="#m251a423384" x="80.35125" y="434.785669" style="stroke: #000000; stroke-width: 0.8"/>
      </g>
     </g>
     <g id="text_10">
      <!-- −0.75 -->
      <g transform="translate(32.43625 440.833169) scale(0.16 -0.16)">
       <defs>
        <path id="Georgia-37" d="M 3216 3150 
L 988 -1141 
L 597 -1141 
L 2694 2828 
L 1466 2828 
Q 1194 2828 1041 2822 
Q 888 2816 759 2763 
Q 663 2722 586 2555 
Q 509 2388 469 2128 
L 278 2128 
L 278 3353 
L 3216 3353 
L 3216 3150 
z
" transform="scale(0.015625)"/>
       </defs>
       <use xlink:href="#Georgia-2212"/>
       <use xlink:href="#Georgia-30" x="64.306641"/>
       <use xlink:href="#Georgia-2e" x="125.683594"/>
       <use xlink:href="#Georgia-37" x="152.636719"/>
       <use xlink:href="#Georgia-35" x="202.880859"/>
      </g>
     </g>
    </g>
    <g id="ytick_3">
     <g id="line2d_19">
      <path d="M 80.35125 377.003779 
L 676.799097 377.003779 
" clip-path="url(#p12de6834d8)" style="fill: none; stroke: #b0b0b0; stroke-width: 0.8; stroke-linecap: square"/>
     </g>
     <g id="line2d_20">
      <g>
       <use xlink:href="#m251a423384" x="80.35125" y="377.003779" style="stroke: #000000; stroke-width: 0.8"/>
      </g>
     </g>
     <g id="text_11">
      <!-- −0.50 -->
      <g transform="translate(30.65625 383.051279) scale(0.16 -0.16)">
       <use xlink:href="#Georgia-2212"/>
       <use xlink:href="#Georgia-30" x="64.306641"/>
       <use xlink:href="#Georgia-2e" x="125.683594"/>
       <use xlink:href="#Georgia-35" x="152.636719"/>
       <use xlink:href="#Georgia-30" x="205.46875"/>
      </g>
     </g>
    </g>
    <g id="ytick_4">
     <g id="line2d_21">
      <path d="M 80.35125 319.22189 
L 676.799097 319.22189 
" clip-path="url(#p12de6834d8)" style="fill: none; stroke: #b0b0b0; stroke-width: 0.8; stroke-linecap: square"/>
     </g>
     <g id="line2d_22">
      <g>
       <use xlink:href="#m251a423384" x="80.35125" y="319.22189" style="stroke: #000000; stroke-width: 0.8"/>
      </g>
     </g>
     <g id="text_12">
      <!-- −0.25 -->
      <g transform="translate(31.53875 325.26939) scale(0.16 -0.16)">
       <use xlink:href="#Georgia-2212"/>
       <use xlink:href="#Georgia-30" x="64.306641"/>
       <use xlink:href="#Georgia-2e" x="125.683594"/>
       <use xlink:href="#Georgia-32" x="152.636719"/>
       <use xlink:href="#Georgia-35" x="208.496094"/>
      </g>
     </g>
    </g>
    <g id="ytick_5">
     <g id="line2d_23">
      <path d="M 80.35125 261.44 
L 676.799097 261.44 
" clip-path="url(#p12de6834d8)" style="fill: none; stroke: #b0b0b0; stroke-width: 0.8; stroke-linecap: square"/>
     </g>
     <g id="line2d_24">
      <g>
       <use xlink:href="#m251a423384" x="80.35125" y="261.44" style="stroke: #000000; stroke-width: 0.8"/>
      </g>
     </g>
     <g id="text_13">
      <!-- 0.00 -->
      <g transform="translate(39.57875 267.4875) scale(0.16 -0.16)">
       <use xlink:href="#Georgia-30"/>
       <use xlink:href="#Georgia-2e" x="61.376953"/>
       <use xlink:href="#Georgia-30" x="88.330078"/>
       <use xlink:href="#Georgia-30" x="149.707031"/>
      </g>
     </g>
    </g>
    <g id="ytick_6">
     <g id="line2d_25">
      <path d="M 80.35125 203.65811 
L 676.799097 203.65811 
" clip-path="url(#p12de6834d8)" style="fill: none; stroke: #b0b0b0; stroke-width: 0.8; stroke-linecap: square"/>
     </g>
     <g id="line2d_26">
      <g>
       <use xlink:href="#m251a423384" x="80.35125" y="203.65811" style="stroke: #000000; stroke-width: 0.8"/>
      </g>
     </g>
     <g id="text_14">
      <!-- 0.25 -->
      <g transform="translate(41.82875 209.70561) scale(0.16 -0.16)">
       <use xlink:href="#Georgia-30"/>
       <use xlink:href="#Georgia-2e" x="61.376953"/>
       <use xlink:href="#Georgia-32" x="88.330078"/>
       <use xlink:href="#Georgia-35" x="144.189453"/>
      </g>
     </g>
    </g>
    <g id="ytick_7">
     <g id="line2d_27">
      <path d="M 80.35125 145.876221 
L 676.799097 145.876221 
" clip-path="url(#p12de6834d8)" style="fill: none; stroke: #b0b0b0; stroke-width: 0.8; stroke-linecap: square"/>
     </g>
     <g id="line2d_28">
      <g>
       <use xlink:href="#m251a423384" x="80.35125" y="145.876221" style="stroke: #000000; stroke-width: 0.8"/>
      </g>
     </g>
     <g id="text_15">
      <!-- 0.50 -->
      <g transform="translate(40.94625 151.923721) scale(0.16 -0.16)">
       <use xlink:href="#Georgia-30"/>
       <use xlink:href="#Georgia-2e" x="61.376953"/>
       <use xlink:href="#Georgia-35" x="88.330078"/>
       <use xlink:href="#Georgia-30" x="141.162109"/>
      </g>
     </g>
    </g>
    <g id="ytick_8">
     <g id="line2d_29">
      <path d="M 80.35125 88.094331 
L 676.799097 88.094331 
" clip-path="url(#p12de6834d8)" style="fill: none; stroke: #b0b0b0; stroke-width: 0.8; stroke-linecap: square"/>
     </g>
     <g id="line2d_30">
      <g>
       <use xlink:href="#m251a423384" x="80.35125" y="88.094331" style="stroke: #000000; stroke-width: 0.8"/>
      </g>
     </g>
     <g id="text_16">
      <!-- 0.75 -->
      <g transform="translate(42.72625 94.141831) scale(0.16 -0.16)">
       <use xlink:href="#Georgia-30"/>
       <use xlink:href="#Georgia-2e" x="61.376953"/>
       <use xlink:href="#Georgia-37" x="88.330078"/>
       <use xlink:href="#Georgia-35" x="138.574219"/>
      </g>
     </g>
    </g>
    <g id="ytick_9">
     <g id="line2d_31">
      <path d="M 80.35125 30.312442 
L 676.799097 30.312442 
" clip-path="url(#p12de6834d8)" style="fill: none; stroke: #b0b0b0; stroke-width: 0.8; stroke-linecap: square"/>
     </g>
     <g id="line2d_32">
      <g>
       <use xlink:href="#m251a423384" x="80.35125" y="30.312442" style="stroke: #000000; stroke-width: 0.8"/>
      </g>
     </g>
     <g id="text_17">
      <!-- 1.00 -->
      <g transform="translate(42.52375 36.359942) scale(0.16 -0.16)">
       <use xlink:href="#Georgia-31"/>
       <use xlink:href="#Georgia-2e" x="42.96875"/>
       <use xlink:href="#Georgia-30" x="69.921875"/>
       <use xlink:href="#Georgia-30" x="131.298828"/>
      </g>
     </g>
    </g>
    <g id="text_18">
     <!-- $y$ -->
     <g transform="translate(22.31875 267.44) rotate(-90) scale(0.2 -0.2)">
      <defs>
       <path id="DejaVuSans-Oblique-79" d="M 1588 -325 
Q 1188 -997 936 -1164 
Q 684 -1331 294 -1331 
L -159 -1331 
L -63 -850 
L 269 -850 
Q 509 -850 678 -719 
Q 847 -588 1056 -206 
L 1234 128 
L 459 3500 
L 1069 3500 
L 1650 819 
L 3256 3500 
L 3859 3500 
L 1588 -325 
z
" transform="scale(0.015625)"/>
      </defs>
      <use xlink:href="#DejaVuSans-Oblique-79" transform="translate(0 0.3125)"/>
     </g>
    </g>
   </g>
   <g id="line2d_33">
    <path d="M 107.462516 261.44 
L 124.831094 215.23594 
L 134.058152 191.332321 
L 141.656905 172.236421 
L 148.71289 155.120321 
L 154.683339 141.187865 
L 160.653788 127.830761 
L 166.081469 116.241046 
L 170.966381 106.299967 
L 175.851294 96.855849 
L 180.193439 88.902772 
L 184.535584 81.386412 
L 188.877728 74.325794 
L 192.677105 68.535682 
L 196.476481 63.11942 
L 200.275858 58.087503 
L 204.075235 53.449685 
L 207.331843 49.794916 
L 210.588452 46.441509 
L 213.84506 43.394239 
L 217.101669 40.657444 
L 220.358277 38.235021 
L 223.614886 36.13042 
L 226.328726 34.621542 
L 229.042566 33.336955 
L 231.756407 32.277929 
L 234.470247 31.445511 
L 237.184088 30.840524 
L 239.897928 30.463567 
L 242.611768 30.315013 
L 245.325609 30.395008 
L 248.039449 30.703473 
L 250.75329 31.240103 
L 253.46713 32.004368 
L 256.180971 32.995511 
L 258.894811 34.212553 
L 261.608651 35.65429 
L 264.322492 37.319297 
L 267.5791 39.609688 
L 270.835709 42.215942 
L 274.092317 45.13435 
L 277.348926 48.360756 
L 280.605534 51.890565 
L 283.862143 55.718752 
L 287.661519 60.554791 
L 291.460896 65.780146 
L 295.260273 71.384691 
L 299.059649 77.357564 
L 303.401794 84.619837 
L 307.743938 92.329668 
L 312.086083 100.467542 
L 316.970996 110.108607 
L 321.855909 120.234433 
L 327.283589 132.014395 
L 332.71127 144.306163 
L 338.681719 158.360177 
L 345.194936 174.251921 
L 352.793689 193.413184 
L 361.477979 215.948332 
L 372.876108 246.187547 
L 397.84344 312.617612 
L 406.52773 335.001827 
L 414.126483 353.985015 
L 420.6397 369.691027 
L 426.610149 383.548893 
L 432.03783 395.641663 
L 437.46551 407.203739 
L 442.350423 417.11803 
L 447.235336 426.533638 
L 451.577481 434.459998 
L 455.919625 441.94842 
L 460.26177 448.979949 
L 464.061146 454.74372 
L 467.860523 460.132869 
L 471.6599 465.13695 
L 475.459276 469.746265 
L 478.715885 473.376113 
L 481.972493 476.704185 
L 485.229102 479.725743 
L 488.48571 482.436483 
L 491.742319 484.832546 
L 494.998927 486.91052 
L 497.712768 488.397033 
L 500.426608 489.659117 
L 503.140448 490.695526 
L 505.854289 491.505234 
L 508.568129 492.087441 
L 511.28197 492.44157 
L 513.99581 492.567273 
L 516.709651 492.464424 
L 519.423491 492.133125 
L 522.137331 491.573703 
L 524.851172 490.786713 
L 527.565012 489.772932 
L 530.278853 488.533363 
L 532.992693 487.069231 
L 535.706533 485.381984 
L 538.963142 483.065141 
L 542.21975 480.432725 
L 545.476359 477.488486 
L 548.732967 474.236615 
L 551.989576 470.681743 
L 555.246184 466.828932 
L 559.045561 461.964765 
L 562.844938 456.71198 
L 566.644314 451.080757 
L 570.443691 445.08201 
L 574.785835 437.791213 
L 579.12798 430.054047 
L 583.470125 421.890093 
L 588.355038 412.221272 
L 593.23995 402.069452 
L 598.667631 390.262776 
L 604.63808 376.688908 
L 610.608529 362.563625 
L 617.121746 346.604818 
L 624.720499 327.379899 
L 633.404788 304.791823 
L 645.345686 273.064461 
L 649.687831 261.44 
L 649.687831 261.44 
" clip-path="url(#p12de6834d8)" style="fill: none; stroke: #000000; stroke-linecap: square"/>
   </g>
   <g id="line2d_34">
    <defs>
     <path id="mfb878eb2f7" d="M 0 0.4 
C 0.106081 0.4 0.207832 0.357853 0.282843 0.282843 
C 0.357853 0.207832 0.4 0.106081 0.4 0 
C 0.4 -0.106081 0.357853 -0.207832 0.282843 -0.282843 
C 0.207832 -0.357853 0.106081 -0.4 0 -0.4 
C -0.106081 -0.4 -0.207832 -0.357853 -0.282843 -0.282843 
C -0.357853 -0.207832 -0.4 -0.106081 -0.4 0 
C -0.4 0.106081 -0.357853 0.207832 -0.282843 0.282843 
C -0.207832 0.357853 -0.106081 0.4 0 0.4 
z
" style="stroke: #000000"/>
    </defs>
    <g clip-path="url(#p12de6834d8)">
     <use xlink:href="#mfb878eb2f7" x="107.462516" y="261.44" style="stroke: #000000"/>
     <use xlink:href="#mfb878eb2f7" x="112.939539" y="252.5141" style="stroke: #000000"/>
     <use xlink:href="#mfb878eb2f7" x="118.416563" y="246.048958" style="stroke: #000000"/>
     <use xlink:href="#mfb878eb2f7" x="123.893586" y="239.68274" style="stroke: #000000"/>
     <use xlink:href="#mfb878eb2f7" x="129.370609" y="233.343522" style="stroke: #000000"/>
     <use xlink:href="#mfb878eb2f7" x="134.847633" y="227.020265" style="stroke: #000000"/>
     <use xlink:href="#mfb878eb2f7" x="140.324656" y="220.711761" style="stroke: #000000"/>
     <use xlink:href="#mfb878eb2f7" x="145.801679" y="214.41904" style="stroke: #000000"/>
     <use xlink:href="#mfb878eb2f7" x="151.278703" y="208.143774" style="stroke: #000000"/>
     <use xlink:href="#mfb878eb2f7" x="156.755726" y="201.887868" style="stroke: #000000"/>
     <use xlink:href="#mfb878eb2f7" x="162.23275" y="195.65336" style="stroke: #000000"/>
     <use xlink:href="#mfb878eb2f7" x="167.709773" y="189.442385" style="stroke: #000000"/>
     <use xlink:href="#mfb878eb2f7" x="173.186796" y="183.257188" style="stroke: #000000"/>
     <use xlink:href="#mfb878eb2f7" x="178.66382" y="177.100121" style="stroke: #000000"/>
     <use xlink:href="#mfb878eb2f7" x="184.140843" y="170.973663" style="stroke: #000000"/>
     <use xlink:href="#mfb878eb2f7" x="189.617867" y="164.880432" style="stroke: #000000"/>
     <use xlink:href="#mfb878eb2f7" x="195.09489" y="158.823203" style="stroke: #000000"/>
     <use xlink:href="#mfb878eb2f7" x="200.571913" y="152.804928" style="stroke: #000000"/>
     <use xlink:href="#mfb878eb2f7" x="206.048937" y="146.828758" style="stroke: #000000"/>
     <use xlink:href="#mfb878eb2f7" x="211.52596" y="140.898067" style="stroke: #000000"/>
     <use xlink:href="#mfb878eb2f7" x="217.002983" y="135.016482" style="stroke: #000000"/>
     <use xlink:href="#mfb878eb2f7" x="222.480007" y="129.187916" style="stroke: #000000"/>
     <use xlink:href="#mfb878eb2f7" x="227.95703" y="123.416607" style="stroke: #000000"/>
     <use xlink:href="#mfb878eb2f7" x="233.434054" y="117.707163" style="stroke: #000000"/>
     <use xlink:href="#mfb878eb2f7" x="238.911077" y="112.064614" style="stroke: #000000"/>
     <use xlink:href="#mfb878eb2f7" x="244.3881" y="106.494472" style="stroke: #000000"/>
     <use xlink:href="#mfb878eb2f7" x="249.865124" y="101.002808" style="stroke: #000000"/>
     <use xlink:href="#mfb878eb2f7" x="255.342147" y="95.596338" style="stroke: #000000"/>
     <use xlink:href="#mfb878eb2f7" x="260.819171" y="90.282528" style="stroke: #000000"/>
     <use xlink:href="#mfb878eb2f7" x="266.296194" y="85.06972" style="stroke: #000000"/>
     <use xlink:href="#mfb878eb2f7" x="271.773217" y="79.967293" style="stroke: #000000"/>
     <use xlink:href="#mfb878eb2f7" x="277.250241" y="74.985849" style="stroke: #000000"/>
     <use xlink:href="#mfb878eb2f7" x="282.727264" y="70.137459" style="stroke: #000000"/>
     <use xlink:href="#mfb878eb2f7" x="288.204287" y="65.435962" style="stroke: #000000"/>
     <use xlink:href="#mfb878eb2f7" x="293.681311" y="60.897356" style="stroke: #000000"/>
     <use xlink:href="#mfb878eb2f7" x="299.158334" y="56.540291" style="stroke: #000000"/>
     <use xlink:href="#mfb878eb2f7" x="304.635358" y="52.386733" style="stroke: #000000"/>
     <use xlink:href="#mfb878eb2f7" x="310.112381" y="48.46284" style="stroke: #000000"/>
     <use xlink:href="#mfb878eb2f7" x="315.589404" y="44.800163" style="stroke: #000000"/>
     <use xlink:href="#mfb878eb2f7" x="321.066428" y="41.437317" style="stroke: #000000"/>
     <use xlink:href="#mfb878eb2f7" x="326.543451" y="38.422379" style="stroke: #000000"/>
     <use xlink:href="#mfb878eb2f7" x="332.020475" y="35.816431" style="stroke: #000000"/>
     <use xlink:href="#mfb878eb2f7" x="337.497498" y="33.698994" style="stroke: #000000"/>
     <use xlink:href="#mfb878eb2f7" x="342.974521" y="32.176748" style="stroke: #000000"/>
     <use xlink:href="#mfb878eb2f7" x="348.451545" y="31.398341" style="stroke: #000000"/>
     <use xlink:href="#mfb878eb2f7" x="353.928568" y="31.581436" style="stroke: #000000"/>
     <use xlink:href="#mfb878eb2f7" x="359.405591" y="33.067121" style="stroke: #000000"/>
     <use xlink:href="#mfb878eb2f7" x="364.882615" y="36.445351" style="stroke: #000000"/>
     <use xlink:href="#mfb878eb2f7" x="370.359638" y="42.909174" style="stroke: #000000"/>
     <use xlink:href="#mfb878eb2f7" x="375.836662" y="55.637057" style="stroke: #000000"/>
     <use xlink:href="#mfb878eb2f7" x="381.313685" y="467.242943" style="stroke: #000000"/>
     <use xlink:href="#mfb878eb2f7" x="386.790708" y="479.970826" style="stroke: #000000"/>
     <use xlink:href="#mfb878eb2f7" x="392.267732" y="486.434649" style="stroke: #000000"/>
     <use xlink:href="#mfb878eb2f7" x="397.744755" y="489.812879" style="stroke: #000000"/>
     <use xlink:href="#mfb878eb2f7" x="403.221779" y="491.298564" style="stroke: #000000"/>
     <use xlink:href="#mfb878eb2f7" x="408.698802" y="491.481659" style="stroke: #000000"/>
     <use xlink:href="#mfb878eb2f7" x="414.175825" y="490.703252" style="stroke: #000000"/>
     <use xlink:href="#mfb878eb2f7" x="419.652849" y="489.181006" style="stroke: #000000"/>
     <use xlink:href="#mfb878eb2f7" x="425.129872" y="487.063569" style="stroke: #000000"/>
     <use xlink:href="#mfb878eb2f7" x="430.606895" y="484.457621" style="stroke: #000000"/>
     <use xlink:href="#mfb878eb2f7" x="436.083919" y="481.442683" style="stroke: #000000"/>
     <use xlink:href="#mfb878eb2f7" x="441.560942" y="478.079837" style="stroke: #000000"/>
     <use xlink:href="#mfb878eb2f7" x="447.037966" y="474.41716" style="stroke: #000000"/>
     <use xlink:href="#mfb878eb2f7" x="452.514989" y="470.493267" style="stroke: #000000"/>
     <use xlink:href="#mfb878eb2f7" x="457.992012" y="466.339709" style="stroke: #000000"/>
     <use xlink:href="#mfb878eb2f7" x="463.469036" y="461.982644" style="stroke: #000000"/>
     <use xlink:href="#mfb878eb2f7" x="468.946059" y="457.444038" style="stroke: #000000"/>
     <use xlink:href="#mfb878eb2f7" x="474.423083" y="452.742541" style="stroke: #000000"/>
     <use xlink:href="#mfb878eb2f7" x="479.900106" y="447.894151" style="stroke: #000000"/>
     <use xlink:href="#mfb878eb2f7" x="485.377129" y="442.912707" style="stroke: #000000"/>
     <use xlink:href="#mfb878eb2f7" x="490.854153" y="437.81028" style="stroke: #000000"/>
     <use xlink:href="#mfb878eb2f7" x="496.331176" y="432.597472" style="stroke: #000000"/>
     <use xlink:href="#mfb878eb2f7" x="501.8082" y="427.283662" style="stroke: #000000"/>
     <use xlink:href="#mfb878eb2f7" x="507.285223" y="421.877192" style="stroke: #000000"/>
     <use xlink:href="#mfb878eb2f7" x="512.762246" y="416.385528" style="stroke: #000000"/>
     <use xlink:href="#mfb878eb2f7" x="518.23927" y="410.815386" style="stroke: #000000"/>
     <use xlink:href="#mfb878eb2f7" x="523.716293" y="405.172837" style="stroke: #000000"/>
     <use xlink:href="#mfb878eb2f7" x="529.193316" y="399.463393" style="stroke: #000000"/>
     <use xlink:href="#mfb878eb2f7" x="534.67034" y="393.692084" style="stroke: #000000"/>
     <use xlink:href="#mfb878eb2f7" x="540.147363" y="387.863518" style="stroke: #000000"/>
     <use xlink:href="#mfb878eb2f7" x="545.624387" y="381.981933" style="stroke: #000000"/>
     <use xlink:href="#mfb878eb2f7" x="551.10141" y="376.051242" style="stroke: #000000"/>
     <use xlink:href="#mfb878eb2f7" x="556.578433" y="370.075072" style="stroke: #000000"/>
     <use xlink:href="#mfb878eb2f7" x="562.055457" y="364.056797" style="stroke: #000000"/>
     <use xlink:href="#mfb878eb2f7" x="567.53248" y="357.999568" style="stroke: #000000"/>
     <use xlink:href="#mfb878eb2f7" x="573.009504" y="351.906337" style="stroke: #000000"/>
     <use xlink:href="#mfb878eb2f7" x="578.486527" y="345.779879" style="stroke: #000000"/>
     <use xlink:href="#mfb878eb2f7" x="583.96355" y="339.622812" style="stroke: #000000"/>
     <use xlink:href="#mfb878eb2f7" x="589.440574" y="333.437615" style="stroke: #000000"/>
     <use xlink:href="#mfb878eb2f7" x="594.917597" y="327.22664" style="stroke: #000000"/>
     <use xlink:href="#mfb878eb2f7" x="600.39462" y="320.992132" style="stroke: #000000"/>
     <use xlink:href="#mfb878eb2f7" x="605.871644" y="314.736226" style="stroke: #000000"/>
     <use xlink:href="#mfb878eb2f7" x="611.348667" y="308.46096" style="stroke: #000000"/>
     <use xlink:href="#mfb878eb2f7" x="616.825691" y="302.168239" style="stroke: #000000"/>
     <use xlink:href="#mfb878eb2f7" x="622.302714" y="295.859735" style="stroke: #000000"/>
     <use xlink:href="#mfb878eb2f7" x="627.779737" y="289.536478" style="stroke: #000000"/>
     <use xlink:href="#mfb878eb2f7" x="633.256761" y="283.19726" style="stroke: #000000"/>
     <use xlink:href="#mfb878eb2f7" x="638.733784" y="276.831042" style="stroke: #000000"/>
     <use xlink:href="#mfb878eb2f7" x="644.210808" y="270.3659" style="stroke: #000000"/>
     <use xlink:href="#mfb878eb2f7" x="649.687831" y="261.44" style="stroke: #000000"/>
    </g>
   </g>
   <g id="line2d_35">
    <path d="M 107.462516 261.44 
L 112.939539 253.283224 
L 118.416563 245.14996 
L 123.893586 237.029497 
L 129.370609 228.89301 
L 134.847633 220.800848 
L 140.324656 212.769853 
L 145.801679 204.714526 
L 151.278703 196.708527 
L 156.755726 188.818619 
L 162.23275 180.909915 
L 167.709773 173.042668 
L 173.186796 165.347128 
L 178.66382 157.65579 
L 184.140843 149.990509 
L 189.617867 142.548663 
L 195.09489 135.152608 
L 200.571913 127.76621 
L 206.048937 120.648862 
L 211.52596 113.63705 
L 217.002983 106.624119 
L 222.480007 99.920308 
L 227.95703 93.399304 
L 233.434054 86.878333 
L 238.911077 80.704414 
L 244.3881 74.808875 
L 249.865124 68.93284 
L 255.342147 63.44612 
L 260.819171 58.3557 
L 266.296194 53.330556 
L 271.773217 48.752006 
L 277.250241 44.720235 
L 282.727264 40.838553 
L 288.204287 37.494301 
L 293.681311 34.902216 
L 299.158334 32.608823 
L 304.635358 31.013577 
L 310.112381 30.480675 
L 315.589404 30.514877 
L 321.066428 31.56175 
L 326.543451 34.210481 
L 332.020475 37.965288 
L 337.497498 43.441046 
L 342.974521 51.669869 
L 348.451545 62.337316 
L 353.928568 76.764017 
L 359.405591 97.360306 
L 364.882615 125.230979 
L 370.359638 165.827023 
L 375.836662 226.006622 
L 381.313685 296.873378 
L 386.790708 357.052977 
L 392.267732 397.649021 
L 397.744755 425.519694 
L 403.221779 446.115983 
L 408.698802 460.542684 
L 414.175825 471.210131 
L 419.652849 479.438954 
L 425.129872 484.914712 
L 430.606895 488.669519 
L 436.083919 491.31825 
L 441.560942 492.365123 
L 447.037966 492.399325 
L 452.514989 491.866423 
L 457.992012 490.271177 
L 463.469036 487.977784 
L 468.946059 485.385699 
L 474.423083 482.041447 
L 479.900106 478.159765 
L 485.377129 474.127994 
L 490.854153 469.549444 
L 496.331176 464.5243 
L 501.8082 459.43388 
L 507.285223 453.94716 
L 512.762246 448.071125 
L 518.23927 442.175586 
L 523.716293 436.001667 
L 529.193316 429.480696 
L 534.67034 422.959692 
L 540.147363 416.255881 
L 545.624387 409.24295 
L 551.10141 402.231138 
L 556.578433 395.11379 
L 562.055457 387.727392 
L 567.53248 380.331337 
L 573.009504 372.889491 
L 578.486527 365.22421 
L 583.96355 357.532872 
L 589.440574 349.837332 
L 594.917597 341.970085 
L 600.39462 334.061381 
L 605.871644 326.171473 
L 611.348667 318.165474 
L 616.825691 310.110147 
L 622.302714 302.079152 
L 627.779737 293.98699 
L 633.256761 285.850503 
L 638.733784 277.73004 
L 644.210808 269.596776 
L 649.687831 261.44 
" clip-path="url(#p12de6834d8)" style="fill: none; stroke: #a80000; stroke-width: 3; stroke-linecap: square"/>
   </g>
   <g id="line2d_36">
    <path d="M 111.698651 269.266352 
L 120.170922 251.615276 
L 128.643192 235.342177 
L 137.115463 220.226118 
L 145.587733 206.069937 
L 154.060004 192.700256 
L 162.532274 179.967473 
L 171.004545 167.74577 
L 179.476815 155.933106 
L 187.949086 144.451219 
L 196.421357 133.245631 
L 204.893627 122.285639 
L 213.365898 111.564323 
L 221.838168 101.098542 
L 230.310439 90.928935 
L 238.782709 81.119919 
L 247.25498 71.759695 
L 255.72725 62.960239 
L 264.199521 54.85731 
L 272.671791 47.610445 
L 281.144062 41.402964 
L 289.616333 36.441962 
L 298.088603 32.958318 
L 306.560874 31.206689 
L 315.033144 31.465512 
L 323.505415 34.037004 
L 331.977685 39.247162 
L 340.449956 47.445762 
L 348.922226 59.006361 
L 357.394497 74.326295 
L 365.866768 93.826681 
L 374.339038 117.952414 
L 382.811309 404.927586 
L 391.283579 429.053319 
L 399.75585 448.553705 
L 408.22812 463.873639 
L 416.700391 475.434238 
L 425.172661 483.632838 
L 433.644932 488.842996 
L 442.117202 491.414488 
L 450.589473 491.673311 
L 459.061744 489.921682 
L 467.534014 486.438038 
L 476.006285 481.477036 
L 484.478555 475.269555 
L 492.950826 468.02269 
L 501.423096 459.919761 
L 509.895367 451.120305 
L 518.367637 441.760081 
L 526.839908 431.951065 
L 535.312178 421.781458 
L 543.784449 411.315677 
L 552.25672 400.594361 
L 560.72899 389.634369 
L 569.201261 378.428781 
L 577.673531 366.946894 
L 586.145802 355.13423 
L 594.618072 342.912527 
L 603.090343 330.179744 
L 611.562613 316.810063 
L 620.034884 302.653882 
L 628.507155 287.537823 
L 636.979425 271.264724 
L 645.451696 253.613648 
" clip-path="url(#p12de6834d8)" style="fill: none; stroke: #1f77b4; stroke-width: 3; stroke-linecap: square"/>
   </g>
   <g id="patch_3">
    <path d="M 80.35125 515.68 
L 80.35125 7.2 
" style="fill: none; stroke: #000000; stroke-width: 1.5; stroke-linejoin: miter; stroke-linecap: square"/>
   </g>
   <g id="patch_4">
    <path d="M 676.799097 515.68 
L 676.799097 7.2 
" style="fill: none; stroke: #000000; stroke-width: 1.5; stroke-linejoin: miter; stroke-linecap: square"/>
   </g>
   <g id="patch_5">
    <path d="M 80.35125 515.68 
L 676.799097 515.68 
" style="fill: none; stroke: #000000; stroke-width: 1.5; stroke-linejoin: miter; stroke-linecap: square"/>
   </g>
   <g id="patch_6">
    <path d="M 80.35125 7.2 
L 676.799097 7.2 
" style="fill: none; stroke: #000000; stroke-width: 1.5; stroke-linejoin: miter; stroke-linecap: square"/>
   </g>
   <g id="legend_1">
    <g id="patch_7">
     <path d="M 578.224097 74.1125 
L 669.799097 74.1125 
Q 671.799097 74.1125 671.799097 72.1125 
L 671.799097 14.2 
Q 671.799097 12.2 669.799097 12.2 
L 578.224097 12.2 
Q 576.224097 12.2 576.224097 14.2 
L 576.224097 72.1125 
Q 576.224097 74.1125 578.224097 74.1125 
z
" style="fill: #ffffff; opacity: 0.8; stroke: #cccccc; stroke-linejoin: miter"/>
    </g>
    <g id="line2d_37">
     <path d="M 580.224097 20.259375 
L 590.224097 20.259375 
L 600.224097 20.259375 
" style="fill: none; stroke: #000000; stroke-linecap: square"/>
    </g>
    <g id="text_19">
     <!-- Init -->
     <g transform="translate(608.224097 23.759375) scale(0.1 -0.1)">
      <defs>
       <path id="Georgia-49" d="M 2244 0 
L 247 0 
L 247 222 
Q 331 228 490 240 
Q 650 253 716 278 
Q 819 319 866 389 
Q 913 459 913 584 
L 913 3797 
Q 913 3906 878 3979 
Q 844 4053 716 4103 
Q 622 4141 480 4173 
Q 338 4206 247 4213 
L 247 4434 
L 2244 4434 
L 2244 4213 
Q 2147 4209 2012 4189 
Q 1878 4169 1778 4138 
Q 1659 4100 1618 4015 
Q 1578 3931 1578 3828 
L 1578 619 
Q 1578 516 1623 436 
Q 1669 356 1778 309 
Q 1844 284 1992 254 
Q 2141 225 2244 222 
L 2244 0 
z
" transform="scale(0.015625)"/>
       <path id="Georgia-6e" d="M 3628 0 
L 2119 0 
L 2119 206 
Q 2191 213 2277 219 
Q 2363 225 2419 244 
Q 2506 272 2548 342 
Q 2591 413 2591 525 
L 2591 2109 
Q 2591 2438 2436 2616 
Q 2281 2794 2059 2794 
Q 1894 2794 1756 2742 
Q 1619 2691 1513 2616 
Q 1409 2544 1348 2461 
Q 1288 2378 1259 2328 
L 1259 556 
Q 1259 450 1303 381 
Q 1347 313 1434 275 
Q 1500 244 1576 228 
Q 1653 213 1734 206 
L 1734 0 
L 225 0 
L 225 206 
Q 297 213 373 219 
Q 450 225 506 244 
Q 594 272 636 342 
Q 678 413 678 525 
L 678 2428 
Q 678 2534 633 2623 
Q 588 2713 506 2769 
Q 447 2806 365 2823 
Q 284 2841 191 2847 
L 191 3050 
L 1216 3119 
L 1259 3075 
L 1259 2641 
L 1275 2641 
Q 1350 2716 1462 2820 
Q 1575 2925 1675 2991 
Q 1791 3066 1950 3116 
Q 2109 3166 2309 3166 
Q 2753 3166 2967 2889 
Q 3181 2613 3181 2153 
L 3181 550 
Q 3181 441 3218 373 
Q 3256 306 3347 269 
Q 3422 238 3476 225 
Q 3531 213 3628 206 
L 3628 0 
z
" transform="scale(0.015625)"/>
       <path id="Georgia-69" d="M 1722 0 
L 231 0 
L 231 206 
Q 303 213 379 219 
Q 456 225 513 244 
Q 600 272 642 342 
Q 684 413 684 525 
L 684 2428 
Q 684 2528 639 2611 
Q 594 2694 513 2750 
Q 453 2788 340 2814 
Q 228 2841 134 2847 
L 134 3050 
L 1222 3119 
L 1266 3075 
L 1266 563 
Q 1266 453 1308 381 
Q 1350 309 1441 275 
Q 1509 247 1575 230 
Q 1641 213 1722 206 
L 1722 0 
z
M 1328 4334 
Q 1328 4156 1211 4023 
Q 1094 3891 922 3891 
Q 763 3891 645 4017 
Q 528 4144 528 4306 
Q 528 4478 645 4606 
Q 763 4734 922 4734 
Q 1100 4734 1214 4614 
Q 1328 4494 1328 4334 
z
" transform="scale(0.015625)"/>
       <path id="Georgia-74" d="M 2128 134 
Q 1925 50 1744 -8 
Q 1563 -66 1300 -66 
Q 913 -66 755 129 
Q 597 325 597 681 
L 597 2769 
L 41 2769 
L 41 3069 
L 609 3069 
L 609 4028 
L 1178 4028 
L 1178 3069 
L 2063 3069 
L 2063 2769 
L 1184 2769 
L 1184 1047 
Q 1184 853 1198 723 
Q 1213 594 1266 497 
Q 1316 406 1416 359 
Q 1516 313 1684 313 
Q 1763 313 1914 327 
Q 2066 341 2128 363 
L 2128 134 
z
" transform="scale(0.015625)"/>
      </defs>
      <use xlink:href="#Georgia-49"/>
      <use xlink:href="#Georgia-6e" x="38.964844"/>
      <use xlink:href="#Georgia-69" x="98.046875"/>
      <use xlink:href="#Georgia-74" x="127.34375"/>
     </g>
    </g>
    <g id="line2d_38">
     <g>
      <use xlink:href="#mfb878eb2f7" x="590.224097" y="34.9875" style="stroke: #000000"/>
     </g>
    </g>
    <g id="text_20">
     <!-- Exact -->
     <g transform="translate(608.224097 38.4875) scale(0.1 -0.1)">
      <defs>
       <path id="Georgia-45" d="M 4034 1306 
L 3950 0 
L 269 0 
L 269 222 
Q 363 228 519 248 
Q 675 269 722 291 
Q 822 338 861 413 
Q 900 488 900 603 
L 900 3791 
Q 900 3894 865 3973 
Q 831 4053 722 4103 
Q 638 4144 495 4175 
Q 353 4206 269 4213 
L 269 4434 
L 3700 4434 
L 3700 3366 
L 3466 3366 
Q 3403 3603 3195 3870 
Q 2988 4138 2800 4163 
Q 2703 4175 2568 4181 
Q 2434 4188 2263 4188 
L 1566 4188 
L 1566 2425 
L 2066 2425 
Q 2306 2425 2417 2470 
Q 2528 2516 2613 2622 
Q 2681 2713 2729 2864 
Q 2778 3016 2794 3150 
L 3028 3150 
L 3028 1416 
L 2794 1416 
Q 2781 1566 2726 1733 
Q 2672 1900 2613 1975 
Q 2516 2097 2392 2134 
Q 2269 2172 2066 2172 
L 1566 2172 
L 1566 841 
Q 1566 641 1594 525 
Q 1622 409 1703 350 
Q 1784 291 1925 273 
Q 2066 256 2325 256 
Q 2428 256 2597 256 
Q 2766 256 2881 269 
Q 3000 281 3126 314 
Q 3253 347 3306 403 
Q 3450 553 3608 858 
Q 3766 1163 3809 1306 
L 4034 1306 
z
" transform="scale(0.015625)"/>
       <path id="Georgia-78" d="M 3194 0 
L 1781 0 
L 1781 206 
Q 1922 222 2020 237 
Q 2119 253 2119 319 
Q 2119 347 2087 406 
Q 2056 466 2025 516 
Q 1947 638 1811 842 
Q 1675 1047 1478 1331 
Q 1316 1128 1178 936 
Q 1041 744 891 528 
Q 869 497 845 450 
Q 822 403 822 375 
Q 822 306 911 261 
Q 1000 216 1178 200 
L 1178 0 
L 38 0 
L 38 194 
Q 250 256 379 345 
Q 509 434 619 566 
Q 716 691 889 909 
Q 1063 1128 1338 1503 
Q 1178 1731 948 2061 
Q 719 2391 569 2609 
Q 488 2728 383 2801 
Q 278 2875 88 2875 
L 88 3081 
L 1428 3081 
L 1428 2875 
Q 1328 2875 1231 2862 
Q 1134 2850 1134 2806 
Q 1134 2778 1153 2743 
Q 1172 2709 1200 2669 
Q 1269 2563 1414 2341 
Q 1559 2119 1728 1872 
Q 1838 2022 1983 2222 
Q 2128 2422 2250 2603 
Q 2263 2625 2275 2658 
Q 2288 2691 2288 2722 
Q 2288 2788 2180 2827 
Q 2072 2866 1975 2881 
L 1975 3081 
L 3113 3081 
L 3113 2888 
Q 2872 2825 2737 2739 
Q 2603 2653 2509 2541 
Q 2406 2413 2264 2225 
Q 2122 2038 1866 1700 
Q 2150 1300 2328 1044 
Q 2506 788 2688 516 
Q 2778 378 2889 298 
Q 3000 219 3194 206 
L 3194 0 
z
" transform="scale(0.015625)"/>
       <path id="Georgia-61" d="M 3144 56 
Q 2997 3 2886 -30 
Q 2775 -63 2634 -63 
Q 2391 -63 2245 51 
Q 2100 166 2059 384 
L 2041 384 
Q 1838 159 1605 40 
Q 1372 -78 1044 -78 
Q 697 -78 473 134 
Q 250 347 250 691 
Q 250 869 300 1009 
Q 350 1150 450 1263 
Q 528 1356 656 1429 
Q 784 1503 897 1547 
Q 1038 1600 1467 1744 
Q 1897 1888 2047 1969 
L 2047 2278 
Q 2047 2319 2030 2434 
Q 2013 2550 1956 2653 
Q 1894 2769 1780 2855 
Q 1666 2941 1456 2941 
Q 1313 2941 1189 2892 
Q 1066 2844 1016 2791 
Q 1016 2728 1045 2606 
Q 1075 2484 1075 2381 
Q 1075 2272 976 2181 
Q 878 2091 703 2091 
Q 547 2091 473 2202 
Q 400 2313 400 2450 
Q 400 2594 501 2725 
Q 603 2856 766 2959 
Q 906 3047 1106 3108 
Q 1306 3169 1497 3169 
Q 1759 3169 1954 3133 
Q 2150 3097 2309 2978 
Q 2469 2863 2551 2664 
Q 2634 2466 2634 2153 
Q 2634 1706 2625 1361 
Q 2616 1016 2616 606 
Q 2616 484 2658 412 
Q 2700 341 2788 291 
Q 2834 263 2936 259 
Q 3038 256 3144 256 
L 3144 56 
z
M 2053 1706 
Q 1788 1628 1588 1553 
Q 1388 1478 1216 1366 
Q 1059 1259 968 1114 
Q 878 969 878 769 
Q 878 509 1014 387 
Q 1150 266 1359 266 
Q 1581 266 1750 373 
Q 1919 481 2034 628 
L 2053 1706 
z
" transform="scale(0.015625)"/>
       <path id="Georgia-63" d="M 1650 -81 
Q 981 -81 603 362 
Q 225 806 225 1553 
Q 225 1878 326 2161 
Q 428 2444 622 2675 
Q 806 2897 1084 3033 
Q 1363 3169 1691 3169 
Q 2144 3169 2428 2951 
Q 2713 2734 2713 2359 
Q 2713 2203 2638 2083 
Q 2563 1963 2391 1963 
Q 2206 1963 2104 2056 
Q 2003 2150 2003 2266 
Q 2003 2406 2040 2554 
Q 2078 2703 2084 2772 
Q 2028 2869 1917 2901 
Q 1806 2934 1678 2934 
Q 1528 2934 1392 2870 
Q 1256 2806 1128 2634 
Q 1013 2478 941 2212 
Q 869 1947 869 1578 
Q 869 997 1126 630 
Q 1384 263 1803 263 
Q 2106 263 2311 409 
Q 2516 556 2691 850 
L 2891 719 
Q 2684 350 2346 134 
Q 2009 -81 1650 -81 
z
" transform="scale(0.015625)"/>
      </defs>
      <use xlink:href="#Georgia-45"/>
      <use xlink:href="#Georgia-78" x="65.332031"/>
      <use xlink:href="#Georgia-61" x="115.820312"/>
      <use xlink:href="#Georgia-63" x="166.210938"/>
      <use xlink:href="#Georgia-74" x="211.621094"/>
     </g>
    </g>
    <g id="line2d_39">
     <path d="M 580.224097 49.715625 
L 590.224097 49.715625 
L 600.224097 49.715625 
" style="fill: none; stroke: #a80000; stroke-width: 3; stroke-linecap: square"/>
    </g>
    <g id="text_21">
     <!-- 64, t=0.8 -->
     <g transform="translate(608.224097 53.215625) scale(0.1 -0.1)">
      <defs>
       <path id="Georgia-2c" d="M 1341 109 
Q 1341 -116 1239 -316 
Q 1138 -516 1006 -659 
Q 872 -809 722 -925 
Q 572 -1041 447 -1106 
L 303 -897 
Q 453 -803 572 -709 
Q 691 -616 766 -522 
Q 859 -413 925 -284 
Q 991 -156 1009 6 
L 850 6 
Q 641 6 523 115 
Q 406 225 406 409 
Q 406 541 512 664 
Q 619 788 803 788 
Q 1072 788 1206 608 
Q 1341 428 1341 109 
z
" transform="scale(0.015625)"/>
       <path id="Georgia-20" transform="scale(0.015625)"/>
       <path id="Georgia-3d" d="M 3634 2134 
L 481 2134 
L 481 2525 
L 3634 2525 
L 3634 2134 
z
M 3634 972 
L 481 972 
L 481 1363 
L 3634 1363 
L 3634 972 
z
" transform="scale(0.015625)"/>
       <path id="Georgia-38" d="M 3491 1175 
Q 3491 650 3037 272 
Q 2584 -106 1847 -106 
Q 1156 -106 740 241 
Q 325 588 325 1134 
Q 325 1538 570 1808 
Q 816 2078 1297 2266 
Q 900 2488 703 2753 
Q 506 3019 506 3353 
Q 506 3863 939 4206 
Q 1372 4550 1975 4550 
Q 2578 4550 2951 4225 
Q 3325 3900 3325 3409 
Q 3325 3094 3119 2811 
Q 2913 2528 2513 2347 
Q 3031 2125 3261 1856 
Q 3491 1588 3491 1175 
z
M 2734 3444 
Q 2734 3825 2507 4064 
Q 2281 4303 1928 4303 
Q 1575 4303 1350 4073 
Q 1125 3844 1125 3503 
Q 1125 3175 1381 2947 
Q 1638 2719 2294 2459 
Q 2528 2609 2631 2856 
Q 2734 3103 2734 3444 
z
M 2866 1028 
Q 2866 1225 2781 1373 
Q 2697 1522 2538 1644 
Q 2384 1763 2111 1892 
Q 1838 2022 1519 2156 
Q 1219 1994 1078 1742 
Q 938 1491 938 1169 
Q 938 709 1208 426 
Q 1478 144 1928 144 
Q 2359 144 2612 394 
Q 2866 644 2866 1028 
z
" transform="scale(0.015625)"/>
      </defs>
      <use xlink:href="#Georgia-36"/>
      <use xlink:href="#Georgia-34" x="56.591797"/>
      <use xlink:href="#Georgia-2c" x="113.085938"/>
      <use xlink:href="#Georgia-20" x="140.039062"/>
      <use xlink:href="#Georgia-74" x="164.160156"/>
      <use xlink:href="#Georgia-3d" x="198.681641"/>
      <use xlink:href="#Georgia-30" x="262.988281"/>
      <use xlink:href="#Georgia-2e" x="324.365234"/>
      <use xlink:href="#Georgia-38" x="351.318359"/>
     </g>
    </g>
    <g id="line2d_40">
     <path d="M 580.224097 64.44375 
L 590.224097 64.44375 
L 600.224097 64.44375 
" style="fill: none; stroke: #1f77b4; stroke-width: 3; stroke-linecap: square"/>
    </g>
    <g id="text_22">
     <!-- 64, t=0.8,ggb -->
     <g transform="translate(608.224097 67.94375) scale(0.1 -0.1)">
      <defs>
       <path id="Georgia-67" d="M 2866 319 
Q 2991 200 3062 50 
Q 3134 -100 3134 -322 
Q 3134 -544 3037 -739 
Q 2941 -934 2744 -1078 
Q 2534 -1225 2243 -1306 
Q 1953 -1388 1525 -1388 
Q 825 -1388 478 -1183 
Q 131 -978 131 -584 
Q 131 -266 381 -81 
Q 631 103 1019 119 
L 1019 163 
Q 925 191 825 233 
Q 725 275 653 331 
Q 572 397 522 486 
Q 472 575 472 706 
Q 472 872 589 1011 
Q 706 1150 944 1250 
L 944 1297 
Q 644 1438 478 1658 
Q 313 1878 313 2169 
Q 313 2606 639 2887 
Q 966 3169 1475 3169 
Q 1616 3169 1755 3141 
Q 1894 3113 2038 3069 
L 3113 3069 
L 3113 2769 
L 2388 2769 
L 2388 2750 
Q 2503 2616 2559 2453 
Q 2616 2291 2616 2134 
Q 2616 1728 2286 1447 
Q 1956 1166 1519 1166 
L 1141 1166 
Q 1069 1141 991 1075 
Q 913 1009 913 897 
Q 913 781 978 720 
Q 1044 659 1138 638 
Q 1228 613 1348 606 
Q 1469 600 1597 597 
Q 1734 594 1973 578 
Q 2213 563 2313 559 
Q 2456 553 2601 490 
Q 2747 428 2866 319 
z
M 2022 2147 
Q 2022 2513 1873 2730 
Q 1725 2947 1456 2947 
Q 1309 2947 1204 2886 
Q 1100 2825 1034 2713 
Q 972 2609 945 2464 
Q 919 2319 919 2166 
Q 919 1819 1070 1600 
Q 1222 1381 1463 1381 
Q 1731 1381 1876 1598 
Q 2022 1816 2022 2147 
z
M 2622 -438 
Q 2622 -263 2540 -150 
Q 2459 -38 2294 3 
Q 2206 16 1934 31 
Q 1663 47 1303 47 
Q 966 -19 823 -173 
Q 681 -328 681 -572 
Q 681 -681 728 -781 
Q 775 -881 891 -966 
Q 1000 -1047 1184 -1098 
Q 1369 -1150 1634 -1150 
Q 2094 -1150 2358 -973 
Q 2622 -797 2622 -438 
z
" transform="scale(0.015625)"/>
       <path id="Georgia-62" d="M 3353 1544 
Q 3353 850 2915 378 
Q 2478 -94 1900 -94 
Q 1647 -94 1401 -15 
Q 1156 63 941 194 
L 709 -166 
L 516 -122 
Q 531 109 537 434 
Q 544 759 544 1063 
L 544 4113 
Q 544 4219 495 4325 
Q 447 4431 372 4478 
Q 313 4519 173 4539 
Q 34 4559 -50 4566 
L -50 4766 
L 1081 4838 
L 1125 4791 
L 1125 2759 
L 1147 2753 
Q 1341 2959 1570 3062 
Q 1800 3166 2022 3166 
Q 2591 3166 2972 2716 
Q 3353 2266 3353 1544 
z
M 2700 1522 
Q 2700 1753 2650 1993 
Q 2600 2234 2494 2413 
Q 2388 2594 2216 2706 
Q 2044 2819 1803 2819 
Q 1584 2819 1420 2733 
Q 1256 2647 1125 2500 
L 1125 706 
Q 1144 631 1198 531 
Q 1253 431 1347 341 
Q 1441 253 1559 198 
Q 1678 144 1850 144 
Q 2231 144 2465 512 
Q 2700 881 2700 1522 
z
" transform="scale(0.015625)"/>
      </defs>
      <use xlink:href="#Georgia-36"/>
      <use xlink:href="#Georgia-34" x="56.591797"/>
      <use xlink:href="#Georgia-2c" x="113.085938"/>
      <use xlink:href="#Georgia-20" x="140.039062"/>
      <use xlink:href="#Georgia-74" x="164.160156"/>
      <use xlink:href="#Georgia-3d" x="198.681641"/>
      <use xlink:href="#Georgia-30" x="262.988281"/>
      <use xlink:href="#Georgia-2e" x="324.365234"/>
      <use xlink:href="#Georgia-38" x="351.318359"/>
      <use xlink:href="#Georgia-2c" x="410.9375"/>
      <use xlink:href="#Georgia-67" x="437.890625"/>
      <use xlink:href="#Georgia-67" x="488.818359"/>
      <use xlink:href="#Georgia-62" x="539.746094"/>
     </g>
    </g>
   </g>
  </g>
  <g id="axes_2">
   <g id="patch_8">
    <path d="M 755.027111 515.68 
L 993.60625 515.68 
L 993.60625 7.2 
L 755.027111 7.2 
L 755.027111 515.68 
z
" style="fill: none"/>
   </g>
   <g id="matplotlib.axis_3">
    <g id="xtick_8">
     <g id="line2d_41">
      <g>
       <use xlink:href="#ma0c3a7b3e3" x="765.871618" y="515.68" style="stroke: #000000; stroke-width: 0.8"/>
      </g>
     </g>
     <g id="text_23">
      <!-- 0 -->
      <g transform="translate(760.961618 534.775) scale(0.16 -0.16)">
       <use xlink:href="#Georgia-30"/>
      </g>
     </g>
    </g>
    <g id="xtick_9">
     <g id="line2d_42">
      <g>
       <use xlink:href="#ma0c3a7b3e3" x="834.909889" y="515.68" style="stroke: #000000; stroke-width: 0.8"/>
      </g>
     </g>
     <g id="text_24">
      <!-- 2 -->
      <g transform="translate(830.441139 534.775) scale(0.16 -0.16)">
       <use xlink:href="#Georgia-32"/>
      </g>
     </g>
    </g>
    <g id="xtick_10">
     <g id="line2d_43">
      <g>
       <use xlink:href="#ma0c3a7b3e3" x="903.94816" y="515.68" style="stroke: #000000; stroke-width: 0.8"/>
      </g>
     </g>
     <g id="text_25">
      <!-- 4 -->
      <g transform="translate(899.42816 534.775) scale(0.16 -0.16)">
       <use xlink:href="#Georgia-34"/>
      </g>
     </g>
    </g>
    <g id="xtick_11">
     <g id="line2d_44">
      <g>
       <use xlink:href="#ma0c3a7b3e3" x="972.986432" y="515.68" style="stroke: #000000; stroke-width: 0.8"/>
      </g>
     </g>
     <g id="text_26">
      <!-- 6 -->
      <g transform="translate(968.458932 534.775) scale(0.16 -0.16)">
       <use xlink:href="#Georgia-36"/>
      </g>
     </g>
    </g>
    <g id="text_27">
     <!-- $k$ -->
     <g transform="translate(868.516681 557.36375) scale(0.2 -0.2)">
      <defs>
       <path id="DejaVuSans-Oblique-6b" d="M 1172 4863 
L 1747 4863 
L 1197 2028 
L 3169 3500 
L 3916 3500 
L 1716 1825 
L 3322 0 
L 2625 0 
L 1131 1709 
L 800 0 
L 225 0 
L 1172 4863 
z
" transform="scale(0.015625)"/>
      </defs>
      <use xlink:href="#DejaVuSans-Oblique-6b" transform="translate(0 0.015625)"/>
     </g>
    </g>
   </g>
   <g id="matplotlib.axis_4">
    <g id="ytick_10">
     <g id="line2d_45">
      <g>
       <use xlink:href="#m251a423384" x="755.027111" y="480.541883" style="stroke: #000000; stroke-width: 0.8"/>
      </g>
     </g>
     <g id="text_28">
      <!-- $\mathdefault{10^{-15}}$ -->
      <g transform="translate(712.827111 486.589383) scale(0.16 -0.16)">
       <use xlink:href="#Georgia-31" transform="translate(0 0.534375)"/>
       <use xlink:href="#Georgia-30" transform="translate(42.96875 0.534375)"/>
       <use xlink:href="#Georgia-2212" transform="translate(105.188164 34.232813) scale(0.7)"/>
       <use xlink:href="#Georgia-31" transform="translate(150.202812 34.232813) scale(0.7)"/>
       <use xlink:href="#Georgia-35" transform="translate(180.280937 34.232813) scale(0.7)"/>
      </g>
     </g>
    </g>
    <g id="ytick_11">
     <g id="line2d_46">
      <g>
       <use xlink:href="#m251a423384" x="755.027111" y="419.976497" style="stroke: #000000; stroke-width: 0.8"/>
      </g>
     </g>
     <g id="text_29">
      <!-- $\mathdefault{10^{-13}}$ -->
      <g transform="translate(712.507111 426.023997) scale(0.16 -0.16)">
       <use xlink:href="#Georgia-31" transform="translate(0 0.534375)"/>
       <use xlink:href="#Georgia-30" transform="translate(42.96875 0.534375)"/>
       <use xlink:href="#Georgia-2212" transform="translate(105.188164 34.232813) scale(0.7)"/>
       <use xlink:href="#Georgia-31" transform="translate(150.202812 34.232813) scale(0.7)"/>
       <use xlink:href="#Georgia-33" transform="translate(180.280937 34.232813) scale(0.7)"/>
      </g>
     </g>
    </g>
    <g id="ytick_12">
     <g id="line2d_47">
      <g>
       <use xlink:href="#m251a423384" x="755.027111" y="359.411111" style="stroke: #000000; stroke-width: 0.8"/>
      </g>
     </g>
     <g id="text_30">
      <!-- $\mathdefault{10^{-11}}$ -->
      <g transform="translate(713.947111 365.458611) scale(0.16 -0.16)">
       <use xlink:href="#Georgia-31" transform="translate(0 0.534375)"/>
       <use xlink:href="#Georgia-30" transform="translate(42.96875 0.534375)"/>
       <use xlink:href="#Georgia-2212" transform="translate(105.188164 34.232813) scale(0.7)"/>
       <use xlink:href="#Georgia-31" transform="translate(150.202812 34.232813) scale(0.7)"/>
       <use xlink:href="#Georgia-31" transform="translate(180.280937 34.232813) scale(0.7)"/>
      </g>
     </g>
    </g>
    <g id="ytick_13">
     <g id="line2d_48">
      <g>
       <use xlink:href="#m251a423384" x="755.027111" y="298.845726" style="stroke: #000000; stroke-width: 0.8"/>
      </g>
     </g>
     <g id="text_31">
      <!-- $\mathdefault{10^{-9}}$ -->
      <g transform="translate(717.147111 304.893226) scale(0.16 -0.16)">
       <defs>
        <path id="Georgia-39" d="M 3300 1613 
Q 3300 1069 3128 589 
Q 2956 109 2634 -253 
Q 2319 -609 1864 -845 
Q 1409 -1081 847 -1156 
L 791 -875 
L 1072 -825 
Q 1744 -613 2122 -172 
Q 2500 269 2609 947 
Q 2353 728 2098 626 
Q 1844 525 1525 525 
Q 1016 525 639 922 
Q 263 1319 263 1922 
Q 263 2569 698 3012 
Q 1134 3456 1775 3456 
Q 2472 3456 2886 2959 
Q 3300 2463 3300 1613 
z
M 2638 1650 
Q 2638 2381 2398 2795 
Q 2159 3209 1769 3209 
Q 1397 3209 1169 2889 
Q 941 2569 941 2006 
Q 941 1500 1173 1194 
Q 1406 888 1797 888 
Q 2041 888 2244 977 
Q 2447 1066 2622 1263 
Q 2622 1275 2626 1312 
Q 2631 1350 2631 1419 
Q 2631 1463 2634 1525 
Q 2638 1588 2638 1650 
z
" transform="scale(0.015625)"/>
       </defs>
       <use xlink:href="#Georgia-31" transform="translate(0 0.501563)"/>
       <use xlink:href="#Georgia-30" transform="translate(42.96875 0.501563)"/>
       <use xlink:href="#Georgia-2212" transform="translate(105.188164 34.2) scale(0.7)"/>
       <use xlink:href="#Georgia-39" transform="translate(150.202812 34.2) scale(0.7)"/>
      </g>
     </g>
    </g>
    <g id="ytick_14">
     <g id="line2d_49">
      <g>
       <use xlink:href="#m251a423384" x="755.027111" y="238.28034" style="stroke: #000000; stroke-width: 0.8"/>
      </g>
     </g>
     <g id="text_32">
      <!-- $\mathdefault{10^{-7}}$ -->
      <g transform="translate(717.947111 244.32784) scale(0.16 -0.16)">
       <use xlink:href="#Georgia-31" transform="translate(0 0.628125)"/>
       <use xlink:href="#Georgia-30" transform="translate(42.96875 0.628125)"/>
       <use xlink:href="#Georgia-2212" transform="translate(105.188164 34.326563) scale(0.7)"/>
       <use xlink:href="#Georgia-37" transform="translate(150.202812 34.326563) scale(0.7)"/>
      </g>
     </g>
    </g>
    <g id="ytick_15">
     <g id="line2d_50">
      <g>
       <use xlink:href="#m251a423384" x="755.027111" y="177.714954" style="stroke: #000000; stroke-width: 0.8"/>
      </g>
     </g>
     <g id="text_33">
      <!-- $\mathdefault{10^{-5}}$ -->
      <g transform="translate(717.627111 183.762454) scale(0.16 -0.16)">
       <use xlink:href="#Georgia-31" transform="translate(0 0.628125)"/>
       <use xlink:href="#Georgia-30" transform="translate(42.96875 0.628125)"/>
       <use xlink:href="#Georgia-2212" transform="translate(105.188164 34.326563) scale(0.7)"/>
       <use xlink:href="#Georgia-35" transform="translate(150.202812 34.326563) scale(0.7)"/>
      </g>
     </g>
    </g>
    <g id="ytick_16">
     <g id="line2d_51">
      <g>
       <use xlink:href="#m251a423384" x="755.027111" y="117.149569" style="stroke: #000000; stroke-width: 0.8"/>
      </g>
     </g>
     <g id="text_34">
      <!-- $\mathdefault{10^{-3}}$ -->
      <g transform="translate(717.307111 123.197069) scale(0.16 -0.16)">
       <use xlink:href="#Georgia-31" transform="translate(0 0.534375)"/>
       <use xlink:href="#Georgia-30" transform="translate(42.96875 0.534375)"/>
       <use xlink:href="#Georgia-2212" transform="translate(105.188164 34.232813) scale(0.7)"/>
       <use xlink:href="#Georgia-33" transform="translate(150.202812 34.232813) scale(0.7)"/>
      </g>
     </g>
    </g>
    <g id="ytick_17">
     <g id="line2d_52">
      <g>
       <use xlink:href="#m251a423384" x="755.027111" y="56.584183" style="stroke: #000000; stroke-width: 0.8"/>
      </g>
     </g>
     <g id="text_35">
      <!-- $\mathdefault{10^{-1}}$ -->
      <g transform="translate(718.747111 62.631683) scale(0.16 -0.16)">
       <use xlink:href="#Georgia-31" transform="translate(0 0.534375)"/>
       <use xlink:href="#Georgia-30" transform="translate(42.96875 0.534375)"/>
       <use xlink:href="#Georgia-2212" transform="translate(105.188164 34.232813) scale(0.7)"/>
       <use xlink:href="#Georgia-31" transform="translate(150.202812 34.232813) scale(0.7)"/>
      </g>
     </g>
    </g>
    <g id="text_36">
     <!-- $|y-y_{exact}|$ -->
     <g transform="translate(703.707111 311.94) rotate(-90) scale(0.2 -0.2)">
      <defs>
       <path id="DejaVuSans-7c" d="M 1344 4891 
L 1344 -1509 
L 813 -1509 
L 813 4891 
L 1344 4891 
z
" transform="scale(0.015625)"/>
       <path id="DejaVuSans-2212" d="M 678 2272 
L 4684 2272 
L 4684 1741 
L 678 1741 
L 678 2272 
z
" transform="scale(0.015625)"/>
       <path id="DejaVuSans-Oblique-65" d="M 3078 2063 
Q 3088 2113 3092 2166 
Q 3097 2219 3097 2272 
Q 3097 2653 2873 2875 
Q 2650 3097 2266 3097 
Q 1838 3097 1509 2826 
Q 1181 2556 1013 2059 
L 3078 2063 
z
M 3578 1613 
L 903 1613 
Q 884 1494 878 1425 
Q 872 1356 872 1306 
Q 872 872 1139 634 
Q 1406 397 1894 397 
Q 2269 397 2603 481 
Q 2938 566 3225 728 
L 3116 159 
Q 2806 34 2476 -28 
Q 2147 -91 1806 -91 
Q 1078 -91 686 257 
Q 294 606 294 1247 
Q 294 1794 489 2264 
Q 684 2734 1063 3103 
Q 1306 3334 1642 3459 
Q 1978 3584 2356 3584 
Q 2950 3584 3301 3228 
Q 3653 2872 3653 2272 
Q 3653 2128 3634 1964 
Q 3616 1800 3578 1613 
z
" transform="scale(0.015625)"/>
       <path id="DejaVuSans-Oblique-61" d="M 3438 1997 
L 3047 0 
L 2472 0 
L 2578 531 
Q 2325 219 2001 64 
Q 1678 -91 1281 -91 
Q 834 -91 548 182 
Q 263 456 263 884 
Q 263 1497 752 1853 
Q 1241 2209 2100 2209 
L 2900 2209 
L 2931 2363 
Q 2938 2388 2941 2417 
Q 2944 2447 2944 2509 
Q 2944 2788 2717 2942 
Q 2491 3097 2081 3097 
Q 1800 3097 1504 3025 
Q 1209 2953 897 2809 
L 997 3341 
Q 1322 3463 1633 3523 
Q 1944 3584 2234 3584 
Q 2853 3584 3176 3315 
Q 3500 3047 3500 2534 
Q 3500 2431 3484 2292 
Q 3469 2153 3438 1997 
z
M 2816 1759 
L 2241 1759 
Q 1534 1759 1195 1570 
Q 856 1381 856 984 
Q 856 709 1029 553 
Q 1203 397 1509 397 
Q 1978 397 2328 733 
Q 2678 1069 2791 1631 
L 2816 1759 
z
" transform="scale(0.015625)"/>
       <path id="DejaVuSans-Oblique-63" d="M 3431 3366 
L 3316 2797 
Q 3109 2947 2876 3022 
Q 2644 3097 2394 3097 
Q 2119 3097 1870 3000 
Q 1622 2903 1453 2725 
Q 1184 2453 1037 2087 
Q 891 1722 891 1331 
Q 891 859 1127 628 
Q 1363 397 1844 397 
Q 2081 397 2348 469 
Q 2616 541 2906 684 
L 2797 116 
Q 2547 13 2283 -39 
Q 2019 -91 1741 -91 
Q 1044 -91 669 257 
Q 294 606 294 1253 
Q 294 1797 489 2255 
Q 684 2713 1069 3078 
Q 1331 3328 1684 3456 
Q 2038 3584 2456 3584 
Q 2700 3584 2940 3529 
Q 3181 3475 3431 3366 
z
" transform="scale(0.015625)"/>
       <path id="DejaVuSans-Oblique-74" d="M 2706 3500 
L 2619 3053 
L 1472 3053 
L 1100 1153 
Q 1081 1047 1072 975 
Q 1063 903 1063 863 
Q 1063 663 1183 572 
Q 1303 481 1569 481 
L 2150 481 
L 2053 0 
L 1503 0 
Q 991 0 739 200 
Q 488 400 488 806 
Q 488 878 497 964 
Q 506 1050 525 1153 
L 897 3053 
L 409 3053 
L 500 3500 
L 978 3500 
L 1172 4494 
L 1747 4494 
L 1556 3500 
L 2706 3500 
z
" transform="scale(0.015625)"/>
      </defs>
      <use xlink:href="#DejaVuSans-7c" transform="translate(0 0.578125)"/>
      <use xlink:href="#DejaVuSans-Oblique-79" transform="translate(33.691406 0.578125)"/>
      <use xlink:href="#DejaVuSans-2212" transform="translate(112.353516 0.578125)"/>
      <use xlink:href="#DejaVuSans-Oblique-79" transform="translate(215.625 0.578125)"/>
      <use xlink:href="#DejaVuSans-Oblique-65" transform="translate(274.804688 -15.828125) scale(0.7)"/>
      <use xlink:href="#DejaVuSans-Oblique-78" transform="translate(317.871094 -15.828125) scale(0.7)"/>
      <use xlink:href="#DejaVuSans-Oblique-61" transform="translate(359.296875 -15.828125) scale(0.7)"/>
      <use xlink:href="#DejaVuSans-Oblique-63" transform="translate(402.192383 -15.828125) scale(0.7)"/>
      <use xlink:href="#DejaVuSans-Oblique-74" transform="translate(440.678711 -15.828125) scale(0.7)"/>
      <use xlink:href="#DejaVuSans-7c" transform="translate(470.859375 0.578125)"/>
     </g>
    </g>
   </g>
   <g id="line2d_53">
    <path d="M 765.871618 492.567273 
L 768.062427 101.337617 
L 770.253236 99.285598 
L 772.444046 85.052176 
L 774.634855 78.249688 
L 776.825664 73.848407 
L 779.016474 70.633138 
L 781.207283 67.997062 
L 783.398092 65.838762 
L 785.588902 64.08221 
L 787.779711 62.496963 
L 789.970521 61.09677 
L 792.16133 59.938134 
L 794.352139 58.857163 
L 796.542949 57.85548 
L 798.733758 57.036262 
L 800.924567 56.270532 
L 803.115377 55.531546 
L 805.306186 54.945399 
L 807.496995 54.413207 
L 809.687805 53.878431 
L 811.878614 53.479132 
L 814.069423 53.146494 
L 816.260233 52.795657 
L 818.451042 52.570906 
L 820.641851 52.435146 
L 822.832661 52.276567 
L 825.02347 52.243698 
L 827.21428 52.335399 
L 829.405089 52.412931 
L 831.595898 52.63182 
L 833.786708 53.038148 
L 835.977517 53.465076 
L 838.168326 54.088874 
L 840.359136 55.038541 
L 842.549945 56.126381 
L 844.740754 57.613282 
L 846.931564 59.885292 
L 849.122373 62.912139 
L 851.313182 67.767269 
L 853.503992 78.974415 
L 855.694801 87.825149 
L 857.885611 67.946288 
L 860.07642 58.824204 
L 862.267229 52.748753 
L 864.458039 47.768306 
L 866.648848 43.129183 
L 868.839657 38.884224 
L 871.030467 34.606118 
L 873.221276 30.312727 
L 875.412085 30.312727 
L 877.602895 34.606118 
L 879.793704 38.884224 
L 881.984513 43.129183 
L 884.175323 47.768306 
L 886.366132 52.748753 
L 888.556941 58.824204 
L 890.747751 67.946288 
L 892.93856 87.825149 
L 895.12937 78.974415 
L 897.320179 67.767269 
L 899.510988 62.912139 
L 901.701798 59.885292 
L 903.892607 57.613282 
L 906.083416 56.126381 
L 908.274226 55.038541 
L 910.465035 54.088874 
L 912.655844 53.465076 
L 914.846654 53.038148 
L 917.037463 52.63182 
L 919.228272 52.412931 
L 921.419082 52.335399 
L 923.609891 52.243698 
L 925.8007 52.276567 
L 927.99151 52.435146 
L 930.182319 52.570906 
L 932.373129 52.795657 
L 934.563938 53.146494 
L 936.754747 53.479132 
L 938.945557 53.878431 
L 941.136366 54.413207 
L 943.327175 54.945399 
L 945.517985 55.531546 
L 947.708794 56.270532 
L 949.899603 57.036262 
L 952.090413 57.85548 
L 954.281222 58.857163 
L 956.472031 59.938134 
L 958.662841 61.09677 
L 960.85365 62.496963 
L 963.04446 64.08221 
L 965.235269 65.838762 
L 967.426078 67.997062 
L 969.616888 70.633138 
L 971.807697 73.848407 
L 973.998506 78.249688 
L 976.189316 85.052176 
L 978.380125 99.285598 
L 980.570934 101.337617 
L 982.761744 486.666421 
" clip-path="url(#p41189d25c7)" style="fill: none; stroke: #a80000; stroke-width: 3; stroke-linecap: square"/>
   </g>
   <g id="line2d_54">
    <path d="M 765.871618 70.825902 
L 768.062427 63.021497 
L 770.253236 68.668726 
L 772.444046 77.304232 
L 774.634855 102.560884 
L 776.825664 84.591015 
L 779.016474 74.658614 
L 781.207283 69.454202 
L 783.398092 66.284134 
L 785.588902 63.912537 
L 787.779711 62.064995 
L 789.970521 60.667583 
L 792.16133 59.473529 
L 794.352139 58.464599 
L 796.542949 57.620522 
L 798.733758 56.858086 
L 800.924567 56.186036 
L 803.115377 55.58952 
L 805.306186 55.033495 
L 807.496995 54.537118 
L 809.687805 54.087282 
L 811.878614 53.663673 
L 814.069423 53.302746 
L 816.260233 52.982181 
L 818.451042 52.686185 
L 820.641851 52.484286 
L 822.832661 52.324187 
L 825.02347 52.208604 
L 827.21428 52.226523 
L 829.405089 52.302897 
L 831.595898 52.475618 
L 833.786708 52.837907 
L 835.977517 53.303292 
L 838.168326 53.983159 
L 840.359136 54.97208 
L 842.549945 56.197095 
L 844.740754 57.982199 
L 846.931564 60.510244 
L 849.122373 63.985393 
L 851.313182 70.308172 
L 853.503992 85.745014 
L 855.694801 81.514554 
L 857.885611 66.481676 
L 860.07642 59.360768 
L 862.267229 54.556424 
L 864.458039 50.58292 
L 866.648848 47.564547 
L 868.839657 45.154677 
L 871.030467 43.248721 
L 873.221276 35.707505 
L 875.412085 35.707505 
L 877.602895 43.248721 
L 879.793704 45.154677 
L 881.984513 47.564547 
L 884.175323 50.58292 
L 886.366132 54.556424 
L 888.556941 59.360768 
L 890.747751 66.481676 
L 892.93856 81.514554 
L 895.12937 85.745014 
L 897.320179 70.308172 
L 899.510988 63.985393 
L 901.701798 60.510244 
L 903.892607 57.982199 
L 906.083416 56.197095 
L 908.274226 54.97208 
L 910.465035 53.983159 
L 912.655844 53.303292 
L 914.846654 52.837907 
L 917.037463 52.475618 
L 919.228272 52.302897 
L 921.419082 52.226523 
L 923.609891 52.208604 
L 925.8007 52.324187 
L 927.99151 52.484286 
L 930.182319 52.686185 
L 932.373129 52.982181 
L 934.563938 53.302746 
L 936.754747 53.663673 
L 938.945557 54.087282 
L 941.136366 54.537118 
L 943.327175 55.033495 
L 945.517985 55.58952 
L 947.708794 56.186036 
L 949.899603 56.858086 
L 952.090413 57.620522 
L 954.281222 58.464599 
L 956.472031 59.473529 
L 958.662841 60.667583 
L 960.85365 62.064995 
L 963.04446 63.912537 
L 965.235269 66.284134 
L 967.426078 69.454202 
L 969.616888 74.658614 
L 971.807697 84.591015 
L 973.998506 102.560884 
L 976.189316 77.304232 
L 978.380125 68.668726 
L 980.570934 63.021497 
L 982.761744 70.825902 
" clip-path="url(#p41189d25c7)" style="fill: none; stroke: #1f77b4; stroke-width: 3; stroke-linecap: square"/>
   </g>
   <g id="patch_9">
    <path d="M 755.027111 515.68 
L 755.027111 7.2 
" style="fill: none; stroke: #000000; stroke-width: 1.5; stroke-linejoin: miter; stroke-linecap: square"/>
   </g>
   <g id="patch_10">
    <path d="M 993.60625 515.68 
L 993.60625 7.2 
" style="fill: none; stroke: #000000; stroke-width: 1.5; stroke-linejoin: miter; stroke-linecap: square"/>
   </g>
   <g id="patch_11">
    <path d="M 755.027111 515.68 
L 993.60625 515.68 
" style="fill: none; stroke: #000000; stroke-width: 1.5; stroke-linejoin: miter; stroke-linecap: square"/>
   </g>
   <g id="patch_12">
    <path d="M 755.027111 7.2 
L 993.60625 7.2 
" style="fill: none; stroke: #000000; stroke-width: 1.5; stroke-linejoin: miter; stroke-linecap: square"/>
   </g>
   <g id="legend_2">
    <g id="patch_13">
     <path d="M 895.03125 44.65625 
L 986.60625 44.65625 
Q 988.60625 44.65625 988.60625 42.65625 
L 988.60625 14.2 
Q 988.60625 12.2 986.60625 12.2 
L 895.03125 12.2 
Q 893.03125 12.2 893.03125 14.2 
L 893.03125 42.65625 
Q 893.03125 44.65625 895.03125 44.65625 
z
" style="fill: #ffffff; opacity: 0.8; stroke: #cccccc; stroke-linejoin: miter"/>
    </g>
    <g id="line2d_55">
     <path d="M 897.03125 20.259375 
L 907.03125 20.259375 
L 917.03125 20.259375 
" style="fill: none; stroke: #a80000; stroke-width: 3; stroke-linecap: square"/>
    </g>
    <g id="text_37">
     <!-- 64, t=0.8 -->
     <g transform="translate(925.03125 23.759375) scale(0.1 -0.1)">
      <use xlink:href="#Georgia-36"/>
      <use xlink:href="#Georgia-34" x="56.591797"/>
      <use xlink:href="#Georgia-2c" x="113.085938"/>
      <use xlink:href="#Georgia-20" x="140.039062"/>
      <use xlink:href="#Georgia-74" x="164.160156"/>
      <use xlink:href="#Georgia-3d" x="198.681641"/>
      <use xlink:href="#Georgia-30" x="262.988281"/>
      <use xlink:href="#Georgia-2e" x="324.365234"/>
      <use xlink:href="#Georgia-38" x="351.318359"/>
     </g>
    </g>
    <g id="line2d_56">
     <path d="M 897.03125 34.9875 
L 907.03125 34.9875 
L 917.03125 34.9875 
" style="fill: none; stroke: #1f77b4; stroke-width: 3; stroke-linecap: square"/>
    </g>
    <g id="text_38">
     <!-- 64, t=0.8,ggb -->
     <g transform="translate(925.03125 38.4875) scale(0.1 -0.1)">
      <use xlink:href="#Georgia-36"/>
      <use xlink:href="#Georgia-34" x="56.591797"/>
      <use xlink:href="#Georgia-2c" x="113.085938"/>
      <use xlink:href="#Georgia-20" x="140.039062"/>
      <use xlink:href="#Georgia-74" x="164.160156"/>
      <use xlink:href="#Georgia-3d" x="198.681641"/>
      <use xlink:href="#Georgia-30" x="262.988281"/>
      <use xlink:href="#Georgia-2e" x="324.365234"/>
      <use xlink:href="#Georgia-38" x="351.318359"/>
      <use xlink:href="#Georgia-2c" x="410.9375"/>
      <use xlink:href="#Georgia-67" x="437.890625"/>
      <use xlink:href="#Georgia-67" x="488.818359"/>
      <use xlink:href="#Georgia-62" x="539.746094"/>
     </g>
    </g>
   </g>
  </g>
 </g>
 <defs>
  <clipPath id="p12de6834d8">
   <rect x="80.35125" y="7.2" width="596.447847" height="508.48"/>
  </clipPath>
  <clipPath id="p41189d25c7">
   <rect x="755.027111" y="7.2" width="238.579139" height="508.48"/>
  </clipPath>
 </defs>
</svg>
