<?xml version="1.0" encoding="utf-8" standalone="no"?>
<!DOCTYPE svg PUBLIC "-//W3C//DTD SVG 1.1//EN"
  "http://www.w3.org/Graphics/SVG/1.1/DTD/svg11.dtd">
<svg xmlns:xlink="http://www.w3.org/1999/xlink" width="1000.79625pt" height="568.90125pt" viewBox="0 0 1000.79625 568.90125" xmlns="http://www.w3.org/2000/svg" version="1.1">
 <metadata>
  <rdf:RDF xmlns:dc="http://purl.org/dc/elements/1.1/" xmlns:cc="http://creativecommons.org/ns#" xmlns:rdf="http://www.w3.org/1999/02/22-rdf-syntax-ns#">
   <cc:Work>
    <dc:type rdf:resource="http://purl.org/dc/dcmitype/StillImage"/>
    <dc:date>2023-11-29T02:26:44.294471</dc:date>
    <dc:format>image/svg+xml</dc:format>
    <dc:creator>
     <cc:Agent>
      <dc:title>Matplotlib v3.6.2, https://matplotlib.org/</dc:title>
     </cc:Agent>
    </dc:creator>
   </cc:Work>
  </rdf:RDF>
 </metadata>
 <defs>
  <style type="text/css">*{stroke-linejoin: round; stroke-linecap: butt}</style>
 </defs>
 <g id="figure_1">
  <g id="patch_1">
   <path d="M 0 568.90125 
L 1000.79625 568.90125 
L 1000.79625 0 
L 0 0 
L 0 568.90125 
z
" style="fill: none"/>
  </g>
  <g id="axes_1">
   <g id="patch_2">
    <path d="M 70.53125 515.68 
L 673.98624 515.68 
L 673.98624 7.2 
L 70.53125 7.2 
L 70.53125 515.68 
z
" style="fill: none"/>
   </g>
   <g id="matplotlib.axis_1">
    <g id="xtick_1">
     <g id="line2d_1">
      <path d="M 97.961022 515.68 
L 97.961022 7.2 
" clip-path="url(#p43a9928073)" style="fill: none; stroke: #b0b0b0; stroke-width: 0.8; stroke-linecap: square"/>
     </g>
     <g id="line2d_2">
      <defs>
       <path id="mcfa90071b9" d="M 0 0 
L 0 3.5 
" style="stroke: #000000; stroke-width: 0.8"/>
      </defs>
      <g>
       <use xlink:href="#mcfa90071b9" x="97.961022" y="515.68" style="stroke: #000000; stroke-width: 0.8"/>
      </g>
     </g>
     <g id="text_1">
      <!-- 0 -->
      <g transform="translate(93.051022 534.775) scale(0.16 -0.16)">
       <defs>
        <path id="Georgia-30" d="M 3209 2919 
Q 3409 2678 3507 2354 
Q 3606 2031 3606 1678 
Q 3606 1253 3484 917 
Q 3363 581 3150 359 
Q 2931 131 2631 15 
Q 2331 -100 1963 -100 
Q 1559 -100 1243 34 
Q 928 169 731 403 
Q 525 647 423 973 
Q 322 1300 322 1678 
Q 322 2050 420 2362 
Q 519 2675 728 2928 
Q 928 3172 1243 3312 
Q 1559 3453 1966 3453 
Q 2394 3453 2700 3309 
Q 3006 3166 3209 2919 
z
M 2916 1678 
Q 2916 2422 2661 2831 
Q 2406 3241 1969 3241 
Q 1525 3241 1269 2831 
Q 1013 2422 1013 1678 
Q 1013 972 1258 542 
Q 1503 113 1963 113 
Q 2422 113 2669 542 
Q 2916 972 2916 1678 
z
" transform="scale(0.015625)"/>
       </defs>
       <use xlink:href="#Georgia-30"/>
      </g>
     </g>
    </g>
    <g id="xtick_2">
     <g id="line2d_3">
      <path d="M 185.272699 515.68 
L 185.272699 7.2 
" clip-path="url(#p43a9928073)" style="fill: none; stroke: #b0b0b0; stroke-width: 0.8; stroke-linecap: square"/>
     </g>
     <g id="line2d_4">
      <g>
       <use xlink:href="#mcfa90071b9" x="185.272699" y="515.68" style="stroke: #000000; stroke-width: 0.8"/>
      </g>
     </g>
     <g id="text_2">
      <!-- 1 -->
      <g transform="translate(181.835199 534.775) scale(0.16 -0.16)">
       <defs>
        <path id="Georgia-31" d="M 2528 0 
L 422 0 
L 422 222 
Q 516 228 714 248 
Q 913 269 988 291 
Q 1084 322 1136 392 
Q 1188 463 1188 603 
L 1188 2797 
L 409 2797 
L 409 3059 
L 581 3059 
Q 919 3059 1186 3184 
Q 1453 3309 1569 3453 
L 1828 3453 
Q 1819 3250 1809 2978 
Q 1800 2706 1800 2491 
L 1800 638 
Q 1800 528 1848 442 
Q 1897 356 1988 316 
Q 2069 281 2253 253 
Q 2438 225 2528 222 
L 2528 0 
z
" transform="scale(0.015625)"/>
       </defs>
       <use xlink:href="#Georgia-31"/>
      </g>
     </g>
    </g>
    <g id="xtick_3">
     <g id="line2d_5">
      <path d="M 272.584376 515.68 
L 272.584376 7.2 
" clip-path="url(#p43a9928073)" style="fill: none; stroke: #b0b0b0; stroke-width: 0.8; stroke-linecap: square"/>
     </g>
     <g id="line2d_6">
      <g>
       <use xlink:href="#mcfa90071b9" x="272.584376" y="515.68" style="stroke: #000000; stroke-width: 0.8"/>
      </g>
     </g>
     <g id="text_3">
      <!-- 2 -->
      <g transform="translate(268.115626 534.775) scale(0.16 -0.16)">
       <defs>
        <path id="Georgia-32" d="M 3272 0 
L 344 0 
L 344 425 
Q 428 522 578 642 
Q 728 763 934 903 
Q 1059 988 1234 1088 
Q 1409 1188 1631 1306 
Q 1878 1438 2011 1538 
Q 2144 1638 2253 1784 
Q 2325 1881 2369 2026 
Q 2413 2172 2413 2441 
Q 2413 2831 2203 3014 
Q 1994 3197 1666 3197 
Q 1463 3197 1281 3117 
Q 1100 3038 1009 2897 
Q 1031 2797 1064 2659 
Q 1097 2522 1097 2391 
Q 1097 2272 998 2180 
Q 900 2088 706 2088 
Q 550 2088 465 2195 
Q 381 2303 381 2484 
Q 381 2653 475 2823 
Q 569 2994 744 3138 
Q 916 3278 1169 3365 
Q 1422 3453 1716 3453 
Q 2356 3453 2732 3167 
Q 3109 2881 3109 2403 
Q 3109 2175 3042 1987 
Q 2975 1800 2825 1656 
Q 2659 1497 2437 1383 
Q 2216 1269 1759 1066 
Q 1488 944 1253 811 
Q 1019 678 869 553 
L 3272 553 
L 3272 0 
z
" transform="scale(0.015625)"/>
       </defs>
       <use xlink:href="#Georgia-32"/>
      </g>
     </g>
    </g>
    <g id="xtick_4">
     <g id="line2d_7">
      <path d="M 359.896053 515.68 
L 359.896053 7.2 
" clip-path="url(#p43a9928073)" style="fill: none; stroke: #b0b0b0; stroke-width: 0.8; stroke-linecap: square"/>
     </g>
     <g id="line2d_8">
      <g>
       <use xlink:href="#mcfa90071b9" x="359.896053" y="515.68" style="stroke: #000000; stroke-width: 0.8"/>
      </g>
     </g>
     <g id="text_4">
      <!-- 3 -->
      <g transform="translate(355.482303 534.775) scale(0.16 -0.16)">
       <defs>
        <path id="Georgia-33" d="M 1522 -1141 
Q 1228 -1141 984 -1067 
Q 741 -994 566 -869 
Q 391 -744 295 -581 
Q 200 -419 200 -247 
Q 200 -94 275 29 
Q 350 153 516 153 
Q 703 153 801 61 
Q 900 -31 900 -150 
Q 900 -250 867 -403 
Q 834 -556 816 -622 
Q 838 -650 895 -697 
Q 953 -744 1038 -781 
Q 1138 -828 1247 -856 
Q 1356 -884 1556 -884 
Q 1744 -884 1917 -821 
Q 2091 -759 2222 -622 
Q 2359 -478 2436 -286 
Q 2513 -94 2513 219 
Q 2513 388 2477 553 
Q 2441 719 2344 841 
Q 2247 963 2080 1030 
Q 1913 1097 1656 1097 
L 1247 1097 
L 1247 1456 
L 1519 1456 
Q 1950 1456 2140 1693 
Q 2331 1931 2331 2409 
Q 2331 2800 2147 2998 
Q 1963 3197 1625 3197 
Q 1463 3197 1358 3158 
Q 1253 3119 1188 3081 
Q 1109 3038 1059 2984 
Q 1009 2931 984 2906 
Q 1006 2806 1037 2661 
Q 1069 2516 1069 2384 
Q 1069 2269 970 2176 
Q 872 2084 681 2084 
Q 516 2084 439 2203 
Q 363 2322 363 2478 
Q 363 2641 453 2809 
Q 544 2978 722 3125 
Q 900 3272 1156 3362 
Q 1413 3453 1747 3453 
Q 2131 3453 2382 3339 
Q 2634 3225 2778 3063 
Q 2919 2903 2972 2728 
Q 3025 2553 3025 2428 
Q 3025 2272 2981 2114 
Q 2938 1956 2838 1822 
Q 2728 1675 2548 1554 
Q 2369 1434 2097 1359 
L 2097 1309 
Q 2272 1294 2470 1231 
Q 2669 1169 2828 1047 
Q 2994 919 3100 717 
Q 3206 516 3206 206 
Q 3206 -394 2725 -767 
Q 2244 -1141 1522 -1141 
z
" transform="scale(0.015625)"/>
       </defs>
       <use xlink:href="#Georgia-33"/>
      </g>
     </g>
    </g>
    <g id="xtick_5">
     <g id="line2d_9">
      <path d="M 447.20773 515.68 
L 447.20773 7.2 
" clip-path="url(#p43a9928073)" style="fill: none; stroke: #b0b0b0; stroke-width: 0.8; stroke-linecap: square"/>
     </g>
     <g id="line2d_10">
      <g>
       <use xlink:href="#mcfa90071b9" x="447.20773" y="515.68" style="stroke: #000000; stroke-width: 0.8"/>
      </g>
     </g>
     <g id="text_5">
      <!-- 4 -->
      <g transform="translate(442.68773 534.775) scale(0.16 -0.16)">
       <defs>
        <path id="Georgia-34" d="M 3388 281 
L 2753 281 
L 2753 -1141 
L 2153 -1141 
L 2153 281 
L 153 281 
L 153 763 
L 2344 3434 
L 2753 3434 
L 2753 691 
L 3388 691 
L 3388 281 
z
M 2153 691 
L 2153 2738 
L 466 691 
L 2153 691 
z
" transform="scale(0.015625)"/>
       </defs>
       <use xlink:href="#Georgia-34"/>
      </g>
     </g>
    </g>
    <g id="xtick_6">
     <g id="line2d_11">
      <path d="M 534.519406 515.68 
L 534.519406 7.2 
" clip-path="url(#p43a9928073)" style="fill: none; stroke: #b0b0b0; stroke-width: 0.8; stroke-linecap: square"/>
     </g>
     <g id="line2d_12">
      <g>
       <use xlink:href="#mcfa90071b9" x="534.519406" y="515.68" style="stroke: #000000; stroke-width: 0.8"/>
      </g>
     </g>
     <g id="text_6">
      <!-- 5 -->
      <g transform="translate(530.293156 534.775) scale(0.16 -0.16)">
       <defs>
        <path id="Georgia-35" d="M 2634 1466 
Q 2841 1303 2977 1047 
Q 3113 791 3113 406 
Q 3113 -266 2653 -703 
Q 2194 -1141 1488 -1141 
Q 941 -1141 562 -881 
Q 184 -622 184 -278 
Q 184 -119 262 0 
Q 341 119 503 119 
Q 691 119 789 20 
Q 888 -78 888 -194 
Q 888 -294 853 -444 
Q 819 -594 800 -666 
Q 825 -688 881 -725 
Q 938 -763 1016 -797 
Q 1097 -831 1214 -857 
Q 1331 -884 1488 -884 
Q 1688 -884 1866 -803 
Q 2044 -722 2166 -563 
Q 2300 -388 2367 -164 
Q 2434 59 2434 403 
Q 2434 844 2189 1133 
Q 1944 1422 1544 1422 
Q 1294 1422 1076 1328 
Q 859 1234 688 1016 
L 478 1097 
L 744 3353 
L 2981 3353 
L 2981 2797 
L 997 2797 
L 834 1472 
Q 975 1572 1204 1670 
Q 1434 1769 1709 1769 
Q 1938 1769 2183 1698 
Q 2428 1628 2634 1466 
z
" transform="scale(0.015625)"/>
       </defs>
       <use xlink:href="#Georgia-35"/>
      </g>
     </g>
    </g>
    <g id="xtick_7">
     <g id="line2d_13">
      <path d="M 621.831083 515.68 
L 621.831083 7.2 
" clip-path="url(#p43a9928073)" style="fill: none; stroke: #b0b0b0; stroke-width: 0.8; stroke-linecap: square"/>
     </g>
     <g id="line2d_14">
      <g>
       <use xlink:href="#mcfa90071b9" x="621.831083" y="515.68" style="stroke: #000000; stroke-width: 0.8"/>
      </g>
     </g>
     <g id="text_7">
      <!-- 6 -->
      <g transform="translate(617.303583 534.775) scale(0.16 -0.16)">
       <defs>
        <path id="Georgia-36" d="M 3359 1441 
Q 3359 1116 3242 831 
Q 3125 547 2928 347 
Q 2700 119 2423 9 
Q 2147 -100 1847 -100 
Q 1500 -100 1219 28 
Q 938 156 741 391 
Q 541 628 431 972 
Q 322 1316 322 1744 
Q 322 2859 986 3625 
Q 1650 4391 2766 4544 
L 2822 4263 
L 2541 4213 
Q 1863 3994 1492 3531 
Q 1122 3069 1013 2409 
Q 1281 2644 1543 2741 
Q 1806 2838 2097 2838 
Q 2619 2838 2989 2438 
Q 3359 2038 3359 1441 
z
M 2681 1356 
Q 2681 1863 2448 2169 
Q 2216 2475 1825 2475 
Q 1591 2475 1389 2387 
Q 1188 2300 1000 2094 
Q 997 2056 990 1920 
Q 984 1784 984 1706 
Q 984 975 1223 561 
Q 1463 147 1853 147 
Q 2225 147 2453 470 
Q 2681 794 2681 1356 
z
" transform="scale(0.015625)"/>
       </defs>
       <use xlink:href="#Georgia-36"/>
      </g>
     </g>
    </g>
    <g id="text_8">
     <!-- $x$ -->
     <g transform="translate(366.258745 557.36375) scale(0.2 -0.2)">
      <defs>
       <path id="DejaVuSans-Oblique-78" d="M 3841 3500 
L 2234 1784 
L 3219 0 
L 2559 0 
L 1819 1388 
L 531 0 
L -166 0 
L 1556 1844 
L 641 3500 
L 1300 3500 
L 1972 2234 
L 3144 3500 
L 3841 3500 
z
" transform="scale(0.015625)"/>
      </defs>
      <use xlink:href="#DejaVuSans-Oblique-78" transform="translate(0 0.3125)"/>
     </g>
    </g>
   </g>
   <g id="matplotlib.axis_2">
    <g id="ytick_1">
     <g id="line2d_15">
      <path d="M 70.53125 445.048874 
L 673.98624 445.048874 
" clip-path="url(#p43a9928073)" style="fill: none; stroke: #b0b0b0; stroke-width: 0.8; stroke-linecap: square"/>
     </g>
     <g id="line2d_16">
      <defs>
       <path id="m59e3de5b28" d="M 0 0 
L -3.5 0 
" style="stroke: #000000; stroke-width: 0.8"/>
      </defs>
      <g>
       <use xlink:href="#m59e3de5b28" x="70.53125" y="445.048874" style="stroke: #000000; stroke-width: 0.8"/>
      </g>
     </g>
     <g id="text_9">
      <!-- −1.0 -->
      <g transform="translate(32.23375 451.096374) scale(0.16 -0.16)">
       <defs>
        <path id="Georgia-2212" d="M 3650 1553 
L 466 1553 
L 466 1944 
L 3650 1944 
L 3650 1553 
z
" transform="scale(0.015625)"/>
        <path id="Georgia-2e" d="M 1297 359 
Q 1297 184 1170 60 
Q 1044 -63 869 -63 
Q 694 -63 567 60 
Q 441 184 441 359 
Q 441 534 567 661 
Q 694 788 869 788 
Q 1044 788 1170 661 
Q 1297 534 1297 359 
z
" transform="scale(0.015625)"/>
       </defs>
       <use xlink:href="#Georgia-2212"/>
       <use xlink:href="#Georgia-31" x="64.306641"/>
       <use xlink:href="#Georgia-2e" x="107.275391"/>
       <use xlink:href="#Georgia-30" x="134.228516"/>
      </g>
     </g>
    </g>
    <g id="ytick_2">
     <g id="line2d_17">
      <path d="M 70.53125 353.244437 
L 673.98624 353.244437 
" clip-path="url(#p43a9928073)" style="fill: none; stroke: #b0b0b0; stroke-width: 0.8; stroke-linecap: square"/>
     </g>
     <g id="line2d_18">
      <g>
       <use xlink:href="#m59e3de5b28" x="70.53125" y="353.244437" style="stroke: #000000; stroke-width: 0.8"/>
      </g>
     </g>
     <g id="text_10">
      <!-- −0.5 -->
      <g transform="translate(30.65625 359.291937) scale(0.16 -0.16)">
       <use xlink:href="#Georgia-2212"/>
       <use xlink:href="#Georgia-30" x="64.306641"/>
       <use xlink:href="#Georgia-2e" x="125.683594"/>
       <use xlink:href="#Georgia-35" x="152.636719"/>
      </g>
     </g>
    </g>
    <g id="ytick_3">
     <g id="line2d_19">
      <path d="M 70.53125 261.44 
L 673.98624 261.44 
" clip-path="url(#p43a9928073)" style="fill: none; stroke: #b0b0b0; stroke-width: 0.8; stroke-linecap: square"/>
     </g>
     <g id="line2d_20">
      <g>
       <use xlink:href="#m59e3de5b28" x="70.53125" y="261.44" style="stroke: #000000; stroke-width: 0.8"/>
      </g>
     </g>
     <g id="text_11">
      <!-- 0.0 -->
      <g transform="translate(39.57875 267.4875) scale(0.16 -0.16)">
       <use xlink:href="#Georgia-30"/>
       <use xlink:href="#Georgia-2e" x="61.376953"/>
       <use xlink:href="#Georgia-30" x="88.330078"/>
      </g>
     </g>
    </g>
    <g id="ytick_4">
     <g id="line2d_21">
      <path d="M 70.53125 169.635563 
L 673.98624 169.635563 
" clip-path="url(#p43a9928073)" style="fill: none; stroke: #b0b0b0; stroke-width: 0.8; stroke-linecap: square"/>
     </g>
     <g id="line2d_22">
      <g>
       <use xlink:href="#m59e3de5b28" x="70.53125" y="169.635563" style="stroke: #000000; stroke-width: 0.8"/>
      </g>
     </g>
     <g id="text_12">
      <!-- 0.5 -->
      <g transform="translate(40.94625 175.683063) scale(0.16 -0.16)">
       <use xlink:href="#Georgia-30"/>
       <use xlink:href="#Georgia-2e" x="61.376953"/>
       <use xlink:href="#Georgia-35" x="88.330078"/>
      </g>
     </g>
    </g>
    <g id="ytick_5">
     <g id="line2d_23">
      <path d="M 70.53125 77.831126 
L 673.98624 77.831126 
" clip-path="url(#p43a9928073)" style="fill: none; stroke: #b0b0b0; stroke-width: 0.8; stroke-linecap: square"/>
     </g>
     <g id="line2d_24">
      <g>
       <use xlink:href="#m59e3de5b28" x="70.53125" y="77.831126" style="stroke: #000000; stroke-width: 0.8"/>
      </g>
     </g>
     <g id="text_13">
      <!-- 1.0 -->
      <g transform="translate(42.52375 83.878626) scale(0.16 -0.16)">
       <use xlink:href="#Georgia-31"/>
       <use xlink:href="#Georgia-2e" x="42.96875"/>
       <use xlink:href="#Georgia-30" x="69.921875"/>
      </g>
     </g>
    </g>
    <g id="text_14">
     <!-- $y$ -->
     <g transform="translate(22.31875 267.44) rotate(-90) scale(0.2 -0.2)">
      <defs>
       <path id="DejaVuSans-Oblique-79" d="M 1588 -325 
Q 1188 -997 936 -1164 
Q 684 -1331 294 -1331 
L -159 -1331 
L -63 -850 
L 269 -850 
Q 509 -850 678 -719 
Q 847 -588 1056 -206 
L 1234 128 
L 459 3500 
L 1069 3500 
L 1650 819 
L 3256 3500 
L 3859 3500 
L 1588 -325 
z
" transform="scale(0.015625)"/>
      </defs>
      <use xlink:href="#DejaVuSans-Oblique-79" transform="translate(0 0.3125)"/>
     </g>
    </g>
   </g>
   <g id="line2d_25">
    <path d="M 97.961022 261.44 
L 115.533649 224.735267 
L 124.869107 205.746113 
L 132.557131 190.576236 
L 139.696011 176.979121 
L 146.285746 164.926812 
L 152.326337 154.359966 
L 157.817783 145.197043 
L 162.760084 137.342439 
L 167.702385 129.885357 
L 172.644686 122.849685 
L 177.037843 116.96778 
L 181.431 111.451556 
L 185.824157 106.314975 
L 189.668169 102.142136 
L 193.512181 98.278018 
L 197.356193 94.730108 
L 201.200205 91.505283 
L 204.495073 89.00305 
L 207.78994 86.746351 
L 211.084808 84.738398 
L 214.379675 82.982051 
L 217.674543 81.47981 
L 220.96941 80.233814 
L 224.264278 79.245838 
L 227.559145 78.517288 
L 230.854013 78.049203 
L 234.14888 77.842247 
L 237.443748 77.896717 
L 240.738616 78.212534 
L 244.033483 78.789248 
L 247.328351 79.62604 
L 250.623218 80.721716 
L 253.918086 82.074717 
L 257.212953 83.683116 
L 260.507821 85.544624 
L 263.802688 87.656589 
L 267.097556 90.016005 
L 270.392423 92.619511 
L 274.236436 95.960474 
L 278.080448 99.622137 
L 281.92446 103.597403 
L 285.768472 107.878569 
L 290.161629 113.135232 
L 294.554785 118.767275 
L 298.947942 124.760444 
L 303.890243 131.915494 
L 308.832545 139.485451 
L 313.774846 147.446064 
L 319.266292 156.718313 
L 325.306882 167.39463 
L 331.347473 178.520911 
L 337.937208 191.10925 
L 345.625232 206.296586 
L 354.411546 224.169702 
L 365.943582 248.171337 
L 392.302522 303.221074 
L 401.088836 320.971468 
L 408.77686 336.014946 
L 415.366595 348.453755 
L 421.407186 359.422465 
L 427.447776 369.922372 
L 432.939222 379.018611 
L 437.881523 386.808675 
L 442.823825 394.197145 
L 447.766126 401.160354 
L 452.159283 406.9748 
L 456.552439 412.420876 
L 460.945596 417.484798 
L 464.789608 421.592143 
L 468.63362 425.389112 
L 472.477632 428.868347 
L 476.321644 432.023105 
L 479.616512 434.464275 
L 482.91138 436.659075 
L 486.206247 438.604381 
L 489.501115 440.297422 
L 492.795982 441.735788 
L 496.09085 442.917431 
L 499.385717 443.840667 
L 502.680585 444.504184 
L 505.975452 444.907035 
L 509.27032 445.048647 
L 512.565187 444.928819 
L 515.860055 444.547721 
L 519.154922 443.905896 
L 522.44979 443.004257 
L 525.744658 441.844089 
L 529.039525 440.427044 
L 532.334393 438.755138 
L 535.62926 436.830754 
L 538.924128 434.65663 
L 542.218995 432.235863 
L 545.513863 429.5719 
L 549.357875 426.161649 
L 553.201887 422.432167 
L 557.045899 418.390682 
L 560.889911 414.045025 
L 565.283068 408.716936 
L 569.676225 403.016068 
L 574.069381 396.95685 
L 579.011683 389.73102 
L 583.953984 382.094236 
L 588.896285 374.070959 
L 594.387731 364.734214 
L 600.428322 353.99348 
L 607.018057 341.773107 
L 614.156936 328.020473 
L 621.844961 312.715144 
L 631.180419 293.607622 
L 644.359889 266.058726 
L 646.556467 261.44 
L 646.556467 261.44 
" clip-path="url(#p43a9928073)" style="fill: none; stroke: #000000; stroke-linecap: square"/>
   </g>
   <g id="line2d_26">
    <defs>
     <path id="mfa9b0ffde7" d="M 0 0.4 
C 0.106081 0.4 0.207832 0.357853 0.282843 0.282843 
C 0.357853 0.207832 0.4 0.106081 0.4 0 
C 0.4 -0.106081 0.357853 -0.207832 0.282843 -0.282843 
C 0.207832 -0.357853 0.106081 -0.4 0 -0.4 
C -0.106081 -0.4 -0.207832 -0.357853 -0.282843 -0.282843 
C -0.357853 -0.207832 -0.4 -0.106081 -0.4 0 
C -0.4 0.106081 -0.357853 0.207832 -0.282843 0.282843 
C -0.207832 0.357853 -0.106081 0.4 0 0.4 
z
" style="stroke: #000000"/>
    </defs>
    <g clip-path="url(#p43a9928073)">
     <use xlink:href="#mfa9b0ffde7" x="97.961022" y="261.44" style="stroke: #000000"/>
     <use xlink:href="#mfa9b0ffde7" x="103.50239" y="254.349221" style="stroke: #000000"/>
     <use xlink:href="#mfa9b0ffde7" x="109.043759" y="249.21328" style="stroke: #000000"/>
     <use xlink:href="#mfa9b0ffde7" x="114.585127" y="244.155925" style="stroke: #000000"/>
     <use xlink:href="#mfa9b0ffde7" x="120.126495" y="239.120019" style="stroke: #000000"/>
     <use xlink:href="#mfa9b0ffde7" x="125.667863" y="234.096793" style="stroke: #000000"/>
     <use xlink:href="#mfa9b0ffde7" x="131.209231" y="229.085286" style="stroke: #000000"/>
     <use xlink:href="#mfa9b0ffde7" x="136.750599" y="224.086317" style="stroke: #000000"/>
     <use xlink:href="#mfa9b0ffde7" x="142.291967" y="219.101215" style="stroke: #000000"/>
     <use xlink:href="#mfa9b0ffde7" x="147.833335" y="214.131493" style="stroke: #000000"/>
     <use xlink:href="#mfa9b0ffde7" x="153.374704" y="209.178768" style="stroke: #000000"/>
     <use xlink:href="#mfa9b0ffde7" x="158.916072" y="204.244739" style="stroke: #000000"/>
     <use xlink:href="#mfa9b0ffde7" x="164.45744" y="199.331188" style="stroke: #000000"/>
     <use xlink:href="#mfa9b0ffde7" x="169.998808" y="194.439983" style="stroke: #000000"/>
     <use xlink:href="#mfa9b0ffde7" x="175.540176" y="189.573095" style="stroke: #000000"/>
     <use xlink:href="#mfa9b0ffde7" x="181.081544" y="184.732602" style="stroke: #000000"/>
     <use xlink:href="#mfa9b0ffde7" x="186.622912" y="179.920709" style="stroke: #000000"/>
     <use xlink:href="#mfa9b0ffde7" x="192.16428" y="175.139762" style="stroke: #000000"/>
     <use xlink:href="#mfa9b0ffde7" x="197.705649" y="170.392263" style="stroke: #000000"/>
     <use xlink:href="#mfa9b0ffde7" x="203.247017" y="165.680893" style="stroke: #000000"/>
     <use xlink:href="#mfa9b0ffde7" x="208.788385" y="161.008533" style="stroke: #000000"/>
     <use xlink:href="#mfa9b0ffde7" x="214.329753" y="156.378291" style="stroke: #000000"/>
     <use xlink:href="#mfa9b0ffde7" x="219.871121" y="151.793535" style="stroke: #000000"/>
     <use xlink:href="#mfa9b0ffde7" x="225.412489" y="147.257925" style="stroke: #000000"/>
     <use xlink:href="#mfa9b0ffde7" x="230.953857" y="142.775455" style="stroke: #000000"/>
     <use xlink:href="#mfa9b0ffde7" x="236.495226" y="138.350507" style="stroke: #000000"/>
     <use xlink:href="#mfa9b0ffde7" x="242.036594" y="133.987902" style="stroke: #000000"/>
     <use xlink:href="#mfa9b0ffde7" x="247.577962" y="129.692976" style="stroke: #000000"/>
     <use xlink:href="#mfa9b0ffde7" x="253.11933" y="125.471659" style="stroke: #000000"/>
     <use xlink:href="#mfa9b0ffde7" x="258.660698" y="121.330578" style="stroke: #000000"/>
     <use xlink:href="#mfa9b0ffde7" x="264.202066" y="117.277185" style="stroke: #000000"/>
     <use xlink:href="#mfa9b0ffde7" x="269.743434" y="113.319901" style="stroke: #000000"/>
     <use xlink:href="#mfa9b0ffde7" x="275.284802" y="109.468316" style="stroke: #000000"/>
     <use xlink:href="#mfa9b0ffde7" x="280.826171" y="105.733424" style="stroke: #000000"/>
     <use xlink:href="#mfa9b0ffde7" x="286.367539" y="102.127933" style="stroke: #000000"/>
     <use xlink:href="#mfa9b0ffde7" x="291.908907" y="98.666659" style="stroke: #000000"/>
     <use xlink:href="#mfa9b0ffde7" x="297.450275" y="95.367052" style="stroke: #000000"/>
     <use xlink:href="#mfa9b0ffde7" x="302.991643" y="92.249892" style="stroke: #000000"/>
     <use xlink:href="#mfa9b0ffde7" x="308.533011" y="89.340243" style="stroke: #000000"/>
     <use xlink:href="#mfa9b0ffde7" x="314.074379" y="86.668782" style="stroke: #000000"/>
     <use xlink:href="#mfa9b0ffde7" x="319.615748" y="84.2737" style="stroke: #000000"/>
     <use xlink:href="#mfa9b0ffde7" x="325.157116" y="82.203522" style="stroke: #000000"/>
     <use xlink:href="#mfa9b0ffde7" x="330.698484" y="80.52142" style="stroke: #000000"/>
     <use xlink:href="#mfa9b0ffde7" x="336.239852" y="79.31214" style="stroke: #000000"/>
     <use xlink:href="#mfa9b0ffde7" x="341.78122" y="78.693769" style="stroke: #000000"/>
     <use xlink:href="#mfa9b0ffde7" x="347.322588" y="78.839221" style="stroke: #000000"/>
     <use xlink:href="#mfa9b0ffde7" x="352.863956" y="80.019457" style="stroke: #000000"/>
     <use xlink:href="#mfa9b0ffde7" x="358.405324" y="82.70314" style="stroke: #000000"/>
     <use xlink:href="#mfa9b0ffde7" x="363.946693" y="87.838032" style="stroke: #000000"/>
     <use xlink:href="#mfa9b0ffde7" x="369.488061" y="97.949125" style="stroke: #000000"/>
     <use xlink:href="#mfa9b0ffde7" x="375.029429" y="424.930875" style="stroke: #000000"/>
     <use xlink:href="#mfa9b0ffde7" x="380.570797" y="435.041968" style="stroke: #000000"/>
     <use xlink:href="#mfa9b0ffde7" x="386.112165" y="440.17686" style="stroke: #000000"/>
     <use xlink:href="#mfa9b0ffde7" x="391.653533" y="442.860543" style="stroke: #000000"/>
     <use xlink:href="#mfa9b0ffde7" x="397.194901" y="444.040779" style="stroke: #000000"/>
     <use xlink:href="#mfa9b0ffde7" x="402.736269" y="444.186231" style="stroke: #000000"/>
     <use xlink:href="#mfa9b0ffde7" x="408.277638" y="443.56786" style="stroke: #000000"/>
     <use xlink:href="#mfa9b0ffde7" x="413.819006" y="442.35858" style="stroke: #000000"/>
     <use xlink:href="#mfa9b0ffde7" x="419.360374" y="440.676478" style="stroke: #000000"/>
     <use xlink:href="#mfa9b0ffde7" x="424.901742" y="438.6063" style="stroke: #000000"/>
     <use xlink:href="#mfa9b0ffde7" x="430.44311" y="436.211218" style="stroke: #000000"/>
     <use xlink:href="#mfa9b0ffde7" x="435.984478" y="433.539757" style="stroke: #000000"/>
     <use xlink:href="#mfa9b0ffde7" x="441.525846" y="430.630108" style="stroke: #000000"/>
     <use xlink:href="#mfa9b0ffde7" x="447.067215" y="427.512948" style="stroke: #000000"/>
     <use xlink:href="#mfa9b0ffde7" x="452.608583" y="424.213341" style="stroke: #000000"/>
     <use xlink:href="#mfa9b0ffde7" x="458.149951" y="420.752067" style="stroke: #000000"/>
     <use xlink:href="#mfa9b0ffde7" x="463.691319" y="417.146576" style="stroke: #000000"/>
     <use xlink:href="#mfa9b0ffde7" x="469.232687" y="413.411684" style="stroke: #000000"/>
     <use xlink:href="#mfa9b0ffde7" x="474.774055" y="409.560099" style="stroke: #000000"/>
     <use xlink:href="#mfa9b0ffde7" x="480.315423" y="405.602815" style="stroke: #000000"/>
     <use xlink:href="#mfa9b0ffde7" x="485.856791" y="401.549422" style="stroke: #000000"/>
     <use xlink:href="#mfa9b0ffde7" x="491.39816" y="397.408341" style="stroke: #000000"/>
     <use xlink:href="#mfa9b0ffde7" x="496.939528" y="393.187024" style="stroke: #000000"/>
     <use xlink:href="#mfa9b0ffde7" x="502.480896" y="388.892098" style="stroke: #000000"/>
     <use xlink:href="#mfa9b0ffde7" x="508.022264" y="384.529493" style="stroke: #000000"/>
     <use xlink:href="#mfa9b0ffde7" x="513.563632" y="380.104545" style="stroke: #000000"/>
     <use xlink:href="#mfa9b0ffde7" x="519.105" y="375.622075" style="stroke: #000000"/>
     <use xlink:href="#mfa9b0ffde7" x="524.646368" y="371.086465" style="stroke: #000000"/>
     <use xlink:href="#mfa9b0ffde7" x="530.187737" y="366.501709" style="stroke: #000000"/>
     <use xlink:href="#mfa9b0ffde7" x="535.729105" y="361.871467" style="stroke: #000000"/>
     <use xlink:href="#mfa9b0ffde7" x="541.270473" y="357.199107" style="stroke: #000000"/>
     <use xlink:href="#mfa9b0ffde7" x="546.811841" y="352.487737" style="stroke: #000000"/>
     <use xlink:href="#mfa9b0ffde7" x="552.353209" y="347.740238" style="stroke: #000000"/>
     <use xlink:href="#mfa9b0ffde7" x="557.894577" y="342.959291" style="stroke: #000000"/>
     <use xlink:href="#mfa9b0ffde7" x="563.435945" y="338.147398" style="stroke: #000000"/>
     <use xlink:href="#mfa9b0ffde7" x="568.977313" y="333.306905" style="stroke: #000000"/>
     <use xlink:href="#mfa9b0ffde7" x="574.518682" y="328.440017" style="stroke: #000000"/>
     <use xlink:href="#mfa9b0ffde7" x="580.06005" y="323.548812" style="stroke: #000000"/>
     <use xlink:href="#mfa9b0ffde7" x="585.601418" y="318.635261" style="stroke: #000000"/>
     <use xlink:href="#mfa9b0ffde7" x="591.142786" y="313.701232" style="stroke: #000000"/>
     <use xlink:href="#mfa9b0ffde7" x="596.684154" y="308.748507" style="stroke: #000000"/>
     <use xlink:href="#mfa9b0ffde7" x="602.225522" y="303.778785" style="stroke: #000000"/>
     <use xlink:href="#mfa9b0ffde7" x="607.76689" y="298.793683" style="stroke: #000000"/>
     <use xlink:href="#mfa9b0ffde7" x="613.308258" y="293.794714" style="stroke: #000000"/>
     <use xlink:href="#mfa9b0ffde7" x="618.849627" y="288.783207" style="stroke: #000000"/>
     <use xlink:href="#mfa9b0ffde7" x="624.390995" y="283.759981" style="stroke: #000000"/>
     <use xlink:href="#mfa9b0ffde7" x="629.932363" y="278.724075" style="stroke: #000000"/>
     <use xlink:href="#mfa9b0ffde7" x="635.473731" y="273.66672" style="stroke: #000000"/>
     <use xlink:href="#mfa9b0ffde7" x="641.015099" y="268.530779" style="stroke: #000000"/>
     <use xlink:href="#mfa9b0ffde7" x="646.556467" y="261.44" style="stroke: #000000"/>
    </g>
   </g>
   <g id="line2d_27">
    <path d="M 97.961022 261.44 
L 103.50239 256.292676 
L 109.043759 247.645443 
L 114.585127 252.557716 
L 120.126495 243.356675 
L 125.667863 225.949727 
L 131.209231 238.848358 
L 136.750599 234.980179 
L 142.291967 206.561299 
L 147.833335 219.536043 
L 153.374704 226.70709 
L 158.916072 192.026935 
L 164.45744 197.789998 
L 169.998808 215.22529 
L 175.540176 181.139978 
L 181.081544 177.246653 
L 186.622912 200.463332 
L 192.16428 171.243174 
L 197.705649 159.332945 
L 203.247017 184.303757 
L 208.788385 160.76234 
L 214.329753 143.471107 
L 219.871121 168.406679 
L 225.412489 149.6873 
L 230.953857 128.641456 
L 236.495226 153.382415 
L 242.036594 138.692459 
L 247.577962 114.327507 
L 253.11933 139.191238 
L 258.660698 128.387475 
L 264.202066 100.52945 
L 269.743434 125.713979 
L 275.284802 119.169317 
L 280.826171 87.466116 
L 286.367539 113.004015 
L 291.908907 111.393364 
L 297.450275 75.384896 
L 302.991643 101.319336 
L 308.533011 105.604184 
L 314.074379 64.504932 
L 319.615748 91.14437 
L 325.157116 102.856871 
L 330.698484 54.947788 
L 336.239852 83.37676 
L 341.78122 105.58322 
L 347.322588 46.189241 
L 352.863956 80.371084 
L 358.405324 121.907362 
L 363.946693 30.312727 
L 369.488061 112.811573 
L 375.029429 410.068427 
L 380.570797 492.567273 
L 386.112165 400.972638 
L 391.653533 442.508916 
L 397.194901 476.690759 
L 402.736269 417.29678 
L 408.277638 439.50324 
L 413.819006 467.932212 
L 419.360374 420.023129 
L 424.901742 431.73563 
L 430.44311 458.375068 
L 435.984478 417.275816 
L 441.525846 421.560664 
L 447.067215 447.495104 
L 452.608583 411.486636 
L 458.149951 409.875985 
L 463.691319 435.413884 
L 469.232687 403.710683 
L 474.774055 397.166021 
L 480.315423 422.35055 
L 485.856791 394.492525 
L 491.39816 383.688762 
L 496.939528 408.552493 
L 502.480896 384.187541 
L 508.022264 369.497585 
L 513.563632 394.238544 
L 519.105 373.1927 
L 524.646368 354.473321 
L 530.187737 379.408893 
L 535.729105 362.11766 
L 541.270473 338.576243 
L 546.811841 363.547055 
L 552.353209 351.636826 
L 557.894577 322.416668 
L 563.435945 345.633347 
L 568.977313 341.740022 
L 574.518682 307.65471 
L 580.06005 325.090002 
L 585.601418 330.853065 
L 591.142786 296.17291 
L 596.684154 303.343957 
L 602.225522 316.318701 
L 607.76689 287.899821 
L 613.308258 284.031642 
L 618.849627 296.930273 
L 624.390995 279.523325 
L 629.932363 270.322284 
L 635.473731 275.234557 
L 641.015099 266.587324 
L 646.556467 261.44 
" clip-path="url(#p43a9928073)" style="fill: none; stroke: #a80000; stroke-width: 3; stroke-linecap: square"/>
   </g>
   <g id="line2d_28">
    <path d="M 102.246924 260.395479 
L 110.818728 251.844944 
L 119.390532 243.481033 
L 127.962336 235.276763 
L 136.534139 227.208804 
L 145.105943 219.25748 
L 153.677747 211.406772 
L 162.249551 203.644313 
L 170.821355 195.961393 
L 179.393159 188.352953 
L 187.964962 180.817591 
L 196.536766 173.35756 
L 205.10857 165.978767 
L 213.680374 158.690772 
L 222.252178 151.50679 
L 230.823982 144.443693 
L 239.395785 137.522004 
L 247.967589 130.765904 
L 256.539393 124.203225 
L 265.111197 117.865456 
L 273.683001 111.787739 
L 282.254805 106.008872 
L 290.826608 100.571306 
L 299.398412 95.521149 
L 307.970216 90.908159 
L 316.54202 86.785754 
L 325.113824 83.211002 
L 333.685628 80.244629 
L 342.257431 77.951012 
L 350.829235 76.398185 
L 359.401039 75.657836 
L 367.972843 75.805308 
L 376.544647 447.074692 
L 385.116451 447.222164 
L 393.688254 446.481815 
L 402.260058 444.928988 
L 410.831862 442.635371 
L 419.403666 439.668998 
L 427.97547 436.094246 
L 436.547273 431.971841 
L 445.119077 427.358851 
L 453.690881 422.308694 
L 462.262685 416.871128 
L 470.834489 411.092261 
L 479.406293 405.014544 
L 487.978096 398.676775 
L 496.5499 392.114096 
L 505.121704 385.357996 
L 513.693508 378.436307 
L 522.265312 371.37321 
L 530.837116 364.189228 
L 539.408919 356.901233 
L 547.980723 349.52244 
L 556.552527 342.062409 
L 565.124331 334.527047 
L 573.696135 326.918607 
L 582.267939 319.235687 
L 590.839742 311.473228 
L 599.411546 303.62252 
L 607.98335 295.671196 
L 616.555154 287.603237 
L 625.126958 279.398967 
L 633.698762 271.035056 
L 642.270565 262.484521 
" clip-path="url(#p43a9928073)" style="fill: none; stroke: #1f77b4; stroke-width: 3; stroke-linecap: square"/>
   </g>
   <g id="patch_3">
    <path d="M 70.53125 515.68 
L 70.53125 7.2 
" style="fill: none; stroke: #000000; stroke-width: 1.5; stroke-linejoin: miter; stroke-linecap: square"/>
   </g>
   <g id="patch_4">
    <path d="M 673.98624 515.68 
L 673.98624 7.2 
" style="fill: none; stroke: #000000; stroke-width: 1.5; stroke-linejoin: miter; stroke-linecap: square"/>
   </g>
   <g id="patch_5">
    <path d="M 70.53125 515.68 
L 673.98624 515.68 
" style="fill: none; stroke: #000000; stroke-width: 1.5; stroke-linejoin: miter; stroke-linecap: square"/>
   </g>
   <g id="patch_6">
    <path d="M 70.53125 7.2 
L 673.98624 7.2 
" style="fill: none; stroke: #000000; stroke-width: 1.5; stroke-linejoin: miter; stroke-linecap: square"/>
   </g>
   <g id="legend_1">
    <g id="patch_7">
     <path d="M 577.697177 74.1125 
L 666.98624 74.1125 
Q 668.98624 74.1125 668.98624 72.1125 
L 668.98624 14.2 
Q 668.98624 12.2 666.98624 12.2 
L 577.697177 12.2 
Q 575.697177 12.2 575.697177 14.2 
L 575.697177 72.1125 
Q 575.697177 74.1125 577.697177 74.1125 
z
" style="fill: #ffffff; opacity: 0.8; stroke: #cccccc; stroke-linejoin: miter"/>
    </g>
    <g id="line2d_29">
     <path d="M 579.697177 20.259375 
L 589.697177 20.259375 
L 599.697177 20.259375 
" style="fill: none; stroke: #000000; stroke-linecap: square"/>
    </g>
    <g id="text_15">
     <!-- Init -->
     <g transform="translate(607.697177 23.759375) scale(0.1 -0.1)">
      <defs>
       <path id="Georgia-49" d="M 2244 0 
L 247 0 
L 247 222 
Q 331 228 490 240 
Q 650 253 716 278 
Q 819 319 866 389 
Q 913 459 913 584 
L 913 3797 
Q 913 3906 878 3979 
Q 844 4053 716 4103 
Q 622 4141 480 4173 
Q 338 4206 247 4213 
L 247 4434 
L 2244 4434 
L 2244 4213 
Q 2147 4209 2012 4189 
Q 1878 4169 1778 4138 
Q 1659 4100 1618 4015 
Q 1578 3931 1578 3828 
L 1578 619 
Q 1578 516 1623 436 
Q 1669 356 1778 309 
Q 1844 284 1992 254 
Q 2141 225 2244 222 
L 2244 0 
z
" transform="scale(0.015625)"/>
       <path id="Georgia-6e" d="M 3628 0 
L 2119 0 
L 2119 206 
Q 2191 213 2277 219 
Q 2363 225 2419 244 
Q 2506 272 2548 342 
Q 2591 413 2591 525 
L 2591 2109 
Q 2591 2438 2436 2616 
Q 2281 2794 2059 2794 
Q 1894 2794 1756 2742 
Q 1619 2691 1513 2616 
Q 1409 2544 1348 2461 
Q 1288 2378 1259 2328 
L 1259 556 
Q 1259 450 1303 381 
Q 1347 313 1434 275 
Q 1500 244 1576 228 
Q 1653 213 1734 206 
L 1734 0 
L 225 0 
L 225 206 
Q 297 213 373 219 
Q 450 225 506 244 
Q 594 272 636 342 
Q 678 413 678 525 
L 678 2428 
Q 678 2534 633 2623 
Q 588 2713 506 2769 
Q 447 2806 365 2823 
Q 284 2841 191 2847 
L 191 3050 
L 1216 3119 
L 1259 3075 
L 1259 2641 
L 1275 2641 
Q 1350 2716 1462 2820 
Q 1575 2925 1675 2991 
Q 1791 3066 1950 3116 
Q 2109 3166 2309 3166 
Q 2753 3166 2967 2889 
Q 3181 2613 3181 2153 
L 3181 550 
Q 3181 441 3218 373 
Q 3256 306 3347 269 
Q 3422 238 3476 225 
Q 3531 213 3628 206 
L 3628 0 
z
" transform="scale(0.015625)"/>
       <path id="Georgia-69" d="M 1722 0 
L 231 0 
L 231 206 
Q 303 213 379 219 
Q 456 225 513 244 
Q 600 272 642 342 
Q 684 413 684 525 
L 684 2428 
Q 684 2528 639 2611 
Q 594 2694 513 2750 
Q 453 2788 340 2814 
Q 228 2841 134 2847 
L 134 3050 
L 1222 3119 
L 1266 3075 
L 1266 563 
Q 1266 453 1308 381 
Q 1350 309 1441 275 
Q 1509 247 1575 230 
Q 1641 213 1722 206 
L 1722 0 
z
M 1328 4334 
Q 1328 4156 1211 4023 
Q 1094 3891 922 3891 
Q 763 3891 645 4017 
Q 528 4144 528 4306 
Q 528 4478 645 4606 
Q 763 4734 922 4734 
Q 1100 4734 1214 4614 
Q 1328 4494 1328 4334 
z
" transform="scale(0.015625)"/>
       <path id="Georgia-74" d="M 2128 134 
Q 1925 50 1744 -8 
Q 1563 -66 1300 -66 
Q 913 -66 755 129 
Q 597 325 597 681 
L 597 2769 
L 41 2769 
L 41 3069 
L 609 3069 
L 609 4028 
L 1178 4028 
L 1178 3069 
L 2063 3069 
L 2063 2769 
L 1184 2769 
L 1184 1047 
Q 1184 853 1198 723 
Q 1213 594 1266 497 
Q 1316 406 1416 359 
Q 1516 313 1684 313 
Q 1763 313 1914 327 
Q 2066 341 2128 363 
L 2128 134 
z
" transform="scale(0.015625)"/>
      </defs>
      <use xlink:href="#Georgia-49"/>
      <use xlink:href="#Georgia-6e" x="38.964844"/>
      <use xlink:href="#Georgia-69" x="98.046875"/>
      <use xlink:href="#Georgia-74" x="127.34375"/>
     </g>
    </g>
    <g id="line2d_30">
     <g>
      <use xlink:href="#mfa9b0ffde7" x="589.697177" y="34.9875" style="stroke: #000000"/>
     </g>
    </g>
    <g id="text_16">
     <!-- Exact -->
     <g transform="translate(607.697177 38.4875) scale(0.1 -0.1)">
      <defs>
       <path id="Georgia-45" d="M 4034 1306 
L 3950 0 
L 269 0 
L 269 222 
Q 363 228 519 248 
Q 675 269 722 291 
Q 822 338 861 413 
Q 900 488 900 603 
L 900 3791 
Q 900 3894 865 3973 
Q 831 4053 722 4103 
Q 638 4144 495 4175 
Q 353 4206 269 4213 
L 269 4434 
L 3700 4434 
L 3700 3366 
L 3466 3366 
Q 3403 3603 3195 3870 
Q 2988 4138 2800 4163 
Q 2703 4175 2568 4181 
Q 2434 4188 2263 4188 
L 1566 4188 
L 1566 2425 
L 2066 2425 
Q 2306 2425 2417 2470 
Q 2528 2516 2613 2622 
Q 2681 2713 2729 2864 
Q 2778 3016 2794 3150 
L 3028 3150 
L 3028 1416 
L 2794 1416 
Q 2781 1566 2726 1733 
Q 2672 1900 2613 1975 
Q 2516 2097 2392 2134 
Q 2269 2172 2066 2172 
L 1566 2172 
L 1566 841 
Q 1566 641 1594 525 
Q 1622 409 1703 350 
Q 1784 291 1925 273 
Q 2066 256 2325 256 
Q 2428 256 2597 256 
Q 2766 256 2881 269 
Q 3000 281 3126 314 
Q 3253 347 3306 403 
Q 3450 553 3608 858 
Q 3766 1163 3809 1306 
L 4034 1306 
z
" transform="scale(0.015625)"/>
       <path id="Georgia-78" d="M 3194 0 
L 1781 0 
L 1781 206 
Q 1922 222 2020 237 
Q 2119 253 2119 319 
Q 2119 347 2087 406 
Q 2056 466 2025 516 
Q 1947 638 1811 842 
Q 1675 1047 1478 1331 
Q 1316 1128 1178 936 
Q 1041 744 891 528 
Q 869 497 845 450 
Q 822 403 822 375 
Q 822 306 911 261 
Q 1000 216 1178 200 
L 1178 0 
L 38 0 
L 38 194 
Q 250 256 379 345 
Q 509 434 619 566 
Q 716 691 889 909 
Q 1063 1128 1338 1503 
Q 1178 1731 948 2061 
Q 719 2391 569 2609 
Q 488 2728 383 2801 
Q 278 2875 88 2875 
L 88 3081 
L 1428 3081 
L 1428 2875 
Q 1328 2875 1231 2862 
Q 1134 2850 1134 2806 
Q 1134 2778 1153 2743 
Q 1172 2709 1200 2669 
Q 1269 2563 1414 2341 
Q 1559 2119 1728 1872 
Q 1838 2022 1983 2222 
Q 2128 2422 2250 2603 
Q 2263 2625 2275 2658 
Q 2288 2691 2288 2722 
Q 2288 2788 2180 2827 
Q 2072 2866 1975 2881 
L 1975 3081 
L 3113 3081 
L 3113 2888 
Q 2872 2825 2737 2739 
Q 2603 2653 2509 2541 
Q 2406 2413 2264 2225 
Q 2122 2038 1866 1700 
Q 2150 1300 2328 1044 
Q 2506 788 2688 516 
Q 2778 378 2889 298 
Q 3000 219 3194 206 
L 3194 0 
z
" transform="scale(0.015625)"/>
       <path id="Georgia-61" d="M 3144 56 
Q 2997 3 2886 -30 
Q 2775 -63 2634 -63 
Q 2391 -63 2245 51 
Q 2100 166 2059 384 
L 2041 384 
Q 1838 159 1605 40 
Q 1372 -78 1044 -78 
Q 697 -78 473 134 
Q 250 347 250 691 
Q 250 869 300 1009 
Q 350 1150 450 1263 
Q 528 1356 656 1429 
Q 784 1503 897 1547 
Q 1038 1600 1467 1744 
Q 1897 1888 2047 1969 
L 2047 2278 
Q 2047 2319 2030 2434 
Q 2013 2550 1956 2653 
Q 1894 2769 1780 2855 
Q 1666 2941 1456 2941 
Q 1313 2941 1189 2892 
Q 1066 2844 1016 2791 
Q 1016 2728 1045 2606 
Q 1075 2484 1075 2381 
Q 1075 2272 976 2181 
Q 878 2091 703 2091 
Q 547 2091 473 2202 
Q 400 2313 400 2450 
Q 400 2594 501 2725 
Q 603 2856 766 2959 
Q 906 3047 1106 3108 
Q 1306 3169 1497 3169 
Q 1759 3169 1954 3133 
Q 2150 3097 2309 2978 
Q 2469 2863 2551 2664 
Q 2634 2466 2634 2153 
Q 2634 1706 2625 1361 
Q 2616 1016 2616 606 
Q 2616 484 2658 412 
Q 2700 341 2788 291 
Q 2834 263 2936 259 
Q 3038 256 3144 256 
L 3144 56 
z
M 2053 1706 
Q 1788 1628 1588 1553 
Q 1388 1478 1216 1366 
Q 1059 1259 968 1114 
Q 878 969 878 769 
Q 878 509 1014 387 
Q 1150 266 1359 266 
Q 1581 266 1750 373 
Q 1919 481 2034 628 
L 2053 1706 
z
" transform="scale(0.015625)"/>
       <path id="Georgia-63" d="M 1650 -81 
Q 981 -81 603 362 
Q 225 806 225 1553 
Q 225 1878 326 2161 
Q 428 2444 622 2675 
Q 806 2897 1084 3033 
Q 1363 3169 1691 3169 
Q 2144 3169 2428 2951 
Q 2713 2734 2713 2359 
Q 2713 2203 2638 2083 
Q 2563 1963 2391 1963 
Q 2206 1963 2104 2056 
Q 2003 2150 2003 2266 
Q 2003 2406 2040 2554 
Q 2078 2703 2084 2772 
Q 2028 2869 1917 2901 
Q 1806 2934 1678 2934 
Q 1528 2934 1392 2870 
Q 1256 2806 1128 2634 
Q 1013 2478 941 2212 
Q 869 1947 869 1578 
Q 869 997 1126 630 
Q 1384 263 1803 263 
Q 2106 263 2311 409 
Q 2516 556 2691 850 
L 2891 719 
Q 2684 350 2346 134 
Q 2009 -81 1650 -81 
z
" transform="scale(0.015625)"/>
      </defs>
      <use xlink:href="#Georgia-45"/>
      <use xlink:href="#Georgia-78" x="65.332031"/>
      <use xlink:href="#Georgia-61" x="115.820312"/>
      <use xlink:href="#Georgia-63" x="166.210938"/>
      <use xlink:href="#Georgia-74" x="211.621094"/>
     </g>
    </g>
    <g id="line2d_31">
     <path d="M 579.697177 49.715625 
L 589.697177 49.715625 
L 599.697177 49.715625 
" style="fill: none; stroke: #a80000; stroke-width: 3; stroke-linecap: square"/>
    </g>
    <g id="text_17">
     <!-- 64, t=1.3 -->
     <g transform="translate(607.697177 53.215625) scale(0.1 -0.1)">
      <defs>
       <path id="Georgia-2c" d="M 1341 109 
Q 1341 -116 1239 -316 
Q 1138 -516 1006 -659 
Q 872 -809 722 -925 
Q 572 -1041 447 -1106 
L 303 -897 
Q 453 -803 572 -709 
Q 691 -616 766 -522 
Q 859 -413 925 -284 
Q 991 -156 1009 6 
L 850 6 
Q 641 6 523 115 
Q 406 225 406 409 
Q 406 541 512 664 
Q 619 788 803 788 
Q 1072 788 1206 608 
Q 1341 428 1341 109 
z
" transform="scale(0.015625)"/>
       <path id="Georgia-20" transform="scale(0.015625)"/>
       <path id="Georgia-3d" d="M 3634 2134 
L 481 2134 
L 481 2525 
L 3634 2525 
L 3634 2134 
z
M 3634 972 
L 481 972 
L 481 1363 
L 3634 1363 
L 3634 972 
z
" transform="scale(0.015625)"/>
      </defs>
      <use xlink:href="#Georgia-36"/>
      <use xlink:href="#Georgia-34" x="56.591797"/>
      <use xlink:href="#Georgia-2c" x="113.085938"/>
      <use xlink:href="#Georgia-20" x="140.039062"/>
      <use xlink:href="#Georgia-74" x="164.160156"/>
      <use xlink:href="#Georgia-3d" x="198.681641"/>
      <use xlink:href="#Georgia-31" x="262.988281"/>
      <use xlink:href="#Georgia-2e" x="305.957031"/>
      <use xlink:href="#Georgia-33" x="332.910156"/>
     </g>
    </g>
    <g id="line2d_32">
     <path d="M 579.697177 64.44375 
L 589.697177 64.44375 
L 599.697177 64.44375 
" style="fill: none; stroke: #1f77b4; stroke-width: 3; stroke-linecap: square"/>
    </g>
    <g id="text_18">
     <!-- 64, t=1.3,ggb -->
     <g transform="translate(607.697177 67.94375) scale(0.1 -0.1)">
      <defs>
       <path id="Georgia-67" d="M 2866 319 
Q 2991 200 3062 50 
Q 3134 -100 3134 -322 
Q 3134 -544 3037 -739 
Q 2941 -934 2744 -1078 
Q 2534 -1225 2243 -1306 
Q 1953 -1388 1525 -1388 
Q 825 -1388 478 -1183 
Q 131 -978 131 -584 
Q 131 -266 381 -81 
Q 631 103 1019 119 
L 1019 163 
Q 925 191 825 233 
Q 725 275 653 331 
Q 572 397 522 486 
Q 472 575 472 706 
Q 472 872 589 1011 
Q 706 1150 944 1250 
L 944 1297 
Q 644 1438 478 1658 
Q 313 1878 313 2169 
Q 313 2606 639 2887 
Q 966 3169 1475 3169 
Q 1616 3169 1755 3141 
Q 1894 3113 2038 3069 
L 3113 3069 
L 3113 2769 
L 2388 2769 
L 2388 2750 
Q 2503 2616 2559 2453 
Q 2616 2291 2616 2134 
Q 2616 1728 2286 1447 
Q 1956 1166 1519 1166 
L 1141 1166 
Q 1069 1141 991 1075 
Q 913 1009 913 897 
Q 913 781 978 720 
Q 1044 659 1138 638 
Q 1228 613 1348 606 
Q 1469 600 1597 597 
Q 1734 594 1973 578 
Q 2213 563 2313 559 
Q 2456 553 2601 490 
Q 2747 428 2866 319 
z
M 2022 2147 
Q 2022 2513 1873 2730 
Q 1725 2947 1456 2947 
Q 1309 2947 1204 2886 
Q 1100 2825 1034 2713 
Q 972 2609 945 2464 
Q 919 2319 919 2166 
Q 919 1819 1070 1600 
Q 1222 1381 1463 1381 
Q 1731 1381 1876 1598 
Q 2022 1816 2022 2147 
z
M 2622 -438 
Q 2622 -263 2540 -150 
Q 2459 -38 2294 3 
Q 2206 16 1934 31 
Q 1663 47 1303 47 
Q 966 -19 823 -173 
Q 681 -328 681 -572 
Q 681 -681 728 -781 
Q 775 -881 891 -966 
Q 1000 -1047 1184 -1098 
Q 1369 -1150 1634 -1150 
Q 2094 -1150 2358 -973 
Q 2622 -797 2622 -438 
z
" transform="scale(0.015625)"/>
       <path id="Georgia-62" d="M 3353 1544 
Q 3353 850 2915 378 
Q 2478 -94 1900 -94 
Q 1647 -94 1401 -15 
Q 1156 63 941 194 
L 709 -166 
L 516 -122 
Q 531 109 537 434 
Q 544 759 544 1063 
L 544 4113 
Q 544 4219 495 4325 
Q 447 4431 372 4478 
Q 313 4519 173 4539 
Q 34 4559 -50 4566 
L -50 4766 
L 1081 4838 
L 1125 4791 
L 1125 2759 
L 1147 2753 
Q 1341 2959 1570 3062 
Q 1800 3166 2022 3166 
Q 2591 3166 2972 2716 
Q 3353 2266 3353 1544 
z
M 2700 1522 
Q 2700 1753 2650 1993 
Q 2600 2234 2494 2413 
Q 2388 2594 2216 2706 
Q 2044 2819 1803 2819 
Q 1584 2819 1420 2733 
Q 1256 2647 1125 2500 
L 1125 706 
Q 1144 631 1198 531 
Q 1253 431 1347 341 
Q 1441 253 1559 198 
Q 1678 144 1850 144 
Q 2231 144 2465 512 
Q 2700 881 2700 1522 
z
" transform="scale(0.015625)"/>
      </defs>
      <use xlink:href="#Georgia-36"/>
      <use xlink:href="#Georgia-34" x="56.591797"/>
      <use xlink:href="#Georgia-2c" x="113.085938"/>
      <use xlink:href="#Georgia-20" x="140.039062"/>
      <use xlink:href="#Georgia-74" x="164.160156"/>
      <use xlink:href="#Georgia-3d" x="198.681641"/>
      <use xlink:href="#Georgia-31" x="262.988281"/>
      <use xlink:href="#Georgia-2e" x="305.957031"/>
      <use xlink:href="#Georgia-33" x="332.910156"/>
      <use xlink:href="#Georgia-2c" x="388.085938"/>
      <use xlink:href="#Georgia-67" x="415.039062"/>
      <use xlink:href="#Georgia-67" x="465.966797"/>
      <use xlink:href="#Georgia-62" x="516.894531"/>
     </g>
    </g>
   </g>
  </g>
  <g id="axes_2">
   <g id="patch_8">
    <path d="M 752.214254 515.68 
L 993.59625 515.68 
L 993.59625 7.2 
L 752.214254 7.2 
L 752.214254 515.68 
z
" style="fill: none"/>
   </g>
   <g id="matplotlib.axis_3">
    <g id="xtick_8">
     <g id="line2d_33">
      <g>
       <use xlink:href="#mcfa90071b9" x="763.186163" y="515.68" style="stroke: #000000; stroke-width: 0.8"/>
      </g>
     </g>
     <g id="text_19">
      <!-- 0 -->
      <g transform="translate(758.276163 534.775) scale(0.16 -0.16)">
       <use xlink:href="#Georgia-30"/>
      </g>
     </g>
    </g>
    <g id="xtick_9">
     <g id="line2d_34">
      <g>
       <use xlink:href="#mcfa90071b9" x="833.035505" y="515.68" style="stroke: #000000; stroke-width: 0.8"/>
      </g>
     </g>
     <g id="text_20">
      <!-- 2 -->
      <g transform="translate(828.566755 534.775) scale(0.16 -0.16)">
       <use xlink:href="#Georgia-32"/>
      </g>
     </g>
    </g>
    <g id="xtick_10">
     <g id="line2d_35">
      <g>
       <use xlink:href="#mcfa90071b9" x="902.884846" y="515.68" style="stroke: #000000; stroke-width: 0.8"/>
      </g>
     </g>
     <g id="text_21">
      <!-- 4 -->
      <g transform="translate(898.364846 534.775) scale(0.16 -0.16)">
       <use xlink:href="#Georgia-34"/>
      </g>
     </g>
    </g>
    <g id="xtick_11">
     <g id="line2d_36">
      <g>
       <use xlink:href="#mcfa90071b9" x="972.734187" y="515.68" style="stroke: #000000; stroke-width: 0.8"/>
      </g>
     </g>
     <g id="text_22">
      <!-- 6 -->
      <g transform="translate(968.206687 534.775) scale(0.16 -0.16)">
       <use xlink:href="#Georgia-36"/>
      </g>
     </g>
    </g>
    <g id="text_23">
     <!-- $k$ -->
     <g transform="translate(867.105252 557.36375) scale(0.2 -0.2)">
      <defs>
       <path id="DejaVuSans-Oblique-6b" d="M 1172 4863 
L 1747 4863 
L 1197 2028 
L 3169 3500 
L 3916 3500 
L 1716 1825 
L 3322 0 
L 2625 0 
L 1131 1709 
L 800 0 
L 225 0 
L 1172 4863 
z
" transform="scale(0.015625)"/>
      </defs>
      <use xlink:href="#DejaVuSans-Oblique-6b" transform="translate(0 0.015625)"/>
     </g>
    </g>
   </g>
   <g id="matplotlib.axis_4">
    <g id="ytick_6">
     <g id="line2d_37">
      <g>
       <use xlink:href="#m59e3de5b28" x="752.214254" y="478.994928" style="stroke: #000000; stroke-width: 0.8"/>
      </g>
     </g>
     <g id="text_24">
      <!-- $\mathdefault{10^{-15}}$ -->
      <g transform="translate(710.014254 485.042428) scale(0.16 -0.16)">
       <use xlink:href="#Georgia-31" transform="translate(0 0.534375)"/>
       <use xlink:href="#Georgia-30" transform="translate(42.96875 0.534375)"/>
       <use xlink:href="#Georgia-2212" transform="translate(105.188164 34.232813) scale(0.7)"/>
       <use xlink:href="#Georgia-31" transform="translate(150.202812 34.232813) scale(0.7)"/>
       <use xlink:href="#Georgia-35" transform="translate(180.280937 34.232813) scale(0.7)"/>
      </g>
     </g>
    </g>
    <g id="ytick_7">
     <g id="line2d_38">
      <g>
       <use xlink:href="#m59e3de5b28" x="752.214254" y="417.090503" style="stroke: #000000; stroke-width: 0.8"/>
      </g>
     </g>
     <g id="text_25">
      <!-- $\mathdefault{10^{-13}}$ -->
      <g transform="translate(709.694254 423.138003) scale(0.16 -0.16)">
       <use xlink:href="#Georgia-31" transform="translate(0 0.534375)"/>
       <use xlink:href="#Georgia-30" transform="translate(42.96875 0.534375)"/>
       <use xlink:href="#Georgia-2212" transform="translate(105.188164 34.232813) scale(0.7)"/>
       <use xlink:href="#Georgia-31" transform="translate(150.202812 34.232813) scale(0.7)"/>
       <use xlink:href="#Georgia-33" transform="translate(180.280937 34.232813) scale(0.7)"/>
      </g>
     </g>
    </g>
    <g id="ytick_8">
     <g id="line2d_39">
      <g>
       <use xlink:href="#m59e3de5b28" x="752.214254" y="355.186077" style="stroke: #000000; stroke-width: 0.8"/>
      </g>
     </g>
     <g id="text_26">
      <!-- $\mathdefault{10^{-11}}$ -->
      <g transform="translate(711.134254 361.233577) scale(0.16 -0.16)">
       <use xlink:href="#Georgia-31" transform="translate(0 0.534375)"/>
       <use xlink:href="#Georgia-30" transform="translate(42.96875 0.534375)"/>
       <use xlink:href="#Georgia-2212" transform="translate(105.188164 34.232813) scale(0.7)"/>
       <use xlink:href="#Georgia-31" transform="translate(150.202812 34.232813) scale(0.7)"/>
       <use xlink:href="#Georgia-31" transform="translate(180.280937 34.232813) scale(0.7)"/>
      </g>
     </g>
    </g>
    <g id="ytick_9">
     <g id="line2d_40">
      <g>
       <use xlink:href="#m59e3de5b28" x="752.214254" y="293.281652" style="stroke: #000000; stroke-width: 0.8"/>
      </g>
     </g>
     <g id="text_27">
      <!-- $\mathdefault{10^{-9}}$ -->
      <g transform="translate(714.334254 299.329152) scale(0.16 -0.16)">
       <defs>
        <path id="Georgia-39" d="M 3300 1613 
Q 3300 1069 3128 589 
Q 2956 109 2634 -253 
Q 2319 -609 1864 -845 
Q 1409 -1081 847 -1156 
L 791 -875 
L 1072 -825 
Q 1744 -613 2122 -172 
Q 2500 269 2609 947 
Q 2353 728 2098 626 
Q 1844 525 1525 525 
Q 1016 525 639 922 
Q 263 1319 263 1922 
Q 263 2569 698 3012 
Q 1134 3456 1775 3456 
Q 2472 3456 2886 2959 
Q 3300 2463 3300 1613 
z
M 2638 1650 
Q 2638 2381 2398 2795 
Q 2159 3209 1769 3209 
Q 1397 3209 1169 2889 
Q 941 2569 941 2006 
Q 941 1500 1173 1194 
Q 1406 888 1797 888 
Q 2041 888 2244 977 
Q 2447 1066 2622 1263 
Q 2622 1275 2626 1312 
Q 2631 1350 2631 1419 
Q 2631 1463 2634 1525 
Q 2638 1588 2638 1650 
z
" transform="scale(0.015625)"/>
       </defs>
       <use xlink:href="#Georgia-31" transform="translate(0 0.501563)"/>
       <use xlink:href="#Georgia-30" transform="translate(42.96875 0.501563)"/>
       <use xlink:href="#Georgia-2212" transform="translate(105.188164 34.2) scale(0.7)"/>
       <use xlink:href="#Georgia-39" transform="translate(150.202812 34.2) scale(0.7)"/>
      </g>
     </g>
    </g>
    <g id="ytick_10">
     <g id="line2d_41">
      <g>
       <use xlink:href="#m59e3de5b28" x="752.214254" y="231.377226" style="stroke: #000000; stroke-width: 0.8"/>
      </g>
     </g>
     <g id="text_28">
      <!-- $\mathdefault{10^{-7}}$ -->
      <g transform="translate(715.134254 237.424726) scale(0.16 -0.16)">
       <defs>
        <path id="Georgia-37" d="M 3216 3150 
L 988 -1141 
L 597 -1141 
L 2694 2828 
L 1466 2828 
Q 1194 2828 1041 2822 
Q 888 2816 759 2763 
Q 663 2722 586 2555 
Q 509 2388 469 2128 
L 278 2128 
L 278 3353 
L 3216 3353 
L 3216 3150 
z
" transform="scale(0.015625)"/>
       </defs>
       <use xlink:href="#Georgia-31" transform="translate(0 0.628125)"/>
       <use xlink:href="#Georgia-30" transform="translate(42.96875 0.628125)"/>
       <use xlink:href="#Georgia-2212" transform="translate(105.188164 34.326563) scale(0.7)"/>
       <use xlink:href="#Georgia-37" transform="translate(150.202812 34.326563) scale(0.7)"/>
      </g>
     </g>
    </g>
    <g id="ytick_11">
     <g id="line2d_42">
      <g>
       <use xlink:href="#m59e3de5b28" x="752.214254" y="169.472801" style="stroke: #000000; stroke-width: 0.8"/>
      </g>
     </g>
     <g id="text_29">
      <!-- $\mathdefault{10^{-5}}$ -->
      <g transform="translate(714.814254 175.520301) scale(0.16 -0.16)">
       <use xlink:href="#Georgia-31" transform="translate(0 0.628125)"/>
       <use xlink:href="#Georgia-30" transform="translate(42.96875 0.628125)"/>
       <use xlink:href="#Georgia-2212" transform="translate(105.188164 34.326563) scale(0.7)"/>
       <use xlink:href="#Georgia-35" transform="translate(150.202812 34.326563) scale(0.7)"/>
      </g>
     </g>
    </g>
    <g id="ytick_12">
     <g id="line2d_43">
      <g>
       <use xlink:href="#m59e3de5b28" x="752.214254" y="107.568375" style="stroke: #000000; stroke-width: 0.8"/>
      </g>
     </g>
     <g id="text_30">
      <!-- $\mathdefault{10^{-3}}$ -->
      <g transform="translate(714.494254 113.615875) scale(0.16 -0.16)">
       <use xlink:href="#Georgia-31" transform="translate(0 0.534375)"/>
       <use xlink:href="#Georgia-30" transform="translate(42.96875 0.534375)"/>
       <use xlink:href="#Georgia-2212" transform="translate(105.188164 34.232813) scale(0.7)"/>
       <use xlink:href="#Georgia-33" transform="translate(150.202812 34.232813) scale(0.7)"/>
      </g>
     </g>
    </g>
    <g id="ytick_13">
     <g id="line2d_44">
      <g>
       <use xlink:href="#m59e3de5b28" x="752.214254" y="45.66395" style="stroke: #000000; stroke-width: 0.8"/>
      </g>
     </g>
     <g id="text_31">
      <!-- $\mathdefault{10^{-1}}$ -->
      <g transform="translate(715.934254 51.71145) scale(0.16 -0.16)">
       <use xlink:href="#Georgia-31" transform="translate(0 0.534375)"/>
       <use xlink:href="#Georgia-30" transform="translate(42.96875 0.534375)"/>
       <use xlink:href="#Georgia-2212" transform="translate(105.188164 34.232813) scale(0.7)"/>
       <use xlink:href="#Georgia-31" transform="translate(150.202812 34.232813) scale(0.7)"/>
      </g>
     </g>
    </g>
    <g id="text_32">
     <!-- $|y-y_{exact}|$ -->
     <g transform="translate(700.894254 311.94) rotate(-90) scale(0.2 -0.2)">
      <defs>
       <path id="DejaVuSans-7c" d="M 1344 4891 
L 1344 -1509 
L 813 -1509 
L 813 4891 
L 1344 4891 
z
" transform="scale(0.015625)"/>
       <path id="DejaVuSans-2212" d="M 678 2272 
L 4684 2272 
L 4684 1741 
L 678 1741 
L 678 2272 
z
" transform="scale(0.015625)"/>
       <path id="DejaVuSans-Oblique-65" d="M 3078 2063 
Q 3088 2113 3092 2166 
Q 3097 2219 3097 2272 
Q 3097 2653 2873 2875 
Q 2650 3097 2266 3097 
Q 1838 3097 1509 2826 
Q 1181 2556 1013 2059 
L 3078 2063 
z
M 3578 1613 
L 903 1613 
Q 884 1494 878 1425 
Q 872 1356 872 1306 
Q 872 872 1139 634 
Q 1406 397 1894 397 
Q 2269 397 2603 481 
Q 2938 566 3225 728 
L 3116 159 
Q 2806 34 2476 -28 
Q 2147 -91 1806 -91 
Q 1078 -91 686 257 
Q 294 606 294 1247 
Q 294 1794 489 2264 
Q 684 2734 1063 3103 
Q 1306 3334 1642 3459 
Q 1978 3584 2356 3584 
Q 2950 3584 3301 3228 
Q 3653 2872 3653 2272 
Q 3653 2128 3634 1964 
Q 3616 1800 3578 1613 
z
" transform="scale(0.015625)"/>
       <path id="DejaVuSans-Oblique-61" d="M 3438 1997 
L 3047 0 
L 2472 0 
L 2578 531 
Q 2325 219 2001 64 
Q 1678 -91 1281 -91 
Q 834 -91 548 182 
Q 263 456 263 884 
Q 263 1497 752 1853 
Q 1241 2209 2100 2209 
L 2900 2209 
L 2931 2363 
Q 2938 2388 2941 2417 
Q 2944 2447 2944 2509 
Q 2944 2788 2717 2942 
Q 2491 3097 2081 3097 
Q 1800 3097 1504 3025 
Q 1209 2953 897 2809 
L 997 3341 
Q 1322 3463 1633 3523 
Q 1944 3584 2234 3584 
Q 2853 3584 3176 3315 
Q 3500 3047 3500 2534 
Q 3500 2431 3484 2292 
Q 3469 2153 3438 1997 
z
M 2816 1759 
L 2241 1759 
Q 1534 1759 1195 1570 
Q 856 1381 856 984 
Q 856 709 1029 553 
Q 1203 397 1509 397 
Q 1978 397 2328 733 
Q 2678 1069 2791 1631 
L 2816 1759 
z
" transform="scale(0.015625)"/>
       <path id="DejaVuSans-Oblique-63" d="M 3431 3366 
L 3316 2797 
Q 3109 2947 2876 3022 
Q 2644 3097 2394 3097 
Q 2119 3097 1870 3000 
Q 1622 2903 1453 2725 
Q 1184 2453 1037 2087 
Q 891 1722 891 1331 
Q 891 859 1127 628 
Q 1363 397 1844 397 
Q 2081 397 2348 469 
Q 2616 541 2906 684 
L 2797 116 
Q 2547 13 2283 -39 
Q 2019 -91 1741 -91 
Q 1044 -91 669 257 
Q 294 606 294 1253 
Q 294 1797 489 2255 
Q 684 2713 1069 3078 
Q 1331 3328 1684 3456 
Q 2038 3584 2456 3584 
Q 2700 3584 2940 3529 
Q 3181 3475 3431 3366 
z
" transform="scale(0.015625)"/>
       <path id="DejaVuSans-Oblique-74" d="M 2706 3500 
L 2619 3053 
L 1472 3053 
L 1100 1153 
Q 1081 1047 1072 975 
Q 1063 903 1063 863 
Q 1063 663 1183 572 
Q 1303 481 1569 481 
L 2150 481 
L 2053 0 
L 1503 0 
Q 991 0 739 200 
Q 488 400 488 806 
Q 488 878 497 964 
Q 506 1050 525 1153 
L 897 3053 
L 409 3053 
L 500 3500 
L 978 3500 
L 1172 4494 
L 1747 4494 
L 1556 3500 
L 2706 3500 
z
" transform="scale(0.015625)"/>
      </defs>
      <use xlink:href="#DejaVuSans-7c" transform="translate(0 0.578125)"/>
      <use xlink:href="#DejaVuSans-Oblique-79" transform="translate(33.691406 0.578125)"/>
      <use xlink:href="#DejaVuSans-2212" transform="translate(112.353516 0.578125)"/>
      <use xlink:href="#DejaVuSans-Oblique-79" transform="translate(215.625 0.578125)"/>
      <use xlink:href="#DejaVuSans-Oblique-65" transform="translate(274.804688 -15.828125) scale(0.7)"/>
      <use xlink:href="#DejaVuSans-Oblique-78" transform="translate(317.871094 -15.828125) scale(0.7)"/>
      <use xlink:href="#DejaVuSans-Oblique-61" transform="translate(359.296875 -15.828125) scale(0.7)"/>
      <use xlink:href="#DejaVuSans-Oblique-63" transform="translate(402.192383 -15.828125) scale(0.7)"/>
      <use xlink:href="#DejaVuSans-Oblique-74" transform="translate(440.678711 -15.828125) scale(0.7)"/>
      <use xlink:href="#DejaVuSans-7c" transform="translate(470.859375 0.578125)"/>
     </g>
    </g>
   </g>
   <g id="line2d_45">
    <path d="M 763.186163 492.567273 
L 765.40271 75.852233 
L 767.619258 78.73926 
L 769.835805 56.1729 
L 772.052352 65.3765 
L 774.268899 56.586752 
L 776.485447 54.154363 
L 778.701994 52.681181 
L 780.918541 50.789606 
L 783.135088 62.103726 
L 785.351636 46.28774 
L 787.568183 51.139412 
L 789.78473 78.969696 
L 792.001277 43.996777 
L 794.217825 56.122875 
L 796.434372 57.724381 
L 798.650919 44.154651 
L 800.867466 66.501261 
L 803.084014 52.478553 
L 805.300561 45.473507 
L 807.517108 103.625611 
L 809.733655 50.401562 
L 811.950203 47.008571 
L 814.16675 72.852343 
L 816.383297 49.181006 
L 818.599844 48.353064 
L 820.816392 63.968312 
L 823.032939 48.058037 
L 825.249486 49.581041 
L 827.466033 58.517781 
L 829.682581 46.900107 
L 831.899128 50.946856 
L 834.115675 54.240099 
L 836.332222 45.732636 
L 838.54877 52.703139 
L 840.765317 50.590851 
L 842.981864 44.526497 
L 845.198411 55.145014 
L 847.414959 47.294137 
L 849.631506 43.133559 
L 851.848053 58.87728 
L 854.0646 44.08239 
L 856.281148 41.209966 
L 858.497695 65.933738 
L 860.714242 40.535532 
L 862.930789 37.926229 
L 865.147337 98.834015 
L 867.363884 35.467078 
L 869.580431 30.312727 
L 871.796978 48.505465 
L 874.013526 48.505465 
L 876.230073 30.312727 
L 878.44662 35.467078 
L 880.663167 98.834015 
L 882.879715 37.926229 
L 885.096262 40.535532 
L 887.312809 65.933738 
L 889.529356 41.209966 
L 891.745904 44.08239 
L 893.962451 58.87728 
L 896.178998 43.133559 
L 898.395545 47.294137 
L 900.612093 55.145014 
L 902.82864 44.526497 
L 905.045187 50.590851 
L 907.261735 52.703139 
L 909.478282 45.732636 
L 911.694829 54.240099 
L 913.911376 50.946856 
L 916.127924 46.900107 
L 918.344471 58.517781 
L 920.561018 49.581041 
L 922.777565 48.058037 
L 924.994113 63.968312 
L 927.21066 48.353064 
L 929.427207 49.181006 
L 931.643754 72.852343 
L 933.860302 47.008571 
L 936.076849 50.401562 
L 938.293396 103.625611 
L 940.509943 45.473507 
L 942.726491 52.478553 
L 944.943038 66.501261 
L 947.159585 44.154651 
L 949.376132 57.724381 
L 951.59268 56.122875 
L 953.809227 43.996777 
L 956.025774 78.969696 
L 958.242321 51.139412 
L 960.458869 46.28774 
L 962.675416 62.103726 
L 964.891963 50.789606 
L 967.10851 52.681181 
L 969.325058 54.154363 
L 971.541605 56.586752 
L 973.758152 65.3765 
L 975.974699 56.1729 
L 978.191247 78.73926 
L 980.407794 75.852233 
L 982.624341 476.728831 
" clip-path="url(#pfa657bdc05)" style="fill: none; stroke: #a80000; stroke-width: 3; stroke-linecap: square"/>
   </g>
   <g id="line2d_46">
    <path d="M 763.186163 84.198722 
L 765.40271 63.715406 
L 767.619258 64.861163 
L 769.835805 66.102311 
L 772.052352 67.355735 
L 774.268899 68.42878 
L 776.485447 69.422751 
L 778.701994 70.371822 
L 780.918541 71.105286 
L 783.135088 71.795742 
L 785.351636 72.437297 
L 787.568183 72.913721 
L 789.78473 73.389617 
L 792.001277 73.831792 
L 794.217825 74.186656 
L 796.434372 74.581656 
L 798.650919 74.961089 
L 800.867466 75.311894 
L 803.084014 75.744471 
L 805.300561 76.153815 
L 807.517108 76.576244 
L 809.733655 77.122312 
L 811.950203 77.581903 
L 814.16675 78.095122 
L 816.383297 78.777668 
L 818.599844 79.211757 
L 820.816392 79.764761 
L 823.032939 80.454459 
L 825.249486 80.750049 
L 827.466033 81.21401 
L 829.682581 81.672674 
L 831.899128 81.665495 
L 834.115675 81.897706 
L 836.332222 81.907919 
L 838.54877 81.550083 
L 840.765317 81.603077 
L 842.981864 81.238237 
L 845.198411 80.874893 
L 847.414959 81.285889 
L 849.631506 81.218987 
L 851.848053 81.999319 
L 854.0646 84.885469 
L 856.281148 88.527473 
L 858.497695 103.47119 
L 860.714242 91.311729 
L 862.930789 76.839848 
L 865.147337 66.849247 
L 867.363884 58.704981 
L 869.580431 51.26744 
L 871.796978 34.074144 
L 874.013526 34.074144 
L 876.230073 51.26744 
L 878.44662 58.704981 
L 880.663167 66.849247 
L 882.879715 76.839848 
L 885.096262 91.311729 
L 887.312809 103.47119 
L 889.529356 88.527473 
L 891.745904 84.885469 
L 893.962451 81.999319 
L 896.178998 81.218987 
L 898.395545 81.285889 
L 900.612093 80.874893 
L 902.82864 81.238237 
L 905.045187 81.603077 
L 907.261735 81.550083 
L 909.478282 81.907919 
L 911.694829 81.897706 
L 913.911376 81.665495 
L 916.127924 81.672674 
L 918.344471 81.21401 
L 920.561018 80.750049 
L 922.777565 80.454459 
L 924.994113 79.764761 
L 927.21066 79.211757 
L 929.427207 78.777668 
L 931.643754 78.095122 
L 933.860302 77.581903 
L 936.076849 77.122312 
L 938.293396 76.576244 
L 940.509943 76.153815 
L 942.726491 75.744471 
L 944.943038 75.311894 
L 947.159585 74.961089 
L 949.376132 74.581656 
L 951.59268 74.186656 
L 953.809227 73.831792 
L 956.025774 73.389617 
L 958.242321 72.913721 
L 960.458869 72.437297 
L 962.675416 71.795742 
L 964.891963 71.105286 
L 967.10851 70.371822 
L 969.325058 69.422751 
L 971.541605 68.42878 
L 973.758152 67.355735 
L 975.974699 66.102311 
L 978.191247 64.861163 
L 980.407794 63.715406 
L 982.624341 84.198722 
" clip-path="url(#pfa657bdc05)" style="fill: none; stroke: #1f77b4; stroke-width: 3; stroke-linecap: square"/>
   </g>
   <g id="patch_9">
    <path d="M 752.214254 515.68 
L 752.214254 7.2 
" style="fill: none; stroke: #000000; stroke-width: 1.5; stroke-linejoin: miter; stroke-linecap: square"/>
   </g>
   <g id="patch_10">
    <path d="M 993.59625 515.68 
L 993.59625 7.2 
" style="fill: none; stroke: #000000; stroke-width: 1.5; stroke-linejoin: miter; stroke-linecap: square"/>
   </g>
   <g id="patch_11">
    <path d="M 752.214254 515.68 
L 993.59625 515.68 
" style="fill: none; stroke: #000000; stroke-width: 1.5; stroke-linejoin: miter; stroke-linecap: square"/>
   </g>
   <g id="patch_12">
    <path d="M 752.214254 7.2 
L 993.59625 7.2 
" style="fill: none; stroke: #000000; stroke-width: 1.5; stroke-linejoin: miter; stroke-linecap: square"/>
   </g>
   <g id="legend_2">
    <g id="patch_13">
     <path d="M 897.307187 510.68 
L 986.59625 510.68 
Q 988.59625 510.68 988.59625 508.68 
L 988.59625 480.22375 
Q 988.59625 478.22375 986.59625 478.22375 
L 897.307187 478.22375 
Q 895.307187 478.22375 895.307187 480.22375 
L 895.307187 508.68 
Q 895.307187 510.68 897.307187 510.68 
z
" style="fill: #ffffff; opacity: 0.8; stroke: #cccccc; stroke-linejoin: miter"/>
    </g>
    <g id="line2d_47">
     <path d="M 899.307187 486.283125 
L 909.307187 486.283125 
L 919.307187 486.283125 
" style="fill: none; stroke: #a80000; stroke-width: 3; stroke-linecap: square"/>
    </g>
    <g id="text_33">
     <!-- 64, t=1.3 -->
     <g transform="translate(927.307187 489.783125) scale(0.1 -0.1)">
      <use xlink:href="#Georgia-36"/>
      <use xlink:href="#Georgia-34" x="56.591797"/>
      <use xlink:href="#Georgia-2c" x="113.085938"/>
      <use xlink:href="#Georgia-20" x="140.039062"/>
      <use xlink:href="#Georgia-74" x="164.160156"/>
      <use xlink:href="#Georgia-3d" x="198.681641"/>
      <use xlink:href="#Georgia-31" x="262.988281"/>
      <use xlink:href="#Georgia-2e" x="305.957031"/>
      <use xlink:href="#Georgia-33" x="332.910156"/>
     </g>
    </g>
    <g id="line2d_48">
     <path d="M 899.307187 501.01125 
L 909.307187 501.01125 
L 919.307187 501.01125 
" style="fill: none; stroke: #1f77b4; stroke-width: 3; stroke-linecap: square"/>
    </g>
    <g id="text_34">
     <!-- 64, t=1.3,ggb -->
     <g transform="translate(927.307187 504.51125) scale(0.1 -0.1)">
      <use xlink:href="#Georgia-36"/>
      <use xlink:href="#Georgia-34" x="56.591797"/>
      <use xlink:href="#Georgia-2c" x="113.085938"/>
      <use xlink:href="#Georgia-20" x="140.039062"/>
      <use xlink:href="#Georgia-74" x="164.160156"/>
      <use xlink:href="#Georgia-3d" x="198.681641"/>
      <use xlink:href="#Georgia-31" x="262.988281"/>
      <use xlink:href="#Georgia-2e" x="305.957031"/>
      <use xlink:href="#Georgia-33" x="332.910156"/>
      <use xlink:href="#Georgia-2c" x="388.085938"/>
      <use xlink:href="#Georgia-67" x="415.039062"/>
      <use xlink:href="#Georgia-67" x="465.966797"/>
      <use xlink:href="#Georgia-62" x="516.894531"/>
     </g>
    </g>
   </g>
  </g>
 </g>
 <defs>
  <clipPath id="p43a9928073">
   <rect x="70.53125" y="7.2" width="603.45499" height="508.48"/>
  </clipPath>
  <clipPath id="pfa657bdc05">
   <rect x="752.214254" y="7.2" width="241.381996" height="508.48"/>
  </clipPath>
 </defs>
</svg>
