<?xml version="1.0" encoding="utf-8" standalone="no"?>
<!DOCTYPE svg PUBLIC "-//W3C//DTD SVG 1.1//EN"
  "http://www.w3.org/Graphics/SVG/1.1/DTD/svg11.dtd">
<svg xmlns:xlink="http://www.w3.org/1999/xlink" width="1000.79625pt" height="568.90125pt" viewBox="0 0 1000.79625 568.90125" xmlns="http://www.w3.org/2000/svg" version="1.1">
 <metadata>
  <rdf:RDF xmlns:dc="http://purl.org/dc/elements/1.1/" xmlns:cc="http://creativecommons.org/ns#" xmlns:rdf="http://www.w3.org/1999/02/22-rdf-syntax-ns#">
   <cc:Work>
    <dc:type rdf:resource="http://purl.org/dc/dcmitype/StillImage"/>
    <dc:date>2023-11-29T03:15:48.610904</dc:date>
    <dc:format>image/svg+xml</dc:format>
    <dc:creator>
     <cc:Agent>
      <dc:title>Matplotlib v3.6.2, https://matplotlib.org/</dc:title>
     </cc:Agent>
    </dc:creator>
   </cc:Work>
  </rdf:RDF>
 </metadata>
 <defs>
  <style type="text/css">*{stroke-linejoin: round; stroke-linecap: butt}</style>
 </defs>
 <g id="figure_1">
  <g id="patch_1">
   <path d="M 0 568.90125 
L 1000.79625 568.90125 
L 1000.79625 0 
L 0 0 
L 0 568.90125 
z
" style="fill: none"/>
  </g>
  <g id="axes_1">
   <g id="patch_2">
    <path d="M 70.53125 515.68 
L 677.23095 515.68 
L 677.23095 7.2 
L 70.53125 7.2 
L 70.53125 515.68 
z
" style="fill: none"/>
   </g>
   <g id="matplotlib.axis_1">
    <g id="xtick_1">
     <g id="line2d_1">
      <path d="M 98.108509 515.68 
L 98.108509 7.2 
" clip-path="url(#p659643293f)" style="fill: none; stroke: #b0b0b0; stroke-width: 0.8; stroke-linecap: square"/>
     </g>
     <g id="line2d_2">
      <defs>
       <path id="m874196e877" d="M 0 0 
L 0 3.5 
" style="stroke: #000000; stroke-width: 0.8"/>
      </defs>
      <g>
       <use xlink:href="#m874196e877" x="98.108509" y="515.68" style="stroke: #000000; stroke-width: 0.8"/>
      </g>
     </g>
     <g id="text_1">
      <!-- 0 -->
      <g transform="translate(93.198509 534.775) scale(0.16 -0.16)">
       <defs>
        <path id="Georgia-30" d="M 3209 2919 
Q 3409 2678 3507 2354 
Q 3606 2031 3606 1678 
Q 3606 1253 3484 917 
Q 3363 581 3150 359 
Q 2931 131 2631 15 
Q 2331 -100 1963 -100 
Q 1559 -100 1243 34 
Q 928 169 731 403 
Q 525 647 423 973 
Q 322 1300 322 1678 
Q 322 2050 420 2362 
Q 519 2675 728 2928 
Q 928 3172 1243 3312 
Q 1559 3453 1966 3453 
Q 2394 3453 2700 3309 
Q 3006 3166 3209 2919 
z
M 2916 1678 
Q 2916 2422 2661 2831 
Q 2406 3241 1969 3241 
Q 1525 3241 1269 2831 
Q 1013 2422 1013 1678 
Q 1013 972 1258 542 
Q 1503 113 1963 113 
Q 2422 113 2669 542 
Q 2916 972 2916 1678 
z
" transform="scale(0.015625)"/>
       </defs>
       <use xlink:href="#Georgia-30"/>
      </g>
     </g>
    </g>
    <g id="xtick_2">
     <g id="line2d_3">
      <path d="M 185.889651 515.68 
L 185.889651 7.2 
" clip-path="url(#p659643293f)" style="fill: none; stroke: #b0b0b0; stroke-width: 0.8; stroke-linecap: square"/>
     </g>
     <g id="line2d_4">
      <g>
       <use xlink:href="#m874196e877" x="185.889651" y="515.68" style="stroke: #000000; stroke-width: 0.8"/>
      </g>
     </g>
     <g id="text_2">
      <!-- 1 -->
      <g transform="translate(182.452151 534.775) scale(0.16 -0.16)">
       <defs>
        <path id="Georgia-31" d="M 2528 0 
L 422 0 
L 422 222 
Q 516 228 714 248 
Q 913 269 988 291 
Q 1084 322 1136 392 
Q 1188 463 1188 603 
L 1188 2797 
L 409 2797 
L 409 3059 
L 581 3059 
Q 919 3059 1186 3184 
Q 1453 3309 1569 3453 
L 1828 3453 
Q 1819 3250 1809 2978 
Q 1800 2706 1800 2491 
L 1800 638 
Q 1800 528 1848 442 
Q 1897 356 1988 316 
Q 2069 281 2253 253 
Q 2438 225 2528 222 
L 2528 0 
z
" transform="scale(0.015625)"/>
       </defs>
       <use xlink:href="#Georgia-31"/>
      </g>
     </g>
    </g>
    <g id="xtick_3">
     <g id="line2d_5">
      <path d="M 273.670793 515.68 
L 273.670793 7.2 
" clip-path="url(#p659643293f)" style="fill: none; stroke: #b0b0b0; stroke-width: 0.8; stroke-linecap: square"/>
     </g>
     <g id="line2d_6">
      <g>
       <use xlink:href="#m874196e877" x="273.670793" y="515.68" style="stroke: #000000; stroke-width: 0.8"/>
      </g>
     </g>
     <g id="text_3">
      <!-- 2 -->
      <g transform="translate(269.202043 534.775) scale(0.16 -0.16)">
       <defs>
        <path id="Georgia-32" d="M 3272 0 
L 344 0 
L 344 425 
Q 428 522 578 642 
Q 728 763 934 903 
Q 1059 988 1234 1088 
Q 1409 1188 1631 1306 
Q 1878 1438 2011 1538 
Q 2144 1638 2253 1784 
Q 2325 1881 2369 2026 
Q 2413 2172 2413 2441 
Q 2413 2831 2203 3014 
Q 1994 3197 1666 3197 
Q 1463 3197 1281 3117 
Q 1100 3038 1009 2897 
Q 1031 2797 1064 2659 
Q 1097 2522 1097 2391 
Q 1097 2272 998 2180 
Q 900 2088 706 2088 
Q 550 2088 465 2195 
Q 381 2303 381 2484 
Q 381 2653 475 2823 
Q 569 2994 744 3138 
Q 916 3278 1169 3365 
Q 1422 3453 1716 3453 
Q 2356 3453 2732 3167 
Q 3109 2881 3109 2403 
Q 3109 2175 3042 1987 
Q 2975 1800 2825 1656 
Q 2659 1497 2437 1383 
Q 2216 1269 1759 1066 
Q 1488 944 1253 811 
Q 1019 678 869 553 
L 3272 553 
L 3272 0 
z
" transform="scale(0.015625)"/>
       </defs>
       <use xlink:href="#Georgia-32"/>
      </g>
     </g>
    </g>
    <g id="xtick_4">
     <g id="line2d_7">
      <path d="M 361.451935 515.68 
L 361.451935 7.2 
" clip-path="url(#p659643293f)" style="fill: none; stroke: #b0b0b0; stroke-width: 0.8; stroke-linecap: square"/>
     </g>
     <g id="line2d_8">
      <g>
       <use xlink:href="#m874196e877" x="361.451935" y="515.68" style="stroke: #000000; stroke-width: 0.8"/>
      </g>
     </g>
     <g id="text_4">
      <!-- 3 -->
      <g transform="translate(357.038185 534.775) scale(0.16 -0.16)">
       <defs>
        <path id="Georgia-33" d="M 1522 -1141 
Q 1228 -1141 984 -1067 
Q 741 -994 566 -869 
Q 391 -744 295 -581 
Q 200 -419 200 -247 
Q 200 -94 275 29 
Q 350 153 516 153 
Q 703 153 801 61 
Q 900 -31 900 -150 
Q 900 -250 867 -403 
Q 834 -556 816 -622 
Q 838 -650 895 -697 
Q 953 -744 1038 -781 
Q 1138 -828 1247 -856 
Q 1356 -884 1556 -884 
Q 1744 -884 1917 -821 
Q 2091 -759 2222 -622 
Q 2359 -478 2436 -286 
Q 2513 -94 2513 219 
Q 2513 388 2477 553 
Q 2441 719 2344 841 
Q 2247 963 2080 1030 
Q 1913 1097 1656 1097 
L 1247 1097 
L 1247 1456 
L 1519 1456 
Q 1950 1456 2140 1693 
Q 2331 1931 2331 2409 
Q 2331 2800 2147 2998 
Q 1963 3197 1625 3197 
Q 1463 3197 1358 3158 
Q 1253 3119 1188 3081 
Q 1109 3038 1059 2984 
Q 1009 2931 984 2906 
Q 1006 2806 1037 2661 
Q 1069 2516 1069 2384 
Q 1069 2269 970 2176 
Q 872 2084 681 2084 
Q 516 2084 439 2203 
Q 363 2322 363 2478 
Q 363 2641 453 2809 
Q 544 2978 722 3125 
Q 900 3272 1156 3362 
Q 1413 3453 1747 3453 
Q 2131 3453 2382 3339 
Q 2634 3225 2778 3063 
Q 2919 2903 2972 2728 
Q 3025 2553 3025 2428 
Q 3025 2272 2981 2114 
Q 2938 1956 2838 1822 
Q 2728 1675 2548 1554 
Q 2369 1434 2097 1359 
L 2097 1309 
Q 2272 1294 2470 1231 
Q 2669 1169 2828 1047 
Q 2994 919 3100 717 
Q 3206 516 3206 206 
Q 3206 -394 2725 -767 
Q 2244 -1141 1522 -1141 
z
" transform="scale(0.015625)"/>
       </defs>
       <use xlink:href="#Georgia-33"/>
      </g>
     </g>
    </g>
    <g id="xtick_5">
     <g id="line2d_9">
      <path d="M 449.233077 515.68 
L 449.233077 7.2 
" clip-path="url(#p659643293f)" style="fill: none; stroke: #b0b0b0; stroke-width: 0.8; stroke-linecap: square"/>
     </g>
     <g id="line2d_10">
      <g>
       <use xlink:href="#m874196e877" x="449.233077" y="515.68" style="stroke: #000000; stroke-width: 0.8"/>
      </g>
     </g>
     <g id="text_5">
      <!-- 4 -->
      <g transform="translate(444.713077 534.775) scale(0.16 -0.16)">
       <defs>
        <path id="Georgia-34" d="M 3388 281 
L 2753 281 
L 2753 -1141 
L 2153 -1141 
L 2153 281 
L 153 281 
L 153 763 
L 2344 3434 
L 2753 3434 
L 2753 691 
L 3388 691 
L 3388 281 
z
M 2153 691 
L 2153 2738 
L 466 691 
L 2153 691 
z
" transform="scale(0.015625)"/>
       </defs>
       <use xlink:href="#Georgia-34"/>
      </g>
     </g>
    </g>
    <g id="xtick_6">
     <g id="line2d_11">
      <path d="M 537.014219 515.68 
L 537.014219 7.2 
" clip-path="url(#p659643293f)" style="fill: none; stroke: #b0b0b0; stroke-width: 0.8; stroke-linecap: square"/>
     </g>
     <g id="line2d_12">
      <g>
       <use xlink:href="#m874196e877" x="537.014219" y="515.68" style="stroke: #000000; stroke-width: 0.8"/>
      </g>
     </g>
     <g id="text_6">
      <!-- 5 -->
      <g transform="translate(532.787969 534.775) scale(0.16 -0.16)">
       <defs>
        <path id="Georgia-35" d="M 2634 1466 
Q 2841 1303 2977 1047 
Q 3113 791 3113 406 
Q 3113 -266 2653 -703 
Q 2194 -1141 1488 -1141 
Q 941 -1141 562 -881 
Q 184 -622 184 -278 
Q 184 -119 262 0 
Q 341 119 503 119 
Q 691 119 789 20 
Q 888 -78 888 -194 
Q 888 -294 853 -444 
Q 819 -594 800 -666 
Q 825 -688 881 -725 
Q 938 -763 1016 -797 
Q 1097 -831 1214 -857 
Q 1331 -884 1488 -884 
Q 1688 -884 1866 -803 
Q 2044 -722 2166 -563 
Q 2300 -388 2367 -164 
Q 2434 59 2434 403 
Q 2434 844 2189 1133 
Q 1944 1422 1544 1422 
Q 1294 1422 1076 1328 
Q 859 1234 688 1016 
L 478 1097 
L 744 3353 
L 2981 3353 
L 2981 2797 
L 997 2797 
L 834 1472 
Q 975 1572 1204 1670 
Q 1434 1769 1709 1769 
Q 1938 1769 2183 1698 
Q 2428 1628 2634 1466 
z
" transform="scale(0.015625)"/>
       </defs>
       <use xlink:href="#Georgia-35"/>
      </g>
     </g>
    </g>
    <g id="xtick_7">
     <g id="line2d_13">
      <path d="M 624.795361 515.68 
L 624.795361 7.2 
" clip-path="url(#p659643293f)" style="fill: none; stroke: #b0b0b0; stroke-width: 0.8; stroke-linecap: square"/>
     </g>
     <g id="line2d_14">
      <g>
       <use xlink:href="#m874196e877" x="624.795361" y="515.68" style="stroke: #000000; stroke-width: 0.8"/>
      </g>
     </g>
     <g id="text_7">
      <!-- 6 -->
      <g transform="translate(620.267861 534.775) scale(0.16 -0.16)">
       <defs>
        <path id="Georgia-36" d="M 3359 1441 
Q 3359 1116 3242 831 
Q 3125 547 2928 347 
Q 2700 119 2423 9 
Q 2147 -100 1847 -100 
Q 1500 -100 1219 28 
Q 938 156 741 391 
Q 541 628 431 972 
Q 322 1316 322 1744 
Q 322 2859 986 3625 
Q 1650 4391 2766 4544 
L 2822 4263 
L 2541 4213 
Q 1863 3994 1492 3531 
Q 1122 3069 1013 2409 
Q 1281 2644 1543 2741 
Q 1806 2838 2097 2838 
Q 2619 2838 2989 2438 
Q 3359 2038 3359 1441 
z
M 2681 1356 
Q 2681 1863 2448 2169 
Q 2216 2475 1825 2475 
Q 1591 2475 1389 2387 
Q 1188 2300 1000 2094 
Q 997 2056 990 1920 
Q 984 1784 984 1706 
Q 984 975 1223 561 
Q 1463 147 1853 147 
Q 2225 147 2453 470 
Q 2681 794 2681 1356 
z
" transform="scale(0.015625)"/>
       </defs>
       <use xlink:href="#Georgia-36"/>
      </g>
     </g>
    </g>
    <g id="text_8">
     <!-- $x$ -->
     <g transform="translate(367.8811 557.36375) scale(0.2 -0.2)">
      <defs>
       <path id="DejaVuSans-Oblique-78" d="M 3841 3500 
L 2234 1784 
L 3219 0 
L 2559 0 
L 1819 1388 
L 531 0 
L -166 0 
L 1556 1844 
L 641 3500 
L 1300 3500 
L 1972 2234 
L 3144 3500 
L 3841 3500 
z
" transform="scale(0.015625)"/>
      </defs>
      <use xlink:href="#DejaVuSans-Oblique-78" transform="translate(0 0.3125)"/>
     </g>
    </g>
   </g>
   <g id="matplotlib.axis_2">
    <g id="ytick_1">
     <g id="line2d_15">
      <path d="M 70.53125 445.048874 
L 677.23095 445.048874 
" clip-path="url(#p659643293f)" style="fill: none; stroke: #b0b0b0; stroke-width: 0.8; stroke-linecap: square"/>
     </g>
     <g id="line2d_16">
      <defs>
       <path id="m3c3ab14eaa" d="M 0 0 
L -3.5 0 
" style="stroke: #000000; stroke-width: 0.8"/>
      </defs>
      <g>
       <use xlink:href="#m3c3ab14eaa" x="70.53125" y="445.048874" style="stroke: #000000; stroke-width: 0.8"/>
      </g>
     </g>
     <g id="text_9">
      <!-- −1.0 -->
      <g transform="translate(32.23375 451.096374) scale(0.16 -0.16)">
       <defs>
        <path id="Georgia-2212" d="M 3650 1553 
L 466 1553 
L 466 1944 
L 3650 1944 
L 3650 1553 
z
" transform="scale(0.015625)"/>
        <path id="Georgia-2e" d="M 1297 359 
Q 1297 184 1170 60 
Q 1044 -63 869 -63 
Q 694 -63 567 60 
Q 441 184 441 359 
Q 441 534 567 661 
Q 694 788 869 788 
Q 1044 788 1170 661 
Q 1297 534 1297 359 
z
" transform="scale(0.015625)"/>
       </defs>
       <use xlink:href="#Georgia-2212"/>
       <use xlink:href="#Georgia-31" x="64.306641"/>
       <use xlink:href="#Georgia-2e" x="107.275391"/>
       <use xlink:href="#Georgia-30" x="134.228516"/>
      </g>
     </g>
    </g>
    <g id="ytick_2">
     <g id="line2d_17">
      <path d="M 70.53125 353.244437 
L 677.23095 353.244437 
" clip-path="url(#p659643293f)" style="fill: none; stroke: #b0b0b0; stroke-width: 0.8; stroke-linecap: square"/>
     </g>
     <g id="line2d_18">
      <g>
       <use xlink:href="#m3c3ab14eaa" x="70.53125" y="353.244437" style="stroke: #000000; stroke-width: 0.8"/>
      </g>
     </g>
     <g id="text_10">
      <!-- −0.5 -->
      <g transform="translate(30.65625 359.291937) scale(0.16 -0.16)">
       <use xlink:href="#Georgia-2212"/>
       <use xlink:href="#Georgia-30" x="64.306641"/>
       <use xlink:href="#Georgia-2e" x="125.683594"/>
       <use xlink:href="#Georgia-35" x="152.636719"/>
      </g>
     </g>
    </g>
    <g id="ytick_3">
     <g id="line2d_19">
      <path d="M 70.53125 261.44 
L 677.23095 261.44 
" clip-path="url(#p659643293f)" style="fill: none; stroke: #b0b0b0; stroke-width: 0.8; stroke-linecap: square"/>
     </g>
     <g id="line2d_20">
      <g>
       <use xlink:href="#m3c3ab14eaa" x="70.53125" y="261.44" style="stroke: #000000; stroke-width: 0.8"/>
      </g>
     </g>
     <g id="text_11">
      <!-- 0.0 -->
      <g transform="translate(39.57875 267.4875) scale(0.16 -0.16)">
       <use xlink:href="#Georgia-30"/>
       <use xlink:href="#Georgia-2e" x="61.376953"/>
       <use xlink:href="#Georgia-30" x="88.330078"/>
      </g>
     </g>
    </g>
    <g id="ytick_4">
     <g id="line2d_21">
      <path d="M 70.53125 169.635563 
L 677.23095 169.635563 
" clip-path="url(#p659643293f)" style="fill: none; stroke: #b0b0b0; stroke-width: 0.8; stroke-linecap: square"/>
     </g>
     <g id="line2d_22">
      <g>
       <use xlink:href="#m3c3ab14eaa" x="70.53125" y="169.635563" style="stroke: #000000; stroke-width: 0.8"/>
      </g>
     </g>
     <g id="text_12">
      <!-- 0.5 -->
      <g transform="translate(40.94625 175.683063) scale(0.16 -0.16)">
       <use xlink:href="#Georgia-30"/>
       <use xlink:href="#Georgia-2e" x="61.376953"/>
       <use xlink:href="#Georgia-35" x="88.330078"/>
      </g>
     </g>
    </g>
    <g id="ytick_5">
     <g id="line2d_23">
      <path d="M 70.53125 77.831126 
L 677.23095 77.831126 
" clip-path="url(#p659643293f)" style="fill: none; stroke: #b0b0b0; stroke-width: 0.8; stroke-linecap: square"/>
     </g>
     <g id="line2d_24">
      <g>
       <use xlink:href="#m3c3ab14eaa" x="70.53125" y="77.831126" style="stroke: #000000; stroke-width: 0.8"/>
      </g>
     </g>
     <g id="text_13">
      <!-- 1.0 -->
      <g transform="translate(42.52375 83.878626) scale(0.16 -0.16)">
       <use xlink:href="#Georgia-31"/>
       <use xlink:href="#Georgia-2e" x="42.96875"/>
       <use xlink:href="#Georgia-30" x="69.921875"/>
      </g>
     </g>
    </g>
    <g id="text_14">
     <!-- $y$ -->
     <g transform="translate(22.31875 267.44) rotate(-90) scale(0.2 -0.2)">
      <defs>
       <path id="DejaVuSans-Oblique-79" d="M 1588 -325 
Q 1188 -997 936 -1164 
Q 684 -1331 294 -1331 
L -159 -1331 
L -63 -850 
L 269 -850 
Q 509 -850 678 -719 
Q 847 -588 1056 -206 
L 1234 128 
L 459 3500 
L 1069 3500 
L 1650 819 
L 3256 3500 
L 3859 3500 
L 1588 -325 
z
" transform="scale(0.015625)"/>
      </defs>
      <use xlink:href="#DejaVuSans-Oblique-79" transform="translate(0 0.3125)"/>
     </g>
    </g>
   </g>
   <g id="line2d_25">
    <path d="M 98.108509 261.44 
L 115.775622 224.735267 
L 125.161276 205.746113 
L 132.890638 190.576236 
L 140.067902 176.979121 
L 146.69307 164.926812 
L 152.76614 154.359966 
L 158.287112 145.197043 
L 163.255988 137.342439 
L 168.224863 129.885357 
L 173.193739 122.849685 
L 177.610517 116.96778 
L 182.027295 111.451556 
L 186.444074 106.314975 
L 190.308755 102.142136 
L 194.173436 98.278018 
L 198.038117 94.730108 
L 201.902797 91.505283 
L 205.215381 89.00305 
L 208.527965 86.746351 
L 211.840548 84.738398 
L 215.153132 82.982051 
L 218.465716 81.47981 
L 221.778299 80.233814 
L 225.090883 79.245838 
L 228.403467 78.517288 
L 231.716051 78.049203 
L 235.028634 77.842247 
L 238.341218 77.896717 
L 241.653802 78.212534 
L 244.966385 78.789248 
L 248.278969 79.62604 
L 251.591553 80.721716 
L 254.904136 82.074717 
L 258.21672 83.683116 
L 261.529304 85.544624 
L 264.841887 87.656589 
L 268.154471 90.016005 
L 271.467055 92.619511 
L 275.331736 95.960474 
L 279.196416 99.622137 
L 283.061097 103.597403 
L 286.925778 107.878569 
L 291.342557 113.135232 
L 295.759335 118.767275 
L 300.176113 124.760444 
L 305.144989 131.915494 
L 310.113864 139.485451 
L 315.08274 147.446064 
L 320.603712 156.718313 
L 326.676782 167.39463 
L 332.749853 178.520911 
L 339.37502 191.10925 
L 347.104382 206.296586 
L 355.937938 224.169702 
L 367.531981 248.171337 
L 394.03265 303.221074 
L 402.866207 320.971468 
L 410.595569 336.014946 
L 417.220736 348.453755 
L 423.293806 359.422465 
L 429.366876 369.922372 
L 434.887849 379.018611 
L 439.856725 386.808675 
L 444.8256 394.197145 
L 449.794476 401.160354 
L 454.211254 406.9748 
L 458.628032 412.420876 
L 463.04481 417.484798 
L 466.909491 421.592143 
L 470.774172 425.389112 
L 474.638853 428.868347 
L 478.503534 432.023105 
L 481.816118 434.464275 
L 485.128701 436.659075 
L 488.441285 438.604381 
L 491.753869 440.297422 
L 495.066452 441.735788 
L 498.379036 442.917431 
L 501.69162 443.840667 
L 505.004203 444.504184 
L 508.316787 444.907035 
L 511.629371 445.048647 
L 514.941954 444.928819 
L 518.254538 444.547721 
L 521.567122 443.905896 
L 524.879705 443.004257 
L 528.192289 441.844089 
L 531.504873 440.427044 
L 534.817456 438.755138 
L 538.13004 436.830754 
L 541.442624 434.65663 
L 544.755208 432.235863 
L 548.067791 429.5719 
L 551.932472 426.161649 
L 555.797153 422.432167 
L 559.661834 418.390682 
L 563.526515 414.045025 
L 567.943293 408.716936 
L 572.360071 403.016068 
L 576.77685 396.95685 
L 581.745725 389.73102 
L 586.714601 382.094236 
L 591.683476 374.070959 
L 597.204449 364.734214 
L 603.277519 353.99348 
L 609.350589 342.809919 
L 616.527854 329.095352 
L 624.257216 313.822981 
L 633.642869 294.743921 
L 646.341107 268.367176 
L 649.65369 261.44 
L 649.65369 261.44 
" clip-path="url(#p659643293f)" style="fill: none; stroke: #000000; stroke-linecap: square"/>
   </g>
   <g id="line2d_26">
    <defs>
     <path id="m58cee3885e" d="M 0 0.4 
C 0.106081 0.4 0.207832 0.357853 0.282843 0.282843 
C 0.357853 0.207832 0.4 0.106081 0.4 0 
C 0.4 -0.106081 0.357853 -0.207832 0.282843 -0.282843 
C 0.207832 -0.357853 0.106081 -0.4 0 -0.4 
C -0.106081 -0.4 -0.207832 -0.357853 -0.282843 -0.282843 
C -0.357853 -0.207832 -0.4 -0.106081 -0.4 0 
C -0.4 0.106081 -0.357853 0.207832 -0.282843 0.282843 
C -0.207832 0.357853 -0.106081 0.4 0 0.4 
z
" style="stroke: #000000"/>
    </defs>
    <g clip-path="url(#p659643293f)">
     <use xlink:href="#m58cee3885e" x="98.108509" y="261.44" style="stroke: #000000"/>
     <use xlink:href="#m58cee3885e" x="103.679673" y="254.349221" style="stroke: #000000"/>
     <use xlink:href="#m58cee3885e" x="109.250836" y="249.21328" style="stroke: #000000"/>
     <use xlink:href="#m58cee3885e" x="114.821999" y="244.155925" style="stroke: #000000"/>
     <use xlink:href="#m58cee3885e" x="120.393163" y="239.120019" style="stroke: #000000"/>
     <use xlink:href="#m58cee3885e" x="125.964326" y="234.096793" style="stroke: #000000"/>
     <use xlink:href="#m58cee3885e" x="131.53549" y="229.085286" style="stroke: #000000"/>
     <use xlink:href="#m58cee3885e" x="137.106653" y="224.086317" style="stroke: #000000"/>
     <use xlink:href="#m58cee3885e" x="142.677817" y="219.101215" style="stroke: #000000"/>
     <use xlink:href="#m58cee3885e" x="148.24898" y="214.131493" style="stroke: #000000"/>
     <use xlink:href="#m58cee3885e" x="153.820144" y="209.178768" style="stroke: #000000"/>
     <use xlink:href="#m58cee3885e" x="159.391307" y="204.244739" style="stroke: #000000"/>
     <use xlink:href="#m58cee3885e" x="164.96247" y="199.331188" style="stroke: #000000"/>
     <use xlink:href="#m58cee3885e" x="170.533634" y="194.439983" style="stroke: #000000"/>
     <use xlink:href="#m58cee3885e" x="176.104797" y="189.573095" style="stroke: #000000"/>
     <use xlink:href="#m58cee3885e" x="181.675961" y="184.732602" style="stroke: #000000"/>
     <use xlink:href="#m58cee3885e" x="187.247124" y="179.920709" style="stroke: #000000"/>
     <use xlink:href="#m58cee3885e" x="192.818288" y="175.139762" style="stroke: #000000"/>
     <use xlink:href="#m58cee3885e" x="198.389451" y="170.392263" style="stroke: #000000"/>
     <use xlink:href="#m58cee3885e" x="203.960615" y="165.680893" style="stroke: #000000"/>
     <use xlink:href="#m58cee3885e" x="209.531778" y="161.008533" style="stroke: #000000"/>
     <use xlink:href="#m58cee3885e" x="215.102941" y="156.378291" style="stroke: #000000"/>
     <use xlink:href="#m58cee3885e" x="220.674105" y="151.793535" style="stroke: #000000"/>
     <use xlink:href="#m58cee3885e" x="226.245268" y="147.257925" style="stroke: #000000"/>
     <use xlink:href="#m58cee3885e" x="231.816432" y="142.775455" style="stroke: #000000"/>
     <use xlink:href="#m58cee3885e" x="237.387595" y="138.350507" style="stroke: #000000"/>
     <use xlink:href="#m58cee3885e" x="242.958759" y="133.987902" style="stroke: #000000"/>
     <use xlink:href="#m58cee3885e" x="248.529922" y="129.692976" style="stroke: #000000"/>
     <use xlink:href="#m58cee3885e" x="254.101086" y="125.471659" style="stroke: #000000"/>
     <use xlink:href="#m58cee3885e" x="259.672249" y="121.330578" style="stroke: #000000"/>
     <use xlink:href="#m58cee3885e" x="265.243413" y="117.277185" style="stroke: #000000"/>
     <use xlink:href="#m58cee3885e" x="270.814576" y="113.319901" style="stroke: #000000"/>
     <use xlink:href="#m58cee3885e" x="276.385739" y="109.468316" style="stroke: #000000"/>
     <use xlink:href="#m58cee3885e" x="281.956903" y="105.733424" style="stroke: #000000"/>
     <use xlink:href="#m58cee3885e" x="287.528066" y="102.127933" style="stroke: #000000"/>
     <use xlink:href="#m58cee3885e" x="293.09923" y="98.666659" style="stroke: #000000"/>
     <use xlink:href="#m58cee3885e" x="298.670393" y="95.367052" style="stroke: #000000"/>
     <use xlink:href="#m58cee3885e" x="304.241557" y="92.249892" style="stroke: #000000"/>
     <use xlink:href="#m58cee3885e" x="309.81272" y="89.340243" style="stroke: #000000"/>
     <use xlink:href="#m58cee3885e" x="315.383884" y="86.668782" style="stroke: #000000"/>
     <use xlink:href="#m58cee3885e" x="320.955047" y="84.2737" style="stroke: #000000"/>
     <use xlink:href="#m58cee3885e" x="326.52621" y="82.203522" style="stroke: #000000"/>
     <use xlink:href="#m58cee3885e" x="332.097374" y="80.52142" style="stroke: #000000"/>
     <use xlink:href="#m58cee3885e" x="337.668537" y="79.31214" style="stroke: #000000"/>
     <use xlink:href="#m58cee3885e" x="343.239701" y="78.693769" style="stroke: #000000"/>
     <use xlink:href="#m58cee3885e" x="348.810864" y="78.839221" style="stroke: #000000"/>
     <use xlink:href="#m58cee3885e" x="354.382028" y="80.019457" style="stroke: #000000"/>
     <use xlink:href="#m58cee3885e" x="359.953191" y="82.70314" style="stroke: #000000"/>
     <use xlink:href="#m58cee3885e" x="365.524355" y="87.838032" style="stroke: #000000"/>
     <use xlink:href="#m58cee3885e" x="371.095518" y="97.949125" style="stroke: #000000"/>
     <use xlink:href="#m58cee3885e" x="376.666681" y="424.930875" style="stroke: #000000"/>
     <use xlink:href="#m58cee3885e" x="382.237845" y="435.041968" style="stroke: #000000"/>
     <use xlink:href="#m58cee3885e" x="387.809008" y="440.17686" style="stroke: #000000"/>
     <use xlink:href="#m58cee3885e" x="393.380172" y="442.860543" style="stroke: #000000"/>
     <use xlink:href="#m58cee3885e" x="398.951335" y="444.040779" style="stroke: #000000"/>
     <use xlink:href="#m58cee3885e" x="404.522499" y="444.186231" style="stroke: #000000"/>
     <use xlink:href="#m58cee3885e" x="410.093662" y="443.56786" style="stroke: #000000"/>
     <use xlink:href="#m58cee3885e" x="415.664826" y="442.35858" style="stroke: #000000"/>
     <use xlink:href="#m58cee3885e" x="421.235989" y="440.676478" style="stroke: #000000"/>
     <use xlink:href="#m58cee3885e" x="426.807153" y="438.6063" style="stroke: #000000"/>
     <use xlink:href="#m58cee3885e" x="432.378316" y="436.211218" style="stroke: #000000"/>
     <use xlink:href="#m58cee3885e" x="437.949479" y="433.539757" style="stroke: #000000"/>
     <use xlink:href="#m58cee3885e" x="443.520643" y="430.630108" style="stroke: #000000"/>
     <use xlink:href="#m58cee3885e" x="449.091806" y="427.512948" style="stroke: #000000"/>
     <use xlink:href="#m58cee3885e" x="454.66297" y="424.213341" style="stroke: #000000"/>
     <use xlink:href="#m58cee3885e" x="460.234133" y="420.752067" style="stroke: #000000"/>
     <use xlink:href="#m58cee3885e" x="465.805297" y="417.146576" style="stroke: #000000"/>
     <use xlink:href="#m58cee3885e" x="471.37646" y="413.411684" style="stroke: #000000"/>
     <use xlink:href="#m58cee3885e" x="476.947624" y="409.560099" style="stroke: #000000"/>
     <use xlink:href="#m58cee3885e" x="482.518787" y="405.602815" style="stroke: #000000"/>
     <use xlink:href="#m58cee3885e" x="488.08995" y="401.549422" style="stroke: #000000"/>
     <use xlink:href="#m58cee3885e" x="493.661114" y="397.408341" style="stroke: #000000"/>
     <use xlink:href="#m58cee3885e" x="499.232277" y="393.187024" style="stroke: #000000"/>
     <use xlink:href="#m58cee3885e" x="504.803441" y="388.892098" style="stroke: #000000"/>
     <use xlink:href="#m58cee3885e" x="510.374604" y="384.529493" style="stroke: #000000"/>
     <use xlink:href="#m58cee3885e" x="515.945768" y="380.104545" style="stroke: #000000"/>
     <use xlink:href="#m58cee3885e" x="521.516931" y="375.622075" style="stroke: #000000"/>
     <use xlink:href="#m58cee3885e" x="527.088095" y="371.086465" style="stroke: #000000"/>
     <use xlink:href="#m58cee3885e" x="532.659258" y="366.501709" style="stroke: #000000"/>
     <use xlink:href="#m58cee3885e" x="538.230421" y="361.871467" style="stroke: #000000"/>
     <use xlink:href="#m58cee3885e" x="543.801585" y="357.199107" style="stroke: #000000"/>
     <use xlink:href="#m58cee3885e" x="549.372748" y="352.487737" style="stroke: #000000"/>
     <use xlink:href="#m58cee3885e" x="554.943912" y="347.740238" style="stroke: #000000"/>
     <use xlink:href="#m58cee3885e" x="560.515075" y="342.959291" style="stroke: #000000"/>
     <use xlink:href="#m58cee3885e" x="566.086239" y="338.147398" style="stroke: #000000"/>
     <use xlink:href="#m58cee3885e" x="571.657402" y="333.306905" style="stroke: #000000"/>
     <use xlink:href="#m58cee3885e" x="577.228566" y="328.440017" style="stroke: #000000"/>
     <use xlink:href="#m58cee3885e" x="582.799729" y="323.548812" style="stroke: #000000"/>
     <use xlink:href="#m58cee3885e" x="588.370893" y="318.635261" style="stroke: #000000"/>
     <use xlink:href="#m58cee3885e" x="593.942056" y="313.701232" style="stroke: #000000"/>
     <use xlink:href="#m58cee3885e" x="599.513219" y="308.748507" style="stroke: #000000"/>
     <use xlink:href="#m58cee3885e" x="605.084383" y="303.778785" style="stroke: #000000"/>
     <use xlink:href="#m58cee3885e" x="610.655546" y="298.793683" style="stroke: #000000"/>
     <use xlink:href="#m58cee3885e" x="616.22671" y="293.794714" style="stroke: #000000"/>
     <use xlink:href="#m58cee3885e" x="621.797873" y="288.783207" style="stroke: #000000"/>
     <use xlink:href="#m58cee3885e" x="627.369037" y="283.759981" style="stroke: #000000"/>
     <use xlink:href="#m58cee3885e" x="632.9402" y="278.724075" style="stroke: #000000"/>
     <use xlink:href="#m58cee3885e" x="638.511364" y="273.66672" style="stroke: #000000"/>
     <use xlink:href="#m58cee3885e" x="644.082527" y="268.530779" style="stroke: #000000"/>
     <use xlink:href="#m58cee3885e" x="649.65369" y="261.44" style="stroke: #000000"/>
    </g>
   </g>
   <g id="line2d_27">
    <path d="M 98.108509 261.44 
L 103.679673 256.292676 
L 109.250836 247.645443 
L 114.821999 252.557716 
L 120.393163 243.356675 
L 125.964326 225.949727 
L 131.53549 238.848358 
L 137.106653 234.980179 
L 142.677817 206.561299 
L 148.24898 219.536043 
L 153.820144 226.70709 
L 159.391307 192.026935 
L 164.96247 197.789998 
L 170.533634 215.22529 
L 176.104797 181.139978 
L 181.675961 177.246653 
L 187.247124 200.463332 
L 192.818288 171.243174 
L 198.389451 159.332945 
L 203.960615 184.303757 
L 209.531778 160.76234 
L 215.102941 143.471107 
L 220.674105 168.406679 
L 226.245268 149.6873 
L 231.816432 128.641456 
L 237.387595 153.382415 
L 242.958759 138.692459 
L 248.529922 114.327507 
L 254.101086 139.191238 
L 259.672249 128.387475 
L 265.243413 100.52945 
L 270.814576 125.713979 
L 276.385739 119.169317 
L 281.956903 87.466116 
L 287.528066 113.004015 
L 293.09923 111.393364 
L 298.670393 75.384896 
L 304.241557 101.319336 
L 309.81272 105.604184 
L 315.383884 64.504932 
L 320.955047 91.14437 
L 326.52621 102.856871 
L 332.097374 54.947788 
L 337.668537 83.37676 
L 343.239701 105.58322 
L 348.810864 46.189241 
L 354.382028 80.371084 
L 359.953191 121.907362 
L 365.524355 30.312727 
L 371.095518 112.811573 
L 376.666681 410.068427 
L 382.237845 492.567273 
L 387.809008 400.972638 
L 393.380172 442.508916 
L 398.951335 476.690759 
L 404.522499 417.29678 
L 410.093662 439.50324 
L 415.664826 467.932212 
L 421.235989 420.023129 
L 426.807153 431.73563 
L 432.378316 458.375068 
L 437.949479 417.275816 
L 443.520643 421.560664 
L 449.091806 447.495104 
L 454.66297 411.486636 
L 460.234133 409.875985 
L 465.805297 435.413884 
L 471.37646 403.710683 
L 476.947624 397.166021 
L 482.518787 422.35055 
L 488.08995 394.492525 
L 493.661114 383.688762 
L 499.232277 408.552493 
L 504.803441 384.187541 
L 510.374604 369.497585 
L 515.945768 394.238544 
L 521.516931 373.1927 
L 527.088095 354.473321 
L 532.659258 379.408893 
L 538.230421 362.11766 
L 543.801585 338.576243 
L 549.372748 363.547055 
L 554.943912 351.636826 
L 560.515075 322.416668 
L 566.086239 345.633347 
L 571.657402 341.740022 
L 577.228566 307.65471 
L 582.799729 325.090002 
L 588.370893 330.853065 
L 593.942056 296.17291 
L 599.513219 303.343957 
L 605.084383 316.318701 
L 610.655546 287.899821 
L 616.22671 284.031642 
L 621.797873 296.930273 
L 627.369037 279.523325 
L 632.9402 270.322284 
L 638.511364 275.234557 
L 644.082527 266.587324 
L 649.65369 261.44 
" clip-path="url(#p659643293f)" style="fill: none; stroke: #a80000; stroke-width: 3; stroke-linecap: square"/>
   </g>
   <g id="line2d_28">
    <path d="M 102.417456 257.826541 
L 111.035349 250.165171 
L 119.653243 242.478602 
L 128.271136 234.763815 
L 136.88903 227.025085 
L 145.506923 219.272108 
L 154.124817 211.518364 
L 162.74271 203.77972 
L 171.360603 196.073267 
L 179.978497 188.416397 
L 188.59639 180.826117 
L 197.214284 173.318602 
L 205.832177 165.908981 
L 214.450071 158.611367 
L 223.067964 151.439119 
L 231.685858 144.405347 
L 240.303751 137.523646 
L 248.921645 130.809081 
L 257.539538 124.279393 
L 266.157432 117.956459 
L 274.775325 111.867977 
L 283.393218 106.049394 
L 292.011112 100.546074 
L 300.629005 95.415697 
L 309.246899 90.730901 
L 317.864792 86.582162 
L 326.482686 83.080904 
L 335.100579 80.362855 
L 343.718473 78.591641 
L 352.336366 77.962607 
L 360.95426 78.706888 
L 369.572153 81.095711 
L 378.190046 441.784289 
L 386.80794 444.173112 
L 395.425833 444.917393 
L 404.043727 444.288359 
L 412.66162 442.517145 
L 421.279514 439.799096 
L 429.897407 436.297838 
L 438.515301 432.149099 
L 447.133194 427.464303 
L 455.751088 422.333926 
L 464.368981 416.830606 
L 472.986875 411.012023 
L 481.604768 404.923541 
L 490.222661 398.600607 
L 498.840555 392.070919 
L 507.458448 385.356354 
L 516.076342 378.474653 
L 524.694235 371.440881 
L 533.312129 364.268633 
L 541.930022 356.971019 
L 550.547916 349.561398 
L 559.165809 342.053883 
L 567.783703 334.463603 
L 576.401596 326.806733 
L 585.01949 319.10028 
L 593.637383 311.361636 
L 602.255276 303.607892 
L 610.87317 295.854915 
L 619.491063 288.116185 
L 628.108957 280.401398 
L 636.72685 272.714829 
L 645.344744 265.053459 
" clip-path="url(#p659643293f)" style="fill: none; stroke: #1f77b4; stroke-width: 3; stroke-linecap: square"/>
   </g>
   <g id="patch_3">
    <path d="M 70.53125 515.68 
L 70.53125 7.2 
" style="fill: none; stroke: #000000; stroke-width: 1.5; stroke-linejoin: miter; stroke-linecap: square"/>
   </g>
   <g id="patch_4">
    <path d="M 677.23095 515.68 
L 677.23095 7.2 
" style="fill: none; stroke: #000000; stroke-width: 1.5; stroke-linejoin: miter; stroke-linecap: square"/>
   </g>
   <g id="patch_5">
    <path d="M 70.53125 515.68 
L 677.23095 515.68 
" style="fill: none; stroke: #000000; stroke-width: 1.5; stroke-linejoin: miter; stroke-linecap: square"/>
   </g>
   <g id="patch_6">
    <path d="M 70.53125 7.2 
L 677.23095 7.2 
" style="fill: none; stroke: #000000; stroke-width: 1.5; stroke-linejoin: miter; stroke-linecap: square"/>
   </g>
   <g id="legend_1">
    <g id="patch_7">
     <path d="M 580.941887 74.1125 
L 670.23095 74.1125 
Q 672.23095 74.1125 672.23095 72.1125 
L 672.23095 14.2 
Q 672.23095 12.2 670.23095 12.2 
L 580.941887 12.2 
Q 578.941887 12.2 578.941887 14.2 
L 578.941887 72.1125 
Q 578.941887 74.1125 580.941887 74.1125 
z
" style="fill: #ffffff; opacity: 0.8; stroke: #cccccc; stroke-linejoin: miter"/>
    </g>
    <g id="line2d_29">
     <path d="M 582.941887 20.259375 
L 592.941887 20.259375 
L 602.941887 20.259375 
" style="fill: none; stroke: #000000; stroke-linecap: square"/>
    </g>
    <g id="text_15">
     <!-- Init -->
     <g transform="translate(610.941887 23.759375) scale(0.1 -0.1)">
      <defs>
       <path id="Georgia-49" d="M 2244 0 
L 247 0 
L 247 222 
Q 331 228 490 240 
Q 650 253 716 278 
Q 819 319 866 389 
Q 913 459 913 584 
L 913 3797 
Q 913 3906 878 3979 
Q 844 4053 716 4103 
Q 622 4141 480 4173 
Q 338 4206 247 4213 
L 247 4434 
L 2244 4434 
L 2244 4213 
Q 2147 4209 2012 4189 
Q 1878 4169 1778 4138 
Q 1659 4100 1618 4015 
Q 1578 3931 1578 3828 
L 1578 619 
Q 1578 516 1623 436 
Q 1669 356 1778 309 
Q 1844 284 1992 254 
Q 2141 225 2244 222 
L 2244 0 
z
" transform="scale(0.015625)"/>
       <path id="Georgia-6e" d="M 3628 0 
L 2119 0 
L 2119 206 
Q 2191 213 2277 219 
Q 2363 225 2419 244 
Q 2506 272 2548 342 
Q 2591 413 2591 525 
L 2591 2109 
Q 2591 2438 2436 2616 
Q 2281 2794 2059 2794 
Q 1894 2794 1756 2742 
Q 1619 2691 1513 2616 
Q 1409 2544 1348 2461 
Q 1288 2378 1259 2328 
L 1259 556 
Q 1259 450 1303 381 
Q 1347 313 1434 275 
Q 1500 244 1576 228 
Q 1653 213 1734 206 
L 1734 0 
L 225 0 
L 225 206 
Q 297 213 373 219 
Q 450 225 506 244 
Q 594 272 636 342 
Q 678 413 678 525 
L 678 2428 
Q 678 2534 633 2623 
Q 588 2713 506 2769 
Q 447 2806 365 2823 
Q 284 2841 191 2847 
L 191 3050 
L 1216 3119 
L 1259 3075 
L 1259 2641 
L 1275 2641 
Q 1350 2716 1462 2820 
Q 1575 2925 1675 2991 
Q 1791 3066 1950 3116 
Q 2109 3166 2309 3166 
Q 2753 3166 2967 2889 
Q 3181 2613 3181 2153 
L 3181 550 
Q 3181 441 3218 373 
Q 3256 306 3347 269 
Q 3422 238 3476 225 
Q 3531 213 3628 206 
L 3628 0 
z
" transform="scale(0.015625)"/>
       <path id="Georgia-69" d="M 1722 0 
L 231 0 
L 231 206 
Q 303 213 379 219 
Q 456 225 513 244 
Q 600 272 642 342 
Q 684 413 684 525 
L 684 2428 
Q 684 2528 639 2611 
Q 594 2694 513 2750 
Q 453 2788 340 2814 
Q 228 2841 134 2847 
L 134 3050 
L 1222 3119 
L 1266 3075 
L 1266 563 
Q 1266 453 1308 381 
Q 1350 309 1441 275 
Q 1509 247 1575 230 
Q 1641 213 1722 206 
L 1722 0 
z
M 1328 4334 
Q 1328 4156 1211 4023 
Q 1094 3891 922 3891 
Q 763 3891 645 4017 
Q 528 4144 528 4306 
Q 528 4478 645 4606 
Q 763 4734 922 4734 
Q 1100 4734 1214 4614 
Q 1328 4494 1328 4334 
z
" transform="scale(0.015625)"/>
       <path id="Georgia-74" d="M 2128 134 
Q 1925 50 1744 -8 
Q 1563 -66 1300 -66 
Q 913 -66 755 129 
Q 597 325 597 681 
L 597 2769 
L 41 2769 
L 41 3069 
L 609 3069 
L 609 4028 
L 1178 4028 
L 1178 3069 
L 2063 3069 
L 2063 2769 
L 1184 2769 
L 1184 1047 
Q 1184 853 1198 723 
Q 1213 594 1266 497 
Q 1316 406 1416 359 
Q 1516 313 1684 313 
Q 1763 313 1914 327 
Q 2066 341 2128 363 
L 2128 134 
z
" transform="scale(0.015625)"/>
      </defs>
      <use xlink:href="#Georgia-49"/>
      <use xlink:href="#Georgia-6e" x="38.964844"/>
      <use xlink:href="#Georgia-69" x="98.046875"/>
      <use xlink:href="#Georgia-74" x="127.34375"/>
     </g>
    </g>
    <g id="line2d_30">
     <g>
      <use xlink:href="#m58cee3885e" x="592.941887" y="34.9875" style="stroke: #000000"/>
     </g>
    </g>
    <g id="text_16">
     <!-- Exact -->
     <g transform="translate(610.941887 38.4875) scale(0.1 -0.1)">
      <defs>
       <path id="Georgia-45" d="M 4034 1306 
L 3950 0 
L 269 0 
L 269 222 
Q 363 228 519 248 
Q 675 269 722 291 
Q 822 338 861 413 
Q 900 488 900 603 
L 900 3791 
Q 900 3894 865 3973 
Q 831 4053 722 4103 
Q 638 4144 495 4175 
Q 353 4206 269 4213 
L 269 4434 
L 3700 4434 
L 3700 3366 
L 3466 3366 
Q 3403 3603 3195 3870 
Q 2988 4138 2800 4163 
Q 2703 4175 2568 4181 
Q 2434 4188 2263 4188 
L 1566 4188 
L 1566 2425 
L 2066 2425 
Q 2306 2425 2417 2470 
Q 2528 2516 2613 2622 
Q 2681 2713 2729 2864 
Q 2778 3016 2794 3150 
L 3028 3150 
L 3028 1416 
L 2794 1416 
Q 2781 1566 2726 1733 
Q 2672 1900 2613 1975 
Q 2516 2097 2392 2134 
Q 2269 2172 2066 2172 
L 1566 2172 
L 1566 841 
Q 1566 641 1594 525 
Q 1622 409 1703 350 
Q 1784 291 1925 273 
Q 2066 256 2325 256 
Q 2428 256 2597 256 
Q 2766 256 2881 269 
Q 3000 281 3126 314 
Q 3253 347 3306 403 
Q 3450 553 3608 858 
Q 3766 1163 3809 1306 
L 4034 1306 
z
" transform="scale(0.015625)"/>
       <path id="Georgia-78" d="M 3194 0 
L 1781 0 
L 1781 206 
Q 1922 222 2020 237 
Q 2119 253 2119 319 
Q 2119 347 2087 406 
Q 2056 466 2025 516 
Q 1947 638 1811 842 
Q 1675 1047 1478 1331 
Q 1316 1128 1178 936 
Q 1041 744 891 528 
Q 869 497 845 450 
Q 822 403 822 375 
Q 822 306 911 261 
Q 1000 216 1178 200 
L 1178 0 
L 38 0 
L 38 194 
Q 250 256 379 345 
Q 509 434 619 566 
Q 716 691 889 909 
Q 1063 1128 1338 1503 
Q 1178 1731 948 2061 
Q 719 2391 569 2609 
Q 488 2728 383 2801 
Q 278 2875 88 2875 
L 88 3081 
L 1428 3081 
L 1428 2875 
Q 1328 2875 1231 2862 
Q 1134 2850 1134 2806 
Q 1134 2778 1153 2743 
Q 1172 2709 1200 2669 
Q 1269 2563 1414 2341 
Q 1559 2119 1728 1872 
Q 1838 2022 1983 2222 
Q 2128 2422 2250 2603 
Q 2263 2625 2275 2658 
Q 2288 2691 2288 2722 
Q 2288 2788 2180 2827 
Q 2072 2866 1975 2881 
L 1975 3081 
L 3113 3081 
L 3113 2888 
Q 2872 2825 2737 2739 
Q 2603 2653 2509 2541 
Q 2406 2413 2264 2225 
Q 2122 2038 1866 1700 
Q 2150 1300 2328 1044 
Q 2506 788 2688 516 
Q 2778 378 2889 298 
Q 3000 219 3194 206 
L 3194 0 
z
" transform="scale(0.015625)"/>
       <path id="Georgia-61" d="M 3144 56 
Q 2997 3 2886 -30 
Q 2775 -63 2634 -63 
Q 2391 -63 2245 51 
Q 2100 166 2059 384 
L 2041 384 
Q 1838 159 1605 40 
Q 1372 -78 1044 -78 
Q 697 -78 473 134 
Q 250 347 250 691 
Q 250 869 300 1009 
Q 350 1150 450 1263 
Q 528 1356 656 1429 
Q 784 1503 897 1547 
Q 1038 1600 1467 1744 
Q 1897 1888 2047 1969 
L 2047 2278 
Q 2047 2319 2030 2434 
Q 2013 2550 1956 2653 
Q 1894 2769 1780 2855 
Q 1666 2941 1456 2941 
Q 1313 2941 1189 2892 
Q 1066 2844 1016 2791 
Q 1016 2728 1045 2606 
Q 1075 2484 1075 2381 
Q 1075 2272 976 2181 
Q 878 2091 703 2091 
Q 547 2091 473 2202 
Q 400 2313 400 2450 
Q 400 2594 501 2725 
Q 603 2856 766 2959 
Q 906 3047 1106 3108 
Q 1306 3169 1497 3169 
Q 1759 3169 1954 3133 
Q 2150 3097 2309 2978 
Q 2469 2863 2551 2664 
Q 2634 2466 2634 2153 
Q 2634 1706 2625 1361 
Q 2616 1016 2616 606 
Q 2616 484 2658 412 
Q 2700 341 2788 291 
Q 2834 263 2936 259 
Q 3038 256 3144 256 
L 3144 56 
z
M 2053 1706 
Q 1788 1628 1588 1553 
Q 1388 1478 1216 1366 
Q 1059 1259 968 1114 
Q 878 969 878 769 
Q 878 509 1014 387 
Q 1150 266 1359 266 
Q 1581 266 1750 373 
Q 1919 481 2034 628 
L 2053 1706 
z
" transform="scale(0.015625)"/>
       <path id="Georgia-63" d="M 1650 -81 
Q 981 -81 603 362 
Q 225 806 225 1553 
Q 225 1878 326 2161 
Q 428 2444 622 2675 
Q 806 2897 1084 3033 
Q 1363 3169 1691 3169 
Q 2144 3169 2428 2951 
Q 2713 2734 2713 2359 
Q 2713 2203 2638 2083 
Q 2563 1963 2391 1963 
Q 2206 1963 2104 2056 
Q 2003 2150 2003 2266 
Q 2003 2406 2040 2554 
Q 2078 2703 2084 2772 
Q 2028 2869 1917 2901 
Q 1806 2934 1678 2934 
Q 1528 2934 1392 2870 
Q 1256 2806 1128 2634 
Q 1013 2478 941 2212 
Q 869 1947 869 1578 
Q 869 997 1126 630 
Q 1384 263 1803 263 
Q 2106 263 2311 409 
Q 2516 556 2691 850 
L 2891 719 
Q 2684 350 2346 134 
Q 2009 -81 1650 -81 
z
" transform="scale(0.015625)"/>
      </defs>
      <use xlink:href="#Georgia-45"/>
      <use xlink:href="#Georgia-78" x="65.332031"/>
      <use xlink:href="#Georgia-61" x="115.820312"/>
      <use xlink:href="#Georgia-63" x="166.210938"/>
      <use xlink:href="#Georgia-74" x="211.621094"/>
     </g>
    </g>
    <g id="line2d_31">
     <path d="M 582.941887 49.715625 
L 592.941887 49.715625 
L 602.941887 49.715625 
" style="fill: none; stroke: #a80000; stroke-width: 3; stroke-linecap: square"/>
    </g>
    <g id="text_17">
     <!-- 64, t=1.3 -->
     <g transform="translate(610.941887 53.215625) scale(0.1 -0.1)">
      <defs>
       <path id="Georgia-2c" d="M 1341 109 
Q 1341 -116 1239 -316 
Q 1138 -516 1006 -659 
Q 872 -809 722 -925 
Q 572 -1041 447 -1106 
L 303 -897 
Q 453 -803 572 -709 
Q 691 -616 766 -522 
Q 859 -413 925 -284 
Q 991 -156 1009 6 
L 850 6 
Q 641 6 523 115 
Q 406 225 406 409 
Q 406 541 512 664 
Q 619 788 803 788 
Q 1072 788 1206 608 
Q 1341 428 1341 109 
z
" transform="scale(0.015625)"/>
       <path id="Georgia-20" transform="scale(0.015625)"/>
       <path id="Georgia-3d" d="M 3634 2134 
L 481 2134 
L 481 2525 
L 3634 2525 
L 3634 2134 
z
M 3634 972 
L 481 972 
L 481 1363 
L 3634 1363 
L 3634 972 
z
" transform="scale(0.015625)"/>
      </defs>
      <use xlink:href="#Georgia-36"/>
      <use xlink:href="#Georgia-34" x="56.591797"/>
      <use xlink:href="#Georgia-2c" x="113.085938"/>
      <use xlink:href="#Georgia-20" x="140.039062"/>
      <use xlink:href="#Georgia-74" x="164.160156"/>
      <use xlink:href="#Georgia-3d" x="198.681641"/>
      <use xlink:href="#Georgia-31" x="262.988281"/>
      <use xlink:href="#Georgia-2e" x="305.957031"/>
      <use xlink:href="#Georgia-33" x="332.910156"/>
     </g>
    </g>
    <g id="line2d_32">
     <path d="M 582.941887 64.44375 
L 592.941887 64.44375 
L 602.941887 64.44375 
" style="fill: none; stroke: #1f77b4; stroke-width: 3; stroke-linecap: square"/>
    </g>
    <g id="text_18">
     <!-- 64, t=1.3,ggb -->
     <g transform="translate(610.941887 67.94375) scale(0.1 -0.1)">
      <defs>
       <path id="Georgia-67" d="M 2866 319 
Q 2991 200 3062 50 
Q 3134 -100 3134 -322 
Q 3134 -544 3037 -739 
Q 2941 -934 2744 -1078 
Q 2534 -1225 2243 -1306 
Q 1953 -1388 1525 -1388 
Q 825 -1388 478 -1183 
Q 131 -978 131 -584 
Q 131 -266 381 -81 
Q 631 103 1019 119 
L 1019 163 
Q 925 191 825 233 
Q 725 275 653 331 
Q 572 397 522 486 
Q 472 575 472 706 
Q 472 872 589 1011 
Q 706 1150 944 1250 
L 944 1297 
Q 644 1438 478 1658 
Q 313 1878 313 2169 
Q 313 2606 639 2887 
Q 966 3169 1475 3169 
Q 1616 3169 1755 3141 
Q 1894 3113 2038 3069 
L 3113 3069 
L 3113 2769 
L 2388 2769 
L 2388 2750 
Q 2503 2616 2559 2453 
Q 2616 2291 2616 2134 
Q 2616 1728 2286 1447 
Q 1956 1166 1519 1166 
L 1141 1166 
Q 1069 1141 991 1075 
Q 913 1009 913 897 
Q 913 781 978 720 
Q 1044 659 1138 638 
Q 1228 613 1348 606 
Q 1469 600 1597 597 
Q 1734 594 1973 578 
Q 2213 563 2313 559 
Q 2456 553 2601 490 
Q 2747 428 2866 319 
z
M 2022 2147 
Q 2022 2513 1873 2730 
Q 1725 2947 1456 2947 
Q 1309 2947 1204 2886 
Q 1100 2825 1034 2713 
Q 972 2609 945 2464 
Q 919 2319 919 2166 
Q 919 1819 1070 1600 
Q 1222 1381 1463 1381 
Q 1731 1381 1876 1598 
Q 2022 1816 2022 2147 
z
M 2622 -438 
Q 2622 -263 2540 -150 
Q 2459 -38 2294 3 
Q 2206 16 1934 31 
Q 1663 47 1303 47 
Q 966 -19 823 -173 
Q 681 -328 681 -572 
Q 681 -681 728 -781 
Q 775 -881 891 -966 
Q 1000 -1047 1184 -1098 
Q 1369 -1150 1634 -1150 
Q 2094 -1150 2358 -973 
Q 2622 -797 2622 -438 
z
" transform="scale(0.015625)"/>
       <path id="Georgia-62" d="M 3353 1544 
Q 3353 850 2915 378 
Q 2478 -94 1900 -94 
Q 1647 -94 1401 -15 
Q 1156 63 941 194 
L 709 -166 
L 516 -122 
Q 531 109 537 434 
Q 544 759 544 1063 
L 544 4113 
Q 544 4219 495 4325 
Q 447 4431 372 4478 
Q 313 4519 173 4539 
Q 34 4559 -50 4566 
L -50 4766 
L 1081 4838 
L 1125 4791 
L 1125 2759 
L 1147 2753 
Q 1341 2959 1570 3062 
Q 1800 3166 2022 3166 
Q 2591 3166 2972 2716 
Q 3353 2266 3353 1544 
z
M 2700 1522 
Q 2700 1753 2650 1993 
Q 2600 2234 2494 2413 
Q 2388 2594 2216 2706 
Q 2044 2819 1803 2819 
Q 1584 2819 1420 2733 
Q 1256 2647 1125 2500 
L 1125 706 
Q 1144 631 1198 531 
Q 1253 431 1347 341 
Q 1441 253 1559 198 
Q 1678 144 1850 144 
Q 2231 144 2465 512 
Q 2700 881 2700 1522 
z
" transform="scale(0.015625)"/>
      </defs>
      <use xlink:href="#Georgia-36"/>
      <use xlink:href="#Georgia-34" x="56.591797"/>
      <use xlink:href="#Georgia-2c" x="113.085938"/>
      <use xlink:href="#Georgia-20" x="140.039062"/>
      <use xlink:href="#Georgia-74" x="164.160156"/>
      <use xlink:href="#Georgia-3d" x="198.681641"/>
      <use xlink:href="#Georgia-31" x="262.988281"/>
      <use xlink:href="#Georgia-2e" x="305.957031"/>
      <use xlink:href="#Georgia-33" x="332.910156"/>
      <use xlink:href="#Georgia-2c" x="388.085938"/>
      <use xlink:href="#Georgia-67" x="415.039062"/>
      <use xlink:href="#Georgia-67" x="465.966797"/>
      <use xlink:href="#Georgia-62" x="516.894531"/>
     </g>
    </g>
   </g>
  </g>
  <g id="axes_2">
   <g id="patch_8">
    <path d="M 750.91637 515.68 
L 993.59625 515.68 
L 993.59625 7.2 
L 750.91637 7.2 
L 750.91637 515.68 
z
" style="fill: none"/>
   </g>
   <g id="matplotlib.axis_3">
    <g id="xtick_8">
     <g id="line2d_33">
      <path d="M 761.947274 515.68 
L 761.947274 7.2 
" clip-path="url(#pebf9c3dfae)" style="fill: none; stroke: #b0b0b0; stroke-width: 0.8; stroke-linecap: square"/>
     </g>
     <g id="line2d_34">
      <g>
       <use xlink:href="#m874196e877" x="761.947274" y="515.68" style="stroke: #000000; stroke-width: 0.8"/>
      </g>
     </g>
     <g id="text_19">
      <!-- 0 -->
      <g transform="translate(757.037274 534.775) scale(0.16 -0.16)">
       <use xlink:href="#Georgia-30"/>
      </g>
     </g>
    </g>
    <g id="xtick_9">
     <g id="line2d_35">
      <path d="M 832.172187 515.68 
L 832.172187 7.2 
" clip-path="url(#pebf9c3dfae)" style="fill: none; stroke: #b0b0b0; stroke-width: 0.8; stroke-linecap: square"/>
     </g>
     <g id="line2d_36">
      <g>
       <use xlink:href="#m874196e877" x="832.172187" y="515.68" style="stroke: #000000; stroke-width: 0.8"/>
      </g>
     </g>
     <g id="text_20">
      <!-- 2 -->
      <g transform="translate(827.703437 534.775) scale(0.16 -0.16)">
       <use xlink:href="#Georgia-32"/>
      </g>
     </g>
    </g>
    <g id="xtick_10">
     <g id="line2d_37">
      <path d="M 902.397101 515.68 
L 902.397101 7.2 
" clip-path="url(#pebf9c3dfae)" style="fill: none; stroke: #b0b0b0; stroke-width: 0.8; stroke-linecap: square"/>
     </g>
     <g id="line2d_38">
      <g>
       <use xlink:href="#m874196e877" x="902.397101" y="515.68" style="stroke: #000000; stroke-width: 0.8"/>
      </g>
     </g>
     <g id="text_21">
      <!-- 4 -->
      <g transform="translate(897.877101 534.775) scale(0.16 -0.16)">
       <use xlink:href="#Georgia-34"/>
      </g>
     </g>
    </g>
    <g id="xtick_11">
     <g id="line2d_39">
      <path d="M 972.622015 515.68 
L 972.622015 7.2 
" clip-path="url(#pebf9c3dfae)" style="fill: none; stroke: #b0b0b0; stroke-width: 0.8; stroke-linecap: square"/>
     </g>
     <g id="line2d_40">
      <g>
       <use xlink:href="#m874196e877" x="972.622015" y="515.68" style="stroke: #000000; stroke-width: 0.8"/>
      </g>
     </g>
     <g id="text_22">
      <!-- 6 -->
      <g transform="translate(968.094515 534.775) scale(0.16 -0.16)">
       <use xlink:href="#Georgia-36"/>
      </g>
     </g>
    </g>
    <g id="text_23">
     <!-- $x$ -->
     <g transform="translate(866.25631 557.36375) scale(0.2 -0.2)">
      <use xlink:href="#DejaVuSans-Oblique-78" transform="translate(0 0.3125)"/>
     </g>
    </g>
   </g>
   <g id="matplotlib.axis_4">
    <g id="ytick_6">
     <g id="line2d_41">
      <path d="M 750.91637 416.143827 
L 993.59625 416.143827 
" clip-path="url(#pebf9c3dfae)" style="fill: none; stroke: #b0b0b0; stroke-width: 0.8; stroke-linecap: square"/>
     </g>
     <g id="line2d_42">
      <g>
       <use xlink:href="#m3c3ab14eaa" x="750.91637" y="416.143827" style="stroke: #000000; stroke-width: 0.8"/>
      </g>
     </g>
     <g id="text_24">
      <!-- $\mathdefault{10^{-4}}$ -->
      <g transform="translate(713.03637 422.191327) scale(0.16 -0.16)">
       <use xlink:href="#Georgia-31" transform="translate(0 0.742188)"/>
       <use xlink:href="#Georgia-30" transform="translate(42.96875 0.742188)"/>
       <use xlink:href="#Georgia-2212" transform="translate(105.188164 34.440625) scale(0.7)"/>
       <use xlink:href="#Georgia-34" transform="translate(150.202812 34.440625) scale(0.7)"/>
      </g>
     </g>
    </g>
    <g id="ytick_7">
     <g id="line2d_43">
      <path d="M 750.91637 305.779143 
L 993.59625 305.779143 
" clip-path="url(#pebf9c3dfae)" style="fill: none; stroke: #b0b0b0; stroke-width: 0.8; stroke-linecap: square"/>
     </g>
     <g id="line2d_44">
      <g>
       <use xlink:href="#m3c3ab14eaa" x="750.91637" y="305.779143" style="stroke: #000000; stroke-width: 0.8"/>
      </g>
     </g>
     <g id="text_25">
      <!-- $\mathdefault{10^{-3}}$ -->
      <g transform="translate(713.19637 311.826643) scale(0.16 -0.16)">
       <use xlink:href="#Georgia-31" transform="translate(0 0.534375)"/>
       <use xlink:href="#Georgia-30" transform="translate(42.96875 0.534375)"/>
       <use xlink:href="#Georgia-2212" transform="translate(105.188164 34.232813) scale(0.7)"/>
       <use xlink:href="#Georgia-33" transform="translate(150.202812 34.232813) scale(0.7)"/>
      </g>
     </g>
    </g>
    <g id="ytick_8">
     <g id="line2d_45">
      <path d="M 750.91637 195.41446 
L 993.59625 195.41446 
" clip-path="url(#pebf9c3dfae)" style="fill: none; stroke: #b0b0b0; stroke-width: 0.8; stroke-linecap: square"/>
     </g>
     <g id="line2d_46">
      <g>
       <use xlink:href="#m3c3ab14eaa" x="750.91637" y="195.41446" style="stroke: #000000; stroke-width: 0.8"/>
      </g>
     </g>
     <g id="text_26">
      <!-- $\mathdefault{10^{-2}}$ -->
      <g transform="translate(713.19637 201.46196) scale(0.16 -0.16)">
       <use xlink:href="#Georgia-31" transform="translate(0 0.534375)"/>
       <use xlink:href="#Georgia-30" transform="translate(42.96875 0.534375)"/>
       <use xlink:href="#Georgia-2212" transform="translate(105.188164 34.232813) scale(0.7)"/>
       <use xlink:href="#Georgia-32" transform="translate(150.202812 34.232813) scale(0.7)"/>
      </g>
     </g>
    </g>
    <g id="ytick_9">
     <g id="line2d_47">
      <path d="M 750.91637 85.049776 
L 993.59625 85.049776 
" clip-path="url(#pebf9c3dfae)" style="fill: none; stroke: #b0b0b0; stroke-width: 0.8; stroke-linecap: square"/>
     </g>
     <g id="line2d_48">
      <g>
       <use xlink:href="#m3c3ab14eaa" x="750.91637" y="85.049776" style="stroke: #000000; stroke-width: 0.8"/>
      </g>
     </g>
     <g id="text_27">
      <!-- $\mathdefault{10^{-1}}$ -->
      <g transform="translate(714.63637 91.097276) scale(0.16 -0.16)">
       <use xlink:href="#Georgia-31" transform="translate(0 0.534375)"/>
       <use xlink:href="#Georgia-30" transform="translate(42.96875 0.534375)"/>
       <use xlink:href="#Georgia-2212" transform="translate(105.188164 34.232813) scale(0.7)"/>
       <use xlink:href="#Georgia-31" transform="translate(150.202812 34.232813) scale(0.7)"/>
      </g>
     </g>
    </g>
    <g id="ytick_10">
     <g id="line2d_49">
      <defs>
       <path id="m12c3978d88" d="M 0 0 
L -2 0 
" style="stroke: #000000; stroke-width: 0.6"/>
      </defs>
      <g>
       <use xlink:href="#m12c3978d88" x="750.91637" y="493.28543" style="stroke: #000000; stroke-width: 0.6"/>
      </g>
     </g>
    </g>
    <g id="ytick_11">
     <g id="line2d_50">
      <g>
       <use xlink:href="#m12c3978d88" x="750.91637" y="473.851174" style="stroke: #000000; stroke-width: 0.6"/>
      </g>
     </g>
    </g>
    <g id="ytick_12">
     <g id="line2d_51">
      <g>
       <use xlink:href="#m12c3978d88" x="750.91637" y="460.06235" style="stroke: #000000; stroke-width: 0.6"/>
      </g>
     </g>
    </g>
    <g id="ytick_13">
     <g id="line2d_52">
      <g>
       <use xlink:href="#m12c3978d88" x="750.91637" y="449.366907" style="stroke: #000000; stroke-width: 0.6"/>
      </g>
     </g>
    </g>
    <g id="ytick_14">
     <g id="line2d_53">
      <g>
       <use xlink:href="#m12c3978d88" x="750.91637" y="440.628094" style="stroke: #000000; stroke-width: 0.6"/>
      </g>
     </g>
    </g>
    <g id="ytick_15">
     <g id="line2d_54">
      <g>
       <use xlink:href="#m12c3978d88" x="750.91637" y="433.239533" style="stroke: #000000; stroke-width: 0.6"/>
      </g>
     </g>
    </g>
    <g id="ytick_16">
     <g id="line2d_55">
      <g>
       <use xlink:href="#m12c3978d88" x="750.91637" y="426.83927" style="stroke: #000000; stroke-width: 0.6"/>
      </g>
     </g>
    </g>
    <g id="ytick_17">
     <g id="line2d_56">
      <g>
       <use xlink:href="#m12c3978d88" x="750.91637" y="421.193838" style="stroke: #000000; stroke-width: 0.6"/>
      </g>
     </g>
    </g>
    <g id="ytick_18">
     <g id="line2d_57">
      <g>
       <use xlink:href="#m12c3978d88" x="750.91637" y="382.920747" style="stroke: #000000; stroke-width: 0.6"/>
      </g>
     </g>
    </g>
    <g id="ytick_19">
     <g id="line2d_58">
      <g>
       <use xlink:href="#m12c3978d88" x="750.91637" y="363.486491" style="stroke: #000000; stroke-width: 0.6"/>
      </g>
     </g>
    </g>
    <g id="ytick_20">
     <g id="line2d_59">
      <g>
       <use xlink:href="#m12c3978d88" x="750.91637" y="349.697666" style="stroke: #000000; stroke-width: 0.6"/>
      </g>
     </g>
    </g>
    <g id="ytick_21">
     <g id="line2d_60">
      <g>
       <use xlink:href="#m12c3978d88" x="750.91637" y="339.002224" style="stroke: #000000; stroke-width: 0.6"/>
      </g>
     </g>
    </g>
    <g id="ytick_22">
     <g id="line2d_61">
      <g>
       <use xlink:href="#m12c3978d88" x="750.91637" y="330.26341" style="stroke: #000000; stroke-width: 0.6"/>
      </g>
     </g>
    </g>
    <g id="ytick_23">
     <g id="line2d_62">
      <g>
       <use xlink:href="#m12c3978d88" x="750.91637" y="322.874849" style="stroke: #000000; stroke-width: 0.6"/>
      </g>
     </g>
    </g>
    <g id="ytick_24">
     <g id="line2d_63">
      <g>
       <use xlink:href="#m12c3978d88" x="750.91637" y="316.474586" style="stroke: #000000; stroke-width: 0.6"/>
      </g>
     </g>
    </g>
    <g id="ytick_25">
     <g id="line2d_64">
      <g>
       <use xlink:href="#m12c3978d88" x="750.91637" y="310.829154" style="stroke: #000000; stroke-width: 0.6"/>
      </g>
     </g>
    </g>
    <g id="ytick_26">
     <g id="line2d_65">
      <g>
       <use xlink:href="#m12c3978d88" x="750.91637" y="272.556063" style="stroke: #000000; stroke-width: 0.6"/>
      </g>
     </g>
    </g>
    <g id="ytick_27">
     <g id="line2d_66">
      <g>
       <use xlink:href="#m12c3978d88" x="750.91637" y="253.121807" style="stroke: #000000; stroke-width: 0.6"/>
      </g>
     </g>
    </g>
    <g id="ytick_28">
     <g id="line2d_67">
      <g>
       <use xlink:href="#m12c3978d88" x="750.91637" y="239.332983" style="stroke: #000000; stroke-width: 0.6"/>
      </g>
     </g>
    </g>
    <g id="ytick_29">
     <g id="line2d_68">
      <g>
       <use xlink:href="#m12c3978d88" x="750.91637" y="228.63754" style="stroke: #000000; stroke-width: 0.6"/>
      </g>
     </g>
    </g>
    <g id="ytick_30">
     <g id="line2d_69">
      <g>
       <use xlink:href="#m12c3978d88" x="750.91637" y="219.898727" style="stroke: #000000; stroke-width: 0.6"/>
      </g>
     </g>
    </g>
    <g id="ytick_31">
     <g id="line2d_70">
      <g>
       <use xlink:href="#m12c3978d88" x="750.91637" y="212.510166" style="stroke: #000000; stroke-width: 0.6"/>
      </g>
     </g>
    </g>
    <g id="ytick_32">
     <g id="line2d_71">
      <g>
       <use xlink:href="#m12c3978d88" x="750.91637" y="206.109903" style="stroke: #000000; stroke-width: 0.6"/>
      </g>
     </g>
    </g>
    <g id="ytick_33">
     <g id="line2d_72">
      <g>
       <use xlink:href="#m12c3978d88" x="750.91637" y="200.464471" style="stroke: #000000; stroke-width: 0.6"/>
      </g>
     </g>
    </g>
    <g id="ytick_34">
     <g id="line2d_73">
      <g>
       <use xlink:href="#m12c3978d88" x="750.91637" y="162.19138" style="stroke: #000000; stroke-width: 0.6"/>
      </g>
     </g>
    </g>
    <g id="ytick_35">
     <g id="line2d_74">
      <g>
       <use xlink:href="#m12c3978d88" x="750.91637" y="142.757124" style="stroke: #000000; stroke-width: 0.6"/>
      </g>
     </g>
    </g>
    <g id="ytick_36">
     <g id="line2d_75">
      <g>
       <use xlink:href="#m12c3978d88" x="750.91637" y="128.968299" style="stroke: #000000; stroke-width: 0.6"/>
      </g>
     </g>
    </g>
    <g id="ytick_37">
     <g id="line2d_76">
      <g>
       <use xlink:href="#m12c3978d88" x="750.91637" y="118.272857" style="stroke: #000000; stroke-width: 0.6"/>
      </g>
     </g>
    </g>
    <g id="ytick_38">
     <g id="line2d_77">
      <g>
       <use xlink:href="#m12c3978d88" x="750.91637" y="109.534043" style="stroke: #000000; stroke-width: 0.6"/>
      </g>
     </g>
    </g>
    <g id="ytick_39">
     <g id="line2d_78">
      <g>
       <use xlink:href="#m12c3978d88" x="750.91637" y="102.145482" style="stroke: #000000; stroke-width: 0.6"/>
      </g>
     </g>
    </g>
    <g id="ytick_40">
     <g id="line2d_79">
      <g>
       <use xlink:href="#m12c3978d88" x="750.91637" y="95.745219" style="stroke: #000000; stroke-width: 0.6"/>
      </g>
     </g>
    </g>
    <g id="ytick_41">
     <g id="line2d_80">
      <g>
       <use xlink:href="#m12c3978d88" x="750.91637" y="90.099787" style="stroke: #000000; stroke-width: 0.6"/>
      </g>
     </g>
    </g>
    <g id="ytick_42">
     <g id="line2d_81">
      <g>
       <use xlink:href="#m12c3978d88" x="750.91637" y="51.826696" style="stroke: #000000; stroke-width: 0.6"/>
      </g>
     </g>
    </g>
    <g id="ytick_43">
     <g id="line2d_82">
      <g>
       <use xlink:href="#m12c3978d88" x="750.91637" y="32.39244" style="stroke: #000000; stroke-width: 0.6"/>
      </g>
     </g>
    </g>
    <g id="ytick_44">
     <g id="line2d_83">
      <g>
       <use xlink:href="#m12c3978d88" x="750.91637" y="18.603616" style="stroke: #000000; stroke-width: 0.6"/>
      </g>
     </g>
    </g>
    <g id="ytick_45">
     <g id="line2d_84">
      <g>
       <use xlink:href="#m12c3978d88" x="750.91637" y="7.908173" style="stroke: #000000; stroke-width: 0.6"/>
      </g>
     </g>
    </g>
    <g id="text_28">
     <!-- $|y-y_{exact}|$ -->
     <g transform="translate(704.23637 311.94) rotate(-90) scale(0.2 -0.2)">
      <defs>
       <path id="DejaVuSans-7c" d="M 1344 4891 
L 1344 -1509 
L 813 -1509 
L 813 4891 
L 1344 4891 
z
" transform="scale(0.015625)"/>
       <path id="DejaVuSans-2212" d="M 678 2272 
L 4684 2272 
L 4684 1741 
L 678 1741 
L 678 2272 
z
" transform="scale(0.015625)"/>
       <path id="DejaVuSans-Oblique-65" d="M 3078 2063 
Q 3088 2113 3092 2166 
Q 3097 2219 3097 2272 
Q 3097 2653 2873 2875 
Q 2650 3097 2266 3097 
Q 1838 3097 1509 2826 
Q 1181 2556 1013 2059 
L 3078 2063 
z
M 3578 1613 
L 903 1613 
Q 884 1494 878 1425 
Q 872 1356 872 1306 
Q 872 872 1139 634 
Q 1406 397 1894 397 
Q 2269 397 2603 481 
Q 2938 566 3225 728 
L 3116 159 
Q 2806 34 2476 -28 
Q 2147 -91 1806 -91 
Q 1078 -91 686 257 
Q 294 606 294 1247 
Q 294 1794 489 2264 
Q 684 2734 1063 3103 
Q 1306 3334 1642 3459 
Q 1978 3584 2356 3584 
Q 2950 3584 3301 3228 
Q 3653 2872 3653 2272 
Q 3653 2128 3634 1964 
Q 3616 1800 3578 1613 
z
" transform="scale(0.015625)"/>
       <path id="DejaVuSans-Oblique-61" d="M 3438 1997 
L 3047 0 
L 2472 0 
L 2578 531 
Q 2325 219 2001 64 
Q 1678 -91 1281 -91 
Q 834 -91 548 182 
Q 263 456 263 884 
Q 263 1497 752 1853 
Q 1241 2209 2100 2209 
L 2900 2209 
L 2931 2363 
Q 2938 2388 2941 2417 
Q 2944 2447 2944 2509 
Q 2944 2788 2717 2942 
Q 2491 3097 2081 3097 
Q 1800 3097 1504 3025 
Q 1209 2953 897 2809 
L 997 3341 
Q 1322 3463 1633 3523 
Q 1944 3584 2234 3584 
Q 2853 3584 3176 3315 
Q 3500 3047 3500 2534 
Q 3500 2431 3484 2292 
Q 3469 2153 3438 1997 
z
M 2816 1759 
L 2241 1759 
Q 1534 1759 1195 1570 
Q 856 1381 856 984 
Q 856 709 1029 553 
Q 1203 397 1509 397 
Q 1978 397 2328 733 
Q 2678 1069 2791 1631 
L 2816 1759 
z
" transform="scale(0.015625)"/>
       <path id="DejaVuSans-Oblique-63" d="M 3431 3366 
L 3316 2797 
Q 3109 2947 2876 3022 
Q 2644 3097 2394 3097 
Q 2119 3097 1870 3000 
Q 1622 2903 1453 2725 
Q 1184 2453 1037 2087 
Q 891 1722 891 1331 
Q 891 859 1127 628 
Q 1363 397 1844 397 
Q 2081 397 2348 469 
Q 2616 541 2906 684 
L 2797 116 
Q 2547 13 2283 -39 
Q 2019 -91 1741 -91 
Q 1044 -91 669 257 
Q 294 606 294 1253 
Q 294 1797 489 2255 
Q 684 2713 1069 3078 
Q 1331 3328 1684 3456 
Q 2038 3584 2456 3584 
Q 2700 3584 2940 3529 
Q 3181 3475 3431 3366 
z
" transform="scale(0.015625)"/>
       <path id="DejaVuSans-Oblique-74" d="M 2706 3500 
L 2619 3053 
L 1472 3053 
L 1100 1153 
Q 1081 1047 1072 975 
Q 1063 903 1063 863 
Q 1063 663 1183 572 
Q 1303 481 1569 481 
L 2150 481 
L 2053 0 
L 1503 0 
Q 991 0 739 200 
Q 488 400 488 806 
Q 488 878 497 964 
Q 506 1050 525 1153 
L 897 3053 
L 409 3053 
L 500 3500 
L 978 3500 
L 1172 4494 
L 1747 4494 
L 1556 3500 
L 2706 3500 
z
" transform="scale(0.015625)"/>
      </defs>
      <use xlink:href="#DejaVuSans-7c" transform="translate(0 0.578125)"/>
      <use xlink:href="#DejaVuSans-Oblique-79" transform="translate(33.691406 0.578125)"/>
      <use xlink:href="#DejaVuSans-2212" transform="translate(112.353516 0.578125)"/>
      <use xlink:href="#DejaVuSans-Oblique-79" transform="translate(215.625 0.578125)"/>
      <use xlink:href="#DejaVuSans-Oblique-65" transform="translate(274.804688 -15.828125) scale(0.7)"/>
      <use xlink:href="#DejaVuSans-Oblique-78" transform="translate(317.871094 -15.828125) scale(0.7)"/>
      <use xlink:href="#DejaVuSans-Oblique-61" transform="translate(359.296875 -15.828125) scale(0.7)"/>
      <use xlink:href="#DejaVuSans-Oblique-63" transform="translate(402.192383 -15.828125) scale(0.7)"/>
      <use xlink:href="#DejaVuSans-Oblique-74" transform="translate(440.678711 -15.828125) scale(0.7)"/>
      <use xlink:href="#DejaVuSans-7c" transform="translate(470.859375 0.578125)"/>
     </g>
    </g>
   </g>
   <g id="line2d_85">
    <path d="M 764.168108 569.90125 
L 764.175739 192.690559 
L 766.404205 202.984679 
L 768.63267 122.52099 
L 770.861135 155.337785 
L 773.089601 123.99664 
L 775.318066 115.323597 
L 777.546531 110.070752 
L 779.774997 103.326062 
L 782.003462 143.668225 
L 784.231928 87.273992 
L 786.460393 104.573344 
L 788.688858 203.80633 
L 790.917324 79.105228 
L 793.145789 122.342618 
L 795.374255 128.053023 
L 797.60272 79.66815 
L 799.831185 159.348287 
L 802.059651 109.348251 
L 804.288116 84.370725 
L 806.516581 291.720635 
L 808.745047 101.942434 
L 810.973512 89.844221 
L 813.201978 181.994006 
L 815.430443 97.590362 
L 817.658908 94.638212 
L 819.887374 150.316681 
L 822.115839 93.586249 
L 824.344304 99.016745 
L 826.57277 130.88201 
L 828.801235 89.457477 
L 831.029701 103.88676 
L 833.258166 115.629305 
L 835.486631 85.294687 
L 837.715097 110.149045 
L 839.943562 102.617371 
L 842.172027 80.99402 
L 844.400493 118.855913 
L 846.628958 90.86245 
L 848.857424 76.027294 
L 851.085889 132.163857 
L 853.314354 79.410491 
L 855.54282 69.168439 
L 857.771285 157.324699 
L 859.999751 66.763645 
L 862.228216 57.459791 
L 864.456681 274.635492 
L 866.685147 48.691326 
L 868.913612 30.312727 
L 871.142077 95.181621 
L 873.370543 95.181621 
L 875.599008 30.312727 
L 877.827474 48.691326 
L 880.055939 274.635492 
L 882.284404 57.459791 
L 884.51287 66.763645 
L 886.741335 157.324699 
L 888.9698 69.168439 
L 891.198266 79.410491 
L 893.426731 132.163857 
L 895.655197 76.027294 
L 897.883662 90.86245 
L 900.112127 118.855913 
L 902.340593 80.99402 
L 904.569058 102.617371 
L 906.797523 110.149045 
L 909.025989 85.294687 
L 911.254454 115.629305 
L 913.48292 103.88676 
L 915.711385 89.457477 
L 917.93985 130.88201 
L 920.168316 99.016745 
L 922.396781 93.586249 
L 924.625247 150.316681 
L 926.853712 94.638212 
L 929.082177 97.590362 
L 931.310643 181.994006 
L 933.539108 89.844221 
L 935.767573 101.942434 
L 937.996039 291.720635 
L 940.224504 84.370725 
L 942.45297 109.348251 
L 944.681435 159.348287 
L 946.9099 79.66815 
L 949.138366 128.053023 
L 951.366831 122.342618 
L 953.595296 79.105228 
L 955.823762 203.80633 
L 958.052227 104.573344 
L 960.280693 87.273992 
L 962.509158 143.668225 
L 964.737623 103.326062 
L 966.966089 110.070752 
L 969.194554 115.323597 
L 971.423019 123.99664 
L 973.651485 155.337785 
L 975.87995 122.52099 
L 978.108416 202.984679 
L 980.336881 192.690559 
L 980.344513 569.90125 
" clip-path="url(#pebf9c3dfae)" style="fill: none; stroke: #a80000; stroke-width: 3; stroke-linecap: square"/>
   </g>
   <g id="line2d_86">
    <path d="M 761.947274 162.963992 
L 764.175739 183.48026 
L 766.404205 179.891061 
L 768.63267 178.157669 
L 770.861135 176.999134 
L 773.089601 176.365336 
L 775.318066 176.101141 
L 777.546531 176.174592 
L 779.774997 176.647369 
L 782.003462 177.404155 
L 784.231928 178.488357 
L 786.460393 179.775684 
L 788.688858 181.324704 
L 790.917324 183.123584 
L 793.145789 184.930073 
L 795.374255 186.993573 
L 797.60272 189.11943 
L 799.831185 191.114298 
L 802.059651 193.374118 
L 804.288116 195.384206 
L 806.516581 197.235621 
L 808.745047 199.396199 
L 810.973512 200.889971 
L 813.201978 202.374163 
L 815.430443 204.292901 
L 817.658908 205.047406 
L 819.887374 206.167227 
L 822.115839 207.687466 
L 824.344304 207.968135 
L 826.57277 208.960892 
L 828.801235 210.158712 
L 831.029701 210.285678 
L 833.258166 211.510501 
L 835.486631 212.492599 
L 837.715097 212.67016 
L 839.943562 214.552791 
L 842.172027 215.218987 
L 844.400493 215.721317 
L 846.628958 219.181329 
L 848.857424 219.635735 
L 851.085889 222.065499 
L 853.314354 231.564829 
L 855.54282 235.920273 
L 857.771285 255.612916 
L 859.999751 492.567273 
L 862.228216 247.507189 
L 864.456681 194.277139 
L 866.685147 157.111878 
L 868.913612 125.689494 
L 871.142077 40.095769 
L 873.370543 40.095769 
L 875.599008 125.689494 
L 877.827474 157.111878 
L 880.055939 194.277139 
L 882.284404 247.507189 
L 884.51287 492.567273 
L 886.741335 255.612916 
L 888.9698 235.920273 
L 891.198266 231.564829 
L 893.426731 222.065499 
L 895.655197 219.635735 
L 897.883662 219.181329 
L 900.112127 215.721317 
L 902.340593 215.218987 
L 904.569058 214.552791 
L 906.797523 212.67016 
L 909.025989 212.492599 
L 911.254454 211.510501 
L 913.48292 210.285678 
L 915.711385 210.158712 
L 917.93985 208.960892 
L 920.168316 207.968135 
L 922.396781 207.687466 
L 924.625247 206.167227 
L 926.853712 205.047406 
L 929.082177 204.292901 
L 931.310643 202.374163 
L 933.539108 200.889971 
L 935.767573 199.396199 
L 937.996039 197.235621 
L 940.224504 195.384206 
L 942.45297 193.374118 
L 944.681435 191.114298 
L 946.9099 189.11943 
L 949.138366 186.993573 
L 951.366831 184.930073 
L 953.595296 183.123584 
L 955.823762 181.324704 
L 958.052227 179.775684 
L 960.280693 178.488357 
L 962.509158 177.404155 
L 964.737623 176.647369 
L 966.966089 176.174592 
L 969.194554 176.101141 
L 971.423019 176.365336 
L 973.651485 176.999134 
L 975.87995 178.157669 
L 978.108416 179.891061 
L 980.336881 183.48026 
L 982.565346 162.963992 
" clip-path="url(#pebf9c3dfae)" style="fill: none; stroke: #1f77b4; stroke-width: 3; stroke-linecap: square"/>
   </g>
   <g id="patch_9">
    <path d="M 750.91637 515.68 
L 750.91637 7.2 
" style="fill: none; stroke: #000000; stroke-width: 1.5; stroke-linejoin: miter; stroke-linecap: square"/>
   </g>
   <g id="patch_10">
    <path d="M 993.59625 515.68 
L 993.59625 7.2 
" style="fill: none; stroke: #000000; stroke-width: 1.5; stroke-linejoin: miter; stroke-linecap: square"/>
   </g>
   <g id="patch_11">
    <path d="M 750.91637 515.68 
L 993.59625 515.68 
" style="fill: none; stroke: #000000; stroke-width: 1.5; stroke-linejoin: miter; stroke-linecap: square"/>
   </g>
   <g id="patch_12">
    <path d="M 750.91637 7.2 
L 993.59625 7.2 
" style="fill: none; stroke: #000000; stroke-width: 1.5; stroke-linejoin: miter; stroke-linecap: square"/>
   </g>
   <g id="legend_2">
    <g id="patch_13">
     <path d="M 897.307188 44.65625 
L 986.59625 44.65625 
Q 988.59625 44.65625 988.59625 42.65625 
L 988.59625 14.2 
Q 988.59625 12.2 986.59625 12.2 
L 897.307188 12.2 
Q 895.307188 12.2 895.307188 14.2 
L 895.307188 42.65625 
Q 895.307188 44.65625 897.307188 44.65625 
z
" style="fill: #ffffff; opacity: 0.8; stroke: #cccccc; stroke-linejoin: miter"/>
    </g>
    <g id="line2d_87">
     <path d="M 899.307188 20.259375 
L 909.307188 20.259375 
L 919.307188 20.259375 
" style="fill: none; stroke: #a80000; stroke-width: 3; stroke-linecap: square"/>
    </g>
    <g id="text_29">
     <!-- 64, t=1.3 -->
     <g transform="translate(927.307188 23.759375) scale(0.1 -0.1)">
      <use xlink:href="#Georgia-36"/>
      <use xlink:href="#Georgia-34" x="56.591797"/>
      <use xlink:href="#Georgia-2c" x="113.085938"/>
      <use xlink:href="#Georgia-20" x="140.039062"/>
      <use xlink:href="#Georgia-74" x="164.160156"/>
      <use xlink:href="#Georgia-3d" x="198.681641"/>
      <use xlink:href="#Georgia-31" x="262.988281"/>
      <use xlink:href="#Georgia-2e" x="305.957031"/>
      <use xlink:href="#Georgia-33" x="332.910156"/>
     </g>
    </g>
    <g id="line2d_88">
     <path d="M 899.307188 34.9875 
L 909.307188 34.9875 
L 919.307188 34.9875 
" style="fill: none; stroke: #1f77b4; stroke-width: 3; stroke-linecap: square"/>
    </g>
    <g id="text_30">
     <!-- 64, t=1.3,ggb -->
     <g transform="translate(927.307188 38.4875) scale(0.1 -0.1)">
      <use xlink:href="#Georgia-36"/>
      <use xlink:href="#Georgia-34" x="56.591797"/>
      <use xlink:href="#Georgia-2c" x="113.085938"/>
      <use xlink:href="#Georgia-20" x="140.039062"/>
      <use xlink:href="#Georgia-74" x="164.160156"/>
      <use xlink:href="#Georgia-3d" x="198.681641"/>
      <use xlink:href="#Georgia-31" x="262.988281"/>
      <use xlink:href="#Georgia-2e" x="305.957031"/>
      <use xlink:href="#Georgia-33" x="332.910156"/>
      <use xlink:href="#Georgia-2c" x="388.085938"/>
      <use xlink:href="#Georgia-67" x="415.039062"/>
      <use xlink:href="#Georgia-67" x="465.966797"/>
      <use xlink:href="#Georgia-62" x="516.894531"/>
     </g>
    </g>
   </g>
  </g>
 </g>
 <defs>
  <clipPath id="p659643293f">
   <rect x="70.53125" y="7.2" width="606.6997" height="508.48"/>
  </clipPath>
  <clipPath id="pebf9c3dfae">
   <rect x="750.91637" y="7.2" width="242.67988" height="508.48"/>
  </clipPath>
 </defs>
</svg>
