<?xml version="1.0" encoding="utf-8" standalone="no"?>
<!DOCTYPE svg PUBLIC "-//W3C//DTD SVG 1.1//EN"
  "http://www.w3.org/Graphics/SVG/1.1/DTD/svg11.dtd">
<svg xmlns:xlink="http://www.w3.org/1999/xlink" width="1000.80625pt" height="569.00875pt" viewBox="0 0 1000.80625 569.00875" xmlns="http://www.w3.org/2000/svg" version="1.1">
 <metadata>
  <rdf:RDF xmlns:dc="http://purl.org/dc/elements/1.1/" xmlns:cc="http://creativecommons.org/ns#" xmlns:rdf="http://www.w3.org/1999/02/22-rdf-syntax-ns#">
   <cc:Work>
    <dc:type rdf:resource="http://purl.org/dc/dcmitype/StillImage"/>
    <dc:date>2024-02-04T22:43:23.072738</dc:date>
    <dc:format>image/svg+xml</dc:format>
    <dc:creator>
     <cc:Agent>
      <dc:title>Matplotlib v3.6.2, https://matplotlib.org/</dc:title>
     </cc:Agent>
    </dc:creator>
   </cc:Work>
  </rdf:RDF>
 </metadata>
 <defs>
  <style type="text/css">*{stroke-linejoin: round; stroke-linecap: butt}</style>
 </defs>
 <g id="figure_1">
  <g id="patch_1">
   <path d="M 0 569.00875 
L 1000.80625 569.00875 
L 1000.80625 0 
L 0 0 
L 0 569.00875 
z
" style="fill: none"/>
  </g>
  <g id="axes_1">
   <g id="patch_2">
    <path d="M 80.35125 515.7875 
L 680.043807 515.7875 
L 680.043807 13.2475 
L 80.35125 13.2475 
L 80.35125 515.7875 
z
" style="fill: none"/>
   </g>
   <g id="matplotlib.axis_1">
    <g id="xtick_1">
     <g id="line2d_1">
      <path d="M 107.610003 515.7875 
L 107.610003 13.2475 
" clip-path="url(#p881b6b8a32)" style="fill: none; stroke: #b0b0b0; stroke-width: 0.8; stroke-linecap: square"/>
     </g>
     <g id="line2d_2">
      <defs>
       <path id="m5dff6b46c7" d="M 0 0 
L 0 3.5 
" style="stroke: #000000; stroke-width: 0.8"/>
      </defs>
      <g>
       <use xlink:href="#m5dff6b46c7" x="107.610003" y="515.7875" style="stroke: #000000; stroke-width: 0.8"/>
      </g>
     </g>
     <g id="text_1">
      <!-- 0 -->
      <g transform="translate(102.700003 534.8825) scale(0.16 -0.16)">
       <defs>
        <path id="Georgia-30" d="M 3209 2919 
Q 3409 2678 3507 2354 
Q 3606 2031 3606 1678 
Q 3606 1253 3484 917 
Q 3363 581 3150 359 
Q 2931 131 2631 15 
Q 2331 -100 1963 -100 
Q 1559 -100 1243 34 
Q 928 169 731 403 
Q 525 647 423 973 
Q 322 1300 322 1678 
Q 322 2050 420 2362 
Q 519 2675 728 2928 
Q 928 3172 1243 3312 
Q 1559 3453 1966 3453 
Q 2394 3453 2700 3309 
Q 3006 3166 3209 2919 
z
M 2916 1678 
Q 2916 2422 2661 2831 
Q 2406 3241 1969 3241 
Q 1525 3241 1269 2831 
Q 1013 2422 1013 1678 
Q 1013 972 1258 542 
Q 1503 113 1963 113 
Q 2422 113 2669 542 
Q 2916 972 2916 1678 
z
" transform="scale(0.015625)"/>
       </defs>
       <use xlink:href="#Georgia-30"/>
      </g>
     </g>
    </g>
    <g id="xtick_2">
     <g id="line2d_3">
      <path d="M 194.377307 515.7875 
L 194.377307 13.2475 
" clip-path="url(#p881b6b8a32)" style="fill: none; stroke: #b0b0b0; stroke-width: 0.8; stroke-linecap: square"/>
     </g>
     <g id="line2d_4">
      <g>
       <use xlink:href="#m5dff6b46c7" x="194.377307" y="515.7875" style="stroke: #000000; stroke-width: 0.8"/>
      </g>
     </g>
     <g id="text_2">
      <!-- 1 -->
      <g transform="translate(190.939807 534.8825) scale(0.16 -0.16)">
       <defs>
        <path id="Georgia-31" d="M 2528 0 
L 422 0 
L 422 222 
Q 516 228 714 248 
Q 913 269 988 291 
Q 1084 322 1136 392 
Q 1188 463 1188 603 
L 1188 2797 
L 409 2797 
L 409 3059 
L 581 3059 
Q 919 3059 1186 3184 
Q 1453 3309 1569 3453 
L 1828 3453 
Q 1819 3250 1809 2978 
Q 1800 2706 1800 2491 
L 1800 638 
Q 1800 528 1848 442 
Q 1897 356 1988 316 
Q 2069 281 2253 253 
Q 2438 225 2528 222 
L 2528 0 
z
" transform="scale(0.015625)"/>
       </defs>
       <use xlink:href="#Georgia-31"/>
      </g>
     </g>
    </g>
    <g id="xtick_3">
     <g id="line2d_5">
      <path d="M 281.144611 515.7875 
L 281.144611 13.2475 
" clip-path="url(#p881b6b8a32)" style="fill: none; stroke: #b0b0b0; stroke-width: 0.8; stroke-linecap: square"/>
     </g>
     <g id="line2d_6">
      <g>
       <use xlink:href="#m5dff6b46c7" x="281.144611" y="515.7875" style="stroke: #000000; stroke-width: 0.8"/>
      </g>
     </g>
     <g id="text_3">
      <!-- 2 -->
      <g transform="translate(276.675861 534.8825) scale(0.16 -0.16)">
       <defs>
        <path id="Georgia-32" d="M 3272 0 
L 344 0 
L 344 425 
Q 428 522 578 642 
Q 728 763 934 903 
Q 1059 988 1234 1088 
Q 1409 1188 1631 1306 
Q 1878 1438 2011 1538 
Q 2144 1638 2253 1784 
Q 2325 1881 2369 2026 
Q 2413 2172 2413 2441 
Q 2413 2831 2203 3014 
Q 1994 3197 1666 3197 
Q 1463 3197 1281 3117 
Q 1100 3038 1009 2897 
Q 1031 2797 1064 2659 
Q 1097 2522 1097 2391 
Q 1097 2272 998 2180 
Q 900 2088 706 2088 
Q 550 2088 465 2195 
Q 381 2303 381 2484 
Q 381 2653 475 2823 
Q 569 2994 744 3138 
Q 916 3278 1169 3365 
Q 1422 3453 1716 3453 
Q 2356 3453 2732 3167 
Q 3109 2881 3109 2403 
Q 3109 2175 3042 1987 
Q 2975 1800 2825 1656 
Q 2659 1497 2437 1383 
Q 2216 1269 1759 1066 
Q 1488 944 1253 811 
Q 1019 678 869 553 
L 3272 553 
L 3272 0 
z
" transform="scale(0.015625)"/>
       </defs>
       <use xlink:href="#Georgia-32"/>
      </g>
     </g>
    </g>
    <g id="xtick_4">
     <g id="line2d_7">
      <path d="M 367.911915 515.7875 
L 367.911915 13.2475 
" clip-path="url(#p881b6b8a32)" style="fill: none; stroke: #b0b0b0; stroke-width: 0.8; stroke-linecap: square"/>
     </g>
     <g id="line2d_8">
      <g>
       <use xlink:href="#m5dff6b46c7" x="367.911915" y="515.7875" style="stroke: #000000; stroke-width: 0.8"/>
      </g>
     </g>
     <g id="text_4">
      <!-- 3 -->
      <g transform="translate(363.498165 534.8825) scale(0.16 -0.16)">
       <defs>
        <path id="Georgia-33" d="M 1522 -1141 
Q 1228 -1141 984 -1067 
Q 741 -994 566 -869 
Q 391 -744 295 -581 
Q 200 -419 200 -247 
Q 200 -94 275 29 
Q 350 153 516 153 
Q 703 153 801 61 
Q 900 -31 900 -150 
Q 900 -250 867 -403 
Q 834 -556 816 -622 
Q 838 -650 895 -697 
Q 953 -744 1038 -781 
Q 1138 -828 1247 -856 
Q 1356 -884 1556 -884 
Q 1744 -884 1917 -821 
Q 2091 -759 2222 -622 
Q 2359 -478 2436 -286 
Q 2513 -94 2513 219 
Q 2513 388 2477 553 
Q 2441 719 2344 841 
Q 2247 963 2080 1030 
Q 1913 1097 1656 1097 
L 1247 1097 
L 1247 1456 
L 1519 1456 
Q 1950 1456 2140 1693 
Q 2331 1931 2331 2409 
Q 2331 2800 2147 2998 
Q 1963 3197 1625 3197 
Q 1463 3197 1358 3158 
Q 1253 3119 1188 3081 
Q 1109 3038 1059 2984 
Q 1009 2931 984 2906 
Q 1006 2806 1037 2661 
Q 1069 2516 1069 2384 
Q 1069 2269 970 2176 
Q 872 2084 681 2084 
Q 516 2084 439 2203 
Q 363 2322 363 2478 
Q 363 2641 453 2809 
Q 544 2978 722 3125 
Q 900 3272 1156 3362 
Q 1413 3453 1747 3453 
Q 2131 3453 2382 3339 
Q 2634 3225 2778 3063 
Q 2919 2903 2972 2728 
Q 3025 2553 3025 2428 
Q 3025 2272 2981 2114 
Q 2938 1956 2838 1822 
Q 2728 1675 2548 1554 
Q 2369 1434 2097 1359 
L 2097 1309 
Q 2272 1294 2470 1231 
Q 2669 1169 2828 1047 
Q 2994 919 3100 717 
Q 3206 516 3206 206 
Q 3206 -394 2725 -767 
Q 2244 -1141 1522 -1141 
z
" transform="scale(0.015625)"/>
       </defs>
       <use xlink:href="#Georgia-33"/>
      </g>
     </g>
    </g>
    <g id="xtick_5">
     <g id="line2d_9">
      <path d="M 454.67922 515.7875 
L 454.67922 13.2475 
" clip-path="url(#p881b6b8a32)" style="fill: none; stroke: #b0b0b0; stroke-width: 0.8; stroke-linecap: square"/>
     </g>
     <g id="line2d_10">
      <g>
       <use xlink:href="#m5dff6b46c7" x="454.67922" y="515.7875" style="stroke: #000000; stroke-width: 0.8"/>
      </g>
     </g>
     <g id="text_5">
      <!-- 4 -->
      <g transform="translate(450.15922 534.8825) scale(0.16 -0.16)">
       <defs>
        <path id="Georgia-34" d="M 3388 281 
L 2753 281 
L 2753 -1141 
L 2153 -1141 
L 2153 281 
L 153 281 
L 153 763 
L 2344 3434 
L 2753 3434 
L 2753 691 
L 3388 691 
L 3388 281 
z
M 2153 691 
L 2153 2738 
L 466 691 
L 2153 691 
z
" transform="scale(0.015625)"/>
       </defs>
       <use xlink:href="#Georgia-34"/>
      </g>
     </g>
    </g>
    <g id="xtick_6">
     <g id="line2d_11">
      <path d="M 541.446524 515.7875 
L 541.446524 13.2475 
" clip-path="url(#p881b6b8a32)" style="fill: none; stroke: #b0b0b0; stroke-width: 0.8; stroke-linecap: square"/>
     </g>
     <g id="line2d_12">
      <g>
       <use xlink:href="#m5dff6b46c7" x="541.446524" y="515.7875" style="stroke: #000000; stroke-width: 0.8"/>
      </g>
     </g>
     <g id="text_6">
      <!-- 5 -->
      <g transform="translate(537.220274 534.8825) scale(0.16 -0.16)">
       <defs>
        <path id="Georgia-35" d="M 2634 1466 
Q 2841 1303 2977 1047 
Q 3113 791 3113 406 
Q 3113 -266 2653 -703 
Q 2194 -1141 1488 -1141 
Q 941 -1141 562 -881 
Q 184 -622 184 -278 
Q 184 -119 262 0 
Q 341 119 503 119 
Q 691 119 789 20 
Q 888 -78 888 -194 
Q 888 -294 853 -444 
Q 819 -594 800 -666 
Q 825 -688 881 -725 
Q 938 -763 1016 -797 
Q 1097 -831 1214 -857 
Q 1331 -884 1488 -884 
Q 1688 -884 1866 -803 
Q 2044 -722 2166 -563 
Q 2300 -388 2367 -164 
Q 2434 59 2434 403 
Q 2434 844 2189 1133 
Q 1944 1422 1544 1422 
Q 1294 1422 1076 1328 
Q 859 1234 688 1016 
L 478 1097 
L 744 3353 
L 2981 3353 
L 2981 2797 
L 997 2797 
L 834 1472 
Q 975 1572 1204 1670 
Q 1434 1769 1709 1769 
Q 1938 1769 2183 1698 
Q 2428 1628 2634 1466 
z
" transform="scale(0.015625)"/>
       </defs>
       <use xlink:href="#Georgia-35"/>
      </g>
     </g>
    </g>
    <g id="xtick_7">
     <g id="line2d_13">
      <path d="M 628.213828 515.7875 
L 628.213828 13.2475 
" clip-path="url(#p881b6b8a32)" style="fill: none; stroke: #b0b0b0; stroke-width: 0.8; stroke-linecap: square"/>
     </g>
     <g id="line2d_14">
      <g>
       <use xlink:href="#m5dff6b46c7" x="628.213828" y="515.7875" style="stroke: #000000; stroke-width: 0.8"/>
      </g>
     </g>
     <g id="text_7">
      <!-- 6 -->
      <g transform="translate(623.686328 534.8825) scale(0.16 -0.16)">
       <defs>
        <path id="Georgia-36" d="M 3359 1441 
Q 3359 1116 3242 831 
Q 3125 547 2928 347 
Q 2700 119 2423 9 
Q 2147 -100 1847 -100 
Q 1500 -100 1219 28 
Q 938 156 741 391 
Q 541 628 431 972 
Q 322 1316 322 1744 
Q 322 2859 986 3625 
Q 1650 4391 2766 4544 
L 2822 4263 
L 2541 4213 
Q 1863 3994 1492 3531 
Q 1122 3069 1013 2409 
Q 1281 2644 1543 2741 
Q 1806 2838 2097 2838 
Q 2619 2838 2989 2438 
Q 3359 2038 3359 1441 
z
M 2681 1356 
Q 2681 1863 2448 2169 
Q 2216 2475 1825 2475 
Q 1591 2475 1389 2387 
Q 1188 2300 1000 2094 
Q 997 2056 990 1920 
Q 984 1784 984 1706 
Q 984 975 1223 561 
Q 1463 147 1853 147 
Q 2225 147 2453 470 
Q 2681 794 2681 1356 
z
" transform="scale(0.015625)"/>
       </defs>
       <use xlink:href="#Georgia-36"/>
      </g>
     </g>
    </g>
    <g id="text_8">
     <!-- $x$ -->
     <g transform="translate(374.197528 557.47125) scale(0.2 -0.2)">
      <defs>
       <path id="DejaVuSans-Oblique-78" d="M 3841 3500 
L 2234 1784 
L 3219 0 
L 2559 0 
L 1819 1388 
L 531 0 
L -166 0 
L 1556 1844 
L 641 3500 
L 1300 3500 
L 1972 2234 
L 3144 3500 
L 3841 3500 
z
" transform="scale(0.015625)"/>
      </defs>
      <use xlink:href="#DejaVuSans-Oblique-78" transform="translate(0 0.3125)"/>
     </g>
    </g>
   </g>
   <g id="matplotlib.axis_2">
    <g id="ytick_1">
     <g id="line2d_15">
      <path d="M 80.35125 492.945055 
L 680.043807 492.945055 
" clip-path="url(#p881b6b8a32)" style="fill: none; stroke: #b0b0b0; stroke-width: 0.8; stroke-linecap: square"/>
     </g>
     <g id="line2d_16">
      <defs>
       <path id="m2c9b3ecdc6" d="M 0 0 
L -3.5 0 
" style="stroke: #000000; stroke-width: 0.8"/>
      </defs>
      <g>
       <use xlink:href="#m2c9b3ecdc6" x="80.35125" y="492.945055" style="stroke: #000000; stroke-width: 0.8"/>
      </g>
     </g>
     <g id="text_9">
      <!-- −1.00 -->
      <g transform="translate(32.23375 498.992555) scale(0.16 -0.16)">
       <defs>
        <path id="Georgia-2212" d="M 3650 1553 
L 466 1553 
L 466 1944 
L 3650 1944 
L 3650 1553 
z
" transform="scale(0.015625)"/>
        <path id="Georgia-2e" d="M 1297 359 
Q 1297 184 1170 60 
Q 1044 -63 869 -63 
Q 694 -63 567 60 
Q 441 184 441 359 
Q 441 534 567 661 
Q 694 788 869 788 
Q 1044 788 1170 661 
Q 1297 534 1297 359 
z
" transform="scale(0.015625)"/>
       </defs>
       <use xlink:href="#Georgia-2212"/>
       <use xlink:href="#Georgia-31" x="64.306641"/>
       <use xlink:href="#Georgia-2e" x="107.275391"/>
       <use xlink:href="#Georgia-30" x="134.228516"/>
       <use xlink:href="#Georgia-30" x="195.605469"/>
      </g>
     </g>
    </g>
    <g id="ytick_2">
     <g id="line2d_17">
      <path d="M 80.35125 435.838166 
L 680.043807 435.838166 
" clip-path="url(#p881b6b8a32)" style="fill: none; stroke: #b0b0b0; stroke-width: 0.8; stroke-linecap: square"/>
     </g>
     <g id="line2d_18">
      <g>
       <use xlink:href="#m2c9b3ecdc6" x="80.35125" y="435.838166" style="stroke: #000000; stroke-width: 0.8"/>
      </g>
     </g>
     <g id="text_10">
      <!-- −0.75 -->
      <g transform="translate(32.43625 441.885666) scale(0.16 -0.16)">
       <defs>
        <path id="Georgia-37" d="M 3216 3150 
L 988 -1141 
L 597 -1141 
L 2694 2828 
L 1466 2828 
Q 1194 2828 1041 2822 
Q 888 2816 759 2763 
Q 663 2722 586 2555 
Q 509 2388 469 2128 
L 278 2128 
L 278 3353 
L 3216 3353 
L 3216 3150 
z
" transform="scale(0.015625)"/>
       </defs>
       <use xlink:href="#Georgia-2212"/>
       <use xlink:href="#Georgia-30" x="64.306641"/>
       <use xlink:href="#Georgia-2e" x="125.683594"/>
       <use xlink:href="#Georgia-37" x="152.636719"/>
       <use xlink:href="#Georgia-35" x="202.880859"/>
      </g>
     </g>
    </g>
    <g id="ytick_3">
     <g id="line2d_19">
      <path d="M 80.35125 378.731278 
L 680.043807 378.731278 
" clip-path="url(#p881b6b8a32)" style="fill: none; stroke: #b0b0b0; stroke-width: 0.8; stroke-linecap: square"/>
     </g>
     <g id="line2d_20">
      <g>
       <use xlink:href="#m2c9b3ecdc6" x="80.35125" y="378.731278" style="stroke: #000000; stroke-width: 0.8"/>
      </g>
     </g>
     <g id="text_11">
      <!-- −0.50 -->
      <g transform="translate(30.65625 384.778778) scale(0.16 -0.16)">
       <use xlink:href="#Georgia-2212"/>
       <use xlink:href="#Georgia-30" x="64.306641"/>
       <use xlink:href="#Georgia-2e" x="125.683594"/>
       <use xlink:href="#Georgia-35" x="152.636719"/>
       <use xlink:href="#Georgia-30" x="205.46875"/>
      </g>
     </g>
    </g>
    <g id="ytick_4">
     <g id="line2d_21">
      <path d="M 80.35125 321.624389 
L 680.043807 321.624389 
" clip-path="url(#p881b6b8a32)" style="fill: none; stroke: #b0b0b0; stroke-width: 0.8; stroke-linecap: square"/>
     </g>
     <g id="line2d_22">
      <g>
       <use xlink:href="#m2c9b3ecdc6" x="80.35125" y="321.624389" style="stroke: #000000; stroke-width: 0.8"/>
      </g>
     </g>
     <g id="text_12">
      <!-- −0.25 -->
      <g transform="translate(31.53875 327.671889) scale(0.16 -0.16)">
       <use xlink:href="#Georgia-2212"/>
       <use xlink:href="#Georgia-30" x="64.306641"/>
       <use xlink:href="#Georgia-2e" x="125.683594"/>
       <use xlink:href="#Georgia-32" x="152.636719"/>
       <use xlink:href="#Georgia-35" x="208.496094"/>
      </g>
     </g>
    </g>
    <g id="ytick_5">
     <g id="line2d_23">
      <path d="M 80.35125 264.5175 
L 680.043807 264.5175 
" clip-path="url(#p881b6b8a32)" style="fill: none; stroke: #b0b0b0; stroke-width: 0.8; stroke-linecap: square"/>
     </g>
     <g id="line2d_24">
      <g>
       <use xlink:href="#m2c9b3ecdc6" x="80.35125" y="264.5175" style="stroke: #000000; stroke-width: 0.8"/>
      </g>
     </g>
     <g id="text_13">
      <!-- 0.00 -->
      <g transform="translate(39.57875 270.565) scale(0.16 -0.16)">
       <use xlink:href="#Georgia-30"/>
       <use xlink:href="#Georgia-2e" x="61.376953"/>
       <use xlink:href="#Georgia-30" x="88.330078"/>
       <use xlink:href="#Georgia-30" x="149.707031"/>
      </g>
     </g>
    </g>
    <g id="ytick_6">
     <g id="line2d_25">
      <path d="M 80.35125 207.410611 
L 680.043807 207.410611 
" clip-path="url(#p881b6b8a32)" style="fill: none; stroke: #b0b0b0; stroke-width: 0.8; stroke-linecap: square"/>
     </g>
     <g id="line2d_26">
      <g>
       <use xlink:href="#m2c9b3ecdc6" x="80.35125" y="207.410611" style="stroke: #000000; stroke-width: 0.8"/>
      </g>
     </g>
     <g id="text_14">
      <!-- 0.25 -->
      <g transform="translate(41.82875 213.458111) scale(0.16 -0.16)">
       <use xlink:href="#Georgia-30"/>
       <use xlink:href="#Georgia-2e" x="61.376953"/>
       <use xlink:href="#Georgia-32" x="88.330078"/>
       <use xlink:href="#Georgia-35" x="144.189453"/>
      </g>
     </g>
    </g>
    <g id="ytick_7">
     <g id="line2d_27">
      <path d="M 80.35125 150.303722 
L 680.043807 150.303722 
" clip-path="url(#p881b6b8a32)" style="fill: none; stroke: #b0b0b0; stroke-width: 0.8; stroke-linecap: square"/>
     </g>
     <g id="line2d_28">
      <g>
       <use xlink:href="#m2c9b3ecdc6" x="80.35125" y="150.303722" style="stroke: #000000; stroke-width: 0.8"/>
      </g>
     </g>
     <g id="text_15">
      <!-- 0.50 -->
      <g transform="translate(40.94625 156.351222) scale(0.16 -0.16)">
       <use xlink:href="#Georgia-30"/>
       <use xlink:href="#Georgia-2e" x="61.376953"/>
       <use xlink:href="#Georgia-35" x="88.330078"/>
       <use xlink:href="#Georgia-30" x="141.162109"/>
      </g>
     </g>
    </g>
    <g id="ytick_8">
     <g id="line2d_29">
      <path d="M 80.35125 93.196834 
L 680.043807 93.196834 
" clip-path="url(#p881b6b8a32)" style="fill: none; stroke: #b0b0b0; stroke-width: 0.8; stroke-linecap: square"/>
     </g>
     <g id="line2d_30">
      <g>
       <use xlink:href="#m2c9b3ecdc6" x="80.35125" y="93.196834" style="stroke: #000000; stroke-width: 0.8"/>
      </g>
     </g>
     <g id="text_16">
      <!-- 0.75 -->
      <g transform="translate(42.72625 99.244334) scale(0.16 -0.16)">
       <use xlink:href="#Georgia-30"/>
       <use xlink:href="#Georgia-2e" x="61.376953"/>
       <use xlink:href="#Georgia-37" x="88.330078"/>
       <use xlink:href="#Georgia-35" x="138.574219"/>
      </g>
     </g>
    </g>
    <g id="ytick_9">
     <g id="line2d_31">
      <path d="M 80.35125 36.089945 
L 680.043807 36.089945 
" clip-path="url(#p881b6b8a32)" style="fill: none; stroke: #b0b0b0; stroke-width: 0.8; stroke-linecap: square"/>
     </g>
     <g id="line2d_32">
      <g>
       <use xlink:href="#m2c9b3ecdc6" x="80.35125" y="36.089945" style="stroke: #000000; stroke-width: 0.8"/>
      </g>
     </g>
     <g id="text_17">
      <!-- 1.00 -->
      <g transform="translate(42.52375 42.137445) scale(0.16 -0.16)">
       <use xlink:href="#Georgia-31"/>
       <use xlink:href="#Georgia-2e" x="42.96875"/>
       <use xlink:href="#Georgia-30" x="69.921875"/>
       <use xlink:href="#Georgia-30" x="131.298828"/>
      </g>
     </g>
    </g>
    <g id="text_18">
     <!-- $y$ -->
     <g transform="translate(22.31875 270.5175) rotate(-90) scale(0.2 -0.2)">
      <defs>
       <path id="DejaVuSans-Oblique-79" d="M 1588 -325 
Q 1188 -997 936 -1164 
Q 684 -1331 294 -1331 
L -159 -1331 
L -63 -850 
L 269 -850 
Q 509 -850 678 -719 
Q 847 -588 1056 -206 
L 1234 128 
L 459 3500 
L 1069 3500 
L 1650 819 
L 3256 3500 
L 3859 3500 
L 1588 -325 
z
" transform="scale(0.015625)"/>
      </defs>
      <use xlink:href="#DejaVuSans-Oblique-79" transform="translate(0 0.3125)"/>
     </g>
    </g>
   </g>
   <g id="line2d_33">
    <path d="M 107.610003 264.5175 
L 125.073067 218.85319 
L 134.35032 195.22881 
L 141.990411 176.355986 
L 149.084781 159.439834 
L 155.08771 145.670135 
L 161.090638 132.469068 
L 166.547846 121.014742 
L 171.459333 111.189794 
L 176.37082 101.856 
L 180.736586 93.99583 
L 185.102352 86.567275 
L 189.468118 79.589138 
L 193.288164 73.866666 
L 197.108209 68.513676 
L 200.928255 63.540542 
L 204.7483 58.956902 
L 208.022625 55.344828 
L 211.296949 52.030595 
L 214.571274 49.018922 
L 217.845599 46.314098 
L 221.119923 43.919974 
L 224.394248 41.839958 
L 227.122852 40.348707 
L 229.851456 39.079126 
L 232.580059 38.032471 
L 235.308663 37.209778 
L 238.037267 36.611859 
L 240.765871 36.239305 
L 243.494475 36.092486 
L 246.223079 36.171547 
L 248.951683 36.476408 
L 251.680286 37.006769 
L 254.40889 37.762106 
L 257.137494 38.741671 
L 259.866098 39.944496 
L 262.594702 41.369391 
L 265.323306 43.014947 
L 268.59763 45.278582 
L 271.871955 47.85439 
L 275.14628 50.738706 
L 278.420604 53.927421 
L 281.694929 57.415996 
L 284.969254 61.199462 
L 288.789299 65.979007 
L 292.609344 71.14332 
L 296.42939 76.682394 
L 300.249435 82.585492 
L 304.615201 89.762929 
L 308.980968 97.382694 
L 313.346734 105.425502 
L 318.258221 114.953942 
L 323.169708 124.961479 
L 328.626915 136.603829 
L 334.084123 148.752006 
L 340.087052 162.641843 
L 346.635701 178.347941 
L 354.275792 197.285364 
L 363.007324 219.55726 
L 374.46746 249.443224 
L 399.570616 315.097262 
L 408.302148 337.219987 
L 415.942239 355.981416 
L 422.490888 371.503952 
L 428.493817 385.199932 
L 433.951024 397.151436 
L 439.408232 408.578445 
L 444.319719 418.376919 
L 449.231206 427.682534 
L 453.596972 435.5163 
L 457.962738 442.917243 
L 462.328505 449.86663 
L 466.14855 455.563071 
L 469.968595 460.889264 
L 473.788641 465.834887 
L 477.608686 470.390357 
L 480.883011 473.977802 
L 484.157335 477.266996 
L 487.43166 480.253256 
L 490.705985 482.932329 
L 493.980309 485.300402 
L 497.254634 487.354102 
L 499.983238 488.823249 
L 502.711842 490.07059 
L 505.440446 491.094891 
L 508.169049 491.895141 
L 510.897653 492.470546 
L 513.626257 492.820539 
L 516.354861 492.944773 
L 519.083465 492.843125 
L 521.812069 492.515696 
L 524.540673 491.96281 
L 527.269276 491.185013 
L 529.99788 490.183075 
L 532.726484 488.957986 
L 535.455088 487.510958 
L 538.183692 485.843421 
L 541.458017 483.553643 
L 544.732341 480.95198 
L 548.006666 478.042135 
L 551.28099 474.828252 
L 554.555315 471.314907 
L 557.82964 467.507104 
L 561.649685 462.699759 
L 565.469731 457.508337 
L 569.289776 451.942897 
L 573.109821 446.014226 
L 577.475588 438.8086 
L 581.841354 431.161818 
L 586.20712 423.093235 
L 591.118607 413.537364 
L 596.030094 403.504136 
L 601.487301 391.835384 
L 607.49023 378.420084 
L 613.493158 364.459812 
L 620.041808 348.687434 
L 627.681899 329.687097 
L 636.413431 307.362892 
L 648.419288 276.006166 
L 652.785054 264.5175 
L 652.785054 264.5175 
" clip-path="url(#p881b6b8a32)" style="fill: none; stroke: #000000; stroke-linecap: square"/>
   </g>
   <g id="line2d_34">
    <defs>
     <path id="mde1c4ba609" d="M 0 0.4 
C 0.106081 0.4 0.207832 0.357853 0.282843 0.282843 
C 0.357853 0.207832 0.4 0.106081 0.4 0 
C 0.4 -0.106081 0.357853 -0.207832 0.282843 -0.282843 
C 0.207832 -0.357853 0.106081 -0.4 0 -0.4 
C -0.106081 -0.4 -0.207832 -0.357853 -0.282843 -0.282843 
C -0.357853 -0.207832 -0.4 -0.106081 -0.4 0 
C -0.4 0.106081 -0.357853 0.207832 -0.282843 0.282843 
C -0.207832 0.357853 -0.106081 0.4 0 0.4 
z
" style="stroke: #000000"/>
    </defs>
    <g clip-path="url(#p881b6b8a32)">
     <use xlink:href="#mde1c4ba609" x="107.610003" y="264.5175" style="stroke: #000000"/>
     <use xlink:href="#mde1c4ba609" x="113.116821" y="255.695871" style="stroke: #000000"/>
     <use xlink:href="#mde1c4ba609" x="118.62364" y="249.306254" style="stroke: #000000"/>
     <use xlink:href="#mde1c4ba609" x="124.130459" y="243.014406" style="stroke: #000000"/>
     <use xlink:href="#mde1c4ba609" x="129.637277" y="236.749241" style="stroke: #000000"/>
     <use xlink:href="#mde1c4ba609" x="135.144096" y="230.499852" style="stroke: #000000"/>
     <use xlink:href="#mde1c4ba609" x="140.650915" y="224.265043" style="stroke: #000000"/>
     <use xlink:href="#mde1c4ba609" x="146.157733" y="218.045833" style="stroke: #000000"/>
     <use xlink:href="#mde1c4ba609" x="151.664552" y="211.843874" style="stroke: #000000"/>
     <use xlink:href="#mde1c4ba609" x="157.171371" y="205.661049" style="stroke: #000000"/>
     <use xlink:href="#mde1c4ba609" x="162.67819" y="199.499371" style="stroke: #000000"/>
     <use xlink:href="#mde1c4ba609" x="168.185008" y="193.360953" style="stroke: #000000"/>
     <use xlink:href="#mde1c4ba609" x="173.691827" y="187.24801" style="stroke: #000000"/>
     <use xlink:href="#mde1c4ba609" x="179.198646" y="181.162869" style="stroke: #000000"/>
     <use xlink:href="#mde1c4ba609" x="184.705464" y="175.107979" style="stroke: #000000"/>
     <use xlink:href="#mde1c4ba609" x="190.212283" y="169.085928" style="stroke: #000000"/>
     <use xlink:href="#mde1c4ba609" x="195.719102" y="163.099459" style="stroke: #000000"/>
     <use xlink:href="#mde1c4ba609" x="201.225921" y="157.15149" style="stroke: #000000"/>
     <use xlink:href="#mde1c4ba609" x="206.732739" y="151.245133" style="stroke: #000000"/>
     <use xlink:href="#mde1c4ba609" x="212.239558" y="145.383723" style="stroke: #000000"/>
     <use xlink:href="#mde1c4ba609" x="217.746377" y="139.570846" style="stroke: #000000"/>
     <use xlink:href="#mde1c4ba609" x="223.253195" y="133.810368" style="stroke: #000000"/>
     <use xlink:href="#mde1c4ba609" x="228.760014" y="128.106479" style="stroke: #000000"/>
     <use xlink:href="#mde1c4ba609" x="234.266833" y="122.463733" style="stroke: #000000"/>
     <use xlink:href="#mde1c4ba609" x="239.773651" y="116.887098" style="stroke: #000000"/>
     <use xlink:href="#mde1c4ba609" x="245.28047" y="111.382026" style="stroke: #000000"/>
     <use xlink:href="#mde1c4ba609" x="250.787289" y="105.954515" style="stroke: #000000"/>
     <use xlink:href="#mde1c4ba609" x="256.294108" y="100.611203" style="stroke: #000000"/>
     <use xlink:href="#mde1c4ba609" x="261.800926" y="95.359468" style="stroke: #000000"/>
     <use xlink:href="#mde1c4ba609" x="267.307745" y="90.207556" style="stroke: #000000"/>
     <use xlink:href="#mde1c4ba609" x="272.814564" y="85.164734" style="stroke: #000000"/>
     <use xlink:href="#mde1c4ba609" x="278.321382" y="80.241483" style="stroke: #000000"/>
     <use xlink:href="#mde1c4ba609" x="283.828201" y="75.449731" style="stroke: #000000"/>
     <use xlink:href="#mde1c4ba609" x="289.33502" y="70.803157" style="stroke: #000000"/>
     <use xlink:href="#mde1c4ba609" x="294.841838" y="66.31757" style="stroke: #000000"/>
     <use xlink:href="#mde1c4ba609" x="300.348657" y="62.011404" style="stroke: #000000"/>
     <use xlink:href="#mde1c4ba609" x="305.855476" y="57.906367" style="stroke: #000000"/>
     <use xlink:href="#mde1c4ba609" x="311.362295" y="54.028313" style="stroke: #000000"/>
     <use xlink:href="#mde1c4ba609" x="316.869113" y="50.408423" style="stroke: #000000"/>
     <use xlink:href="#mde1c4ba609" x="322.375932" y="47.084861" style="stroke: #000000"/>
     <use xlink:href="#mde1c4ba609" x="327.882751" y="44.105143" style="stroke: #000000"/>
     <use xlink:href="#mde1c4ba609" x="333.389569" y="41.529637" style="stroke: #000000"/>
     <use xlink:href="#mde1c4ba609" x="338.896388" y="39.436936" style="stroke: #000000"/>
     <use xlink:href="#mde1c4ba609" x="344.403207" y="37.932472" style="stroke: #000000"/>
     <use xlink:href="#mde1c4ba609" x="349.910025" y="37.163159" style="stroke: #000000"/>
     <use xlink:href="#mde1c4ba609" x="355.416844" y="37.344115" style="stroke: #000000"/>
     <use xlink:href="#mde1c4ba609" x="360.923663" y="38.812445" style="stroke: #000000"/>
     <use xlink:href="#mde1c4ba609" x="366.430482" y="42.151211" style="stroke: #000000"/>
     <use xlink:href="#mde1c4ba609" x="371.9373" y="48.539524" style="stroke: #000000"/>
     <use xlink:href="#mde1c4ba609" x="377.444119" y="61.118721" style="stroke: #000000"/>
     <use xlink:href="#mde1c4ba609" x="382.950938" y="467.916279" style="stroke: #000000"/>
     <use xlink:href="#mde1c4ba609" x="388.457756" y="480.495476" style="stroke: #000000"/>
     <use xlink:href="#mde1c4ba609" x="393.964575" y="486.883789" style="stroke: #000000"/>
     <use xlink:href="#mde1c4ba609" x="399.471394" y="490.222555" style="stroke: #000000"/>
     <use xlink:href="#mde1c4ba609" x="404.978212" y="491.690885" style="stroke: #000000"/>
     <use xlink:href="#mde1c4ba609" x="410.485031" y="491.871841" style="stroke: #000000"/>
     <use xlink:href="#mde1c4ba609" x="415.99185" y="491.102528" style="stroke: #000000"/>
     <use xlink:href="#mde1c4ba609" x="421.498669" y="489.598064" style="stroke: #000000"/>
     <use xlink:href="#mde1c4ba609" x="427.005487" y="487.505363" style="stroke: #000000"/>
     <use xlink:href="#mde1c4ba609" x="432.512306" y="484.929857" style="stroke: #000000"/>
     <use xlink:href="#mde1c4ba609" x="438.019125" y="481.950139" style="stroke: #000000"/>
     <use xlink:href="#mde1c4ba609" x="443.525943" y="478.626577" style="stroke: #000000"/>
     <use xlink:href="#mde1c4ba609" x="449.032762" y="475.006687" style="stroke: #000000"/>
     <use xlink:href="#mde1c4ba609" x="454.539581" y="471.128633" style="stroke: #000000"/>
     <use xlink:href="#mde1c4ba609" x="460.0464" y="467.023596" style="stroke: #000000"/>
     <use xlink:href="#mde1c4ba609" x="465.553218" y="462.71743" style="stroke: #000000"/>
     <use xlink:href="#mde1c4ba609" x="471.060037" y="458.231843" style="stroke: #000000"/>
     <use xlink:href="#mde1c4ba609" x="476.566856" y="453.585269" style="stroke: #000000"/>
     <use xlink:href="#mde1c4ba609" x="482.073674" y="448.793517" style="stroke: #000000"/>
     <use xlink:href="#mde1c4ba609" x="487.580493" y="443.870266" style="stroke: #000000"/>
     <use xlink:href="#mde1c4ba609" x="493.087312" y="438.827444" style="stroke: #000000"/>
     <use xlink:href="#mde1c4ba609" x="498.59413" y="433.675532" style="stroke: #000000"/>
     <use xlink:href="#mde1c4ba609" x="504.100949" y="428.423797" style="stroke: #000000"/>
     <use xlink:href="#mde1c4ba609" x="509.607768" y="423.080485" style="stroke: #000000"/>
     <use xlink:href="#mde1c4ba609" x="515.114587" y="417.652974" style="stroke: #000000"/>
     <use xlink:href="#mde1c4ba609" x="520.621405" y="412.147902" style="stroke: #000000"/>
     <use xlink:href="#mde1c4ba609" x="526.128224" y="406.571267" style="stroke: #000000"/>
     <use xlink:href="#mde1c4ba609" x="531.635043" y="400.928521" style="stroke: #000000"/>
     <use xlink:href="#mde1c4ba609" x="537.141861" y="395.224632" style="stroke: #000000"/>
     <use xlink:href="#mde1c4ba609" x="542.64868" y="389.464154" style="stroke: #000000"/>
     <use xlink:href="#mde1c4ba609" x="548.155499" y="383.651277" style="stroke: #000000"/>
     <use xlink:href="#mde1c4ba609" x="553.662317" y="377.789867" style="stroke: #000000"/>
     <use xlink:href="#mde1c4ba609" x="559.169136" y="371.88351" style="stroke: #000000"/>
     <use xlink:href="#mde1c4ba609" x="564.675955" y="365.935541" style="stroke: #000000"/>
     <use xlink:href="#mde1c4ba609" x="570.182774" y="359.949072" style="stroke: #000000"/>
     <use xlink:href="#mde1c4ba609" x="575.689592" y="353.927021" style="stroke: #000000"/>
     <use xlink:href="#mde1c4ba609" x="581.196411" y="347.872131" style="stroke: #000000"/>
     <use xlink:href="#mde1c4ba609" x="586.70323" y="341.78699" style="stroke: #000000"/>
     <use xlink:href="#mde1c4ba609" x="592.210048" y="335.674047" style="stroke: #000000"/>
     <use xlink:href="#mde1c4ba609" x="597.716867" y="329.535629" style="stroke: #000000"/>
     <use xlink:href="#mde1c4ba609" x="603.223686" y="323.373951" style="stroke: #000000"/>
     <use xlink:href="#mde1c4ba609" x="608.730504" y="317.191126" style="stroke: #000000"/>
     <use xlink:href="#mde1c4ba609" x="614.237323" y="310.989167" style="stroke: #000000"/>
     <use xlink:href="#mde1c4ba609" x="619.744142" y="304.769957" style="stroke: #000000"/>
     <use xlink:href="#mde1c4ba609" x="625.250961" y="298.535148" style="stroke: #000000"/>
     <use xlink:href="#mde1c4ba609" x="630.757779" y="292.285759" style="stroke: #000000"/>
     <use xlink:href="#mde1c4ba609" x="636.264598" y="286.020594" style="stroke: #000000"/>
     <use xlink:href="#mde1c4ba609" x="641.771417" y="279.728746" style="stroke: #000000"/>
     <use xlink:href="#mde1c4ba609" x="647.278235" y="273.339129" style="stroke: #000000"/>
     <use xlink:href="#mde1c4ba609" x="652.785054" y="264.5175" style="stroke: #000000"/>
    </g>
   </g>
   <g id="line2d_35">
    <path d="M 124.646723 244.389657 
L 158.720164 209.099935 
L 192.793604 170.190994 
L 226.867045 131.417589 
L 260.940486 96.534474 
L 295.013927 69.296404 
L 329.087367 53.458134 
L 363.160808 52.774418 
L 397.234249 476.260582 
L 431.307689 475.576866 
L 465.38113 459.738596 
L 499.454571 432.500526 
L 533.528012 397.617411 
L 567.601452 358.844006 
L 601.674893 319.935065 
L 635.748334 284.645343 
" clip-path="url(#p881b6b8a32)" style="fill: none; stroke: #a80000; stroke-width: 3; stroke-linecap: square"/>
   </g>
   <g id="line2d_36">
    <path d="M 111.869183 260.022001 
L 120.387543 250.4905 
L 128.905903 240.92765 
L 137.424263 231.329694 
L 145.942623 221.701951 
L 154.460984 212.056482 
L 162.979344 202.41006 
L 171.497704 192.782423 
L 180.016064 183.194835 
L 188.534424 173.668933 
L 197.052784 164.225876 
L 205.571145 154.885787 
L 214.089505 145.667487 
L 222.607865 136.588535 
L 231.126225 127.665551 
L 239.644585 118.914844 
L 248.162946 110.35333 
L 256.681306 101.999748 
L 265.199666 93.876172 
L 273.718026 86.009818 
L 282.236386 78.435146 
L 290.754746 71.196254 
L 299.273107 64.349581 
L 307.791467 57.966886 
L 316.309827 52.138539 
L 324.828187 46.977097 
L 333.346547 42.621187 
L 341.864908 39.239666 
L 350.383268 37.036101 
L 358.901628 36.253521 
L 367.419988 37.17948 
L 375.938348 40.151411 
L 384.456708 488.883589 
L 392.975069 491.85552 
L 401.493429 492.781479 
L 410.011789 491.998899 
L 418.530149 489.795334 
L 427.048509 486.413813 
L 435.56687 482.057903 
L 444.08523 476.896461 
L 452.60359 471.068114 
L 461.12195 464.685419 
L 469.64031 457.838746 
L 478.15867 450.599854 
L 486.677031 443.025182 
L 495.195391 435.158828 
L 503.713751 427.035252 
L 512.232111 418.68167 
L 520.750471 410.120156 
L 529.268831 401.369449 
L 537.787192 392.446465 
L 546.305552 383.367513 
L 554.823912 374.149213 
L 563.342272 364.809124 
L 571.860632 355.366067 
L 580.378993 345.840165 
L 588.897353 336.252577 
L 597.415713 326.62494 
L 605.934073 316.978518 
L 614.452433 307.333049 
L 622.970793 297.705306 
L 631.489154 288.10735 
L 640.007514 278.5445 
L 648.525874 269.012999 
" clip-path="url(#p881b6b8a32)" style="fill: none; stroke: #1f77b4; stroke-width: 3; stroke-linecap: square"/>
   </g>
   <g id="line2d_37">
    <path d="M 109.739593 255.894404 
L 113.998773 254.280957 
L 118.257953 251.726421 
L 122.517133 248.435289 
L 126.776313 244.577694 
L 131.035493 240.293885 
L 135.294673 235.698283 
L 143.813033 225.921768 
L 177.886474 185.568932 
L 190.664014 171.066662 
L 203.441555 156.963495 
L 216.219095 143.202458 
L 228.996635 129.763251 
L 241.774175 116.673206 
L 254.551716 103.996615 
L 263.070076 95.817347 
L 271.588436 87.889343 
L 280.106796 80.245472 
L 288.625156 72.924398 
L 297.143517 65.974331 
L 305.661877 59.457997 
L 309.921057 56.387451 
L 314.180237 53.458349 
L 318.439417 50.685172 
L 322.698597 48.084353 
L 326.957777 45.674391 
L 331.216957 43.475941 
L 335.476137 41.511835 
L 339.735317 39.807061 
L 343.994498 38.388652 
L 348.253678 37.285502 
L 352.512858 36.528075 
L 356.772038 36.148002 
L 361.031218 36.177544 
L 365.290398 36.648917 
L 369.549578 37.593443 
L 373.808758 39.040529 
L 378.067938 41.016443 
L 382.327118 488.012501 
L 386.586298 489.990006 
L 390.845479 491.438352 
L 395.104659 492.383859 
L 399.363839 492.855983 
L 403.623019 492.886087 
L 407.882199 492.506422 
L 412.141379 491.749281 
L 416.400559 490.646321 
L 420.659739 489.228028 
L 424.918919 487.523315 
L 429.178099 485.559231 
L 433.437279 483.360776 
L 437.69646 480.950793 
L 441.95564 478.349942 
L 446.21482 475.576731 
L 450.474 472.647596 
L 458.99236 466.377685 
L 467.51072 459.635487 
L 476.02908 452.493103 
L 484.547441 445.005312 
L 493.065801 437.21499 
L 501.584161 429.157516 
L 510.102521 420.863805 
L 522.880061 408.040632 
L 535.657602 394.828548 
L 548.435142 381.281277 
L 561.212682 367.410811 
L 573.990222 353.181727 
L 586.767763 338.534181 
L 599.545303 323.460227 
L 620.841203 298.151945 
L 625.100384 293.336892 
L 629.359564 288.741453 
L 633.618744 284.457891 
L 637.877924 280.600656 
L 642.137104 277.310031 
L 646.396284 274.756193 
L 650.655464 273.143687 
L 650.655464 273.143687 
" clip-path="url(#p881b6b8a32)" style="fill: none; stroke: #ff7f0e; stroke-width: 3; stroke-linecap: square"/>
   </g>
   <g id="patch_3">
    <path d="M 80.35125 515.7875 
L 80.35125 13.2475 
" style="fill: none; stroke: #000000; stroke-width: 1.5; stroke-linejoin: miter; stroke-linecap: square"/>
   </g>
   <g id="patch_4">
    <path d="M 680.043807 515.7875 
L 680.043807 13.2475 
" style="fill: none; stroke: #000000; stroke-width: 1.5; stroke-linejoin: miter; stroke-linecap: square"/>
   </g>
   <g id="patch_5">
    <path d="M 80.35125 515.7875 
L 680.043807 515.7875 
" style="fill: none; stroke: #000000; stroke-width: 1.5; stroke-linejoin: miter; stroke-linecap: square"/>
   </g>
   <g id="patch_6">
    <path d="M 80.35125 13.2475 
L 680.043807 13.2475 
" style="fill: none; stroke: #000000; stroke-width: 1.5; stroke-linejoin: miter; stroke-linecap: square"/>
   </g>
   <g id="legend_1">
    <g id="patch_7">
     <path d="M 579.218807 94.888125 
L 673.043807 94.888125 
Q 675.043807 94.888125 675.043807 92.888125 
L 675.043807 20.2475 
Q 675.043807 18.2475 673.043807 18.2475 
L 579.218807 18.2475 
Q 577.218807 18.2475 577.218807 20.2475 
L 577.218807 92.888125 
Q 577.218807 94.888125 579.218807 94.888125 
z
" style="fill: #ffffff; opacity: 0.8; stroke: #cccccc; stroke-linejoin: miter"/>
    </g>
    <g id="line2d_38">
     <path d="M 581.218807 26.306875 
L 591.218807 26.306875 
L 601.218807 26.306875 
" style="fill: none; stroke: #000000; stroke-linecap: square"/>
    </g>
    <g id="text_19">
     <!-- Init -->
     <g transform="translate(609.218807 29.806875) scale(0.1 -0.1)">
      <defs>
       <path id="Georgia-49" d="M 2244 0 
L 247 0 
L 247 222 
Q 331 228 490 240 
Q 650 253 716 278 
Q 819 319 866 389 
Q 913 459 913 584 
L 913 3797 
Q 913 3906 878 3979 
Q 844 4053 716 4103 
Q 622 4141 480 4173 
Q 338 4206 247 4213 
L 247 4434 
L 2244 4434 
L 2244 4213 
Q 2147 4209 2012 4189 
Q 1878 4169 1778 4138 
Q 1659 4100 1618 4015 
Q 1578 3931 1578 3828 
L 1578 619 
Q 1578 516 1623 436 
Q 1669 356 1778 309 
Q 1844 284 1992 254 
Q 2141 225 2244 222 
L 2244 0 
z
" transform="scale(0.015625)"/>
       <path id="Georgia-6e" d="M 3628 0 
L 2119 0 
L 2119 206 
Q 2191 213 2277 219 
Q 2363 225 2419 244 
Q 2506 272 2548 342 
Q 2591 413 2591 525 
L 2591 2109 
Q 2591 2438 2436 2616 
Q 2281 2794 2059 2794 
Q 1894 2794 1756 2742 
Q 1619 2691 1513 2616 
Q 1409 2544 1348 2461 
Q 1288 2378 1259 2328 
L 1259 556 
Q 1259 450 1303 381 
Q 1347 313 1434 275 
Q 1500 244 1576 228 
Q 1653 213 1734 206 
L 1734 0 
L 225 0 
L 225 206 
Q 297 213 373 219 
Q 450 225 506 244 
Q 594 272 636 342 
Q 678 413 678 525 
L 678 2428 
Q 678 2534 633 2623 
Q 588 2713 506 2769 
Q 447 2806 365 2823 
Q 284 2841 191 2847 
L 191 3050 
L 1216 3119 
L 1259 3075 
L 1259 2641 
L 1275 2641 
Q 1350 2716 1462 2820 
Q 1575 2925 1675 2991 
Q 1791 3066 1950 3116 
Q 2109 3166 2309 3166 
Q 2753 3166 2967 2889 
Q 3181 2613 3181 2153 
L 3181 550 
Q 3181 441 3218 373 
Q 3256 306 3347 269 
Q 3422 238 3476 225 
Q 3531 213 3628 206 
L 3628 0 
z
" transform="scale(0.015625)"/>
       <path id="Georgia-69" d="M 1722 0 
L 231 0 
L 231 206 
Q 303 213 379 219 
Q 456 225 513 244 
Q 600 272 642 342 
Q 684 413 684 525 
L 684 2428 
Q 684 2528 639 2611 
Q 594 2694 513 2750 
Q 453 2788 340 2814 
Q 228 2841 134 2847 
L 134 3050 
L 1222 3119 
L 1266 3075 
L 1266 563 
Q 1266 453 1308 381 
Q 1350 309 1441 275 
Q 1509 247 1575 230 
Q 1641 213 1722 206 
L 1722 0 
z
M 1328 4334 
Q 1328 4156 1211 4023 
Q 1094 3891 922 3891 
Q 763 3891 645 4017 
Q 528 4144 528 4306 
Q 528 4478 645 4606 
Q 763 4734 922 4734 
Q 1100 4734 1214 4614 
Q 1328 4494 1328 4334 
z
" transform="scale(0.015625)"/>
       <path id="Georgia-74" d="M 2128 134 
Q 1925 50 1744 -8 
Q 1563 -66 1300 -66 
Q 913 -66 755 129 
Q 597 325 597 681 
L 597 2769 
L 41 2769 
L 41 3069 
L 609 3069 
L 609 4028 
L 1178 4028 
L 1178 3069 
L 2063 3069 
L 2063 2769 
L 1184 2769 
L 1184 1047 
Q 1184 853 1198 723 
Q 1213 594 1266 497 
Q 1316 406 1416 359 
Q 1516 313 1684 313 
Q 1763 313 1914 327 
Q 2066 341 2128 363 
L 2128 134 
z
" transform="scale(0.015625)"/>
      </defs>
      <use xlink:href="#Georgia-49"/>
      <use xlink:href="#Georgia-6e" x="38.964844"/>
      <use xlink:href="#Georgia-69" x="98.046875"/>
      <use xlink:href="#Georgia-74" x="127.34375"/>
     </g>
    </g>
    <g id="line2d_39">
     <g>
      <use xlink:href="#mde1c4ba609" x="591.218807" y="41.035" style="stroke: #000000"/>
     </g>
    </g>
    <g id="text_20">
     <!-- Exact -->
     <g transform="translate(609.218807 44.535) scale(0.1 -0.1)">
      <defs>
       <path id="Georgia-45" d="M 4034 1306 
L 3950 0 
L 269 0 
L 269 222 
Q 363 228 519 248 
Q 675 269 722 291 
Q 822 338 861 413 
Q 900 488 900 603 
L 900 3791 
Q 900 3894 865 3973 
Q 831 4053 722 4103 
Q 638 4144 495 4175 
Q 353 4206 269 4213 
L 269 4434 
L 3700 4434 
L 3700 3366 
L 3466 3366 
Q 3403 3603 3195 3870 
Q 2988 4138 2800 4163 
Q 2703 4175 2568 4181 
Q 2434 4188 2263 4188 
L 1566 4188 
L 1566 2425 
L 2066 2425 
Q 2306 2425 2417 2470 
Q 2528 2516 2613 2622 
Q 2681 2713 2729 2864 
Q 2778 3016 2794 3150 
L 3028 3150 
L 3028 1416 
L 2794 1416 
Q 2781 1566 2726 1733 
Q 2672 1900 2613 1975 
Q 2516 2097 2392 2134 
Q 2269 2172 2066 2172 
L 1566 2172 
L 1566 841 
Q 1566 641 1594 525 
Q 1622 409 1703 350 
Q 1784 291 1925 273 
Q 2066 256 2325 256 
Q 2428 256 2597 256 
Q 2766 256 2881 269 
Q 3000 281 3126 314 
Q 3253 347 3306 403 
Q 3450 553 3608 858 
Q 3766 1163 3809 1306 
L 4034 1306 
z
" transform="scale(0.015625)"/>
       <path id="Georgia-78" d="M 3194 0 
L 1781 0 
L 1781 206 
Q 1922 222 2020 237 
Q 2119 253 2119 319 
Q 2119 347 2087 406 
Q 2056 466 2025 516 
Q 1947 638 1811 842 
Q 1675 1047 1478 1331 
Q 1316 1128 1178 936 
Q 1041 744 891 528 
Q 869 497 845 450 
Q 822 403 822 375 
Q 822 306 911 261 
Q 1000 216 1178 200 
L 1178 0 
L 38 0 
L 38 194 
Q 250 256 379 345 
Q 509 434 619 566 
Q 716 691 889 909 
Q 1063 1128 1338 1503 
Q 1178 1731 948 2061 
Q 719 2391 569 2609 
Q 488 2728 383 2801 
Q 278 2875 88 2875 
L 88 3081 
L 1428 3081 
L 1428 2875 
Q 1328 2875 1231 2862 
Q 1134 2850 1134 2806 
Q 1134 2778 1153 2743 
Q 1172 2709 1200 2669 
Q 1269 2563 1414 2341 
Q 1559 2119 1728 1872 
Q 1838 2022 1983 2222 
Q 2128 2422 2250 2603 
Q 2263 2625 2275 2658 
Q 2288 2691 2288 2722 
Q 2288 2788 2180 2827 
Q 2072 2866 1975 2881 
L 1975 3081 
L 3113 3081 
L 3113 2888 
Q 2872 2825 2737 2739 
Q 2603 2653 2509 2541 
Q 2406 2413 2264 2225 
Q 2122 2038 1866 1700 
Q 2150 1300 2328 1044 
Q 2506 788 2688 516 
Q 2778 378 2889 298 
Q 3000 219 3194 206 
L 3194 0 
z
" transform="scale(0.015625)"/>
       <path id="Georgia-61" d="M 3144 56 
Q 2997 3 2886 -30 
Q 2775 -63 2634 -63 
Q 2391 -63 2245 51 
Q 2100 166 2059 384 
L 2041 384 
Q 1838 159 1605 40 
Q 1372 -78 1044 -78 
Q 697 -78 473 134 
Q 250 347 250 691 
Q 250 869 300 1009 
Q 350 1150 450 1263 
Q 528 1356 656 1429 
Q 784 1503 897 1547 
Q 1038 1600 1467 1744 
Q 1897 1888 2047 1969 
L 2047 2278 
Q 2047 2319 2030 2434 
Q 2013 2550 1956 2653 
Q 1894 2769 1780 2855 
Q 1666 2941 1456 2941 
Q 1313 2941 1189 2892 
Q 1066 2844 1016 2791 
Q 1016 2728 1045 2606 
Q 1075 2484 1075 2381 
Q 1075 2272 976 2181 
Q 878 2091 703 2091 
Q 547 2091 473 2202 
Q 400 2313 400 2450 
Q 400 2594 501 2725 
Q 603 2856 766 2959 
Q 906 3047 1106 3108 
Q 1306 3169 1497 3169 
Q 1759 3169 1954 3133 
Q 2150 3097 2309 2978 
Q 2469 2863 2551 2664 
Q 2634 2466 2634 2153 
Q 2634 1706 2625 1361 
Q 2616 1016 2616 606 
Q 2616 484 2658 412 
Q 2700 341 2788 291 
Q 2834 263 2936 259 
Q 3038 256 3144 256 
L 3144 56 
z
M 2053 1706 
Q 1788 1628 1588 1553 
Q 1388 1478 1216 1366 
Q 1059 1259 968 1114 
Q 878 969 878 769 
Q 878 509 1014 387 
Q 1150 266 1359 266 
Q 1581 266 1750 373 
Q 1919 481 2034 628 
L 2053 1706 
z
" transform="scale(0.015625)"/>
       <path id="Georgia-63" d="M 1650 -81 
Q 981 -81 603 362 
Q 225 806 225 1553 
Q 225 1878 326 2161 
Q 428 2444 622 2675 
Q 806 2897 1084 3033 
Q 1363 3169 1691 3169 
Q 2144 3169 2428 2951 
Q 2713 2734 2713 2359 
Q 2713 2203 2638 2083 
Q 2563 1963 2391 1963 
Q 2206 1963 2104 2056 
Q 2003 2150 2003 2266 
Q 2003 2406 2040 2554 
Q 2078 2703 2084 2772 
Q 2028 2869 1917 2901 
Q 1806 2934 1678 2934 
Q 1528 2934 1392 2870 
Q 1256 2806 1128 2634 
Q 1013 2478 941 2212 
Q 869 1947 869 1578 
Q 869 997 1126 630 
Q 1384 263 1803 263 
Q 2106 263 2311 409 
Q 2516 556 2691 850 
L 2891 719 
Q 2684 350 2346 134 
Q 2009 -81 1650 -81 
z
" transform="scale(0.015625)"/>
      </defs>
      <use xlink:href="#Georgia-45"/>
      <use xlink:href="#Georgia-78" x="65.332031"/>
      <use xlink:href="#Georgia-61" x="115.820312"/>
      <use xlink:href="#Georgia-63" x="166.210938"/>
      <use xlink:href="#Georgia-74" x="211.621094"/>
     </g>
    </g>
    <g id="line2d_40">
     <path d="M 581.218807 55.763125 
L 591.218807 55.763125 
L 601.218807 55.763125 
" style="fill: none; stroke: #a80000; stroke-width: 3; stroke-linecap: square"/>
    </g>
    <g id="text_21">
     <!-- 16, t=1.3,ggb -->
     <g transform="translate(609.218807 59.263125) scale(0.1 -0.1)">
      <defs>
       <path id="Georgia-2c" d="M 1341 109 
Q 1341 -116 1239 -316 
Q 1138 -516 1006 -659 
Q 872 -809 722 -925 
Q 572 -1041 447 -1106 
L 303 -897 
Q 453 -803 572 -709 
Q 691 -616 766 -522 
Q 859 -413 925 -284 
Q 991 -156 1009 6 
L 850 6 
Q 641 6 523 115 
Q 406 225 406 409 
Q 406 541 512 664 
Q 619 788 803 788 
Q 1072 788 1206 608 
Q 1341 428 1341 109 
z
" transform="scale(0.015625)"/>
       <path id="Georgia-20" transform="scale(0.015625)"/>
       <path id="Georgia-3d" d="M 3634 2134 
L 481 2134 
L 481 2525 
L 3634 2525 
L 3634 2134 
z
M 3634 972 
L 481 972 
L 481 1363 
L 3634 1363 
L 3634 972 
z
" transform="scale(0.015625)"/>
       <path id="Georgia-67" d="M 2866 319 
Q 2991 200 3062 50 
Q 3134 -100 3134 -322 
Q 3134 -544 3037 -739 
Q 2941 -934 2744 -1078 
Q 2534 -1225 2243 -1306 
Q 1953 -1388 1525 -1388 
Q 825 -1388 478 -1183 
Q 131 -978 131 -584 
Q 131 -266 381 -81 
Q 631 103 1019 119 
L 1019 163 
Q 925 191 825 233 
Q 725 275 653 331 
Q 572 397 522 486 
Q 472 575 472 706 
Q 472 872 589 1011 
Q 706 1150 944 1250 
L 944 1297 
Q 644 1438 478 1658 
Q 313 1878 313 2169 
Q 313 2606 639 2887 
Q 966 3169 1475 3169 
Q 1616 3169 1755 3141 
Q 1894 3113 2038 3069 
L 3113 3069 
L 3113 2769 
L 2388 2769 
L 2388 2750 
Q 2503 2616 2559 2453 
Q 2616 2291 2616 2134 
Q 2616 1728 2286 1447 
Q 1956 1166 1519 1166 
L 1141 1166 
Q 1069 1141 991 1075 
Q 913 1009 913 897 
Q 913 781 978 720 
Q 1044 659 1138 638 
Q 1228 613 1348 606 
Q 1469 600 1597 597 
Q 1734 594 1973 578 
Q 2213 563 2313 559 
Q 2456 553 2601 490 
Q 2747 428 2866 319 
z
M 2022 2147 
Q 2022 2513 1873 2730 
Q 1725 2947 1456 2947 
Q 1309 2947 1204 2886 
Q 1100 2825 1034 2713 
Q 972 2609 945 2464 
Q 919 2319 919 2166 
Q 919 1819 1070 1600 
Q 1222 1381 1463 1381 
Q 1731 1381 1876 1598 
Q 2022 1816 2022 2147 
z
M 2622 -438 
Q 2622 -263 2540 -150 
Q 2459 -38 2294 3 
Q 2206 16 1934 31 
Q 1663 47 1303 47 
Q 966 -19 823 -173 
Q 681 -328 681 -572 
Q 681 -681 728 -781 
Q 775 -881 891 -966 
Q 1000 -1047 1184 -1098 
Q 1369 -1150 1634 -1150 
Q 2094 -1150 2358 -973 
Q 2622 -797 2622 -438 
z
" transform="scale(0.015625)"/>
       <path id="Georgia-62" d="M 3353 1544 
Q 3353 850 2915 378 
Q 2478 -94 1900 -94 
Q 1647 -94 1401 -15 
Q 1156 63 941 194 
L 709 -166 
L 516 -122 
Q 531 109 537 434 
Q 544 759 544 1063 
L 544 4113 
Q 544 4219 495 4325 
Q 447 4431 372 4478 
Q 313 4519 173 4539 
Q 34 4559 -50 4566 
L -50 4766 
L 1081 4838 
L 1125 4791 
L 1125 2759 
L 1147 2753 
Q 1341 2959 1570 3062 
Q 1800 3166 2022 3166 
Q 2591 3166 2972 2716 
Q 3353 2266 3353 1544 
z
M 2700 1522 
Q 2700 1753 2650 1993 
Q 2600 2234 2494 2413 
Q 2388 2594 2216 2706 
Q 2044 2819 1803 2819 
Q 1584 2819 1420 2733 
Q 1256 2647 1125 2500 
L 1125 706 
Q 1144 631 1198 531 
Q 1253 431 1347 341 
Q 1441 253 1559 198 
Q 1678 144 1850 144 
Q 2231 144 2465 512 
Q 2700 881 2700 1522 
z
" transform="scale(0.015625)"/>
      </defs>
      <use xlink:href="#Georgia-31"/>
      <use xlink:href="#Georgia-36" x="42.96875"/>
      <use xlink:href="#Georgia-2c" x="99.560547"/>
      <use xlink:href="#Georgia-20" x="126.513672"/>
      <use xlink:href="#Georgia-74" x="150.634766"/>
      <use xlink:href="#Georgia-3d" x="185.15625"/>
      <use xlink:href="#Georgia-31" x="249.462891"/>
      <use xlink:href="#Georgia-2e" x="292.431641"/>
      <use xlink:href="#Georgia-33" x="319.384766"/>
      <use xlink:href="#Georgia-2c" x="374.560547"/>
      <use xlink:href="#Georgia-67" x="401.513672"/>
      <use xlink:href="#Georgia-67" x="452.441406"/>
      <use xlink:href="#Georgia-62" x="503.369141"/>
     </g>
    </g>
    <g id="line2d_41">
     <path d="M 581.218807 70.49125 
L 591.218807 70.49125 
L 601.218807 70.49125 
" style="fill: none; stroke: #1f77b4; stroke-width: 3; stroke-linecap: square"/>
    </g>
    <g id="text_22">
     <!-- 64, t=1.3,ggb -->
     <g transform="translate(609.218807 73.99125) scale(0.1 -0.1)">
      <use xlink:href="#Georgia-36"/>
      <use xlink:href="#Georgia-34" x="56.591797"/>
      <use xlink:href="#Georgia-2c" x="113.085938"/>
      <use xlink:href="#Georgia-20" x="140.039062"/>
      <use xlink:href="#Georgia-74" x="164.160156"/>
      <use xlink:href="#Georgia-3d" x="198.681641"/>
      <use xlink:href="#Georgia-31" x="262.988281"/>
      <use xlink:href="#Georgia-2e" x="305.957031"/>
      <use xlink:href="#Georgia-33" x="332.910156"/>
      <use xlink:href="#Georgia-2c" x="388.085938"/>
      <use xlink:href="#Georgia-67" x="415.039062"/>
      <use xlink:href="#Georgia-67" x="465.966797"/>
      <use xlink:href="#Georgia-62" x="516.894531"/>
     </g>
    </g>
    <g id="line2d_42">
     <path d="M 581.218807 85.219375 
L 591.218807 85.219375 
L 601.218807 85.219375 
" style="fill: none; stroke: #ff7f0e; stroke-width: 3; stroke-linecap: square"/>
    </g>
    <g id="text_23">
     <!-- 128, t=1.3,ggb -->
     <g transform="translate(609.218807 88.719375) scale(0.1 -0.1)">
      <defs>
       <path id="Georgia-38" d="M 3491 1175 
Q 3491 650 3037 272 
Q 2584 -106 1847 -106 
Q 1156 -106 740 241 
Q 325 588 325 1134 
Q 325 1538 570 1808 
Q 816 2078 1297 2266 
Q 900 2488 703 2753 
Q 506 3019 506 3353 
Q 506 3863 939 4206 
Q 1372 4550 1975 4550 
Q 2578 4550 2951 4225 
Q 3325 3900 3325 3409 
Q 3325 3094 3119 2811 
Q 2913 2528 2513 2347 
Q 3031 2125 3261 1856 
Q 3491 1588 3491 1175 
z
M 2734 3444 
Q 2734 3825 2507 4064 
Q 2281 4303 1928 4303 
Q 1575 4303 1350 4073 
Q 1125 3844 1125 3503 
Q 1125 3175 1381 2947 
Q 1638 2719 2294 2459 
Q 2528 2609 2631 2856 
Q 2734 3103 2734 3444 
z
M 2866 1028 
Q 2866 1225 2781 1373 
Q 2697 1522 2538 1644 
Q 2384 1763 2111 1892 
Q 1838 2022 1519 2156 
Q 1219 1994 1078 1742 
Q 938 1491 938 1169 
Q 938 709 1208 426 
Q 1478 144 1928 144 
Q 2359 144 2612 394 
Q 2866 644 2866 1028 
z
" transform="scale(0.015625)"/>
      </defs>
      <use xlink:href="#Georgia-31"/>
      <use xlink:href="#Georgia-32" x="42.96875"/>
      <use xlink:href="#Georgia-38" x="98.828125"/>
      <use xlink:href="#Georgia-2c" x="158.447266"/>
      <use xlink:href="#Georgia-20" x="185.400391"/>
      <use xlink:href="#Georgia-74" x="209.521484"/>
      <use xlink:href="#Georgia-3d" x="244.042969"/>
      <use xlink:href="#Georgia-31" x="308.349609"/>
      <use xlink:href="#Georgia-2e" x="351.318359"/>
      <use xlink:href="#Georgia-33" x="378.271484"/>
      <use xlink:href="#Georgia-2c" x="433.447266"/>
      <use xlink:href="#Georgia-67" x="460.400391"/>
      <use xlink:href="#Georgia-67" x="511.328125"/>
      <use xlink:href="#Georgia-62" x="562.255859"/>
     </g>
    </g>
   </g>
  </g>
  <g id="axes_2">
   <g id="patch_8">
    <path d="M 753.729227 515.7875 
L 993.60625 515.7875 
L 993.60625 13.2475 
L 753.729227 13.2475 
L 753.729227 515.7875 
z
" style="fill: none"/>
   </g>
   <g id="matplotlib.axis_3">
    <g id="xtick_8">
     <g id="line2d_43">
      <path d="M 764.632728 515.7875 
L 764.632728 13.2475 
" clip-path="url(#p8af674a5b1)" style="fill: none; stroke: #b0b0b0; stroke-width: 0.8; stroke-linecap: square"/>
     </g>
     <g id="line2d_44">
      <g>
       <use xlink:href="#m5dff6b46c7" x="764.632728" y="515.7875" style="stroke: #000000; stroke-width: 0.8"/>
      </g>
     </g>
     <g id="text_24">
      <!-- 0 -->
      <g transform="translate(759.722728 534.8825) scale(0.16 -0.16)">
       <use xlink:href="#Georgia-30"/>
      </g>
     </g>
    </g>
    <g id="xtick_9">
     <g id="line2d_45">
      <path d="M 834.046572 515.7875 
L 834.046572 13.2475 
" clip-path="url(#p8af674a5b1)" style="fill: none; stroke: #b0b0b0; stroke-width: 0.8; stroke-linecap: square"/>
     </g>
     <g id="line2d_46">
      <g>
       <use xlink:href="#m5dff6b46c7" x="834.046572" y="515.7875" style="stroke: #000000; stroke-width: 0.8"/>
      </g>
     </g>
     <g id="text_25">
      <!-- 2 -->
      <g transform="translate(829.577822 534.8825) scale(0.16 -0.16)">
       <use xlink:href="#Georgia-32"/>
      </g>
     </g>
    </g>
    <g id="xtick_10">
     <g id="line2d_47">
      <path d="M 903.460415 515.7875 
L 903.460415 13.2475 
" clip-path="url(#p8af674a5b1)" style="fill: none; stroke: #b0b0b0; stroke-width: 0.8; stroke-linecap: square"/>
     </g>
     <g id="line2d_48">
      <g>
       <use xlink:href="#m5dff6b46c7" x="903.460415" y="515.7875" style="stroke: #000000; stroke-width: 0.8"/>
      </g>
     </g>
     <g id="text_26">
      <!-- 4 -->
      <g transform="translate(898.940415 534.8825) scale(0.16 -0.16)">
       <use xlink:href="#Georgia-34"/>
      </g>
     </g>
    </g>
    <g id="xtick_11">
     <g id="line2d_49">
      <path d="M 972.874259 515.7875 
L 972.874259 13.2475 
" clip-path="url(#p8af674a5b1)" style="fill: none; stroke: #b0b0b0; stroke-width: 0.8; stroke-linecap: square"/>
     </g>
     <g id="line2d_50">
      <g>
       <use xlink:href="#m5dff6b46c7" x="972.874259" y="515.7875" style="stroke: #000000; stroke-width: 0.8"/>
      </g>
     </g>
     <g id="text_27">
      <!-- 6 -->
      <g transform="translate(968.346759 534.8825) scale(0.16 -0.16)">
       <use xlink:href="#Georgia-36"/>
      </g>
     </g>
    </g>
    <g id="text_28">
     <!-- $x$ -->
     <g transform="translate(867.667739 557.47125) scale(0.2 -0.2)">
      <use xlink:href="#DejaVuSans-Oblique-78" transform="translate(0 0.3125)"/>
     </g>
    </g>
   </g>
   <g id="matplotlib.axis_4">
    <g id="ytick_10">
     <g id="line2d_51">
      <path d="M 753.729227 515.7875 
L 993.60625 515.7875 
" clip-path="url(#p8af674a5b1)" style="fill: none; stroke: #b0b0b0; stroke-width: 0.8; stroke-linecap: square"/>
     </g>
     <g id="line2d_52">
      <g>
       <use xlink:href="#m2c9b3ecdc6" x="753.729227" y="515.7875" style="stroke: #000000; stroke-width: 0.8"/>
      </g>
     </g>
     <g id="text_29">
      <!-- $\mathdefault{10^{-7}}$ -->
      <g transform="translate(716.649227 521.835) scale(0.16 -0.16)">
       <use xlink:href="#Georgia-31" transform="translate(0 0.628125)"/>
       <use xlink:href="#Georgia-30" transform="translate(42.96875 0.628125)"/>
       <use xlink:href="#Georgia-2212" transform="translate(105.188164 34.326563) scale(0.7)"/>
       <use xlink:href="#Georgia-37" transform="translate(150.202812 34.326563) scale(0.7)"/>
      </g>
     </g>
    </g>
    <g id="ytick_11">
     <g id="line2d_53">
      <path d="M 753.729227 443.996071 
L 993.60625 443.996071 
" clip-path="url(#p8af674a5b1)" style="fill: none; stroke: #b0b0b0; stroke-width: 0.8; stroke-linecap: square"/>
     </g>
     <g id="line2d_54">
      <g>
       <use xlink:href="#m2c9b3ecdc6" x="753.729227" y="443.996071" style="stroke: #000000; stroke-width: 0.8"/>
      </g>
     </g>
     <g id="text_30">
      <!-- $\mathdefault{10^{-6}}$ -->
      <g transform="translate(715.849227 450.043571) scale(0.16 -0.16)">
       <use xlink:href="#Georgia-31" transform="translate(0 0.601562)"/>
       <use xlink:href="#Georgia-30" transform="translate(42.96875 0.601562)"/>
       <use xlink:href="#Georgia-2212" transform="translate(105.188164 34.3) scale(0.7)"/>
       <use xlink:href="#Georgia-36" transform="translate(150.202812 34.3) scale(0.7)"/>
      </g>
     </g>
    </g>
    <g id="ytick_12">
     <g id="line2d_55">
      <path d="M 753.729227 372.204643 
L 993.60625 372.204643 
" clip-path="url(#p8af674a5b1)" style="fill: none; stroke: #b0b0b0; stroke-width: 0.8; stroke-linecap: square"/>
     </g>
     <g id="line2d_56">
      <g>
       <use xlink:href="#m2c9b3ecdc6" x="753.729227" y="372.204643" style="stroke: #000000; stroke-width: 0.8"/>
      </g>
     </g>
     <g id="text_31">
      <!-- $\mathdefault{10^{-5}}$ -->
      <g transform="translate(716.329227 378.252143) scale(0.16 -0.16)">
       <use xlink:href="#Georgia-31" transform="translate(0 0.628125)"/>
       <use xlink:href="#Georgia-30" transform="translate(42.96875 0.628125)"/>
       <use xlink:href="#Georgia-2212" transform="translate(105.188164 34.326563) scale(0.7)"/>
       <use xlink:href="#Georgia-35" transform="translate(150.202812 34.326563) scale(0.7)"/>
      </g>
     </g>
    </g>
    <g id="ytick_13">
     <g id="line2d_57">
      <path d="M 753.729227 300.413214 
L 993.60625 300.413214 
" clip-path="url(#p8af674a5b1)" style="fill: none; stroke: #b0b0b0; stroke-width: 0.8; stroke-linecap: square"/>
     </g>
     <g id="line2d_58">
      <g>
       <use xlink:href="#m2c9b3ecdc6" x="753.729227" y="300.413214" style="stroke: #000000; stroke-width: 0.8"/>
      </g>
     </g>
     <g id="text_32">
      <!-- $\mathdefault{10^{-4}}$ -->
      <g transform="translate(715.849227 306.460714) scale(0.16 -0.16)">
       <use xlink:href="#Georgia-31" transform="translate(0 0.742188)"/>
       <use xlink:href="#Georgia-30" transform="translate(42.96875 0.742188)"/>
       <use xlink:href="#Georgia-2212" transform="translate(105.188164 34.440625) scale(0.7)"/>
       <use xlink:href="#Georgia-34" transform="translate(150.202812 34.440625) scale(0.7)"/>
      </g>
     </g>
    </g>
    <g id="ytick_14">
     <g id="line2d_59">
      <path d="M 753.729227 228.621786 
L 993.60625 228.621786 
" clip-path="url(#p8af674a5b1)" style="fill: none; stroke: #b0b0b0; stroke-width: 0.8; stroke-linecap: square"/>
     </g>
     <g id="line2d_60">
      <g>
       <use xlink:href="#m2c9b3ecdc6" x="753.729227" y="228.621786" style="stroke: #000000; stroke-width: 0.8"/>
      </g>
     </g>
     <g id="text_33">
      <!-- $\mathdefault{10^{-3}}$ -->
      <g transform="translate(716.009227 234.669286) scale(0.16 -0.16)">
       <use xlink:href="#Georgia-31" transform="translate(0 0.534375)"/>
       <use xlink:href="#Georgia-30" transform="translate(42.96875 0.534375)"/>
       <use xlink:href="#Georgia-2212" transform="translate(105.188164 34.232813) scale(0.7)"/>
       <use xlink:href="#Georgia-33" transform="translate(150.202812 34.232813) scale(0.7)"/>
      </g>
     </g>
    </g>
    <g id="ytick_15">
     <g id="line2d_61">
      <path d="M 753.729227 156.830357 
L 993.60625 156.830357 
" clip-path="url(#p8af674a5b1)" style="fill: none; stroke: #b0b0b0; stroke-width: 0.8; stroke-linecap: square"/>
     </g>
     <g id="line2d_62">
      <g>
       <use xlink:href="#m2c9b3ecdc6" x="753.729227" y="156.830357" style="stroke: #000000; stroke-width: 0.8"/>
      </g>
     </g>
     <g id="text_34">
      <!-- $\mathdefault{10^{-2}}$ -->
      <g transform="translate(716.009227 162.877857) scale(0.16 -0.16)">
       <use xlink:href="#Georgia-31" transform="translate(0 0.534375)"/>
       <use xlink:href="#Georgia-30" transform="translate(42.96875 0.534375)"/>
       <use xlink:href="#Georgia-2212" transform="translate(105.188164 34.232813) scale(0.7)"/>
       <use xlink:href="#Georgia-32" transform="translate(150.202812 34.232813) scale(0.7)"/>
      </g>
     </g>
    </g>
    <g id="ytick_16">
     <g id="line2d_63">
      <path d="M 753.729227 85.038929 
L 993.60625 85.038929 
" clip-path="url(#p8af674a5b1)" style="fill: none; stroke: #b0b0b0; stroke-width: 0.8; stroke-linecap: square"/>
     </g>
     <g id="line2d_64">
      <g>
       <use xlink:href="#m2c9b3ecdc6" x="753.729227" y="85.038929" style="stroke: #000000; stroke-width: 0.8"/>
      </g>
     </g>
     <g id="text_35">
      <!-- $\mathdefault{10^{-1}}$ -->
      <g transform="translate(717.449227 91.086429) scale(0.16 -0.16)">
       <use xlink:href="#Georgia-31" transform="translate(0 0.534375)"/>
       <use xlink:href="#Georgia-30" transform="translate(42.96875 0.534375)"/>
       <use xlink:href="#Georgia-2212" transform="translate(105.188164 34.232813) scale(0.7)"/>
       <use xlink:href="#Georgia-31" transform="translate(150.202812 34.232813) scale(0.7)"/>
      </g>
     </g>
    </g>
    <g id="ytick_17">
     <g id="line2d_65">
      <path d="M 753.729227 13.2475 
L 993.60625 13.2475 
" clip-path="url(#p8af674a5b1)" style="fill: none; stroke: #b0b0b0; stroke-width: 0.8; stroke-linecap: square"/>
     </g>
     <g id="line2d_66">
      <g>
       <use xlink:href="#m2c9b3ecdc6" x="753.729227" y="13.2475" style="stroke: #000000; stroke-width: 0.8"/>
      </g>
     </g>
     <g id="text_36">
      <!-- $\mathdefault{10^{0}}$ -->
      <g transform="translate(722.569227 19.295) scale(0.16 -0.16)">
       <use xlink:href="#Georgia-31" transform="translate(0 0.534375)"/>
       <use xlink:href="#Georgia-30" transform="translate(42.96875 0.534375)"/>
       <use xlink:href="#Georgia-30" transform="translate(105.188164 34.232813) scale(0.7)"/>
      </g>
     </g>
    </g>
    <g id="ytick_18">
     <g id="line2d_67">
      <defs>
       <path id="mf092f9505d" d="M 0 0 
L -2 0 
" style="stroke: #000000; stroke-width: 0.6"/>
      </defs>
      <g>
       <use xlink:href="#mf092f9505d" x="753.729227" y="494.176127" style="stroke: #000000; stroke-width: 0.6"/>
      </g>
     </g>
    </g>
    <g id="ytick_19">
     <g id="line2d_68">
      <g>
       <use xlink:href="#mf092f9505d" x="753.729227" y="481.534284" style="stroke: #000000; stroke-width: 0.6"/>
      </g>
     </g>
    </g>
    <g id="ytick_20">
     <g id="line2d_69">
      <g>
       <use xlink:href="#mf092f9505d" x="753.729227" y="472.564753" style="stroke: #000000; stroke-width: 0.6"/>
      </g>
     </g>
    </g>
    <g id="ytick_21">
     <g id="line2d_70">
      <g>
       <use xlink:href="#mf092f9505d" x="753.729227" y="465.607445" style="stroke: #000000; stroke-width: 0.6"/>
      </g>
     </g>
    </g>
    <g id="ytick_22">
     <g id="line2d_71">
      <g>
       <use xlink:href="#mf092f9505d" x="753.729227" y="459.92291" style="stroke: #000000; stroke-width: 0.6"/>
      </g>
     </g>
    </g>
    <g id="ytick_23">
     <g id="line2d_72">
      <g>
       <use xlink:href="#mf092f9505d" x="753.729227" y="455.116704" style="stroke: #000000; stroke-width: 0.6"/>
      </g>
     </g>
    </g>
    <g id="ytick_24">
     <g id="line2d_73">
      <g>
       <use xlink:href="#mf092f9505d" x="753.729227" y="450.95338" style="stroke: #000000; stroke-width: 0.6"/>
      </g>
     </g>
    </g>
    <g id="ytick_25">
     <g id="line2d_74">
      <g>
       <use xlink:href="#mf092f9505d" x="753.729227" y="447.281067" style="stroke: #000000; stroke-width: 0.6"/>
      </g>
     </g>
    </g>
    <g id="ytick_26">
     <g id="line2d_75">
      <g>
       <use xlink:href="#mf092f9505d" x="753.729227" y="422.384698" style="stroke: #000000; stroke-width: 0.6"/>
      </g>
     </g>
    </g>
    <g id="ytick_27">
     <g id="line2d_76">
      <g>
       <use xlink:href="#mf092f9505d" x="753.729227" y="409.742855" style="stroke: #000000; stroke-width: 0.6"/>
      </g>
     </g>
    </g>
    <g id="ytick_28">
     <g id="line2d_77">
      <g>
       <use xlink:href="#mf092f9505d" x="753.729227" y="400.773325" style="stroke: #000000; stroke-width: 0.6"/>
      </g>
     </g>
    </g>
    <g id="ytick_29">
     <g id="line2d_78">
      <g>
       <use xlink:href="#mf092f9505d" x="753.729227" y="393.816016" style="stroke: #000000; stroke-width: 0.6"/>
      </g>
     </g>
    </g>
    <g id="ytick_30">
     <g id="line2d_79">
      <g>
       <use xlink:href="#mf092f9505d" x="753.729227" y="388.131482" style="stroke: #000000; stroke-width: 0.6"/>
      </g>
     </g>
    </g>
    <g id="ytick_31">
     <g id="line2d_80">
      <g>
       <use xlink:href="#mf092f9505d" x="753.729227" y="383.325276" style="stroke: #000000; stroke-width: 0.6"/>
      </g>
     </g>
    </g>
    <g id="ytick_32">
     <g id="line2d_81">
      <g>
       <use xlink:href="#mf092f9505d" x="753.729227" y="379.161951" style="stroke: #000000; stroke-width: 0.6"/>
      </g>
     </g>
    </g>
    <g id="ytick_33">
     <g id="line2d_82">
      <g>
       <use xlink:href="#mf092f9505d" x="753.729227" y="375.489638" style="stroke: #000000; stroke-width: 0.6"/>
      </g>
     </g>
    </g>
    <g id="ytick_34">
     <g id="line2d_83">
      <g>
       <use xlink:href="#mf092f9505d" x="753.729227" y="350.593269" style="stroke: #000000; stroke-width: 0.6"/>
      </g>
     </g>
    </g>
    <g id="ytick_35">
     <g id="line2d_84">
      <g>
       <use xlink:href="#mf092f9505d" x="753.729227" y="337.951426" style="stroke: #000000; stroke-width: 0.6"/>
      </g>
     </g>
    </g>
    <g id="ytick_36">
     <g id="line2d_85">
      <g>
       <use xlink:href="#mf092f9505d" x="753.729227" y="328.981896" style="stroke: #000000; stroke-width: 0.6"/>
      </g>
     </g>
    </g>
    <g id="ytick_37">
     <g id="line2d_86">
      <g>
       <use xlink:href="#mf092f9505d" x="753.729227" y="322.024588" style="stroke: #000000; stroke-width: 0.6"/>
      </g>
     </g>
    </g>
    <g id="ytick_38">
     <g id="line2d_87">
      <g>
       <use xlink:href="#mf092f9505d" x="753.729227" y="316.340053" style="stroke: #000000; stroke-width: 0.6"/>
      </g>
     </g>
    </g>
    <g id="ytick_39">
     <g id="line2d_88">
      <g>
       <use xlink:href="#mf092f9505d" x="753.729227" y="311.533847" style="stroke: #000000; stroke-width: 0.6"/>
      </g>
     </g>
    </g>
    <g id="ytick_40">
     <g id="line2d_89">
      <g>
       <use xlink:href="#mf092f9505d" x="753.729227" y="307.370523" style="stroke: #000000; stroke-width: 0.6"/>
      </g>
     </g>
    </g>
    <g id="ytick_41">
     <g id="line2d_90">
      <g>
       <use xlink:href="#mf092f9505d" x="753.729227" y="303.69821" style="stroke: #000000; stroke-width: 0.6"/>
      </g>
     </g>
    </g>
    <g id="ytick_42">
     <g id="line2d_91">
      <g>
       <use xlink:href="#mf092f9505d" x="753.729227" y="278.801841" style="stroke: #000000; stroke-width: 0.6"/>
      </g>
     </g>
    </g>
    <g id="ytick_43">
     <g id="line2d_92">
      <g>
       <use xlink:href="#mf092f9505d" x="753.729227" y="266.159998" style="stroke: #000000; stroke-width: 0.6"/>
      </g>
     </g>
    </g>
    <g id="ytick_44">
     <g id="line2d_93">
      <g>
       <use xlink:href="#mf092f9505d" x="753.729227" y="257.190467" style="stroke: #000000; stroke-width: 0.6"/>
      </g>
     </g>
    </g>
    <g id="ytick_45">
     <g id="line2d_94">
      <g>
       <use xlink:href="#mf092f9505d" x="753.729227" y="250.233159" style="stroke: #000000; stroke-width: 0.6"/>
      </g>
     </g>
    </g>
    <g id="ytick_46">
     <g id="line2d_95">
      <g>
       <use xlink:href="#mf092f9505d" x="753.729227" y="244.548624" style="stroke: #000000; stroke-width: 0.6"/>
      </g>
     </g>
    </g>
    <g id="ytick_47">
     <g id="line2d_96">
      <g>
       <use xlink:href="#mf092f9505d" x="753.729227" y="239.742419" style="stroke: #000000; stroke-width: 0.6"/>
      </g>
     </g>
    </g>
    <g id="ytick_48">
     <g id="line2d_97">
      <g>
       <use xlink:href="#mf092f9505d" x="753.729227" y="235.579094" style="stroke: #000000; stroke-width: 0.6"/>
      </g>
     </g>
    </g>
    <g id="ytick_49">
     <g id="line2d_98">
      <g>
       <use xlink:href="#mf092f9505d" x="753.729227" y="231.906781" style="stroke: #000000; stroke-width: 0.6"/>
      </g>
     </g>
    </g>
    <g id="ytick_50">
     <g id="line2d_99">
      <g>
       <use xlink:href="#mf092f9505d" x="753.729227" y="207.010412" style="stroke: #000000; stroke-width: 0.6"/>
      </g>
     </g>
    </g>
    <g id="ytick_51">
     <g id="line2d_100">
      <g>
       <use xlink:href="#mf092f9505d" x="753.729227" y="194.368569" style="stroke: #000000; stroke-width: 0.6"/>
      </g>
     </g>
    </g>
    <g id="ytick_52">
     <g id="line2d_101">
      <g>
       <use xlink:href="#mf092f9505d" x="753.729227" y="185.399039" style="stroke: #000000; stroke-width: 0.6"/>
      </g>
     </g>
    </g>
    <g id="ytick_53">
     <g id="line2d_102">
      <g>
       <use xlink:href="#mf092f9505d" x="753.729227" y="178.441731" style="stroke: #000000; stroke-width: 0.6"/>
      </g>
     </g>
    </g>
    <g id="ytick_54">
     <g id="line2d_103">
      <g>
       <use xlink:href="#mf092f9505d" x="753.729227" y="172.757196" style="stroke: #000000; stroke-width: 0.6"/>
      </g>
     </g>
    </g>
    <g id="ytick_55">
     <g id="line2d_104">
      <g>
       <use xlink:href="#mf092f9505d" x="753.729227" y="167.95099" style="stroke: #000000; stroke-width: 0.6"/>
      </g>
     </g>
    </g>
    <g id="ytick_56">
     <g id="line2d_105">
      <g>
       <use xlink:href="#mf092f9505d" x="753.729227" y="163.787665" style="stroke: #000000; stroke-width: 0.6"/>
      </g>
     </g>
    </g>
    <g id="ytick_57">
     <g id="line2d_106">
      <g>
       <use xlink:href="#mf092f9505d" x="753.729227" y="160.115353" style="stroke: #000000; stroke-width: 0.6"/>
      </g>
     </g>
    </g>
    <g id="ytick_58">
     <g id="line2d_107">
      <g>
       <use xlink:href="#mf092f9505d" x="753.729227" y="135.218984" style="stroke: #000000; stroke-width: 0.6"/>
      </g>
     </g>
    </g>
    <g id="ytick_59">
     <g id="line2d_108">
      <g>
       <use xlink:href="#mf092f9505d" x="753.729227" y="122.577141" style="stroke: #000000; stroke-width: 0.6"/>
      </g>
     </g>
    </g>
    <g id="ytick_60">
     <g id="line2d_109">
      <g>
       <use xlink:href="#mf092f9505d" x="753.729227" y="113.60761" style="stroke: #000000; stroke-width: 0.6"/>
      </g>
     </g>
    </g>
    <g id="ytick_61">
     <g id="line2d_110">
      <g>
       <use xlink:href="#mf092f9505d" x="753.729227" y="106.650302" style="stroke: #000000; stroke-width: 0.6"/>
      </g>
     </g>
    </g>
    <g id="ytick_62">
     <g id="line2d_111">
      <g>
       <use xlink:href="#mf092f9505d" x="753.729227" y="100.965767" style="stroke: #000000; stroke-width: 0.6"/>
      </g>
     </g>
    </g>
    <g id="ytick_63">
     <g id="line2d_112">
      <g>
       <use xlink:href="#mf092f9505d" x="753.729227" y="96.159562" style="stroke: #000000; stroke-width: 0.6"/>
      </g>
     </g>
    </g>
    <g id="ytick_64">
     <g id="line2d_113">
      <g>
       <use xlink:href="#mf092f9505d" x="753.729227" y="91.996237" style="stroke: #000000; stroke-width: 0.6"/>
      </g>
     </g>
    </g>
    <g id="ytick_65">
     <g id="line2d_114">
      <g>
       <use xlink:href="#mf092f9505d" x="753.729227" y="88.323924" style="stroke: #000000; stroke-width: 0.6"/>
      </g>
     </g>
    </g>
    <g id="ytick_66">
     <g id="line2d_115">
      <g>
       <use xlink:href="#mf092f9505d" x="753.729227" y="63.427555" style="stroke: #000000; stroke-width: 0.6"/>
      </g>
     </g>
    </g>
    <g id="ytick_67">
     <g id="line2d_116">
      <g>
       <use xlink:href="#mf092f9505d" x="753.729227" y="50.785712" style="stroke: #000000; stroke-width: 0.6"/>
      </g>
     </g>
    </g>
    <g id="ytick_68">
     <g id="line2d_117">
      <g>
       <use xlink:href="#mf092f9505d" x="753.729227" y="41.816182" style="stroke: #000000; stroke-width: 0.6"/>
      </g>
     </g>
    </g>
    <g id="ytick_69">
     <g id="line2d_118">
      <g>
       <use xlink:href="#mf092f9505d" x="753.729227" y="34.858873" style="stroke: #000000; stroke-width: 0.6"/>
      </g>
     </g>
    </g>
    <g id="ytick_70">
     <g id="line2d_119">
      <g>
       <use xlink:href="#mf092f9505d" x="753.729227" y="29.174339" style="stroke: #000000; stroke-width: 0.6"/>
      </g>
     </g>
    </g>
    <g id="ytick_71">
     <g id="line2d_120">
      <g>
       <use xlink:href="#mf092f9505d" x="753.729227" y="24.368133" style="stroke: #000000; stroke-width: 0.6"/>
      </g>
     </g>
    </g>
    <g id="ytick_72">
     <g id="line2d_121">
      <g>
       <use xlink:href="#mf092f9505d" x="753.729227" y="20.204808" style="stroke: #000000; stroke-width: 0.6"/>
      </g>
     </g>
    </g>
    <g id="ytick_73">
     <g id="line2d_122">
      <g>
       <use xlink:href="#mf092f9505d" x="753.729227" y="16.532496" style="stroke: #000000; stroke-width: 0.6"/>
      </g>
     </g>
    </g>
    <g id="text_37">
     <!-- $|y-y_{exact}|$ -->
     <g transform="translate(707.049227 315.0175) rotate(-90) scale(0.2 -0.2)">
      <defs>
       <path id="DejaVuSans-7c" d="M 1344 4891 
L 1344 -1509 
L 813 -1509 
L 813 4891 
L 1344 4891 
z
" transform="scale(0.015625)"/>
       <path id="DejaVuSans-2212" d="M 678 2272 
L 4684 2272 
L 4684 1741 
L 678 1741 
L 678 2272 
z
" transform="scale(0.015625)"/>
       <path id="DejaVuSans-Oblique-65" d="M 3078 2063 
Q 3088 2113 3092 2166 
Q 3097 2219 3097 2272 
Q 3097 2653 2873 2875 
Q 2650 3097 2266 3097 
Q 1838 3097 1509 2826 
Q 1181 2556 1013 2059 
L 3078 2063 
z
M 3578 1613 
L 903 1613 
Q 884 1494 878 1425 
Q 872 1356 872 1306 
Q 872 872 1139 634 
Q 1406 397 1894 397 
Q 2269 397 2603 481 
Q 2938 566 3225 728 
L 3116 159 
Q 2806 34 2476 -28 
Q 2147 -91 1806 -91 
Q 1078 -91 686 257 
Q 294 606 294 1247 
Q 294 1794 489 2264 
Q 684 2734 1063 3103 
Q 1306 3334 1642 3459 
Q 1978 3584 2356 3584 
Q 2950 3584 3301 3228 
Q 3653 2872 3653 2272 
Q 3653 2128 3634 1964 
Q 3616 1800 3578 1613 
z
" transform="scale(0.015625)"/>
       <path id="DejaVuSans-Oblique-61" d="M 3438 1997 
L 3047 0 
L 2472 0 
L 2578 531 
Q 2325 219 2001 64 
Q 1678 -91 1281 -91 
Q 834 -91 548 182 
Q 263 456 263 884 
Q 263 1497 752 1853 
Q 1241 2209 2100 2209 
L 2900 2209 
L 2931 2363 
Q 2938 2388 2941 2417 
Q 2944 2447 2944 2509 
Q 2944 2788 2717 2942 
Q 2491 3097 2081 3097 
Q 1800 3097 1504 3025 
Q 1209 2953 897 2809 
L 997 3341 
Q 1322 3463 1633 3523 
Q 1944 3584 2234 3584 
Q 2853 3584 3176 3315 
Q 3500 3047 3500 2534 
Q 3500 2431 3484 2292 
Q 3469 2153 3438 1997 
z
M 2816 1759 
L 2241 1759 
Q 1534 1759 1195 1570 
Q 856 1381 856 984 
Q 856 709 1029 553 
Q 1203 397 1509 397 
Q 1978 397 2328 733 
Q 2678 1069 2791 1631 
L 2816 1759 
z
" transform="scale(0.015625)"/>
       <path id="DejaVuSans-Oblique-63" d="M 3431 3366 
L 3316 2797 
Q 3109 2947 2876 3022 
Q 2644 3097 2394 3097 
Q 2119 3097 1870 3000 
Q 1622 2903 1453 2725 
Q 1184 2453 1037 2087 
Q 891 1722 891 1331 
Q 891 859 1127 628 
Q 1363 397 1844 397 
Q 2081 397 2348 469 
Q 2616 541 2906 684 
L 2797 116 
Q 2547 13 2283 -39 
Q 2019 -91 1741 -91 
Q 1044 -91 669 257 
Q 294 606 294 1253 
Q 294 1797 489 2255 
Q 684 2713 1069 3078 
Q 1331 3328 1684 3456 
Q 2038 3584 2456 3584 
Q 2700 3584 2940 3529 
Q 3181 3475 3431 3366 
z
" transform="scale(0.015625)"/>
       <path id="DejaVuSans-Oblique-74" d="M 2706 3500 
L 2619 3053 
L 1472 3053 
L 1100 1153 
Q 1081 1047 1072 975 
Q 1063 903 1063 863 
Q 1063 663 1183 572 
Q 1303 481 1569 481 
L 2150 481 
L 2053 0 
L 1503 0 
Q 991 0 739 200 
Q 488 400 488 806 
Q 488 878 497 964 
Q 506 1050 525 1153 
L 897 3053 
L 409 3053 
L 500 3500 
L 978 3500 
L 1172 4494 
L 1747 4494 
L 1556 3500 
L 2706 3500 
z
" transform="scale(0.015625)"/>
      </defs>
      <use xlink:href="#DejaVuSans-7c" transform="translate(0 0.578125)"/>
      <use xlink:href="#DejaVuSans-Oblique-79" transform="translate(33.691406 0.578125)"/>
      <use xlink:href="#DejaVuSans-2212" transform="translate(112.353516 0.578125)"/>
      <use xlink:href="#DejaVuSans-Oblique-79" transform="translate(215.625 0.578125)"/>
      <use xlink:href="#DejaVuSans-Oblique-65" transform="translate(274.804688 -15.828125) scale(0.7)"/>
      <use xlink:href="#DejaVuSans-Oblique-78" transform="translate(317.871094 -15.828125) scale(0.7)"/>
      <use xlink:href="#DejaVuSans-Oblique-61" transform="translate(359.296875 -15.828125) scale(0.7)"/>
      <use xlink:href="#DejaVuSans-Oblique-63" transform="translate(402.192383 -15.828125) scale(0.7)"/>
      <use xlink:href="#DejaVuSans-Oblique-74" transform="translate(440.678711 -15.828125) scale(0.7)"/>
      <use xlink:href="#DejaVuSans-7c" transform="translate(470.859375 0.578125)"/>
     </g>
    </g>
   </g>
   <g id="line2d_123">
    <path d="M 764.632728 88.983958 
L 766.835456 106.966277 
L 769.038183 132.929834 
L 771.240911 172.650777 
L 773.443638 154.371457 
L 775.646366 148.148602 
L 777.849093 143.091311 
L 780.051821 138.86041 
L 782.254548 135.253275 
L 784.457276 132.138599 
L 786.660003 131.905311 
L 788.862731 132.838987 
L 791.065458 133.968066 
L 793.268186 135.329404 
L 795.470913 136.970529 
L 797.673641 138.954481 
L 799.876368 141.271101 
L 802.079096 144.028297 
L 804.281823 147.471062 
L 806.484551 151.86048 
L 808.687278 157.643338 
L 810.890005 165.684634 
L 813.092733 172.698257 
L 815.29546 172.583311 
L 817.498188 173.995708 
L 819.700915 177.303959 
L 821.903643 183.393284 
L 824.10637 194.607141 
L 826.309098 205.006918 
L 828.511825 175.954684 
L 830.714553 162.941655 
L 832.91728 155.304795 
L 835.120008 150.612037 
L 837.322735 147.991886 
L 839.525463 147.145357 
L 841.72819 133.643923 
L 843.930918 124.950268 
L 846.133645 119.069087 
L 848.336373 115.031914 
L 850.5391 112.416454 
L 852.741828 111.066657 
L 854.944555 105.522261 
L 857.147283 100.696863 
L 859.35001 97.701598 
L 861.552738 96.38025 
L 863.755465 96.957911 
L 865.958192 100.287973 
L 868.16092 59.837508 
L 870.363647 35.105289 
L 872.566375 22.609493 
L 874.769102 22.609493 
L 876.97183 35.105289 
L 879.174557 59.837508 
L 881.377285 100.287973 
L 883.580012 96.957911 
L 885.78274 96.38025 
L 887.985467 97.701598 
L 890.188195 100.696863 
L 892.390922 105.522261 
L 894.59365 111.066657 
L 896.796377 112.416454 
L 898.999105 115.031914 
L 901.201832 119.069087 
L 903.40456 124.950268 
L 905.607287 133.643923 
L 907.810015 147.145357 
L 910.012742 147.991886 
L 912.21547 150.612037 
L 914.418197 155.304795 
L 916.620925 162.941655 
L 918.823652 175.954684 
L 921.02638 205.006918 
L 923.229107 194.607141 
L 925.431834 183.393284 
L 927.634562 177.303959 
L 929.837289 173.995708 
L 932.040017 172.583311 
L 934.242744 172.698257 
L 936.445472 165.684634 
L 938.648199 157.643338 
L 940.850927 151.86048 
L 943.053654 147.471062 
L 945.256382 144.028297 
L 947.459109 141.271101 
L 949.661837 138.954481 
L 951.864564 136.970529 
L 954.067292 135.329404 
L 956.270019 133.968066 
L 958.472747 132.838987 
L 960.675474 131.905311 
L 962.878202 132.138599 
L 965.080929 135.253275 
L 967.283657 138.86041 
L 969.486384 143.091311 
L 971.689112 148.148602 
L 973.891839 154.371457 
L 976.094567 172.650777 
L 978.297294 132.929834 
L 980.500021 106.966277 
L 982.702749 88.983958 
" clip-path="url(#p8af674a5b1)" style="fill: none; stroke: #a80000; stroke-width: 3; stroke-linecap: square"/>
   </g>
   <g id="line2d_124">
    <path d="M 764.632728 135.721563 
L 766.835456 149.067246 
L 769.038183 146.732498 
L 771.240911 145.60494 
L 773.443638 144.851321 
L 775.646366 144.43904 
L 777.849093 144.267183 
L 780.051821 144.314962 
L 782.254548 144.6225 
L 784.457276 145.114784 
L 786.660003 145.82005 
L 788.862731 146.657447 
L 791.065458 147.665073 
L 793.268186 148.835231 
L 795.470913 150.010339 
L 797.673641 151.352631 
L 799.876368 152.735486 
L 802.079096 154.033133 
L 804.281823 155.50313 
L 806.484551 156.810678 
L 808.687278 158.01501 
L 810.890005 159.42045 
L 813.092733 160.392138 
L 815.29546 161.357593 
L 817.498188 162.605719 
L 819.700915 163.096519 
L 821.903643 163.824955 
L 824.10637 164.813859 
L 826.309098 164.996432 
L 828.511825 165.642213 
L 830.714553 166.421386 
L 832.91728 166.503977 
L 835.120008 167.300716 
L 837.322735 167.939563 
L 839.525463 168.055065 
L 841.72819 169.279703 
L 843.930918 169.713059 
L 846.133645 170.039821 
L 848.336373 172.290534 
L 850.5391 172.586122 
L 852.741828 174.166666 
L 854.944555 180.345911 
L 857.147283 183.179096 
L 859.35001 195.989018 
L 861.552738 350.126113 
L 863.755465 190.716301 
L 865.958192 156.090538 
L 868.16092 131.914805 
L 870.363647 111.474771 
L 872.566375 55.796672 
L 874.769102 55.796672 
L 876.97183 111.474771 
L 879.174557 131.914805 
L 881.377285 156.090538 
L 883.580012 190.716301 
L 885.78274 350.126113 
L 887.985467 195.989018 
L 890.188195 183.179096 
L 892.390922 180.345911 
L 894.59365 174.166666 
L 896.796377 172.586122 
L 898.999105 172.290534 
L 901.201832 170.039821 
L 903.40456 169.713059 
L 905.607287 169.279703 
L 907.810015 168.055065 
L 910.012742 167.939563 
L 912.21547 167.300716 
L 914.418197 166.503977 
L 916.620925 166.421386 
L 918.823652 165.642213 
L 921.02638 164.996432 
L 923.229107 164.813859 
L 925.431834 163.824955 
L 927.634562 163.096519 
L 929.837289 162.605719 
L 932.040017 161.357593 
L 934.242744 160.392138 
L 936.445472 159.42045 
L 938.648199 158.01501 
L 940.850927 156.810678 
L 943.053654 155.50313 
L 945.256382 154.033133 
L 947.459109 152.735486 
L 949.661837 151.352631 
L 951.864564 150.010339 
L 954.067292 148.835231 
L 956.270019 147.665073 
L 958.472747 146.657447 
L 960.675474 145.82005 
L 962.878202 145.114784 
L 965.080929 144.6225 
L 967.283657 144.314962 
L 969.486384 144.267183 
L 971.689112 144.43904 
L 973.891839 144.851321 
L 976.094567 145.60494 
L 978.297294 146.732498 
L 980.500021 149.067246 
L 982.702749 135.721563 
" clip-path="url(#p8af674a5b1)" style="fill: none; stroke: #1f77b4; stroke-width: 3; stroke-linecap: square"/>
   </g>
   <g id="line2d_125">
    <path d="M 765.484564 131.113004 
L 767.188236 211.817717 
L 768.891908 161.038712 
L 770.59558 142.842553 
L 772.299253 135.185199 
L 774.002925 131.596558 
L 775.706597 130.185837 
L 777.410269 130.14474 
L 779.113941 131.015611 
L 780.817613 132.518494 
L 782.521285 134.458307 
L 784.224957 136.700772 
L 792.743317 148.791946 
L 794.446989 150.884849 
L 796.150661 152.749965 
L 797.854333 154.370299 
L 799.558005 155.816482 
L 801.261677 157.08848 
L 802.965349 158.167372 
L 806.372693 159.86616 
L 809.780037 161.390969 
L 818.298397 164.502546 
L 821.705742 165.512831 
L 825.113086 166.662117 
L 826.816758 167.062131 
L 828.52043 167.311512 
L 831.927774 168.39175 
L 833.631446 168.769441 
L 835.335118 169.004123 
L 837.03879 169.484117 
L 840.446134 170.858897 
L 843.853478 171.932262 
L 850.668166 177.581601 
L 852.371838 180.512392 
L 854.07551 184.841835 
L 855.779182 190.527151 
L 857.482854 198.547592 
L 859.186526 215.809475 
L 860.890198 251.675033 
L 862.59387 192.801171 
L 864.297542 168.771549 
L 871.112231 100.810772 
L 872.815903 51.870581 
L 874.519575 51.873434 
L 876.223247 100.82088 
L 879.630591 133.620765 
L 883.037935 168.789793 
L 884.741607 192.822941 
L 886.445279 251.737213 
L 888.148951 215.806988 
L 889.852623 198.552211 
L 891.556295 190.533194 
L 893.259967 184.84761 
L 894.963639 180.517278 
L 896.667311 177.58547 
L 900.074655 174.832167 
L 903.481999 171.932631 
L 906.889343 170.858321 
L 912.000359 169.003154 
L 913.704032 168.768526 
L 915.407704 168.39095 
L 918.815048 167.311032 
L 920.51872 167.061808 
L 922.222392 166.661937 
L 929.03708 164.502638 
L 932.444424 163.256342 
L 935.851768 162.029007 
L 939.259112 160.672276 
L 944.370128 158.167312 
L 946.0738 157.088449 
L 947.777472 155.816486 
L 949.481144 154.370334 
L 951.184816 152.750022 
L 952.888488 150.884912 
L 954.59216 148.791996 
L 957.999504 144.118833 
L 963.110521 136.7006 
L 964.814193 134.458143 
L 966.517865 132.518406 
L 968.221537 131.015701 
L 969.925209 130.145166 
L 971.628881 130.186854 
L 973.332553 131.598612 
L 975.036225 135.189187 
L 976.739897 142.850786 
L 978.443569 161.061403 
L 980.147241 211.646994 
L 981.850913 131.094523 
L 981.850913 131.094523 
" clip-path="url(#p8af674a5b1)" style="fill: none; stroke: #ff7f0e; stroke-width: 3; stroke-linecap: square"/>
   </g>
   <g id="patch_9">
    <path d="M 753.729227 515.7875 
L 753.729227 13.2475 
" style="fill: none; stroke: #000000; stroke-width: 1.5; stroke-linejoin: miter; stroke-linecap: square"/>
   </g>
   <g id="patch_10">
    <path d="M 993.60625 515.7875 
L 993.60625 13.2475 
" style="fill: none; stroke: #000000; stroke-width: 1.5; stroke-linejoin: miter; stroke-linecap: square"/>
   </g>
   <g id="patch_11">
    <path d="M 753.729227 515.7875 
L 993.60625 515.7875 
" style="fill: none; stroke: #000000; stroke-width: 1.5; stroke-linejoin: miter; stroke-linecap: square"/>
   </g>
   <g id="patch_12">
    <path d="M 753.729227 13.2475 
L 993.60625 13.2475 
" style="fill: none; stroke: #000000; stroke-width: 1.5; stroke-linejoin: miter; stroke-linecap: square"/>
   </g>
   <g id="legend_2">
    <g id="patch_13">
     <path d="M 892.78125 65.431875 
L 986.60625 65.431875 
Q 988.60625 65.431875 988.60625 63.431875 
L 988.60625 20.2475 
Q 988.60625 18.2475 986.60625 18.2475 
L 892.78125 18.2475 
Q 890.78125 18.2475 890.78125 20.2475 
L 890.78125 63.431875 
Q 890.78125 65.431875 892.78125 65.431875 
z
" style="fill: #ffffff; opacity: 0.8; stroke: #cccccc; stroke-linejoin: miter"/>
    </g>
    <g id="line2d_126">
     <path d="M 894.78125 26.306875 
L 904.78125 26.306875 
L 914.78125 26.306875 
" style="fill: none; stroke: #a80000; stroke-width: 3; stroke-linecap: square"/>
    </g>
    <g id="text_38">
     <!-- 16, t=1.3,ggb -->
     <g transform="translate(922.78125 29.806875) scale(0.1 -0.1)">
      <use xlink:href="#Georgia-31"/>
      <use xlink:href="#Georgia-36" x="42.96875"/>
      <use xlink:href="#Georgia-2c" x="99.560547"/>
      <use xlink:href="#Georgia-20" x="126.513672"/>
      <use xlink:href="#Georgia-74" x="150.634766"/>
      <use xlink:href="#Georgia-3d" x="185.15625"/>
      <use xlink:href="#Georgia-31" x="249.462891"/>
      <use xlink:href="#Georgia-2e" x="292.431641"/>
      <use xlink:href="#Georgia-33" x="319.384766"/>
      <use xlink:href="#Georgia-2c" x="374.560547"/>
      <use xlink:href="#Georgia-67" x="401.513672"/>
      <use xlink:href="#Georgia-67" x="452.441406"/>
      <use xlink:href="#Georgia-62" x="503.369141"/>
     </g>
    </g>
    <g id="line2d_127">
     <path d="M 894.78125 41.035 
L 904.78125 41.035 
L 914.78125 41.035 
" style="fill: none; stroke: #1f77b4; stroke-width: 3; stroke-linecap: square"/>
    </g>
    <g id="text_39">
     <!-- 64, t=1.3,ggb -->
     <g transform="translate(922.78125 44.535) scale(0.1 -0.1)">
      <use xlink:href="#Georgia-36"/>
      <use xlink:href="#Georgia-34" x="56.591797"/>
      <use xlink:href="#Georgia-2c" x="113.085938"/>
      <use xlink:href="#Georgia-20" x="140.039062"/>
      <use xlink:href="#Georgia-74" x="164.160156"/>
      <use xlink:href="#Georgia-3d" x="198.681641"/>
      <use xlink:href="#Georgia-31" x="262.988281"/>
      <use xlink:href="#Georgia-2e" x="305.957031"/>
      <use xlink:href="#Georgia-33" x="332.910156"/>
      <use xlink:href="#Georgia-2c" x="388.085938"/>
      <use xlink:href="#Georgia-67" x="415.039062"/>
      <use xlink:href="#Georgia-67" x="465.966797"/>
      <use xlink:href="#Georgia-62" x="516.894531"/>
     </g>
    </g>
    <g id="line2d_128">
     <path d="M 894.78125 55.763125 
L 904.78125 55.763125 
L 914.78125 55.763125 
" style="fill: none; stroke: #ff7f0e; stroke-width: 3; stroke-linecap: square"/>
    </g>
    <g id="text_40">
     <!-- 128, t=1.3,ggb -->
     <g transform="translate(922.78125 59.263125) scale(0.1 -0.1)">
      <use xlink:href="#Georgia-31"/>
      <use xlink:href="#Georgia-32" x="42.96875"/>
      <use xlink:href="#Georgia-38" x="98.828125"/>
      <use xlink:href="#Georgia-2c" x="158.447266"/>
      <use xlink:href="#Georgia-20" x="185.400391"/>
      <use xlink:href="#Georgia-74" x="209.521484"/>
      <use xlink:href="#Georgia-3d" x="244.042969"/>
      <use xlink:href="#Georgia-31" x="308.349609"/>
      <use xlink:href="#Georgia-2e" x="351.318359"/>
      <use xlink:href="#Georgia-33" x="378.271484"/>
      <use xlink:href="#Georgia-2c" x="433.447266"/>
      <use xlink:href="#Georgia-67" x="460.400391"/>
      <use xlink:href="#Georgia-67" x="511.328125"/>
      <use xlink:href="#Georgia-62" x="562.255859"/>
     </g>
    </g>
   </g>
  </g>
 </g>
 <defs>
  <clipPath id="p881b6b8a32">
   <rect x="80.35125" y="13.2475" width="599.692557" height="502.54"/>
  </clipPath>
  <clipPath id="p8af674a5b1">
   <rect x="753.729227" y="13.2475" width="239.877023" height="502.54"/>
  </clipPath>
 </defs>
</svg>
