<?xml version="1.0" encoding="utf-8" standalone="no"?>
<!DOCTYPE svg PUBLIC "-//W3C//DTD SVG 1.1//EN"
  "http://www.w3.org/Graphics/SVG/1.1/DTD/svg11.dtd">
<svg xmlns:xlink="http://www.w3.org/1999/xlink" width="1000.79625pt" height="569.00875pt" viewBox="0 0 1000.79625 569.00875" xmlns="http://www.w3.org/2000/svg" version="1.1">
 <metadata>
  <rdf:RDF xmlns:dc="http://purl.org/dc/elements/1.1/" xmlns:cc="http://creativecommons.org/ns#" xmlns:rdf="http://www.w3.org/1999/02/22-rdf-syntax-ns#">
   <cc:Work>
    <dc:type rdf:resource="http://purl.org/dc/dcmitype/StillImage"/>
    <dc:date>2024-02-05T08:13:46.684060</dc:date>
    <dc:format>image/svg+xml</dc:format>
    <dc:creator>
     <cc:Agent>
      <dc:title>Matplotlib v3.6.2, https://matplotlib.org/</dc:title>
     </cc:Agent>
    </dc:creator>
   </cc:Work>
  </rdf:RDF>
 </metadata>
 <defs>
  <style type="text/css">*{stroke-linejoin: round; stroke-linecap: butt}</style>
 </defs>
 <g id="figure_1">
  <g id="patch_1">
   <path d="M 0 569.00875 
L 1000.79625 569.00875 
L 1000.79625 0 
L 0 0 
L 0 569.00875 
z
" style="fill: none"/>
  </g>
  <g id="axes_1">
   <g id="patch_2">
    <path d="M 70.53125 515.7875 
L 677.23095 515.7875 
L 677.23095 13.2475 
L 70.53125 13.2475 
L 70.53125 515.7875 
z
" style="fill: none"/>
   </g>
   <g id="matplotlib.axis_1">
    <g id="xtick_1">
     <g id="line2d_1">
      <path d="M 98.108509 515.7875 
L 98.108509 13.2475 
" clip-path="url(#pfa21ad5319)" style="fill: none; stroke: #b0b0b0; stroke-width: 0.8; stroke-linecap: square"/>
     </g>
     <g id="line2d_2">
      <defs>
       <path id="m1df9bf74dc" d="M 0 0 
L 0 3.5 
" style="stroke: #000000; stroke-width: 0.8"/>
      </defs>
      <g>
       <use xlink:href="#m1df9bf74dc" x="98.108509" y="515.7875" style="stroke: #000000; stroke-width: 0.8"/>
      </g>
     </g>
     <g id="text_1">
      <!-- 0 -->
      <g transform="translate(93.198509 534.8825) scale(0.16 -0.16)">
       <defs>
        <path id="Georgia-30" d="M 3209 2919 
Q 3409 2678 3507 2354 
Q 3606 2031 3606 1678 
Q 3606 1253 3484 917 
Q 3363 581 3150 359 
Q 2931 131 2631 15 
Q 2331 -100 1963 -100 
Q 1559 -100 1243 34 
Q 928 169 731 403 
Q 525 647 423 973 
Q 322 1300 322 1678 
Q 322 2050 420 2362 
Q 519 2675 728 2928 
Q 928 3172 1243 3312 
Q 1559 3453 1966 3453 
Q 2394 3453 2700 3309 
Q 3006 3166 3209 2919 
z
M 2916 1678 
Q 2916 2422 2661 2831 
Q 2406 3241 1969 3241 
Q 1525 3241 1269 2831 
Q 1013 2422 1013 1678 
Q 1013 972 1258 542 
Q 1503 113 1963 113 
Q 2422 113 2669 542 
Q 2916 972 2916 1678 
z
" transform="scale(0.015625)"/>
       </defs>
       <use xlink:href="#Georgia-30"/>
      </g>
     </g>
    </g>
    <g id="xtick_2">
     <g id="line2d_3">
      <path d="M 185.889651 515.7875 
L 185.889651 13.2475 
" clip-path="url(#pfa21ad5319)" style="fill: none; stroke: #b0b0b0; stroke-width: 0.8; stroke-linecap: square"/>
     </g>
     <g id="line2d_4">
      <g>
       <use xlink:href="#m1df9bf74dc" x="185.889651" y="515.7875" style="stroke: #000000; stroke-width: 0.8"/>
      </g>
     </g>
     <g id="text_2">
      <!-- 1 -->
      <g transform="translate(182.452151 534.8825) scale(0.16 -0.16)">
       <defs>
        <path id="Georgia-31" d="M 2528 0 
L 422 0 
L 422 222 
Q 516 228 714 248 
Q 913 269 988 291 
Q 1084 322 1136 392 
Q 1188 463 1188 603 
L 1188 2797 
L 409 2797 
L 409 3059 
L 581 3059 
Q 919 3059 1186 3184 
Q 1453 3309 1569 3453 
L 1828 3453 
Q 1819 3250 1809 2978 
Q 1800 2706 1800 2491 
L 1800 638 
Q 1800 528 1848 442 
Q 1897 356 1988 316 
Q 2069 281 2253 253 
Q 2438 225 2528 222 
L 2528 0 
z
" transform="scale(0.015625)"/>
       </defs>
       <use xlink:href="#Georgia-31"/>
      </g>
     </g>
    </g>
    <g id="xtick_3">
     <g id="line2d_5">
      <path d="M 273.670793 515.7875 
L 273.670793 13.2475 
" clip-path="url(#pfa21ad5319)" style="fill: none; stroke: #b0b0b0; stroke-width: 0.8; stroke-linecap: square"/>
     </g>
     <g id="line2d_6">
      <g>
       <use xlink:href="#m1df9bf74dc" x="273.670793" y="515.7875" style="stroke: #000000; stroke-width: 0.8"/>
      </g>
     </g>
     <g id="text_3">
      <!-- 2 -->
      <g transform="translate(269.202043 534.8825) scale(0.16 -0.16)">
       <defs>
        <path id="Georgia-32" d="M 3272 0 
L 344 0 
L 344 425 
Q 428 522 578 642 
Q 728 763 934 903 
Q 1059 988 1234 1088 
Q 1409 1188 1631 1306 
Q 1878 1438 2011 1538 
Q 2144 1638 2253 1784 
Q 2325 1881 2369 2026 
Q 2413 2172 2413 2441 
Q 2413 2831 2203 3014 
Q 1994 3197 1666 3197 
Q 1463 3197 1281 3117 
Q 1100 3038 1009 2897 
Q 1031 2797 1064 2659 
Q 1097 2522 1097 2391 
Q 1097 2272 998 2180 
Q 900 2088 706 2088 
Q 550 2088 465 2195 
Q 381 2303 381 2484 
Q 381 2653 475 2823 
Q 569 2994 744 3138 
Q 916 3278 1169 3365 
Q 1422 3453 1716 3453 
Q 2356 3453 2732 3167 
Q 3109 2881 3109 2403 
Q 3109 2175 3042 1987 
Q 2975 1800 2825 1656 
Q 2659 1497 2437 1383 
Q 2216 1269 1759 1066 
Q 1488 944 1253 811 
Q 1019 678 869 553 
L 3272 553 
L 3272 0 
z
" transform="scale(0.015625)"/>
       </defs>
       <use xlink:href="#Georgia-32"/>
      </g>
     </g>
    </g>
    <g id="xtick_4">
     <g id="line2d_7">
      <path d="M 361.451935 515.7875 
L 361.451935 13.2475 
" clip-path="url(#pfa21ad5319)" style="fill: none; stroke: #b0b0b0; stroke-width: 0.8; stroke-linecap: square"/>
     </g>
     <g id="line2d_8">
      <g>
       <use xlink:href="#m1df9bf74dc" x="361.451935" y="515.7875" style="stroke: #000000; stroke-width: 0.8"/>
      </g>
     </g>
     <g id="text_4">
      <!-- 3 -->
      <g transform="translate(357.038185 534.8825) scale(0.16 -0.16)">
       <defs>
        <path id="Georgia-33" d="M 1522 -1141 
Q 1228 -1141 984 -1067 
Q 741 -994 566 -869 
Q 391 -744 295 -581 
Q 200 -419 200 -247 
Q 200 -94 275 29 
Q 350 153 516 153 
Q 703 153 801 61 
Q 900 -31 900 -150 
Q 900 -250 867 -403 
Q 834 -556 816 -622 
Q 838 -650 895 -697 
Q 953 -744 1038 -781 
Q 1138 -828 1247 -856 
Q 1356 -884 1556 -884 
Q 1744 -884 1917 -821 
Q 2091 -759 2222 -622 
Q 2359 -478 2436 -286 
Q 2513 -94 2513 219 
Q 2513 388 2477 553 
Q 2441 719 2344 841 
Q 2247 963 2080 1030 
Q 1913 1097 1656 1097 
L 1247 1097 
L 1247 1456 
L 1519 1456 
Q 1950 1456 2140 1693 
Q 2331 1931 2331 2409 
Q 2331 2800 2147 2998 
Q 1963 3197 1625 3197 
Q 1463 3197 1358 3158 
Q 1253 3119 1188 3081 
Q 1109 3038 1059 2984 
Q 1009 2931 984 2906 
Q 1006 2806 1037 2661 
Q 1069 2516 1069 2384 
Q 1069 2269 970 2176 
Q 872 2084 681 2084 
Q 516 2084 439 2203 
Q 363 2322 363 2478 
Q 363 2641 453 2809 
Q 544 2978 722 3125 
Q 900 3272 1156 3362 
Q 1413 3453 1747 3453 
Q 2131 3453 2382 3339 
Q 2634 3225 2778 3063 
Q 2919 2903 2972 2728 
Q 3025 2553 3025 2428 
Q 3025 2272 2981 2114 
Q 2938 1956 2838 1822 
Q 2728 1675 2548 1554 
Q 2369 1434 2097 1359 
L 2097 1309 
Q 2272 1294 2470 1231 
Q 2669 1169 2828 1047 
Q 2994 919 3100 717 
Q 3206 516 3206 206 
Q 3206 -394 2725 -767 
Q 2244 -1141 1522 -1141 
z
" transform="scale(0.015625)"/>
       </defs>
       <use xlink:href="#Georgia-33"/>
      </g>
     </g>
    </g>
    <g id="xtick_5">
     <g id="line2d_9">
      <path d="M 449.233077 515.7875 
L 449.233077 13.2475 
" clip-path="url(#pfa21ad5319)" style="fill: none; stroke: #b0b0b0; stroke-width: 0.8; stroke-linecap: square"/>
     </g>
     <g id="line2d_10">
      <g>
       <use xlink:href="#m1df9bf74dc" x="449.233077" y="515.7875" style="stroke: #000000; stroke-width: 0.8"/>
      </g>
     </g>
     <g id="text_5">
      <!-- 4 -->
      <g transform="translate(444.713077 534.8825) scale(0.16 -0.16)">
       <defs>
        <path id="Georgia-34" d="M 3388 281 
L 2753 281 
L 2753 -1141 
L 2153 -1141 
L 2153 281 
L 153 281 
L 153 763 
L 2344 3434 
L 2753 3434 
L 2753 691 
L 3388 691 
L 3388 281 
z
M 2153 691 
L 2153 2738 
L 466 691 
L 2153 691 
z
" transform="scale(0.015625)"/>
       </defs>
       <use xlink:href="#Georgia-34"/>
      </g>
     </g>
    </g>
    <g id="xtick_6">
     <g id="line2d_11">
      <path d="M 537.014219 515.7875 
L 537.014219 13.2475 
" clip-path="url(#pfa21ad5319)" style="fill: none; stroke: #b0b0b0; stroke-width: 0.8; stroke-linecap: square"/>
     </g>
     <g id="line2d_12">
      <g>
       <use xlink:href="#m1df9bf74dc" x="537.014219" y="515.7875" style="stroke: #000000; stroke-width: 0.8"/>
      </g>
     </g>
     <g id="text_6">
      <!-- 5 -->
      <g transform="translate(532.787969 534.8825) scale(0.16 -0.16)">
       <defs>
        <path id="Georgia-35" d="M 2634 1466 
Q 2841 1303 2977 1047 
Q 3113 791 3113 406 
Q 3113 -266 2653 -703 
Q 2194 -1141 1488 -1141 
Q 941 -1141 562 -881 
Q 184 -622 184 -278 
Q 184 -119 262 0 
Q 341 119 503 119 
Q 691 119 789 20 
Q 888 -78 888 -194 
Q 888 -294 853 -444 
Q 819 -594 800 -666 
Q 825 -688 881 -725 
Q 938 -763 1016 -797 
Q 1097 -831 1214 -857 
Q 1331 -884 1488 -884 
Q 1688 -884 1866 -803 
Q 2044 -722 2166 -563 
Q 2300 -388 2367 -164 
Q 2434 59 2434 403 
Q 2434 844 2189 1133 
Q 1944 1422 1544 1422 
Q 1294 1422 1076 1328 
Q 859 1234 688 1016 
L 478 1097 
L 744 3353 
L 2981 3353 
L 2981 2797 
L 997 2797 
L 834 1472 
Q 975 1572 1204 1670 
Q 1434 1769 1709 1769 
Q 1938 1769 2183 1698 
Q 2428 1628 2634 1466 
z
" transform="scale(0.015625)"/>
       </defs>
       <use xlink:href="#Georgia-35"/>
      </g>
     </g>
    </g>
    <g id="xtick_7">
     <g id="line2d_13">
      <path d="M 624.795361 515.7875 
L 624.795361 13.2475 
" clip-path="url(#pfa21ad5319)" style="fill: none; stroke: #b0b0b0; stroke-width: 0.8; stroke-linecap: square"/>
     </g>
     <g id="line2d_14">
      <g>
       <use xlink:href="#m1df9bf74dc" x="624.795361" y="515.7875" style="stroke: #000000; stroke-width: 0.8"/>
      </g>
     </g>
     <g id="text_7">
      <!-- 6 -->
      <g transform="translate(620.267861 534.8825) scale(0.16 -0.16)">
       <defs>
        <path id="Georgia-36" d="M 3359 1441 
Q 3359 1116 3242 831 
Q 3125 547 2928 347 
Q 2700 119 2423 9 
Q 2147 -100 1847 -100 
Q 1500 -100 1219 28 
Q 938 156 741 391 
Q 541 628 431 972 
Q 322 1316 322 1744 
Q 322 2859 986 3625 
Q 1650 4391 2766 4544 
L 2822 4263 
L 2541 4213 
Q 1863 3994 1492 3531 
Q 1122 3069 1013 2409 
Q 1281 2644 1543 2741 
Q 1806 2838 2097 2838 
Q 2619 2838 2989 2438 
Q 3359 2038 3359 1441 
z
M 2681 1356 
Q 2681 1863 2448 2169 
Q 2216 2475 1825 2475 
Q 1591 2475 1389 2387 
Q 1188 2300 1000 2094 
Q 997 2056 990 1920 
Q 984 1784 984 1706 
Q 984 975 1223 561 
Q 1463 147 1853 147 
Q 2225 147 2453 470 
Q 2681 794 2681 1356 
z
" transform="scale(0.015625)"/>
       </defs>
       <use xlink:href="#Georgia-36"/>
      </g>
     </g>
    </g>
    <g id="text_8">
     <!-- $x$ -->
     <g transform="translate(367.8811 557.47125) scale(0.2 -0.2)">
      <defs>
       <path id="DejaVuSans-Oblique-78" d="M 3841 3500 
L 2234 1784 
L 3219 0 
L 2559 0 
L 1819 1388 
L 531 0 
L -166 0 
L 1556 1844 
L 641 3500 
L 1300 3500 
L 1972 2234 
L 3144 3500 
L 3841 3500 
z
" transform="scale(0.015625)"/>
      </defs>
      <use xlink:href="#DejaVuSans-Oblique-78" transform="translate(0 0.3125)"/>
     </g>
    </g>
   </g>
   <g id="matplotlib.axis_2">
    <g id="ytick_1">
     <g id="line2d_15">
      <path d="M 70.53125 445.981478 
L 677.23095 445.981478 
" clip-path="url(#pfa21ad5319)" style="fill: none; stroke: #b0b0b0; stroke-width: 0.8; stroke-linecap: square"/>
     </g>
     <g id="line2d_16">
      <defs>
       <path id="m1dd96ff021" d="M 0 0 
L -3.5 0 
" style="stroke: #000000; stroke-width: 0.8"/>
      </defs>
      <g>
       <use xlink:href="#m1dd96ff021" x="70.53125" y="445.981478" style="stroke: #000000; stroke-width: 0.8"/>
      </g>
     </g>
     <g id="text_9">
      <!-- −1.0 -->
      <g transform="translate(32.23375 452.028978) scale(0.16 -0.16)">
       <defs>
        <path id="Georgia-2212" d="M 3650 1553 
L 466 1553 
L 466 1944 
L 3650 1944 
L 3650 1553 
z
" transform="scale(0.015625)"/>
        <path id="Georgia-2e" d="M 1297 359 
Q 1297 184 1170 60 
Q 1044 -63 869 -63 
Q 694 -63 567 60 
Q 441 184 441 359 
Q 441 534 567 661 
Q 694 788 869 788 
Q 1044 788 1170 661 
Q 1297 534 1297 359 
z
" transform="scale(0.015625)"/>
       </defs>
       <use xlink:href="#Georgia-2212"/>
       <use xlink:href="#Georgia-31" x="64.306641"/>
       <use xlink:href="#Georgia-2e" x="107.275391"/>
       <use xlink:href="#Georgia-30" x="134.228516"/>
      </g>
     </g>
    </g>
    <g id="ytick_2">
     <g id="line2d_17">
      <path d="M 70.53125 355.249489 
L 677.23095 355.249489 
" clip-path="url(#pfa21ad5319)" style="fill: none; stroke: #b0b0b0; stroke-width: 0.8; stroke-linecap: square"/>
     </g>
     <g id="line2d_18">
      <g>
       <use xlink:href="#m1dd96ff021" x="70.53125" y="355.249489" style="stroke: #000000; stroke-width: 0.8"/>
      </g>
     </g>
     <g id="text_10">
      <!-- −0.5 -->
      <g transform="translate(30.65625 361.296989) scale(0.16 -0.16)">
       <use xlink:href="#Georgia-2212"/>
       <use xlink:href="#Georgia-30" x="64.306641"/>
       <use xlink:href="#Georgia-2e" x="125.683594"/>
       <use xlink:href="#Georgia-35" x="152.636719"/>
      </g>
     </g>
    </g>
    <g id="ytick_3">
     <g id="line2d_19">
      <path d="M 70.53125 264.5175 
L 677.23095 264.5175 
" clip-path="url(#pfa21ad5319)" style="fill: none; stroke: #b0b0b0; stroke-width: 0.8; stroke-linecap: square"/>
     </g>
     <g id="line2d_20">
      <g>
       <use xlink:href="#m1dd96ff021" x="70.53125" y="264.5175" style="stroke: #000000; stroke-width: 0.8"/>
      </g>
     </g>
     <g id="text_11">
      <!-- 0.0 -->
      <g transform="translate(39.57875 270.565) scale(0.16 -0.16)">
       <use xlink:href="#Georgia-30"/>
       <use xlink:href="#Georgia-2e" x="61.376953"/>
       <use xlink:href="#Georgia-30" x="88.330078"/>
      </g>
     </g>
    </g>
    <g id="ytick_4">
     <g id="line2d_21">
      <path d="M 70.53125 173.785511 
L 677.23095 173.785511 
" clip-path="url(#pfa21ad5319)" style="fill: none; stroke: #b0b0b0; stroke-width: 0.8; stroke-linecap: square"/>
     </g>
     <g id="line2d_22">
      <g>
       <use xlink:href="#m1dd96ff021" x="70.53125" y="173.785511" style="stroke: #000000; stroke-width: 0.8"/>
      </g>
     </g>
     <g id="text_12">
      <!-- 0.5 -->
      <g transform="translate(40.94625 179.833011) scale(0.16 -0.16)">
       <use xlink:href="#Georgia-30"/>
       <use xlink:href="#Georgia-2e" x="61.376953"/>
       <use xlink:href="#Georgia-35" x="88.330078"/>
      </g>
     </g>
    </g>
    <g id="ytick_5">
     <g id="line2d_23">
      <path d="M 70.53125 83.053522 
L 677.23095 83.053522 
" clip-path="url(#pfa21ad5319)" style="fill: none; stroke: #b0b0b0; stroke-width: 0.8; stroke-linecap: square"/>
     </g>
     <g id="line2d_24">
      <g>
       <use xlink:href="#m1dd96ff021" x="70.53125" y="83.053522" style="stroke: #000000; stroke-width: 0.8"/>
      </g>
     </g>
     <g id="text_13">
      <!-- 1.0 -->
      <g transform="translate(42.52375 89.101022) scale(0.16 -0.16)">
       <use xlink:href="#Georgia-31"/>
       <use xlink:href="#Georgia-2e" x="42.96875"/>
       <use xlink:href="#Georgia-30" x="69.921875"/>
      </g>
     </g>
    </g>
    <g id="text_14">
     <!-- $y$ -->
     <g transform="translate(22.31875 270.5175) rotate(-90) scale(0.2 -0.2)">
      <defs>
       <path id="DejaVuSans-Oblique-79" d="M 1588 -325 
Q 1188 -997 936 -1164 
Q 684 -1331 294 -1331 
L -159 -1331 
L -63 -850 
L 269 -850 
Q 509 -850 678 -719 
Q 847 -588 1056 -206 
L 1234 128 
L 459 3500 
L 1069 3500 
L 1650 819 
L 3256 3500 
L 3859 3500 
L 1588 -325 
z
" transform="scale(0.015625)"/>
      </defs>
      <use xlink:href="#DejaVuSans-Oblique-79" transform="translate(0 0.3125)"/>
     </g>
    </g>
   </g>
   <g id="line2d_25">
    <path d="M 98.108509 264.5175 
L 115.775622 228.241547 
L 125.161276 209.474222 
L 132.890638 194.481558 
L 140.067902 181.043283 
L 146.69307 169.131767 
L 152.76614 158.688362 
L 158.287112 149.632478 
L 163.255988 141.869631 
L 168.224863 134.499662 
L 173.193739 127.54618 
L 177.610517 121.732987 
L 182.027295 116.281203 
L 186.444074 111.204626 
L 190.308755 107.080534 
L 194.173436 103.261556 
L 198.038117 99.755092 
L 201.902797 96.567939 
L 205.767478 93.706273 
L 209.080062 91.516698 
L 212.392646 89.57346 
L 215.705229 87.879324 
L 219.017813 86.436703 
L 222.330397 85.247652 
L 225.64298 84.313864 
L 228.955564 83.636667 
L 232.268148 83.217027 
L 235.580731 83.055541 
L 238.893315 83.152438 
L 242.205899 83.507581 
L 245.518482 84.120465 
L 248.831066 84.990216 
L 252.14365 86.115596 
L 255.456233 87.495003 
L 258.768817 89.126472 
L 262.081401 91.00768 
L 265.393985 93.13595 
L 268.706568 95.508249 
L 272.571249 98.579834 
L 276.43593 101.973006 
L 280.300611 105.681191 
L 284.165292 109.6972 
L 288.029973 114.013252 
L 292.446751 119.302526 
L 296.863529 124.95936 
L 301.280308 130.969436 
L 306.249183 138.134031 
L 311.218059 145.703471 
L 316.739031 154.559243 
L 322.260004 163.84984 
L 328.333074 174.527822 
L 334.958242 186.66576 
L 342.135506 200.313164 
L 349.864868 215.487435 
L 359.250522 234.412538 
L 373.052954 262.805556 
L 391.272164 300.234137 
L 400.657818 319.016736 
L 408.38718 334.026655 
L 415.564444 347.48461 
L 422.189612 359.417303 
L 428.262682 369.882554 
L 433.783654 378.960227 
L 439.304627 387.585342 
L 444.273503 394.93278 
L 449.242378 401.862459 
L 453.659157 407.653486 
L 458.075935 413.082214 
L 462.492713 418.134904 
L 466.357394 422.23746 
L 470.222075 426.034354 
L 474.086756 429.518227 
L 477.951437 432.682329 
L 481.26402 435.135239 
L 484.576604 437.345205 
L 487.889188 439.309082 
L 491.201771 441.024074 
L 494.514355 442.487737 
L 497.826939 443.697989 
L 501.139522 444.653105 
L 504.452106 445.351726 
L 507.76469 445.792857 
L 511.077274 445.97587 
L 514.389857 445.900505 
L 517.702441 445.566867 
L 521.015025 444.975434 
L 524.327608 444.127046 
L 527.640192 443.022912 
L 530.952776 441.664605 
L 534.265359 440.054057 
L 537.577943 438.193563 
L 540.890527 436.085771 
L 544.20311 433.733683 
L 547.515694 431.140648 
L 551.380375 427.815854 
L 555.245056 424.174588 
L 559.109737 420.223906 
L 562.974418 415.971464 
L 567.391196 410.752627 
L 571.807974 405.163648 
L 576.224752 399.218672 
L 581.193628 392.123819 
L 586.162503 384.620203 
L 591.131379 376.731863 
L 596.652352 367.546593 
L 602.725422 356.973669 
L 608.798492 345.958385 
L 615.423659 333.49918 
L 623.153021 318.472155 
L 631.986578 300.793453 
L 643.58062 277.061931 
L 649.65369 264.5175 
L 649.65369 264.5175 
" clip-path="url(#pfa21ad5319)" style="fill: none; stroke: #000000; stroke-linecap: square"/>
   </g>
   <g id="line2d_26">
    <defs>
     <path id="m585b1df81b" d="M 0 0.4 
C 0.106081 0.4 0.207832 0.357853 0.282843 0.282843 
C 0.357853 0.207832 0.4 0.106081 0.4 0 
C 0.4 -0.106081 0.357853 -0.207832 0.282843 -0.282843 
C 0.207832 -0.357853 0.106081 -0.4 0 -0.4 
C -0.106081 -0.4 -0.207832 -0.357853 -0.282843 -0.282843 
C -0.357853 -0.207832 -0.4 -0.106081 -0.4 0 
C -0.4 0.106081 -0.357853 0.207832 -0.282843 0.282843 
C -0.207832 0.357853 -0.106081 0.4 0 0.4 
z
" style="stroke: #000000"/>
    </defs>
    <g clip-path="url(#pfa21ad5319)">
     <use xlink:href="#m585b1df81b" x="98.108509" y="264.5175" style="stroke: #000000"/>
     <use xlink:href="#m585b1df81b" x="103.679673" y="257.509554" style="stroke: #000000"/>
     <use xlink:href="#m585b1df81b" x="109.250836" y="252.433611" style="stroke: #000000"/>
     <use xlink:href="#m585b1df81b" x="114.821999" y="247.435336" style="stroke: #000000"/>
     <use xlink:href="#m585b1df81b" x="120.393163" y="242.458258" style="stroke: #000000"/>
     <use xlink:href="#m585b1df81b" x="125.964326" y="237.493713" style="stroke: #000000"/>
     <use xlink:href="#m585b1df81b" x="131.53549" y="232.540749" style="stroke: #000000"/>
     <use xlink:href="#m585b1df81b" x="137.106653" y="227.600178" style="stroke: #000000"/>
     <use xlink:href="#m585b1df81b" x="142.677817" y="222.673311" style="stroke: #000000"/>
     <use xlink:href="#m585b1df81b" x="148.24898" y="217.761645" style="stroke: #000000"/>
     <use xlink:href="#m585b1df81b" x="153.820144" y="212.866777" style="stroke: #000000"/>
     <use xlink:href="#m585b1df81b" x="159.391307" y="207.990387" style="stroke: #000000"/>
     <use xlink:href="#m585b1df81b" x="164.96247" y="203.134235" style="stroke: #000000"/>
     <use xlink:href="#m585b1df81b" x="170.533634" y="198.300169" style="stroke: #000000"/>
     <use xlink:href="#m585b1df81b" x="176.104797" y="193.490135" style="stroke: #000000"/>
     <use xlink:href="#m585b1df81b" x="181.675961" y="188.706188" style="stroke: #000000"/>
     <use xlink:href="#m585b1df81b" x="187.247124" y="183.950508" style="stroke: #000000"/>
     <use xlink:href="#m585b1df81b" x="192.818288" y="179.225411" style="stroke: #000000"/>
     <use xlink:href="#m585b1df81b" x="198.389451" y="174.533372" style="stroke: #000000"/>
     <use xlink:href="#m585b1df81b" x="203.960615" y="169.877039" style="stroke: #000000"/>
     <use xlink:href="#m585b1df81b" x="209.531778" y="165.259261" style="stroke: #000000"/>
     <use xlink:href="#m585b1df81b" x="215.102941" y="160.683109" style="stroke: #000000"/>
     <use xlink:href="#m585b1df81b" x="220.674105" y="156.151911" style="stroke: #000000"/>
     <use xlink:href="#m585b1df81b" x="226.245268" y="151.669285" style="stroke: #000000"/>
     <use xlink:href="#m585b1df81b" x="231.816432" y="147.23918" style="stroke: #000000"/>
     <use xlink:href="#m585b1df81b" x="237.387595" y="142.865923" style="stroke: #000000"/>
     <use xlink:href="#m585b1df81b" x="242.958759" y="138.554282" style="stroke: #000000"/>
     <use xlink:href="#m585b1df81b" x="248.529922" y="134.309528" style="stroke: #000000"/>
     <use xlink:href="#m585b1df81b" x="254.101086" y="130.137524" style="stroke: #000000"/>
     <use xlink:href="#m585b1df81b" x="259.672249" y="126.044819" style="stroke: #000000"/>
     <use xlink:href="#m585b1df81b" x="265.243413" y="122.038777" style="stroke: #000000"/>
     <use xlink:href="#m585b1df81b" x="270.814576" y="118.127722" style="stroke: #000000"/>
     <use xlink:href="#m585b1df81b" x="276.385739" y="114.32113" style="stroke: #000000"/>
     <use xlink:href="#m585b1df81b" x="281.956903" y="110.629869" style="stroke: #000000"/>
     <use xlink:href="#m585b1df81b" x="287.528066" y="107.066496" style="stroke: #000000"/>
     <use xlink:href="#m585b1df81b" x="293.09923" y="103.645657" style="stroke: #000000"/>
     <use xlink:href="#m585b1df81b" x="298.670393" y="100.384595" style="stroke: #000000"/>
     <use xlink:href="#m585b1df81b" x="304.241557" y="97.30385" style="stroke: #000000"/>
     <use xlink:href="#m585b1df81b" x="309.81272" y="94.428191" style="stroke: #000000"/>
     <use xlink:href="#m585b1df81b" x="315.383884" y="91.787937" style="stroke: #000000"/>
     <use xlink:href="#m585b1df81b" x="320.955047" y="89.420834" style="stroke: #000000"/>
     <use xlink:href="#m585b1df81b" x="326.52621" y="87.37484" style="stroke: #000000"/>
     <use xlink:href="#m585b1df81b" x="332.097374" y="85.712388" style="stroke: #000000"/>
     <use xlink:href="#m585b1df81b" x="337.668537" y="84.517235" style="stroke: #000000"/>
     <use xlink:href="#m585b1df81b" x="343.239701" y="83.906088" style="stroke: #000000"/>
     <use xlink:href="#m585b1df81b" x="348.810864" y="84.04984" style="stroke: #000000"/>
     <use xlink:href="#m585b1df81b" x="354.382028" y="85.216289" style="stroke: #000000"/>
     <use xlink:href="#m585b1df81b" x="359.953191" y="87.868621" style="stroke: #000000"/>
     <use xlink:href="#m585b1df81b" x="365.524355" y="92.943529" style="stroke: #000000"/>
     <use xlink:href="#m585b1df81b" x="371.095518" y="102.936505" style="stroke: #000000"/>
     <use xlink:href="#m585b1df81b" x="376.666681" y="426.098495" style="stroke: #000000"/>
     <use xlink:href="#m585b1df81b" x="382.237845" y="436.091471" style="stroke: #000000"/>
     <use xlink:href="#m585b1df81b" x="387.809008" y="441.166379" style="stroke: #000000"/>
     <use xlink:href="#m585b1df81b" x="393.380172" y="443.818711" style="stroke: #000000"/>
     <use xlink:href="#m585b1df81b" x="398.951335" y="444.98516" style="stroke: #000000"/>
     <use xlink:href="#m585b1df81b" x="404.522499" y="445.128912" style="stroke: #000000"/>
     <use xlink:href="#m585b1df81b" x="410.093662" y="444.517765" style="stroke: #000000"/>
     <use xlink:href="#m585b1df81b" x="415.664826" y="443.322612" style="stroke: #000000"/>
     <use xlink:href="#m585b1df81b" x="421.235989" y="441.66016" style="stroke: #000000"/>
     <use xlink:href="#m585b1df81b" x="426.807153" y="439.614166" style="stroke: #000000"/>
     <use xlink:href="#m585b1df81b" x="432.378316" y="437.247063" style="stroke: #000000"/>
     <use xlink:href="#m585b1df81b" x="437.949479" y="434.606809" style="stroke: #000000"/>
     <use xlink:href="#m585b1df81b" x="443.520643" y="431.73115" style="stroke: #000000"/>
     <use xlink:href="#m585b1df81b" x="449.091806" y="428.650405" style="stroke: #000000"/>
     <use xlink:href="#m585b1df81b" x="454.66297" y="425.389343" style="stroke: #000000"/>
     <use xlink:href="#m585b1df81b" x="460.234133" y="421.968504" style="stroke: #000000"/>
     <use xlink:href="#m585b1df81b" x="465.805297" y="418.405131" style="stroke: #000000"/>
     <use xlink:href="#m585b1df81b" x="471.37646" y="414.71387" style="stroke: #000000"/>
     <use xlink:href="#m585b1df81b" x="476.947624" y="410.907278" style="stroke: #000000"/>
     <use xlink:href="#m585b1df81b" x="482.518787" y="406.996223" style="stroke: #000000"/>
     <use xlink:href="#m585b1df81b" x="488.08995" y="402.990181" style="stroke: #000000"/>
     <use xlink:href="#m585b1df81b" x="493.661114" y="398.897476" style="stroke: #000000"/>
     <use xlink:href="#m585b1df81b" x="499.232277" y="394.725472" style="stroke: #000000"/>
     <use xlink:href="#m585b1df81b" x="504.803441" y="390.480718" style="stroke: #000000"/>
     <use xlink:href="#m585b1df81b" x="510.374604" y="386.169077" style="stroke: #000000"/>
     <use xlink:href="#m585b1df81b" x="515.945768" y="381.79582" style="stroke: #000000"/>
     <use xlink:href="#m585b1df81b" x="521.516931" y="377.365715" style="stroke: #000000"/>
     <use xlink:href="#m585b1df81b" x="527.088095" y="372.883089" style="stroke: #000000"/>
     <use xlink:href="#m585b1df81b" x="532.659258" y="368.351891" style="stroke: #000000"/>
     <use xlink:href="#m585b1df81b" x="538.230421" y="363.775739" style="stroke: #000000"/>
     <use xlink:href="#m585b1df81b" x="543.801585" y="359.157961" style="stroke: #000000"/>
     <use xlink:href="#m585b1df81b" x="549.372748" y="354.501628" style="stroke: #000000"/>
     <use xlink:href="#m585b1df81b" x="554.943912" y="349.809589" style="stroke: #000000"/>
     <use xlink:href="#m585b1df81b" x="560.515075" y="345.084492" style="stroke: #000000"/>
     <use xlink:href="#m585b1df81b" x="566.086239" y="340.328812" style="stroke: #000000"/>
     <use xlink:href="#m585b1df81b" x="571.657402" y="335.544865" style="stroke: #000000"/>
     <use xlink:href="#m585b1df81b" x="577.228566" y="330.734831" style="stroke: #000000"/>
     <use xlink:href="#m585b1df81b" x="582.799729" y="325.900765" style="stroke: #000000"/>
     <use xlink:href="#m585b1df81b" x="588.370893" y="321.044613" style="stroke: #000000"/>
     <use xlink:href="#m585b1df81b" x="593.942056" y="316.168223" style="stroke: #000000"/>
     <use xlink:href="#m585b1df81b" x="599.513219" y="311.273355" style="stroke: #000000"/>
     <use xlink:href="#m585b1df81b" x="605.084383" y="306.361689" style="stroke: #000000"/>
     <use xlink:href="#m585b1df81b" x="610.655546" y="301.434822" style="stroke: #000000"/>
     <use xlink:href="#m585b1df81b" x="616.22671" y="296.494251" style="stroke: #000000"/>
     <use xlink:href="#m585b1df81b" x="621.797873" y="291.541287" style="stroke: #000000"/>
     <use xlink:href="#m585b1df81b" x="627.369037" y="286.576742" style="stroke: #000000"/>
     <use xlink:href="#m585b1df81b" x="632.9402" y="281.599664" style="stroke: #000000"/>
     <use xlink:href="#m585b1df81b" x="638.511364" y="276.601389" style="stroke: #000000"/>
     <use xlink:href="#m585b1df81b" x="644.082527" y="271.525446" style="stroke: #000000"/>
     <use xlink:href="#m585b1df81b" x="649.65369" y="264.5175" style="stroke: #000000"/>
    </g>
   </g>
   <g id="line2d_27">
    <path d="M 98.108509 264.5175 
L 103.679673 259.430306 
L 109.250836 250.884089 
L 114.821999 255.738978 
L 120.393163 246.645422 
L 125.964326 229.44182 
L 131.53549 242.189771 
L 137.106653 238.36678 
L 142.677817 210.279885 
L 148.24898 223.103059 
L 153.820144 230.190335 
L 159.391307 195.91531 
L 164.96247 201.61105 
L 170.533634 218.842665 
L 176.104797 185.155533 
L 181.675961 181.307689 
L 187.247124 204.253154 
L 192.818288 175.374342 
L 198.389451 163.603247 
L 203.960615 188.282353 
L 209.531778 165.015943 
L 215.102941 147.926705 
L 220.674105 172.570983 
L 226.245268 154.070281 
L 231.816432 133.270292 
L 237.387595 157.72223 
L 242.958759 143.203881 
L 248.529922 119.123557 
L 254.101086 143.696832 
L 259.672249 133.019278 
L 265.243413 105.486687 
L 270.814576 130.377013 
L 276.385739 123.908805 
L 281.956903 92.575957 
L 287.528066 117.815525 
L 293.09923 116.22369 
L 298.670393 80.635868 
L 304.241557 106.267346 
L 309.81272 110.502139 
L 315.383884 69.883003 
L 320.955047 96.211243 
L 326.52621 107.78692 
L 332.097374 60.437505 
L 337.668537 88.534373 
L 343.239701 110.481419 
L 348.810864 51.781273 
L 354.382028 85.563808 
L 359.953191 126.614864 
L 365.524355 36.090227 
L 371.095518 117.625332 
L 376.666681 411.409668 
L 382.237845 492.944773 
L 387.809008 402.420136 
L 393.380172 443.471192 
L 398.951335 477.253727 
L 404.522499 418.553581 
L 410.093662 440.500627 
L 415.664826 468.597495 
L 421.235989 421.24808 
L 426.807153 432.823757 
L 432.378316 459.151997 
L 437.949479 418.532861 
L 443.520643 422.767654 
L 449.091806 448.399132 
L 454.66297 412.81131 
L 460.234133 411.219475 
L 465.805297 436.459043 
L 471.37646 405.126195 
L 476.947624 398.657987 
L 482.518787 423.548313 
L 488.08995 396.015722 
L 493.661114 385.338168 
L 499.232277 409.911443 
L 504.803441 385.831119 
L 510.374604 371.31277 
L 515.945768 395.764708 
L 521.516931 374.964719 
L 527.088095 356.464017 
L 532.659258 381.108295 
L 538.230421 364.019057 
L 543.801585 340.752647 
L 549.372748 365.431753 
L 554.943912 353.660658 
L 560.515075 324.781846 
L 566.086239 347.727311 
L 571.657402 343.879467 
L 577.228566 310.192335 
L 582.799729 327.42395 
L 588.370893 333.11969 
L 593.942056 298.844665 
L 599.513219 305.931941 
L 605.084383 318.755115 
L 610.655546 290.66822 
L 616.22671 286.845229 
L 621.797873 299.59318 
L 627.369037 282.389578 
L 632.9402 273.296022 
L 638.511364 278.150911 
L 644.082527 269.604694 
L 649.65369 264.5175 
" clip-path="url(#pfa21ad5319)" style="fill: none; stroke: #a80000; stroke-width: 3; stroke-linecap: square"/>
   </g>
   <g id="line2d_28">
    <path d="M 102.417456 262.094114 
L 111.035349 253.797995 
L 119.653243 245.887569 
L 128.271136 238.156245 
L 136.88903 230.490183 
L 145.506923 222.83725 
L 154.124817 215.183806 
L 162.74271 207.537965 
L 171.360603 199.918127 
L 179.978497 192.345682 
L 188.59639 184.840902 
L 197.214284 177.421175 
L 205.832177 170.10084 
L 214.450071 162.892 
L 223.067964 155.805837 
L 231.685858 148.854026 
L 240.303751 142.050013 
L 248.921645 135.410018 
L 257.539538 128.953736 
L 266.157432 122.704853 
L 274.775325 116.691597 
L 283.393218 110.947672 
L 292.011112 105.514027 
L 300.629005 100.44207 
L 309.246899 95.799004 
L 317.864792 91.67613 
L 326.482686 88.201055 
L 335.100579 85.554874 
L 343.718473 83.995502 
L 352.336366 83.888478 
L 360.95426 85.74665 
L 369.572153 90.280303 
L 378.190046 438.754697 
L 386.80794 443.28835 
L 395.425833 445.146522 
L 404.043727 445.039498 
L 412.66162 443.480126 
L 421.279514 440.833945 
L 429.897407 437.35887 
L 438.515301 433.235996 
L 447.133194 428.59293 
L 455.751088 423.520973 
L 464.368981 418.087328 
L 472.986875 412.343403 
L 481.604768 406.330147 
L 490.222661 400.081264 
L 498.840555 393.624982 
L 507.458448 386.984987 
L 516.076342 380.180974 
L 524.694235 373.229163 
L 533.312129 366.143 
L 541.930022 358.93416 
L 550.547916 351.613825 
L 559.165809 344.194098 
L 567.783703 336.689318 
L 576.401596 329.116873 
L 585.01949 321.497035 
L 593.637383 313.851194 
L 602.255276 306.19775 
L 610.87317 298.544817 
L 619.491063 290.878755 
L 628.108957 283.147431 
L 636.72685 275.237005 
L 645.344744 266.940886 
" clip-path="url(#pfa21ad5319)" style="fill: none; stroke: #1f77b4; stroke-width: 3; stroke-linecap: square"/>
   </g>
   <g id="patch_3">
    <path d="M 70.53125 515.7875 
L 70.53125 13.2475 
" style="fill: none; stroke: #000000; stroke-width: 1.5; stroke-linejoin: miter; stroke-linecap: square"/>
   </g>
   <g id="patch_4">
    <path d="M 677.23095 515.7875 
L 677.23095 13.2475 
" style="fill: none; stroke: #000000; stroke-width: 1.5; stroke-linejoin: miter; stroke-linecap: square"/>
   </g>
   <g id="patch_5">
    <path d="M 70.53125 515.7875 
L 677.23095 515.7875 
" style="fill: none; stroke: #000000; stroke-width: 1.5; stroke-linejoin: miter; stroke-linecap: square"/>
   </g>
   <g id="patch_6">
    <path d="M 70.53125 13.2475 
L 677.23095 13.2475 
" style="fill: none; stroke: #000000; stroke-width: 1.5; stroke-linejoin: miter; stroke-linecap: square"/>
   </g>
   <g id="legend_1">
    <g id="patch_7">
     <path d="M 580.941887 80.16 
L 670.23095 80.16 
Q 672.23095 80.16 672.23095 78.16 
L 672.23095 20.2475 
Q 672.23095 18.2475 670.23095 18.2475 
L 580.941887 18.2475 
Q 578.941887 18.2475 578.941887 20.2475 
L 578.941887 78.16 
Q 578.941887 80.16 580.941887 80.16 
z
" style="fill: #ffffff; opacity: 0.8; stroke: #cccccc; stroke-linejoin: miter"/>
    </g>
    <g id="line2d_29">
     <path d="M 582.941887 26.306875 
L 592.941887 26.306875 
L 602.941887 26.306875 
" style="fill: none; stroke: #000000; stroke-linecap: square"/>
    </g>
    <g id="text_15">
     <!-- Init -->
     <g transform="translate(610.941887 29.806875) scale(0.1 -0.1)">
      <defs>
       <path id="Georgia-49" d="M 2244 0 
L 247 0 
L 247 222 
Q 331 228 490 240 
Q 650 253 716 278 
Q 819 319 866 389 
Q 913 459 913 584 
L 913 3797 
Q 913 3906 878 3979 
Q 844 4053 716 4103 
Q 622 4141 480 4173 
Q 338 4206 247 4213 
L 247 4434 
L 2244 4434 
L 2244 4213 
Q 2147 4209 2012 4189 
Q 1878 4169 1778 4138 
Q 1659 4100 1618 4015 
Q 1578 3931 1578 3828 
L 1578 619 
Q 1578 516 1623 436 
Q 1669 356 1778 309 
Q 1844 284 1992 254 
Q 2141 225 2244 222 
L 2244 0 
z
" transform="scale(0.015625)"/>
       <path id="Georgia-6e" d="M 3628 0 
L 2119 0 
L 2119 206 
Q 2191 213 2277 219 
Q 2363 225 2419 244 
Q 2506 272 2548 342 
Q 2591 413 2591 525 
L 2591 2109 
Q 2591 2438 2436 2616 
Q 2281 2794 2059 2794 
Q 1894 2794 1756 2742 
Q 1619 2691 1513 2616 
Q 1409 2544 1348 2461 
Q 1288 2378 1259 2328 
L 1259 556 
Q 1259 450 1303 381 
Q 1347 313 1434 275 
Q 1500 244 1576 228 
Q 1653 213 1734 206 
L 1734 0 
L 225 0 
L 225 206 
Q 297 213 373 219 
Q 450 225 506 244 
Q 594 272 636 342 
Q 678 413 678 525 
L 678 2428 
Q 678 2534 633 2623 
Q 588 2713 506 2769 
Q 447 2806 365 2823 
Q 284 2841 191 2847 
L 191 3050 
L 1216 3119 
L 1259 3075 
L 1259 2641 
L 1275 2641 
Q 1350 2716 1462 2820 
Q 1575 2925 1675 2991 
Q 1791 3066 1950 3116 
Q 2109 3166 2309 3166 
Q 2753 3166 2967 2889 
Q 3181 2613 3181 2153 
L 3181 550 
Q 3181 441 3218 373 
Q 3256 306 3347 269 
Q 3422 238 3476 225 
Q 3531 213 3628 206 
L 3628 0 
z
" transform="scale(0.015625)"/>
       <path id="Georgia-69" d="M 1722 0 
L 231 0 
L 231 206 
Q 303 213 379 219 
Q 456 225 513 244 
Q 600 272 642 342 
Q 684 413 684 525 
L 684 2428 
Q 684 2528 639 2611 
Q 594 2694 513 2750 
Q 453 2788 340 2814 
Q 228 2841 134 2847 
L 134 3050 
L 1222 3119 
L 1266 3075 
L 1266 563 
Q 1266 453 1308 381 
Q 1350 309 1441 275 
Q 1509 247 1575 230 
Q 1641 213 1722 206 
L 1722 0 
z
M 1328 4334 
Q 1328 4156 1211 4023 
Q 1094 3891 922 3891 
Q 763 3891 645 4017 
Q 528 4144 528 4306 
Q 528 4478 645 4606 
Q 763 4734 922 4734 
Q 1100 4734 1214 4614 
Q 1328 4494 1328 4334 
z
" transform="scale(0.015625)"/>
       <path id="Georgia-74" d="M 2128 134 
Q 1925 50 1744 -8 
Q 1563 -66 1300 -66 
Q 913 -66 755 129 
Q 597 325 597 681 
L 597 2769 
L 41 2769 
L 41 3069 
L 609 3069 
L 609 4028 
L 1178 4028 
L 1178 3069 
L 2063 3069 
L 2063 2769 
L 1184 2769 
L 1184 1047 
Q 1184 853 1198 723 
Q 1213 594 1266 497 
Q 1316 406 1416 359 
Q 1516 313 1684 313 
Q 1763 313 1914 327 
Q 2066 341 2128 363 
L 2128 134 
z
" transform="scale(0.015625)"/>
      </defs>
      <use xlink:href="#Georgia-49"/>
      <use xlink:href="#Georgia-6e" x="38.964844"/>
      <use xlink:href="#Georgia-69" x="98.046875"/>
      <use xlink:href="#Georgia-74" x="127.34375"/>
     </g>
    </g>
    <g id="line2d_30">
     <g>
      <use xlink:href="#m585b1df81b" x="592.941887" y="41.035" style="stroke: #000000"/>
     </g>
    </g>
    <g id="text_16">
     <!-- Exact -->
     <g transform="translate(610.941887 44.535) scale(0.1 -0.1)">
      <defs>
       <path id="Georgia-45" d="M 4034 1306 
L 3950 0 
L 269 0 
L 269 222 
Q 363 228 519 248 
Q 675 269 722 291 
Q 822 338 861 413 
Q 900 488 900 603 
L 900 3791 
Q 900 3894 865 3973 
Q 831 4053 722 4103 
Q 638 4144 495 4175 
Q 353 4206 269 4213 
L 269 4434 
L 3700 4434 
L 3700 3366 
L 3466 3366 
Q 3403 3603 3195 3870 
Q 2988 4138 2800 4163 
Q 2703 4175 2568 4181 
Q 2434 4188 2263 4188 
L 1566 4188 
L 1566 2425 
L 2066 2425 
Q 2306 2425 2417 2470 
Q 2528 2516 2613 2622 
Q 2681 2713 2729 2864 
Q 2778 3016 2794 3150 
L 3028 3150 
L 3028 1416 
L 2794 1416 
Q 2781 1566 2726 1733 
Q 2672 1900 2613 1975 
Q 2516 2097 2392 2134 
Q 2269 2172 2066 2172 
L 1566 2172 
L 1566 841 
Q 1566 641 1594 525 
Q 1622 409 1703 350 
Q 1784 291 1925 273 
Q 2066 256 2325 256 
Q 2428 256 2597 256 
Q 2766 256 2881 269 
Q 3000 281 3126 314 
Q 3253 347 3306 403 
Q 3450 553 3608 858 
Q 3766 1163 3809 1306 
L 4034 1306 
z
" transform="scale(0.015625)"/>
       <path id="Georgia-78" d="M 3194 0 
L 1781 0 
L 1781 206 
Q 1922 222 2020 237 
Q 2119 253 2119 319 
Q 2119 347 2087 406 
Q 2056 466 2025 516 
Q 1947 638 1811 842 
Q 1675 1047 1478 1331 
Q 1316 1128 1178 936 
Q 1041 744 891 528 
Q 869 497 845 450 
Q 822 403 822 375 
Q 822 306 911 261 
Q 1000 216 1178 200 
L 1178 0 
L 38 0 
L 38 194 
Q 250 256 379 345 
Q 509 434 619 566 
Q 716 691 889 909 
Q 1063 1128 1338 1503 
Q 1178 1731 948 2061 
Q 719 2391 569 2609 
Q 488 2728 383 2801 
Q 278 2875 88 2875 
L 88 3081 
L 1428 3081 
L 1428 2875 
Q 1328 2875 1231 2862 
Q 1134 2850 1134 2806 
Q 1134 2778 1153 2743 
Q 1172 2709 1200 2669 
Q 1269 2563 1414 2341 
Q 1559 2119 1728 1872 
Q 1838 2022 1983 2222 
Q 2128 2422 2250 2603 
Q 2263 2625 2275 2658 
Q 2288 2691 2288 2722 
Q 2288 2788 2180 2827 
Q 2072 2866 1975 2881 
L 1975 3081 
L 3113 3081 
L 3113 2888 
Q 2872 2825 2737 2739 
Q 2603 2653 2509 2541 
Q 2406 2413 2264 2225 
Q 2122 2038 1866 1700 
Q 2150 1300 2328 1044 
Q 2506 788 2688 516 
Q 2778 378 2889 298 
Q 3000 219 3194 206 
L 3194 0 
z
" transform="scale(0.015625)"/>
       <path id="Georgia-61" d="M 3144 56 
Q 2997 3 2886 -30 
Q 2775 -63 2634 -63 
Q 2391 -63 2245 51 
Q 2100 166 2059 384 
L 2041 384 
Q 1838 159 1605 40 
Q 1372 -78 1044 -78 
Q 697 -78 473 134 
Q 250 347 250 691 
Q 250 869 300 1009 
Q 350 1150 450 1263 
Q 528 1356 656 1429 
Q 784 1503 897 1547 
Q 1038 1600 1467 1744 
Q 1897 1888 2047 1969 
L 2047 2278 
Q 2047 2319 2030 2434 
Q 2013 2550 1956 2653 
Q 1894 2769 1780 2855 
Q 1666 2941 1456 2941 
Q 1313 2941 1189 2892 
Q 1066 2844 1016 2791 
Q 1016 2728 1045 2606 
Q 1075 2484 1075 2381 
Q 1075 2272 976 2181 
Q 878 2091 703 2091 
Q 547 2091 473 2202 
Q 400 2313 400 2450 
Q 400 2594 501 2725 
Q 603 2856 766 2959 
Q 906 3047 1106 3108 
Q 1306 3169 1497 3169 
Q 1759 3169 1954 3133 
Q 2150 3097 2309 2978 
Q 2469 2863 2551 2664 
Q 2634 2466 2634 2153 
Q 2634 1706 2625 1361 
Q 2616 1016 2616 606 
Q 2616 484 2658 412 
Q 2700 341 2788 291 
Q 2834 263 2936 259 
Q 3038 256 3144 256 
L 3144 56 
z
M 2053 1706 
Q 1788 1628 1588 1553 
Q 1388 1478 1216 1366 
Q 1059 1259 968 1114 
Q 878 969 878 769 
Q 878 509 1014 387 
Q 1150 266 1359 266 
Q 1581 266 1750 373 
Q 1919 481 2034 628 
L 2053 1706 
z
" transform="scale(0.015625)"/>
       <path id="Georgia-63" d="M 1650 -81 
Q 981 -81 603 362 
Q 225 806 225 1553 
Q 225 1878 326 2161 
Q 428 2444 622 2675 
Q 806 2897 1084 3033 
Q 1363 3169 1691 3169 
Q 2144 3169 2428 2951 
Q 2713 2734 2713 2359 
Q 2713 2203 2638 2083 
Q 2563 1963 2391 1963 
Q 2206 1963 2104 2056 
Q 2003 2150 2003 2266 
Q 2003 2406 2040 2554 
Q 2078 2703 2084 2772 
Q 2028 2869 1917 2901 
Q 1806 2934 1678 2934 
Q 1528 2934 1392 2870 
Q 1256 2806 1128 2634 
Q 1013 2478 941 2212 
Q 869 1947 869 1578 
Q 869 997 1126 630 
Q 1384 263 1803 263 
Q 2106 263 2311 409 
Q 2516 556 2691 850 
L 2891 719 
Q 2684 350 2346 134 
Q 2009 -81 1650 -81 
z
" transform="scale(0.015625)"/>
      </defs>
      <use xlink:href="#Georgia-45"/>
      <use xlink:href="#Georgia-78" x="65.332031"/>
      <use xlink:href="#Georgia-61" x="115.820312"/>
      <use xlink:href="#Georgia-63" x="166.210938"/>
      <use xlink:href="#Georgia-74" x="211.621094"/>
     </g>
    </g>
    <g id="line2d_31">
     <path d="M 582.941887 55.763125 
L 592.941887 55.763125 
L 602.941887 55.763125 
" style="fill: none; stroke: #a80000; stroke-width: 3; stroke-linecap: square"/>
    </g>
    <g id="text_17">
     <!-- 64, t=1.3 -->
     <g transform="translate(610.941887 59.263125) scale(0.1 -0.1)">
      <defs>
       <path id="Georgia-2c" d="M 1341 109 
Q 1341 -116 1239 -316 
Q 1138 -516 1006 -659 
Q 872 -809 722 -925 
Q 572 -1041 447 -1106 
L 303 -897 
Q 453 -803 572 -709 
Q 691 -616 766 -522 
Q 859 -413 925 -284 
Q 991 -156 1009 6 
L 850 6 
Q 641 6 523 115 
Q 406 225 406 409 
Q 406 541 512 664 
Q 619 788 803 788 
Q 1072 788 1206 608 
Q 1341 428 1341 109 
z
" transform="scale(0.015625)"/>
       <path id="Georgia-20" transform="scale(0.015625)"/>
       <path id="Georgia-3d" d="M 3634 2134 
L 481 2134 
L 481 2525 
L 3634 2525 
L 3634 2134 
z
M 3634 972 
L 481 972 
L 481 1363 
L 3634 1363 
L 3634 972 
z
" transform="scale(0.015625)"/>
      </defs>
      <use xlink:href="#Georgia-36"/>
      <use xlink:href="#Georgia-34" x="56.591797"/>
      <use xlink:href="#Georgia-2c" x="113.085938"/>
      <use xlink:href="#Georgia-20" x="140.039062"/>
      <use xlink:href="#Georgia-74" x="164.160156"/>
      <use xlink:href="#Georgia-3d" x="198.681641"/>
      <use xlink:href="#Georgia-31" x="262.988281"/>
      <use xlink:href="#Georgia-2e" x="305.957031"/>
      <use xlink:href="#Georgia-33" x="332.910156"/>
     </g>
    </g>
    <g id="line2d_32">
     <path d="M 582.941887 70.49125 
L 592.941887 70.49125 
L 602.941887 70.49125 
" style="fill: none; stroke: #1f77b4; stroke-width: 3; stroke-linecap: square"/>
    </g>
    <g id="text_18">
     <!-- 64, t=1.3,ggb -->
     <g transform="translate(610.941887 73.99125) scale(0.1 -0.1)">
      <defs>
       <path id="Georgia-67" d="M 2866 319 
Q 2991 200 3062 50 
Q 3134 -100 3134 -322 
Q 3134 -544 3037 -739 
Q 2941 -934 2744 -1078 
Q 2534 -1225 2243 -1306 
Q 1953 -1388 1525 -1388 
Q 825 -1388 478 -1183 
Q 131 -978 131 -584 
Q 131 -266 381 -81 
Q 631 103 1019 119 
L 1019 163 
Q 925 191 825 233 
Q 725 275 653 331 
Q 572 397 522 486 
Q 472 575 472 706 
Q 472 872 589 1011 
Q 706 1150 944 1250 
L 944 1297 
Q 644 1438 478 1658 
Q 313 1878 313 2169 
Q 313 2606 639 2887 
Q 966 3169 1475 3169 
Q 1616 3169 1755 3141 
Q 1894 3113 2038 3069 
L 3113 3069 
L 3113 2769 
L 2388 2769 
L 2388 2750 
Q 2503 2616 2559 2453 
Q 2616 2291 2616 2134 
Q 2616 1728 2286 1447 
Q 1956 1166 1519 1166 
L 1141 1166 
Q 1069 1141 991 1075 
Q 913 1009 913 897 
Q 913 781 978 720 
Q 1044 659 1138 638 
Q 1228 613 1348 606 
Q 1469 600 1597 597 
Q 1734 594 1973 578 
Q 2213 563 2313 559 
Q 2456 553 2601 490 
Q 2747 428 2866 319 
z
M 2022 2147 
Q 2022 2513 1873 2730 
Q 1725 2947 1456 2947 
Q 1309 2947 1204 2886 
Q 1100 2825 1034 2713 
Q 972 2609 945 2464 
Q 919 2319 919 2166 
Q 919 1819 1070 1600 
Q 1222 1381 1463 1381 
Q 1731 1381 1876 1598 
Q 2022 1816 2022 2147 
z
M 2622 -438 
Q 2622 -263 2540 -150 
Q 2459 -38 2294 3 
Q 2206 16 1934 31 
Q 1663 47 1303 47 
Q 966 -19 823 -173 
Q 681 -328 681 -572 
Q 681 -681 728 -781 
Q 775 -881 891 -966 
Q 1000 -1047 1184 -1098 
Q 1369 -1150 1634 -1150 
Q 2094 -1150 2358 -973 
Q 2622 -797 2622 -438 
z
" transform="scale(0.015625)"/>
       <path id="Georgia-62" d="M 3353 1544 
Q 3353 850 2915 378 
Q 2478 -94 1900 -94 
Q 1647 -94 1401 -15 
Q 1156 63 941 194 
L 709 -166 
L 516 -122 
Q 531 109 537 434 
Q 544 759 544 1063 
L 544 4113 
Q 544 4219 495 4325 
Q 447 4431 372 4478 
Q 313 4519 173 4539 
Q 34 4559 -50 4566 
L -50 4766 
L 1081 4838 
L 1125 4791 
L 1125 2759 
L 1147 2753 
Q 1341 2959 1570 3062 
Q 1800 3166 2022 3166 
Q 2591 3166 2972 2716 
Q 3353 2266 3353 1544 
z
M 2700 1522 
Q 2700 1753 2650 1993 
Q 2600 2234 2494 2413 
Q 2388 2594 2216 2706 
Q 2044 2819 1803 2819 
Q 1584 2819 1420 2733 
Q 1256 2647 1125 2500 
L 1125 706 
Q 1144 631 1198 531 
Q 1253 431 1347 341 
Q 1441 253 1559 198 
Q 1678 144 1850 144 
Q 2231 144 2465 512 
Q 2700 881 2700 1522 
z
" transform="scale(0.015625)"/>
      </defs>
      <use xlink:href="#Georgia-36"/>
      <use xlink:href="#Georgia-34" x="56.591797"/>
      <use xlink:href="#Georgia-2c" x="113.085938"/>
      <use xlink:href="#Georgia-20" x="140.039062"/>
      <use xlink:href="#Georgia-74" x="164.160156"/>
      <use xlink:href="#Georgia-3d" x="198.681641"/>
      <use xlink:href="#Georgia-31" x="262.988281"/>
      <use xlink:href="#Georgia-2e" x="305.957031"/>
      <use xlink:href="#Georgia-33" x="332.910156"/>
      <use xlink:href="#Georgia-2c" x="388.085938"/>
      <use xlink:href="#Georgia-67" x="415.039062"/>
      <use xlink:href="#Georgia-67" x="465.966797"/>
      <use xlink:href="#Georgia-62" x="516.894531"/>
     </g>
    </g>
   </g>
  </g>
  <g id="axes_2">
   <g id="patch_8">
    <path d="M 750.91637 515.7875 
L 993.59625 515.7875 
L 993.59625 13.2475 
L 750.91637 13.2475 
L 750.91637 515.7875 
z
" style="fill: none"/>
   </g>
   <g id="matplotlib.axis_3">
    <g id="xtick_8">
     <g id="line2d_33">
      <path d="M 761.947274 515.7875 
L 761.947274 13.2475 
" clip-path="url(#pa8d542de86)" style="fill: none; stroke: #b0b0b0; stroke-width: 0.8; stroke-linecap: square"/>
     </g>
     <g id="line2d_34">
      <g>
       <use xlink:href="#m1df9bf74dc" x="761.947274" y="515.7875" style="stroke: #000000; stroke-width: 0.8"/>
      </g>
     </g>
     <g id="text_19">
      <!-- 0 -->
      <g transform="translate(757.037274 534.8825) scale(0.16 -0.16)">
       <use xlink:href="#Georgia-30"/>
      </g>
     </g>
    </g>
    <g id="xtick_9">
     <g id="line2d_35">
      <path d="M 832.172187 515.7875 
L 832.172187 13.2475 
" clip-path="url(#pa8d542de86)" style="fill: none; stroke: #b0b0b0; stroke-width: 0.8; stroke-linecap: square"/>
     </g>
     <g id="line2d_36">
      <g>
       <use xlink:href="#m1df9bf74dc" x="832.172187" y="515.7875" style="stroke: #000000; stroke-width: 0.8"/>
      </g>
     </g>
     <g id="text_20">
      <!-- 2 -->
      <g transform="translate(827.703437 534.8825) scale(0.16 -0.16)">
       <use xlink:href="#Georgia-32"/>
      </g>
     </g>
    </g>
    <g id="xtick_10">
     <g id="line2d_37">
      <path d="M 902.397101 515.7875 
L 902.397101 13.2475 
" clip-path="url(#pa8d542de86)" style="fill: none; stroke: #b0b0b0; stroke-width: 0.8; stroke-linecap: square"/>
     </g>
     <g id="line2d_38">
      <g>
       <use xlink:href="#m1df9bf74dc" x="902.397101" y="515.7875" style="stroke: #000000; stroke-width: 0.8"/>
      </g>
     </g>
     <g id="text_21">
      <!-- 4 -->
      <g transform="translate(897.877101 534.8825) scale(0.16 -0.16)">
       <use xlink:href="#Georgia-34"/>
      </g>
     </g>
    </g>
    <g id="xtick_11">
     <g id="line2d_39">
      <path d="M 972.622015 515.7875 
L 972.622015 13.2475 
" clip-path="url(#pa8d542de86)" style="fill: none; stroke: #b0b0b0; stroke-width: 0.8; stroke-linecap: square"/>
     </g>
     <g id="line2d_40">
      <g>
       <use xlink:href="#m1df9bf74dc" x="972.622015" y="515.7875" style="stroke: #000000; stroke-width: 0.8"/>
      </g>
     </g>
     <g id="text_22">
      <!-- 6 -->
      <g transform="translate(968.094515 534.8825) scale(0.16 -0.16)">
       <use xlink:href="#Georgia-36"/>
      </g>
     </g>
    </g>
    <g id="text_23">
     <!-- $x$ -->
     <g transform="translate(866.25631 557.47125) scale(0.2 -0.2)">
      <use xlink:href="#DejaVuSans-Oblique-78" transform="translate(0 0.3125)"/>
     </g>
    </g>
   </g>
   <g id="matplotlib.axis_4">
    <g id="ytick_6">
     <g id="line2d_41">
      <path d="M 750.91637 515.7875 
L 993.59625 515.7875 
" clip-path="url(#pa8d542de86)" style="fill: none; stroke: #b0b0b0; stroke-width: 0.8; stroke-linecap: square"/>
     </g>
     <g id="line2d_42">
      <g>
       <use xlink:href="#m1dd96ff021" x="750.91637" y="515.7875" style="stroke: #000000; stroke-width: 0.8"/>
      </g>
     </g>
     <g id="text_24">
      <!-- $\mathdefault{10^{-7}}$ -->
      <g transform="translate(713.83637 521.835) scale(0.16 -0.16)">
       <defs>
        <path id="Georgia-37" d="M 3216 3150 
L 988 -1141 
L 597 -1141 
L 2694 2828 
L 1466 2828 
Q 1194 2828 1041 2822 
Q 888 2816 759 2763 
Q 663 2722 586 2555 
Q 509 2388 469 2128 
L 278 2128 
L 278 3353 
L 3216 3353 
L 3216 3150 
z
" transform="scale(0.015625)"/>
       </defs>
       <use xlink:href="#Georgia-31" transform="translate(0 0.628125)"/>
       <use xlink:href="#Georgia-30" transform="translate(42.96875 0.628125)"/>
       <use xlink:href="#Georgia-2212" transform="translate(105.188164 34.326563) scale(0.7)"/>
       <use xlink:href="#Georgia-37" transform="translate(150.202812 34.326563) scale(0.7)"/>
      </g>
     </g>
    </g>
    <g id="ytick_7">
     <g id="line2d_43">
      <path d="M 750.91637 443.996071 
L 993.59625 443.996071 
" clip-path="url(#pa8d542de86)" style="fill: none; stroke: #b0b0b0; stroke-width: 0.8; stroke-linecap: square"/>
     </g>
     <g id="line2d_44">
      <g>
       <use xlink:href="#m1dd96ff021" x="750.91637" y="443.996071" style="stroke: #000000; stroke-width: 0.8"/>
      </g>
     </g>
     <g id="text_25">
      <!-- $\mathdefault{10^{-6}}$ -->
      <g transform="translate(713.03637 450.043571) scale(0.16 -0.16)">
       <use xlink:href="#Georgia-31" transform="translate(0 0.601562)"/>
       <use xlink:href="#Georgia-30" transform="translate(42.96875 0.601562)"/>
       <use xlink:href="#Georgia-2212" transform="translate(105.188164 34.3) scale(0.7)"/>
       <use xlink:href="#Georgia-36" transform="translate(150.202812 34.3) scale(0.7)"/>
      </g>
     </g>
    </g>
    <g id="ytick_8">
     <g id="line2d_45">
      <path d="M 750.91637 372.204643 
L 993.59625 372.204643 
" clip-path="url(#pa8d542de86)" style="fill: none; stroke: #b0b0b0; stroke-width: 0.8; stroke-linecap: square"/>
     </g>
     <g id="line2d_46">
      <g>
       <use xlink:href="#m1dd96ff021" x="750.91637" y="372.204643" style="stroke: #000000; stroke-width: 0.8"/>
      </g>
     </g>
     <g id="text_26">
      <!-- $\mathdefault{10^{-5}}$ -->
      <g transform="translate(713.51637 378.252143) scale(0.16 -0.16)">
       <use xlink:href="#Georgia-31" transform="translate(0 0.628125)"/>
       <use xlink:href="#Georgia-30" transform="translate(42.96875 0.628125)"/>
       <use xlink:href="#Georgia-2212" transform="translate(105.188164 34.326563) scale(0.7)"/>
       <use xlink:href="#Georgia-35" transform="translate(150.202812 34.326563) scale(0.7)"/>
      </g>
     </g>
    </g>
    <g id="ytick_9">
     <g id="line2d_47">
      <path d="M 750.91637 300.413214 
L 993.59625 300.413214 
" clip-path="url(#pa8d542de86)" style="fill: none; stroke: #b0b0b0; stroke-width: 0.8; stroke-linecap: square"/>
     </g>
     <g id="line2d_48">
      <g>
       <use xlink:href="#m1dd96ff021" x="750.91637" y="300.413214" style="stroke: #000000; stroke-width: 0.8"/>
      </g>
     </g>
     <g id="text_27">
      <!-- $\mathdefault{10^{-4}}$ -->
      <g transform="translate(713.03637 306.460714) scale(0.16 -0.16)">
       <use xlink:href="#Georgia-31" transform="translate(0 0.742188)"/>
       <use xlink:href="#Georgia-30" transform="translate(42.96875 0.742188)"/>
       <use xlink:href="#Georgia-2212" transform="translate(105.188164 34.440625) scale(0.7)"/>
       <use xlink:href="#Georgia-34" transform="translate(150.202812 34.440625) scale(0.7)"/>
      </g>
     </g>
    </g>
    <g id="ytick_10">
     <g id="line2d_49">
      <path d="M 750.91637 228.621786 
L 993.59625 228.621786 
" clip-path="url(#pa8d542de86)" style="fill: none; stroke: #b0b0b0; stroke-width: 0.8; stroke-linecap: square"/>
     </g>
     <g id="line2d_50">
      <g>
       <use xlink:href="#m1dd96ff021" x="750.91637" y="228.621786" style="stroke: #000000; stroke-width: 0.8"/>
      </g>
     </g>
     <g id="text_28">
      <!-- $\mathdefault{10^{-3}}$ -->
      <g transform="translate(713.19637 234.669286) scale(0.16 -0.16)">
       <use xlink:href="#Georgia-31" transform="translate(0 0.534375)"/>
       <use xlink:href="#Georgia-30" transform="translate(42.96875 0.534375)"/>
       <use xlink:href="#Georgia-2212" transform="translate(105.188164 34.232813) scale(0.7)"/>
       <use xlink:href="#Georgia-33" transform="translate(150.202812 34.232813) scale(0.7)"/>
      </g>
     </g>
    </g>
    <g id="ytick_11">
     <g id="line2d_51">
      <path d="M 750.91637 156.830357 
L 993.59625 156.830357 
" clip-path="url(#pa8d542de86)" style="fill: none; stroke: #b0b0b0; stroke-width: 0.8; stroke-linecap: square"/>
     </g>
     <g id="line2d_52">
      <g>
       <use xlink:href="#m1dd96ff021" x="750.91637" y="156.830357" style="stroke: #000000; stroke-width: 0.8"/>
      </g>
     </g>
     <g id="text_29">
      <!-- $\mathdefault{10^{-2}}$ -->
      <g transform="translate(713.19637 162.877857) scale(0.16 -0.16)">
       <use xlink:href="#Georgia-31" transform="translate(0 0.534375)"/>
       <use xlink:href="#Georgia-30" transform="translate(42.96875 0.534375)"/>
       <use xlink:href="#Georgia-2212" transform="translate(105.188164 34.232813) scale(0.7)"/>
       <use xlink:href="#Georgia-32" transform="translate(150.202812 34.232813) scale(0.7)"/>
      </g>
     </g>
    </g>
    <g id="ytick_12">
     <g id="line2d_53">
      <path d="M 750.91637 85.038929 
L 993.59625 85.038929 
" clip-path="url(#pa8d542de86)" style="fill: none; stroke: #b0b0b0; stroke-width: 0.8; stroke-linecap: square"/>
     </g>
     <g id="line2d_54">
      <g>
       <use xlink:href="#m1dd96ff021" x="750.91637" y="85.038929" style="stroke: #000000; stroke-width: 0.8"/>
      </g>
     </g>
     <g id="text_30">
      <!-- $\mathdefault{10^{-1}}$ -->
      <g transform="translate(714.63637 91.086429) scale(0.16 -0.16)">
       <use xlink:href="#Georgia-31" transform="translate(0 0.534375)"/>
       <use xlink:href="#Georgia-30" transform="translate(42.96875 0.534375)"/>
       <use xlink:href="#Georgia-2212" transform="translate(105.188164 34.232813) scale(0.7)"/>
       <use xlink:href="#Georgia-31" transform="translate(150.202812 34.232813) scale(0.7)"/>
      </g>
     </g>
    </g>
    <g id="ytick_13">
     <g id="line2d_55">
      <path d="M 750.91637 13.2475 
L 993.59625 13.2475 
" clip-path="url(#pa8d542de86)" style="fill: none; stroke: #b0b0b0; stroke-width: 0.8; stroke-linecap: square"/>
     </g>
     <g id="line2d_56">
      <g>
       <use xlink:href="#m1dd96ff021" x="750.91637" y="13.2475" style="stroke: #000000; stroke-width: 0.8"/>
      </g>
     </g>
     <g id="text_31">
      <!-- $\mathdefault{10^{0}}$ -->
      <g transform="translate(719.75637 19.295) scale(0.16 -0.16)">
       <use xlink:href="#Georgia-31" transform="translate(0 0.534375)"/>
       <use xlink:href="#Georgia-30" transform="translate(42.96875 0.534375)"/>
       <use xlink:href="#Georgia-30" transform="translate(105.188164 34.232813) scale(0.7)"/>
      </g>
     </g>
    </g>
    <g id="ytick_14">
     <g id="line2d_57">
      <defs>
       <path id="m44576f2dce" d="M 0 0 
L -2 0 
" style="stroke: #000000; stroke-width: 0.6"/>
      </defs>
      <g>
       <use xlink:href="#m44576f2dce" x="750.91637" y="494.176127" style="stroke: #000000; stroke-width: 0.6"/>
      </g>
     </g>
    </g>
    <g id="ytick_15">
     <g id="line2d_58">
      <g>
       <use xlink:href="#m44576f2dce" x="750.91637" y="481.534284" style="stroke: #000000; stroke-width: 0.6"/>
      </g>
     </g>
    </g>
    <g id="ytick_16">
     <g id="line2d_59">
      <g>
       <use xlink:href="#m44576f2dce" x="750.91637" y="472.564753" style="stroke: #000000; stroke-width: 0.6"/>
      </g>
     </g>
    </g>
    <g id="ytick_17">
     <g id="line2d_60">
      <g>
       <use xlink:href="#m44576f2dce" x="750.91637" y="465.607445" style="stroke: #000000; stroke-width: 0.6"/>
      </g>
     </g>
    </g>
    <g id="ytick_18">
     <g id="line2d_61">
      <g>
       <use xlink:href="#m44576f2dce" x="750.91637" y="459.92291" style="stroke: #000000; stroke-width: 0.6"/>
      </g>
     </g>
    </g>
    <g id="ytick_19">
     <g id="line2d_62">
      <g>
       <use xlink:href="#m44576f2dce" x="750.91637" y="455.116704" style="stroke: #000000; stroke-width: 0.6"/>
      </g>
     </g>
    </g>
    <g id="ytick_20">
     <g id="line2d_63">
      <g>
       <use xlink:href="#m44576f2dce" x="750.91637" y="450.95338" style="stroke: #000000; stroke-width: 0.6"/>
      </g>
     </g>
    </g>
    <g id="ytick_21">
     <g id="line2d_64">
      <g>
       <use xlink:href="#m44576f2dce" x="750.91637" y="447.281067" style="stroke: #000000; stroke-width: 0.6"/>
      </g>
     </g>
    </g>
    <g id="ytick_22">
     <g id="line2d_65">
      <g>
       <use xlink:href="#m44576f2dce" x="750.91637" y="422.384698" style="stroke: #000000; stroke-width: 0.6"/>
      </g>
     </g>
    </g>
    <g id="ytick_23">
     <g id="line2d_66">
      <g>
       <use xlink:href="#m44576f2dce" x="750.91637" y="409.742855" style="stroke: #000000; stroke-width: 0.6"/>
      </g>
     </g>
    </g>
    <g id="ytick_24">
     <g id="line2d_67">
      <g>
       <use xlink:href="#m44576f2dce" x="750.91637" y="400.773325" style="stroke: #000000; stroke-width: 0.6"/>
      </g>
     </g>
    </g>
    <g id="ytick_25">
     <g id="line2d_68">
      <g>
       <use xlink:href="#m44576f2dce" x="750.91637" y="393.816016" style="stroke: #000000; stroke-width: 0.6"/>
      </g>
     </g>
    </g>
    <g id="ytick_26">
     <g id="line2d_69">
      <g>
       <use xlink:href="#m44576f2dce" x="750.91637" y="388.131482" style="stroke: #000000; stroke-width: 0.6"/>
      </g>
     </g>
    </g>
    <g id="ytick_27">
     <g id="line2d_70">
      <g>
       <use xlink:href="#m44576f2dce" x="750.91637" y="383.325276" style="stroke: #000000; stroke-width: 0.6"/>
      </g>
     </g>
    </g>
    <g id="ytick_28">
     <g id="line2d_71">
      <g>
       <use xlink:href="#m44576f2dce" x="750.91637" y="379.161951" style="stroke: #000000; stroke-width: 0.6"/>
      </g>
     </g>
    </g>
    <g id="ytick_29">
     <g id="line2d_72">
      <g>
       <use xlink:href="#m44576f2dce" x="750.91637" y="375.489638" style="stroke: #000000; stroke-width: 0.6"/>
      </g>
     </g>
    </g>
    <g id="ytick_30">
     <g id="line2d_73">
      <g>
       <use xlink:href="#m44576f2dce" x="750.91637" y="350.593269" style="stroke: #000000; stroke-width: 0.6"/>
      </g>
     </g>
    </g>
    <g id="ytick_31">
     <g id="line2d_74">
      <g>
       <use xlink:href="#m44576f2dce" x="750.91637" y="337.951426" style="stroke: #000000; stroke-width: 0.6"/>
      </g>
     </g>
    </g>
    <g id="ytick_32">
     <g id="line2d_75">
      <g>
       <use xlink:href="#m44576f2dce" x="750.91637" y="328.981896" style="stroke: #000000; stroke-width: 0.6"/>
      </g>
     </g>
    </g>
    <g id="ytick_33">
     <g id="line2d_76">
      <g>
       <use xlink:href="#m44576f2dce" x="750.91637" y="322.024588" style="stroke: #000000; stroke-width: 0.6"/>
      </g>
     </g>
    </g>
    <g id="ytick_34">
     <g id="line2d_77">
      <g>
       <use xlink:href="#m44576f2dce" x="750.91637" y="316.340053" style="stroke: #000000; stroke-width: 0.6"/>
      </g>
     </g>
    </g>
    <g id="ytick_35">
     <g id="line2d_78">
      <g>
       <use xlink:href="#m44576f2dce" x="750.91637" y="311.533847" style="stroke: #000000; stroke-width: 0.6"/>
      </g>
     </g>
    </g>
    <g id="ytick_36">
     <g id="line2d_79">
      <g>
       <use xlink:href="#m44576f2dce" x="750.91637" y="307.370523" style="stroke: #000000; stroke-width: 0.6"/>
      </g>
     </g>
    </g>
    <g id="ytick_37">
     <g id="line2d_80">
      <g>
       <use xlink:href="#m44576f2dce" x="750.91637" y="303.69821" style="stroke: #000000; stroke-width: 0.6"/>
      </g>
     </g>
    </g>
    <g id="ytick_38">
     <g id="line2d_81">
      <g>
       <use xlink:href="#m44576f2dce" x="750.91637" y="278.801841" style="stroke: #000000; stroke-width: 0.6"/>
      </g>
     </g>
    </g>
    <g id="ytick_39">
     <g id="line2d_82">
      <g>
       <use xlink:href="#m44576f2dce" x="750.91637" y="266.159998" style="stroke: #000000; stroke-width: 0.6"/>
      </g>
     </g>
    </g>
    <g id="ytick_40">
     <g id="line2d_83">
      <g>
       <use xlink:href="#m44576f2dce" x="750.91637" y="257.190467" style="stroke: #000000; stroke-width: 0.6"/>
      </g>
     </g>
    </g>
    <g id="ytick_41">
     <g id="line2d_84">
      <g>
       <use xlink:href="#m44576f2dce" x="750.91637" y="250.233159" style="stroke: #000000; stroke-width: 0.6"/>
      </g>
     </g>
    </g>
    <g id="ytick_42">
     <g id="line2d_85">
      <g>
       <use xlink:href="#m44576f2dce" x="750.91637" y="244.548624" style="stroke: #000000; stroke-width: 0.6"/>
      </g>
     </g>
    </g>
    <g id="ytick_43">
     <g id="line2d_86">
      <g>
       <use xlink:href="#m44576f2dce" x="750.91637" y="239.742419" style="stroke: #000000; stroke-width: 0.6"/>
      </g>
     </g>
    </g>
    <g id="ytick_44">
     <g id="line2d_87">
      <g>
       <use xlink:href="#m44576f2dce" x="750.91637" y="235.579094" style="stroke: #000000; stroke-width: 0.6"/>
      </g>
     </g>
    </g>
    <g id="ytick_45">
     <g id="line2d_88">
      <g>
       <use xlink:href="#m44576f2dce" x="750.91637" y="231.906781" style="stroke: #000000; stroke-width: 0.6"/>
      </g>
     </g>
    </g>
    <g id="ytick_46">
     <g id="line2d_89">
      <g>
       <use xlink:href="#m44576f2dce" x="750.91637" y="207.010412" style="stroke: #000000; stroke-width: 0.6"/>
      </g>
     </g>
    </g>
    <g id="ytick_47">
     <g id="line2d_90">
      <g>
       <use xlink:href="#m44576f2dce" x="750.91637" y="194.368569" style="stroke: #000000; stroke-width: 0.6"/>
      </g>
     </g>
    </g>
    <g id="ytick_48">
     <g id="line2d_91">
      <g>
       <use xlink:href="#m44576f2dce" x="750.91637" y="185.399039" style="stroke: #000000; stroke-width: 0.6"/>
      </g>
     </g>
    </g>
    <g id="ytick_49">
     <g id="line2d_92">
      <g>
       <use xlink:href="#m44576f2dce" x="750.91637" y="178.441731" style="stroke: #000000; stroke-width: 0.6"/>
      </g>
     </g>
    </g>
    <g id="ytick_50">
     <g id="line2d_93">
      <g>
       <use xlink:href="#m44576f2dce" x="750.91637" y="172.757196" style="stroke: #000000; stroke-width: 0.6"/>
      </g>
     </g>
    </g>
    <g id="ytick_51">
     <g id="line2d_94">
      <g>
       <use xlink:href="#m44576f2dce" x="750.91637" y="167.95099" style="stroke: #000000; stroke-width: 0.6"/>
      </g>
     </g>
    </g>
    <g id="ytick_52">
     <g id="line2d_95">
      <g>
       <use xlink:href="#m44576f2dce" x="750.91637" y="163.787665" style="stroke: #000000; stroke-width: 0.6"/>
      </g>
     </g>
    </g>
    <g id="ytick_53">
     <g id="line2d_96">
      <g>
       <use xlink:href="#m44576f2dce" x="750.91637" y="160.115353" style="stroke: #000000; stroke-width: 0.6"/>
      </g>
     </g>
    </g>
    <g id="ytick_54">
     <g id="line2d_97">
      <g>
       <use xlink:href="#m44576f2dce" x="750.91637" y="135.218984" style="stroke: #000000; stroke-width: 0.6"/>
      </g>
     </g>
    </g>
    <g id="ytick_55">
     <g id="line2d_98">
      <g>
       <use xlink:href="#m44576f2dce" x="750.91637" y="122.577141" style="stroke: #000000; stroke-width: 0.6"/>
      </g>
     </g>
    </g>
    <g id="ytick_56">
     <g id="line2d_99">
      <g>
       <use xlink:href="#m44576f2dce" x="750.91637" y="113.60761" style="stroke: #000000; stroke-width: 0.6"/>
      </g>
     </g>
    </g>
    <g id="ytick_57">
     <g id="line2d_100">
      <g>
       <use xlink:href="#m44576f2dce" x="750.91637" y="106.650302" style="stroke: #000000; stroke-width: 0.6"/>
      </g>
     </g>
    </g>
    <g id="ytick_58">
     <g id="line2d_101">
      <g>
       <use xlink:href="#m44576f2dce" x="750.91637" y="100.965767" style="stroke: #000000; stroke-width: 0.6"/>
      </g>
     </g>
    </g>
    <g id="ytick_59">
     <g id="line2d_102">
      <g>
       <use xlink:href="#m44576f2dce" x="750.91637" y="96.159562" style="stroke: #000000; stroke-width: 0.6"/>
      </g>
     </g>
    </g>
    <g id="ytick_60">
     <g id="line2d_103">
      <g>
       <use xlink:href="#m44576f2dce" x="750.91637" y="91.996237" style="stroke: #000000; stroke-width: 0.6"/>
      </g>
     </g>
    </g>
    <g id="ytick_61">
     <g id="line2d_104">
      <g>
       <use xlink:href="#m44576f2dce" x="750.91637" y="88.323924" style="stroke: #000000; stroke-width: 0.6"/>
      </g>
     </g>
    </g>
    <g id="ytick_62">
     <g id="line2d_105">
      <g>
       <use xlink:href="#m44576f2dce" x="750.91637" y="63.427555" style="stroke: #000000; stroke-width: 0.6"/>
      </g>
     </g>
    </g>
    <g id="ytick_63">
     <g id="line2d_106">
      <g>
       <use xlink:href="#m44576f2dce" x="750.91637" y="50.785712" style="stroke: #000000; stroke-width: 0.6"/>
      </g>
     </g>
    </g>
    <g id="ytick_64">
     <g id="line2d_107">
      <g>
       <use xlink:href="#m44576f2dce" x="750.91637" y="41.816182" style="stroke: #000000; stroke-width: 0.6"/>
      </g>
     </g>
    </g>
    <g id="ytick_65">
     <g id="line2d_108">
      <g>
       <use xlink:href="#m44576f2dce" x="750.91637" y="34.858873" style="stroke: #000000; stroke-width: 0.6"/>
      </g>
     </g>
    </g>
    <g id="ytick_66">
     <g id="line2d_109">
      <g>
       <use xlink:href="#m44576f2dce" x="750.91637" y="29.174339" style="stroke: #000000; stroke-width: 0.6"/>
      </g>
     </g>
    </g>
    <g id="ytick_67">
     <g id="line2d_110">
      <g>
       <use xlink:href="#m44576f2dce" x="750.91637" y="24.368133" style="stroke: #000000; stroke-width: 0.6"/>
      </g>
     </g>
    </g>
    <g id="ytick_68">
     <g id="line2d_111">
      <g>
       <use xlink:href="#m44576f2dce" x="750.91637" y="20.204808" style="stroke: #000000; stroke-width: 0.6"/>
      </g>
     </g>
    </g>
    <g id="ytick_69">
     <g id="line2d_112">
      <g>
       <use xlink:href="#m44576f2dce" x="750.91637" y="16.532496" style="stroke: #000000; stroke-width: 0.6"/>
      </g>
     </g>
    </g>
    <g id="text_32">
     <!-- $|y-y_{exact}|$ -->
     <g transform="translate(704.23637 315.0175) rotate(-90) scale(0.2 -0.2)">
      <defs>
       <path id="DejaVuSans-7c" d="M 1344 4891 
L 1344 -1509 
L 813 -1509 
L 813 4891 
L 1344 4891 
z
" transform="scale(0.015625)"/>
       <path id="DejaVuSans-2212" d="M 678 2272 
L 4684 2272 
L 4684 1741 
L 678 1741 
L 678 2272 
z
" transform="scale(0.015625)"/>
       <path id="DejaVuSans-Oblique-65" d="M 3078 2063 
Q 3088 2113 3092 2166 
Q 3097 2219 3097 2272 
Q 3097 2653 2873 2875 
Q 2650 3097 2266 3097 
Q 1838 3097 1509 2826 
Q 1181 2556 1013 2059 
L 3078 2063 
z
M 3578 1613 
L 903 1613 
Q 884 1494 878 1425 
Q 872 1356 872 1306 
Q 872 872 1139 634 
Q 1406 397 1894 397 
Q 2269 397 2603 481 
Q 2938 566 3225 728 
L 3116 159 
Q 2806 34 2476 -28 
Q 2147 -91 1806 -91 
Q 1078 -91 686 257 
Q 294 606 294 1247 
Q 294 1794 489 2264 
Q 684 2734 1063 3103 
Q 1306 3334 1642 3459 
Q 1978 3584 2356 3584 
Q 2950 3584 3301 3228 
Q 3653 2872 3653 2272 
Q 3653 2128 3634 1964 
Q 3616 1800 3578 1613 
z
" transform="scale(0.015625)"/>
       <path id="DejaVuSans-Oblique-61" d="M 3438 1997 
L 3047 0 
L 2472 0 
L 2578 531 
Q 2325 219 2001 64 
Q 1678 -91 1281 -91 
Q 834 -91 548 182 
Q 263 456 263 884 
Q 263 1497 752 1853 
Q 1241 2209 2100 2209 
L 2900 2209 
L 2931 2363 
Q 2938 2388 2941 2417 
Q 2944 2447 2944 2509 
Q 2944 2788 2717 2942 
Q 2491 3097 2081 3097 
Q 1800 3097 1504 3025 
Q 1209 2953 897 2809 
L 997 3341 
Q 1322 3463 1633 3523 
Q 1944 3584 2234 3584 
Q 2853 3584 3176 3315 
Q 3500 3047 3500 2534 
Q 3500 2431 3484 2292 
Q 3469 2153 3438 1997 
z
M 2816 1759 
L 2241 1759 
Q 1534 1759 1195 1570 
Q 856 1381 856 984 
Q 856 709 1029 553 
Q 1203 397 1509 397 
Q 1978 397 2328 733 
Q 2678 1069 2791 1631 
L 2816 1759 
z
" transform="scale(0.015625)"/>
       <path id="DejaVuSans-Oblique-63" d="M 3431 3366 
L 3316 2797 
Q 3109 2947 2876 3022 
Q 2644 3097 2394 3097 
Q 2119 3097 1870 3000 
Q 1622 2903 1453 2725 
Q 1184 2453 1037 2087 
Q 891 1722 891 1331 
Q 891 859 1127 628 
Q 1363 397 1844 397 
Q 2081 397 2348 469 
Q 2616 541 2906 684 
L 2797 116 
Q 2547 13 2283 -39 
Q 2019 -91 1741 -91 
Q 1044 -91 669 257 
Q 294 606 294 1253 
Q 294 1797 489 2255 
Q 684 2713 1069 3078 
Q 1331 3328 1684 3456 
Q 2038 3584 2456 3584 
Q 2700 3584 2940 3529 
Q 3181 3475 3431 3366 
z
" transform="scale(0.015625)"/>
       <path id="DejaVuSans-Oblique-74" d="M 2706 3500 
L 2619 3053 
L 1472 3053 
L 1100 1153 
Q 1081 1047 1072 975 
Q 1063 903 1063 863 
Q 1063 663 1183 572 
Q 1303 481 1569 481 
L 2150 481 
L 2053 0 
L 1503 0 
Q 991 0 739 200 
Q 488 400 488 806 
Q 488 878 497 964 
Q 506 1050 525 1153 
L 897 3053 
L 409 3053 
L 500 3500 
L 978 3500 
L 1172 4494 
L 1747 4494 
L 1556 3500 
L 2706 3500 
z
" transform="scale(0.015625)"/>
      </defs>
      <use xlink:href="#DejaVuSans-7c" transform="translate(0 0.578125)"/>
      <use xlink:href="#DejaVuSans-Oblique-79" transform="translate(33.691406 0.578125)"/>
      <use xlink:href="#DejaVuSans-2212" transform="translate(112.353516 0.578125)"/>
      <use xlink:href="#DejaVuSans-Oblique-79" transform="translate(215.625 0.578125)"/>
      <use xlink:href="#DejaVuSans-Oblique-65" transform="translate(274.804688 -15.828125) scale(0.7)"/>
      <use xlink:href="#DejaVuSans-Oblique-78" transform="translate(317.871094 -15.828125) scale(0.7)"/>
      <use xlink:href="#DejaVuSans-Oblique-61" transform="translate(359.296875 -15.828125) scale(0.7)"/>
      <use xlink:href="#DejaVuSans-Oblique-63" transform="translate(402.192383 -15.828125) scale(0.7)"/>
      <use xlink:href="#DejaVuSans-Oblique-74" transform="translate(440.678711 -15.828125) scale(0.7)"/>
      <use xlink:href="#DejaVuSans-7c" transform="translate(470.859375 0.578125)"/>
     </g>
    </g>
   </g>
   <g id="line2d_113">
    <path d="M 763.219026 570.00875 
L 764.175739 155.058479 
L 766.404205 161.75473 
L 768.63267 109.413682 
L 770.861135 130.76077 
L 773.089601 110.373581 
L 775.318066 104.73183 
L 777.546531 101.314892 
L 779.774997 96.927521 
L 782.003462 123.169806 
L 784.231928 86.485765 
L 786.460393 97.738868 
L 788.688858 162.289208 
L 790.917324 81.172043 
L 793.145789 109.297652 
L 795.374255 113.01223 
L 797.60272 81.53822 
L 799.831185 133.369573 
L 802.059651 100.844911 
L 804.288116 84.59721 
L 806.516581 219.476827 
L 808.745047 96.02748 
L 810.973512 88.15768 
L 813.201978 148.100449 
L 815.430443 93.196489 
L 817.658908 91.276137 
L 819.887374 127.494578 
L 822.115839 90.591842 
L 824.344304 94.124341 
L 826.57277 114.852465 
L 828.801235 87.906106 
L 831.029701 97.29225 
L 833.258166 104.930691 
L 835.486631 85.198241 
L 837.715097 101.365821 
L 839.943562 96.466522 
L 842.172027 82.400689 
L 844.400493 107.029576 
L 846.628958 88.82003 
L 848.857424 79.169869 
L 851.085889 115.686297 
L 853.314354 81.370614 
L 855.54282 74.708233 
L 857.771285 132.053243 
L 859.999751 73.143932 
L 862.228216 67.091843 
L 864.456681 208.363066 
L 866.685147 61.38802 
L 868.913612 49.432874 
L 871.142077 91.62962 
L 873.370543 91.62962 
L 875.599008 49.432874 
L 877.827474 61.38802 
L 880.055939 208.363066 
L 882.284404 67.091843 
L 884.51287 73.143932 
L 886.741335 132.053243 
L 888.9698 74.708233 
L 891.198266 81.370614 
L 893.426731 115.686297 
L 895.655197 79.169869 
L 897.883662 88.82003 
L 900.112127 107.029576 
L 902.340593 82.400689 
L 904.569058 96.466522 
L 906.797523 101.365821 
L 909.025989 85.198241 
L 911.254454 104.930691 
L 913.48292 97.29225 
L 915.711385 87.906106 
L 917.93985 114.852465 
L 920.168316 94.124341 
L 922.396781 90.591842 
L 924.625247 127.494578 
L 926.853712 91.276137 
L 929.082177 93.196489 
L 931.310643 148.100449 
L 933.539108 88.15768 
L 935.767573 96.02748 
L 937.996039 219.476827 
L 940.224504 84.59721 
L 942.45297 100.844911 
L 944.681435 133.369573 
L 946.9099 81.53822 
L 949.138366 113.01223 
L 951.366831 109.297652 
L 953.595296 81.172043 
L 955.823762 162.289208 
L 958.052227 97.738868 
L 960.280693 86.485765 
L 962.509158 123.169806 
L 964.737623 96.927521 
L 966.966089 101.314892 
L 969.194554 104.73183 
L 971.423019 110.373581 
L 973.651485 130.76077 
L 975.87995 109.413682 
L 978.108416 161.75473 
L 980.336881 155.058479 
L 981.331394 570.00875 
" clip-path="url(#pa8d542de86)" style="fill: none; stroke: #a80000; stroke-width: 3; stroke-linecap: square"/>
   </g>
   <g id="line2d_114">
    <path d="M 761.947274 147.811048 
L 764.175739 137.534874 
L 766.404205 140.312591 
L 768.63267 142.354603 
L 770.861135 143.693614 
L 773.089601 144.073398 
L 775.318066 144.306436 
L 777.546531 144.478638 
L 779.774997 144.716359 
L 782.003462 145.136796 
L 784.231928 145.766748 
L 786.460393 146.580291 
L 788.688858 147.58468 
L 790.917324 148.781015 
L 793.145789 149.996678 
L 795.374255 151.379909 
L 797.60272 152.794912 
L 799.831185 154.102227 
L 802.059651 155.568696 
L 804.288116 156.848732 
L 806.516581 158.016962 
L 808.745047 159.381707 
L 810.973512 160.323589 
L 813.201978 161.275743 
L 815.430443 162.524066 
L 817.658908 163.050208 
L 819.887374 163.822809 
L 822.115839 164.867192 
L 824.344304 165.092667 
L 826.57277 165.765635 
L 828.801235 166.5451 
L 831.029701 166.575446 
L 833.258166 167.298598 
L 835.486631 167.831547 
L 837.715097 167.856006 
L 839.943562 169.006324 
L 842.172027 169.461047 
L 844.400493 169.936322 
L 846.628958 172.434269 
L 848.857424 173.152086 
L 851.085889 175.124286 
L 853.314354 181.869746 
L 855.54282 183.776068 
L 857.771285 192.772912 
L 859.999751 229.566942 
L 862.228216 242.151366 
L 864.456681 179.157415 
L 866.685147 148.931824 
L 868.913612 126.549668 
L 871.142077 54.104114 
L 873.370543 54.104114 
L 875.599008 126.549668 
L 877.827474 148.931824 
L 880.055939 179.157415 
L 882.284404 242.151366 
L 884.51287 229.566942 
L 886.741335 192.772912 
L 888.9698 183.776068 
L 891.198266 181.869746 
L 893.426731 175.124286 
L 895.655197 173.152086 
L 897.883662 172.434269 
L 900.112127 169.936322 
L 902.340593 169.461047 
L 904.569058 169.006324 
L 906.797523 167.856006 
L 909.025989 167.831547 
L 911.254454 167.298598 
L 913.48292 166.575446 
L 915.711385 166.5451 
L 917.93985 165.765635 
L 920.168316 165.092667 
L 922.396781 164.867192 
L 924.625247 163.822809 
L 926.853712 163.050208 
L 929.082177 162.524066 
L 931.310643 161.275743 
L 933.539108 160.323589 
L 935.767573 159.381707 
L 937.996039 158.016962 
L 940.224504 156.848732 
L 942.45297 155.568696 
L 944.681435 154.102227 
L 946.9099 152.794912 
L 949.138366 151.379909 
L 951.366831 149.996678 
L 953.595296 148.781015 
L 955.823762 147.58468 
L 958.052227 146.580291 
L 960.280693 145.766748 
L 962.509158 145.136796 
L 964.737623 144.716359 
L 966.966089 144.478638 
L 969.194554 144.306436 
L 971.423019 144.073398 
L 973.651485 143.693614 
L 975.87995 142.354603 
L 978.108416 140.312591 
L 980.336881 137.534874 
L 982.565346 147.811048 
" clip-path="url(#pa8d542de86)" style="fill: none; stroke: #1f77b4; stroke-width: 3; stroke-linecap: square"/>
   </g>
   <g id="patch_9">
    <path d="M 750.91637 515.7875 
L 750.91637 13.2475 
" style="fill: none; stroke: #000000; stroke-width: 1.5; stroke-linejoin: miter; stroke-linecap: square"/>
   </g>
   <g id="patch_10">
    <path d="M 993.59625 515.7875 
L 993.59625 13.2475 
" style="fill: none; stroke: #000000; stroke-width: 1.5; stroke-linejoin: miter; stroke-linecap: square"/>
   </g>
   <g id="patch_11">
    <path d="M 750.91637 515.7875 
L 993.59625 515.7875 
" style="fill: none; stroke: #000000; stroke-width: 1.5; stroke-linejoin: miter; stroke-linecap: square"/>
   </g>
   <g id="patch_12">
    <path d="M 750.91637 13.2475 
L 993.59625 13.2475 
" style="fill: none; stroke: #000000; stroke-width: 1.5; stroke-linejoin: miter; stroke-linecap: square"/>
   </g>
   <g id="legend_2">
    <g id="patch_13">
     <path d="M 897.307188 50.70375 
L 986.59625 50.70375 
Q 988.59625 50.70375 988.59625 48.70375 
L 988.59625 20.2475 
Q 988.59625 18.2475 986.59625 18.2475 
L 897.307188 18.2475 
Q 895.307188 18.2475 895.307188 20.2475 
L 895.307188 48.70375 
Q 895.307188 50.70375 897.307188 50.70375 
z
" style="fill: #ffffff; opacity: 0.8; stroke: #cccccc; stroke-linejoin: miter"/>
    </g>
    <g id="line2d_115">
     <path d="M 899.307188 26.306875 
L 909.307188 26.306875 
L 919.307188 26.306875 
" style="fill: none; stroke: #a80000; stroke-width: 3; stroke-linecap: square"/>
    </g>
    <g id="text_33">
     <!-- 64, t=1.3 -->
     <g transform="translate(927.307188 29.806875) scale(0.1 -0.1)">
      <use xlink:href="#Georgia-36"/>
      <use xlink:href="#Georgia-34" x="56.591797"/>
      <use xlink:href="#Georgia-2c" x="113.085938"/>
      <use xlink:href="#Georgia-20" x="140.039062"/>
      <use xlink:href="#Georgia-74" x="164.160156"/>
      <use xlink:href="#Georgia-3d" x="198.681641"/>
      <use xlink:href="#Georgia-31" x="262.988281"/>
      <use xlink:href="#Georgia-2e" x="305.957031"/>
      <use xlink:href="#Georgia-33" x="332.910156"/>
     </g>
    </g>
    <g id="line2d_116">
     <path d="M 899.307188 41.035 
L 909.307188 41.035 
L 919.307188 41.035 
" style="fill: none; stroke: #1f77b4; stroke-width: 3; stroke-linecap: square"/>
    </g>
    <g id="text_34">
     <!-- 64, t=1.3,ggb -->
     <g transform="translate(927.307188 44.535) scale(0.1 -0.1)">
      <use xlink:href="#Georgia-36"/>
      <use xlink:href="#Georgia-34" x="56.591797"/>
      <use xlink:href="#Georgia-2c" x="113.085938"/>
      <use xlink:href="#Georgia-20" x="140.039062"/>
      <use xlink:href="#Georgia-74" x="164.160156"/>
      <use xlink:href="#Georgia-3d" x="198.681641"/>
      <use xlink:href="#Georgia-31" x="262.988281"/>
      <use xlink:href="#Georgia-2e" x="305.957031"/>
      <use xlink:href="#Georgia-33" x="332.910156"/>
      <use xlink:href="#Georgia-2c" x="388.085938"/>
      <use xlink:href="#Georgia-67" x="415.039062"/>
      <use xlink:href="#Georgia-67" x="465.966797"/>
      <use xlink:href="#Georgia-62" x="516.894531"/>
     </g>
    </g>
   </g>
  </g>
 </g>
 <defs>
  <clipPath id="pfa21ad5319">
   <rect x="70.53125" y="13.2475" width="606.6997" height="502.54"/>
  </clipPath>
  <clipPath id="pa8d542de86">
   <rect x="750.91637" y="13.2475" width="242.67988" height="502.54"/>
  </clipPath>
 </defs>
</svg>
