<?xml version="1.0" encoding="utf-8" standalone="no"?>
<!DOCTYPE svg PUBLIC "-//W3C//DTD SVG 1.1//EN"
  "http://www.w3.org/Graphics/SVG/1.1/DTD/svg11.dtd">
<svg xmlns:xlink="http://www.w3.org/1999/xlink" width="1000.78375pt" height="568.90125pt" viewBox="0 0 1000.78375 568.90125" xmlns="http://www.w3.org/2000/svg" version="1.1">
 <metadata>
  <rdf:RDF xmlns:dc="http://purl.org/dc/elements/1.1/" xmlns:cc="http://creativecommons.org/ns#" xmlns:rdf="http://www.w3.org/1999/02/22-rdf-syntax-ns#">
   <cc:Work>
    <dc:type rdf:resource="http://purl.org/dc/dcmitype/StillImage"/>
    <dc:date>2023-11-29T02:31:40.247053</dc:date>
    <dc:format>image/svg+xml</dc:format>
    <dc:creator>
     <cc:Agent>
      <dc:title>Matplotlib v3.6.2, https://matplotlib.org/</dc:title>
     </cc:Agent>
    </dc:creator>
   </cc:Work>
  </rdf:RDF>
 </metadata>
 <defs>
  <style type="text/css">*{stroke-linejoin: round; stroke-linecap: butt}</style>
 </defs>
 <g id="figure_1">
  <g id="patch_1">
   <path d="M 0 568.90125 
L 1000.78375 568.90125 
L 1000.78375 0 
L 0 0 
L 0 568.90125 
z
" style="fill: none"/>
  </g>
  <g id="axes_1">
   <g id="patch_2">
    <path d="M 56.88375 515.68 
L 673.322735 515.68 
L 673.322735 7.2 
L 56.88375 7.2 
L 56.88375 515.68 
z
" style="fill: none"/>
   </g>
   <g id="matplotlib.axis_1">
    <g id="xtick_1">
     <g id="line2d_1">
      <path d="M 84.903704 515.68 
L 84.903704 7.2 
" clip-path="url(#pb9330fca88)" style="fill: none; stroke: #b0b0b0; stroke-width: 0.8; stroke-linecap: square"/>
     </g>
     <g id="line2d_2">
      <defs>
       <path id="m9e53581d06" d="M 0 0 
L 0 3.5 
" style="stroke: #000000; stroke-width: 0.8"/>
      </defs>
      <g>
       <use xlink:href="#m9e53581d06" x="84.903704" y="515.68" style="stroke: #000000; stroke-width: 0.8"/>
      </g>
     </g>
     <g id="text_1">
      <!-- 0 -->
      <g transform="translate(79.993704 534.775) scale(0.16 -0.16)">
       <defs>
        <path id="Georgia-30" d="M 3209 2919 
Q 3409 2678 3507 2354 
Q 3606 2031 3606 1678 
Q 3606 1253 3484 917 
Q 3363 581 3150 359 
Q 2931 131 2631 15 
Q 2331 -100 1963 -100 
Q 1559 -100 1243 34 
Q 928 169 731 403 
Q 525 647 423 973 
Q 322 1300 322 1678 
Q 322 2050 420 2362 
Q 519 2675 728 2928 
Q 928 3172 1243 3312 
Q 1559 3453 1966 3453 
Q 2394 3453 2700 3309 
Q 3006 3166 3209 2919 
z
M 2916 1678 
Q 2916 2422 2661 2831 
Q 2406 3241 1969 3241 
Q 1525 3241 1269 2831 
Q 1013 2422 1013 1678 
Q 1013 972 1258 542 
Q 1503 113 1963 113 
Q 2422 113 2669 542 
Q 2916 972 2916 1678 
z
" transform="scale(0.015625)"/>
       </defs>
       <use xlink:href="#Georgia-30"/>
      </g>
     </g>
    </g>
    <g id="xtick_2">
     <g id="line2d_3">
      <path d="M 174.093987 515.68 
L 174.093987 7.2 
" clip-path="url(#pb9330fca88)" style="fill: none; stroke: #b0b0b0; stroke-width: 0.8; stroke-linecap: square"/>
     </g>
     <g id="line2d_4">
      <g>
       <use xlink:href="#m9e53581d06" x="174.093987" y="515.68" style="stroke: #000000; stroke-width: 0.8"/>
      </g>
     </g>
     <g id="text_2">
      <!-- 1 -->
      <g transform="translate(170.656487 534.775) scale(0.16 -0.16)">
       <defs>
        <path id="Georgia-31" d="M 2528 0 
L 422 0 
L 422 222 
Q 516 228 714 248 
Q 913 269 988 291 
Q 1084 322 1136 392 
Q 1188 463 1188 603 
L 1188 2797 
L 409 2797 
L 409 3059 
L 581 3059 
Q 919 3059 1186 3184 
Q 1453 3309 1569 3453 
L 1828 3453 
Q 1819 3250 1809 2978 
Q 1800 2706 1800 2491 
L 1800 638 
Q 1800 528 1848 442 
Q 1897 356 1988 316 
Q 2069 281 2253 253 
Q 2438 225 2528 222 
L 2528 0 
z
" transform="scale(0.015625)"/>
       </defs>
       <use xlink:href="#Georgia-31"/>
      </g>
     </g>
    </g>
    <g id="xtick_3">
     <g id="line2d_5">
      <path d="M 263.28427 515.68 
L 263.28427 7.2 
" clip-path="url(#pb9330fca88)" style="fill: none; stroke: #b0b0b0; stroke-width: 0.8; stroke-linecap: square"/>
     </g>
     <g id="line2d_6">
      <g>
       <use xlink:href="#m9e53581d06" x="263.28427" y="515.68" style="stroke: #000000; stroke-width: 0.8"/>
      </g>
     </g>
     <g id="text_3">
      <!-- 2 -->
      <g transform="translate(258.81552 534.775) scale(0.16 -0.16)">
       <defs>
        <path id="Georgia-32" d="M 3272 0 
L 344 0 
L 344 425 
Q 428 522 578 642 
Q 728 763 934 903 
Q 1059 988 1234 1088 
Q 1409 1188 1631 1306 
Q 1878 1438 2011 1538 
Q 2144 1638 2253 1784 
Q 2325 1881 2369 2026 
Q 2413 2172 2413 2441 
Q 2413 2831 2203 3014 
Q 1994 3197 1666 3197 
Q 1463 3197 1281 3117 
Q 1100 3038 1009 2897 
Q 1031 2797 1064 2659 
Q 1097 2522 1097 2391 
Q 1097 2272 998 2180 
Q 900 2088 706 2088 
Q 550 2088 465 2195 
Q 381 2303 381 2484 
Q 381 2653 475 2823 
Q 569 2994 744 3138 
Q 916 3278 1169 3365 
Q 1422 3453 1716 3453 
Q 2356 3453 2732 3167 
Q 3109 2881 3109 2403 
Q 3109 2175 3042 1987 
Q 2975 1800 2825 1656 
Q 2659 1497 2437 1383 
Q 2216 1269 1759 1066 
Q 1488 944 1253 811 
Q 1019 678 869 553 
L 3272 553 
L 3272 0 
z
" transform="scale(0.015625)"/>
       </defs>
       <use xlink:href="#Georgia-32"/>
      </g>
     </g>
    </g>
    <g id="xtick_4">
     <g id="line2d_7">
      <path d="M 352.474554 515.68 
L 352.474554 7.2 
" clip-path="url(#pb9330fca88)" style="fill: none; stroke: #b0b0b0; stroke-width: 0.8; stroke-linecap: square"/>
     </g>
     <g id="line2d_8">
      <g>
       <use xlink:href="#m9e53581d06" x="352.474554" y="515.68" style="stroke: #000000; stroke-width: 0.8"/>
      </g>
     </g>
     <g id="text_4">
      <!-- 3 -->
      <g transform="translate(348.060804 534.775) scale(0.16 -0.16)">
       <defs>
        <path id="Georgia-33" d="M 1522 -1141 
Q 1228 -1141 984 -1067 
Q 741 -994 566 -869 
Q 391 -744 295 -581 
Q 200 -419 200 -247 
Q 200 -94 275 29 
Q 350 153 516 153 
Q 703 153 801 61 
Q 900 -31 900 -150 
Q 900 -250 867 -403 
Q 834 -556 816 -622 
Q 838 -650 895 -697 
Q 953 -744 1038 -781 
Q 1138 -828 1247 -856 
Q 1356 -884 1556 -884 
Q 1744 -884 1917 -821 
Q 2091 -759 2222 -622 
Q 2359 -478 2436 -286 
Q 2513 -94 2513 219 
Q 2513 388 2477 553 
Q 2441 719 2344 841 
Q 2247 963 2080 1030 
Q 1913 1097 1656 1097 
L 1247 1097 
L 1247 1456 
L 1519 1456 
Q 1950 1456 2140 1693 
Q 2331 1931 2331 2409 
Q 2331 2800 2147 2998 
Q 1963 3197 1625 3197 
Q 1463 3197 1358 3158 
Q 1253 3119 1188 3081 
Q 1109 3038 1059 2984 
Q 1009 2931 984 2906 
Q 1006 2806 1037 2661 
Q 1069 2516 1069 2384 
Q 1069 2269 970 2176 
Q 872 2084 681 2084 
Q 516 2084 439 2203 
Q 363 2322 363 2478 
Q 363 2641 453 2809 
Q 544 2978 722 3125 
Q 900 3272 1156 3362 
Q 1413 3453 1747 3453 
Q 2131 3453 2382 3339 
Q 2634 3225 2778 3063 
Q 2919 2903 2972 2728 
Q 3025 2553 3025 2428 
Q 3025 2272 2981 2114 
Q 2938 1956 2838 1822 
Q 2728 1675 2548 1554 
Q 2369 1434 2097 1359 
L 2097 1309 
Q 2272 1294 2470 1231 
Q 2669 1169 2828 1047 
Q 2994 919 3100 717 
Q 3206 516 3206 206 
Q 3206 -394 2725 -767 
Q 2244 -1141 1522 -1141 
z
" transform="scale(0.015625)"/>
       </defs>
       <use xlink:href="#Georgia-33"/>
      </g>
     </g>
    </g>
    <g id="xtick_5">
     <g id="line2d_9">
      <path d="M 441.664837 515.68 
L 441.664837 7.2 
" clip-path="url(#pb9330fca88)" style="fill: none; stroke: #b0b0b0; stroke-width: 0.8; stroke-linecap: square"/>
     </g>
     <g id="line2d_10">
      <g>
       <use xlink:href="#m9e53581d06" x="441.664837" y="515.68" style="stroke: #000000; stroke-width: 0.8"/>
      </g>
     </g>
     <g id="text_5">
      <!-- 4 -->
      <g transform="translate(437.144837 534.775) scale(0.16 -0.16)">
       <defs>
        <path id="Georgia-34" d="M 3388 281 
L 2753 281 
L 2753 -1141 
L 2153 -1141 
L 2153 281 
L 153 281 
L 153 763 
L 2344 3434 
L 2753 3434 
L 2753 691 
L 3388 691 
L 3388 281 
z
M 2153 691 
L 2153 2738 
L 466 691 
L 2153 691 
z
" transform="scale(0.015625)"/>
       </defs>
       <use xlink:href="#Georgia-34"/>
      </g>
     </g>
    </g>
    <g id="xtick_6">
     <g id="line2d_11">
      <path d="M 530.85512 515.68 
L 530.85512 7.2 
" clip-path="url(#pb9330fca88)" style="fill: none; stroke: #b0b0b0; stroke-width: 0.8; stroke-linecap: square"/>
     </g>
     <g id="line2d_12">
      <g>
       <use xlink:href="#m9e53581d06" x="530.85512" y="515.68" style="stroke: #000000; stroke-width: 0.8"/>
      </g>
     </g>
     <g id="text_6">
      <!-- 5 -->
      <g transform="translate(526.62887 534.775) scale(0.16 -0.16)">
       <defs>
        <path id="Georgia-35" d="M 2634 1466 
Q 2841 1303 2977 1047 
Q 3113 791 3113 406 
Q 3113 -266 2653 -703 
Q 2194 -1141 1488 -1141 
Q 941 -1141 562 -881 
Q 184 -622 184 -278 
Q 184 -119 262 0 
Q 341 119 503 119 
Q 691 119 789 20 
Q 888 -78 888 -194 
Q 888 -294 853 -444 
Q 819 -594 800 -666 
Q 825 -688 881 -725 
Q 938 -763 1016 -797 
Q 1097 -831 1214 -857 
Q 1331 -884 1488 -884 
Q 1688 -884 1866 -803 
Q 2044 -722 2166 -563 
Q 2300 -388 2367 -164 
Q 2434 59 2434 403 
Q 2434 844 2189 1133 
Q 1944 1422 1544 1422 
Q 1294 1422 1076 1328 
Q 859 1234 688 1016 
L 478 1097 
L 744 3353 
L 2981 3353 
L 2981 2797 
L 997 2797 
L 834 1472 
Q 975 1572 1204 1670 
Q 1434 1769 1709 1769 
Q 1938 1769 2183 1698 
Q 2428 1628 2634 1466 
z
" transform="scale(0.015625)"/>
       </defs>
       <use xlink:href="#Georgia-35"/>
      </g>
     </g>
    </g>
    <g id="xtick_7">
     <g id="line2d_13">
      <path d="M 620.045404 515.68 
L 620.045404 7.2 
" clip-path="url(#pb9330fca88)" style="fill: none; stroke: #b0b0b0; stroke-width: 0.8; stroke-linecap: square"/>
     </g>
     <g id="line2d_14">
      <g>
       <use xlink:href="#m9e53581d06" x="620.045404" y="515.68" style="stroke: #000000; stroke-width: 0.8"/>
      </g>
     </g>
     <g id="text_7">
      <!-- 6 -->
      <g transform="translate(615.517904 534.775) scale(0.16 -0.16)">
       <defs>
        <path id="Georgia-36" d="M 3359 1441 
Q 3359 1116 3242 831 
Q 3125 547 2928 347 
Q 2700 119 2423 9 
Q 2147 -100 1847 -100 
Q 1500 -100 1219 28 
Q 938 156 741 391 
Q 541 628 431 972 
Q 322 1316 322 1744 
Q 322 2859 986 3625 
Q 1650 4391 2766 4544 
L 2822 4263 
L 2541 4213 
Q 1863 3994 1492 3531 
Q 1122 3069 1013 2409 
Q 1281 2644 1543 2741 
Q 1806 2838 2097 2838 
Q 2619 2838 2989 2438 
Q 3359 2038 3359 1441 
z
M 2681 1356 
Q 2681 1863 2448 2169 
Q 2216 2475 1825 2475 
Q 1591 2475 1389 2387 
Q 1188 2300 1000 2094 
Q 997 2056 990 1920 
Q 984 1784 984 1706 
Q 984 975 1223 561 
Q 1463 147 1853 147 
Q 2225 147 2453 470 
Q 2681 794 2681 1356 
z
" transform="scale(0.015625)"/>
       </defs>
       <use xlink:href="#Georgia-36"/>
      </g>
     </g>
    </g>
    <g id="text_8">
     <!-- $x$ -->
     <g transform="translate(359.103243 557.36375) scale(0.2 -0.2)">
      <defs>
       <path id="DejaVuSans-Oblique-78" d="M 3841 3500 
L 2234 1784 
L 3219 0 
L 2559 0 
L 1819 1388 
L 531 0 
L -166 0 
L 1556 1844 
L 641 3500 
L 1300 3500 
L 1972 2234 
L 3144 3500 
L 3841 3500 
z
" transform="scale(0.015625)"/>
      </defs>
      <use xlink:href="#DejaVuSans-Oblique-78" transform="translate(0 0.3125)"/>
     </g>
    </g>
   </g>
   <g id="matplotlib.axis_2">
    <g id="ytick_1">
     <g id="line2d_15">
      <path d="M 56.88375 477.557102 
L 673.322735 477.557102 
" clip-path="url(#pb9330fca88)" style="fill: none; stroke: #b0b0b0; stroke-width: 0.8; stroke-linecap: square"/>
     </g>
     <g id="line2d_16">
      <defs>
       <path id="m4c5cd913aa" d="M 0 0 
L -3.5 0 
" style="stroke: #000000; stroke-width: 0.8"/>
      </defs>
      <g>
       <use xlink:href="#m4c5cd913aa" x="56.88375" y="477.557102" style="stroke: #000000; stroke-width: 0.8"/>
      </g>
     </g>
     <g id="text_9">
      <!-- −3 -->
      <g transform="translate(30.76625 483.604602) scale(0.16 -0.16)">
       <defs>
        <path id="Georgia-2212" d="M 3650 1553 
L 466 1553 
L 466 1944 
L 3650 1944 
L 3650 1553 
z
" transform="scale(0.015625)"/>
       </defs>
       <use xlink:href="#Georgia-2212"/>
       <use xlink:href="#Georgia-33" x="64.306641"/>
      </g>
     </g>
    </g>
    <g id="ytick_2">
     <g id="line2d_17">
      <path d="M 56.88375 405.367396 
L 673.322735 405.367396 
" clip-path="url(#pb9330fca88)" style="fill: none; stroke: #b0b0b0; stroke-width: 0.8; stroke-linecap: square"/>
     </g>
     <g id="line2d_18">
      <g>
       <use xlink:href="#m4c5cd913aa" x="56.88375" y="405.367396" style="stroke: #000000; stroke-width: 0.8"/>
      </g>
     </g>
     <g id="text_10">
      <!-- −2 -->
      <g transform="translate(30.65625 411.414896) scale(0.16 -0.16)">
       <use xlink:href="#Georgia-2212"/>
       <use xlink:href="#Georgia-32" x="64.306641"/>
      </g>
     </g>
    </g>
    <g id="ytick_3">
     <g id="line2d_19">
      <path d="M 56.88375 333.17769 
L 673.322735 333.17769 
" clip-path="url(#pb9330fca88)" style="fill: none; stroke: #b0b0b0; stroke-width: 0.8; stroke-linecap: square"/>
     </g>
     <g id="line2d_20">
      <g>
       <use xlink:href="#m4c5cd913aa" x="56.88375" y="333.17769" style="stroke: #000000; stroke-width: 0.8"/>
      </g>
     </g>
     <g id="text_11">
      <!-- −1 -->
      <g transform="translate(32.71875 339.22519) scale(0.16 -0.16)">
       <use xlink:href="#Georgia-2212"/>
       <use xlink:href="#Georgia-31" x="64.306641"/>
      </g>
     </g>
    </g>
    <g id="ytick_4">
     <g id="line2d_21">
      <path d="M 56.88375 260.987983 
L 673.322735 260.987983 
" clip-path="url(#pb9330fca88)" style="fill: none; stroke: #b0b0b0; stroke-width: 0.8; stroke-linecap: square"/>
     </g>
     <g id="line2d_22">
      <g>
       <use xlink:href="#m4c5cd913aa" x="56.88375" y="260.987983" style="stroke: #000000; stroke-width: 0.8"/>
      </g>
     </g>
     <g id="text_12">
      <!-- 0 -->
      <g transform="translate(40.06375 267.035483) scale(0.16 -0.16)">
       <use xlink:href="#Georgia-30"/>
      </g>
     </g>
    </g>
    <g id="ytick_5">
     <g id="line2d_23">
      <path d="M 56.88375 188.798277 
L 673.322735 188.798277 
" clip-path="url(#pb9330fca88)" style="fill: none; stroke: #b0b0b0; stroke-width: 0.8; stroke-linecap: square"/>
     </g>
     <g id="line2d_24">
      <g>
       <use xlink:href="#m4c5cd913aa" x="56.88375" y="188.798277" style="stroke: #000000; stroke-width: 0.8"/>
      </g>
     </g>
     <g id="text_13">
      <!-- 1 -->
      <g transform="translate(43.00875 194.845777) scale(0.16 -0.16)">
       <use xlink:href="#Georgia-31"/>
      </g>
     </g>
    </g>
    <g id="ytick_6">
     <g id="line2d_25">
      <path d="M 56.88375 116.608571 
L 673.322735 116.608571 
" clip-path="url(#pb9330fca88)" style="fill: none; stroke: #b0b0b0; stroke-width: 0.8; stroke-linecap: square"/>
     </g>
     <g id="line2d_26">
      <g>
       <use xlink:href="#m4c5cd913aa" x="56.88375" y="116.608571" style="stroke: #000000; stroke-width: 0.8"/>
      </g>
     </g>
     <g id="text_14">
      <!-- 2 -->
      <g transform="translate(40.94625 122.656071) scale(0.16 -0.16)">
       <use xlink:href="#Georgia-32"/>
      </g>
     </g>
    </g>
    <g id="ytick_7">
     <g id="line2d_27">
      <path d="M 56.88375 44.418864 
L 673.322735 44.418864 
" clip-path="url(#pb9330fca88)" style="fill: none; stroke: #b0b0b0; stroke-width: 0.8; stroke-linecap: square"/>
     </g>
     <g id="line2d_28">
      <g>
       <use xlink:href="#m4c5cd913aa" x="56.88375" y="44.418864" style="stroke: #000000; stroke-width: 0.8"/>
      </g>
     </g>
     <g id="text_15">
      <!-- 3 -->
      <g transform="translate(41.05625 50.466364) scale(0.16 -0.16)">
       <use xlink:href="#Georgia-33"/>
      </g>
     </g>
    </g>
    <g id="text_16">
     <!-- $y$ -->
     <g transform="translate(22.31875 267.44) rotate(-90) scale(0.2 -0.2)">
      <defs>
       <path id="DejaVuSans-Oblique-79" d="M 1588 -325 
Q 1188 -997 936 -1164 
Q 684 -1331 294 -1331 
L -159 -1331 
L -63 -850 
L 269 -850 
Q 509 -850 678 -719 
Q 847 -588 1056 -206 
L 1234 128 
L 459 3500 
L 1069 3500 
L 1650 819 
L 3256 3500 
L 3859 3500 
L 1588 -325 
z
" transform="scale(0.015625)"/>
      </defs>
      <use xlink:href="#DejaVuSans-Oblique-79" transform="translate(0 0.3125)"/>
     </g>
    </g>
   </g>
   <g id="line2d_29">
    <path d="M 84.903704 260.987983 
L 105.098265 244.782014 
L 115.756506 236.511098 
L 124.731867 229.81222 
L 132.585307 224.20722 
L 139.877788 219.256864 
L 146.609308 214.934061 
L 153.340828 210.87347 
L 159.511389 207.401381 
L 165.681949 204.185679 
L 171.29155 201.497771 
L 176.90115 199.045113 
L 182.51075 196.837404 
L 188.120351 194.883376 
L 193.168991 193.348055 
L 198.217631 192.029405 
L 203.266272 190.931649 
L 208.314912 190.058306 
L 213.363552 189.412171 
L 218.412193 188.995316 
L 223.460833 188.809075 
L 228.509473 188.854044 
L 233.558114 189.13008 
L 238.606754 189.636299 
L 243.655394 190.371079 
L 248.704035 191.332066 
L 253.752675 192.516182 
L 258.801316 193.919633 
L 263.849956 195.537925 
L 269.459556 197.581672 
L 275.069157 199.876156 
L 280.678757 202.412304 
L 286.288357 205.180085 
L 292.458918 208.479094 
L 298.629478 212.029333 
L 305.360999 216.16886 
L 312.092519 220.563568 
L 319.385 225.583413 
L 327.23844 231.252953 
L 336.213801 238.011897 
L 346.872041 246.334379 
L 361.457002 258.037576 
L 385.578284 277.415095 
L 396.236525 285.678317 
L 405.211885 292.368349 
L 413.065326 297.963907 
L 420.357806 302.904139 
L 427.089327 307.216497 
L 433.820847 311.265651 
L 439.991408 314.726437 
L 446.161968 317.93011 
L 451.771568 320.606501 
L 457.381169 323.047133 
L 462.990769 325.242357 
L 468.60037 327.18349 
L 473.64901 328.706896 
L 478.69765 330.013379 
L 483.746291 331.098753 
L 488.794931 331.95954 
L 493.843571 332.592984 
L 498.892212 332.997056 
L 503.940852 333.170461 
L 508.989492 333.112644 
L 514.038133 332.82379 
L 519.086773 332.304824 
L 524.135413 331.557409 
L 529.184054 330.583939 
L 534.232694 329.387531 
L 539.281334 327.97202 
L 544.329975 326.341938 
L 549.939575 324.285454 
L 555.549175 321.978663 
L 561.158776 319.430688 
L 566.768376 316.651604 
L 572.938937 313.340825 
L 579.109497 309.77956 
L 585.841017 305.62892 
L 592.572538 301.224113 
L 599.865018 296.194538 
L 607.718459 290.516002 
L 616.693819 283.748744 
L 627.35206 275.419224 
L 641.937021 263.711549 
L 645.302781 260.987983 
L 645.302781 260.987983 
" clip-path="url(#pb9330fca88)" style="fill: none; stroke: #000000; stroke-linecap: square"/>
   </g>
   <g id="line2d_30">
    <defs>
     <path id="m28605367be" d="M 0 0.4 
C 0.106081 0.4 0.207832 0.357853 0.282843 0.282843 
C 0.357853 0.207832 0.4 0.106081 0.4 0 
C 0.4 -0.106081 0.357853 -0.207832 0.282843 -0.282843 
C 0.207832 -0.357853 0.106081 -0.4 0 -0.4 
C -0.106081 -0.4 -0.207832 -0.357853 -0.282843 -0.282843 
C -0.357853 -0.207832 -0.4 -0.106081 -0.4 0 
C -0.4 0.106081 -0.357853 0.207832 -0.282843 0.282843 
C -0.207832 0.357853 -0.106081 0.4 0 0.4 
z
" style="stroke: #000000"/>
    </defs>
    <g clip-path="url(#pb9330fca88)">
     <use xlink:href="#m28605367be" x="84.903704" y="260.987983" style="stroke: #000000"/>
     <use xlink:href="#m28605367be" x="90.564301" y="258.200094" style="stroke: #000000"/>
     <use xlink:href="#m28605367be" x="96.224897" y="256.18079" style="stroke: #000000"/>
     <use xlink:href="#m28605367be" x="101.885494" y="254.192384" style="stroke: #000000"/>
     <use xlink:href="#m28605367be" x="107.546091" y="252.212411" style="stroke: #000000"/>
     <use xlink:href="#m28605367be" x="113.206688" y="250.237424" style="stroke: #000000"/>
     <use xlink:href="#m28605367be" x="118.867284" y="248.267044" style="stroke: #000000"/>
     <use xlink:href="#m28605367be" x="124.527881" y="246.301594" style="stroke: #000000"/>
     <use xlink:href="#m28605367be" x="130.188478" y="244.341596" style="stroke: #000000"/>
     <use xlink:href="#m28605367be" x="135.849075" y="242.387645" style="stroke: #000000"/>
     <use xlink:href="#m28605367be" x="141.509671" y="240.440376" style="stroke: #000000"/>
     <use xlink:href="#m28605367be" x="147.170268" y="238.500459" style="stroke: #000000"/>
     <use xlink:href="#m28605367be" x="152.830865" y="236.568592" style="stroke: #000000"/>
     <use xlink:href="#m28605367be" x="158.491462" y="234.645512" style="stroke: #000000"/>
     <use xlink:href="#m28605367be" x="164.152058" y="232.731992" style="stroke: #000000"/>
     <use xlink:href="#m28605367be" x="169.812655" y="230.82885" style="stroke: #000000"/>
     <use xlink:href="#m28605367be" x="175.473252" y="228.936953" style="stroke: #000000"/>
     <use xlink:href="#m28605367be" x="181.133848" y="227.057222" style="stroke: #000000"/>
     <use xlink:href="#m28605367be" x="186.794445" y="225.190643" style="stroke: #000000"/>
     <use xlink:href="#m28605367be" x="192.455042" y="223.338268" style="stroke: #000000"/>
     <use xlink:href="#m28605367be" x="198.115639" y="221.501231" style="stroke: #000000"/>
     <use xlink:href="#m28605367be" x="203.776235" y="219.680754" style="stroke: #000000"/>
     <use xlink:href="#m28605367be" x="209.436832" y="217.87816" style="stroke: #000000"/>
     <use xlink:href="#m28605367be" x="215.097429" y="216.094889" style="stroke: #000000"/>
     <use xlink:href="#m28605367be" x="220.758026" y="214.332512" style="stroke: #000000"/>
     <use xlink:href="#m28605367be" x="226.418622" y="212.59275" style="stroke: #000000"/>
     <use xlink:href="#m28605367be" x="232.079219" y="210.877499" style="stroke: #000000"/>
     <use xlink:href="#m28605367be" x="237.739816" y="209.188859" style="stroke: #000000"/>
     <use xlink:href="#m28605367be" x="243.400413" y="207.529158" style="stroke: #000000"/>
     <use xlink:href="#m28605367be" x="249.061009" y="205.901005" style="stroke: #000000"/>
     <use xlink:href="#m28605367be" x="254.721606" y="204.307328" style="stroke: #000000"/>
     <use xlink:href="#m28605367be" x="260.382203" y="202.751438" style="stroke: #000000"/>
     <use xlink:href="#m28605367be" x="266.0428" y="201.237106" style="stroke: #000000"/>
     <use xlink:href="#m28605367be" x="271.703396" y="199.768655" style="stroke: #000000"/>
     <use xlink:href="#m28605367be" x="277.363993" y="198.35108" style="stroke: #000000"/>
     <use xlink:href="#m28605367be" x="283.02459" y="196.990207" style="stroke: #000000"/>
     <use xlink:href="#m28605367be" x="288.685187" y="195.692897" style="stroke: #000000"/>
     <use xlink:href="#m28605367be" x="294.345783" y="194.467319" style="stroke: #000000"/>
     <use xlink:href="#m28605367be" x="300.00638" y="193.32333" style="stroke: #000000"/>
     <use xlink:href="#m28605367be" x="305.666977" y="192.272988" style="stroke: #000000"/>
     <use xlink:href="#m28605367be" x="311.327574" y="191.331311" style="stroke: #000000"/>
     <use xlink:href="#m28605367be" x="316.98817" y="190.517377" style="stroke: #000000"/>
     <use xlink:href="#m28605367be" x="322.648767" y="189.856023" style="stroke: #000000"/>
     <use xlink:href="#m28605367be" x="328.309364" y="189.380569" style="stroke: #000000"/>
     <use xlink:href="#m28605367be" x="333.969961" y="189.137444" style="stroke: #000000"/>
     <use xlink:href="#m28605367be" x="339.630557" y="189.194631" style="stroke: #000000"/>
     <use xlink:href="#m28605367be" x="345.291154" y="189.658666" style="stroke: #000000"/>
     <use xlink:href="#m28605367be" x="350.951751" y="190.713812" style="stroke: #000000"/>
     <use xlink:href="#m28605367be" x="356.612348" y="192.732704" style="stroke: #000000"/>
     <use xlink:href="#m28605367be" x="362.272944" y="196.708093" style="stroke: #000000"/>
     <use xlink:href="#m28605367be" x="367.933541" y="325.267873" style="stroke: #000000"/>
     <use xlink:href="#m28605367be" x="373.594138" y="329.243263" style="stroke: #000000"/>
     <use xlink:href="#m28605367be" x="379.254734" y="331.262154" style="stroke: #000000"/>
     <use xlink:href="#m28605367be" x="384.915331" y="332.317301" style="stroke: #000000"/>
     <use xlink:href="#m28605367be" x="390.575928" y="332.781336" style="stroke: #000000"/>
     <use xlink:href="#m28605367be" x="396.236525" y="332.838523" style="stroke: #000000"/>
     <use xlink:href="#m28605367be" x="401.897121" y="332.595398" style="stroke: #000000"/>
     <use xlink:href="#m28605367be" x="407.557718" y="332.119944" style="stroke: #000000"/>
     <use xlink:href="#m28605367be" x="413.218315" y="331.45859" style="stroke: #000000"/>
     <use xlink:href="#m28605367be" x="418.878912" y="330.644656" style="stroke: #000000"/>
     <use xlink:href="#m28605367be" x="424.539508" y="329.702979" style="stroke: #000000"/>
     <use xlink:href="#m28605367be" x="430.200105" y="328.652637" style="stroke: #000000"/>
     <use xlink:href="#m28605367be" x="435.860702" y="327.508647" style="stroke: #000000"/>
     <use xlink:href="#m28605367be" x="441.521299" y="326.28307" style="stroke: #000000"/>
     <use xlink:href="#m28605367be" x="447.181895" y="324.98576" style="stroke: #000000"/>
     <use xlink:href="#m28605367be" x="452.842492" y="323.624887" style="stroke: #000000"/>
     <use xlink:href="#m28605367be" x="458.503089" y="322.207312" style="stroke: #000000"/>
     <use xlink:href="#m28605367be" x="464.163686" y="320.73886" style="stroke: #000000"/>
     <use xlink:href="#m28605367be" x="469.824282" y="319.224528" style="stroke: #000000"/>
     <use xlink:href="#m28605367be" x="475.484879" y="317.668639" style="stroke: #000000"/>
     <use xlink:href="#m28605367be" x="481.145476" y="316.074961" style="stroke: #000000"/>
     <use xlink:href="#m28605367be" x="486.806073" y="314.446808" style="stroke: #000000"/>
     <use xlink:href="#m28605367be" x="492.466669" y="312.787108" style="stroke: #000000"/>
     <use xlink:href="#m28605367be" x="498.127266" y="311.098467" style="stroke: #000000"/>
     <use xlink:href="#m28605367be" x="503.787863" y="309.383217" style="stroke: #000000"/>
     <use xlink:href="#m28605367be" x="509.44846" y="307.643455" style="stroke: #000000"/>
     <use xlink:href="#m28605367be" x="515.109056" y="305.881078" style="stroke: #000000"/>
     <use xlink:href="#m28605367be" x="520.769653" y="304.097806" style="stroke: #000000"/>
     <use xlink:href="#m28605367be" x="526.43025" y="302.295213" style="stroke: #000000"/>
     <use xlink:href="#m28605367be" x="532.090847" y="300.474736" style="stroke: #000000"/>
     <use xlink:href="#m28605367be" x="537.751443" y="298.637698" style="stroke: #000000"/>
     <use xlink:href="#m28605367be" x="543.41204" y="296.785324" style="stroke: #000000"/>
     <use xlink:href="#m28605367be" x="549.072637" y="294.918744" style="stroke: #000000"/>
     <use xlink:href="#m28605367be" x="554.733233" y="293.039014" style="stroke: #000000"/>
     <use xlink:href="#m28605367be" x="560.39383" y="291.147117" style="stroke: #000000"/>
     <use xlink:href="#m28605367be" x="566.054427" y="289.243975" style="stroke: #000000"/>
     <use xlink:href="#m28605367be" x="571.715024" y="287.330455" style="stroke: #000000"/>
     <use xlink:href="#m28605367be" x="577.37562" y="285.407374" style="stroke: #000000"/>
     <use xlink:href="#m28605367be" x="583.036217" y="283.475508" style="stroke: #000000"/>
     <use xlink:href="#m28605367be" x="588.696814" y="281.53559" style="stroke: #000000"/>
     <use xlink:href="#m28605367be" x="594.357411" y="279.588322" style="stroke: #000000"/>
     <use xlink:href="#m28605367be" x="600.018007" y="277.634371" style="stroke: #000000"/>
     <use xlink:href="#m28605367be" x="605.678604" y="275.674373" style="stroke: #000000"/>
     <use xlink:href="#m28605367be" x="611.339201" y="273.708923" style="stroke: #000000"/>
     <use xlink:href="#m28605367be" x="616.999798" y="271.738543" style="stroke: #000000"/>
     <use xlink:href="#m28605367be" x="622.660394" y="269.763555" style="stroke: #000000"/>
     <use xlink:href="#m28605367be" x="628.320991" y="267.783582" style="stroke: #000000"/>
     <use xlink:href="#m28605367be" x="633.981588" y="265.795177" style="stroke: #000000"/>
     <use xlink:href="#m28605367be" x="639.642185" y="263.775873" style="stroke: #000000"/>
     <use xlink:href="#m28605367be" x="645.302781" y="260.987983" style="stroke: #000000"/>
    </g>
   </g>
   <g id="line2d_31">
    <path d="M 84.903704 260.989623 
L 90.564301 262.572515 
L 96.224897 257.763031 
L 101.885494 256.754707 
L 107.546091 259.271044 
L 113.206688 253.966537 
L 118.867284 247.493697 
L 124.527881 248.832114 
L 130.188478 247.500499 
L 135.849075 240.728715 
L 141.509671 240.47432 
L 147.170268 242.530106 
L 152.830865 236.808868 
L 158.491462 232.884451 
L 164.152058 235.576121 
L 169.812655 232.784847 
L 175.473252 226.629393 
L 181.133848 228.102917 
L 186.794445 228.714025 
L 192.455042 222.02796 
L 198.115639 220.322863 
L 203.776235 223.260029 
L 209.436832 218.569941 
L 215.097429 213.550501 
L 220.758026 216.569846 
L 226.418622 215.390669 
L 232.079219 208.400563 
L 237.739816 209.111227 
L 243.400413 211.499762 
L 249.061009 205.058122 
L 254.721606 202.000648 
L 260.382203 206.251067 
L 266.0428 202.908362 
L 271.703396 196.419568 
L 277.363993 199.771162 
L 283.02459 200.878155 
L 288.685187 193.136383 
L 294.345783 193.086263 
L 300.00638 197.985149 
L 305.666977 191.822782 
L 311.327574 187.271148 
L 316.98817 194.404253 
L 322.648767 193.001866 
L 328.309364 183.587448 
L 333.969961 189.097834 
L 339.630557 195.726308 
L 345.291154 184.43616 
L 350.951751 183.555588 
L 356.612348 202.244614 
L 362.272944 192.408169 
L 367.933541 329.599344 
L 373.594138 319.605828 
L 379.254734 338.318445 
L 384.915331 337.72311 
L 390.575928 326.478677 
L 396.236525 332.677117 
L 401.897121 337.981408 
L 407.557718 329.085763 
L 413.218315 328.12324 
L 418.878912 334.825627 
L 424.539508 329.678156 
L 430.200105 323.694186 
L 435.860702 329.094521 
L 441.521299 329.04321 
L 447.181895 321.026347 
L 452.842492 322.127004 
L 458.503089 325.599512 
L 464.163686 319.084793 
L 469.824282 315.697567 
L 475.484879 319.983107 
L 481.145476 316.92983 
L 486.806073 310.461563 
L 492.466669 312.865251 
L 498.127266 313.587425 
L 503.787863 306.577442 
L 509.44846 305.400707 
L 515.109056 308.435203 
L 520.769653 303.404798 
L 526.43025 298.708569 
L 532.090847 301.658596 
L 537.751443 299.950869 
L 543.41204 293.255461 
L 549.072637 293.874649 
L 554.733233 295.351233 
L 560.39383 289.186749 
L 566.054427 286.398506 
L 571.715024 289.096289 
L 577.37562 285.165224 
L 583.036217 279.442781 
L 588.696814 281.505397 
L 594.357411 281.247597 
L 600.018007 274.471772 
L 605.678604 273.146048 
L 611.339201 274.484312 
L 616.999798 268.006036 
L 622.660394 262.705407 
L 628.320991 265.224258 
L 633.981588 264.210323 
L 639.642185 259.402184 
L 645.302781 260.989623 
" clip-path="url(#pb9330fca88)" style="fill: none; stroke: #a80000; stroke-width: 3; stroke-linecap: square"/>
   </g>
   <g id="line2d_32">
    <path d="M 85.998233 30.312727 
L 88.187292 100.656895 
L 90.376351 151.352026 
L 92.56541 187.301999 
L 94.754469 212.302629 
L 96.943528 229.268065 
L 99.132587 240.415522 
L 101.321646 247.415207 
L 103.510704 251.511306 
L 105.699763 253.61902 
L 107.888822 254.401868 
L 110.077881 254.332835 
L 112.26694 253.742348 
L 114.455999 252.855601 
L 129.779411 245.721777 
L 136.346588 243.194791 
L 147.291882 239.306659 
L 173.560589 230.272542 
L 195.451178 222.986938 
L 215.152708 216.648921 
L 232.665179 211.236386 
L 247.988592 206.715788 
L 261.122945 203.039805 
L 274.257298 199.590341 
L 285.202593 196.928172 
L 296.147887 194.503662 
L 304.904123 192.774302 
L 313.660359 191.27684 
L 320.227535 190.336591 
L 326.794712 189.582909 
L 333.361889 189.07304 
L 337.740006 188.947546 
L 342.118124 189.137641 
L 344.307183 189.429304 
L 346.496242 189.921274 
L 348.685301 190.691232 
L 350.87436 191.845583 
L 353.063419 193.528311 
L 355.252478 195.93205 
L 357.441536 199.311845 
L 359.630595 204.002085 
L 361.819654 210.437235 
L 364.008713 219.177022 
L 366.197772 311.485198 
L 368.386831 317.552144 
L 370.57589 322.072055 
L 372.764949 325.407631 
L 374.954008 327.843136 
L 377.143067 329.599465 
L 379.332125 330.846721 
L 381.521184 331.714646 
L 383.710243 332.301202 
L 385.899302 332.679565 
L 388.088361 332.903787 
L 392.466479 333.036655 
L 396.844597 332.899818 
L 403.411773 332.392807 
L 409.97895 331.641052 
L 416.546127 330.699882 
L 425.302362 329.201029 
L 434.058598 327.471626 
L 445.003892 325.047644 
L 455.949187 322.385659 
L 469.08354 318.936177 
L 482.217894 315.260187 
L 497.541306 310.739583 
L 515.053777 305.327049 
L 534.755307 298.989029 
L 556.645896 291.703424 
L 580.725544 283.431599 
L 593.859897 278.781169 
L 600.427074 276.25423 
L 604.805192 274.385763 
L 609.18331 272.327415 
L 615.750486 269.119961 
L 617.939545 268.233268 
L 620.128604 267.643303 
L 622.317663 267.575792 
L 624.506722 268.362075 
L 626.695781 270.476623 
L 628.88484 274.585292 
L 631.073899 281.606854 
L 633.262957 292.790816 
L 635.452016 309.815161 
L 637.641075 334.908266 
L 639.830134 371.000057 
L 642.019193 421.90834 
L 644.208252 492.567273 
L 644.208252 492.567273 
" clip-path="url(#pb9330fca88)" style="fill: none; stroke: #1f77b4; stroke-width: 3; stroke-linecap: square"/>
   </g>
   <g id="patch_3">
    <path d="M 56.88375 515.68 
L 56.88375 7.2 
" style="fill: none; stroke: #000000; stroke-width: 1.5; stroke-linejoin: miter; stroke-linecap: square"/>
   </g>
   <g id="patch_4">
    <path d="M 673.322735 515.68 
L 673.322735 7.2 
" style="fill: none; stroke: #000000; stroke-width: 1.5; stroke-linejoin: miter; stroke-linecap: square"/>
   </g>
   <g id="patch_5">
    <path d="M 56.88375 515.68 
L 673.322735 515.68 
" style="fill: none; stroke: #000000; stroke-width: 1.5; stroke-linejoin: miter; stroke-linecap: square"/>
   </g>
   <g id="patch_6">
    <path d="M 56.88375 7.2 
L 673.322735 7.2 
" style="fill: none; stroke: #000000; stroke-width: 1.5; stroke-linejoin: miter; stroke-linecap: square"/>
   </g>
   <g id="legend_1">
    <g id="patch_7">
     <path d="M 571.814923 74.1125 
L 666.322735 74.1125 
Q 668.322735 74.1125 668.322735 72.1125 
L 668.322735 14.2 
Q 668.322735 12.2 666.322735 12.2 
L 571.814923 12.2 
Q 569.814923 12.2 569.814923 14.2 
L 569.814923 72.1125 
Q 569.814923 74.1125 571.814923 74.1125 
z
" style="fill: #ffffff; opacity: 0.8; stroke: #cccccc; stroke-linejoin: miter"/>
    </g>
    <g id="line2d_33">
     <path d="M 573.814923 20.259375 
L 583.814923 20.259375 
L 593.814923 20.259375 
" style="fill: none; stroke: #000000; stroke-linecap: square"/>
    </g>
    <g id="text_17">
     <!-- Init -->
     <g transform="translate(601.814923 23.759375) scale(0.1 -0.1)">
      <defs>
       <path id="Georgia-49" d="M 2244 0 
L 247 0 
L 247 222 
Q 331 228 490 240 
Q 650 253 716 278 
Q 819 319 866 389 
Q 913 459 913 584 
L 913 3797 
Q 913 3906 878 3979 
Q 844 4053 716 4103 
Q 622 4141 480 4173 
Q 338 4206 247 4213 
L 247 4434 
L 2244 4434 
L 2244 4213 
Q 2147 4209 2012 4189 
Q 1878 4169 1778 4138 
Q 1659 4100 1618 4015 
Q 1578 3931 1578 3828 
L 1578 619 
Q 1578 516 1623 436 
Q 1669 356 1778 309 
Q 1844 284 1992 254 
Q 2141 225 2244 222 
L 2244 0 
z
" transform="scale(0.015625)"/>
       <path id="Georgia-6e" d="M 3628 0 
L 2119 0 
L 2119 206 
Q 2191 213 2277 219 
Q 2363 225 2419 244 
Q 2506 272 2548 342 
Q 2591 413 2591 525 
L 2591 2109 
Q 2591 2438 2436 2616 
Q 2281 2794 2059 2794 
Q 1894 2794 1756 2742 
Q 1619 2691 1513 2616 
Q 1409 2544 1348 2461 
Q 1288 2378 1259 2328 
L 1259 556 
Q 1259 450 1303 381 
Q 1347 313 1434 275 
Q 1500 244 1576 228 
Q 1653 213 1734 206 
L 1734 0 
L 225 0 
L 225 206 
Q 297 213 373 219 
Q 450 225 506 244 
Q 594 272 636 342 
Q 678 413 678 525 
L 678 2428 
Q 678 2534 633 2623 
Q 588 2713 506 2769 
Q 447 2806 365 2823 
Q 284 2841 191 2847 
L 191 3050 
L 1216 3119 
L 1259 3075 
L 1259 2641 
L 1275 2641 
Q 1350 2716 1462 2820 
Q 1575 2925 1675 2991 
Q 1791 3066 1950 3116 
Q 2109 3166 2309 3166 
Q 2753 3166 2967 2889 
Q 3181 2613 3181 2153 
L 3181 550 
Q 3181 441 3218 373 
Q 3256 306 3347 269 
Q 3422 238 3476 225 
Q 3531 213 3628 206 
L 3628 0 
z
" transform="scale(0.015625)"/>
       <path id="Georgia-69" d="M 1722 0 
L 231 0 
L 231 206 
Q 303 213 379 219 
Q 456 225 513 244 
Q 600 272 642 342 
Q 684 413 684 525 
L 684 2428 
Q 684 2528 639 2611 
Q 594 2694 513 2750 
Q 453 2788 340 2814 
Q 228 2841 134 2847 
L 134 3050 
L 1222 3119 
L 1266 3075 
L 1266 563 
Q 1266 453 1308 381 
Q 1350 309 1441 275 
Q 1509 247 1575 230 
Q 1641 213 1722 206 
L 1722 0 
z
M 1328 4334 
Q 1328 4156 1211 4023 
Q 1094 3891 922 3891 
Q 763 3891 645 4017 
Q 528 4144 528 4306 
Q 528 4478 645 4606 
Q 763 4734 922 4734 
Q 1100 4734 1214 4614 
Q 1328 4494 1328 4334 
z
" transform="scale(0.015625)"/>
       <path id="Georgia-74" d="M 2128 134 
Q 1925 50 1744 -8 
Q 1563 -66 1300 -66 
Q 913 -66 755 129 
Q 597 325 597 681 
L 597 2769 
L 41 2769 
L 41 3069 
L 609 3069 
L 609 4028 
L 1178 4028 
L 1178 3069 
L 2063 3069 
L 2063 2769 
L 1184 2769 
L 1184 1047 
Q 1184 853 1198 723 
Q 1213 594 1266 497 
Q 1316 406 1416 359 
Q 1516 313 1684 313 
Q 1763 313 1914 327 
Q 2066 341 2128 363 
L 2128 134 
z
" transform="scale(0.015625)"/>
      </defs>
      <use xlink:href="#Georgia-49"/>
      <use xlink:href="#Georgia-6e" x="38.964844"/>
      <use xlink:href="#Georgia-69" x="98.046875"/>
      <use xlink:href="#Georgia-74" x="127.34375"/>
     </g>
    </g>
    <g id="line2d_34">
     <g>
      <use xlink:href="#m28605367be" x="583.814923" y="34.9875" style="stroke: #000000"/>
     </g>
    </g>
    <g id="text_18">
     <!-- Exact -->
     <g transform="translate(601.814923 38.4875) scale(0.1 -0.1)">
      <defs>
       <path id="Georgia-45" d="M 4034 1306 
L 3950 0 
L 269 0 
L 269 222 
Q 363 228 519 248 
Q 675 269 722 291 
Q 822 338 861 413 
Q 900 488 900 603 
L 900 3791 
Q 900 3894 865 3973 
Q 831 4053 722 4103 
Q 638 4144 495 4175 
Q 353 4206 269 4213 
L 269 4434 
L 3700 4434 
L 3700 3366 
L 3466 3366 
Q 3403 3603 3195 3870 
Q 2988 4138 2800 4163 
Q 2703 4175 2568 4181 
Q 2434 4188 2263 4188 
L 1566 4188 
L 1566 2425 
L 2066 2425 
Q 2306 2425 2417 2470 
Q 2528 2516 2613 2622 
Q 2681 2713 2729 2864 
Q 2778 3016 2794 3150 
L 3028 3150 
L 3028 1416 
L 2794 1416 
Q 2781 1566 2726 1733 
Q 2672 1900 2613 1975 
Q 2516 2097 2392 2134 
Q 2269 2172 2066 2172 
L 1566 2172 
L 1566 841 
Q 1566 641 1594 525 
Q 1622 409 1703 350 
Q 1784 291 1925 273 
Q 2066 256 2325 256 
Q 2428 256 2597 256 
Q 2766 256 2881 269 
Q 3000 281 3126 314 
Q 3253 347 3306 403 
Q 3450 553 3608 858 
Q 3766 1163 3809 1306 
L 4034 1306 
z
" transform="scale(0.015625)"/>
       <path id="Georgia-78" d="M 3194 0 
L 1781 0 
L 1781 206 
Q 1922 222 2020 237 
Q 2119 253 2119 319 
Q 2119 347 2087 406 
Q 2056 466 2025 516 
Q 1947 638 1811 842 
Q 1675 1047 1478 1331 
Q 1316 1128 1178 936 
Q 1041 744 891 528 
Q 869 497 845 450 
Q 822 403 822 375 
Q 822 306 911 261 
Q 1000 216 1178 200 
L 1178 0 
L 38 0 
L 38 194 
Q 250 256 379 345 
Q 509 434 619 566 
Q 716 691 889 909 
Q 1063 1128 1338 1503 
Q 1178 1731 948 2061 
Q 719 2391 569 2609 
Q 488 2728 383 2801 
Q 278 2875 88 2875 
L 88 3081 
L 1428 3081 
L 1428 2875 
Q 1328 2875 1231 2862 
Q 1134 2850 1134 2806 
Q 1134 2778 1153 2743 
Q 1172 2709 1200 2669 
Q 1269 2563 1414 2341 
Q 1559 2119 1728 1872 
Q 1838 2022 1983 2222 
Q 2128 2422 2250 2603 
Q 2263 2625 2275 2658 
Q 2288 2691 2288 2722 
Q 2288 2788 2180 2827 
Q 2072 2866 1975 2881 
L 1975 3081 
L 3113 3081 
L 3113 2888 
Q 2872 2825 2737 2739 
Q 2603 2653 2509 2541 
Q 2406 2413 2264 2225 
Q 2122 2038 1866 1700 
Q 2150 1300 2328 1044 
Q 2506 788 2688 516 
Q 2778 378 2889 298 
Q 3000 219 3194 206 
L 3194 0 
z
" transform="scale(0.015625)"/>
       <path id="Georgia-61" d="M 3144 56 
Q 2997 3 2886 -30 
Q 2775 -63 2634 -63 
Q 2391 -63 2245 51 
Q 2100 166 2059 384 
L 2041 384 
Q 1838 159 1605 40 
Q 1372 -78 1044 -78 
Q 697 -78 473 134 
Q 250 347 250 691 
Q 250 869 300 1009 
Q 350 1150 450 1263 
Q 528 1356 656 1429 
Q 784 1503 897 1547 
Q 1038 1600 1467 1744 
Q 1897 1888 2047 1969 
L 2047 2278 
Q 2047 2319 2030 2434 
Q 2013 2550 1956 2653 
Q 1894 2769 1780 2855 
Q 1666 2941 1456 2941 
Q 1313 2941 1189 2892 
Q 1066 2844 1016 2791 
Q 1016 2728 1045 2606 
Q 1075 2484 1075 2381 
Q 1075 2272 976 2181 
Q 878 2091 703 2091 
Q 547 2091 473 2202 
Q 400 2313 400 2450 
Q 400 2594 501 2725 
Q 603 2856 766 2959 
Q 906 3047 1106 3108 
Q 1306 3169 1497 3169 
Q 1759 3169 1954 3133 
Q 2150 3097 2309 2978 
Q 2469 2863 2551 2664 
Q 2634 2466 2634 2153 
Q 2634 1706 2625 1361 
Q 2616 1016 2616 606 
Q 2616 484 2658 412 
Q 2700 341 2788 291 
Q 2834 263 2936 259 
Q 3038 256 3144 256 
L 3144 56 
z
M 2053 1706 
Q 1788 1628 1588 1553 
Q 1388 1478 1216 1366 
Q 1059 1259 968 1114 
Q 878 969 878 769 
Q 878 509 1014 387 
Q 1150 266 1359 266 
Q 1581 266 1750 373 
Q 1919 481 2034 628 
L 2053 1706 
z
" transform="scale(0.015625)"/>
       <path id="Georgia-63" d="M 1650 -81 
Q 981 -81 603 362 
Q 225 806 225 1553 
Q 225 1878 326 2161 
Q 428 2444 622 2675 
Q 806 2897 1084 3033 
Q 1363 3169 1691 3169 
Q 2144 3169 2428 2951 
Q 2713 2734 2713 2359 
Q 2713 2203 2638 2083 
Q 2563 1963 2391 1963 
Q 2206 1963 2104 2056 
Q 2003 2150 2003 2266 
Q 2003 2406 2040 2554 
Q 2078 2703 2084 2772 
Q 2028 2869 1917 2901 
Q 1806 2934 1678 2934 
Q 1528 2934 1392 2870 
Q 1256 2806 1128 2634 
Q 1013 2478 941 2212 
Q 869 1947 869 1578 
Q 869 997 1126 630 
Q 1384 263 1803 263 
Q 2106 263 2311 409 
Q 2516 556 2691 850 
L 2891 719 
Q 2684 350 2346 134 
Q 2009 -81 1650 -81 
z
" transform="scale(0.015625)"/>
      </defs>
      <use xlink:href="#Georgia-45"/>
      <use xlink:href="#Georgia-78" x="65.332031"/>
      <use xlink:href="#Georgia-61" x="115.820312"/>
      <use xlink:href="#Georgia-63" x="166.210938"/>
      <use xlink:href="#Georgia-74" x="211.621094"/>
     </g>
    </g>
    <g id="line2d_35">
     <path d="M 573.814923 49.715625 
L 583.814923 49.715625 
L 593.814923 49.715625 
" style="fill: none; stroke: #a80000; stroke-width: 3; stroke-linecap: square"/>
    </g>
    <g id="text_19">
     <!-- 256, t=1.3 -->
     <g transform="translate(601.814923 53.215625) scale(0.1 -0.1)">
      <defs>
       <path id="Georgia-2c" d="M 1341 109 
Q 1341 -116 1239 -316 
Q 1138 -516 1006 -659 
Q 872 -809 722 -925 
Q 572 -1041 447 -1106 
L 303 -897 
Q 453 -803 572 -709 
Q 691 -616 766 -522 
Q 859 -413 925 -284 
Q 991 -156 1009 6 
L 850 6 
Q 641 6 523 115 
Q 406 225 406 409 
Q 406 541 512 664 
Q 619 788 803 788 
Q 1072 788 1206 608 
Q 1341 428 1341 109 
z
" transform="scale(0.015625)"/>
       <path id="Georgia-20" transform="scale(0.015625)"/>
       <path id="Georgia-3d" d="M 3634 2134 
L 481 2134 
L 481 2525 
L 3634 2525 
L 3634 2134 
z
M 3634 972 
L 481 972 
L 481 1363 
L 3634 1363 
L 3634 972 
z
" transform="scale(0.015625)"/>
       <path id="Georgia-2e" d="M 1297 359 
Q 1297 184 1170 60 
Q 1044 -63 869 -63 
Q 694 -63 567 60 
Q 441 184 441 359 
Q 441 534 567 661 
Q 694 788 869 788 
Q 1044 788 1170 661 
Q 1297 534 1297 359 
z
" transform="scale(0.015625)"/>
      </defs>
      <use xlink:href="#Georgia-32"/>
      <use xlink:href="#Georgia-35" x="55.859375"/>
      <use xlink:href="#Georgia-36" x="108.691406"/>
      <use xlink:href="#Georgia-2c" x="165.283203"/>
      <use xlink:href="#Georgia-20" x="192.236328"/>
      <use xlink:href="#Georgia-74" x="216.357422"/>
      <use xlink:href="#Georgia-3d" x="250.878906"/>
      <use xlink:href="#Georgia-31" x="315.185547"/>
      <use xlink:href="#Georgia-2e" x="358.154297"/>
      <use xlink:href="#Georgia-33" x="385.107422"/>
     </g>
    </g>
    <g id="line2d_36">
     <path d="M 573.814923 64.44375 
L 583.814923 64.44375 
L 593.814923 64.44375 
" style="fill: none; stroke: #1f77b4; stroke-width: 3; stroke-linecap: square"/>
    </g>
    <g id="text_20">
     <!-- 256, t=1.3,ggb -->
     <g transform="translate(601.814923 67.94375) scale(0.1 -0.1)">
      <defs>
       <path id="Georgia-67" d="M 2866 319 
Q 2991 200 3062 50 
Q 3134 -100 3134 -322 
Q 3134 -544 3037 -739 
Q 2941 -934 2744 -1078 
Q 2534 -1225 2243 -1306 
Q 1953 -1388 1525 -1388 
Q 825 -1388 478 -1183 
Q 131 -978 131 -584 
Q 131 -266 381 -81 
Q 631 103 1019 119 
L 1019 163 
Q 925 191 825 233 
Q 725 275 653 331 
Q 572 397 522 486 
Q 472 575 472 706 
Q 472 872 589 1011 
Q 706 1150 944 1250 
L 944 1297 
Q 644 1438 478 1658 
Q 313 1878 313 2169 
Q 313 2606 639 2887 
Q 966 3169 1475 3169 
Q 1616 3169 1755 3141 
Q 1894 3113 2038 3069 
L 3113 3069 
L 3113 2769 
L 2388 2769 
L 2388 2750 
Q 2503 2616 2559 2453 
Q 2616 2291 2616 2134 
Q 2616 1728 2286 1447 
Q 1956 1166 1519 1166 
L 1141 1166 
Q 1069 1141 991 1075 
Q 913 1009 913 897 
Q 913 781 978 720 
Q 1044 659 1138 638 
Q 1228 613 1348 606 
Q 1469 600 1597 597 
Q 1734 594 1973 578 
Q 2213 563 2313 559 
Q 2456 553 2601 490 
Q 2747 428 2866 319 
z
M 2022 2147 
Q 2022 2513 1873 2730 
Q 1725 2947 1456 2947 
Q 1309 2947 1204 2886 
Q 1100 2825 1034 2713 
Q 972 2609 945 2464 
Q 919 2319 919 2166 
Q 919 1819 1070 1600 
Q 1222 1381 1463 1381 
Q 1731 1381 1876 1598 
Q 2022 1816 2022 2147 
z
M 2622 -438 
Q 2622 -263 2540 -150 
Q 2459 -38 2294 3 
Q 2206 16 1934 31 
Q 1663 47 1303 47 
Q 966 -19 823 -173 
Q 681 -328 681 -572 
Q 681 -681 728 -781 
Q 775 -881 891 -966 
Q 1000 -1047 1184 -1098 
Q 1369 -1150 1634 -1150 
Q 2094 -1150 2358 -973 
Q 2622 -797 2622 -438 
z
" transform="scale(0.015625)"/>
       <path id="Georgia-62" d="M 3353 1544 
Q 3353 850 2915 378 
Q 2478 -94 1900 -94 
Q 1647 -94 1401 -15 
Q 1156 63 941 194 
L 709 -166 
L 516 -122 
Q 531 109 537 434 
Q 544 759 544 1063 
L 544 4113 
Q 544 4219 495 4325 
Q 447 4431 372 4478 
Q 313 4519 173 4539 
Q 34 4559 -50 4566 
L -50 4766 
L 1081 4838 
L 1125 4791 
L 1125 2759 
L 1147 2753 
Q 1341 2959 1570 3062 
Q 1800 3166 2022 3166 
Q 2591 3166 2972 2716 
Q 3353 2266 3353 1544 
z
M 2700 1522 
Q 2700 1753 2650 1993 
Q 2600 2234 2494 2413 
Q 2388 2594 2216 2706 
Q 2044 2819 1803 2819 
Q 1584 2819 1420 2733 
Q 1256 2647 1125 2500 
L 1125 706 
Q 1144 631 1198 531 
Q 1253 431 1347 341 
Q 1441 253 1559 198 
Q 1678 144 1850 144 
Q 2231 144 2465 512 
Q 2700 881 2700 1522 
z
" transform="scale(0.015625)"/>
      </defs>
      <use xlink:href="#Georgia-32"/>
      <use xlink:href="#Georgia-35" x="55.859375"/>
      <use xlink:href="#Georgia-36" x="108.691406"/>
      <use xlink:href="#Georgia-2c" x="165.283203"/>
      <use xlink:href="#Georgia-20" x="192.236328"/>
      <use xlink:href="#Georgia-74" x="216.357422"/>
      <use xlink:href="#Georgia-3d" x="250.878906"/>
      <use xlink:href="#Georgia-31" x="315.185547"/>
      <use xlink:href="#Georgia-2e" x="358.154297"/>
      <use xlink:href="#Georgia-33" x="385.107422"/>
      <use xlink:href="#Georgia-2c" x="440.283203"/>
      <use xlink:href="#Georgia-67" x="467.236328"/>
      <use xlink:href="#Georgia-67" x="518.164062"/>
      <use xlink:href="#Georgia-62" x="569.091797"/>
     </g>
    </g>
   </g>
  </g>
  <g id="axes_2">
   <g id="patch_8">
    <path d="M 747.008156 515.68 
L 993.58375 515.68 
L 993.58375 7.2 
L 747.008156 7.2 
L 747.008156 515.68 
z
" style="fill: none"/>
   </g>
   <g id="matplotlib.axis_3">
    <g id="xtick_8">
     <g id="line2d_37">
      <g>
       <use xlink:href="#m9e53581d06" x="758.216137" y="515.68" style="stroke: #000000; stroke-width: 0.8"/>
      </g>
     </g>
     <g id="text_21">
      <!-- 0 -->
      <g transform="translate(753.306137 534.775) scale(0.16 -0.16)">
       <use xlink:href="#Georgia-30"/>
      </g>
     </g>
    </g>
    <g id="xtick_9">
     <g id="line2d_38">
      <g>
       <use xlink:href="#m9e53581d06" x="829.568364" y="515.68" style="stroke: #000000; stroke-width: 0.8"/>
      </g>
     </g>
     <g id="text_22">
      <!-- 2 -->
      <g transform="translate(825.099614 534.775) scale(0.16 -0.16)">
       <use xlink:href="#Georgia-32"/>
      </g>
     </g>
    </g>
    <g id="xtick_10">
     <g id="line2d_39">
      <g>
       <use xlink:href="#m9e53581d06" x="900.920591" y="515.68" style="stroke: #000000; stroke-width: 0.8"/>
      </g>
     </g>
     <g id="text_23">
      <!-- 4 -->
      <g transform="translate(896.400591 534.775) scale(0.16 -0.16)">
       <use xlink:href="#Georgia-34"/>
      </g>
     </g>
    </g>
    <g id="xtick_11">
     <g id="line2d_40">
      <g>
       <use xlink:href="#m9e53581d06" x="972.272817" y="515.68" style="stroke: #000000; stroke-width: 0.8"/>
      </g>
     </g>
     <g id="text_24">
      <!-- 6 -->
      <g transform="translate(967.745317 534.775) scale(0.16 -0.16)">
       <use xlink:href="#Georgia-36"/>
      </g>
     </g>
    </g>
    <g id="text_25">
     <!-- $k$ -->
     <g transform="translate(864.495953 557.36375) scale(0.2 -0.2)">
      <defs>
       <path id="DejaVuSans-Oblique-6b" d="M 1172 4863 
L 1747 4863 
L 1197 2028 
L 3169 3500 
L 3916 3500 
L 1716 1825 
L 3322 0 
L 2625 0 
L 1131 1709 
L 800 0 
L 225 0 
L 1172 4863 
z
" transform="scale(0.015625)"/>
      </defs>
      <use xlink:href="#DejaVuSans-Oblique-6b" transform="translate(0 0.015625)"/>
     </g>
    </g>
   </g>
   <g id="matplotlib.axis_4">
    <g id="ytick_8">
     <g id="line2d_41">
      <g>
       <use xlink:href="#m4c5cd913aa" x="747.008156" y="434.780386" style="stroke: #000000; stroke-width: 0.8"/>
      </g>
     </g>
     <g id="text_26">
      <!-- $\mathdefault{10^{-4}}$ -->
      <g transform="translate(709.128156 440.827886) scale(0.16 -0.16)">
       <use xlink:href="#Georgia-31" transform="translate(0 0.742188)"/>
       <use xlink:href="#Georgia-30" transform="translate(42.96875 0.742188)"/>
       <use xlink:href="#Georgia-2212" transform="translate(105.188164 34.440625) scale(0.7)"/>
       <use xlink:href="#Georgia-34" transform="translate(150.202812 34.440625) scale(0.7)"/>
      </g>
     </g>
    </g>
    <g id="ytick_9">
     <g id="line2d_42">
      <g>
       <use xlink:href="#m4c5cd913aa" x="747.008156" y="345.002673" style="stroke: #000000; stroke-width: 0.8"/>
      </g>
     </g>
     <g id="text_27">
      <!-- $\mathdefault{10^{-3}}$ -->
      <g transform="translate(709.288156 351.050173) scale(0.16 -0.16)">
       <use xlink:href="#Georgia-31" transform="translate(0 0.534375)"/>
       <use xlink:href="#Georgia-30" transform="translate(42.96875 0.534375)"/>
       <use xlink:href="#Georgia-2212" transform="translate(105.188164 34.232813) scale(0.7)"/>
       <use xlink:href="#Georgia-33" transform="translate(150.202812 34.232813) scale(0.7)"/>
      </g>
     </g>
    </g>
    <g id="ytick_10">
     <g id="line2d_43">
      <g>
       <use xlink:href="#m4c5cd913aa" x="747.008156" y="255.22496" style="stroke: #000000; stroke-width: 0.8"/>
      </g>
     </g>
     <g id="text_28">
      <!-- $\mathdefault{10^{-2}}$ -->
      <g transform="translate(709.288156 261.27246) scale(0.16 -0.16)">
       <use xlink:href="#Georgia-31" transform="translate(0 0.534375)"/>
       <use xlink:href="#Georgia-30" transform="translate(42.96875 0.534375)"/>
       <use xlink:href="#Georgia-2212" transform="translate(105.188164 34.232813) scale(0.7)"/>
       <use xlink:href="#Georgia-32" transform="translate(150.202812 34.232813) scale(0.7)"/>
      </g>
     </g>
    </g>
    <g id="ytick_11">
     <g id="line2d_44">
      <g>
       <use xlink:href="#m4c5cd913aa" x="747.008156" y="165.447247" style="stroke: #000000; stroke-width: 0.8"/>
      </g>
     </g>
     <g id="text_29">
      <!-- $\mathdefault{10^{-1}}$ -->
      <g transform="translate(710.728156 171.494747) scale(0.16 -0.16)">
       <use xlink:href="#Georgia-31" transform="translate(0 0.534375)"/>
       <use xlink:href="#Georgia-30" transform="translate(42.96875 0.534375)"/>
       <use xlink:href="#Georgia-2212" transform="translate(105.188164 34.232813) scale(0.7)"/>
       <use xlink:href="#Georgia-31" transform="translate(150.202812 34.232813) scale(0.7)"/>
      </g>
     </g>
    </g>
    <g id="ytick_12">
     <g id="line2d_45">
      <g>
       <use xlink:href="#m4c5cd913aa" x="747.008156" y="75.669534" style="stroke: #000000; stroke-width: 0.8"/>
      </g>
     </g>
     <g id="text_30">
      <!-- $\mathdefault{10^{0}}$ -->
      <g transform="translate(715.848156 81.717034) scale(0.16 -0.16)">
       <use xlink:href="#Georgia-31" transform="translate(0 0.534375)"/>
       <use xlink:href="#Georgia-30" transform="translate(42.96875 0.534375)"/>
       <use xlink:href="#Georgia-30" transform="translate(105.188164 34.232813) scale(0.7)"/>
      </g>
     </g>
    </g>
    <g id="ytick_13">
     <g id="line2d_46">
      <defs>
       <path id="m91c192d776" d="M 0 0 
L -2 0 
" style="stroke: #000000; stroke-width: 0.6"/>
      </defs>
      <g>
       <use xlink:href="#m91c192d776" x="747.008156" y="497.532315" style="stroke: #000000; stroke-width: 0.6"/>
      </g>
     </g>
    </g>
    <g id="ytick_14">
     <g id="line2d_47">
      <g>
       <use xlink:href="#m91c192d776" x="747.008156" y="481.723244" style="stroke: #000000; stroke-width: 0.6"/>
      </g>
     </g>
    </g>
    <g id="ytick_15">
     <g id="line2d_48">
      <g>
       <use xlink:href="#m91c192d776" x="747.008156" y="470.50653" style="stroke: #000000; stroke-width: 0.6"/>
      </g>
     </g>
    </g>
    <g id="ytick_16">
     <g id="line2d_49">
      <g>
       <use xlink:href="#m91c192d776" x="747.008156" y="461.806171" style="stroke: #000000; stroke-width: 0.6"/>
      </g>
     </g>
    </g>
    <g id="ytick_17">
     <g id="line2d_50">
      <g>
       <use xlink:href="#m91c192d776" x="747.008156" y="454.69746" style="stroke: #000000; stroke-width: 0.6"/>
      </g>
     </g>
    </g>
    <g id="ytick_18">
     <g id="line2d_51">
      <g>
       <use xlink:href="#m91c192d776" x="747.008156" y="448.68713" style="stroke: #000000; stroke-width: 0.6"/>
      </g>
     </g>
    </g>
    <g id="ytick_19">
     <g id="line2d_52">
      <g>
       <use xlink:href="#m91c192d776" x="747.008156" y="443.480746" style="stroke: #000000; stroke-width: 0.6"/>
      </g>
     </g>
    </g>
    <g id="ytick_20">
     <g id="line2d_53">
      <g>
       <use xlink:href="#m91c192d776" x="747.008156" y="438.888389" style="stroke: #000000; stroke-width: 0.6"/>
      </g>
     </g>
    </g>
    <g id="ytick_21">
     <g id="line2d_54">
      <g>
       <use xlink:href="#m91c192d776" x="747.008156" y="407.754602" style="stroke: #000000; stroke-width: 0.6"/>
      </g>
     </g>
    </g>
    <g id="ytick_22">
     <g id="line2d_55">
      <g>
       <use xlink:href="#m91c192d776" x="747.008156" y="391.945531" style="stroke: #000000; stroke-width: 0.6"/>
      </g>
     </g>
    </g>
    <g id="ytick_23">
     <g id="line2d_56">
      <g>
       <use xlink:href="#m91c192d776" x="747.008156" y="380.728817" style="stroke: #000000; stroke-width: 0.6"/>
      </g>
     </g>
    </g>
    <g id="ytick_24">
     <g id="line2d_57">
      <g>
       <use xlink:href="#m91c192d776" x="747.008156" y="372.028458" style="stroke: #000000; stroke-width: 0.6"/>
      </g>
     </g>
    </g>
    <g id="ytick_25">
     <g id="line2d_58">
      <g>
       <use xlink:href="#m91c192d776" x="747.008156" y="364.919747" style="stroke: #000000; stroke-width: 0.6"/>
      </g>
     </g>
    </g>
    <g id="ytick_26">
     <g id="line2d_59">
      <g>
       <use xlink:href="#m91c192d776" x="747.008156" y="358.909417" style="stroke: #000000; stroke-width: 0.6"/>
      </g>
     </g>
    </g>
    <g id="ytick_27">
     <g id="line2d_60">
      <g>
       <use xlink:href="#m91c192d776" x="747.008156" y="353.703033" style="stroke: #000000; stroke-width: 0.6"/>
      </g>
     </g>
    </g>
    <g id="ytick_28">
     <g id="line2d_61">
      <g>
       <use xlink:href="#m91c192d776" x="747.008156" y="349.110676" style="stroke: #000000; stroke-width: 0.6"/>
      </g>
     </g>
    </g>
    <g id="ytick_29">
     <g id="line2d_62">
      <g>
       <use xlink:href="#m91c192d776" x="747.008156" y="317.976889" style="stroke: #000000; stroke-width: 0.6"/>
      </g>
     </g>
    </g>
    <g id="ytick_30">
     <g id="line2d_63">
      <g>
       <use xlink:href="#m91c192d776" x="747.008156" y="302.167818" style="stroke: #000000; stroke-width: 0.6"/>
      </g>
     </g>
    </g>
    <g id="ytick_31">
     <g id="line2d_64">
      <g>
       <use xlink:href="#m91c192d776" x="747.008156" y="290.951104" style="stroke: #000000; stroke-width: 0.6"/>
      </g>
     </g>
    </g>
    <g id="ytick_32">
     <g id="line2d_65">
      <g>
       <use xlink:href="#m91c192d776" x="747.008156" y="282.250745" style="stroke: #000000; stroke-width: 0.6"/>
      </g>
     </g>
    </g>
    <g id="ytick_33">
     <g id="line2d_66">
      <g>
       <use xlink:href="#m91c192d776" x="747.008156" y="275.142034" style="stroke: #000000; stroke-width: 0.6"/>
      </g>
     </g>
    </g>
    <g id="ytick_34">
     <g id="line2d_67">
      <g>
       <use xlink:href="#m91c192d776" x="747.008156" y="269.131704" style="stroke: #000000; stroke-width: 0.6"/>
      </g>
     </g>
    </g>
    <g id="ytick_35">
     <g id="line2d_68">
      <g>
       <use xlink:href="#m91c192d776" x="747.008156" y="263.92532" style="stroke: #000000; stroke-width: 0.6"/>
      </g>
     </g>
    </g>
    <g id="ytick_36">
     <g id="line2d_69">
      <g>
       <use xlink:href="#m91c192d776" x="747.008156" y="259.332963" style="stroke: #000000; stroke-width: 0.6"/>
      </g>
     </g>
    </g>
    <g id="ytick_37">
     <g id="line2d_70">
      <g>
       <use xlink:href="#m91c192d776" x="747.008156" y="228.199176" style="stroke: #000000; stroke-width: 0.6"/>
      </g>
     </g>
    </g>
    <g id="ytick_38">
     <g id="line2d_71">
      <g>
       <use xlink:href="#m91c192d776" x="747.008156" y="212.390105" style="stroke: #000000; stroke-width: 0.6"/>
      </g>
     </g>
    </g>
    <g id="ytick_39">
     <g id="line2d_72">
      <g>
       <use xlink:href="#m91c192d776" x="747.008156" y="201.173391" style="stroke: #000000; stroke-width: 0.6"/>
      </g>
     </g>
    </g>
    <g id="ytick_40">
     <g id="line2d_73">
      <g>
       <use xlink:href="#m91c192d776" x="747.008156" y="192.473032" style="stroke: #000000; stroke-width: 0.6"/>
      </g>
     </g>
    </g>
    <g id="ytick_41">
     <g id="line2d_74">
      <g>
       <use xlink:href="#m91c192d776" x="747.008156" y="185.364321" style="stroke: #000000; stroke-width: 0.6"/>
      </g>
     </g>
    </g>
    <g id="ytick_42">
     <g id="line2d_75">
      <g>
       <use xlink:href="#m91c192d776" x="747.008156" y="179.353991" style="stroke: #000000; stroke-width: 0.6"/>
      </g>
     </g>
    </g>
    <g id="ytick_43">
     <g id="line2d_76">
      <g>
       <use xlink:href="#m91c192d776" x="747.008156" y="174.147607" style="stroke: #000000; stroke-width: 0.6"/>
      </g>
     </g>
    </g>
    <g id="ytick_44">
     <g id="line2d_77">
      <g>
       <use xlink:href="#m91c192d776" x="747.008156" y="169.55525" style="stroke: #000000; stroke-width: 0.6"/>
      </g>
     </g>
    </g>
    <g id="ytick_45">
     <g id="line2d_78">
      <g>
       <use xlink:href="#m91c192d776" x="747.008156" y="138.421463" style="stroke: #000000; stroke-width: 0.6"/>
      </g>
     </g>
    </g>
    <g id="ytick_46">
     <g id="line2d_79">
      <g>
       <use xlink:href="#m91c192d776" x="747.008156" y="122.612392" style="stroke: #000000; stroke-width: 0.6"/>
      </g>
     </g>
    </g>
    <g id="ytick_47">
     <g id="line2d_80">
      <g>
       <use xlink:href="#m91c192d776" x="747.008156" y="111.395678" style="stroke: #000000; stroke-width: 0.6"/>
      </g>
     </g>
    </g>
    <g id="ytick_48">
     <g id="line2d_81">
      <g>
       <use xlink:href="#m91c192d776" x="747.008156" y="102.695319" style="stroke: #000000; stroke-width: 0.6"/>
      </g>
     </g>
    </g>
    <g id="ytick_49">
     <g id="line2d_82">
      <g>
       <use xlink:href="#m91c192d776" x="747.008156" y="95.586608" style="stroke: #000000; stroke-width: 0.6"/>
      </g>
     </g>
    </g>
    <g id="ytick_50">
     <g id="line2d_83">
      <g>
       <use xlink:href="#m91c192d776" x="747.008156" y="89.576278" style="stroke: #000000; stroke-width: 0.6"/>
      </g>
     </g>
    </g>
    <g id="ytick_51">
     <g id="line2d_84">
      <g>
       <use xlink:href="#m91c192d776" x="747.008156" y="84.369894" style="stroke: #000000; stroke-width: 0.6"/>
      </g>
     </g>
    </g>
    <g id="ytick_52">
     <g id="line2d_85">
      <g>
       <use xlink:href="#m91c192d776" x="747.008156" y="79.777537" style="stroke: #000000; stroke-width: 0.6"/>
      </g>
     </g>
    </g>
    <g id="ytick_53">
     <g id="line2d_86">
      <g>
       <use xlink:href="#m91c192d776" x="747.008156" y="48.64375" style="stroke: #000000; stroke-width: 0.6"/>
      </g>
     </g>
    </g>
    <g id="ytick_54">
     <g id="line2d_87">
      <g>
       <use xlink:href="#m91c192d776" x="747.008156" y="32.834679" style="stroke: #000000; stroke-width: 0.6"/>
      </g>
     </g>
    </g>
    <g id="ytick_55">
     <g id="line2d_88">
      <g>
       <use xlink:href="#m91c192d776" x="747.008156" y="21.617965" style="stroke: #000000; stroke-width: 0.6"/>
      </g>
     </g>
    </g>
    <g id="ytick_56">
     <g id="line2d_89">
      <g>
       <use xlink:href="#m91c192d776" x="747.008156" y="12.917606" style="stroke: #000000; stroke-width: 0.6"/>
      </g>
     </g>
    </g>
    <g id="text_31">
     <!-- $|y-y_{exact}|$ -->
     <g transform="translate(700.328156 311.94) rotate(-90) scale(0.2 -0.2)">
      <defs>
       <path id="DejaVuSans-7c" d="M 1344 4891 
L 1344 -1509 
L 813 -1509 
L 813 4891 
L 1344 4891 
z
" transform="scale(0.015625)"/>
       <path id="DejaVuSans-2212" d="M 678 2272 
L 4684 2272 
L 4684 1741 
L 678 1741 
L 678 2272 
z
" transform="scale(0.015625)"/>
       <path id="DejaVuSans-Oblique-65" d="M 3078 2063 
Q 3088 2113 3092 2166 
Q 3097 2219 3097 2272 
Q 3097 2653 2873 2875 
Q 2650 3097 2266 3097 
Q 1838 3097 1509 2826 
Q 1181 2556 1013 2059 
L 3078 2063 
z
M 3578 1613 
L 903 1613 
Q 884 1494 878 1425 
Q 872 1356 872 1306 
Q 872 872 1139 634 
Q 1406 397 1894 397 
Q 2269 397 2603 481 
Q 2938 566 3225 728 
L 3116 159 
Q 2806 34 2476 -28 
Q 2147 -91 1806 -91 
Q 1078 -91 686 257 
Q 294 606 294 1247 
Q 294 1794 489 2264 
Q 684 2734 1063 3103 
Q 1306 3334 1642 3459 
Q 1978 3584 2356 3584 
Q 2950 3584 3301 3228 
Q 3653 2872 3653 2272 
Q 3653 2128 3634 1964 
Q 3616 1800 3578 1613 
z
" transform="scale(0.015625)"/>
       <path id="DejaVuSans-Oblique-61" d="M 3438 1997 
L 3047 0 
L 2472 0 
L 2578 531 
Q 2325 219 2001 64 
Q 1678 -91 1281 -91 
Q 834 -91 548 182 
Q 263 456 263 884 
Q 263 1497 752 1853 
Q 1241 2209 2100 2209 
L 2900 2209 
L 2931 2363 
Q 2938 2388 2941 2417 
Q 2944 2447 2944 2509 
Q 2944 2788 2717 2942 
Q 2491 3097 2081 3097 
Q 1800 3097 1504 3025 
Q 1209 2953 897 2809 
L 997 3341 
Q 1322 3463 1633 3523 
Q 1944 3584 2234 3584 
Q 2853 3584 3176 3315 
Q 3500 3047 3500 2534 
Q 3500 2431 3484 2292 
Q 3469 2153 3438 1997 
z
M 2816 1759 
L 2241 1759 
Q 1534 1759 1195 1570 
Q 856 1381 856 984 
Q 856 709 1029 553 
Q 1203 397 1509 397 
Q 1978 397 2328 733 
Q 2678 1069 2791 1631 
L 2816 1759 
z
" transform="scale(0.015625)"/>
       <path id="DejaVuSans-Oblique-63" d="M 3431 3366 
L 3316 2797 
Q 3109 2947 2876 3022 
Q 2644 3097 2394 3097 
Q 2119 3097 1870 3000 
Q 1622 2903 1453 2725 
Q 1184 2453 1037 2087 
Q 891 1722 891 1331 
Q 891 859 1127 628 
Q 1363 397 1844 397 
Q 2081 397 2348 469 
Q 2616 541 2906 684 
L 2797 116 
Q 2547 13 2283 -39 
Q 2019 -91 1741 -91 
Q 1044 -91 669 257 
Q 294 606 294 1253 
Q 294 1797 489 2255 
Q 684 2713 1069 3078 
Q 1331 3328 1684 3456 
Q 2038 3584 2456 3584 
Q 2700 3584 2940 3529 
Q 3181 3475 3431 3366 
z
" transform="scale(0.015625)"/>
       <path id="DejaVuSans-Oblique-74" d="M 2706 3500 
L 2619 3053 
L 1472 3053 
L 1100 1153 
Q 1081 1047 1072 975 
Q 1063 903 1063 863 
Q 1063 663 1183 572 
Q 1303 481 1569 481 
L 2150 481 
L 2053 0 
L 1503 0 
Q 991 0 739 200 
Q 488 400 488 806 
Q 488 878 497 964 
Q 506 1050 525 1153 
L 897 3053 
L 409 3053 
L 500 3500 
L 978 3500 
L 1172 4494 
L 1747 4494 
L 1556 3500 
L 2706 3500 
z
" transform="scale(0.015625)"/>
      </defs>
      <use xlink:href="#DejaVuSans-7c" transform="translate(0 0.578125)"/>
      <use xlink:href="#DejaVuSans-Oblique-79" transform="translate(33.691406 0.578125)"/>
      <use xlink:href="#DejaVuSans-2212" transform="translate(112.353516 0.578125)"/>
      <use xlink:href="#DejaVuSans-Oblique-79" transform="translate(215.625 0.578125)"/>
      <use xlink:href="#DejaVuSans-Oblique-65" transform="translate(274.804688 -15.828125) scale(0.7)"/>
      <use xlink:href="#DejaVuSans-Oblique-78" transform="translate(317.871094 -15.828125) scale(0.7)"/>
      <use xlink:href="#DejaVuSans-Oblique-61" transform="translate(359.296875 -15.828125) scale(0.7)"/>
      <use xlink:href="#DejaVuSans-Oblique-63" transform="translate(402.192383 -15.828125) scale(0.7)"/>
      <use xlink:href="#DejaVuSans-Oblique-74" transform="translate(440.678711 -15.828125) scale(0.7)"/>
      <use xlink:href="#DejaVuSans-7c" transform="translate(470.859375 0.578125)"/>
     </g>
    </g>
   </g>
   <g id="line2d_90">
    <path d="M 758.216137 492.567273 
L 760.480376 184.996636 
L 762.744615 224.628948 
L 765.008854 205.832986 
L 767.273092 166.323001 
L 769.537331 191.20176 
L 771.80157 252.540659 
L 774.065808 206.319937 
L 776.330047 197.671968 
L 778.594286 222.783535 
L 780.858524 374.424567 
L 783.122763 188.179708 
L 785.387002 298.117592 
L 787.651241 220.454129 
L 789.915479 201.764655 
L 792.179718 216.360815 
L 794.443957 209.916161 
L 796.708195 240.777077 
L 798.972434 193.414405 
L 801.236673 231.981677 
L 803.500911 236.119763 
L 805.76515 192.800736 
L 808.029389 256.886456 
L 810.293627 206.106856 
L 812.557866 211.121149 
L 814.822105 202.403351 
L 817.086344 207.154425 
L 819.350582 342.169279 
L 821.614821 188.755223 
L 823.87906 249.183604 
L 826.143298 209.931021 
L 828.407537 193.678143 
L 830.671776 222.494906 
L 832.936014 195.392506 
L 835.200253 228.844832 
L 837.464492 189.575435 
L 839.728731 205.921483 
L 841.992969 229.931326 
L 844.257208 182.497814 
L 846.521447 273.635174 
L 848.785685 187.88555 
L 851.049924 189.586194 
L 853.314163 197.833502 
L 855.578401 174.026645 
L 857.84264 368.405543 
L 860.106879 169.34814 
L 862.371118 178.069665 
L 864.635356 165.776729 
L 866.899595 154.692551 
L 869.163834 185.64853 
L 871.428072 185.363525 
L 873.692311 154.181383 
L 875.95655 166.335941 
L 878.220788 176.724635 
L 880.485027 170.739778 
L 882.749266 313.630251 
L 885.013504 176.8677 
L 887.277743 199.242608 
L 889.541982 195.552759 
L 891.806221 186.742352 
L 894.070459 386.626399 
L 896.334698 180.092619 
L 898.598937 224.539545 
L 900.863175 202.933414 
L 903.127414 188.865264 
L 905.391653 226.765181 
L 907.655891 194.893776 
L 909.92013 222.898001 
L 912.184369 193.374817 
L 914.448608 209.799585 
L 916.712846 248.633092 
L 918.977085 188.61171 
L 921.241324 341.913155 
L 923.505562 206.965641 
L 925.769801 202.294034 
L 928.03404 211.02693 
L 930.298278 205.957917 
L 932.562517 256.817333 
L 934.826756 192.720554 
L 937.090995 235.938455 
L 939.355233 231.896605 
L 941.619472 193.342745 
L 943.883711 240.836762 
L 946.147949 209.837508 
L 948.412188 216.273803 
L 950.676427 201.746306 
L 952.940665 220.348584 
L 955.204904 297.814601 
L 957.469143 188.149919 
L 959.733381 378.988944 
L 961.99762 222.77542 
L 964.261859 197.626374 
L 966.526098 206.353791 
L 968.790336 252.437842 
L 971.054575 191.166288 
L 973.318814 166.32568 
L 975.583052 205.878633 
L 977.847291 224.564631 
L 980.11153 184.985338 
L 982.375768 492.567273 
" clip-path="url(#p541ddc1356)" style="fill: none; stroke: #a80000; stroke-width: 3; stroke-linecap: square"/>
   </g>
   <g id="line2d_91">
    <path d="M 758.653949 30.46559 
L 760.405196 60.347398 
L 762.156443 94.618541 
L 763.032067 114.508306 
L 763.907691 137.603901 
L 764.783314 166.786377 
L 765.658938 213.357669 
L 766.534561 253.178621 
L 767.410185 209.891221 
L 768.285808 199.635405 
L 769.161432 197.448676 
L 770.037055 199.000938 
L 770.912679 202.64361 
L 771.788303 207.501215 
L 775.290797 229.624482 
L 776.16642 234.177905 
L 777.042044 238.009286 
L 777.917668 241.052664 
L 778.793291 243.374869 
L 779.668915 245.152573 
L 780.544538 246.445382 
L 781.420162 247.464575 
L 783.171409 248.96119 
L 786.673903 251.64093 
L 790.176397 254.262545 
L 791.927644 255.481742 
L 793.678892 256.630593 
L 802.435127 261.094445 
L 803.310751 261.406949 
L 805.061998 262.268354 
L 805.937621 262.573199 
L 806.813245 263.059198 
L 808.564492 263.760206 
L 809.440116 264.155581 
L 810.315739 264.351313 
L 811.191363 264.865363 
L 812.94261 265.467042 
L 813.818233 265.880893 
L 814.693857 266.037743 
L 815.569481 266.506067 
L 820.823222 268.3134 
L 821.698845 268.370434 
L 822.574469 268.901287 
L 823.450093 269.05491 
L 825.20134 269.720978 
L 826.076963 269.676773 
L 826.952587 270.251267 
L 828.703834 270.609674 
L 829.579457 271.119115 
L 830.455081 271.105485 
L 831.330705 271.633739 
L 832.206328 271.954936 
L 833.081952 271.949924 
L 833.957575 272.689669 
L 834.833199 272.7784 
L 836.584446 273.824978 
L 837.46007 273.630433 
L 838.335693 274.784726 
L 839.211317 275.125619 
L 840.08694 275.605613 
L 840.962564 276.659409 
L 841.838187 276.722042 
L 842.713811 278.192497 
L 843.589434 279.096077 
L 844.465058 279.636016 
L 845.340682 281.707307 
L 846.216305 282.378916 
L 847.967552 286.705871 
L 848.843176 287.419951 
L 849.718799 292.018831 
L 850.594423 294.527125 
L 851.470046 298.788497 
L 852.34567 305.725194 
L 853.221294 309.435103 
L 854.096917 325.380207 
L 854.972541 343.451966 
L 855.848164 380.059595 
L 856.723788 360.523371 
L 858.475035 311.174669 
L 859.350658 300.164949 
L 860.226282 300.027211 
L 861.101906 294.90505 
L 861.977529 316.827502 
L 862.853153 370.046022 
L 863.728776 278.256026 
L 864.6044 237.199032 
L 866.355647 191.672569 
L 867.23127 172.679297 
L 868.982518 139.490422 
L 869.858141 132.160888 
L 870.733765 116.031313 
L 871.609388 161.276139 
L 874.236259 217.799597 
L 875.987506 275.438315 
L 876.86313 379.212376 
L 877.738753 303.642372 
L 878.614377 291.929734 
L 879.49 286.17688 
L 880.365624 295.575521 
L 881.241247 298.781538 
L 882.116871 311.264988 
L 883.868118 362.956822 
L 884.743742 377.917088 
L 885.619365 343.321678 
L 887.370612 309.75659 
L 888.246236 306.057328 
L 889.121859 299.044225 
L 889.997483 294.704993 
L 890.873107 292.123731 
L 891.74873 287.457034 
L 892.624354 286.693453 
L 894.375601 282.310079 
L 895.251224 281.626996 
L 896.126848 279.556407 
L 897.002471 279.020759 
L 897.878095 278.12652 
L 898.753719 276.668386 
L 899.629342 276.616716 
L 900.504966 275.574473 
L 901.380589 275.104178 
L 902.256213 274.771273 
L 903.131836 273.623358 
L 904.00746 273.822293 
L 905.758707 272.780441 
L 906.634331 272.692547 
L 907.509954 271.952951 
L 908.385578 271.957776 
L 909.261201 271.63617 
L 910.136825 271.107444 
L 911.012448 271.120667 
L 911.888072 270.610882 
L 913.639319 270.252101 
L 914.514943 269.677525 
L 915.390566 269.721704 
L 917.141813 269.055599 
L 918.017437 268.901943 
L 918.89306 268.37103 
L 919.768684 268.313925 
L 925.898049 266.03787 
L 926.773672 265.881031 
L 928.52492 265.151679 
L 929.400543 264.865562 
L 930.276167 264.35152 
L 931.15179 264.155785 
L 943.41052 258.535823 
L 946.913014 256.630589 
L 949.539885 254.92895 
L 959.171744 247.464338 
L 960.047368 246.444964 
L 960.922991 245.152125 
L 961.798615 243.374603 
L 962.674238 241.05281 
L 963.549862 238.010002 
L 964.425485 234.179185 
L 965.301109 229.626095 
L 967.052356 218.78967 
L 968.803603 207.498982 
L 969.679227 202.639596 
L 970.55485 198.995772 
L 971.430474 197.444385 
L 972.306098 199.637632 
L 973.181721 209.919826 
L 974.057345 253.442323 
L 974.932968 213.137518 
L 975.808592 166.649484 
L 976.684215 137.481365 
L 977.559839 114.387234 
L 979.311086 76.638081 
L 981.062333 44.808524 
L 981.937957 30.312727 
L 981.937957 30.312727 
" clip-path="url(#p541ddc1356)" style="fill: none; stroke: #1f77b4; stroke-width: 3; stroke-linecap: square"/>
   </g>
   <g id="patch_9">
    <path d="M 747.008156 515.68 
L 747.008156 7.2 
" style="fill: none; stroke: #000000; stroke-width: 1.5; stroke-linejoin: miter; stroke-linecap: square"/>
   </g>
   <g id="patch_10">
    <path d="M 993.58375 515.68 
L 993.58375 7.2 
" style="fill: none; stroke: #000000; stroke-width: 1.5; stroke-linejoin: miter; stroke-linecap: square"/>
   </g>
   <g id="patch_11">
    <path d="M 747.008156 515.68 
L 993.58375 515.68 
" style="fill: none; stroke: #000000; stroke-width: 1.5; stroke-linejoin: miter; stroke-linecap: square"/>
   </g>
   <g id="patch_12">
    <path d="M 747.008156 7.2 
L 993.58375 7.2 
" style="fill: none; stroke: #000000; stroke-width: 1.5; stroke-linejoin: miter; stroke-linecap: square"/>
   </g>
   <g id="legend_2">
    <g id="patch_13">
     <path d="M 823.042047 510.68 
L 917.549859 510.68 
Q 919.549859 510.68 919.549859 508.68 
L 919.549859 480.22375 
Q 919.549859 478.22375 917.549859 478.22375 
L 823.042047 478.22375 
Q 821.042047 478.22375 821.042047 480.22375 
L 821.042047 508.68 
Q 821.042047 510.68 823.042047 510.68 
z
" style="fill: #ffffff; opacity: 0.8; stroke: #cccccc; stroke-linejoin: miter"/>
    </g>
    <g id="line2d_92">
     <path d="M 825.042047 486.283125 
L 835.042047 486.283125 
L 845.042047 486.283125 
" style="fill: none; stroke: #a80000; stroke-width: 3; stroke-linecap: square"/>
    </g>
    <g id="text_32">
     <!-- 256, t=1.3 -->
     <g transform="translate(853.042047 489.783125) scale(0.1 -0.1)">
      <use xlink:href="#Georgia-32"/>
      <use xlink:href="#Georgia-35" x="55.859375"/>
      <use xlink:href="#Georgia-36" x="108.691406"/>
      <use xlink:href="#Georgia-2c" x="165.283203"/>
      <use xlink:href="#Georgia-20" x="192.236328"/>
      <use xlink:href="#Georgia-74" x="216.357422"/>
      <use xlink:href="#Georgia-3d" x="250.878906"/>
      <use xlink:href="#Georgia-31" x="315.185547"/>
      <use xlink:href="#Georgia-2e" x="358.154297"/>
      <use xlink:href="#Georgia-33" x="385.107422"/>
     </g>
    </g>
    <g id="line2d_93">
     <path d="M 825.042047 501.01125 
L 835.042047 501.01125 
L 845.042047 501.01125 
" style="fill: none; stroke: #1f77b4; stroke-width: 3; stroke-linecap: square"/>
    </g>
    <g id="text_33">
     <!-- 256, t=1.3,ggb -->
     <g transform="translate(853.042047 504.51125) scale(0.1 -0.1)">
      <use xlink:href="#Georgia-32"/>
      <use xlink:href="#Georgia-35" x="55.859375"/>
      <use xlink:href="#Georgia-36" x="108.691406"/>
      <use xlink:href="#Georgia-2c" x="165.283203"/>
      <use xlink:href="#Georgia-20" x="192.236328"/>
      <use xlink:href="#Georgia-74" x="216.357422"/>
      <use xlink:href="#Georgia-3d" x="250.878906"/>
      <use xlink:href="#Georgia-31" x="315.185547"/>
      <use xlink:href="#Georgia-2e" x="358.154297"/>
      <use xlink:href="#Georgia-33" x="385.107422"/>
      <use xlink:href="#Georgia-2c" x="440.283203"/>
      <use xlink:href="#Georgia-67" x="467.236328"/>
      <use xlink:href="#Georgia-67" x="518.164062"/>
      <use xlink:href="#Georgia-62" x="569.091797"/>
     </g>
    </g>
   </g>
  </g>
 </g>
 <defs>
  <clipPath id="pb9330fca88">
   <rect x="56.88375" y="7.2" width="616.438985" height="508.48"/>
  </clipPath>
  <clipPath id="p541ddc1356">
   <rect x="747.008156" y="7.2" width="246.575594" height="508.48"/>
  </clipPath>
 </defs>
</svg>
