<?xml version="1.0" encoding="utf-8" standalone="no"?>
<!DOCTYPE svg PUBLIC "-//W3C//DTD SVG 1.1//EN"
  "http://www.w3.org/Graphics/SVG/1.1/DTD/svg11.dtd">
<svg xmlns:xlink="http://www.w3.org/1999/xlink" width="1000.79625pt" height="568.90125pt" viewBox="0 0 1000.79625 568.90125" xmlns="http://www.w3.org/2000/svg" version="1.1">
 <metadata>
  <rdf:RDF xmlns:dc="http://purl.org/dc/elements/1.1/" xmlns:cc="http://creativecommons.org/ns#" xmlns:rdf="http://www.w3.org/1999/02/22-rdf-syntax-ns#">
   <cc:Work>
    <dc:type rdf:resource="http://purl.org/dc/dcmitype/StillImage"/>
    <dc:date>2023-11-29T03:11:49.134728</dc:date>
    <dc:format>image/svg+xml</dc:format>
    <dc:creator>
     <cc:Agent>
      <dc:title>Matplotlib v3.6.2, https://matplotlib.org/</dc:title>
     </cc:Agent>
    </dc:creator>
   </cc:Work>
  </rdf:RDF>
 </metadata>
 <defs>
  <style type="text/css">*{stroke-linejoin: round; stroke-linecap: butt}</style>
 </defs>
 <g id="figure_1">
  <g id="patch_1">
   <path d="M 0 568.90125 
L 1000.79625 568.90125 
L 1000.79625 0 
L 0 0 
L 0 568.90125 
z
" style="fill: none"/>
  </g>
  <g id="axes_1">
   <g id="patch_2">
    <path d="M 70.53125 515.68 
L 677.23095 515.68 
L 677.23095 7.2 
L 70.53125 7.2 
L 70.53125 515.68 
z
" style="fill: none"/>
   </g>
   <g id="matplotlib.axis_1">
    <g id="xtick_1">
     <g id="line2d_1">
      <path d="M 98.108509 515.68 
L 98.108509 7.2 
" clip-path="url(#p1a3cc84a08)" style="fill: none; stroke: #b0b0b0; stroke-width: 0.8; stroke-linecap: square"/>
     </g>
     <g id="line2d_2">
      <defs>
       <path id="m247306df6f" d="M 0 0 
L 0 3.5 
" style="stroke: #000000; stroke-width: 0.8"/>
      </defs>
      <g>
       <use xlink:href="#m247306df6f" x="98.108509" y="515.68" style="stroke: #000000; stroke-width: 0.8"/>
      </g>
     </g>
     <g id="text_1">
      <!-- 0 -->
      <g transform="translate(93.198509 534.775) scale(0.16 -0.16)">
       <defs>
        <path id="Georgia-30" d="M 3209 2919 
Q 3409 2678 3507 2354 
Q 3606 2031 3606 1678 
Q 3606 1253 3484 917 
Q 3363 581 3150 359 
Q 2931 131 2631 15 
Q 2331 -100 1963 -100 
Q 1559 -100 1243 34 
Q 928 169 731 403 
Q 525 647 423 973 
Q 322 1300 322 1678 
Q 322 2050 420 2362 
Q 519 2675 728 2928 
Q 928 3172 1243 3312 
Q 1559 3453 1966 3453 
Q 2394 3453 2700 3309 
Q 3006 3166 3209 2919 
z
M 2916 1678 
Q 2916 2422 2661 2831 
Q 2406 3241 1969 3241 
Q 1525 3241 1269 2831 
Q 1013 2422 1013 1678 
Q 1013 972 1258 542 
Q 1503 113 1963 113 
Q 2422 113 2669 542 
Q 2916 972 2916 1678 
z
" transform="scale(0.015625)"/>
       </defs>
       <use xlink:href="#Georgia-30"/>
      </g>
     </g>
    </g>
    <g id="xtick_2">
     <g id="line2d_3">
      <path d="M 185.889651 515.68 
L 185.889651 7.2 
" clip-path="url(#p1a3cc84a08)" style="fill: none; stroke: #b0b0b0; stroke-width: 0.8; stroke-linecap: square"/>
     </g>
     <g id="line2d_4">
      <g>
       <use xlink:href="#m247306df6f" x="185.889651" y="515.68" style="stroke: #000000; stroke-width: 0.8"/>
      </g>
     </g>
     <g id="text_2">
      <!-- 1 -->
      <g transform="translate(182.452151 534.775) scale(0.16 -0.16)">
       <defs>
        <path id="Georgia-31" d="M 2528 0 
L 422 0 
L 422 222 
Q 516 228 714 248 
Q 913 269 988 291 
Q 1084 322 1136 392 
Q 1188 463 1188 603 
L 1188 2797 
L 409 2797 
L 409 3059 
L 581 3059 
Q 919 3059 1186 3184 
Q 1453 3309 1569 3453 
L 1828 3453 
Q 1819 3250 1809 2978 
Q 1800 2706 1800 2491 
L 1800 638 
Q 1800 528 1848 442 
Q 1897 356 1988 316 
Q 2069 281 2253 253 
Q 2438 225 2528 222 
L 2528 0 
z
" transform="scale(0.015625)"/>
       </defs>
       <use xlink:href="#Georgia-31"/>
      </g>
     </g>
    </g>
    <g id="xtick_3">
     <g id="line2d_5">
      <path d="M 273.670793 515.68 
L 273.670793 7.2 
" clip-path="url(#p1a3cc84a08)" style="fill: none; stroke: #b0b0b0; stroke-width: 0.8; stroke-linecap: square"/>
     </g>
     <g id="line2d_6">
      <g>
       <use xlink:href="#m247306df6f" x="273.670793" y="515.68" style="stroke: #000000; stroke-width: 0.8"/>
      </g>
     </g>
     <g id="text_3">
      <!-- 2 -->
      <g transform="translate(269.202043 534.775) scale(0.16 -0.16)">
       <defs>
        <path id="Georgia-32" d="M 3272 0 
L 344 0 
L 344 425 
Q 428 522 578 642 
Q 728 763 934 903 
Q 1059 988 1234 1088 
Q 1409 1188 1631 1306 
Q 1878 1438 2011 1538 
Q 2144 1638 2253 1784 
Q 2325 1881 2369 2026 
Q 2413 2172 2413 2441 
Q 2413 2831 2203 3014 
Q 1994 3197 1666 3197 
Q 1463 3197 1281 3117 
Q 1100 3038 1009 2897 
Q 1031 2797 1064 2659 
Q 1097 2522 1097 2391 
Q 1097 2272 998 2180 
Q 900 2088 706 2088 
Q 550 2088 465 2195 
Q 381 2303 381 2484 
Q 381 2653 475 2823 
Q 569 2994 744 3138 
Q 916 3278 1169 3365 
Q 1422 3453 1716 3453 
Q 2356 3453 2732 3167 
Q 3109 2881 3109 2403 
Q 3109 2175 3042 1987 
Q 2975 1800 2825 1656 
Q 2659 1497 2437 1383 
Q 2216 1269 1759 1066 
Q 1488 944 1253 811 
Q 1019 678 869 553 
L 3272 553 
L 3272 0 
z
" transform="scale(0.015625)"/>
       </defs>
       <use xlink:href="#Georgia-32"/>
      </g>
     </g>
    </g>
    <g id="xtick_4">
     <g id="line2d_7">
      <path d="M 361.451935 515.68 
L 361.451935 7.2 
" clip-path="url(#p1a3cc84a08)" style="fill: none; stroke: #b0b0b0; stroke-width: 0.8; stroke-linecap: square"/>
     </g>
     <g id="line2d_8">
      <g>
       <use xlink:href="#m247306df6f" x="361.451935" y="515.68" style="stroke: #000000; stroke-width: 0.8"/>
      </g>
     </g>
     <g id="text_4">
      <!-- 3 -->
      <g transform="translate(357.038185 534.775) scale(0.16 -0.16)">
       <defs>
        <path id="Georgia-33" d="M 1522 -1141 
Q 1228 -1141 984 -1067 
Q 741 -994 566 -869 
Q 391 -744 295 -581 
Q 200 -419 200 -247 
Q 200 -94 275 29 
Q 350 153 516 153 
Q 703 153 801 61 
Q 900 -31 900 -150 
Q 900 -250 867 -403 
Q 834 -556 816 -622 
Q 838 -650 895 -697 
Q 953 -744 1038 -781 
Q 1138 -828 1247 -856 
Q 1356 -884 1556 -884 
Q 1744 -884 1917 -821 
Q 2091 -759 2222 -622 
Q 2359 -478 2436 -286 
Q 2513 -94 2513 219 
Q 2513 388 2477 553 
Q 2441 719 2344 841 
Q 2247 963 2080 1030 
Q 1913 1097 1656 1097 
L 1247 1097 
L 1247 1456 
L 1519 1456 
Q 1950 1456 2140 1693 
Q 2331 1931 2331 2409 
Q 2331 2800 2147 2998 
Q 1963 3197 1625 3197 
Q 1463 3197 1358 3158 
Q 1253 3119 1188 3081 
Q 1109 3038 1059 2984 
Q 1009 2931 984 2906 
Q 1006 2806 1037 2661 
Q 1069 2516 1069 2384 
Q 1069 2269 970 2176 
Q 872 2084 681 2084 
Q 516 2084 439 2203 
Q 363 2322 363 2478 
Q 363 2641 453 2809 
Q 544 2978 722 3125 
Q 900 3272 1156 3362 
Q 1413 3453 1747 3453 
Q 2131 3453 2382 3339 
Q 2634 3225 2778 3063 
Q 2919 2903 2972 2728 
Q 3025 2553 3025 2428 
Q 3025 2272 2981 2114 
Q 2938 1956 2838 1822 
Q 2728 1675 2548 1554 
Q 2369 1434 2097 1359 
L 2097 1309 
Q 2272 1294 2470 1231 
Q 2669 1169 2828 1047 
Q 2994 919 3100 717 
Q 3206 516 3206 206 
Q 3206 -394 2725 -767 
Q 2244 -1141 1522 -1141 
z
" transform="scale(0.015625)"/>
       </defs>
       <use xlink:href="#Georgia-33"/>
      </g>
     </g>
    </g>
    <g id="xtick_5">
     <g id="line2d_9">
      <path d="M 449.233077 515.68 
L 449.233077 7.2 
" clip-path="url(#p1a3cc84a08)" style="fill: none; stroke: #b0b0b0; stroke-width: 0.8; stroke-linecap: square"/>
     </g>
     <g id="line2d_10">
      <g>
       <use xlink:href="#m247306df6f" x="449.233077" y="515.68" style="stroke: #000000; stroke-width: 0.8"/>
      </g>
     </g>
     <g id="text_5">
      <!-- 4 -->
      <g transform="translate(444.713077 534.775) scale(0.16 -0.16)">
       <defs>
        <path id="Georgia-34" d="M 3388 281 
L 2753 281 
L 2753 -1141 
L 2153 -1141 
L 2153 281 
L 153 281 
L 153 763 
L 2344 3434 
L 2753 3434 
L 2753 691 
L 3388 691 
L 3388 281 
z
M 2153 691 
L 2153 2738 
L 466 691 
L 2153 691 
z
" transform="scale(0.015625)"/>
       </defs>
       <use xlink:href="#Georgia-34"/>
      </g>
     </g>
    </g>
    <g id="xtick_6">
     <g id="line2d_11">
      <path d="M 537.014219 515.68 
L 537.014219 7.2 
" clip-path="url(#p1a3cc84a08)" style="fill: none; stroke: #b0b0b0; stroke-width: 0.8; stroke-linecap: square"/>
     </g>
     <g id="line2d_12">
      <g>
       <use xlink:href="#m247306df6f" x="537.014219" y="515.68" style="stroke: #000000; stroke-width: 0.8"/>
      </g>
     </g>
     <g id="text_6">
      <!-- 5 -->
      <g transform="translate(532.787969 534.775) scale(0.16 -0.16)">
       <defs>
        <path id="Georgia-35" d="M 2634 1466 
Q 2841 1303 2977 1047 
Q 3113 791 3113 406 
Q 3113 -266 2653 -703 
Q 2194 -1141 1488 -1141 
Q 941 -1141 562 -881 
Q 184 -622 184 -278 
Q 184 -119 262 0 
Q 341 119 503 119 
Q 691 119 789 20 
Q 888 -78 888 -194 
Q 888 -294 853 -444 
Q 819 -594 800 -666 
Q 825 -688 881 -725 
Q 938 -763 1016 -797 
Q 1097 -831 1214 -857 
Q 1331 -884 1488 -884 
Q 1688 -884 1866 -803 
Q 2044 -722 2166 -563 
Q 2300 -388 2367 -164 
Q 2434 59 2434 403 
Q 2434 844 2189 1133 
Q 1944 1422 1544 1422 
Q 1294 1422 1076 1328 
Q 859 1234 688 1016 
L 478 1097 
L 744 3353 
L 2981 3353 
L 2981 2797 
L 997 2797 
L 834 1472 
Q 975 1572 1204 1670 
Q 1434 1769 1709 1769 
Q 1938 1769 2183 1698 
Q 2428 1628 2634 1466 
z
" transform="scale(0.015625)"/>
       </defs>
       <use xlink:href="#Georgia-35"/>
      </g>
     </g>
    </g>
    <g id="xtick_7">
     <g id="line2d_13">
      <path d="M 624.795361 515.68 
L 624.795361 7.2 
" clip-path="url(#p1a3cc84a08)" style="fill: none; stroke: #b0b0b0; stroke-width: 0.8; stroke-linecap: square"/>
     </g>
     <g id="line2d_14">
      <g>
       <use xlink:href="#m247306df6f" x="624.795361" y="515.68" style="stroke: #000000; stroke-width: 0.8"/>
      </g>
     </g>
     <g id="text_7">
      <!-- 6 -->
      <g transform="translate(620.267861 534.775) scale(0.16 -0.16)">
       <defs>
        <path id="Georgia-36" d="M 3359 1441 
Q 3359 1116 3242 831 
Q 3125 547 2928 347 
Q 2700 119 2423 9 
Q 2147 -100 1847 -100 
Q 1500 -100 1219 28 
Q 938 156 741 391 
Q 541 628 431 972 
Q 322 1316 322 1744 
Q 322 2859 986 3625 
Q 1650 4391 2766 4544 
L 2822 4263 
L 2541 4213 
Q 1863 3994 1492 3531 
Q 1122 3069 1013 2409 
Q 1281 2644 1543 2741 
Q 1806 2838 2097 2838 
Q 2619 2838 2989 2438 
Q 3359 2038 3359 1441 
z
M 2681 1356 
Q 2681 1863 2448 2169 
Q 2216 2475 1825 2475 
Q 1591 2475 1389 2387 
Q 1188 2300 1000 2094 
Q 997 2056 990 1920 
Q 984 1784 984 1706 
Q 984 975 1223 561 
Q 1463 147 1853 147 
Q 2225 147 2453 470 
Q 2681 794 2681 1356 
z
" transform="scale(0.015625)"/>
       </defs>
       <use xlink:href="#Georgia-36"/>
      </g>
     </g>
    </g>
    <g id="text_8">
     <!-- $x$ -->
     <g transform="translate(367.8811 557.36375) scale(0.2 -0.2)">
      <defs>
       <path id="DejaVuSans-Oblique-78" d="M 3841 3500 
L 2234 1784 
L 3219 0 
L 2559 0 
L 1819 1388 
L 531 0 
L -166 0 
L 1556 1844 
L 641 3500 
L 1300 3500 
L 1972 2234 
L 3144 3500 
L 3841 3500 
z
" transform="scale(0.015625)"/>
      </defs>
      <use xlink:href="#DejaVuSans-Oblique-78" transform="translate(0 0.3125)"/>
     </g>
    </g>
   </g>
   <g id="matplotlib.axis_2">
    <g id="ytick_1">
     <g id="line2d_15">
      <path d="M 70.53125 437.850237 
L 677.23095 437.850237 
" clip-path="url(#p1a3cc84a08)" style="fill: none; stroke: #b0b0b0; stroke-width: 0.8; stroke-linecap: square"/>
     </g>
     <g id="line2d_16">
      <defs>
       <path id="me9a90e46f4" d="M 0 0 
L -3.5 0 
" style="stroke: #000000; stroke-width: 0.8"/>
      </defs>
      <g>
       <use xlink:href="#me9a90e46f4" x="70.53125" y="437.850237" style="stroke: #000000; stroke-width: 0.8"/>
      </g>
     </g>
     <g id="text_9">
      <!-- −1.0 -->
      <g transform="translate(32.23375 443.897737) scale(0.16 -0.16)">
       <defs>
        <path id="Georgia-2212" d="M 3650 1553 
L 466 1553 
L 466 1944 
L 3650 1944 
L 3650 1553 
z
" transform="scale(0.015625)"/>
        <path id="Georgia-2e" d="M 1297 359 
Q 1297 184 1170 60 
Q 1044 -63 869 -63 
Q 694 -63 567 60 
Q 441 184 441 359 
Q 441 534 567 661 
Q 694 788 869 788 
Q 1044 788 1170 661 
Q 1297 534 1297 359 
z
" transform="scale(0.015625)"/>
       </defs>
       <use xlink:href="#Georgia-2212"/>
       <use xlink:href="#Georgia-31" x="64.306641"/>
       <use xlink:href="#Georgia-2e" x="107.275391"/>
       <use xlink:href="#Georgia-30" x="134.228516"/>
      </g>
     </g>
    </g>
    <g id="ytick_2">
     <g id="line2d_17">
      <path d="M 70.53125 349.645118 
L 677.23095 349.645118 
" clip-path="url(#p1a3cc84a08)" style="fill: none; stroke: #b0b0b0; stroke-width: 0.8; stroke-linecap: square"/>
     </g>
     <g id="line2d_18">
      <g>
       <use xlink:href="#me9a90e46f4" x="70.53125" y="349.645118" style="stroke: #000000; stroke-width: 0.8"/>
      </g>
     </g>
     <g id="text_10">
      <!-- −0.5 -->
      <g transform="translate(30.65625 355.692618) scale(0.16 -0.16)">
       <use xlink:href="#Georgia-2212"/>
       <use xlink:href="#Georgia-30" x="64.306641"/>
       <use xlink:href="#Georgia-2e" x="125.683594"/>
       <use xlink:href="#Georgia-35" x="152.636719"/>
      </g>
     </g>
    </g>
    <g id="ytick_3">
     <g id="line2d_19">
      <path d="M 70.53125 261.44 
L 677.23095 261.44 
" clip-path="url(#p1a3cc84a08)" style="fill: none; stroke: #b0b0b0; stroke-width: 0.8; stroke-linecap: square"/>
     </g>
     <g id="line2d_20">
      <g>
       <use xlink:href="#me9a90e46f4" x="70.53125" y="261.44" style="stroke: #000000; stroke-width: 0.8"/>
      </g>
     </g>
     <g id="text_11">
      <!-- 0.0 -->
      <g transform="translate(39.57875 267.4875) scale(0.16 -0.16)">
       <use xlink:href="#Georgia-30"/>
       <use xlink:href="#Georgia-2e" x="61.376953"/>
       <use xlink:href="#Georgia-30" x="88.330078"/>
      </g>
     </g>
    </g>
    <g id="ytick_4">
     <g id="line2d_21">
      <path d="M 70.53125 173.234882 
L 677.23095 173.234882 
" clip-path="url(#p1a3cc84a08)" style="fill: none; stroke: #b0b0b0; stroke-width: 0.8; stroke-linecap: square"/>
     </g>
     <g id="line2d_22">
      <g>
       <use xlink:href="#me9a90e46f4" x="70.53125" y="173.234882" style="stroke: #000000; stroke-width: 0.8"/>
      </g>
     </g>
     <g id="text_12">
      <!-- 0.5 -->
      <g transform="translate(40.94625 179.282382) scale(0.16 -0.16)">
       <use xlink:href="#Georgia-30"/>
       <use xlink:href="#Georgia-2e" x="61.376953"/>
       <use xlink:href="#Georgia-35" x="88.330078"/>
      </g>
     </g>
    </g>
    <g id="ytick_5">
     <g id="line2d_23">
      <path d="M 70.53125 85.029763 
L 677.23095 85.029763 
" clip-path="url(#p1a3cc84a08)" style="fill: none; stroke: #b0b0b0; stroke-width: 0.8; stroke-linecap: square"/>
     </g>
     <g id="line2d_24">
      <g>
       <use xlink:href="#me9a90e46f4" x="70.53125" y="85.029763" style="stroke: #000000; stroke-width: 0.8"/>
      </g>
     </g>
     <g id="text_13">
      <!-- 1.0 -->
      <g transform="translate(42.52375 91.077263) scale(0.16 -0.16)">
       <use xlink:href="#Georgia-31"/>
       <use xlink:href="#Georgia-2e" x="42.96875"/>
       <use xlink:href="#Georgia-30" x="69.921875"/>
      </g>
     </g>
    </g>
    <g id="text_14">
     <!-- $y$ -->
     <g transform="translate(22.31875 267.44) rotate(-90) scale(0.2 -0.2)">
      <defs>
       <path id="DejaVuSans-Oblique-79" d="M 1588 -325 
Q 1188 -997 936 -1164 
Q 684 -1331 294 -1331 
L -159 -1331 
L -63 -850 
L 269 -850 
Q 509 -850 678 -719 
Q 847 -588 1056 -206 
L 1234 128 
L 459 3500 
L 1069 3500 
L 1650 819 
L 3256 3500 
L 3859 3500 
L 1588 -325 
z
" transform="scale(0.015625)"/>
      </defs>
      <use xlink:href="#DejaVuSans-Oblique-79" transform="translate(0 0.3125)"/>
     </g>
    </g>
   </g>
   <g id="line2d_25">
    <path d="M 98.108509 261.44 
L 115.775622 226.174326 
L 125.161276 207.929668 
L 132.890638 193.354547 
L 140.067902 180.290526 
L 146.69307 168.710743 
L 152.76614 158.558185 
L 158.287112 149.754507 
L 163.808085 141.392482 
L 168.776961 134.271643 
L 173.745836 127.558162 
L 178.162614 121.95002 
L 182.579393 116.694946 
L 186.996171 111.806244 
L 190.860852 107.838919 
L 194.725533 104.169273 
L 198.590214 100.804419 
L 202.454895 97.750877 
L 206.319576 95.014565 
L 209.632159 92.925681 
L 212.944743 91.076745 
L 216.257327 89.470389 
L 219.56991 88.1089 
L 222.882494 86.994218 
L 226.195078 86.127929 
L 229.507661 85.511268 
L 232.820245 85.145111 
L 236.132829 85.029981 
L 239.445412 85.166041 
L 242.757996 85.553098 
L 246.07058 86.1906 
L 249.383163 87.077641 
L 252.695747 88.212955 
L 256.008331 89.594928 
L 259.320914 91.221591 
L 262.633498 93.090629 
L 265.946082 95.199379 
L 269.258665 97.544839 
L 273.123346 100.575911 
L 276.988027 103.918738 
L 280.852708 107.566841 
L 284.717389 111.513152 
L 288.58207 115.750021 
L 292.998848 120.937386 
L 297.415627 126.480383 
L 301.832405 132.364982 
L 306.80128 139.3749 
L 311.770156 146.775829 
L 317.291129 155.428802 
L 322.812101 164.500991 
L 328.885172 174.921729 
L 335.510339 186.760139 
L 342.687604 200.062731 
L 350.969063 215.91565 
L 360.906814 235.460928 
L 376.917635 267.541186 
L 391.824261 297.249065 
L 401.209915 315.478693 
L 408.939277 330.036896 
L 416.116542 343.081656 
L 422.741709 354.640737 
L 428.814779 364.771957 
L 434.335752 373.554366 
L 439.304627 381.080424 
L 444.273503 388.223237 
L 449.242378 394.959925 
L 453.659157 400.589672 
L 458.075935 405.867212 
L 462.492713 410.779185 
L 466.357394 414.767485 
L 470.222075 418.458636 
L 474.086756 421.845485 
L 477.951437 424.921467 
L 481.816118 427.680621 
L 485.128701 429.789371 
L 488.441285 431.658409 
L 491.753869 433.285072 
L 495.066452 434.667045 
L 498.379036 435.802359 
L 501.69162 436.6894 
L 505.004203 437.326902 
L 508.316787 437.713959 
L 511.629371 437.850019 
L 514.941954 437.734889 
L 518.254538 437.368732 
L 521.567122 436.752071 
L 524.879705 435.885782 
L 528.192289 434.7711 
L 531.504873 433.409611 
L 534.817456 431.803255 
L 538.13004 429.954319 
L 541.442624 427.865435 
L 544.755208 425.539578 
L 548.619888 422.531006 
L 552.484569 419.21024 
L 556.34925 415.583714 
L 560.213931 411.658457 
L 564.078612 407.442076 
L 568.49539 402.277384 
L 572.912169 396.756212 
L 577.328947 390.892535 
L 582.297822 383.905011 
L 587.266698 376.525194 
L 592.787671 367.894094 
L 598.308644 358.842027 
L 604.381714 348.441306 
L 611.006881 336.622094 
L 618.184146 323.337069 
L 626.465605 307.500097 
L 636.403356 287.967658 
L 649.65369 261.44 
L 649.65369 261.44 
" clip-path="url(#p1a3cc84a08)" style="fill: none; stroke: #000000; stroke-linecap: square"/>
   </g>
   <g id="line2d_26">
    <defs>
     <path id="md7057153a5" d="M 0 0.4 
C 0.106081 0.4 0.207832 0.357853 0.282843 0.282843 
C 0.357853 0.207832 0.4 0.106081 0.4 0 
C 0.4 -0.106081 0.357853 -0.207832 0.282843 -0.282843 
C 0.207832 -0.357853 0.106081 -0.4 0 -0.4 
C -0.106081 -0.4 -0.207832 -0.357853 -0.282843 -0.282843 
C -0.357853 -0.207832 -0.4 -0.106081 -0.4 0 
C -0.4 0.106081 -0.357853 0.207832 -0.282843 0.282843 
C -0.207832 0.357853 -0.106081 0.4 0 0.4 
z
" style="stroke: #000000"/>
    </defs>
    <g clip-path="url(#p1a3cc84a08)">
     <use xlink:href="#md7057153a5" x="98.108509" y="261.44" style="stroke: #000000"/>
     <use xlink:href="#md7057153a5" x="103.679673" y="254.627224" style="stroke: #000000"/>
     <use xlink:href="#md7057153a5" x="109.250836" y="249.692645" style="stroke: #000000"/>
     <use xlink:href="#md7057153a5" x="114.821999" y="244.833571" style="stroke: #000000"/>
     <use xlink:href="#md7057153a5" x="120.393163" y="239.995104" style="stroke: #000000"/>
     <use xlink:href="#md7057153a5" x="125.964326" y="235.168821" style="stroke: #000000"/>
     <use xlink:href="#md7057153a5" x="131.53549" y="230.353796" style="stroke: #000000"/>
     <use xlink:href="#md7057153a5" x="137.106653" y="225.550819" style="stroke: #000000"/>
     <use xlink:href="#md7057153a5" x="142.677817" y="220.761165" style="stroke: #000000"/>
     <use xlink:href="#md7057153a5" x="148.24898" y="215.986287" style="stroke: #000000"/>
     <use xlink:href="#md7057153a5" x="153.820144" y="211.227741" style="stroke: #000000"/>
     <use xlink:href="#md7057153a5" x="159.391307" y="206.487158" style="stroke: #000000"/>
     <use xlink:href="#md7057153a5" x="164.96247" y="201.766249" style="stroke: #000000"/>
     <use xlink:href="#md7057153a5" x="170.533634" y="197.066811" style="stroke: #000000"/>
     <use xlink:href="#md7057153a5" x="176.104797" y="192.390735" style="stroke: #000000"/>
     <use xlink:href="#md7057153a5" x="181.675961" y="187.74002" style="stroke: #000000"/>
     <use xlink:href="#md7057153a5" x="187.247124" y="183.116785" style="stroke: #000000"/>
     <use xlink:href="#md7057153a5" x="192.818288" y="178.523281" style="stroke: #000000"/>
     <use xlink:href="#md7057153a5" x="198.389451" y="173.961915" style="stroke: #000000"/>
     <use xlink:href="#md7057153a5" x="203.960615" y="169.43526" style="stroke: #000000"/>
     <use xlink:href="#md7057153a5" x="209.531778" y="164.946086" style="stroke: #000000"/>
     <use xlink:href="#md7057153a5" x="215.102941" y="160.497379" style="stroke: #000000"/>
     <use xlink:href="#md7057153a5" x="220.674105" y="156.092375" style="stroke: #000000"/>
     <use xlink:href="#md7057153a5" x="226.245268" y="151.734589" style="stroke: #000000"/>
     <use xlink:href="#md7057153a5" x="231.816432" y="147.427861" style="stroke: #000000"/>
     <use xlink:href="#md7057153a5" x="237.387595" y="143.176399" style="stroke: #000000"/>
     <use xlink:href="#md7057153a5" x="242.958759" y="138.984836" style="stroke: #000000"/>
     <use xlink:href="#md7057153a5" x="248.529922" y="134.858298" style="stroke: #000000"/>
     <use xlink:href="#md7057153a5" x="254.101086" y="130.802484" style="stroke: #000000"/>
     <use xlink:href="#md7057153a5" x="259.672249" y="126.82376" style="stroke: #000000"/>
     <use xlink:href="#md7057153a5" x="265.243413" y="122.929285" style="stroke: #000000"/>
     <use xlink:href="#md7057153a5" x="270.814576" y="119.127152" style="stroke: #000000"/>
     <use xlink:href="#md7057153a5" x="276.385739" y="115.426574" style="stroke: #000000"/>
     <use xlink:href="#md7057153a5" x="281.956903" y="111.838114" style="stroke: #000000"/>
     <use xlink:href="#md7057153a5" x="287.528066" y="108.37398" style="stroke: #000000"/>
     <use xlink:href="#md7057153a5" x="293.09923" y="105.04841" style="stroke: #000000"/>
     <use xlink:href="#md7057153a5" x="298.670393" y="101.878169" style="stroke: #000000"/>
     <use xlink:href="#md7057153a5" x="304.241557" y="98.883222" style="stroke: #000000"/>
     <use xlink:href="#md7057153a5" x="309.81272" y="96.08765" style="stroke: #000000"/>
     <use xlink:href="#md7057153a5" x="315.383884" y="93.520926" style="stroke: #000000"/>
     <use xlink:href="#md7057153a5" x="320.955047" y="91.219747" style="stroke: #000000"/>
     <use xlink:href="#md7057153a5" x="326.52621" y="89.230733" style="stroke: #000000"/>
     <use xlink:href="#md7057153a5" x="332.097374" y="87.61458" style="stroke: #000000"/>
     <use xlink:href="#md7057153a5" x="337.668537" y="86.452712" style="stroke: #000000"/>
     <use xlink:href="#md7057153a5" x="343.239701" y="85.858586" style="stroke: #000000"/>
     <use xlink:href="#md7057153a5" x="348.810864" y="85.998334" style="stroke: #000000"/>
     <use xlink:href="#md7057153a5" x="354.382028" y="87.132298" style="stroke: #000000"/>
     <use xlink:href="#md7057153a5" x="359.953191" y="89.710763" style="stroke: #000000"/>
     <use xlink:href="#md7057153a5" x="365.524355" y="94.644335" style="stroke: #000000"/>
     <use xlink:href="#md7057153a5" x="371.095518" y="104.359009" style="stroke: #000000"/>
     <use xlink:href="#md7057153a5" x="376.666681" y="418.520991" style="stroke: #000000"/>
     <use xlink:href="#md7057153a5" x="382.237845" y="428.235665" style="stroke: #000000"/>
     <use xlink:href="#md7057153a5" x="387.809008" y="433.169237" style="stroke: #000000"/>
     <use xlink:href="#md7057153a5" x="393.380172" y="435.747702" style="stroke: #000000"/>
     <use xlink:href="#md7057153a5" x="398.951335" y="436.881666" style="stroke: #000000"/>
     <use xlink:href="#md7057153a5" x="404.522499" y="437.021414" style="stroke: #000000"/>
     <use xlink:href="#md7057153a5" x="410.093662" y="436.427288" style="stroke: #000000"/>
     <use xlink:href="#md7057153a5" x="415.664826" y="435.26542" style="stroke: #000000"/>
     <use xlink:href="#md7057153a5" x="421.235989" y="433.649267" style="stroke: #000000"/>
     <use xlink:href="#md7057153a5" x="426.807153" y="431.660253" style="stroke: #000000"/>
     <use xlink:href="#md7057153a5" x="432.378316" y="429.359074" style="stroke: #000000"/>
     <use xlink:href="#md7057153a5" x="437.949479" y="426.79235" style="stroke: #000000"/>
     <use xlink:href="#md7057153a5" x="443.520643" y="423.996778" style="stroke: #000000"/>
     <use xlink:href="#md7057153a5" x="449.091806" y="421.001831" style="stroke: #000000"/>
     <use xlink:href="#md7057153a5" x="454.66297" y="417.83159" style="stroke: #000000"/>
     <use xlink:href="#md7057153a5" x="460.234133" y="414.50602" style="stroke: #000000"/>
     <use xlink:href="#md7057153a5" x="465.805297" y="411.041886" style="stroke: #000000"/>
     <use xlink:href="#md7057153a5" x="471.37646" y="407.453426" style="stroke: #000000"/>
     <use xlink:href="#md7057153a5" x="476.947624" y="403.752848" style="stroke: #000000"/>
     <use xlink:href="#md7057153a5" x="482.518787" y="399.950715" style="stroke: #000000"/>
     <use xlink:href="#md7057153a5" x="488.08995" y="396.05624" style="stroke: #000000"/>
     <use xlink:href="#md7057153a5" x="493.661114" y="392.077516" style="stroke: #000000"/>
     <use xlink:href="#md7057153a5" x="499.232277" y="388.021702" style="stroke: #000000"/>
     <use xlink:href="#md7057153a5" x="504.803441" y="383.895164" style="stroke: #000000"/>
     <use xlink:href="#md7057153a5" x="510.374604" y="379.703601" style="stroke: #000000"/>
     <use xlink:href="#md7057153a5" x="515.945768" y="375.452139" style="stroke: #000000"/>
     <use xlink:href="#md7057153a5" x="521.516931" y="371.145411" style="stroke: #000000"/>
     <use xlink:href="#md7057153a5" x="527.088095" y="366.787625" style="stroke: #000000"/>
     <use xlink:href="#md7057153a5" x="532.659258" y="362.382621" style="stroke: #000000"/>
     <use xlink:href="#md7057153a5" x="538.230421" y="357.933914" style="stroke: #000000"/>
     <use xlink:href="#md7057153a5" x="543.801585" y="353.44474" style="stroke: #000000"/>
     <use xlink:href="#md7057153a5" x="549.372748" y="348.918085" style="stroke: #000000"/>
     <use xlink:href="#md7057153a5" x="554.943912" y="344.356719" style="stroke: #000000"/>
     <use xlink:href="#md7057153a5" x="560.515075" y="339.763215" style="stroke: #000000"/>
     <use xlink:href="#md7057153a5" x="566.086239" y="335.13998" style="stroke: #000000"/>
     <use xlink:href="#md7057153a5" x="571.657402" y="330.489265" style="stroke: #000000"/>
     <use xlink:href="#md7057153a5" x="577.228566" y="325.813189" style="stroke: #000000"/>
     <use xlink:href="#md7057153a5" x="582.799729" y="321.113751" style="stroke: #000000"/>
     <use xlink:href="#md7057153a5" x="588.370893" y="316.392842" style="stroke: #000000"/>
     <use xlink:href="#md7057153a5" x="593.942056" y="311.652259" style="stroke: #000000"/>
     <use xlink:href="#md7057153a5" x="599.513219" y="306.893713" style="stroke: #000000"/>
     <use xlink:href="#md7057153a5" x="605.084383" y="302.118835" style="stroke: #000000"/>
     <use xlink:href="#md7057153a5" x="610.655546" y="297.329181" style="stroke: #000000"/>
     <use xlink:href="#md7057153a5" x="616.22671" y="292.526204" style="stroke: #000000"/>
     <use xlink:href="#md7057153a5" x="621.797873" y="287.711179" style="stroke: #000000"/>
     <use xlink:href="#md7057153a5" x="627.369037" y="282.884896" style="stroke: #000000"/>
     <use xlink:href="#md7057153a5" x="632.9402" y="278.046429" style="stroke: #000000"/>
     <use xlink:href="#md7057153a5" x="638.511364" y="273.187355" style="stroke: #000000"/>
     <use xlink:href="#md7057153a5" x="644.082527" y="268.252776" style="stroke: #000000"/>
     <use xlink:href="#md7057153a5" x="649.65369" y="261.44" style="stroke: #000000"/>
    </g>
   </g>
   <g id="line2d_27">
    <path d="M 98.108509 261.44 
L 103.679673 258.033425 
L 109.250836 253.688499 
L 114.821999 247.818136 
L 120.393163 240.426138 
L 125.964326 232.156386 
L 131.53549 224.129295 
L 137.106653 217.607339 
L 142.677817 213.584889 
L 148.24898 212.424789 
L 153.820144 213.656494 
L 159.391307 216.009238 
L 164.96247 217.689236 
L 170.533634 216.839513 
L 176.104797 212.06439 
L 181.675961 202.874173 
L 187.247124 189.91817 
L 192.818288 174.924063 
L 198.389451 160.337192 
L 203.960615 148.73504 
L 209.531778 142.158337 
L 215.102941 141.532101 
L 220.674105 146.337232 
L 226.245268 154.637018 
L 231.816432 163.475779 
L 237.387595 169.570177 
L 242.958759 170.132298 
L 248.529922 163.619583 
L 254.101086 150.213234 
L 259.672249 131.884928 
L 265.243413 112.009003 
L 270.814576 94.590962 
L 276.385739 83.284963 
L 281.956903 80.436633 
L 287.528066 86.395168 
L 293.09923 99.285616 
L 298.670393 115.328941 
L 304.241557 129.667086 
L 309.81272 137.523784 
L 315.383884 135.440328 
L 320.955047 122.292711 
L 326.52621 99.832797 
L 332.097374 72.595397 
L 337.668537 47.154017 
L 343.239701 30.858491 
L 348.810864 30.312727 
L 354.382028 49.920078 
L 359.953191 90.820084 
L 365.524355 150.462474 
L 371.095518 222.928996 
L 376.666681 299.951004 
L 382.237845 372.417526 
L 387.809008 432.059916 
L 393.380172 472.959922 
L 398.951335 492.567273 
L 404.522499 492.021509 
L 410.093662 475.725983 
L 415.664826 450.284603 
L 421.235989 423.047203 
L 426.807153 400.587289 
L 432.378316 387.439672 
L 437.949479 385.356216 
L 443.520643 393.212914 
L 449.091806 407.551059 
L 454.66297 423.594384 
L 460.234133 436.484832 
L 465.805297 442.443367 
L 471.37646 439.595037 
L 476.947624 428.289038 
L 482.518787 410.870997 
L 488.08995 390.995072 
L 493.661114 372.666766 
L 499.232277 359.260417 
L 504.803441 352.747702 
L 510.374604 353.309823 
L 515.945768 359.404221 
L 521.516931 368.242982 
L 527.088095 376.542768 
L 532.659258 381.347899 
L 538.230421 380.721663 
L 543.801585 374.14496 
L 549.372748 362.542808 
L 554.943912 347.955937 
L 560.515075 332.96183 
L 566.086239 320.005827 
L 571.657402 310.81561 
L 577.228566 306.040487 
L 582.799729 305.190764 
L 588.370893 306.870762 
L 593.942056 309.223506 
L 599.513219 310.455211 
L 605.084383 309.295111 
L 610.655546 305.272661 
L 616.22671 298.750705 
L 621.797873 290.723614 
L 627.369037 282.453862 
L 632.9402 275.061864 
L 638.511364 269.191501 
L 644.082527 264.846575 
L 649.65369 261.44 
" clip-path="url(#p1a3cc84a08)" style="fill: none; stroke: #a80000; stroke-width: 3; stroke-linecap: square"/>
   </g>
   <g id="line2d_28">
    <path d="M 98.108509 261.44 
L 103.679673 256.494484 
L 109.250836 248.186277 
L 114.821999 252.905958 
L 120.393163 244.065656 
L 125.964326 227.341172 
L 131.53549 239.734095 
L 137.106653 236.017573 
L 142.677817 208.712893 
L 148.24898 221.178945 
L 153.820144 228.068841 
L 159.391307 194.748369 
L 164.96247 200.285484 
L 170.533634 217.037201 
L 176.104797 184.28825 
L 181.675961 180.547568 
L 187.247124 202.854005 
L 192.818288 174.779464 
L 198.389451 163.336192 
L 203.960615 187.327989 
L 209.531778 164.709545 
L 215.102941 148.096239 
L 220.674105 172.054178 
L 226.245268 154.068718 
L 231.816432 133.848005 
L 237.387595 157.61896 
L 242.958759 143.504945 
L 248.529922 120.095254 
L 254.101086 143.984168 
L 259.672249 133.603982 
L 265.243413 106.838168 
L 270.814576 131.035303 
L 276.385739 124.747234 
L 281.956903 94.287 
L 287.528066 118.823651 
L 293.09923 117.276148 
L 298.670393 82.679441 
L 304.241557 107.597086 
L 309.81272 111.713941 
L 315.383884 72.226041 
L 320.955047 97.821044 
L 326.52621 109.07434 
L 332.097374 63.043598 
L 337.668537 90.357973 
L 343.239701 111.693798 
L 348.810864 54.628441 
L 354.382028 87.470139 
L 359.953191 127.37793 
L 365.524355 39.374388 
L 371.095518 118.638754 
L 376.666681 404.241246 
L 382.237845 483.505612 
L 387.809008 395.50207 
L 393.380172 435.409861 
L 398.951335 468.251559 
L 404.522499 411.186202 
L 410.093662 432.522027 
L 415.664826 459.836402 
L 421.235989 413.80566 
L 426.807153 425.058956 
L 432.378316 450.653959 
L 437.949479 411.166059 
L 443.520643 415.282914 
L 449.091806 440.200559 
L 454.66297 405.603852 
L 460.234133 404.056349 
L 465.805297 428.593 
L 471.37646 398.132766 
L 476.947624 391.844697 
L 482.518787 416.041832 
L 488.08995 389.276018 
L 493.661114 378.895832 
L 499.232277 402.784746 
L 504.803441 379.375055 
L 510.374604 365.26104 
L 515.945768 389.031995 
L 521.516931 368.811282 
L 527.088095 350.825822 
L 532.659258 374.783761 
L 538.230421 358.170455 
L 543.801585 335.552011 
L 549.372748 359.543808 
L 554.943912 348.100536 
L 560.515075 320.025995 
L 566.086239 342.332432 
L 571.657402 338.59175 
L 577.228566 305.842799 
L 582.799729 322.594516 
L 588.370893 328.131631 
L 593.942056 294.811159 
L 599.513219 301.701055 
L 605.084383 314.167107 
L 610.655546 286.862427 
L 616.22671 283.145905 
L 621.797873 295.538828 
L 627.369037 278.814344 
L 632.9402 269.974042 
L 638.511364 274.693723 
L 644.082527 266.385516 
L 649.65369 261.44 
" clip-path="url(#p1a3cc84a08)" style="fill: none; stroke: #1f77b4; stroke-width: 3; stroke-linecap: square"/>
   </g>
   <g id="line2d_29">
    <path d="M 98.108509 261.440279 
L 103.679673 254.220179 
L 109.250836 254.581607 
L 114.821999 252.695461 
L 120.393163 233.973088 
L 125.964326 249.594401 
L 131.53549 231.05685 
L 137.106653 222.71889 
L 142.677817 237.392317 
L 148.24898 208.630817 
L 153.820144 215.769948 
L 159.391307 216.944978 
L 164.96247 193.968908 
L 170.533634 203.784072 
L 176.104797 199.038453 
L 181.675961 180.168764 
L 187.247124 191.102715 
L 192.818288 182.896397 
L 198.389451 165.912916 
L 203.960615 180.0763 
L 209.531778 165.591789 
L 215.102941 153.722094 
L 220.674105 168.61356 
L 226.245268 148.208534 
L 231.816432 143.529213 
L 237.387595 156.009555 
L 242.958759 131.898097 
L 248.529922 134.569148 
L 254.101086 142.671708 
L 259.672249 116.969298 
L 265.243413 126.638054 
L 270.814576 128.905988 
L 276.385739 103.692445 
L 281.956903 119.735957 
L 287.528066 114.956474 
L 293.09923 92.466526 
L 298.670393 113.929459 
L 304.241557 101.16098 
L 309.81272 83.794307 
L 315.383884 109.472425 
L 320.955047 87.981374 
L 326.52621 78.354295 
L 332.097374 107.127332 
L 337.668537 75.914429 
L 343.239701 77.309781 
L 348.810864 109.223643 
L 354.382028 64.756055 
L 359.953191 83.487009 
L 365.524355 128.080753 
L 371.095518 41.650498 
L 376.666681 481.231995 
L 382.237845 394.793855 
L 387.809008 439.396887 
L 393.380172 458.125396 
L 398.951335 413.647144 
L 404.522499 445.58541 
L 410.093662 446.949448 
L 415.664826 415.762787 
L 421.235989 444.52714 
L 426.807153 434.884761 
L 432.378316 413.429981 
L 437.949479 439.063143 
L 443.520643 421.733874 
L 449.091806 408.948307 
L 454.66297 430.404125 
L 460.234133 407.938817 
L 465.805297 403.12989 
L 471.37646 419.195197 
L 476.947624 393.973726 
L 482.518787 396.237505 
L 488.08995 405.915528 
L 493.661114 380.206102 
L 499.232277 388.309919 
L 504.803441 390.984257 
L 510.374604 366.868837 
L 515.945768 379.350587 
L 521.516931 374.672934 
L 527.088095 354.265097 
L 532.659258 369.158084 
L 538.230421 357.289153 
L 543.801585 342.802555 
L 549.372748 356.967487 
L 554.943912 339.984163 
L 560.515075 331.776337 
L 566.086239 342.711748 
L 571.657402 323.841836 
L 577.228566 319.09516 
L 582.799729 328.911647 
L 588.370893 305.93512 
L 593.942056 307.109438 
L 599.513219 314.249746 
L 605.084383 285.487646 
L 610.655546 300.160622 
L 616.22671 291.823705 
L 621.797873 273.285466 
L 627.369037 288.906525 
L 632.9402 270.185091 
L 638.511364 268.298178 
L 644.082527 268.659517 
L 649.65369 261.440279 
" clip-path="url(#p1a3cc84a08)" style="fill: none; stroke: #ff7f0e; stroke-width: 3; stroke-linecap: square"/>
   </g>
   <g id="patch_3">
    <path d="M 70.53125 515.68 
L 70.53125 7.2 
" style="fill: none; stroke: #000000; stroke-width: 1.5; stroke-linejoin: miter; stroke-linecap: square"/>
   </g>
   <g id="patch_4">
    <path d="M 677.23095 515.68 
L 677.23095 7.2 
" style="fill: none; stroke: #000000; stroke-width: 1.5; stroke-linejoin: miter; stroke-linecap: square"/>
   </g>
   <g id="patch_5">
    <path d="M 70.53125 515.68 
L 677.23095 515.68 
" style="fill: none; stroke: #000000; stroke-width: 1.5; stroke-linejoin: miter; stroke-linecap: square"/>
   </g>
   <g id="patch_6">
    <path d="M 70.53125 7.2 
L 677.23095 7.2 
" style="fill: none; stroke: #000000; stroke-width: 1.5; stroke-linejoin: miter; stroke-linecap: square"/>
   </g>
   <g id="legend_1">
    <g id="patch_7">
     <path d="M 594.885637 88.840625 
L 670.23095 88.840625 
Q 672.23095 88.840625 672.23095 86.840625 
L 672.23095 14.2 
Q 672.23095 12.2 670.23095 12.2 
L 594.885637 12.2 
Q 592.885637 12.2 592.885637 14.2 
L 592.885637 86.840625 
Q 592.885637 88.840625 594.885637 88.840625 
z
" style="fill: #ffffff; opacity: 0.8; stroke: #cccccc; stroke-linejoin: miter"/>
    </g>
    <g id="line2d_30">
     <path d="M 596.885637 20.259375 
L 606.885637 20.259375 
L 616.885637 20.259375 
" style="fill: none; stroke: #000000; stroke-linecap: square"/>
    </g>
    <g id="text_15">
     <!-- Init -->
     <g transform="translate(624.885637 23.759375) scale(0.1 -0.1)">
      <defs>
       <path id="Georgia-49" d="M 2244 0 
L 247 0 
L 247 222 
Q 331 228 490 240 
Q 650 253 716 278 
Q 819 319 866 389 
Q 913 459 913 584 
L 913 3797 
Q 913 3906 878 3979 
Q 844 4053 716 4103 
Q 622 4141 480 4173 
Q 338 4206 247 4213 
L 247 4434 
L 2244 4434 
L 2244 4213 
Q 2147 4209 2012 4189 
Q 1878 4169 1778 4138 
Q 1659 4100 1618 4015 
Q 1578 3931 1578 3828 
L 1578 619 
Q 1578 516 1623 436 
Q 1669 356 1778 309 
Q 1844 284 1992 254 
Q 2141 225 2244 222 
L 2244 0 
z
" transform="scale(0.015625)"/>
       <path id="Georgia-6e" d="M 3628 0 
L 2119 0 
L 2119 206 
Q 2191 213 2277 219 
Q 2363 225 2419 244 
Q 2506 272 2548 342 
Q 2591 413 2591 525 
L 2591 2109 
Q 2591 2438 2436 2616 
Q 2281 2794 2059 2794 
Q 1894 2794 1756 2742 
Q 1619 2691 1513 2616 
Q 1409 2544 1348 2461 
Q 1288 2378 1259 2328 
L 1259 556 
Q 1259 450 1303 381 
Q 1347 313 1434 275 
Q 1500 244 1576 228 
Q 1653 213 1734 206 
L 1734 0 
L 225 0 
L 225 206 
Q 297 213 373 219 
Q 450 225 506 244 
Q 594 272 636 342 
Q 678 413 678 525 
L 678 2428 
Q 678 2534 633 2623 
Q 588 2713 506 2769 
Q 447 2806 365 2823 
Q 284 2841 191 2847 
L 191 3050 
L 1216 3119 
L 1259 3075 
L 1259 2641 
L 1275 2641 
Q 1350 2716 1462 2820 
Q 1575 2925 1675 2991 
Q 1791 3066 1950 3116 
Q 2109 3166 2309 3166 
Q 2753 3166 2967 2889 
Q 3181 2613 3181 2153 
L 3181 550 
Q 3181 441 3218 373 
Q 3256 306 3347 269 
Q 3422 238 3476 225 
Q 3531 213 3628 206 
L 3628 0 
z
" transform="scale(0.015625)"/>
       <path id="Georgia-69" d="M 1722 0 
L 231 0 
L 231 206 
Q 303 213 379 219 
Q 456 225 513 244 
Q 600 272 642 342 
Q 684 413 684 525 
L 684 2428 
Q 684 2528 639 2611 
Q 594 2694 513 2750 
Q 453 2788 340 2814 
Q 228 2841 134 2847 
L 134 3050 
L 1222 3119 
L 1266 3075 
L 1266 563 
Q 1266 453 1308 381 
Q 1350 309 1441 275 
Q 1509 247 1575 230 
Q 1641 213 1722 206 
L 1722 0 
z
M 1328 4334 
Q 1328 4156 1211 4023 
Q 1094 3891 922 3891 
Q 763 3891 645 4017 
Q 528 4144 528 4306 
Q 528 4478 645 4606 
Q 763 4734 922 4734 
Q 1100 4734 1214 4614 
Q 1328 4494 1328 4334 
z
" transform="scale(0.015625)"/>
       <path id="Georgia-74" d="M 2128 134 
Q 1925 50 1744 -8 
Q 1563 -66 1300 -66 
Q 913 -66 755 129 
Q 597 325 597 681 
L 597 2769 
L 41 2769 
L 41 3069 
L 609 3069 
L 609 4028 
L 1178 4028 
L 1178 3069 
L 2063 3069 
L 2063 2769 
L 1184 2769 
L 1184 1047 
Q 1184 853 1198 723 
Q 1213 594 1266 497 
Q 1316 406 1416 359 
Q 1516 313 1684 313 
Q 1763 313 1914 327 
Q 2066 341 2128 363 
L 2128 134 
z
" transform="scale(0.015625)"/>
      </defs>
      <use xlink:href="#Georgia-49"/>
      <use xlink:href="#Georgia-6e" x="38.964844"/>
      <use xlink:href="#Georgia-69" x="98.046875"/>
      <use xlink:href="#Georgia-74" x="127.34375"/>
     </g>
    </g>
    <g id="line2d_31">
     <g>
      <use xlink:href="#md7057153a5" x="606.885637" y="34.9875" style="stroke: #000000"/>
     </g>
    </g>
    <g id="text_16">
     <!-- Exact -->
     <g transform="translate(624.885637 38.4875) scale(0.1 -0.1)">
      <defs>
       <path id="Georgia-45" d="M 4034 1306 
L 3950 0 
L 269 0 
L 269 222 
Q 363 228 519 248 
Q 675 269 722 291 
Q 822 338 861 413 
Q 900 488 900 603 
L 900 3791 
Q 900 3894 865 3973 
Q 831 4053 722 4103 
Q 638 4144 495 4175 
Q 353 4206 269 4213 
L 269 4434 
L 3700 4434 
L 3700 3366 
L 3466 3366 
Q 3403 3603 3195 3870 
Q 2988 4138 2800 4163 
Q 2703 4175 2568 4181 
Q 2434 4188 2263 4188 
L 1566 4188 
L 1566 2425 
L 2066 2425 
Q 2306 2425 2417 2470 
Q 2528 2516 2613 2622 
Q 2681 2713 2729 2864 
Q 2778 3016 2794 3150 
L 3028 3150 
L 3028 1416 
L 2794 1416 
Q 2781 1566 2726 1733 
Q 2672 1900 2613 1975 
Q 2516 2097 2392 2134 
Q 2269 2172 2066 2172 
L 1566 2172 
L 1566 841 
Q 1566 641 1594 525 
Q 1622 409 1703 350 
Q 1784 291 1925 273 
Q 2066 256 2325 256 
Q 2428 256 2597 256 
Q 2766 256 2881 269 
Q 3000 281 3126 314 
Q 3253 347 3306 403 
Q 3450 553 3608 858 
Q 3766 1163 3809 1306 
L 4034 1306 
z
" transform="scale(0.015625)"/>
       <path id="Georgia-78" d="M 3194 0 
L 1781 0 
L 1781 206 
Q 1922 222 2020 237 
Q 2119 253 2119 319 
Q 2119 347 2087 406 
Q 2056 466 2025 516 
Q 1947 638 1811 842 
Q 1675 1047 1478 1331 
Q 1316 1128 1178 936 
Q 1041 744 891 528 
Q 869 497 845 450 
Q 822 403 822 375 
Q 822 306 911 261 
Q 1000 216 1178 200 
L 1178 0 
L 38 0 
L 38 194 
Q 250 256 379 345 
Q 509 434 619 566 
Q 716 691 889 909 
Q 1063 1128 1338 1503 
Q 1178 1731 948 2061 
Q 719 2391 569 2609 
Q 488 2728 383 2801 
Q 278 2875 88 2875 
L 88 3081 
L 1428 3081 
L 1428 2875 
Q 1328 2875 1231 2862 
Q 1134 2850 1134 2806 
Q 1134 2778 1153 2743 
Q 1172 2709 1200 2669 
Q 1269 2563 1414 2341 
Q 1559 2119 1728 1872 
Q 1838 2022 1983 2222 
Q 2128 2422 2250 2603 
Q 2263 2625 2275 2658 
Q 2288 2691 2288 2722 
Q 2288 2788 2180 2827 
Q 2072 2866 1975 2881 
L 1975 3081 
L 3113 3081 
L 3113 2888 
Q 2872 2825 2737 2739 
Q 2603 2653 2509 2541 
Q 2406 2413 2264 2225 
Q 2122 2038 1866 1700 
Q 2150 1300 2328 1044 
Q 2506 788 2688 516 
Q 2778 378 2889 298 
Q 3000 219 3194 206 
L 3194 0 
z
" transform="scale(0.015625)"/>
       <path id="Georgia-61" d="M 3144 56 
Q 2997 3 2886 -30 
Q 2775 -63 2634 -63 
Q 2391 -63 2245 51 
Q 2100 166 2059 384 
L 2041 384 
Q 1838 159 1605 40 
Q 1372 -78 1044 -78 
Q 697 -78 473 134 
Q 250 347 250 691 
Q 250 869 300 1009 
Q 350 1150 450 1263 
Q 528 1356 656 1429 
Q 784 1503 897 1547 
Q 1038 1600 1467 1744 
Q 1897 1888 2047 1969 
L 2047 2278 
Q 2047 2319 2030 2434 
Q 2013 2550 1956 2653 
Q 1894 2769 1780 2855 
Q 1666 2941 1456 2941 
Q 1313 2941 1189 2892 
Q 1066 2844 1016 2791 
Q 1016 2728 1045 2606 
Q 1075 2484 1075 2381 
Q 1075 2272 976 2181 
Q 878 2091 703 2091 
Q 547 2091 473 2202 
Q 400 2313 400 2450 
Q 400 2594 501 2725 
Q 603 2856 766 2959 
Q 906 3047 1106 3108 
Q 1306 3169 1497 3169 
Q 1759 3169 1954 3133 
Q 2150 3097 2309 2978 
Q 2469 2863 2551 2664 
Q 2634 2466 2634 2153 
Q 2634 1706 2625 1361 
Q 2616 1016 2616 606 
Q 2616 484 2658 412 
Q 2700 341 2788 291 
Q 2834 263 2936 259 
Q 3038 256 3144 256 
L 3144 56 
z
M 2053 1706 
Q 1788 1628 1588 1553 
Q 1388 1478 1216 1366 
Q 1059 1259 968 1114 
Q 878 969 878 769 
Q 878 509 1014 387 
Q 1150 266 1359 266 
Q 1581 266 1750 373 
Q 1919 481 2034 628 
L 2053 1706 
z
" transform="scale(0.015625)"/>
       <path id="Georgia-63" d="M 1650 -81 
Q 981 -81 603 362 
Q 225 806 225 1553 
Q 225 1878 326 2161 
Q 428 2444 622 2675 
Q 806 2897 1084 3033 
Q 1363 3169 1691 3169 
Q 2144 3169 2428 2951 
Q 2713 2734 2713 2359 
Q 2713 2203 2638 2083 
Q 2563 1963 2391 1963 
Q 2206 1963 2104 2056 
Q 2003 2150 2003 2266 
Q 2003 2406 2040 2554 
Q 2078 2703 2084 2772 
Q 2028 2869 1917 2901 
Q 1806 2934 1678 2934 
Q 1528 2934 1392 2870 
Q 1256 2806 1128 2634 
Q 1013 2478 941 2212 
Q 869 1947 869 1578 
Q 869 997 1126 630 
Q 1384 263 1803 263 
Q 2106 263 2311 409 
Q 2516 556 2691 850 
L 2891 719 
Q 2684 350 2346 134 
Q 2009 -81 1650 -81 
z
" transform="scale(0.015625)"/>
      </defs>
      <use xlink:href="#Georgia-45"/>
      <use xlink:href="#Georgia-78" x="65.332031"/>
      <use xlink:href="#Georgia-61" x="115.820312"/>
      <use xlink:href="#Georgia-63" x="166.210938"/>
      <use xlink:href="#Georgia-74" x="211.621094"/>
     </g>
    </g>
    <g id="line2d_32">
     <path d="M 596.885637 49.715625 
L 606.885637 49.715625 
L 616.885637 49.715625 
" style="fill: none; stroke: #a80000; stroke-width: 3; stroke-linecap: square"/>
    </g>
    <g id="text_17">
     <!-- 16, t=1.3 -->
     <g transform="translate(624.885637 53.215625) scale(0.1 -0.1)">
      <defs>
       <path id="Georgia-2c" d="M 1341 109 
Q 1341 -116 1239 -316 
Q 1138 -516 1006 -659 
Q 872 -809 722 -925 
Q 572 -1041 447 -1106 
L 303 -897 
Q 453 -803 572 -709 
Q 691 -616 766 -522 
Q 859 -413 925 -284 
Q 991 -156 1009 6 
L 850 6 
Q 641 6 523 115 
Q 406 225 406 409 
Q 406 541 512 664 
Q 619 788 803 788 
Q 1072 788 1206 608 
Q 1341 428 1341 109 
z
" transform="scale(0.015625)"/>
       <path id="Georgia-20" transform="scale(0.015625)"/>
       <path id="Georgia-3d" d="M 3634 2134 
L 481 2134 
L 481 2525 
L 3634 2525 
L 3634 2134 
z
M 3634 972 
L 481 972 
L 481 1363 
L 3634 1363 
L 3634 972 
z
" transform="scale(0.015625)"/>
      </defs>
      <use xlink:href="#Georgia-31"/>
      <use xlink:href="#Georgia-36" x="42.96875"/>
      <use xlink:href="#Georgia-2c" x="99.560547"/>
      <use xlink:href="#Georgia-20" x="126.513672"/>
      <use xlink:href="#Georgia-74" x="150.634766"/>
      <use xlink:href="#Georgia-3d" x="185.15625"/>
      <use xlink:href="#Georgia-31" x="249.462891"/>
      <use xlink:href="#Georgia-2e" x="292.431641"/>
      <use xlink:href="#Georgia-33" x="319.384766"/>
     </g>
    </g>
    <g id="line2d_33">
     <path d="M 596.885637 64.44375 
L 606.885637 64.44375 
L 616.885637 64.44375 
" style="fill: none; stroke: #1f77b4; stroke-width: 3; stroke-linecap: square"/>
    </g>
    <g id="text_18">
     <!-- 64, t=1.3 -->
     <g transform="translate(624.885637 67.94375) scale(0.1 -0.1)">
      <use xlink:href="#Georgia-36"/>
      <use xlink:href="#Georgia-34" x="56.591797"/>
      <use xlink:href="#Georgia-2c" x="113.085938"/>
      <use xlink:href="#Georgia-20" x="140.039062"/>
      <use xlink:href="#Georgia-74" x="164.160156"/>
      <use xlink:href="#Georgia-3d" x="198.681641"/>
      <use xlink:href="#Georgia-31" x="262.988281"/>
      <use xlink:href="#Georgia-2e" x="305.957031"/>
      <use xlink:href="#Georgia-33" x="332.910156"/>
     </g>
    </g>
    <g id="line2d_34">
     <path d="M 596.885637 79.171875 
L 606.885637 79.171875 
L 616.885637 79.171875 
" style="fill: none; stroke: #ff7f0e; stroke-width: 3; stroke-linecap: square"/>
    </g>
    <g id="text_19">
     <!-- 128, t=1.3 -->
     <g transform="translate(624.885637 82.671875) scale(0.1 -0.1)">
      <defs>
       <path id="Georgia-38" d="M 3491 1175 
Q 3491 650 3037 272 
Q 2584 -106 1847 -106 
Q 1156 -106 740 241 
Q 325 588 325 1134 
Q 325 1538 570 1808 
Q 816 2078 1297 2266 
Q 900 2488 703 2753 
Q 506 3019 506 3353 
Q 506 3863 939 4206 
Q 1372 4550 1975 4550 
Q 2578 4550 2951 4225 
Q 3325 3900 3325 3409 
Q 3325 3094 3119 2811 
Q 2913 2528 2513 2347 
Q 3031 2125 3261 1856 
Q 3491 1588 3491 1175 
z
M 2734 3444 
Q 2734 3825 2507 4064 
Q 2281 4303 1928 4303 
Q 1575 4303 1350 4073 
Q 1125 3844 1125 3503 
Q 1125 3175 1381 2947 
Q 1638 2719 2294 2459 
Q 2528 2609 2631 2856 
Q 2734 3103 2734 3444 
z
M 2866 1028 
Q 2866 1225 2781 1373 
Q 2697 1522 2538 1644 
Q 2384 1763 2111 1892 
Q 1838 2022 1519 2156 
Q 1219 1994 1078 1742 
Q 938 1491 938 1169 
Q 938 709 1208 426 
Q 1478 144 1928 144 
Q 2359 144 2612 394 
Q 2866 644 2866 1028 
z
" transform="scale(0.015625)"/>
      </defs>
      <use xlink:href="#Georgia-31"/>
      <use xlink:href="#Georgia-32" x="42.96875"/>
      <use xlink:href="#Georgia-38" x="98.828125"/>
      <use xlink:href="#Georgia-2c" x="158.447266"/>
      <use xlink:href="#Georgia-20" x="185.400391"/>
      <use xlink:href="#Georgia-74" x="209.521484"/>
      <use xlink:href="#Georgia-3d" x="244.042969"/>
      <use xlink:href="#Georgia-31" x="308.349609"/>
      <use xlink:href="#Georgia-2e" x="351.318359"/>
      <use xlink:href="#Georgia-33" x="378.271484"/>
     </g>
    </g>
   </g>
  </g>
  <g id="axes_2">
   <g id="patch_8">
    <path d="M 750.91637 515.68 
L 993.59625 515.68 
L 993.59625 7.2 
L 750.91637 7.2 
L 750.91637 515.68 
z
" style="fill: none"/>
   </g>
   <g id="matplotlib.axis_3">
    <g id="xtick_8">
     <g id="line2d_35">
      <path d="M 761.947274 515.68 
L 761.947274 7.2 
" clip-path="url(#p638a9e7ec9)" style="fill: none; stroke: #b0b0b0; stroke-width: 0.8; stroke-linecap: square"/>
     </g>
     <g id="line2d_36">
      <g>
       <use xlink:href="#m247306df6f" x="761.947274" y="515.68" style="stroke: #000000; stroke-width: 0.8"/>
      </g>
     </g>
     <g id="text_20">
      <!-- 0 -->
      <g transform="translate(757.037274 534.775) scale(0.16 -0.16)">
       <use xlink:href="#Georgia-30"/>
      </g>
     </g>
    </g>
    <g id="xtick_9">
     <g id="line2d_37">
      <path d="M 832.172187 515.68 
L 832.172187 7.2 
" clip-path="url(#p638a9e7ec9)" style="fill: none; stroke: #b0b0b0; stroke-width: 0.8; stroke-linecap: square"/>
     </g>
     <g id="line2d_38">
      <g>
       <use xlink:href="#m247306df6f" x="832.172187" y="515.68" style="stroke: #000000; stroke-width: 0.8"/>
      </g>
     </g>
     <g id="text_21">
      <!-- 2 -->
      <g transform="translate(827.703437 534.775) scale(0.16 -0.16)">
       <use xlink:href="#Georgia-32"/>
      </g>
     </g>
    </g>
    <g id="xtick_10">
     <g id="line2d_39">
      <path d="M 902.397101 515.68 
L 902.397101 7.2 
" clip-path="url(#p638a9e7ec9)" style="fill: none; stroke: #b0b0b0; stroke-width: 0.8; stroke-linecap: square"/>
     </g>
     <g id="line2d_40">
      <g>
       <use xlink:href="#m247306df6f" x="902.397101" y="515.68" style="stroke: #000000; stroke-width: 0.8"/>
      </g>
     </g>
     <g id="text_22">
      <!-- 4 -->
      <g transform="translate(897.877101 534.775) scale(0.16 -0.16)">
       <use xlink:href="#Georgia-34"/>
      </g>
     </g>
    </g>
    <g id="xtick_11">
     <g id="line2d_41">
      <path d="M 972.622015 515.68 
L 972.622015 7.2 
" clip-path="url(#p638a9e7ec9)" style="fill: none; stroke: #b0b0b0; stroke-width: 0.8; stroke-linecap: square"/>
     </g>
     <g id="line2d_42">
      <g>
       <use xlink:href="#m247306df6f" x="972.622015" y="515.68" style="stroke: #000000; stroke-width: 0.8"/>
      </g>
     </g>
     <g id="text_23">
      <!-- 6 -->
      <g transform="translate(968.094515 534.775) scale(0.16 -0.16)">
       <use xlink:href="#Georgia-36"/>
      </g>
     </g>
    </g>
    <g id="text_24">
     <!-- $x$ -->
     <g transform="translate(866.25631 557.36375) scale(0.2 -0.2)">
      <use xlink:href="#DejaVuSans-Oblique-78" transform="translate(0 0.3125)"/>
     </g>
    </g>
   </g>
   <g id="matplotlib.axis_4">
    <g id="ytick_6">
     <g id="line2d_43">
      <path d="M 750.91637 508.917404 
L 993.59625 508.917404 
" clip-path="url(#p638a9e7ec9)" style="fill: none; stroke: #b0b0b0; stroke-width: 0.8; stroke-linecap: square"/>
     </g>
     <g id="line2d_44">
      <g>
       <use xlink:href="#me9a90e46f4" x="750.91637" y="508.917404" style="stroke: #000000; stroke-width: 0.8"/>
      </g>
     </g>
     <g id="text_25">
      <!-- $\mathdefault{10^{-6}}$ -->
      <g transform="translate(713.03637 514.964904) scale(0.16 -0.16)">
       <use xlink:href="#Georgia-31" transform="translate(0 0.601562)"/>
       <use xlink:href="#Georgia-30" transform="translate(42.96875 0.601562)"/>
       <use xlink:href="#Georgia-2212" transform="translate(105.188164 34.3) scale(0.7)"/>
       <use xlink:href="#Georgia-36" transform="translate(150.202812 34.3) scale(0.7)"/>
      </g>
     </g>
    </g>
    <g id="ytick_7">
     <g id="line2d_45">
      <path d="M 750.91637 426.788068 
L 993.59625 426.788068 
" clip-path="url(#p638a9e7ec9)" style="fill: none; stroke: #b0b0b0; stroke-width: 0.8; stroke-linecap: square"/>
     </g>
     <g id="line2d_46">
      <g>
       <use xlink:href="#me9a90e46f4" x="750.91637" y="426.788068" style="stroke: #000000; stroke-width: 0.8"/>
      </g>
     </g>
     <g id="text_26">
      <!-- $\mathdefault{10^{-5}}$ -->
      <g transform="translate(713.51637 432.835568) scale(0.16 -0.16)">
       <use xlink:href="#Georgia-31" transform="translate(0 0.628125)"/>
       <use xlink:href="#Georgia-30" transform="translate(42.96875 0.628125)"/>
       <use xlink:href="#Georgia-2212" transform="translate(105.188164 34.326563) scale(0.7)"/>
       <use xlink:href="#Georgia-35" transform="translate(150.202812 34.326563) scale(0.7)"/>
      </g>
     </g>
    </g>
    <g id="ytick_8">
     <g id="line2d_47">
      <path d="M 750.91637 344.658733 
L 993.59625 344.658733 
" clip-path="url(#p638a9e7ec9)" style="fill: none; stroke: #b0b0b0; stroke-width: 0.8; stroke-linecap: square"/>
     </g>
     <g id="line2d_48">
      <g>
       <use xlink:href="#me9a90e46f4" x="750.91637" y="344.658733" style="stroke: #000000; stroke-width: 0.8"/>
      </g>
     </g>
     <g id="text_27">
      <!-- $\mathdefault{10^{-4}}$ -->
      <g transform="translate(713.03637 350.706233) scale(0.16 -0.16)">
       <use xlink:href="#Georgia-31" transform="translate(0 0.742188)"/>
       <use xlink:href="#Georgia-30" transform="translate(42.96875 0.742188)"/>
       <use xlink:href="#Georgia-2212" transform="translate(105.188164 34.440625) scale(0.7)"/>
       <use xlink:href="#Georgia-34" transform="translate(150.202812 34.440625) scale(0.7)"/>
      </g>
     </g>
    </g>
    <g id="ytick_9">
     <g id="line2d_49">
      <path d="M 750.91637 262.529398 
L 993.59625 262.529398 
" clip-path="url(#p638a9e7ec9)" style="fill: none; stroke: #b0b0b0; stroke-width: 0.8; stroke-linecap: square"/>
     </g>
     <g id="line2d_50">
      <g>
       <use xlink:href="#me9a90e46f4" x="750.91637" y="262.529398" style="stroke: #000000; stroke-width: 0.8"/>
      </g>
     </g>
     <g id="text_28">
      <!-- $\mathdefault{10^{-3}}$ -->
      <g transform="translate(713.19637 268.576898) scale(0.16 -0.16)">
       <use xlink:href="#Georgia-31" transform="translate(0 0.534375)"/>
       <use xlink:href="#Georgia-30" transform="translate(42.96875 0.534375)"/>
       <use xlink:href="#Georgia-2212" transform="translate(105.188164 34.232813) scale(0.7)"/>
       <use xlink:href="#Georgia-33" transform="translate(150.202812 34.232813) scale(0.7)"/>
      </g>
     </g>
    </g>
    <g id="ytick_10">
     <g id="line2d_51">
      <path d="M 750.91637 180.400062 
L 993.59625 180.400062 
" clip-path="url(#p638a9e7ec9)" style="fill: none; stroke: #b0b0b0; stroke-width: 0.8; stroke-linecap: square"/>
     </g>
     <g id="line2d_52">
      <g>
       <use xlink:href="#me9a90e46f4" x="750.91637" y="180.400062" style="stroke: #000000; stroke-width: 0.8"/>
      </g>
     </g>
     <g id="text_29">
      <!-- $\mathdefault{10^{-2}}$ -->
      <g transform="translate(713.19637 186.447562) scale(0.16 -0.16)">
       <use xlink:href="#Georgia-31" transform="translate(0 0.534375)"/>
       <use xlink:href="#Georgia-30" transform="translate(42.96875 0.534375)"/>
       <use xlink:href="#Georgia-2212" transform="translate(105.188164 34.232813) scale(0.7)"/>
       <use xlink:href="#Georgia-32" transform="translate(150.202812 34.232813) scale(0.7)"/>
      </g>
     </g>
    </g>
    <g id="ytick_11">
     <g id="line2d_53">
      <path d="M 750.91637 98.270727 
L 993.59625 98.270727 
" clip-path="url(#p638a9e7ec9)" style="fill: none; stroke: #b0b0b0; stroke-width: 0.8; stroke-linecap: square"/>
     </g>
     <g id="line2d_54">
      <g>
       <use xlink:href="#me9a90e46f4" x="750.91637" y="98.270727" style="stroke: #000000; stroke-width: 0.8"/>
      </g>
     </g>
     <g id="text_30">
      <!-- $\mathdefault{10^{-1}}$ -->
      <g transform="translate(714.63637 104.318227) scale(0.16 -0.16)">
       <use xlink:href="#Georgia-31" transform="translate(0 0.534375)"/>
       <use xlink:href="#Georgia-30" transform="translate(42.96875 0.534375)"/>
       <use xlink:href="#Georgia-2212" transform="translate(105.188164 34.232813) scale(0.7)"/>
       <use xlink:href="#Georgia-31" transform="translate(150.202812 34.232813) scale(0.7)"/>
      </g>
     </g>
    </g>
    <g id="ytick_12">
     <g id="line2d_55">
      <path d="M 750.91637 16.141392 
L 993.59625 16.141392 
" clip-path="url(#p638a9e7ec9)" style="fill: none; stroke: #b0b0b0; stroke-width: 0.8; stroke-linecap: square"/>
     </g>
     <g id="line2d_56">
      <g>
       <use xlink:href="#me9a90e46f4" x="750.91637" y="16.141392" style="stroke: #000000; stroke-width: 0.8"/>
      </g>
     </g>
     <g id="text_31">
      <!-- $\mathdefault{10^{0}}$ -->
      <g transform="translate(719.75637 22.188892) scale(0.16 -0.16)">
       <use xlink:href="#Georgia-31" transform="translate(0 0.534375)"/>
       <use xlink:href="#Georgia-30" transform="translate(42.96875 0.534375)"/>
       <use xlink:href="#Georgia-30" transform="translate(105.188164 34.232813) scale(0.7)"/>
      </g>
     </g>
    </g>
    <g id="ytick_13">
     <g id="line2d_57">
      <defs>
       <path id="m3cc13fb974" d="M 0 0 
L -2 0 
" style="stroke: #000000; stroke-width: 0.6"/>
      </defs>
      <g>
       <use xlink:href="#m3cc13fb974" x="750.91637" y="512.675436" style="stroke: #000000; stroke-width: 0.6"/>
      </g>
     </g>
    </g>
    <g id="ytick_14">
     <g id="line2d_58">
      <g>
       <use xlink:href="#m3cc13fb974" x="750.91637" y="484.19401" style="stroke: #000000; stroke-width: 0.6"/>
      </g>
     </g>
    </g>
    <g id="ytick_15">
     <g id="line2d_59">
      <g>
       <use xlink:href="#m3cc13fb974" x="750.91637" y="469.731752" style="stroke: #000000; stroke-width: 0.6"/>
      </g>
     </g>
    </g>
    <g id="ytick_16">
     <g id="line2d_60">
      <g>
       <use xlink:href="#m3cc13fb974" x="750.91637" y="459.470617" style="stroke: #000000; stroke-width: 0.6"/>
      </g>
     </g>
    </g>
    <g id="ytick_17">
     <g id="line2d_61">
      <g>
       <use xlink:href="#m3cc13fb974" x="750.91637" y="451.511462" style="stroke: #000000; stroke-width: 0.6"/>
      </g>
     </g>
    </g>
    <g id="ytick_18">
     <g id="line2d_62">
      <g>
       <use xlink:href="#m3cc13fb974" x="750.91637" y="445.008359" style="stroke: #000000; stroke-width: 0.6"/>
      </g>
     </g>
    </g>
    <g id="ytick_19">
     <g id="line2d_63">
      <g>
       <use xlink:href="#m3cc13fb974" x="750.91637" y="439.510063" style="stroke: #000000; stroke-width: 0.6"/>
      </g>
     </g>
    </g>
    <g id="ytick_20">
     <g id="line2d_64">
      <g>
       <use xlink:href="#m3cc13fb974" x="750.91637" y="434.747223" style="stroke: #000000; stroke-width: 0.6"/>
      </g>
     </g>
    </g>
    <g id="ytick_21">
     <g id="line2d_65">
      <g>
       <use xlink:href="#m3cc13fb974" x="750.91637" y="430.546101" style="stroke: #000000; stroke-width: 0.6"/>
      </g>
     </g>
    </g>
    <g id="ytick_22">
     <g id="line2d_66">
      <g>
       <use xlink:href="#m3cc13fb974" x="750.91637" y="402.064675" style="stroke: #000000; stroke-width: 0.6"/>
      </g>
     </g>
    </g>
    <g id="ytick_23">
     <g id="line2d_67">
      <g>
       <use xlink:href="#m3cc13fb974" x="750.91637" y="387.602417" style="stroke: #000000; stroke-width: 0.6"/>
      </g>
     </g>
    </g>
    <g id="ytick_24">
     <g id="line2d_68">
      <g>
       <use xlink:href="#m3cc13fb974" x="750.91637" y="377.341281" style="stroke: #000000; stroke-width: 0.6"/>
      </g>
     </g>
    </g>
    <g id="ytick_25">
     <g id="line2d_69">
      <g>
       <use xlink:href="#m3cc13fb974" x="750.91637" y="369.382126" style="stroke: #000000; stroke-width: 0.6"/>
      </g>
     </g>
    </g>
    <g id="ytick_26">
     <g id="line2d_70">
      <g>
       <use xlink:href="#m3cc13fb974" x="750.91637" y="362.879023" style="stroke: #000000; stroke-width: 0.6"/>
      </g>
     </g>
    </g>
    <g id="ytick_27">
     <g id="line2d_71">
      <g>
       <use xlink:href="#m3cc13fb974" x="750.91637" y="357.380728" style="stroke: #000000; stroke-width: 0.6"/>
      </g>
     </g>
    </g>
    <g id="ytick_28">
     <g id="line2d_72">
      <g>
       <use xlink:href="#m3cc13fb974" x="750.91637" y="352.617888" style="stroke: #000000; stroke-width: 0.6"/>
      </g>
     </g>
    </g>
    <g id="ytick_29">
     <g id="line2d_73">
      <g>
       <use xlink:href="#m3cc13fb974" x="750.91637" y="348.416765" style="stroke: #000000; stroke-width: 0.6"/>
      </g>
     </g>
    </g>
    <g id="ytick_30">
     <g id="line2d_74">
      <g>
       <use xlink:href="#m3cc13fb974" x="750.91637" y="319.93534" style="stroke: #000000; stroke-width: 0.6"/>
      </g>
     </g>
    </g>
    <g id="ytick_31">
     <g id="line2d_75">
      <g>
       <use xlink:href="#m3cc13fb974" x="750.91637" y="305.473081" style="stroke: #000000; stroke-width: 0.6"/>
      </g>
     </g>
    </g>
    <g id="ytick_32">
     <g id="line2d_76">
      <g>
       <use xlink:href="#m3cc13fb974" x="750.91637" y="295.211946" style="stroke: #000000; stroke-width: 0.6"/>
      </g>
     </g>
    </g>
    <g id="ytick_33">
     <g id="line2d_77">
      <g>
       <use xlink:href="#m3cc13fb974" x="750.91637" y="287.252791" style="stroke: #000000; stroke-width: 0.6"/>
      </g>
     </g>
    </g>
    <g id="ytick_34">
     <g id="line2d_78">
      <g>
       <use xlink:href="#m3cc13fb974" x="750.91637" y="280.749688" style="stroke: #000000; stroke-width: 0.6"/>
      </g>
     </g>
    </g>
    <g id="ytick_35">
     <g id="line2d_79">
      <g>
       <use xlink:href="#m3cc13fb974" x="750.91637" y="275.251393" style="stroke: #000000; stroke-width: 0.6"/>
      </g>
     </g>
    </g>
    <g id="ytick_36">
     <g id="line2d_80">
      <g>
       <use xlink:href="#m3cc13fb974" x="750.91637" y="270.488553" style="stroke: #000000; stroke-width: 0.6"/>
      </g>
     </g>
    </g>
    <g id="ytick_37">
     <g id="line2d_81">
      <g>
       <use xlink:href="#m3cc13fb974" x="750.91637" y="266.28743" style="stroke: #000000; stroke-width: 0.6"/>
      </g>
     </g>
    </g>
    <g id="ytick_38">
     <g id="line2d_82">
      <g>
       <use xlink:href="#m3cc13fb974" x="750.91637" y="237.806004" style="stroke: #000000; stroke-width: 0.6"/>
      </g>
     </g>
    </g>
    <g id="ytick_39">
     <g id="line2d_83">
      <g>
       <use xlink:href="#m3cc13fb974" x="750.91637" y="223.343746" style="stroke: #000000; stroke-width: 0.6"/>
      </g>
     </g>
    </g>
    <g id="ytick_40">
     <g id="line2d_84">
      <g>
       <use xlink:href="#m3cc13fb974" x="750.91637" y="213.082611" style="stroke: #000000; stroke-width: 0.6"/>
      </g>
     </g>
    </g>
    <g id="ytick_41">
     <g id="line2d_85">
      <g>
       <use xlink:href="#m3cc13fb974" x="750.91637" y="205.123456" style="stroke: #000000; stroke-width: 0.6"/>
      </g>
     </g>
    </g>
    <g id="ytick_42">
     <g id="line2d_86">
      <g>
       <use xlink:href="#m3cc13fb974" x="750.91637" y="198.620353" style="stroke: #000000; stroke-width: 0.6"/>
      </g>
     </g>
    </g>
    <g id="ytick_43">
     <g id="line2d_87">
      <g>
       <use xlink:href="#m3cc13fb974" x="750.91637" y="193.122057" style="stroke: #000000; stroke-width: 0.6"/>
      </g>
     </g>
    </g>
    <g id="ytick_44">
     <g id="line2d_88">
      <g>
       <use xlink:href="#m3cc13fb974" x="750.91637" y="188.359217" style="stroke: #000000; stroke-width: 0.6"/>
      </g>
     </g>
    </g>
    <g id="ytick_45">
     <g id="line2d_89">
      <g>
       <use xlink:href="#m3cc13fb974" x="750.91637" y="184.158095" style="stroke: #000000; stroke-width: 0.6"/>
      </g>
     </g>
    </g>
    <g id="ytick_46">
     <g id="line2d_90">
      <g>
       <use xlink:href="#m3cc13fb974" x="750.91637" y="155.676669" style="stroke: #000000; stroke-width: 0.6"/>
      </g>
     </g>
    </g>
    <g id="ytick_47">
     <g id="line2d_91">
      <g>
       <use xlink:href="#m3cc13fb974" x="750.91637" y="141.214411" style="stroke: #000000; stroke-width: 0.6"/>
      </g>
     </g>
    </g>
    <g id="ytick_48">
     <g id="line2d_92">
      <g>
       <use xlink:href="#m3cc13fb974" x="750.91637" y="130.953275" style="stroke: #000000; stroke-width: 0.6"/>
      </g>
     </g>
    </g>
    <g id="ytick_49">
     <g id="line2d_93">
      <g>
       <use xlink:href="#m3cc13fb974" x="750.91637" y="122.994121" style="stroke: #000000; stroke-width: 0.6"/>
      </g>
     </g>
    </g>
    <g id="ytick_50">
     <g id="line2d_94">
      <g>
       <use xlink:href="#m3cc13fb974" x="750.91637" y="116.491017" style="stroke: #000000; stroke-width: 0.6"/>
      </g>
     </g>
    </g>
    <g id="ytick_51">
     <g id="line2d_95">
      <g>
       <use xlink:href="#m3cc13fb974" x="750.91637" y="110.992722" style="stroke: #000000; stroke-width: 0.6"/>
      </g>
     </g>
    </g>
    <g id="ytick_52">
     <g id="line2d_96">
      <g>
       <use xlink:href="#m3cc13fb974" x="750.91637" y="106.229882" style="stroke: #000000; stroke-width: 0.6"/>
      </g>
     </g>
    </g>
    <g id="ytick_53">
     <g id="line2d_97">
      <g>
       <use xlink:href="#m3cc13fb974" x="750.91637" y="102.028759" style="stroke: #000000; stroke-width: 0.6"/>
      </g>
     </g>
    </g>
    <g id="ytick_54">
     <g id="line2d_98">
      <g>
       <use xlink:href="#m3cc13fb974" x="750.91637" y="73.547334" style="stroke: #000000; stroke-width: 0.6"/>
      </g>
     </g>
    </g>
    <g id="ytick_55">
     <g id="line2d_99">
      <g>
       <use xlink:href="#m3cc13fb974" x="750.91637" y="59.085076" style="stroke: #000000; stroke-width: 0.6"/>
      </g>
     </g>
    </g>
    <g id="ytick_56">
     <g id="line2d_100">
      <g>
       <use xlink:href="#m3cc13fb974" x="750.91637" y="48.82394" style="stroke: #000000; stroke-width: 0.6"/>
      </g>
     </g>
    </g>
    <g id="ytick_57">
     <g id="line2d_101">
      <g>
       <use xlink:href="#m3cc13fb974" x="750.91637" y="40.864785" style="stroke: #000000; stroke-width: 0.6"/>
      </g>
     </g>
    </g>
    <g id="ytick_58">
     <g id="line2d_102">
      <g>
       <use xlink:href="#m3cc13fb974" x="750.91637" y="34.361682" style="stroke: #000000; stroke-width: 0.6"/>
      </g>
     </g>
    </g>
    <g id="ytick_59">
     <g id="line2d_103">
      <g>
       <use xlink:href="#m3cc13fb974" x="750.91637" y="28.863387" style="stroke: #000000; stroke-width: 0.6"/>
      </g>
     </g>
    </g>
    <g id="ytick_60">
     <g id="line2d_104">
      <g>
       <use xlink:href="#m3cc13fb974" x="750.91637" y="24.100547" style="stroke: #000000; stroke-width: 0.6"/>
      </g>
     </g>
    </g>
    <g id="ytick_61">
     <g id="line2d_105">
      <g>
       <use xlink:href="#m3cc13fb974" x="750.91637" y="19.899424" style="stroke: #000000; stroke-width: 0.6"/>
      </g>
     </g>
    </g>
    <g id="text_32">
     <!-- $|y-y_{exact}|$ -->
     <g transform="translate(704.23637 311.94) rotate(-90) scale(0.2 -0.2)">
      <defs>
       <path id="DejaVuSans-7c" d="M 1344 4891 
L 1344 -1509 
L 813 -1509 
L 813 4891 
L 1344 4891 
z
" transform="scale(0.015625)"/>
       <path id="DejaVuSans-2212" d="M 678 2272 
L 4684 2272 
L 4684 1741 
L 678 1741 
L 678 2272 
z
" transform="scale(0.015625)"/>
       <path id="DejaVuSans-Oblique-65" d="M 3078 2063 
Q 3088 2113 3092 2166 
Q 3097 2219 3097 2272 
Q 3097 2653 2873 2875 
Q 2650 3097 2266 3097 
Q 1838 3097 1509 2826 
Q 1181 2556 1013 2059 
L 3078 2063 
z
M 3578 1613 
L 903 1613 
Q 884 1494 878 1425 
Q 872 1356 872 1306 
Q 872 872 1139 634 
Q 1406 397 1894 397 
Q 2269 397 2603 481 
Q 2938 566 3225 728 
L 3116 159 
Q 2806 34 2476 -28 
Q 2147 -91 1806 -91 
Q 1078 -91 686 257 
Q 294 606 294 1247 
Q 294 1794 489 2264 
Q 684 2734 1063 3103 
Q 1306 3334 1642 3459 
Q 1978 3584 2356 3584 
Q 2950 3584 3301 3228 
Q 3653 2872 3653 2272 
Q 3653 2128 3634 1964 
Q 3616 1800 3578 1613 
z
" transform="scale(0.015625)"/>
       <path id="DejaVuSans-Oblique-61" d="M 3438 1997 
L 3047 0 
L 2472 0 
L 2578 531 
Q 2325 219 2001 64 
Q 1678 -91 1281 -91 
Q 834 -91 548 182 
Q 263 456 263 884 
Q 263 1497 752 1853 
Q 1241 2209 2100 2209 
L 2900 2209 
L 2931 2363 
Q 2938 2388 2941 2417 
Q 2944 2447 2944 2509 
Q 2944 2788 2717 2942 
Q 2491 3097 2081 3097 
Q 1800 3097 1504 3025 
Q 1209 2953 897 2809 
L 997 3341 
Q 1322 3463 1633 3523 
Q 1944 3584 2234 3584 
Q 2853 3584 3176 3315 
Q 3500 3047 3500 2534 
Q 3500 2431 3484 2292 
Q 3469 2153 3438 1997 
z
M 2816 1759 
L 2241 1759 
Q 1534 1759 1195 1570 
Q 856 1381 856 984 
Q 856 709 1029 553 
Q 1203 397 1509 397 
Q 1978 397 2328 733 
Q 2678 1069 2791 1631 
L 2816 1759 
z
" transform="scale(0.015625)"/>
       <path id="DejaVuSans-Oblique-63" d="M 3431 3366 
L 3316 2797 
Q 3109 2947 2876 3022 
Q 2644 3097 2394 3097 
Q 2119 3097 1870 3000 
Q 1622 2903 1453 2725 
Q 1184 2453 1037 2087 
Q 891 1722 891 1331 
Q 891 859 1127 628 
Q 1363 397 1844 397 
Q 2081 397 2348 469 
Q 2616 541 2906 684 
L 2797 116 
Q 2547 13 2283 -39 
Q 2019 -91 1741 -91 
Q 1044 -91 669 257 
Q 294 606 294 1253 
Q 294 1797 489 2255 
Q 684 2713 1069 3078 
Q 1331 3328 1684 3456 
Q 2038 3584 2456 3584 
Q 2700 3584 2940 3529 
Q 3181 3475 3431 3366 
z
" transform="scale(0.015625)"/>
       <path id="DejaVuSans-Oblique-74" d="M 2706 3500 
L 2619 3053 
L 1472 3053 
L 1100 1153 
Q 1081 1047 1072 975 
Q 1063 903 1063 863 
Q 1063 663 1183 572 
Q 1303 481 1569 481 
L 2150 481 
L 2053 0 
L 1503 0 
Q 991 0 739 200 
Q 488 400 488 806 
Q 488 878 497 964 
Q 506 1050 525 1153 
L 897 3053 
L 409 3053 
L 500 3500 
L 978 3500 
L 1172 4494 
L 1747 4494 
L 1556 3500 
L 2706 3500 
z
" transform="scale(0.015625)"/>
      </defs>
      <use xlink:href="#DejaVuSans-7c" transform="translate(0 0.578125)"/>
      <use xlink:href="#DejaVuSans-Oblique-79" transform="translate(33.691406 0.578125)"/>
      <use xlink:href="#DejaVuSans-2212" transform="translate(112.353516 0.578125)"/>
      <use xlink:href="#DejaVuSans-Oblique-79" transform="translate(215.625 0.578125)"/>
      <use xlink:href="#DejaVuSans-Oblique-65" transform="translate(274.804688 -15.828125) scale(0.7)"/>
      <use xlink:href="#DejaVuSans-Oblique-78" transform="translate(317.871094 -15.828125) scale(0.7)"/>
      <use xlink:href="#DejaVuSans-Oblique-61" transform="translate(359.296875 -15.828125) scale(0.7)"/>
      <use xlink:href="#DejaVuSans-Oblique-63" transform="translate(402.192383 -15.828125) scale(0.7)"/>
      <use xlink:href="#DejaVuSans-Oblique-74" transform="translate(440.678711 -15.828125) scale(0.7)"/>
      <use xlink:href="#DejaVuSans-7c" transform="translate(470.859375 0.578125)"/>
     </g>
    </g>
   </g>
   <g id="line2d_106">
    <path d="M 764.164515 569.90125 
L 764.175739 156.931896 
L 766.404205 151.237103 
L 768.63267 161.645233 
L 770.861135 230.664258 
L 773.089601 161.313705 
L 775.318066 135.427615 
L 777.546531 126.729605 
L 779.774997 130.352471 
L 782.003462 155.341669 
L 784.231928 168.995623 
L 786.460393 120.264301 
L 788.688858 101.92542 
L 790.917324 94.201855 
L 793.145789 94.380978 
L 795.374255 103.737721 
L 797.60272 132.266227 
L 799.831185 154.965885 
L 802.059651 107.485319 
L 804.288116 92.566748 
L 806.516581 89.139781 
L 808.745047 95.688956 
L 810.973512 119.401798 
L 813.201978 162.640593 
L 815.430443 101.64666 
L 817.658908 83.899919 
L 819.887374 77.993086 
L 822.115839 80.835942 
L 824.344304 94.860837 
L 826.57277 142.807255 
L 828.801235 115.377439 
L 831.029701 86.502962 
L 833.258166 76.872434 
L 835.486631 77.703378 
L 837.715097 90.428982 
L 839.943562 138.176606 
L 842.172027 107.943638 
L 844.400493 78.411907 
L 846.628958 67.812615 
L 848.857424 67.399025 
L 851.085889 78.078499 
L 853.314354 116.432266 
L 855.54282 104.009718 
L 857.771285 69.701681 
L 859.999751 57.712005 
L 862.228216 57.270188 
L 864.456681 71.647534 
L 866.685147 196.946362 
L 868.913612 57.185398 
L 871.142077 30.312727 
L 873.370543 30.312727 
L 875.599008 57.185398 
L 877.827474 196.946362 
L 880.055939 71.647534 
L 882.284404 57.270188 
L 884.51287 57.712005 
L 886.741335 69.701681 
L 888.9698 104.009718 
L 891.198266 116.432266 
L 893.426731 78.078499 
L 895.655197 67.399025 
L 897.883662 67.812615 
L 900.112127 78.411907 
L 902.340593 107.943638 
L 904.569058 138.176606 
L 906.797523 90.428982 
L 909.025989 77.703378 
L 911.254454 76.872434 
L 913.48292 86.502962 
L 915.711385 115.377439 
L 917.93985 142.807255 
L 920.168316 94.860837 
L 922.396781 80.835942 
L 924.625247 77.993086 
L 926.853712 83.899919 
L 929.082177 101.64666 
L 931.310643 162.640593 
L 933.539108 119.401798 
L 935.767573 95.688956 
L 937.996039 89.139781 
L 940.224504 92.566748 
L 942.45297 107.485319 
L 944.681435 154.965885 
L 946.9099 132.266227 
L 949.138366 103.737721 
L 951.366831 94.380978 
L 953.595296 94.201855 
L 955.823762 101.92542 
L 958.052227 120.264301 
L 960.280693 168.995623 
L 962.509158 155.341669 
L 964.737623 130.352471 
L 966.966089 126.729605 
L 969.194554 135.427615 
L 971.423019 161.313705 
L 973.651485 230.664258 
L 975.87995 161.645233 
L 978.108416 151.237103 
L 980.336881 156.931896 
L 980.348106 569.90125 
" clip-path="url(#p638a9e7ec9)" style="fill: none; stroke: #a80000; stroke-width: 3; stroke-linecap: square"/>
   </g>
   <g id="line2d_107">
    <path d="M 764.165095 569.90125 
L 764.175739 178.373035 
L 766.404205 186.033541 
L 768.63267 126.155425 
L 770.861135 150.576476 
L 773.089601 127.253549 
L 775.318066 120.79939 
L 777.546531 116.890416 
L 779.774997 111.871267 
L 782.003462 141.892419 
L 784.231928 99.925906 
L 786.460393 112.799448 
L 788.688858 186.644983 
L 790.917324 93.847013 
L 793.145789 126.022687 
L 795.374255 130.272161 
L 797.60272 94.265919 
L 799.831185 153.560944 
L 802.059651 116.352758 
L 804.288116 97.765402 
L 806.516581 252.067573 
L 808.745047 110.841621 
L 810.973512 101.838576 
L 813.201978 170.413054 
L 815.430443 107.602969 
L 817.658908 105.406088 
L 819.887374 146.839956 
L 822.115839 104.623256 
L 824.344304 108.664431 
L 826.57277 132.377388 
L 828.801235 101.550775 
L 831.029701 112.288517 
L 833.258166 121.026886 
L 835.486631 98.45298 
L 837.715097 116.948679 
L 839.943562 111.343884 
L 842.172027 95.252583 
L 844.400493 123.42801 
L 846.628958 102.596305 
L 848.857424 91.556528 
L 851.085889 133.331292 
L 853.314354 94.074179 
L 855.54282 86.45242 
L 857.771285 152.055064 
L 859.999751 84.662861 
L 862.228216 77.739276 
L 864.456681 239.353439 
L 866.685147 71.214107 
L 868.913612 57.53743 
L 871.142077 105.810473 
L 873.370543 105.810473 
L 875.599008 57.53743 
L 877.827474 71.214107 
L 880.055939 239.353439 
L 882.284404 77.739276 
L 884.51287 84.662861 
L 886.741335 152.055064 
L 888.9698 86.45242 
L 891.198266 94.074179 
L 893.426731 133.331292 
L 895.655197 91.556528 
L 897.883662 102.596305 
L 900.112127 123.42801 
L 902.340593 95.252583 
L 904.569058 111.343884 
L 906.797523 116.948679 
L 909.025989 98.45298 
L 911.254454 121.026886 
L 913.48292 112.288517 
L 915.711385 101.550775 
L 917.93985 132.377388 
L 920.168316 108.664431 
L 922.396781 104.623256 
L 924.625247 146.839956 
L 926.853712 105.406088 
L 929.082177 107.602969 
L 931.310643 170.413054 
L 933.539108 101.838576 
L 935.767573 110.841621 
L 937.996039 252.067573 
L 940.224504 97.765402 
L 942.45297 116.352758 
L 944.681435 153.560944 
L 946.9099 94.265919 
L 949.138366 130.272161 
L 951.366831 126.022687 
L 953.595296 93.847013 
L 955.823762 186.644983 
L 958.052227 112.799448 
L 960.280693 99.925906 
L 962.509158 141.892419 
L 964.737623 111.871267 
L 966.966089 116.890416 
L 969.194554 120.79939 
L 971.423019 127.253549 
L 973.651485 150.576476 
L 975.87995 126.155425 
L 978.108416 186.033541 
L 980.336881 178.373035 
L 980.347526 569.90125 
" clip-path="url(#p638a9e7ec9)" style="fill: none; stroke: #1f77b4; stroke-width: 3; stroke-linecap: square"/>
   </g>
   <g id="line2d_108">
    <path d="M 761.947274 492.567273 
L 764.175739 232.706699 
L 766.404205 144.04199 
L 768.63267 127.097861 
L 770.861135 136.607209 
L 773.089601 105.44805 
L 775.318066 213.213634 
L 777.546531 163.517671 
L 779.774997 100.373356 
L 782.003462 129.472758 
L 784.231928 146.666005 
L 786.460393 116.92087 
L 788.688858 127.391923 
L 790.917324 132.710149 
L 793.145789 133.081343 
L 795.374255 128.441419 
L 797.60272 126.539501 
L 799.831185 148.019163 
L 802.059651 126.25892 
L 804.288116 116.301378 
L 806.516581 216.248778 
L 808.745047 132.403365 
L 810.973512 110.498008 
L 813.201978 155.698408 
L 815.430443 152.115521 
L 817.658908 109.620206 
L 819.887374 130.800295 
L 822.115839 244.904486 
L 824.344304 112.405304 
L 826.57277 119.040486 
L 828.801235 153.896435 
L 831.029701 119.315272 
L 833.258166 112.81361 
L 835.486631 126.935121 
L 837.715097 133.433036 
L 839.943562 110.325514 
L 842.172027 111.862332 
L 844.400493 171.285042 
L 846.628958 111.153025 
L 848.857424 101.861609 
L 851.085889 158.734093 
L 853.314354 115.520932 
L 855.54282 94.673894 
L 857.771285 116.647491 
L 859.999751 124.110128 
L 862.228216 88.461388 
L 864.456681 89.789774 
L 866.685147 135.431897 
L 868.913612 75.463742 
L 871.142077 53.033667 
L 873.370543 53.032249 
L 875.599008 75.457991 
L 877.827474 135.409579 
L 880.055939 89.787461 
L 882.284404 88.447242 
L 884.51287 124.046801 
L 886.741335 116.7021 
L 888.9698 94.692397 
L 891.198266 115.516226 
L 893.426731 158.887129 
L 895.655197 101.911747 
L 897.883662 111.218511 
L 900.112127 171.518407 
L 902.340593 111.855719 
L 904.569058 110.352026 
L 906.797523 133.515985 
L 909.025989 126.87126 
L 911.254454 112.790387 
L 913.48292 119.314229 
L 915.711385 153.853753 
L 917.93985 119.023023 
L 920.168316 112.398722 
L 922.396781 245.019708 
L 924.625247 130.788449 
L 926.853712 109.615736 
L 929.082177 152.11735 
L 931.310643 155.683556 
L 933.539108 110.494182 
L 935.767573 132.402429 
L 937.996039 216.30085 
L 940.224504 116.297541 
L 942.45297 126.257134 
L 944.681435 148.023731 
L 946.9099 126.535268 
L 949.138366 128.439004 
L 951.366831 133.082892 
L 953.595296 132.706069 
L 955.823762 127.389383 
L 958.052227 116.921206 
L 960.280693 146.661177 
L 962.509158 129.470028 
L 964.737623 100.373278 
L 966.966089 163.523815 
L 969.194554 213.241814 
L 971.423019 105.447722 
L 973.651485 136.609506 
L 975.87995 127.100367 
L 978.108416 144.040427 
L 980.336881 232.733293 
L 982.565346 492.567273 
" clip-path="url(#p638a9e7ec9)" style="fill: none; stroke: #ff7f0e; stroke-width: 3; stroke-linecap: square"/>
   </g>
   <g id="patch_9">
    <path d="M 750.91637 515.68 
L 750.91637 7.2 
" style="fill: none; stroke: #000000; stroke-width: 1.5; stroke-linejoin: miter; stroke-linecap: square"/>
   </g>
   <g id="patch_10">
    <path d="M 993.59625 515.68 
L 993.59625 7.2 
" style="fill: none; stroke: #000000; stroke-width: 1.5; stroke-linejoin: miter; stroke-linecap: square"/>
   </g>
   <g id="patch_11">
    <path d="M 750.91637 515.68 
L 993.59625 515.68 
" style="fill: none; stroke: #000000; stroke-width: 1.5; stroke-linejoin: miter; stroke-linecap: square"/>
   </g>
   <g id="patch_12">
    <path d="M 750.91637 7.2 
L 993.59625 7.2 
" style="fill: none; stroke: #000000; stroke-width: 1.5; stroke-linejoin: miter; stroke-linecap: square"/>
   </g>
   <g id="legend_2">
    <g id="patch_13">
     <path d="M 911.250938 59.384375 
L 986.59625 59.384375 
Q 988.59625 59.384375 988.59625 57.384375 
L 988.59625 14.2 
Q 988.59625 12.2 986.59625 12.2 
L 911.250938 12.2 
Q 909.250938 12.2 909.250938 14.2 
L 909.250938 57.384375 
Q 909.250938 59.384375 911.250938 59.384375 
z
" style="fill: #ffffff; opacity: 0.8; stroke: #cccccc; stroke-linejoin: miter"/>
    </g>
    <g id="line2d_109">
     <path d="M 913.250938 20.259375 
L 923.250938 20.259375 
L 933.250938 20.259375 
" style="fill: none; stroke: #a80000; stroke-width: 3; stroke-linecap: square"/>
    </g>
    <g id="text_33">
     <!-- 16, t=1.3 -->
     <g transform="translate(941.250938 23.759375) scale(0.1 -0.1)">
      <use xlink:href="#Georgia-31"/>
      <use xlink:href="#Georgia-36" x="42.96875"/>
      <use xlink:href="#Georgia-2c" x="99.560547"/>
      <use xlink:href="#Georgia-20" x="126.513672"/>
      <use xlink:href="#Georgia-74" x="150.634766"/>
      <use xlink:href="#Georgia-3d" x="185.15625"/>
      <use xlink:href="#Georgia-31" x="249.462891"/>
      <use xlink:href="#Georgia-2e" x="292.431641"/>
      <use xlink:href="#Georgia-33" x="319.384766"/>
     </g>
    </g>
    <g id="line2d_110">
     <path d="M 913.250938 34.9875 
L 923.250938 34.9875 
L 933.250938 34.9875 
" style="fill: none; stroke: #1f77b4; stroke-width: 3; stroke-linecap: square"/>
    </g>
    <g id="text_34">
     <!-- 64, t=1.3 -->
     <g transform="translate(941.250938 38.4875) scale(0.1 -0.1)">
      <use xlink:href="#Georgia-36"/>
      <use xlink:href="#Georgia-34" x="56.591797"/>
      <use xlink:href="#Georgia-2c" x="113.085938"/>
      <use xlink:href="#Georgia-20" x="140.039062"/>
      <use xlink:href="#Georgia-74" x="164.160156"/>
      <use xlink:href="#Georgia-3d" x="198.681641"/>
      <use xlink:href="#Georgia-31" x="262.988281"/>
      <use xlink:href="#Georgia-2e" x="305.957031"/>
      <use xlink:href="#Georgia-33" x="332.910156"/>
     </g>
    </g>
    <g id="line2d_111">
     <path d="M 913.250938 49.715625 
L 923.250938 49.715625 
L 933.250938 49.715625 
" style="fill: none; stroke: #ff7f0e; stroke-width: 3; stroke-linecap: square"/>
    </g>
    <g id="text_35">
     <!-- 128, t=1.3 -->
     <g transform="translate(941.250938 53.215625) scale(0.1 -0.1)">
      <use xlink:href="#Georgia-31"/>
      <use xlink:href="#Georgia-32" x="42.96875"/>
      <use xlink:href="#Georgia-38" x="98.828125"/>
      <use xlink:href="#Georgia-2c" x="158.447266"/>
      <use xlink:href="#Georgia-20" x="185.400391"/>
      <use xlink:href="#Georgia-74" x="209.521484"/>
      <use xlink:href="#Georgia-3d" x="244.042969"/>
      <use xlink:href="#Georgia-31" x="308.349609"/>
      <use xlink:href="#Georgia-2e" x="351.318359"/>
      <use xlink:href="#Georgia-33" x="378.271484"/>
     </g>
    </g>
   </g>
  </g>
 </g>
 <defs>
  <clipPath id="p1a3cc84a08">
   <rect x="70.53125" y="7.2" width="606.6997" height="508.48"/>
  </clipPath>
  <clipPath id="p638a9e7ec9">
   <rect x="750.91637" y="7.2" width="242.67988" height="508.48"/>
  </clipPath>
 </defs>
</svg>
