<?xml version="1.0" encoding="utf-8" standalone="no"?>
<!DOCTYPE svg PUBLIC "-//W3C//DTD SVG 1.1//EN"
  "http://www.w3.org/Graphics/SVG/1.1/DTD/svg11.dtd">
<svg xmlns:xlink="http://www.w3.org/1999/xlink" width="1000.79625pt" height="569.00875pt" viewBox="0 0 1000.79625 569.00875" xmlns="http://www.w3.org/2000/svg" version="1.1">
 <metadata>
  <rdf:RDF xmlns:dc="http://purl.org/dc/elements/1.1/" xmlns:cc="http://creativecommons.org/ns#" xmlns:rdf="http://www.w3.org/1999/02/22-rdf-syntax-ns#">
   <cc:Work>
    <dc:type rdf:resource="http://purl.org/dc/dcmitype/StillImage"/>
    <dc:date>2024-02-05T07:29:16.105684</dc:date>
    <dc:format>image/svg+xml</dc:format>
    <dc:creator>
     <cc:Agent>
      <dc:title>Matplotlib v3.6.2, https://matplotlib.org/</dc:title>
     </cc:Agent>
    </dc:creator>
   </cc:Work>
  </rdf:RDF>
 </metadata>
 <defs>
  <style type="text/css">*{stroke-linejoin: round; stroke-linecap: butt}</style>
 </defs>
 <g id="figure_1">
  <g id="patch_1">
   <path d="M 0 569.00875 
L 1000.79625 569.00875 
L 1000.79625 0 
L 0 0 
L 0 569.00875 
z
" style="fill: none"/>
  </g>
  <g id="axes_1">
   <g id="patch_2">
    <path d="M 70.53125 515.7875 
L 677.23095 515.7875 
L 677.23095 13.2475 
L 70.53125 13.2475 
L 70.53125 515.7875 
z
" style="fill: none"/>
   </g>
   <g id="matplotlib.axis_1">
    <g id="xtick_1">
     <g id="line2d_1">
      <path d="M 98.108509 515.7875 
L 98.108509 13.2475 
" clip-path="url(#p2c9676d967)" style="fill: none; stroke: #b0b0b0; stroke-width: 0.8; stroke-linecap: square"/>
     </g>
     <g id="line2d_2">
      <defs>
       <path id="mcadacfd19b" d="M 0 0 
L 0 3.5 
" style="stroke: #000000; stroke-width: 0.8"/>
      </defs>
      <g>
       <use xlink:href="#mcadacfd19b" x="98.108509" y="515.7875" style="stroke: #000000; stroke-width: 0.8"/>
      </g>
     </g>
     <g id="text_1">
      <!-- 0 -->
      <g transform="translate(93.198509 534.8825) scale(0.16 -0.16)">
       <defs>
        <path id="Georgia-30" d="M 3209 2919 
Q 3409 2678 3507 2354 
Q 3606 2031 3606 1678 
Q 3606 1253 3484 917 
Q 3363 581 3150 359 
Q 2931 131 2631 15 
Q 2331 -100 1963 -100 
Q 1559 -100 1243 34 
Q 928 169 731 403 
Q 525 647 423 973 
Q 322 1300 322 1678 
Q 322 2050 420 2362 
Q 519 2675 728 2928 
Q 928 3172 1243 3312 
Q 1559 3453 1966 3453 
Q 2394 3453 2700 3309 
Q 3006 3166 3209 2919 
z
M 2916 1678 
Q 2916 2422 2661 2831 
Q 2406 3241 1969 3241 
Q 1525 3241 1269 2831 
Q 1013 2422 1013 1678 
Q 1013 972 1258 542 
Q 1503 113 1963 113 
Q 2422 113 2669 542 
Q 2916 972 2916 1678 
z
" transform="scale(0.015625)"/>
       </defs>
       <use xlink:href="#Georgia-30"/>
      </g>
     </g>
    </g>
    <g id="xtick_2">
     <g id="line2d_3">
      <path d="M 185.889651 515.7875 
L 185.889651 13.2475 
" clip-path="url(#p2c9676d967)" style="fill: none; stroke: #b0b0b0; stroke-width: 0.8; stroke-linecap: square"/>
     </g>
     <g id="line2d_4">
      <g>
       <use xlink:href="#mcadacfd19b" x="185.889651" y="515.7875" style="stroke: #000000; stroke-width: 0.8"/>
      </g>
     </g>
     <g id="text_2">
      <!-- 1 -->
      <g transform="translate(182.452151 534.8825) scale(0.16 -0.16)">
       <defs>
        <path id="Georgia-31" d="M 2528 0 
L 422 0 
L 422 222 
Q 516 228 714 248 
Q 913 269 988 291 
Q 1084 322 1136 392 
Q 1188 463 1188 603 
L 1188 2797 
L 409 2797 
L 409 3059 
L 581 3059 
Q 919 3059 1186 3184 
Q 1453 3309 1569 3453 
L 1828 3453 
Q 1819 3250 1809 2978 
Q 1800 2706 1800 2491 
L 1800 638 
Q 1800 528 1848 442 
Q 1897 356 1988 316 
Q 2069 281 2253 253 
Q 2438 225 2528 222 
L 2528 0 
z
" transform="scale(0.015625)"/>
       </defs>
       <use xlink:href="#Georgia-31"/>
      </g>
     </g>
    </g>
    <g id="xtick_3">
     <g id="line2d_5">
      <path d="M 273.670793 515.7875 
L 273.670793 13.2475 
" clip-path="url(#p2c9676d967)" style="fill: none; stroke: #b0b0b0; stroke-width: 0.8; stroke-linecap: square"/>
     </g>
     <g id="line2d_6">
      <g>
       <use xlink:href="#mcadacfd19b" x="273.670793" y="515.7875" style="stroke: #000000; stroke-width: 0.8"/>
      </g>
     </g>
     <g id="text_3">
      <!-- 2 -->
      <g transform="translate(269.202043 534.8825) scale(0.16 -0.16)">
       <defs>
        <path id="Georgia-32" d="M 3272 0 
L 344 0 
L 344 425 
Q 428 522 578 642 
Q 728 763 934 903 
Q 1059 988 1234 1088 
Q 1409 1188 1631 1306 
Q 1878 1438 2011 1538 
Q 2144 1638 2253 1784 
Q 2325 1881 2369 2026 
Q 2413 2172 2413 2441 
Q 2413 2831 2203 3014 
Q 1994 3197 1666 3197 
Q 1463 3197 1281 3117 
Q 1100 3038 1009 2897 
Q 1031 2797 1064 2659 
Q 1097 2522 1097 2391 
Q 1097 2272 998 2180 
Q 900 2088 706 2088 
Q 550 2088 465 2195 
Q 381 2303 381 2484 
Q 381 2653 475 2823 
Q 569 2994 744 3138 
Q 916 3278 1169 3365 
Q 1422 3453 1716 3453 
Q 2356 3453 2732 3167 
Q 3109 2881 3109 2403 
Q 3109 2175 3042 1987 
Q 2975 1800 2825 1656 
Q 2659 1497 2437 1383 
Q 2216 1269 1759 1066 
Q 1488 944 1253 811 
Q 1019 678 869 553 
L 3272 553 
L 3272 0 
z
" transform="scale(0.015625)"/>
       </defs>
       <use xlink:href="#Georgia-32"/>
      </g>
     </g>
    </g>
    <g id="xtick_4">
     <g id="line2d_7">
      <path d="M 361.451935 515.7875 
L 361.451935 13.2475 
" clip-path="url(#p2c9676d967)" style="fill: none; stroke: #b0b0b0; stroke-width: 0.8; stroke-linecap: square"/>
     </g>
     <g id="line2d_8">
      <g>
       <use xlink:href="#mcadacfd19b" x="361.451935" y="515.7875" style="stroke: #000000; stroke-width: 0.8"/>
      </g>
     </g>
     <g id="text_4">
      <!-- 3 -->
      <g transform="translate(357.038185 534.8825) scale(0.16 -0.16)">
       <defs>
        <path id="Georgia-33" d="M 1522 -1141 
Q 1228 -1141 984 -1067 
Q 741 -994 566 -869 
Q 391 -744 295 -581 
Q 200 -419 200 -247 
Q 200 -94 275 29 
Q 350 153 516 153 
Q 703 153 801 61 
Q 900 -31 900 -150 
Q 900 -250 867 -403 
Q 834 -556 816 -622 
Q 838 -650 895 -697 
Q 953 -744 1038 -781 
Q 1138 -828 1247 -856 
Q 1356 -884 1556 -884 
Q 1744 -884 1917 -821 
Q 2091 -759 2222 -622 
Q 2359 -478 2436 -286 
Q 2513 -94 2513 219 
Q 2513 388 2477 553 
Q 2441 719 2344 841 
Q 2247 963 2080 1030 
Q 1913 1097 1656 1097 
L 1247 1097 
L 1247 1456 
L 1519 1456 
Q 1950 1456 2140 1693 
Q 2331 1931 2331 2409 
Q 2331 2800 2147 2998 
Q 1963 3197 1625 3197 
Q 1463 3197 1358 3158 
Q 1253 3119 1188 3081 
Q 1109 3038 1059 2984 
Q 1009 2931 984 2906 
Q 1006 2806 1037 2661 
Q 1069 2516 1069 2384 
Q 1069 2269 970 2176 
Q 872 2084 681 2084 
Q 516 2084 439 2203 
Q 363 2322 363 2478 
Q 363 2641 453 2809 
Q 544 2978 722 3125 
Q 900 3272 1156 3362 
Q 1413 3453 1747 3453 
Q 2131 3453 2382 3339 
Q 2634 3225 2778 3063 
Q 2919 2903 2972 2728 
Q 3025 2553 3025 2428 
Q 3025 2272 2981 2114 
Q 2938 1956 2838 1822 
Q 2728 1675 2548 1554 
Q 2369 1434 2097 1359 
L 2097 1309 
Q 2272 1294 2470 1231 
Q 2669 1169 2828 1047 
Q 2994 919 3100 717 
Q 3206 516 3206 206 
Q 3206 -394 2725 -767 
Q 2244 -1141 1522 -1141 
z
" transform="scale(0.015625)"/>
       </defs>
       <use xlink:href="#Georgia-33"/>
      </g>
     </g>
    </g>
    <g id="xtick_5">
     <g id="line2d_9">
      <path d="M 449.233077 515.7875 
L 449.233077 13.2475 
" clip-path="url(#p2c9676d967)" style="fill: none; stroke: #b0b0b0; stroke-width: 0.8; stroke-linecap: square"/>
     </g>
     <g id="line2d_10">
      <g>
       <use xlink:href="#mcadacfd19b" x="449.233077" y="515.7875" style="stroke: #000000; stroke-width: 0.8"/>
      </g>
     </g>
     <g id="text_5">
      <!-- 4 -->
      <g transform="translate(444.713077 534.8825) scale(0.16 -0.16)">
       <defs>
        <path id="Georgia-34" d="M 3388 281 
L 2753 281 
L 2753 -1141 
L 2153 -1141 
L 2153 281 
L 153 281 
L 153 763 
L 2344 3434 
L 2753 3434 
L 2753 691 
L 3388 691 
L 3388 281 
z
M 2153 691 
L 2153 2738 
L 466 691 
L 2153 691 
z
" transform="scale(0.015625)"/>
       </defs>
       <use xlink:href="#Georgia-34"/>
      </g>
     </g>
    </g>
    <g id="xtick_6">
     <g id="line2d_11">
      <path d="M 537.014219 515.7875 
L 537.014219 13.2475 
" clip-path="url(#p2c9676d967)" style="fill: none; stroke: #b0b0b0; stroke-width: 0.8; stroke-linecap: square"/>
     </g>
     <g id="line2d_12">
      <g>
       <use xlink:href="#mcadacfd19b" x="537.014219" y="515.7875" style="stroke: #000000; stroke-width: 0.8"/>
      </g>
     </g>
     <g id="text_6">
      <!-- 5 -->
      <g transform="translate(532.787969 534.8825) scale(0.16 -0.16)">
       <defs>
        <path id="Georgia-35" d="M 2634 1466 
Q 2841 1303 2977 1047 
Q 3113 791 3113 406 
Q 3113 -266 2653 -703 
Q 2194 -1141 1488 -1141 
Q 941 -1141 562 -881 
Q 184 -622 184 -278 
Q 184 -119 262 0 
Q 341 119 503 119 
Q 691 119 789 20 
Q 888 -78 888 -194 
Q 888 -294 853 -444 
Q 819 -594 800 -666 
Q 825 -688 881 -725 
Q 938 -763 1016 -797 
Q 1097 -831 1214 -857 
Q 1331 -884 1488 -884 
Q 1688 -884 1866 -803 
Q 2044 -722 2166 -563 
Q 2300 -388 2367 -164 
Q 2434 59 2434 403 
Q 2434 844 2189 1133 
Q 1944 1422 1544 1422 
Q 1294 1422 1076 1328 
Q 859 1234 688 1016 
L 478 1097 
L 744 3353 
L 2981 3353 
L 2981 2797 
L 997 2797 
L 834 1472 
Q 975 1572 1204 1670 
Q 1434 1769 1709 1769 
Q 1938 1769 2183 1698 
Q 2428 1628 2634 1466 
z
" transform="scale(0.015625)"/>
       </defs>
       <use xlink:href="#Georgia-35"/>
      </g>
     </g>
    </g>
    <g id="xtick_7">
     <g id="line2d_13">
      <path d="M 624.795361 515.7875 
L 624.795361 13.2475 
" clip-path="url(#p2c9676d967)" style="fill: none; stroke: #b0b0b0; stroke-width: 0.8; stroke-linecap: square"/>
     </g>
     <g id="line2d_14">
      <g>
       <use xlink:href="#mcadacfd19b" x="624.795361" y="515.7875" style="stroke: #000000; stroke-width: 0.8"/>
      </g>
     </g>
     <g id="text_7">
      <!-- 6 -->
      <g transform="translate(620.267861 534.8825) scale(0.16 -0.16)">
       <defs>
        <path id="Georgia-36" d="M 3359 1441 
Q 3359 1116 3242 831 
Q 3125 547 2928 347 
Q 2700 119 2423 9 
Q 2147 -100 1847 -100 
Q 1500 -100 1219 28 
Q 938 156 741 391 
Q 541 628 431 972 
Q 322 1316 322 1744 
Q 322 2859 986 3625 
Q 1650 4391 2766 4544 
L 2822 4263 
L 2541 4213 
Q 1863 3994 1492 3531 
Q 1122 3069 1013 2409 
Q 1281 2644 1543 2741 
Q 1806 2838 2097 2838 
Q 2619 2838 2989 2438 
Q 3359 2038 3359 1441 
z
M 2681 1356 
Q 2681 1863 2448 2169 
Q 2216 2475 1825 2475 
Q 1591 2475 1389 2387 
Q 1188 2300 1000 2094 
Q 997 2056 990 1920 
Q 984 1784 984 1706 
Q 984 975 1223 561 
Q 1463 147 1853 147 
Q 2225 147 2453 470 
Q 2681 794 2681 1356 
z
" transform="scale(0.015625)"/>
       </defs>
       <use xlink:href="#Georgia-36"/>
      </g>
     </g>
    </g>
    <g id="text_8">
     <!-- $x$ -->
     <g transform="translate(367.8811 557.47125) scale(0.2 -0.2)">
      <defs>
       <path id="DejaVuSans-Oblique-78" d="M 3841 3500 
L 2234 1784 
L 3219 0 
L 2559 0 
L 1819 1388 
L 531 0 
L -166 0 
L 1556 1844 
L 641 3500 
L 1300 3500 
L 1972 2234 
L 3144 3500 
L 3841 3500 
z
" transform="scale(0.015625)"/>
      </defs>
      <use xlink:href="#DejaVuSans-Oblique-78" transform="translate(0 0.3125)"/>
     </g>
    </g>
   </g>
   <g id="matplotlib.axis_2">
    <g id="ytick_1">
     <g id="line2d_15">
      <path d="M 70.53125 473.12193 
L 677.23095 473.12193 
" clip-path="url(#p2c9676d967)" style="fill: none; stroke: #b0b0b0; stroke-width: 0.8; stroke-linecap: square"/>
     </g>
     <g id="line2d_16">
      <defs>
       <path id="m8af738fb10" d="M 0 0 
L -3.5 0 
" style="stroke: #000000; stroke-width: 0.8"/>
      </defs>
      <g>
       <use xlink:href="#m8af738fb10" x="70.53125" y="473.12193" style="stroke: #000000; stroke-width: 0.8"/>
      </g>
     </g>
     <g id="text_9">
      <!-- −1.0 -->
      <g transform="translate(32.23375 479.16943) scale(0.16 -0.16)">
       <defs>
        <path id="Georgia-2212" d="M 3650 1553 
L 466 1553 
L 466 1944 
L 3650 1944 
L 3650 1553 
z
" transform="scale(0.015625)"/>
        <path id="Georgia-2e" d="M 1297 359 
Q 1297 184 1170 60 
Q 1044 -63 869 -63 
Q 694 -63 567 60 
Q 441 184 441 359 
Q 441 534 567 661 
Q 694 788 869 788 
Q 1044 788 1170 661 
Q 1297 534 1297 359 
z
" transform="scale(0.015625)"/>
       </defs>
       <use xlink:href="#Georgia-2212"/>
       <use xlink:href="#Georgia-31" x="64.306641"/>
       <use xlink:href="#Georgia-2e" x="107.275391"/>
       <use xlink:href="#Georgia-30" x="134.228516"/>
      </g>
     </g>
    </g>
    <g id="ytick_2">
     <g id="line2d_17">
      <path d="M 70.53125 368.819715 
L 677.23095 368.819715 
" clip-path="url(#p2c9676d967)" style="fill: none; stroke: #b0b0b0; stroke-width: 0.8; stroke-linecap: square"/>
     </g>
     <g id="line2d_18">
      <g>
       <use xlink:href="#m8af738fb10" x="70.53125" y="368.819715" style="stroke: #000000; stroke-width: 0.8"/>
      </g>
     </g>
     <g id="text_10">
      <!-- −0.5 -->
      <g transform="translate(30.65625 374.867215) scale(0.16 -0.16)">
       <use xlink:href="#Georgia-2212"/>
       <use xlink:href="#Georgia-30" x="64.306641"/>
       <use xlink:href="#Georgia-2e" x="125.683594"/>
       <use xlink:href="#Georgia-35" x="152.636719"/>
      </g>
     </g>
    </g>
    <g id="ytick_3">
     <g id="line2d_19">
      <path d="M 70.53125 264.5175 
L 677.23095 264.5175 
" clip-path="url(#p2c9676d967)" style="fill: none; stroke: #b0b0b0; stroke-width: 0.8; stroke-linecap: square"/>
     </g>
     <g id="line2d_20">
      <g>
       <use xlink:href="#m8af738fb10" x="70.53125" y="264.5175" style="stroke: #000000; stroke-width: 0.8"/>
      </g>
     </g>
     <g id="text_11">
      <!-- 0.0 -->
      <g transform="translate(39.57875 270.565) scale(0.16 -0.16)">
       <use xlink:href="#Georgia-30"/>
       <use xlink:href="#Georgia-2e" x="61.376953"/>
       <use xlink:href="#Georgia-30" x="88.330078"/>
      </g>
     </g>
    </g>
    <g id="ytick_4">
     <g id="line2d_21">
      <path d="M 70.53125 160.215285 
L 677.23095 160.215285 
" clip-path="url(#p2c9676d967)" style="fill: none; stroke: #b0b0b0; stroke-width: 0.8; stroke-linecap: square"/>
     </g>
     <g id="line2d_22">
      <g>
       <use xlink:href="#m8af738fb10" x="70.53125" y="160.215285" style="stroke: #000000; stroke-width: 0.8"/>
      </g>
     </g>
     <g id="text_12">
      <!-- 0.5 -->
      <g transform="translate(40.94625 166.262785) scale(0.16 -0.16)">
       <use xlink:href="#Georgia-30"/>
       <use xlink:href="#Georgia-2e" x="61.376953"/>
       <use xlink:href="#Georgia-35" x="88.330078"/>
      </g>
     </g>
    </g>
    <g id="ytick_5">
     <g id="line2d_23">
      <path d="M 70.53125 55.91307 
L 677.23095 55.91307 
" clip-path="url(#p2c9676d967)" style="fill: none; stroke: #b0b0b0; stroke-width: 0.8; stroke-linecap: square"/>
     </g>
     <g id="line2d_24">
      <g>
       <use xlink:href="#m8af738fb10" x="70.53125" y="55.91307" style="stroke: #000000; stroke-width: 0.8"/>
      </g>
     </g>
     <g id="text_13">
      <!-- 1.0 -->
      <g transform="translate(42.52375 61.96057) scale(0.16 -0.16)">
       <use xlink:href="#Georgia-31"/>
       <use xlink:href="#Georgia-2e" x="42.96875"/>
       <use xlink:href="#Georgia-30" x="69.921875"/>
      </g>
     </g>
    </g>
    <g id="text_14">
     <!-- $y$ -->
     <g transform="translate(22.31875 270.5175) rotate(-90) scale(0.2 -0.2)">
      <defs>
       <path id="DejaVuSans-Oblique-79" d="M 1588 -325 
Q 1188 -997 936 -1164 
Q 684 -1331 294 -1331 
L -159 -1331 
L -63 -850 
L 269 -850 
Q 509 -850 678 -719 
Q 847 -588 1056 -206 
L 1234 128 
L 459 3500 
L 1069 3500 
L 1650 819 
L 3256 3500 
L 3859 3500 
L 1588 -325 
z
" transform="scale(0.015625)"/>
      </defs>
      <use xlink:href="#DejaVuSans-Oblique-79" transform="translate(0 0.3125)"/>
     </g>
    </g>
   </g>
   <g id="line2d_25">
    <path d="M 98.108509 264.5175 
L 115.775622 222.815976 
L 125.161276 201.241738 
L 132.890638 184.006712 
L 140.067902 168.558557 
L 146.140972 155.983804 
L 152.214042 143.928336 
L 157.735015 133.468026 
L 162.703891 124.495694 
L 167.672766 115.971895 
L 172.089544 108.793837 
L 176.506323 102.009938 
L 180.923101 95.637369 
L 185.339879 89.69226 
L 189.20456 84.852798 
L 193.069241 80.361527 
L 196.933922 76.227151 
L 200.798603 72.457683 
L 204.111187 69.522703 
L 207.42377 66.865377 
L 210.736354 64.489488 
L 214.048938 62.398418 
L 217.361521 60.595147 
L 220.674105 59.08224 
L 223.434591 58.044858 
L 226.195078 57.211648 
L 228.955564 56.583433 
L 231.716051 56.160835 
L 234.476537 55.944272 
L 237.237023 55.933957 
L 239.99751 56.129902 
L 242.757996 56.531912 
L 245.518482 57.139589 
L 248.278969 57.952334 
L 251.039455 58.969342 
L 253.799942 60.189607 
L 257.112525 61.920512 
L 260.425109 63.939895 
L 263.737693 66.244881 
L 267.050276 68.832187 
L 270.36286 71.69813 
L 273.675444 74.838628 
L 277.540125 78.843563 
L 281.404806 83.208336 
L 285.269487 87.924486 
L 289.134167 92.982874 
L 292.998848 98.373697 
L 297.415627 104.928269 
L 301.832405 111.886786 
L 306.249183 119.231632 
L 311.218059 127.933187 
L 316.186934 137.072261 
L 321.707907 147.704279 
L 327.780977 159.931355 
L 333.854047 172.658829 
L 340.479214 187.042433 
L 348.208576 204.374926 
L 357.042133 224.746096 
L 369.188273 253.370707 
L 392.376359 308.145434 
L 401.762012 329.665716 
L 409.491374 346.840214 
L 416.116542 361.058446 
L 422.189612 373.610883 
L 428.262682 385.641357 
L 433.783654 396.076722 
L 438.75253 405.024876 
L 443.721406 413.522943 
L 448.138184 420.676888 
L 452.554962 427.435571 
L 456.97174 433.781885 
L 460.836421 438.983984 
L 464.701102 443.847966 
L 468.565783 448.364404 
L 472.430464 452.524547 
L 476.295145 456.320331 
L 479.607729 459.278265 
L 482.920312 461.958879 
L 486.232896 464.358356 
L 489.54548 466.47328 
L 492.858063 468.300638 
L 496.170647 469.83783 
L 498.931133 470.895576 
L 501.69162 471.749244 
L 504.452106 472.39799 
L 507.212593 472.841172 
L 509.973079 473.078351 
L 512.733565 473.109294 
L 515.494052 472.93397 
L 518.254538 472.552552 
L 521.015025 471.965418 
L 523.775511 471.173147 
L 526.535997 470.176524 
L 529.296484 468.976533 
L 532.609067 467.269785 
L 535.921651 465.274338 
L 539.234235 462.993032 
L 542.546818 460.429118 
L 545.859402 457.586244 
L 549.171986 454.46846 
L 552.484569 451.080205 
L 556.34925 446.791852 
L 560.213931 442.15025 
L 564.078612 437.164396 
L 567.943293 431.843951 
L 572.360071 425.366997 
L 576.77685 418.482908 
L 581.193628 411.209111 
L 586.162503 402.583226 
L 591.131379 393.515075 
L 596.652352 382.956021 
L 602.173324 371.928607 
L 608.246395 359.309595 
L 614.871562 345.028288 
L 622.600924 327.793262 
L 631.43448 307.50372 
L 643.028523 280.246705 
L 649.65369 264.5175 
L 649.65369 264.5175 
" clip-path="url(#p2c9676d967)" style="fill: none; stroke: #000000; stroke-linecap: square"/>
   </g>
   <g id="line2d_26">
    <defs>
     <path id="m72971ea3b7" d="M 0 0.4 
C 0.106081 0.4 0.207832 0.357853 0.282843 0.282843 
C 0.357853 0.207832 0.4 0.106081 0.4 0 
C 0.4 -0.106081 0.357853 -0.207832 0.282843 -0.282843 
C 0.207832 -0.357853 0.106081 -0.4 0 -0.4 
C -0.106081 -0.4 -0.207832 -0.357853 -0.282843 -0.282843 
C -0.357853 -0.207832 -0.4 -0.106081 -0.4 0 
C -0.4 0.106081 -0.357853 0.207832 -0.282843 0.282843 
C -0.207832 0.357853 -0.106081 0.4 0 0.4 
z
" style="stroke: #000000"/>
    </defs>
    <g clip-path="url(#p2c9676d967)">
     <use xlink:href="#m72971ea3b7" x="98.108509" y="264.5175" style="stroke: #000000"/>
     <use xlink:href="#m72971ea3b7" x="103.679673" y="256.461419" style="stroke: #000000"/>
     <use xlink:href="#m72971ea3b7" x="109.250836" y="250.626298" style="stroke: #000000"/>
     <use xlink:href="#m72971ea3b7" x="114.821999" y="244.880461" style="stroke: #000000"/>
     <use xlink:href="#m72971ea3b7" x="120.393163" y="239.158993" style="stroke: #000000"/>
     <use xlink:href="#m72971ea3b7" x="125.964326" y="233.451931" style="stroke: #000000"/>
     <use xlink:href="#m72971ea3b7" x="131.53549" y="227.758183" style="stroke: #000000"/>
     <use xlink:href="#m72971ea3b7" x="137.106653" y="222.078681" style="stroke: #000000"/>
     <use xlink:href="#m72971ea3b7" x="142.677817" y="216.414933" style="stroke: #000000"/>
     <use xlink:href="#m72971ea3b7" x="148.24898" y="210.768659" style="stroke: #000000"/>
     <use xlink:href="#m72971ea3b7" x="153.820144" y="205.141696" style="stroke: #000000"/>
     <use xlink:href="#m72971ea3b7" x="159.391307" y="199.535974" style="stroke: #000000"/>
     <use xlink:href="#m72971ea3b7" x="164.96247" y="193.953518" style="stroke: #000000"/>
     <use xlink:href="#m72971ea3b7" x="170.533634" y="188.39645" style="stroke: #000000"/>
     <use xlink:href="#m72971ea3b7" x="176.104797" y="182.867008" style="stroke: #000000"/>
     <use xlink:href="#m72971ea3b7" x="181.675961" y="177.367556" style="stroke: #000000"/>
     <use xlink:href="#m72971ea3b7" x="187.247124" y="171.900598" style="stroke: #000000"/>
     <use xlink:href="#m72971ea3b7" x="192.818288" y="166.468798" style="stroke: #000000"/>
     <use xlink:href="#m72971ea3b7" x="198.389451" y="161.074999" style="stroke: #000000"/>
     <use xlink:href="#m72971ea3b7" x="203.960615" y="155.722247" style="stroke: #000000"/>
     <use xlink:href="#m72971ea3b7" x="209.531778" y="150.413816" style="stroke: #000000"/>
     <use xlink:href="#m72971ea3b7" x="215.102941" y="145.153237" style="stroke: #000000"/>
     <use xlink:href="#m72971ea3b7" x="220.674105" y="139.944336" style="stroke: #000000"/>
     <use xlink:href="#m72971ea3b7" x="226.245268" y="134.791272" style="stroke: #000000"/>
     <use xlink:href="#m72971ea3b7" x="231.816432" y="129.698582" style="stroke: #000000"/>
     <use xlink:href="#m72971ea3b7" x="237.387595" y="124.671244" style="stroke: #000000"/>
     <use xlink:href="#m72971ea3b7" x="242.958759" y="119.714737" style="stroke: #000000"/>
     <use xlink:href="#m72971ea3b7" x="248.529922" y="114.835122" style="stroke: #000000"/>
     <use xlink:href="#m72971ea3b7" x="254.101086" y="110.039137" style="stroke: #000000"/>
     <use xlink:href="#m72971ea3b7" x="259.672249" y="105.334312" style="stroke: #000000"/>
     <use xlink:href="#m72971ea3b7" x="265.243413" y="100.72911" style="stroke: #000000"/>
     <use xlink:href="#m72971ea3b7" x="270.814576" y="96.233102" style="stroke: #000000"/>
     <use xlink:href="#m72971ea3b7" x="276.385739" y="91.857183" style="stroke: #000000"/>
     <use xlink:href="#m72971ea3b7" x="281.956903" y="87.613842" style="stroke: #000000"/>
     <use xlink:href="#m72971ea3b7" x="287.528066" y="83.517518" style="stroke: #000000"/>
     <use xlink:href="#m72971ea3b7" x="293.09923" y="79.585044" style="stroke: #000000"/>
     <use xlink:href="#m72971ea3b7" x="298.670393" y="75.836246" style="stroke: #000000"/>
     <use xlink:href="#m72971ea3b7" x="304.241557" y="72.294732" style="stroke: #000000"/>
     <use xlink:href="#m72971ea3b7" x="309.81272" y="68.988979" style="stroke: #000000"/>
     <use xlink:href="#m72971ea3b7" x="315.383884" y="65.953838" style="stroke: #000000"/>
     <use xlink:href="#m72971ea3b7" x="320.955047" y="63.232703" style="stroke: #000000"/>
     <use xlink:href="#m72971ea3b7" x="326.52621" y="60.880701" style="stroke: #000000"/>
     <use xlink:href="#m72971ea3b7" x="332.097374" y="58.969606" style="stroke: #000000"/>
     <use xlink:href="#m72971ea3b7" x="337.668537" y="57.595701" style="stroke: #000000"/>
     <use xlink:href="#m72971ea3b7" x="343.239701" y="56.89315" style="stroke: #000000"/>
     <use xlink:href="#m72971ea3b7" x="348.810864" y="57.058402" style="stroke: #000000"/>
     <use xlink:href="#m72971ea3b7" x="354.382028" y="58.399309" style="stroke: #000000"/>
     <use xlink:href="#m72971ea3b7" x="359.953191" y="61.448335" style="stroke: #000000"/>
     <use xlink:href="#m72971ea3b7" x="365.524355" y="67.282264" style="stroke: #000000"/>
     <use xlink:href="#m72971ea3b7" x="371.095518" y="78.769829" style="stroke: #000000"/>
     <use xlink:href="#m72971ea3b7" x="376.666681" y="450.265171" style="stroke: #000000"/>
     <use xlink:href="#m72971ea3b7" x="382.237845" y="461.752736" style="stroke: #000000"/>
     <use xlink:href="#m72971ea3b7" x="387.809008" y="467.586665" style="stroke: #000000"/>
     <use xlink:href="#m72971ea3b7" x="393.380172" y="470.635691" style="stroke: #000000"/>
     <use xlink:href="#m72971ea3b7" x="398.951335" y="471.976598" style="stroke: #000000"/>
     <use xlink:href="#m72971ea3b7" x="404.522499" y="472.14185" style="stroke: #000000"/>
     <use xlink:href="#m72971ea3b7" x="410.093662" y="471.439299" style="stroke: #000000"/>
     <use xlink:href="#m72971ea3b7" x="415.664826" y="470.065394" style="stroke: #000000"/>
     <use xlink:href="#m72971ea3b7" x="421.235989" y="468.154299" style="stroke: #000000"/>
     <use xlink:href="#m72971ea3b7" x="426.807153" y="465.802297" style="stroke: #000000"/>
     <use xlink:href="#m72971ea3b7" x="432.378316" y="463.081162" style="stroke: #000000"/>
     <use xlink:href="#m72971ea3b7" x="437.949479" y="460.046021" style="stroke: #000000"/>
     <use xlink:href="#m72971ea3b7" x="443.520643" y="456.740268" style="stroke: #000000"/>
     <use xlink:href="#m72971ea3b7" x="449.091806" y="453.198754" style="stroke: #000000"/>
     <use xlink:href="#m72971ea3b7" x="454.66297" y="449.449956" style="stroke: #000000"/>
     <use xlink:href="#m72971ea3b7" x="460.234133" y="445.517482" style="stroke: #000000"/>
     <use xlink:href="#m72971ea3b7" x="465.805297" y="441.421158" style="stroke: #000000"/>
     <use xlink:href="#m72971ea3b7" x="471.37646" y="437.177817" style="stroke: #000000"/>
     <use xlink:href="#m72971ea3b7" x="476.947624" y="432.801898" style="stroke: #000000"/>
     <use xlink:href="#m72971ea3b7" x="482.518787" y="428.30589" style="stroke: #000000"/>
     <use xlink:href="#m72971ea3b7" x="488.08995" y="423.700688" style="stroke: #000000"/>
     <use xlink:href="#m72971ea3b7" x="493.661114" y="418.995863" style="stroke: #000000"/>
     <use xlink:href="#m72971ea3b7" x="499.232277" y="414.199878" style="stroke: #000000"/>
     <use xlink:href="#m72971ea3b7" x="504.803441" y="409.320263" style="stroke: #000000"/>
     <use xlink:href="#m72971ea3b7" x="510.374604" y="404.363756" style="stroke: #000000"/>
     <use xlink:href="#m72971ea3b7" x="515.945768" y="399.336418" style="stroke: #000000"/>
     <use xlink:href="#m72971ea3b7" x="521.516931" y="394.243728" style="stroke: #000000"/>
     <use xlink:href="#m72971ea3b7" x="527.088095" y="389.090664" style="stroke: #000000"/>
     <use xlink:href="#m72971ea3b7" x="532.659258" y="383.881763" style="stroke: #000000"/>
     <use xlink:href="#m72971ea3b7" x="538.230421" y="378.621184" style="stroke: #000000"/>
     <use xlink:href="#m72971ea3b7" x="543.801585" y="373.312753" style="stroke: #000000"/>
     <use xlink:href="#m72971ea3b7" x="549.372748" y="367.960001" style="stroke: #000000"/>
     <use xlink:href="#m72971ea3b7" x="554.943912" y="362.566202" style="stroke: #000000"/>
     <use xlink:href="#m72971ea3b7" x="560.515075" y="357.134402" style="stroke: #000000"/>
     <use xlink:href="#m72971ea3b7" x="566.086239" y="351.667444" style="stroke: #000000"/>
     <use xlink:href="#m72971ea3b7" x="571.657402" y="346.167992" style="stroke: #000000"/>
     <use xlink:href="#m72971ea3b7" x="577.228566" y="340.63855" style="stroke: #000000"/>
     <use xlink:href="#m72971ea3b7" x="582.799729" y="335.081482" style="stroke: #000000"/>
     <use xlink:href="#m72971ea3b7" x="588.370893" y="329.499026" style="stroke: #000000"/>
     <use xlink:href="#m72971ea3b7" x="593.942056" y="323.893304" style="stroke: #000000"/>
     <use xlink:href="#m72971ea3b7" x="599.513219" y="318.266341" style="stroke: #000000"/>
     <use xlink:href="#m72971ea3b7" x="605.084383" y="312.620067" style="stroke: #000000"/>
     <use xlink:href="#m72971ea3b7" x="610.655546" y="306.956319" style="stroke: #000000"/>
     <use xlink:href="#m72971ea3b7" x="616.22671" y="301.276817" style="stroke: #000000"/>
     <use xlink:href="#m72971ea3b7" x="621.797873" y="295.583069" style="stroke: #000000"/>
     <use xlink:href="#m72971ea3b7" x="627.369037" y="289.876007" style="stroke: #000000"/>
     <use xlink:href="#m72971ea3b7" x="632.9402" y="284.154539" style="stroke: #000000"/>
     <use xlink:href="#m72971ea3b7" x="638.511364" y="278.408702" style="stroke: #000000"/>
     <use xlink:href="#m72971ea3b7" x="644.082527" y="272.573581" style="stroke: #000000"/>
     <use xlink:href="#m72971ea3b7" x="649.65369" y="264.5175" style="stroke: #000000"/>
    </g>
   </g>
   <g id="line2d_27">
    <path d="M 98.108509 264.5175 
L 103.679673 258.794918 
L 109.250836 253.072728 
L 114.821999 247.351147 
L 120.393163 241.630127 
L 125.964326 235.909457 
L 131.53549 230.189068 
L 137.106653 224.469573 
L 142.677817 218.752969 
L 148.24898 213.043407 
L 153.820144 207.347896 
L 159.391307 201.676761 
L 164.96247 196.043692 
L 170.533634 190.465225 
L 176.104797 184.959557 
L 181.675961 179.544646 
L 187.247124 174.235671 
L 192.818288 169.042008 
L 198.389451 163.963989 
L 203.960615 158.989814 
L 209.531778 154.093063 
L 215.102941 149.231269 
L 220.674105 144.346038 
L 226.245268 139.365098 
L 231.816432 134.206567 
L 237.387595 128.785536 
L 242.958759 123.022839 
L 248.529922 116.855655 
L 254.101086 110.249309 
L 259.672249 103.209407 
L 265.243413 95.793288 
L 270.814576 88.119605 
L 276.385739 80.37488 
L 281.956903 72.815956 
L 287.528066 65.76746 
L 293.09923 59.613732 
L 298.670393 54.785082 
L 304.241557 51.738676 
L 309.81272 50.934886 
L 315.383884 52.810379 
L 320.955047 57.74961 
L 326.52621 66.056708 
L 332.097374 77.929829 
L 337.668537 93.440062 
L 343.239701 112.516714 
L 348.810864 134.940441 
L 354.382028 160.34515 
L 359.953191 188.228957 
L 365.524355 217.973791 
L 371.095518 248.872594 
L 376.666681 280.162406 
L 382.237845 311.061209 
L 387.809008 340.806043 
L 393.380172 368.68985 
L 398.951335 394.094559 
L 404.522499 416.518286 
L 410.093662 435.594938 
L 415.664826 451.105171 
L 421.235989 462.978292 
L 426.807153 471.28539 
L 432.378316 476.224621 
L 437.949479 478.100114 
L 443.520643 477.296324 
L 449.091806 474.249918 
L 454.66297 469.421268 
L 460.234133 463.26754 
L 465.805297 456.219044 
L 471.37646 448.66012 
L 476.947624 440.915395 
L 482.518787 433.241712 
L 488.08995 425.825593 
L 493.661114 418.785691 
L 499.232277 412.179345 
L 504.803441 406.012161 
L 510.374604 400.249464 
L 515.945768 394.828433 
L 521.516931 389.669902 
L 527.088095 384.688962 
L 532.659258 379.803731 
L 538.230421 374.941937 
L 543.801585 370.045186 
L 549.372748 365.071011 
L 554.943912 359.992992 
L 560.515075 354.799329 
L 566.086239 349.490354 
L 571.657402 344.075443 
L 577.228566 338.569775 
L 582.799729 332.991308 
L 588.370893 327.358239 
L 593.942056 321.687104 
L 599.513219 315.991593 
L 605.084383 310.282031 
L 610.655546 304.565427 
L 616.22671 298.845932 
L 621.797873 293.125543 
L 627.369037 287.404873 
L 632.9402 281.683853 
L 638.511364 275.962272 
L 644.082527 270.240082 
L 649.65369 264.5175 
" clip-path="url(#p2c9676d967)" style="fill: none; stroke: #a80000; stroke-width: 3; stroke-linecap: square"/>
   </g>
   <g id="line2d_28">
    <path d="M 98.108509 264.5175 
L 103.679673 258.928743 
L 109.250836 253.338643 
L 114.821999 247.737452 
L 120.393163 242.119015 
L 125.964326 236.486568 
L 131.53549 230.840232 
L 137.106653 225.175504 
L 142.677817 219.495723 
L 148.24898 213.809985 
L 153.820144 208.121874 
L 159.391307 202.433655 
L 164.96247 196.754429 
L 170.533634 191.093746 
L 176.104797 185.455563 
L 181.675961 179.84439 
L 187.247124 174.268308 
L 192.818288 168.733182 
L 198.389451 163.241574 
L 203.960615 157.79743 
L 209.531778 152.405989 
L 215.102941 147.07067 
L 220.674105 141.794096 
L 226.245268 136.580325 
L 231.816432 131.433907 
L 237.387595 126.358849 
L 242.958759 121.3597 
L 248.529922 116.442172 
L 254.101086 111.612484 
L 259.672249 106.877303 
L 265.243413 102.244299 
L 270.814576 97.722347 
L 276.385739 93.321884 
L 281.956903 89.054469 
L 287.528066 84.930439 
L 293.09923 80.962057 
L 298.670393 77.178855 
L 304.241557 73.623564 
L 309.81272 70.281992 
L 315.383884 67.045005 
L 320.955047 63.963132 
L 326.52621 61.66495 
L 332.097374 60.916321 
L 337.668537 60.66231 
L 343.239701 56.839063 
L 348.810864 46.375265 
L 354.382028 36.090227 
L 359.953191 46.681028 
L 365.524355 101.206199 
L 371.095518 203.173055 
L 376.666681 325.861945 
L 382.237845 427.828801 
L 387.809008 482.353972 
L 393.380172 492.944773 
L 398.951335 482.659735 
L 404.522499 472.195937 
L 410.093662 468.37269 
L 415.664826 468.118679 
L 421.235989 467.37005 
L 426.807153 465.071868 
L 432.378316 461.989995 
L 437.949479 458.753008 
L 443.520643 455.411436 
L 449.091806 451.856145 
L 454.66297 448.072943 
L 460.234133 444.104561 
L 465.805297 439.980531 
L 471.37646 435.713116 
L 476.947624 431.312653 
L 482.518787 426.790701 
L 488.08995 422.157697 
L 493.661114 417.422516 
L 499.232277 412.592828 
L 504.803441 407.6753 
L 510.374604 402.676151 
L 515.945768 397.601093 
L 521.516931 392.454675 
L 527.088095 387.240904 
L 532.659258 381.96433 
L 538.230421 376.629011 
L 543.801585 371.23757 
L 549.372748 365.793426 
L 554.943912 360.301818 
L 560.515075 354.766692 
L 566.086239 349.19061 
L 571.657402 343.579437 
L 577.228566 337.941254 
L 582.799729 332.280571 
L 588.370893 326.601345 
L 593.942056 320.913126 
L 599.513219 315.225015 
L 605.084383 309.539277 
L 610.655546 303.859496 
L 616.22671 298.194768 
L 621.797873 292.548432 
L 627.369037 286.915985 
L 632.9402 281.297548 
L 638.511364 275.696357 
L 644.082527 270.106257 
L 649.65369 264.5175 
" clip-path="url(#p2c9676d967)" style="fill: none; stroke: #1f77b4; stroke-width: 3; stroke-linecap: square"/>
   </g>
   <g id="line2d_29">
    <path d="M 98.108509 264.517502 
L 103.679673 259.51586 
L 109.250836 254.443367 
L 114.821999 249.242583 
L 120.393163 243.869951 
L 125.964326 238.313376 
L 131.53549 232.580199 
L 137.106653 226.705422 
L 142.677817 220.735519 
L 148.24898 214.722541 
L 153.820144 208.716006 
L 159.391307 202.751268 
L 164.96247 196.854786 
L 170.533634 191.035645 
L 176.104797 185.297466 
L 181.675961 179.634505 
L 187.247124 174.040921 
L 192.818288 168.509557 
L 198.389451 163.035335 
L 203.960615 157.615369 
L 209.531778 152.248502 
L 215.102941 146.935848 
L 220.674105 141.67951 
L 226.245268 136.482882 
L 231.816432 131.350003 
L 237.387595 126.28558 
L 242.958759 121.294877 
L 248.529922 116.383719 
L 254.101086 111.558575 
L 259.672249 106.826581 
L 265.243413 102.195736 
L 270.814576 97.674963 
L 276.385739 93.274313 
L 281.956903 89.005194 
L 287.528066 84.880578 
L 293.09923 80.91537 
L 298.670393 77.126847 
L 304.241557 73.535171 
L 309.81272 70.164184 
L 315.383884 67.042454 
L 320.955047 64.204453 
L 326.52621 61.693858 
L 332.097374 59.560188 
L 337.668537 57.889721 
L 343.239701 56.761688 
L 348.810864 55.942144 
L 354.382028 58.795513 
L 359.953191 54.153558 
L 365.524355 41.355361 
L 371.095518 149.675196 
L 376.666681 379.360023 
L 382.237845 487.679432 
L 387.809008 474.881319 
L 393.380172 470.239421 
L 398.951335 473.092778 
L 404.522499 472.273266 
L 410.093662 471.145268 
L 415.664826 469.474843 
L 421.235989 467.341216 
L 426.807153 464.830652 
L 432.378316 461.99267 
L 437.949479 458.870929 
L 443.520643 455.499916 
L 449.091806 451.908191 
L 454.66297 448.119624 
L 460.234133 444.154376 
L 465.805297 440.029747 
L 471.37646 435.760629 
L 476.947624 431.359995 
L 482.518787 426.839239 
L 488.08995 422.208407 
L 493.661114 417.476419 
L 499.232277 412.651279 
L 504.803441 407.740122 
L 510.374604 402.749419 
L 515.945768 397.684997 
L 521.516931 392.552118 
L 527.088095 387.35549 
L 532.659258 382.099152 
L 538.230421 376.786497 
L 543.801585 371.419631 
L 549.372748 365.999664 
L 554.943912 360.525442 
L 560.515075 354.994077 
L 566.086239 349.400493 
L 571.657402 343.737532 
L 577.228566 337.999353 
L 582.799729 332.180212 
L 588.370893 326.283731 
L 593.942056 320.318993 
L 599.513219 314.312457 
L 605.084383 308.29948 
L 610.655546 302.329577 
L 616.22671 296.454801 
L 621.797873 290.721625 
L 627.369037 285.16505 
L 632.9402 279.79242 
L 638.511364 274.591637 
L 644.082527 269.519144 
L 649.65369 264.517502 
" clip-path="url(#p2c9676d967)" style="fill: none; stroke: #ff7f0e; stroke-width: 3; stroke-linecap: square"/>
   </g>
   <g id="patch_3">
    <path d="M 70.53125 515.7875 
L 70.53125 13.2475 
" style="fill: none; stroke: #000000; stroke-width: 1.5; stroke-linejoin: miter; stroke-linecap: square"/>
   </g>
   <g id="patch_4">
    <path d="M 677.23095 515.7875 
L 677.23095 13.2475 
" style="fill: none; stroke: #000000; stroke-width: 1.5; stroke-linejoin: miter; stroke-linecap: square"/>
   </g>
   <g id="patch_5">
    <path d="M 70.53125 515.7875 
L 677.23095 515.7875 
" style="fill: none; stroke: #000000; stroke-width: 1.5; stroke-linejoin: miter; stroke-linecap: square"/>
   </g>
   <g id="patch_6">
    <path d="M 70.53125 13.2475 
L 677.23095 13.2475 
" style="fill: none; stroke: #000000; stroke-width: 1.5; stroke-linejoin: miter; stroke-linecap: square"/>
   </g>
   <g id="legend_1">
    <g id="patch_7">
     <path d="M 540.273137 94.888125 
L 670.23095 94.888125 
Q 672.23095 94.888125 672.23095 92.888125 
L 672.23095 20.2475 
Q 672.23095 18.2475 670.23095 18.2475 
L 540.273137 18.2475 
Q 538.273137 18.2475 538.273137 20.2475 
L 538.273137 92.888125 
Q 538.273137 94.888125 540.273137 94.888125 
z
" style="fill: #ffffff; opacity: 0.8; stroke: #cccccc; stroke-linejoin: miter"/>
    </g>
    <g id="line2d_30">
     <path d="M 542.273137 26.306875 
L 552.273137 26.306875 
L 562.273137 26.306875 
" style="fill: none; stroke: #000000; stroke-linecap: square"/>
    </g>
    <g id="text_15">
     <!-- Init -->
     <g transform="translate(570.273137 29.806875) scale(0.1 -0.1)">
      <defs>
       <path id="Georgia-49" d="M 2244 0 
L 247 0 
L 247 222 
Q 331 228 490 240 
Q 650 253 716 278 
Q 819 319 866 389 
Q 913 459 913 584 
L 913 3797 
Q 913 3906 878 3979 
Q 844 4053 716 4103 
Q 622 4141 480 4173 
Q 338 4206 247 4213 
L 247 4434 
L 2244 4434 
L 2244 4213 
Q 2147 4209 2012 4189 
Q 1878 4169 1778 4138 
Q 1659 4100 1618 4015 
Q 1578 3931 1578 3828 
L 1578 619 
Q 1578 516 1623 436 
Q 1669 356 1778 309 
Q 1844 284 1992 254 
Q 2141 225 2244 222 
L 2244 0 
z
" transform="scale(0.015625)"/>
       <path id="Georgia-6e" d="M 3628 0 
L 2119 0 
L 2119 206 
Q 2191 213 2277 219 
Q 2363 225 2419 244 
Q 2506 272 2548 342 
Q 2591 413 2591 525 
L 2591 2109 
Q 2591 2438 2436 2616 
Q 2281 2794 2059 2794 
Q 1894 2794 1756 2742 
Q 1619 2691 1513 2616 
Q 1409 2544 1348 2461 
Q 1288 2378 1259 2328 
L 1259 556 
Q 1259 450 1303 381 
Q 1347 313 1434 275 
Q 1500 244 1576 228 
Q 1653 213 1734 206 
L 1734 0 
L 225 0 
L 225 206 
Q 297 213 373 219 
Q 450 225 506 244 
Q 594 272 636 342 
Q 678 413 678 525 
L 678 2428 
Q 678 2534 633 2623 
Q 588 2713 506 2769 
Q 447 2806 365 2823 
Q 284 2841 191 2847 
L 191 3050 
L 1216 3119 
L 1259 3075 
L 1259 2641 
L 1275 2641 
Q 1350 2716 1462 2820 
Q 1575 2925 1675 2991 
Q 1791 3066 1950 3116 
Q 2109 3166 2309 3166 
Q 2753 3166 2967 2889 
Q 3181 2613 3181 2153 
L 3181 550 
Q 3181 441 3218 373 
Q 3256 306 3347 269 
Q 3422 238 3476 225 
Q 3531 213 3628 206 
L 3628 0 
z
" transform="scale(0.015625)"/>
       <path id="Georgia-69" d="M 1722 0 
L 231 0 
L 231 206 
Q 303 213 379 219 
Q 456 225 513 244 
Q 600 272 642 342 
Q 684 413 684 525 
L 684 2428 
Q 684 2528 639 2611 
Q 594 2694 513 2750 
Q 453 2788 340 2814 
Q 228 2841 134 2847 
L 134 3050 
L 1222 3119 
L 1266 3075 
L 1266 563 
Q 1266 453 1308 381 
Q 1350 309 1441 275 
Q 1509 247 1575 230 
Q 1641 213 1722 206 
L 1722 0 
z
M 1328 4334 
Q 1328 4156 1211 4023 
Q 1094 3891 922 3891 
Q 763 3891 645 4017 
Q 528 4144 528 4306 
Q 528 4478 645 4606 
Q 763 4734 922 4734 
Q 1100 4734 1214 4614 
Q 1328 4494 1328 4334 
z
" transform="scale(0.015625)"/>
       <path id="Georgia-74" d="M 2128 134 
Q 1925 50 1744 -8 
Q 1563 -66 1300 -66 
Q 913 -66 755 129 
Q 597 325 597 681 
L 597 2769 
L 41 2769 
L 41 3069 
L 609 3069 
L 609 4028 
L 1178 4028 
L 1178 3069 
L 2063 3069 
L 2063 2769 
L 1184 2769 
L 1184 1047 
Q 1184 853 1198 723 
Q 1213 594 1266 497 
Q 1316 406 1416 359 
Q 1516 313 1684 313 
Q 1763 313 1914 327 
Q 2066 341 2128 363 
L 2128 134 
z
" transform="scale(0.015625)"/>
      </defs>
      <use xlink:href="#Georgia-49"/>
      <use xlink:href="#Georgia-6e" x="38.964844"/>
      <use xlink:href="#Georgia-69" x="98.046875"/>
      <use xlink:href="#Georgia-74" x="127.34375"/>
     </g>
    </g>
    <g id="line2d_31">
     <g>
      <use xlink:href="#m72971ea3b7" x="552.273137" y="41.035" style="stroke: #000000"/>
     </g>
    </g>
    <g id="text_16">
     <!-- Exact -->
     <g transform="translate(570.273137 44.535) scale(0.1 -0.1)">
      <defs>
       <path id="Georgia-45" d="M 4034 1306 
L 3950 0 
L 269 0 
L 269 222 
Q 363 228 519 248 
Q 675 269 722 291 
Q 822 338 861 413 
Q 900 488 900 603 
L 900 3791 
Q 900 3894 865 3973 
Q 831 4053 722 4103 
Q 638 4144 495 4175 
Q 353 4206 269 4213 
L 269 4434 
L 3700 4434 
L 3700 3366 
L 3466 3366 
Q 3403 3603 3195 3870 
Q 2988 4138 2800 4163 
Q 2703 4175 2568 4181 
Q 2434 4188 2263 4188 
L 1566 4188 
L 1566 2425 
L 2066 2425 
Q 2306 2425 2417 2470 
Q 2528 2516 2613 2622 
Q 2681 2713 2729 2864 
Q 2778 3016 2794 3150 
L 3028 3150 
L 3028 1416 
L 2794 1416 
Q 2781 1566 2726 1733 
Q 2672 1900 2613 1975 
Q 2516 2097 2392 2134 
Q 2269 2172 2066 2172 
L 1566 2172 
L 1566 841 
Q 1566 641 1594 525 
Q 1622 409 1703 350 
Q 1784 291 1925 273 
Q 2066 256 2325 256 
Q 2428 256 2597 256 
Q 2766 256 2881 269 
Q 3000 281 3126 314 
Q 3253 347 3306 403 
Q 3450 553 3608 858 
Q 3766 1163 3809 1306 
L 4034 1306 
z
" transform="scale(0.015625)"/>
       <path id="Georgia-78" d="M 3194 0 
L 1781 0 
L 1781 206 
Q 1922 222 2020 237 
Q 2119 253 2119 319 
Q 2119 347 2087 406 
Q 2056 466 2025 516 
Q 1947 638 1811 842 
Q 1675 1047 1478 1331 
Q 1316 1128 1178 936 
Q 1041 744 891 528 
Q 869 497 845 450 
Q 822 403 822 375 
Q 822 306 911 261 
Q 1000 216 1178 200 
L 1178 0 
L 38 0 
L 38 194 
Q 250 256 379 345 
Q 509 434 619 566 
Q 716 691 889 909 
Q 1063 1128 1338 1503 
Q 1178 1731 948 2061 
Q 719 2391 569 2609 
Q 488 2728 383 2801 
Q 278 2875 88 2875 
L 88 3081 
L 1428 3081 
L 1428 2875 
Q 1328 2875 1231 2862 
Q 1134 2850 1134 2806 
Q 1134 2778 1153 2743 
Q 1172 2709 1200 2669 
Q 1269 2563 1414 2341 
Q 1559 2119 1728 1872 
Q 1838 2022 1983 2222 
Q 2128 2422 2250 2603 
Q 2263 2625 2275 2658 
Q 2288 2691 2288 2722 
Q 2288 2788 2180 2827 
Q 2072 2866 1975 2881 
L 1975 3081 
L 3113 3081 
L 3113 2888 
Q 2872 2825 2737 2739 
Q 2603 2653 2509 2541 
Q 2406 2413 2264 2225 
Q 2122 2038 1866 1700 
Q 2150 1300 2328 1044 
Q 2506 788 2688 516 
Q 2778 378 2889 298 
Q 3000 219 3194 206 
L 3194 0 
z
" transform="scale(0.015625)"/>
       <path id="Georgia-61" d="M 3144 56 
Q 2997 3 2886 -30 
Q 2775 -63 2634 -63 
Q 2391 -63 2245 51 
Q 2100 166 2059 384 
L 2041 384 
Q 1838 159 1605 40 
Q 1372 -78 1044 -78 
Q 697 -78 473 134 
Q 250 347 250 691 
Q 250 869 300 1009 
Q 350 1150 450 1263 
Q 528 1356 656 1429 
Q 784 1503 897 1547 
Q 1038 1600 1467 1744 
Q 1897 1888 2047 1969 
L 2047 2278 
Q 2047 2319 2030 2434 
Q 2013 2550 1956 2653 
Q 1894 2769 1780 2855 
Q 1666 2941 1456 2941 
Q 1313 2941 1189 2892 
Q 1066 2844 1016 2791 
Q 1016 2728 1045 2606 
Q 1075 2484 1075 2381 
Q 1075 2272 976 2181 
Q 878 2091 703 2091 
Q 547 2091 473 2202 
Q 400 2313 400 2450 
Q 400 2594 501 2725 
Q 603 2856 766 2959 
Q 906 3047 1106 3108 
Q 1306 3169 1497 3169 
Q 1759 3169 1954 3133 
Q 2150 3097 2309 2978 
Q 2469 2863 2551 2664 
Q 2634 2466 2634 2153 
Q 2634 1706 2625 1361 
Q 2616 1016 2616 606 
Q 2616 484 2658 412 
Q 2700 341 2788 291 
Q 2834 263 2936 259 
Q 3038 256 3144 256 
L 3144 56 
z
M 2053 1706 
Q 1788 1628 1588 1553 
Q 1388 1478 1216 1366 
Q 1059 1259 968 1114 
Q 878 969 878 769 
Q 878 509 1014 387 
Q 1150 266 1359 266 
Q 1581 266 1750 373 
Q 1919 481 2034 628 
L 2053 1706 
z
" transform="scale(0.015625)"/>
       <path id="Georgia-63" d="M 1650 -81 
Q 981 -81 603 362 
Q 225 806 225 1553 
Q 225 1878 326 2161 
Q 428 2444 622 2675 
Q 806 2897 1084 3033 
Q 1363 3169 1691 3169 
Q 2144 3169 2428 2951 
Q 2713 2734 2713 2359 
Q 2713 2203 2638 2083 
Q 2563 1963 2391 1963 
Q 2206 1963 2104 2056 
Q 2003 2150 2003 2266 
Q 2003 2406 2040 2554 
Q 2078 2703 2084 2772 
Q 2028 2869 1917 2901 
Q 1806 2934 1678 2934 
Q 1528 2934 1392 2870 
Q 1256 2806 1128 2634 
Q 1013 2478 941 2212 
Q 869 1947 869 1578 
Q 869 997 1126 630 
Q 1384 263 1803 263 
Q 2106 263 2311 409 
Q 2516 556 2691 850 
L 2891 719 
Q 2684 350 2346 134 
Q 2009 -81 1650 -81 
z
" transform="scale(0.015625)"/>
      </defs>
      <use xlink:href="#Georgia-45"/>
      <use xlink:href="#Georgia-78" x="65.332031"/>
      <use xlink:href="#Georgia-61" x="115.820312"/>
      <use xlink:href="#Georgia-63" x="166.210938"/>
      <use xlink:href="#Georgia-74" x="211.621094"/>
     </g>
    </g>
    <g id="line2d_32">
     <path d="M 542.273137 55.763125 
L 552.273137 55.763125 
L 562.273137 55.763125 
" style="fill: none; stroke: #a80000; stroke-width: 3; stroke-linecap: square"/>
    </g>
    <g id="text_17">
     <!-- 16, t=1.3,exponential -->
     <g transform="translate(570.273137 59.263125) scale(0.1 -0.1)">
      <defs>
       <path id="Georgia-2c" d="M 1341 109 
Q 1341 -116 1239 -316 
Q 1138 -516 1006 -659 
Q 872 -809 722 -925 
Q 572 -1041 447 -1106 
L 303 -897 
Q 453 -803 572 -709 
Q 691 -616 766 -522 
Q 859 -413 925 -284 
Q 991 -156 1009 6 
L 850 6 
Q 641 6 523 115 
Q 406 225 406 409 
Q 406 541 512 664 
Q 619 788 803 788 
Q 1072 788 1206 608 
Q 1341 428 1341 109 
z
" transform="scale(0.015625)"/>
       <path id="Georgia-20" transform="scale(0.015625)"/>
       <path id="Georgia-3d" d="M 3634 2134 
L 481 2134 
L 481 2525 
L 3634 2525 
L 3634 2134 
z
M 3634 972 
L 481 972 
L 481 1363 
L 3634 1363 
L 3634 972 
z
" transform="scale(0.015625)"/>
       <path id="Georgia-65" d="M 2963 725 
Q 2769 356 2444 137 
Q 2119 -81 1697 -81 
Q 1325 -81 1045 50 
Q 766 181 584 406 
Q 403 631 314 931 
Q 225 1231 225 1566 
Q 225 1866 320 2155 
Q 416 2444 600 2675 
Q 778 2897 1042 3033 
Q 1306 3169 1634 3169 
Q 1972 3169 2212 3062 
Q 2453 2956 2603 2772 
Q 2747 2597 2817 2359 
Q 2888 2122 2888 1844 
L 2888 1638 
L 847 1638 
Q 847 1334 905 1087 
Q 963 841 1088 653 
Q 1209 472 1406 367 
Q 1603 263 1875 263 
Q 2153 263 2354 392 
Q 2556 522 2744 859 
L 2963 725 
z
M 2272 1900 
Q 2272 2075 2242 2275 
Q 2213 2475 2147 2609 
Q 2075 2753 1950 2843 
Q 1825 2934 1628 2934 
Q 1300 2934 1083 2661 
Q 866 2388 847 1900 
L 2272 1900 
z
" transform="scale(0.015625)"/>
       <path id="Georgia-70" d="M 3041 2716 
Q 3225 2497 3326 2208 
Q 3428 1919 3428 1547 
Q 3428 1181 3306 879 
Q 3184 578 2984 366 
Q 2775 150 2519 34 
Q 2263 -81 1975 -81 
Q 1697 -81 1519 -18 
Q 1341 44 1228 128 
L 1203 128 
L 1203 -797 
Q 1203 -909 1247 -984 
Q 1291 -1059 1381 -1094 
Q 1456 -1122 1595 -1148 
Q 1734 -1175 1825 -1178 
L 1825 -1388 
L 103 -1388 
L 103 -1178 
Q 200 -1172 290 -1162 
Q 381 -1153 453 -1131 
Q 547 -1100 584 -1022 
Q 622 -944 622 -838 
L 622 2441 
Q 622 2534 575 2621 
Q 528 2709 453 2763 
Q 397 2800 297 2820 
Q 197 2841 103 2847 
L 103 3050 
L 1153 3119 
L 1197 3081 
L 1197 2734 
L 1222 2728 
Q 1384 2916 1625 3041 
Q 1866 3166 2103 3166 
Q 2391 3166 2630 3044 
Q 2869 2922 3041 2716 
z
M 2531 500 
Q 2656 694 2715 950 
Q 2775 1206 2775 1522 
Q 2775 1753 2725 1993 
Q 2675 2234 2569 2413 
Q 2463 2594 2291 2706 
Q 2119 2819 1878 2819 
Q 1647 2819 1484 2717 
Q 1322 2616 1203 2475 
L 1203 653 
Q 1231 569 1295 478 
Q 1359 388 1438 322 
Q 1534 244 1646 195 
Q 1759 147 1922 147 
Q 2097 147 2259 239 
Q 2422 331 2531 500 
z
" transform="scale(0.015625)"/>
       <path id="Georgia-6f" d="M 3228 1572 
Q 3228 1247 3125 933 
Q 3022 619 2831 400 
Q 2616 150 2331 28 
Q 2047 -94 1694 -94 
Q 1400 -94 1134 17 
Q 869 128 663 341 
Q 459 550 339 851 
Q 219 1153 219 1528 
Q 219 2250 639 2709 
Q 1059 3169 1741 3169 
Q 2388 3169 2808 2733 
Q 3228 2297 3228 1572 
z
M 2581 1566 
Q 2581 1800 2534 2061 
Q 2488 2322 2394 2503 
Q 2294 2697 2131 2814 
Q 1969 2931 1734 2931 
Q 1494 2931 1323 2812 
Q 1153 2694 1047 2488 
Q 947 2297 906 2053 
Q 866 1809 866 1581 
Q 866 1281 914 1026 
Q 963 772 1069 572 
Q 1175 372 1336 258 
Q 1497 144 1734 144 
Q 2125 144 2353 522 
Q 2581 900 2581 1566 
z
" transform="scale(0.015625)"/>
       <path id="Georgia-6c" d="M 1669 0 
L 166 0 
L 166 206 
Q 238 213 319 220 
Q 400 228 453 244 
Q 541 272 584 342 
Q 628 413 628 525 
L 628 4094 
Q 628 4206 579 4304 
Q 531 4403 453 4459 
Q 397 4497 247 4528 
Q 97 4559 6 4566 
L 6 4766 
L 1166 4838 
L 1209 4791 
L 1209 563 
Q 1209 453 1250 383 
Q 1291 313 1381 275 
Q 1450 244 1517 228 
Q 1584 213 1669 206 
L 1669 0 
z
" transform="scale(0.015625)"/>
      </defs>
      <use xlink:href="#Georgia-31"/>
      <use xlink:href="#Georgia-36" x="42.96875"/>
      <use xlink:href="#Georgia-2c" x="99.560547"/>
      <use xlink:href="#Georgia-20" x="126.513672"/>
      <use xlink:href="#Georgia-74" x="150.634766"/>
      <use xlink:href="#Georgia-3d" x="185.15625"/>
      <use xlink:href="#Georgia-31" x="249.462891"/>
      <use xlink:href="#Georgia-2e" x="292.431641"/>
      <use xlink:href="#Georgia-33" x="319.384766"/>
      <use xlink:href="#Georgia-2c" x="374.560547"/>
      <use xlink:href="#Georgia-65" x="401.513672"/>
      <use xlink:href="#Georgia-78" x="449.853516"/>
      <use xlink:href="#Georgia-70" x="500.341797"/>
      <use xlink:href="#Georgia-6f" x="557.470703"/>
      <use xlink:href="#Georgia-6e" x="611.376953"/>
      <use xlink:href="#Georgia-65" x="670.458984"/>
      <use xlink:href="#Georgia-6e" x="718.798828"/>
      <use xlink:href="#Georgia-74" x="777.880859"/>
      <use xlink:href="#Georgia-69" x="812.402344"/>
      <use xlink:href="#Georgia-61" x="841.699219"/>
      <use xlink:href="#Georgia-6c" x="892.089844"/>
     </g>
    </g>
    <g id="line2d_33">
     <path d="M 542.273137 70.49125 
L 552.273137 70.49125 
L 562.273137 70.49125 
" style="fill: none; stroke: #1f77b4; stroke-width: 3; stroke-linecap: square"/>
    </g>
    <g id="text_18">
     <!-- 64, t=1.3,exponential -->
     <g transform="translate(570.273137 73.99125) scale(0.1 -0.1)">
      <use xlink:href="#Georgia-36"/>
      <use xlink:href="#Georgia-34" x="56.591797"/>
      <use xlink:href="#Georgia-2c" x="113.085938"/>
      <use xlink:href="#Georgia-20" x="140.039062"/>
      <use xlink:href="#Georgia-74" x="164.160156"/>
      <use xlink:href="#Georgia-3d" x="198.681641"/>
      <use xlink:href="#Georgia-31" x="262.988281"/>
      <use xlink:href="#Georgia-2e" x="305.957031"/>
      <use xlink:href="#Georgia-33" x="332.910156"/>
      <use xlink:href="#Georgia-2c" x="388.085938"/>
      <use xlink:href="#Georgia-65" x="415.039062"/>
      <use xlink:href="#Georgia-78" x="463.378906"/>
      <use xlink:href="#Georgia-70" x="513.867188"/>
      <use xlink:href="#Georgia-6f" x="570.996094"/>
      <use xlink:href="#Georgia-6e" x="624.902344"/>
      <use xlink:href="#Georgia-65" x="683.984375"/>
      <use xlink:href="#Georgia-6e" x="732.324219"/>
      <use xlink:href="#Georgia-74" x="791.40625"/>
      <use xlink:href="#Georgia-69" x="825.927734"/>
      <use xlink:href="#Georgia-61" x="855.224609"/>
      <use xlink:href="#Georgia-6c" x="905.615234"/>
     </g>
    </g>
    <g id="line2d_34">
     <path d="M 542.273137 85.219375 
L 552.273137 85.219375 
L 562.273137 85.219375 
" style="fill: none; stroke: #ff7f0e; stroke-width: 3; stroke-linecap: square"/>
    </g>
    <g id="text_19">
     <!-- 128, t=1.3,exponential -->
     <g transform="translate(570.273137 88.719375) scale(0.1 -0.1)">
      <defs>
       <path id="Georgia-38" d="M 3491 1175 
Q 3491 650 3037 272 
Q 2584 -106 1847 -106 
Q 1156 -106 740 241 
Q 325 588 325 1134 
Q 325 1538 570 1808 
Q 816 2078 1297 2266 
Q 900 2488 703 2753 
Q 506 3019 506 3353 
Q 506 3863 939 4206 
Q 1372 4550 1975 4550 
Q 2578 4550 2951 4225 
Q 3325 3900 3325 3409 
Q 3325 3094 3119 2811 
Q 2913 2528 2513 2347 
Q 3031 2125 3261 1856 
Q 3491 1588 3491 1175 
z
M 2734 3444 
Q 2734 3825 2507 4064 
Q 2281 4303 1928 4303 
Q 1575 4303 1350 4073 
Q 1125 3844 1125 3503 
Q 1125 3175 1381 2947 
Q 1638 2719 2294 2459 
Q 2528 2609 2631 2856 
Q 2734 3103 2734 3444 
z
M 2866 1028 
Q 2866 1225 2781 1373 
Q 2697 1522 2538 1644 
Q 2384 1763 2111 1892 
Q 1838 2022 1519 2156 
Q 1219 1994 1078 1742 
Q 938 1491 938 1169 
Q 938 709 1208 426 
Q 1478 144 1928 144 
Q 2359 144 2612 394 
Q 2866 644 2866 1028 
z
" transform="scale(0.015625)"/>
      </defs>
      <use xlink:href="#Georgia-31"/>
      <use xlink:href="#Georgia-32" x="42.96875"/>
      <use xlink:href="#Georgia-38" x="98.828125"/>
      <use xlink:href="#Georgia-2c" x="158.447266"/>
      <use xlink:href="#Georgia-20" x="185.400391"/>
      <use xlink:href="#Georgia-74" x="209.521484"/>
      <use xlink:href="#Georgia-3d" x="244.042969"/>
      <use xlink:href="#Georgia-31" x="308.349609"/>
      <use xlink:href="#Georgia-2e" x="351.318359"/>
      <use xlink:href="#Georgia-33" x="378.271484"/>
      <use xlink:href="#Georgia-2c" x="433.447266"/>
      <use xlink:href="#Georgia-65" x="460.400391"/>
      <use xlink:href="#Georgia-78" x="508.740234"/>
      <use xlink:href="#Georgia-70" x="559.228516"/>
      <use xlink:href="#Georgia-6f" x="616.357422"/>
      <use xlink:href="#Georgia-6e" x="670.263672"/>
      <use xlink:href="#Georgia-65" x="729.345703"/>
      <use xlink:href="#Georgia-6e" x="777.685547"/>
      <use xlink:href="#Georgia-74" x="836.767578"/>
      <use xlink:href="#Georgia-69" x="871.289062"/>
      <use xlink:href="#Georgia-61" x="900.585938"/>
      <use xlink:href="#Georgia-6c" x="950.976562"/>
     </g>
    </g>
   </g>
  </g>
  <g id="axes_2">
   <g id="patch_8">
    <path d="M 750.91637 515.7875 
L 993.59625 515.7875 
L 993.59625 13.2475 
L 750.91637 13.2475 
L 750.91637 515.7875 
z
" style="fill: none"/>
   </g>
   <g id="matplotlib.axis_3">
    <g id="xtick_8">
     <g id="line2d_35">
      <path d="M 761.947274 515.7875 
L 761.947274 13.2475 
" clip-path="url(#p9e9412a631)" style="fill: none; stroke: #b0b0b0; stroke-width: 0.8; stroke-linecap: square"/>
     </g>
     <g id="line2d_36">
      <g>
       <use xlink:href="#mcadacfd19b" x="761.947274" y="515.7875" style="stroke: #000000; stroke-width: 0.8"/>
      </g>
     </g>
     <g id="text_20">
      <!-- 0 -->
      <g transform="translate(757.037274 534.8825) scale(0.16 -0.16)">
       <use xlink:href="#Georgia-30"/>
      </g>
     </g>
    </g>
    <g id="xtick_9">
     <g id="line2d_37">
      <path d="M 832.172187 515.7875 
L 832.172187 13.2475 
" clip-path="url(#p9e9412a631)" style="fill: none; stroke: #b0b0b0; stroke-width: 0.8; stroke-linecap: square"/>
     </g>
     <g id="line2d_38">
      <g>
       <use xlink:href="#mcadacfd19b" x="832.172187" y="515.7875" style="stroke: #000000; stroke-width: 0.8"/>
      </g>
     </g>
     <g id="text_21">
      <!-- 2 -->
      <g transform="translate(827.703437 534.8825) scale(0.16 -0.16)">
       <use xlink:href="#Georgia-32"/>
      </g>
     </g>
    </g>
    <g id="xtick_10">
     <g id="line2d_39">
      <path d="M 902.397101 515.7875 
L 902.397101 13.2475 
" clip-path="url(#p9e9412a631)" style="fill: none; stroke: #b0b0b0; stroke-width: 0.8; stroke-linecap: square"/>
     </g>
     <g id="line2d_40">
      <g>
       <use xlink:href="#mcadacfd19b" x="902.397101" y="515.7875" style="stroke: #000000; stroke-width: 0.8"/>
      </g>
     </g>
     <g id="text_22">
      <!-- 4 -->
      <g transform="translate(897.877101 534.8825) scale(0.16 -0.16)">
       <use xlink:href="#Georgia-34"/>
      </g>
     </g>
    </g>
    <g id="xtick_11">
     <g id="line2d_41">
      <path d="M 972.622015 515.7875 
L 972.622015 13.2475 
" clip-path="url(#p9e9412a631)" style="fill: none; stroke: #b0b0b0; stroke-width: 0.8; stroke-linecap: square"/>
     </g>
     <g id="line2d_42">
      <g>
       <use xlink:href="#mcadacfd19b" x="972.622015" y="515.7875" style="stroke: #000000; stroke-width: 0.8"/>
      </g>
     </g>
     <g id="text_23">
      <!-- 6 -->
      <g transform="translate(968.094515 534.8825) scale(0.16 -0.16)">
       <use xlink:href="#Georgia-36"/>
      </g>
     </g>
    </g>
    <g id="text_24">
     <!-- $x$ -->
     <g transform="translate(866.25631 557.47125) scale(0.2 -0.2)">
      <use xlink:href="#DejaVuSans-Oblique-78" transform="translate(0 0.3125)"/>
     </g>
    </g>
   </g>
   <g id="matplotlib.axis_4">
    <g id="ytick_6">
     <g id="line2d_43">
      <path d="M 750.91637 515.7875 
L 993.59625 515.7875 
" clip-path="url(#p9e9412a631)" style="fill: none; stroke: #b0b0b0; stroke-width: 0.8; stroke-linecap: square"/>
     </g>
     <g id="line2d_44">
      <g>
       <use xlink:href="#m8af738fb10" x="750.91637" y="515.7875" style="stroke: #000000; stroke-width: 0.8"/>
      </g>
     </g>
     <g id="text_25">
      <!-- $\mathdefault{10^{-7}}$ -->
      <g transform="translate(713.83637 521.835) scale(0.16 -0.16)">
       <defs>
        <path id="Georgia-37" d="M 3216 3150 
L 988 -1141 
L 597 -1141 
L 2694 2828 
L 1466 2828 
Q 1194 2828 1041 2822 
Q 888 2816 759 2763 
Q 663 2722 586 2555 
Q 509 2388 469 2128 
L 278 2128 
L 278 3353 
L 3216 3353 
L 3216 3150 
z
" transform="scale(0.015625)"/>
       </defs>
       <use xlink:href="#Georgia-31" transform="translate(0 0.628125)"/>
       <use xlink:href="#Georgia-30" transform="translate(42.96875 0.628125)"/>
       <use xlink:href="#Georgia-2212" transform="translate(105.188164 34.326563) scale(0.7)"/>
       <use xlink:href="#Georgia-37" transform="translate(150.202812 34.326563) scale(0.7)"/>
      </g>
     </g>
    </g>
    <g id="ytick_7">
     <g id="line2d_45">
      <path d="M 750.91637 443.996071 
L 993.59625 443.996071 
" clip-path="url(#p9e9412a631)" style="fill: none; stroke: #b0b0b0; stroke-width: 0.8; stroke-linecap: square"/>
     </g>
     <g id="line2d_46">
      <g>
       <use xlink:href="#m8af738fb10" x="750.91637" y="443.996071" style="stroke: #000000; stroke-width: 0.8"/>
      </g>
     </g>
     <g id="text_26">
      <!-- $\mathdefault{10^{-6}}$ -->
      <g transform="translate(713.03637 450.043571) scale(0.16 -0.16)">
       <use xlink:href="#Georgia-31" transform="translate(0 0.601562)"/>
       <use xlink:href="#Georgia-30" transform="translate(42.96875 0.601562)"/>
       <use xlink:href="#Georgia-2212" transform="translate(105.188164 34.3) scale(0.7)"/>
       <use xlink:href="#Georgia-36" transform="translate(150.202812 34.3) scale(0.7)"/>
      </g>
     </g>
    </g>
    <g id="ytick_8">
     <g id="line2d_47">
      <path d="M 750.91637 372.204643 
L 993.59625 372.204643 
" clip-path="url(#p9e9412a631)" style="fill: none; stroke: #b0b0b0; stroke-width: 0.8; stroke-linecap: square"/>
     </g>
     <g id="line2d_48">
      <g>
       <use xlink:href="#m8af738fb10" x="750.91637" y="372.204643" style="stroke: #000000; stroke-width: 0.8"/>
      </g>
     </g>
     <g id="text_27">
      <!-- $\mathdefault{10^{-5}}$ -->
      <g transform="translate(713.51637 378.252143) scale(0.16 -0.16)">
       <use xlink:href="#Georgia-31" transform="translate(0 0.628125)"/>
       <use xlink:href="#Georgia-30" transform="translate(42.96875 0.628125)"/>
       <use xlink:href="#Georgia-2212" transform="translate(105.188164 34.326563) scale(0.7)"/>
       <use xlink:href="#Georgia-35" transform="translate(150.202812 34.326563) scale(0.7)"/>
      </g>
     </g>
    </g>
    <g id="ytick_9">
     <g id="line2d_49">
      <path d="M 750.91637 300.413214 
L 993.59625 300.413214 
" clip-path="url(#p9e9412a631)" style="fill: none; stroke: #b0b0b0; stroke-width: 0.8; stroke-linecap: square"/>
     </g>
     <g id="line2d_50">
      <g>
       <use xlink:href="#m8af738fb10" x="750.91637" y="300.413214" style="stroke: #000000; stroke-width: 0.8"/>
      </g>
     </g>
     <g id="text_28">
      <!-- $\mathdefault{10^{-4}}$ -->
      <g transform="translate(713.03637 306.460714) scale(0.16 -0.16)">
       <use xlink:href="#Georgia-31" transform="translate(0 0.742188)"/>
       <use xlink:href="#Georgia-30" transform="translate(42.96875 0.742188)"/>
       <use xlink:href="#Georgia-2212" transform="translate(105.188164 34.440625) scale(0.7)"/>
       <use xlink:href="#Georgia-34" transform="translate(150.202812 34.440625) scale(0.7)"/>
      </g>
     </g>
    </g>
    <g id="ytick_10">
     <g id="line2d_51">
      <path d="M 750.91637 228.621786 
L 993.59625 228.621786 
" clip-path="url(#p9e9412a631)" style="fill: none; stroke: #b0b0b0; stroke-width: 0.8; stroke-linecap: square"/>
     </g>
     <g id="line2d_52">
      <g>
       <use xlink:href="#m8af738fb10" x="750.91637" y="228.621786" style="stroke: #000000; stroke-width: 0.8"/>
      </g>
     </g>
     <g id="text_29">
      <!-- $\mathdefault{10^{-3}}$ -->
      <g transform="translate(713.19637 234.669286) scale(0.16 -0.16)">
       <use xlink:href="#Georgia-31" transform="translate(0 0.534375)"/>
       <use xlink:href="#Georgia-30" transform="translate(42.96875 0.534375)"/>
       <use xlink:href="#Georgia-2212" transform="translate(105.188164 34.232813) scale(0.7)"/>
       <use xlink:href="#Georgia-33" transform="translate(150.202812 34.232813) scale(0.7)"/>
      </g>
     </g>
    </g>
    <g id="ytick_11">
     <g id="line2d_53">
      <path d="M 750.91637 156.830357 
L 993.59625 156.830357 
" clip-path="url(#p9e9412a631)" style="fill: none; stroke: #b0b0b0; stroke-width: 0.8; stroke-linecap: square"/>
     </g>
     <g id="line2d_54">
      <g>
       <use xlink:href="#m8af738fb10" x="750.91637" y="156.830357" style="stroke: #000000; stroke-width: 0.8"/>
      </g>
     </g>
     <g id="text_30">
      <!-- $\mathdefault{10^{-2}}$ -->
      <g transform="translate(713.19637 162.877857) scale(0.16 -0.16)">
       <use xlink:href="#Georgia-31" transform="translate(0 0.534375)"/>
       <use xlink:href="#Georgia-30" transform="translate(42.96875 0.534375)"/>
       <use xlink:href="#Georgia-2212" transform="translate(105.188164 34.232813) scale(0.7)"/>
       <use xlink:href="#Georgia-32" transform="translate(150.202812 34.232813) scale(0.7)"/>
      </g>
     </g>
    </g>
    <g id="ytick_12">
     <g id="line2d_55">
      <path d="M 750.91637 85.038929 
L 993.59625 85.038929 
" clip-path="url(#p9e9412a631)" style="fill: none; stroke: #b0b0b0; stroke-width: 0.8; stroke-linecap: square"/>
     </g>
     <g id="line2d_56">
      <g>
       <use xlink:href="#m8af738fb10" x="750.91637" y="85.038929" style="stroke: #000000; stroke-width: 0.8"/>
      </g>
     </g>
     <g id="text_31">
      <!-- $\mathdefault{10^{-1}}$ -->
      <g transform="translate(714.63637 91.086429) scale(0.16 -0.16)">
       <use xlink:href="#Georgia-31" transform="translate(0 0.534375)"/>
       <use xlink:href="#Georgia-30" transform="translate(42.96875 0.534375)"/>
       <use xlink:href="#Georgia-2212" transform="translate(105.188164 34.232813) scale(0.7)"/>
       <use xlink:href="#Georgia-31" transform="translate(150.202812 34.232813) scale(0.7)"/>
      </g>
     </g>
    </g>
    <g id="ytick_13">
     <g id="line2d_57">
      <path d="M 750.91637 13.2475 
L 993.59625 13.2475 
" clip-path="url(#p9e9412a631)" style="fill: none; stroke: #b0b0b0; stroke-width: 0.8; stroke-linecap: square"/>
     </g>
     <g id="line2d_58">
      <g>
       <use xlink:href="#m8af738fb10" x="750.91637" y="13.2475" style="stroke: #000000; stroke-width: 0.8"/>
      </g>
     </g>
     <g id="text_32">
      <!-- $\mathdefault{10^{0}}$ -->
      <g transform="translate(719.75637 19.295) scale(0.16 -0.16)">
       <use xlink:href="#Georgia-31" transform="translate(0 0.534375)"/>
       <use xlink:href="#Georgia-30" transform="translate(42.96875 0.534375)"/>
       <use xlink:href="#Georgia-30" transform="translate(105.188164 34.232813) scale(0.7)"/>
      </g>
     </g>
    </g>
    <g id="ytick_14">
     <g id="line2d_59">
      <defs>
       <path id="m4771ebf4a0" d="M 0 0 
L -2 0 
" style="stroke: #000000; stroke-width: 0.6"/>
      </defs>
      <g>
       <use xlink:href="#m4771ebf4a0" x="750.91637" y="494.176127" style="stroke: #000000; stroke-width: 0.6"/>
      </g>
     </g>
    </g>
    <g id="ytick_15">
     <g id="line2d_60">
      <g>
       <use xlink:href="#m4771ebf4a0" x="750.91637" y="481.534284" style="stroke: #000000; stroke-width: 0.6"/>
      </g>
     </g>
    </g>
    <g id="ytick_16">
     <g id="line2d_61">
      <g>
       <use xlink:href="#m4771ebf4a0" x="750.91637" y="472.564753" style="stroke: #000000; stroke-width: 0.6"/>
      </g>
     </g>
    </g>
    <g id="ytick_17">
     <g id="line2d_62">
      <g>
       <use xlink:href="#m4771ebf4a0" x="750.91637" y="465.607445" style="stroke: #000000; stroke-width: 0.6"/>
      </g>
     </g>
    </g>
    <g id="ytick_18">
     <g id="line2d_63">
      <g>
       <use xlink:href="#m4771ebf4a0" x="750.91637" y="459.92291" style="stroke: #000000; stroke-width: 0.6"/>
      </g>
     </g>
    </g>
    <g id="ytick_19">
     <g id="line2d_64">
      <g>
       <use xlink:href="#m4771ebf4a0" x="750.91637" y="455.116704" style="stroke: #000000; stroke-width: 0.6"/>
      </g>
     </g>
    </g>
    <g id="ytick_20">
     <g id="line2d_65">
      <g>
       <use xlink:href="#m4771ebf4a0" x="750.91637" y="450.95338" style="stroke: #000000; stroke-width: 0.6"/>
      </g>
     </g>
    </g>
    <g id="ytick_21">
     <g id="line2d_66">
      <g>
       <use xlink:href="#m4771ebf4a0" x="750.91637" y="447.281067" style="stroke: #000000; stroke-width: 0.6"/>
      </g>
     </g>
    </g>
    <g id="ytick_22">
     <g id="line2d_67">
      <g>
       <use xlink:href="#m4771ebf4a0" x="750.91637" y="422.384698" style="stroke: #000000; stroke-width: 0.6"/>
      </g>
     </g>
    </g>
    <g id="ytick_23">
     <g id="line2d_68">
      <g>
       <use xlink:href="#m4771ebf4a0" x="750.91637" y="409.742855" style="stroke: #000000; stroke-width: 0.6"/>
      </g>
     </g>
    </g>
    <g id="ytick_24">
     <g id="line2d_69">
      <g>
       <use xlink:href="#m4771ebf4a0" x="750.91637" y="400.773325" style="stroke: #000000; stroke-width: 0.6"/>
      </g>
     </g>
    </g>
    <g id="ytick_25">
     <g id="line2d_70">
      <g>
       <use xlink:href="#m4771ebf4a0" x="750.91637" y="393.816016" style="stroke: #000000; stroke-width: 0.6"/>
      </g>
     </g>
    </g>
    <g id="ytick_26">
     <g id="line2d_71">
      <g>
       <use xlink:href="#m4771ebf4a0" x="750.91637" y="388.131482" style="stroke: #000000; stroke-width: 0.6"/>
      </g>
     </g>
    </g>
    <g id="ytick_27">
     <g id="line2d_72">
      <g>
       <use xlink:href="#m4771ebf4a0" x="750.91637" y="383.325276" style="stroke: #000000; stroke-width: 0.6"/>
      </g>
     </g>
    </g>
    <g id="ytick_28">
     <g id="line2d_73">
      <g>
       <use xlink:href="#m4771ebf4a0" x="750.91637" y="379.161951" style="stroke: #000000; stroke-width: 0.6"/>
      </g>
     </g>
    </g>
    <g id="ytick_29">
     <g id="line2d_74">
      <g>
       <use xlink:href="#m4771ebf4a0" x="750.91637" y="375.489638" style="stroke: #000000; stroke-width: 0.6"/>
      </g>
     </g>
    </g>
    <g id="ytick_30">
     <g id="line2d_75">
      <g>
       <use xlink:href="#m4771ebf4a0" x="750.91637" y="350.593269" style="stroke: #000000; stroke-width: 0.6"/>
      </g>
     </g>
    </g>
    <g id="ytick_31">
     <g id="line2d_76">
      <g>
       <use xlink:href="#m4771ebf4a0" x="750.91637" y="337.951426" style="stroke: #000000; stroke-width: 0.6"/>
      </g>
     </g>
    </g>
    <g id="ytick_32">
     <g id="line2d_77">
      <g>
       <use xlink:href="#m4771ebf4a0" x="750.91637" y="328.981896" style="stroke: #000000; stroke-width: 0.6"/>
      </g>
     </g>
    </g>
    <g id="ytick_33">
     <g id="line2d_78">
      <g>
       <use xlink:href="#m4771ebf4a0" x="750.91637" y="322.024588" style="stroke: #000000; stroke-width: 0.6"/>
      </g>
     </g>
    </g>
    <g id="ytick_34">
     <g id="line2d_79">
      <g>
       <use xlink:href="#m4771ebf4a0" x="750.91637" y="316.340053" style="stroke: #000000; stroke-width: 0.6"/>
      </g>
     </g>
    </g>
    <g id="ytick_35">
     <g id="line2d_80">
      <g>
       <use xlink:href="#m4771ebf4a0" x="750.91637" y="311.533847" style="stroke: #000000; stroke-width: 0.6"/>
      </g>
     </g>
    </g>
    <g id="ytick_36">
     <g id="line2d_81">
      <g>
       <use xlink:href="#m4771ebf4a0" x="750.91637" y="307.370523" style="stroke: #000000; stroke-width: 0.6"/>
      </g>
     </g>
    </g>
    <g id="ytick_37">
     <g id="line2d_82">
      <g>
       <use xlink:href="#m4771ebf4a0" x="750.91637" y="303.69821" style="stroke: #000000; stroke-width: 0.6"/>
      </g>
     </g>
    </g>
    <g id="ytick_38">
     <g id="line2d_83">
      <g>
       <use xlink:href="#m4771ebf4a0" x="750.91637" y="278.801841" style="stroke: #000000; stroke-width: 0.6"/>
      </g>
     </g>
    </g>
    <g id="ytick_39">
     <g id="line2d_84">
      <g>
       <use xlink:href="#m4771ebf4a0" x="750.91637" y="266.159998" style="stroke: #000000; stroke-width: 0.6"/>
      </g>
     </g>
    </g>
    <g id="ytick_40">
     <g id="line2d_85">
      <g>
       <use xlink:href="#m4771ebf4a0" x="750.91637" y="257.190467" style="stroke: #000000; stroke-width: 0.6"/>
      </g>
     </g>
    </g>
    <g id="ytick_41">
     <g id="line2d_86">
      <g>
       <use xlink:href="#m4771ebf4a0" x="750.91637" y="250.233159" style="stroke: #000000; stroke-width: 0.6"/>
      </g>
     </g>
    </g>
    <g id="ytick_42">
     <g id="line2d_87">
      <g>
       <use xlink:href="#m4771ebf4a0" x="750.91637" y="244.548624" style="stroke: #000000; stroke-width: 0.6"/>
      </g>
     </g>
    </g>
    <g id="ytick_43">
     <g id="line2d_88">
      <g>
       <use xlink:href="#m4771ebf4a0" x="750.91637" y="239.742419" style="stroke: #000000; stroke-width: 0.6"/>
      </g>
     </g>
    </g>
    <g id="ytick_44">
     <g id="line2d_89">
      <g>
       <use xlink:href="#m4771ebf4a0" x="750.91637" y="235.579094" style="stroke: #000000; stroke-width: 0.6"/>
      </g>
     </g>
    </g>
    <g id="ytick_45">
     <g id="line2d_90">
      <g>
       <use xlink:href="#m4771ebf4a0" x="750.91637" y="231.906781" style="stroke: #000000; stroke-width: 0.6"/>
      </g>
     </g>
    </g>
    <g id="ytick_46">
     <g id="line2d_91">
      <g>
       <use xlink:href="#m4771ebf4a0" x="750.91637" y="207.010412" style="stroke: #000000; stroke-width: 0.6"/>
      </g>
     </g>
    </g>
    <g id="ytick_47">
     <g id="line2d_92">
      <g>
       <use xlink:href="#m4771ebf4a0" x="750.91637" y="194.368569" style="stroke: #000000; stroke-width: 0.6"/>
      </g>
     </g>
    </g>
    <g id="ytick_48">
     <g id="line2d_93">
      <g>
       <use xlink:href="#m4771ebf4a0" x="750.91637" y="185.399039" style="stroke: #000000; stroke-width: 0.6"/>
      </g>
     </g>
    </g>
    <g id="ytick_49">
     <g id="line2d_94">
      <g>
       <use xlink:href="#m4771ebf4a0" x="750.91637" y="178.441731" style="stroke: #000000; stroke-width: 0.6"/>
      </g>
     </g>
    </g>
    <g id="ytick_50">
     <g id="line2d_95">
      <g>
       <use xlink:href="#m4771ebf4a0" x="750.91637" y="172.757196" style="stroke: #000000; stroke-width: 0.6"/>
      </g>
     </g>
    </g>
    <g id="ytick_51">
     <g id="line2d_96">
      <g>
       <use xlink:href="#m4771ebf4a0" x="750.91637" y="167.95099" style="stroke: #000000; stroke-width: 0.6"/>
      </g>
     </g>
    </g>
    <g id="ytick_52">
     <g id="line2d_97">
      <g>
       <use xlink:href="#m4771ebf4a0" x="750.91637" y="163.787665" style="stroke: #000000; stroke-width: 0.6"/>
      </g>
     </g>
    </g>
    <g id="ytick_53">
     <g id="line2d_98">
      <g>
       <use xlink:href="#m4771ebf4a0" x="750.91637" y="160.115353" style="stroke: #000000; stroke-width: 0.6"/>
      </g>
     </g>
    </g>
    <g id="ytick_54">
     <g id="line2d_99">
      <g>
       <use xlink:href="#m4771ebf4a0" x="750.91637" y="135.218984" style="stroke: #000000; stroke-width: 0.6"/>
      </g>
     </g>
    </g>
    <g id="ytick_55">
     <g id="line2d_100">
      <g>
       <use xlink:href="#m4771ebf4a0" x="750.91637" y="122.577141" style="stroke: #000000; stroke-width: 0.6"/>
      </g>
     </g>
    </g>
    <g id="ytick_56">
     <g id="line2d_101">
      <g>
       <use xlink:href="#m4771ebf4a0" x="750.91637" y="113.60761" style="stroke: #000000; stroke-width: 0.6"/>
      </g>
     </g>
    </g>
    <g id="ytick_57">
     <g id="line2d_102">
      <g>
       <use xlink:href="#m4771ebf4a0" x="750.91637" y="106.650302" style="stroke: #000000; stroke-width: 0.6"/>
      </g>
     </g>
    </g>
    <g id="ytick_58">
     <g id="line2d_103">
      <g>
       <use xlink:href="#m4771ebf4a0" x="750.91637" y="100.965767" style="stroke: #000000; stroke-width: 0.6"/>
      </g>
     </g>
    </g>
    <g id="ytick_59">
     <g id="line2d_104">
      <g>
       <use xlink:href="#m4771ebf4a0" x="750.91637" y="96.159562" style="stroke: #000000; stroke-width: 0.6"/>
      </g>
     </g>
    </g>
    <g id="ytick_60">
     <g id="line2d_105">
      <g>
       <use xlink:href="#m4771ebf4a0" x="750.91637" y="91.996237" style="stroke: #000000; stroke-width: 0.6"/>
      </g>
     </g>
    </g>
    <g id="ytick_61">
     <g id="line2d_106">
      <g>
       <use xlink:href="#m4771ebf4a0" x="750.91637" y="88.323924" style="stroke: #000000; stroke-width: 0.6"/>
      </g>
     </g>
    </g>
    <g id="ytick_62">
     <g id="line2d_107">
      <g>
       <use xlink:href="#m4771ebf4a0" x="750.91637" y="63.427555" style="stroke: #000000; stroke-width: 0.6"/>
      </g>
     </g>
    </g>
    <g id="ytick_63">
     <g id="line2d_108">
      <g>
       <use xlink:href="#m4771ebf4a0" x="750.91637" y="50.785712" style="stroke: #000000; stroke-width: 0.6"/>
      </g>
     </g>
    </g>
    <g id="ytick_64">
     <g id="line2d_109">
      <g>
       <use xlink:href="#m4771ebf4a0" x="750.91637" y="41.816182" style="stroke: #000000; stroke-width: 0.6"/>
      </g>
     </g>
    </g>
    <g id="ytick_65">
     <g id="line2d_110">
      <g>
       <use xlink:href="#m4771ebf4a0" x="750.91637" y="34.858873" style="stroke: #000000; stroke-width: 0.6"/>
      </g>
     </g>
    </g>
    <g id="ytick_66">
     <g id="line2d_111">
      <g>
       <use xlink:href="#m4771ebf4a0" x="750.91637" y="29.174339" style="stroke: #000000; stroke-width: 0.6"/>
      </g>
     </g>
    </g>
    <g id="ytick_67">
     <g id="line2d_112">
      <g>
       <use xlink:href="#m4771ebf4a0" x="750.91637" y="24.368133" style="stroke: #000000; stroke-width: 0.6"/>
      </g>
     </g>
    </g>
    <g id="ytick_68">
     <g id="line2d_113">
      <g>
       <use xlink:href="#m4771ebf4a0" x="750.91637" y="20.204808" style="stroke: #000000; stroke-width: 0.6"/>
      </g>
     </g>
    </g>
    <g id="ytick_69">
     <g id="line2d_114">
      <g>
       <use xlink:href="#m4771ebf4a0" x="750.91637" y="16.532496" style="stroke: #000000; stroke-width: 0.6"/>
      </g>
     </g>
    </g>
    <g id="text_33">
     <!-- $|y-y_{exact}|$ -->
     <g transform="translate(704.23637 315.0175) rotate(-90) scale(0.2 -0.2)">
      <defs>
       <path id="DejaVuSans-7c" d="M 1344 4891 
L 1344 -1509 
L 813 -1509 
L 813 4891 
L 1344 4891 
z
" transform="scale(0.015625)"/>
       <path id="DejaVuSans-2212" d="M 678 2272 
L 4684 2272 
L 4684 1741 
L 678 1741 
L 678 2272 
z
" transform="scale(0.015625)"/>
       <path id="DejaVuSans-Oblique-65" d="M 3078 2063 
Q 3088 2113 3092 2166 
Q 3097 2219 3097 2272 
Q 3097 2653 2873 2875 
Q 2650 3097 2266 3097 
Q 1838 3097 1509 2826 
Q 1181 2556 1013 2059 
L 3078 2063 
z
M 3578 1613 
L 903 1613 
Q 884 1494 878 1425 
Q 872 1356 872 1306 
Q 872 872 1139 634 
Q 1406 397 1894 397 
Q 2269 397 2603 481 
Q 2938 566 3225 728 
L 3116 159 
Q 2806 34 2476 -28 
Q 2147 -91 1806 -91 
Q 1078 -91 686 257 
Q 294 606 294 1247 
Q 294 1794 489 2264 
Q 684 2734 1063 3103 
Q 1306 3334 1642 3459 
Q 1978 3584 2356 3584 
Q 2950 3584 3301 3228 
Q 3653 2872 3653 2272 
Q 3653 2128 3634 1964 
Q 3616 1800 3578 1613 
z
" transform="scale(0.015625)"/>
       <path id="DejaVuSans-Oblique-61" d="M 3438 1997 
L 3047 0 
L 2472 0 
L 2578 531 
Q 2325 219 2001 64 
Q 1678 -91 1281 -91 
Q 834 -91 548 182 
Q 263 456 263 884 
Q 263 1497 752 1853 
Q 1241 2209 2100 2209 
L 2900 2209 
L 2931 2363 
Q 2938 2388 2941 2417 
Q 2944 2447 2944 2509 
Q 2944 2788 2717 2942 
Q 2491 3097 2081 3097 
Q 1800 3097 1504 3025 
Q 1209 2953 897 2809 
L 997 3341 
Q 1322 3463 1633 3523 
Q 1944 3584 2234 3584 
Q 2853 3584 3176 3315 
Q 3500 3047 3500 2534 
Q 3500 2431 3484 2292 
Q 3469 2153 3438 1997 
z
M 2816 1759 
L 2241 1759 
Q 1534 1759 1195 1570 
Q 856 1381 856 984 
Q 856 709 1029 553 
Q 1203 397 1509 397 
Q 1978 397 2328 733 
Q 2678 1069 2791 1631 
L 2816 1759 
z
" transform="scale(0.015625)"/>
       <path id="DejaVuSans-Oblique-63" d="M 3431 3366 
L 3316 2797 
Q 3109 2947 2876 3022 
Q 2644 3097 2394 3097 
Q 2119 3097 1870 3000 
Q 1622 2903 1453 2725 
Q 1184 2453 1037 2087 
Q 891 1722 891 1331 
Q 891 859 1127 628 
Q 1363 397 1844 397 
Q 2081 397 2348 469 
Q 2616 541 2906 684 
L 2797 116 
Q 2547 13 2283 -39 
Q 2019 -91 1741 -91 
Q 1044 -91 669 257 
Q 294 606 294 1253 
Q 294 1797 489 2255 
Q 684 2713 1069 3078 
Q 1331 3328 1684 3456 
Q 2038 3584 2456 3584 
Q 2700 3584 2940 3529 
Q 3181 3475 3431 3366 
z
" transform="scale(0.015625)"/>
       <path id="DejaVuSans-Oblique-74" d="M 2706 3500 
L 2619 3053 
L 1472 3053 
L 1100 1153 
Q 1081 1047 1072 975 
Q 1063 903 1063 863 
Q 1063 663 1183 572 
Q 1303 481 1569 481 
L 2150 481 
L 2053 0 
L 1503 0 
Q 991 0 739 200 
Q 488 400 488 806 
Q 488 878 497 964 
Q 506 1050 525 1153 
L 897 3053 
L 409 3053 
L 500 3500 
L 978 3500 
L 1172 4494 
L 1747 4494 
L 1556 3500 
L 2706 3500 
z
" transform="scale(0.015625)"/>
      </defs>
      <use xlink:href="#DejaVuSans-7c" transform="translate(0 0.578125)"/>
      <use xlink:href="#DejaVuSans-Oblique-79" transform="translate(33.691406 0.578125)"/>
      <use xlink:href="#DejaVuSans-2212" transform="translate(112.353516 0.578125)"/>
      <use xlink:href="#DejaVuSans-Oblique-79" transform="translate(215.625 0.578125)"/>
      <use xlink:href="#DejaVuSans-Oblique-65" transform="translate(274.804688 -15.828125) scale(0.7)"/>
      <use xlink:href="#DejaVuSans-Oblique-78" transform="translate(317.871094 -15.828125) scale(0.7)"/>
      <use xlink:href="#DejaVuSans-Oblique-61" transform="translate(359.296875 -15.828125) scale(0.7)"/>
      <use xlink:href="#DejaVuSans-Oblique-63" transform="translate(402.192383 -15.828125) scale(0.7)"/>
      <use xlink:href="#DejaVuSans-Oblique-74" transform="translate(440.678711 -15.828125) scale(0.7)"/>
      <use xlink:href="#DejaVuSans-7c" transform="translate(470.859375 0.578125)"/>
     </g>
    </g>
   </g>
   <g id="line2d_115">
    <path d="M 763.263823 570.00875 
L 764.175739 153.335259 
L 766.404205 151.861718 
L 768.63267 151.554119 
L 770.861135 151.548457 
L 773.089601 151.720634 
L 775.318066 152.060477 
L 777.546531 152.577689 
L 779.774997 153.27469 
L 782.003462 154.130289 
L 784.231928 155.084288 
L 786.460393 156.022716 
L 788.688858 156.768695 
L 790.917324 157.089537 
L 793.145789 156.733288 
L 795.374255 155.498424 
L 797.60272 153.314232 
L 799.831185 150.286441 
L 802.059651 146.677435 
L 804.288116 142.838137 
L 806.516581 139.138406 
L 808.745047 135.929928 
L 810.973512 133.548607 
L 813.201978 132.352628 
L 815.430443 132.804713 
L 817.658908 135.653929 
L 819.887374 142.453744 
L 822.115839 157.825208 
L 824.344304 228.38841 
L 826.57277 156.254882 
L 828.801235 129.977782 
L 831.029701 114.4817 
L 833.258166 103.654054 
L 835.486631 95.744743 
L 837.715097 90.073213 
L 839.943562 86.397003 
L 842.172027 84.755167 
L 844.400493 85.497225 
L 846.628958 89.543687 
L 848.857424 99.441283 
L 851.085889 126.699349 
L 853.314354 128.496344 
L 855.54282 88.016844 
L 857.771285 68.160957 
L 859.999751 54.460426 
L 862.228216 43.966063 
L 864.456681 35.571333 
L 866.685147 28.773879 
L 868.913612 23.38694 
L 871.142077 19.609093 
L 873.370543 19.609093 
L 875.599008 23.38694 
L 877.827474 28.773879 
L 880.055939 35.571333 
L 882.284404 43.966063 
L 884.51287 54.460426 
L 886.741335 68.160957 
L 888.9698 88.016844 
L 891.198266 128.496344 
L 893.426731 126.699349 
L 895.655197 99.441283 
L 897.883662 89.543687 
L 900.112127 85.497225 
L 902.340593 84.755167 
L 904.569058 86.397003 
L 906.797523 90.073213 
L 909.025989 95.744743 
L 911.254454 103.654054 
L 913.48292 114.4817 
L 915.711385 129.977782 
L 917.93985 156.254882 
L 920.168316 228.38841 
L 922.396781 157.825208 
L 924.625247 142.453744 
L 926.853712 135.653929 
L 929.082177 132.804713 
L 931.310643 132.352628 
L 933.539108 133.548607 
L 935.767573 135.929928 
L 937.996039 139.138406 
L 940.224504 142.838137 
L 942.45297 146.677435 
L 944.681435 150.286441 
L 946.9099 153.314232 
L 949.138366 155.498424 
L 951.366831 156.733288 
L 953.595296 157.089537 
L 955.823762 156.768695 
L 958.052227 156.022716 
L 960.280693 155.084288 
L 962.509158 154.130289 
L 964.737623 153.27469 
L 966.966089 152.577689 
L 969.194554 152.060477 
L 971.423019 151.720634 
L 973.651485 151.548457 
L 975.87995 151.554119 
L 978.108416 151.861718 
L 980.336881 153.335259 
L 981.280876 570.00875 
" clip-path="url(#p9e9412a631)" style="fill: none; stroke: #a80000; stroke-width: 3; stroke-linecap: square"/>
   </g>
   <g id="line2d_116">
    <path d="M 763.254497 570.00875 
L 764.175739 151.596566 
L 766.404205 148.644602 
L 768.63267 147.024699 
L 770.861135 145.920109 
L 773.089601 145.143916 
L 775.318066 144.660559 
L 777.546531 144.511461 
L 779.774997 144.673296 
L 782.003462 145.075266 
L 784.231928 145.708518 
L 786.460393 146.58378 
L 788.688858 147.642789 
L 790.917324 148.818073 
L 793.145789 150.101079 
L 795.374255 151.476635 
L 797.60272 152.881462 
L 799.831185 154.272671 
L 802.059651 155.649367 
L 804.288116 156.993124 
L 806.516581 158.265932 
L 808.745047 159.458176 
L 810.973512 160.57846 
L 813.201978 161.618868 
L 815.430443 162.569571 
L 817.658908 163.438963 
L 819.887374 164.236899 
L 822.115839 164.963903 
L 824.344304 165.624738 
L 826.57277 166.232165 
L 828.801235 166.799089 
L 831.029701 167.337558 
L 833.258166 167.855694 
L 835.486631 168.372405 
L 837.715097 168.97786 
L 839.943562 169.78049 
L 842.172027 170.56935 
L 844.400493 170.890967 
L 846.628958 171.742908 
L 848.857424 177.034802 
L 851.085889 189.548951 
L 853.314354 187.332351 
L 855.54282 158.985627 
L 857.771285 144.817154 
L 859.999751 270.708284 
L 862.228216 105.903293 
L 864.456681 82.945622 
L 866.685147 95.809239 
L 868.913612 69.877822 
L 871.142077 29.364093 
L 873.370543 29.364093 
L 875.599008 69.877822 
L 877.827474 95.809239 
L 880.055939 82.945622 
L 882.284404 105.903293 
L 884.51287 270.708284 
L 886.741335 144.817154 
L 888.9698 158.985627 
L 891.198266 187.332351 
L 893.426731 189.548951 
L 895.655197 177.034802 
L 897.883662 171.742908 
L 900.112127 170.890967 
L 902.340593 170.56935 
L 904.569058 169.78049 
L 906.797523 168.97786 
L 909.025989 168.372405 
L 911.254454 167.855694 
L 913.48292 167.337558 
L 915.711385 166.799089 
L 917.93985 166.232165 
L 920.168316 165.624738 
L 922.396781 164.963903 
L 924.625247 164.236899 
L 926.853712 163.438963 
L 929.082177 162.569571 
L 931.310643 161.618868 
L 933.539108 160.57846 
L 935.767573 159.458176 
L 937.996039 158.265932 
L 940.224504 156.993124 
L 942.45297 155.649367 
L 944.681435 154.272671 
L 946.9099 152.881462 
L 949.138366 151.476635 
L 951.366831 150.101079 
L 953.595296 148.818073 
L 955.823762 147.642789 
L 958.052227 146.58378 
L 960.280693 145.708518 
L 962.509158 145.075266 
L 964.737623 144.673296 
L 966.966089 144.511461 
L 969.194554 144.660559 
L 971.423019 145.143916 
L 973.651485 145.920109 
L 975.87995 147.024699 
L 978.108416 148.644602 
L 980.336881 151.596566 
L 981.318412 570.00875 
" clip-path="url(#p9e9412a631)" style="fill: none; stroke: #1f77b4; stroke-width: 3; stroke-linecap: square"/>
   </g>
   <g id="line2d_117">
    <path d="M 762.037418 570.00875 
L 764.175739 144.941107 
L 766.404205 137.991823 
L 768.63267 133.830234 
L 770.861135 131.431573 
L 773.089601 130.451184 
L 775.318066 130.705093 
L 777.546531 131.993995 
L 779.774997 134.128533 
L 782.003462 136.893859 
L 784.231928 140.040591 
L 786.460393 143.34096 
L 788.688858 146.545203 
L 790.917324 149.497012 
L 793.145789 152.065956 
L 795.374255 154.237375 
L 797.60272 156.029459 
L 799.831185 157.514652 
L 802.059651 158.768219 
L 804.288116 159.856003 
L 806.516581 160.833568 
L 808.745047 161.731347 
L 810.973512 162.572277 
L 813.201978 163.365049 
L 815.430443 164.114738 
L 817.658908 164.822872 
L 819.887374 165.490419 
L 822.115839 166.119103 
L 824.344304 166.711765 
L 826.57277 167.274316 
L 828.801235 167.814747 
L 831.029701 168.34571 
L 833.258166 168.885119 
L 835.486631 169.45751 
L 837.715097 170.098023 
L 839.943562 170.855926 
L 842.172027 171.801123 
L 844.400493 173.037139 
L 846.628958 174.721488 
L 848.857424 177.107764 
L 851.085889 180.648521 
L 853.314354 186.203759 
L 855.54282 196.175185 
L 857.771285 217.921121 
L 859.999751 243.017789 
L 862.228216 176.325976 
L 864.456681 208.621088 
L 866.685147 117.798186 
L 868.913612 78.259871 
L 871.142077 46.892152 
L 873.370543 46.892249 
L 875.599008 78.26012 
L 877.827474 117.798712 
L 880.055939 208.615876 
L 882.284404 176.328153 
L 884.51287 243.028623 
L 886.741335 217.919943 
L 888.9698 196.176825 
L 891.198266 186.206626 
L 893.426731 180.651895 
L 895.655197 177.111331 
L 897.883662 174.724492 
L 900.112127 173.039336 
L 902.340593 171.802032 
L 904.569058 170.855771 
L 906.797523 170.096979 
L 909.025989 169.456185 
L 911.254454 168.883855 
L 913.48292 168.344811 
L 915.711385 167.8142 
L 917.93985 167.274052 
L 920.168316 166.711646 
L 922.396781 166.119053 
L 924.625247 165.49039 
L 926.853712 164.822856 
L 929.082177 164.114728 
L 931.310643 163.365045 
L 933.539108 162.572276 
L 935.767573 161.731345 
L 937.996039 160.833565 
L 940.224504 159.855996 
L 942.45297 158.768208 
L 944.681435 157.514636 
L 946.9099 156.029439 
L 949.138366 154.237353 
L 951.366831 152.065934 
L 953.595296 149.496991 
L 955.823762 146.545185 
L 958.052227 143.340944 
L 960.280693 140.040579 
L 962.509158 136.893849 
L 964.737623 134.128526 
L 966.966089 131.993991 
L 969.194554 130.705093 
L 971.423019 130.451189 
L 973.651485 131.431584 
L 975.87995 133.830252 
L 978.108416 137.99185 
L 980.336881 144.941147 
L 982.475202 570.00875 
" clip-path="url(#p9e9412a631)" style="fill: none; stroke: #ff7f0e; stroke-width: 3; stroke-linecap: square"/>
   </g>
   <g id="patch_9">
    <path d="M 750.91637 515.7875 
L 750.91637 13.2475 
" style="fill: none; stroke: #000000; stroke-width: 1.5; stroke-linejoin: miter; stroke-linecap: square"/>
   </g>
   <g id="patch_10">
    <path d="M 993.59625 515.7875 
L 993.59625 13.2475 
" style="fill: none; stroke: #000000; stroke-width: 1.5; stroke-linejoin: miter; stroke-linecap: square"/>
   </g>
   <g id="patch_11">
    <path d="M 750.91637 515.7875 
L 993.59625 515.7875 
" style="fill: none; stroke: #000000; stroke-width: 1.5; stroke-linejoin: miter; stroke-linecap: square"/>
   </g>
   <g id="patch_12">
    <path d="M 750.91637 13.2475 
L 993.59625 13.2475 
" style="fill: none; stroke: #000000; stroke-width: 1.5; stroke-linejoin: miter; stroke-linecap: square"/>
   </g>
   <g id="legend_2">
    <g id="patch_13">
     <path d="M 807.277404 510.7875 
L 937.235216 510.7875 
Q 939.235216 510.7875 939.235216 508.7875 
L 939.235216 465.603125 
Q 939.235216 463.603125 937.235216 463.603125 
L 807.277404 463.603125 
Q 805.277404 463.603125 805.277404 465.603125 
L 805.277404 508.7875 
Q 805.277404 510.7875 807.277404 510.7875 
z
" style="fill: #ffffff; opacity: 0.8; stroke: #cccccc; stroke-linejoin: miter"/>
    </g>
    <g id="line2d_118">
     <path d="M 809.277404 471.6625 
L 819.277404 471.6625 
L 829.277404 471.6625 
" style="fill: none; stroke: #a80000; stroke-width: 3; stroke-linecap: square"/>
    </g>
    <g id="text_34">
     <!-- 16, t=1.3,exponential -->
     <g transform="translate(837.277404 475.1625) scale(0.1 -0.1)">
      <use xlink:href="#Georgia-31"/>
      <use xlink:href="#Georgia-36" x="42.96875"/>
      <use xlink:href="#Georgia-2c" x="99.560547"/>
      <use xlink:href="#Georgia-20" x="126.513672"/>
      <use xlink:href="#Georgia-74" x="150.634766"/>
      <use xlink:href="#Georgia-3d" x="185.15625"/>
      <use xlink:href="#Georgia-31" x="249.462891"/>
      <use xlink:href="#Georgia-2e" x="292.431641"/>
      <use xlink:href="#Georgia-33" x="319.384766"/>
      <use xlink:href="#Georgia-2c" x="374.560547"/>
      <use xlink:href="#Georgia-65" x="401.513672"/>
      <use xlink:href="#Georgia-78" x="449.853516"/>
      <use xlink:href="#Georgia-70" x="500.341797"/>
      <use xlink:href="#Georgia-6f" x="557.470703"/>
      <use xlink:href="#Georgia-6e" x="611.376953"/>
      <use xlink:href="#Georgia-65" x="670.458984"/>
      <use xlink:href="#Georgia-6e" x="718.798828"/>
      <use xlink:href="#Georgia-74" x="777.880859"/>
      <use xlink:href="#Georgia-69" x="812.402344"/>
      <use xlink:href="#Georgia-61" x="841.699219"/>
      <use xlink:href="#Georgia-6c" x="892.089844"/>
     </g>
    </g>
    <g id="line2d_119">
     <path d="M 809.277404 486.390625 
L 819.277404 486.390625 
L 829.277404 486.390625 
" style="fill: none; stroke: #1f77b4; stroke-width: 3; stroke-linecap: square"/>
    </g>
    <g id="text_35">
     <!-- 64, t=1.3,exponential -->
     <g transform="translate(837.277404 489.890625) scale(0.1 -0.1)">
      <use xlink:href="#Georgia-36"/>
      <use xlink:href="#Georgia-34" x="56.591797"/>
      <use xlink:href="#Georgia-2c" x="113.085938"/>
      <use xlink:href="#Georgia-20" x="140.039062"/>
      <use xlink:href="#Georgia-74" x="164.160156"/>
      <use xlink:href="#Georgia-3d" x="198.681641"/>
      <use xlink:href="#Georgia-31" x="262.988281"/>
      <use xlink:href="#Georgia-2e" x="305.957031"/>
      <use xlink:href="#Georgia-33" x="332.910156"/>
      <use xlink:href="#Georgia-2c" x="388.085938"/>
      <use xlink:href="#Georgia-65" x="415.039062"/>
      <use xlink:href="#Georgia-78" x="463.378906"/>
      <use xlink:href="#Georgia-70" x="513.867188"/>
      <use xlink:href="#Georgia-6f" x="570.996094"/>
      <use xlink:href="#Georgia-6e" x="624.902344"/>
      <use xlink:href="#Georgia-65" x="683.984375"/>
      <use xlink:href="#Georgia-6e" x="732.324219"/>
      <use xlink:href="#Georgia-74" x="791.40625"/>
      <use xlink:href="#Georgia-69" x="825.927734"/>
      <use xlink:href="#Georgia-61" x="855.224609"/>
      <use xlink:href="#Georgia-6c" x="905.615234"/>
     </g>
    </g>
    <g id="line2d_120">
     <path d="M 809.277404 501.11875 
L 819.277404 501.11875 
L 829.277404 501.11875 
" style="fill: none; stroke: #ff7f0e; stroke-width: 3; stroke-linecap: square"/>
    </g>
    <g id="text_36">
     <!-- 128, t=1.3,exponential -->
     <g transform="translate(837.277404 504.61875) scale(0.1 -0.1)">
      <use xlink:href="#Georgia-31"/>
      <use xlink:href="#Georgia-32" x="42.96875"/>
      <use xlink:href="#Georgia-38" x="98.828125"/>
      <use xlink:href="#Georgia-2c" x="158.447266"/>
      <use xlink:href="#Georgia-20" x="185.400391"/>
      <use xlink:href="#Georgia-74" x="209.521484"/>
      <use xlink:href="#Georgia-3d" x="244.042969"/>
      <use xlink:href="#Georgia-31" x="308.349609"/>
      <use xlink:href="#Georgia-2e" x="351.318359"/>
      <use xlink:href="#Georgia-33" x="378.271484"/>
      <use xlink:href="#Georgia-2c" x="433.447266"/>
      <use xlink:href="#Georgia-65" x="460.400391"/>
      <use xlink:href="#Georgia-78" x="508.740234"/>
      <use xlink:href="#Georgia-70" x="559.228516"/>
      <use xlink:href="#Georgia-6f" x="616.357422"/>
      <use xlink:href="#Georgia-6e" x="670.263672"/>
      <use xlink:href="#Georgia-65" x="729.345703"/>
      <use xlink:href="#Georgia-6e" x="777.685547"/>
      <use xlink:href="#Georgia-74" x="836.767578"/>
      <use xlink:href="#Georgia-69" x="871.289062"/>
      <use xlink:href="#Georgia-61" x="900.585938"/>
      <use xlink:href="#Georgia-6c" x="950.976562"/>
     </g>
    </g>
   </g>
  </g>
 </g>
 <defs>
  <clipPath id="p2c9676d967">
   <rect x="70.53125" y="13.2475" width="606.6997" height="502.54"/>
  </clipPath>
  <clipPath id="p9e9412a631">
   <rect x="750.91637" y="13.2475" width="242.67988" height="502.54"/>
  </clipPath>
 </defs>
</svg>
