<?xml version="1.0" encoding="utf-8" standalone="no"?>
<!DOCTYPE svg PUBLIC "-//W3C//DTD SVG 1.1//EN"
  "http://www.w3.org/Graphics/SVG/1.1/DTD/svg11.dtd">
<svg xmlns:xlink="http://www.w3.org/1999/xlink" width="1000.79625pt" height="568.90125pt" viewBox="0 0 1000.79625 568.90125" xmlns="http://www.w3.org/2000/svg" version="1.1">
 <metadata>
  <rdf:RDF xmlns:dc="http://purl.org/dc/elements/1.1/" xmlns:cc="http://creativecommons.org/ns#" xmlns:rdf="http://www.w3.org/1999/02/22-rdf-syntax-ns#">
   <cc:Work>
    <dc:type rdf:resource="http://purl.org/dc/dcmitype/StillImage"/>
    <dc:date>2023-11-29T03:14:39.936536</dc:date>
    <dc:format>image/svg+xml</dc:format>
    <dc:creator>
     <cc:Agent>
      <dc:title>Matplotlib v3.6.2, https://matplotlib.org/</dc:title>
     </cc:Agent>
    </dc:creator>
   </cc:Work>
  </rdf:RDF>
 </metadata>
 <defs>
  <style type="text/css">*{stroke-linejoin: round; stroke-linecap: butt}</style>
 </defs>
 <g id="figure_1">
  <g id="patch_1">
   <path d="M 0 568.90125 
L 1000.79625 568.90125 
L 1000.79625 0 
L 0 0 
L 0 568.90125 
z
" style="fill: none"/>
  </g>
  <g id="axes_1">
   <g id="patch_2">
    <path d="M 70.53125 515.68 
L 677.359521 515.68 
L 677.359521 7.2 
L 70.53125 7.2 
L 70.53125 515.68 
z
" style="fill: none"/>
   </g>
   <g id="matplotlib.axis_1">
    <g id="xtick_1">
     <g id="line2d_1">
      <path d="M 98.114353 515.68 
L 98.114353 7.2 
" clip-path="url(#pce26c1fea3)" style="fill: none; stroke: #b0b0b0; stroke-width: 0.8; stroke-linecap: square"/>
     </g>
     <g id="line2d_2">
      <defs>
       <path id="m5ab160c578" d="M 0 0 
L 0 3.5 
" style="stroke: #000000; stroke-width: 0.8"/>
      </defs>
      <g>
       <use xlink:href="#m5ab160c578" x="98.114353" y="515.68" style="stroke: #000000; stroke-width: 0.8"/>
      </g>
     </g>
     <g id="text_1">
      <!-- 0 -->
      <g transform="translate(93.204353 534.775) scale(0.16 -0.16)">
       <defs>
        <path id="Georgia-30" d="M 3209 2919 
Q 3409 2678 3507 2354 
Q 3606 2031 3606 1678 
Q 3606 1253 3484 917 
Q 3363 581 3150 359 
Q 2931 131 2631 15 
Q 2331 -100 1963 -100 
Q 1559 -100 1243 34 
Q 928 169 731 403 
Q 525 647 423 973 
Q 322 1300 322 1678 
Q 322 2050 420 2362 
Q 519 2675 728 2928 
Q 928 3172 1243 3312 
Q 1559 3453 1966 3453 
Q 2394 3453 2700 3309 
Q 3006 3166 3209 2919 
z
M 2916 1678 
Q 2916 2422 2661 2831 
Q 2406 3241 1969 3241 
Q 1525 3241 1269 2831 
Q 1013 2422 1013 1678 
Q 1013 972 1258 542 
Q 1503 113 1963 113 
Q 2422 113 2669 542 
Q 2916 972 2916 1678 
z
" transform="scale(0.015625)"/>
       </defs>
       <use xlink:href="#Georgia-30"/>
      </g>
     </g>
    </g>
    <g id="xtick_2">
     <g id="line2d_3">
      <path d="M 185.914098 515.68 
L 185.914098 7.2 
" clip-path="url(#pce26c1fea3)" style="fill: none; stroke: #b0b0b0; stroke-width: 0.8; stroke-linecap: square"/>
     </g>
     <g id="line2d_4">
      <g>
       <use xlink:href="#m5ab160c578" x="185.914098" y="515.68" style="stroke: #000000; stroke-width: 0.8"/>
      </g>
     </g>
     <g id="text_2">
      <!-- 1 -->
      <g transform="translate(182.476598 534.775) scale(0.16 -0.16)">
       <defs>
        <path id="Georgia-31" d="M 2528 0 
L 422 0 
L 422 222 
Q 516 228 714 248 
Q 913 269 988 291 
Q 1084 322 1136 392 
Q 1188 463 1188 603 
L 1188 2797 
L 409 2797 
L 409 3059 
L 581 3059 
Q 919 3059 1186 3184 
Q 1453 3309 1569 3453 
L 1828 3453 
Q 1819 3250 1809 2978 
Q 1800 2706 1800 2491 
L 1800 638 
Q 1800 528 1848 442 
Q 1897 356 1988 316 
Q 2069 281 2253 253 
Q 2438 225 2528 222 
L 2528 0 
z
" transform="scale(0.015625)"/>
       </defs>
       <use xlink:href="#Georgia-31"/>
      </g>
     </g>
    </g>
    <g id="xtick_3">
     <g id="line2d_5">
      <path d="M 273.713842 515.68 
L 273.713842 7.2 
" clip-path="url(#pce26c1fea3)" style="fill: none; stroke: #b0b0b0; stroke-width: 0.8; stroke-linecap: square"/>
     </g>
     <g id="line2d_6">
      <g>
       <use xlink:href="#m5ab160c578" x="273.713842" y="515.68" style="stroke: #000000; stroke-width: 0.8"/>
      </g>
     </g>
     <g id="text_3">
      <!-- 2 -->
      <g transform="translate(269.245092 534.775) scale(0.16 -0.16)">
       <defs>
        <path id="Georgia-32" d="M 3272 0 
L 344 0 
L 344 425 
Q 428 522 578 642 
Q 728 763 934 903 
Q 1059 988 1234 1088 
Q 1409 1188 1631 1306 
Q 1878 1438 2011 1538 
Q 2144 1638 2253 1784 
Q 2325 1881 2369 2026 
Q 2413 2172 2413 2441 
Q 2413 2831 2203 3014 
Q 1994 3197 1666 3197 
Q 1463 3197 1281 3117 
Q 1100 3038 1009 2897 
Q 1031 2797 1064 2659 
Q 1097 2522 1097 2391 
Q 1097 2272 998 2180 
Q 900 2088 706 2088 
Q 550 2088 465 2195 
Q 381 2303 381 2484 
Q 381 2653 475 2823 
Q 569 2994 744 3138 
Q 916 3278 1169 3365 
Q 1422 3453 1716 3453 
Q 2356 3453 2732 3167 
Q 3109 2881 3109 2403 
Q 3109 2175 3042 1987 
Q 2975 1800 2825 1656 
Q 2659 1497 2437 1383 
Q 2216 1269 1759 1066 
Q 1488 944 1253 811 
Q 1019 678 869 553 
L 3272 553 
L 3272 0 
z
" transform="scale(0.015625)"/>
       </defs>
       <use xlink:href="#Georgia-32"/>
      </g>
     </g>
    </g>
    <g id="xtick_4">
     <g id="line2d_7">
      <path d="M 361.513587 515.68 
L 361.513587 7.2 
" clip-path="url(#pce26c1fea3)" style="fill: none; stroke: #b0b0b0; stroke-width: 0.8; stroke-linecap: square"/>
     </g>
     <g id="line2d_8">
      <g>
       <use xlink:href="#m5ab160c578" x="361.513587" y="515.68" style="stroke: #000000; stroke-width: 0.8"/>
      </g>
     </g>
     <g id="text_4">
      <!-- 3 -->
      <g transform="translate(357.099837 534.775) scale(0.16 -0.16)">
       <defs>
        <path id="Georgia-33" d="M 1522 -1141 
Q 1228 -1141 984 -1067 
Q 741 -994 566 -869 
Q 391 -744 295 -581 
Q 200 -419 200 -247 
Q 200 -94 275 29 
Q 350 153 516 153 
Q 703 153 801 61 
Q 900 -31 900 -150 
Q 900 -250 867 -403 
Q 834 -556 816 -622 
Q 838 -650 895 -697 
Q 953 -744 1038 -781 
Q 1138 -828 1247 -856 
Q 1356 -884 1556 -884 
Q 1744 -884 1917 -821 
Q 2091 -759 2222 -622 
Q 2359 -478 2436 -286 
Q 2513 -94 2513 219 
Q 2513 388 2477 553 
Q 2441 719 2344 841 
Q 2247 963 2080 1030 
Q 1913 1097 1656 1097 
L 1247 1097 
L 1247 1456 
L 1519 1456 
Q 1950 1456 2140 1693 
Q 2331 1931 2331 2409 
Q 2331 2800 2147 2998 
Q 1963 3197 1625 3197 
Q 1463 3197 1358 3158 
Q 1253 3119 1188 3081 
Q 1109 3038 1059 2984 
Q 1009 2931 984 2906 
Q 1006 2806 1037 2661 
Q 1069 2516 1069 2384 
Q 1069 2269 970 2176 
Q 872 2084 681 2084 
Q 516 2084 439 2203 
Q 363 2322 363 2478 
Q 363 2641 453 2809 
Q 544 2978 722 3125 
Q 900 3272 1156 3362 
Q 1413 3453 1747 3453 
Q 2131 3453 2382 3339 
Q 2634 3225 2778 3063 
Q 2919 2903 2972 2728 
Q 3025 2553 3025 2428 
Q 3025 2272 2981 2114 
Q 2938 1956 2838 1822 
Q 2728 1675 2548 1554 
Q 2369 1434 2097 1359 
L 2097 1309 
Q 2272 1294 2470 1231 
Q 2669 1169 2828 1047 
Q 2994 919 3100 717 
Q 3206 516 3206 206 
Q 3206 -394 2725 -767 
Q 2244 -1141 1522 -1141 
z
" transform="scale(0.015625)"/>
       </defs>
       <use xlink:href="#Georgia-33"/>
      </g>
     </g>
    </g>
    <g id="xtick_5">
     <g id="line2d_9">
      <path d="M 449.313331 515.68 
L 449.313331 7.2 
" clip-path="url(#pce26c1fea3)" style="fill: none; stroke: #b0b0b0; stroke-width: 0.8; stroke-linecap: square"/>
     </g>
     <g id="line2d_10">
      <g>
       <use xlink:href="#m5ab160c578" x="449.313331" y="515.68" style="stroke: #000000; stroke-width: 0.8"/>
      </g>
     </g>
     <g id="text_5">
      <!-- 4 -->
      <g transform="translate(444.793331 534.775) scale(0.16 -0.16)">
       <defs>
        <path id="Georgia-34" d="M 3388 281 
L 2753 281 
L 2753 -1141 
L 2153 -1141 
L 2153 281 
L 153 281 
L 153 763 
L 2344 3434 
L 2753 3434 
L 2753 691 
L 3388 691 
L 3388 281 
z
M 2153 691 
L 2153 2738 
L 466 691 
L 2153 691 
z
" transform="scale(0.015625)"/>
       </defs>
       <use xlink:href="#Georgia-34"/>
      </g>
     </g>
    </g>
    <g id="xtick_6">
     <g id="line2d_11">
      <path d="M 537.113076 515.68 
L 537.113076 7.2 
" clip-path="url(#pce26c1fea3)" style="fill: none; stroke: #b0b0b0; stroke-width: 0.8; stroke-linecap: square"/>
     </g>
     <g id="line2d_12">
      <g>
       <use xlink:href="#m5ab160c578" x="537.113076" y="515.68" style="stroke: #000000; stroke-width: 0.8"/>
      </g>
     </g>
     <g id="text_6">
      <!-- 5 -->
      <g transform="translate(532.886826 534.775) scale(0.16 -0.16)">
       <defs>
        <path id="Georgia-35" d="M 2634 1466 
Q 2841 1303 2977 1047 
Q 3113 791 3113 406 
Q 3113 -266 2653 -703 
Q 2194 -1141 1488 -1141 
Q 941 -1141 562 -881 
Q 184 -622 184 -278 
Q 184 -119 262 0 
Q 341 119 503 119 
Q 691 119 789 20 
Q 888 -78 888 -194 
Q 888 -294 853 -444 
Q 819 -594 800 -666 
Q 825 -688 881 -725 
Q 938 -763 1016 -797 
Q 1097 -831 1214 -857 
Q 1331 -884 1488 -884 
Q 1688 -884 1866 -803 
Q 2044 -722 2166 -563 
Q 2300 -388 2367 -164 
Q 2434 59 2434 403 
Q 2434 844 2189 1133 
Q 1944 1422 1544 1422 
Q 1294 1422 1076 1328 
Q 859 1234 688 1016 
L 478 1097 
L 744 3353 
L 2981 3353 
L 2981 2797 
L 997 2797 
L 834 1472 
Q 975 1572 1204 1670 
Q 1434 1769 1709 1769 
Q 1938 1769 2183 1698 
Q 2428 1628 2634 1466 
z
" transform="scale(0.015625)"/>
       </defs>
       <use xlink:href="#Georgia-35"/>
      </g>
     </g>
    </g>
    <g id="xtick_7">
     <g id="line2d_13">
      <path d="M 624.91282 515.68 
L 624.91282 7.2 
" clip-path="url(#pce26c1fea3)" style="fill: none; stroke: #b0b0b0; stroke-width: 0.8; stroke-linecap: square"/>
     </g>
     <g id="line2d_14">
      <g>
       <use xlink:href="#m5ab160c578" x="624.91282" y="515.68" style="stroke: #000000; stroke-width: 0.8"/>
      </g>
     </g>
     <g id="text_7">
      <!-- 6 -->
      <g transform="translate(620.38532 534.775) scale(0.16 -0.16)">
       <defs>
        <path id="Georgia-36" d="M 3359 1441 
Q 3359 1116 3242 831 
Q 3125 547 2928 347 
Q 2700 119 2423 9 
Q 2147 -100 1847 -100 
Q 1500 -100 1219 28 
Q 938 156 741 391 
Q 541 628 431 972 
Q 322 1316 322 1744 
Q 322 2859 986 3625 
Q 1650 4391 2766 4544 
L 2822 4263 
L 2541 4213 
Q 1863 3994 1492 3531 
Q 1122 3069 1013 2409 
Q 1281 2644 1543 2741 
Q 1806 2838 2097 2838 
Q 2619 2838 2989 2438 
Q 3359 2038 3359 1441 
z
M 2681 1356 
Q 2681 1863 2448 2169 
Q 2216 2475 1825 2475 
Q 1591 2475 1389 2387 
Q 1188 2300 1000 2094 
Q 997 2056 990 1920 
Q 984 1784 984 1706 
Q 984 975 1223 561 
Q 1463 147 1853 147 
Q 2225 147 2453 470 
Q 2681 794 2681 1356 
z
" transform="scale(0.015625)"/>
       </defs>
       <use xlink:href="#Georgia-36"/>
      </g>
     </g>
    </g>
    <g id="text_8">
     <!-- $x$ -->
     <g transform="translate(367.945385 557.36375) scale(0.2 -0.2)">
      <defs>
       <path id="DejaVuSans-Oblique-78" d="M 3841 3500 
L 2234 1784 
L 3219 0 
L 2559 0 
L 1819 1388 
L 531 0 
L -166 0 
L 1556 1844 
L 641 3500 
L 1300 3500 
L 1972 2234 
L 3144 3500 
L 3841 3500 
z
" transform="scale(0.015625)"/>
      </defs>
      <use xlink:href="#DejaVuSans-Oblique-78" transform="translate(0 0.3125)"/>
     </g>
    </g>
   </g>
   <g id="matplotlib.axis_2">
    <g id="ytick_1">
     <g id="line2d_15">
      <path d="M 70.53125 437.850237 
L 677.359521 437.850237 
" clip-path="url(#pce26c1fea3)" style="fill: none; stroke: #b0b0b0; stroke-width: 0.8; stroke-linecap: square"/>
     </g>
     <g id="line2d_16">
      <defs>
       <path id="m7bfa093483" d="M 0 0 
L -3.5 0 
" style="stroke: #000000; stroke-width: 0.8"/>
      </defs>
      <g>
       <use xlink:href="#m7bfa093483" x="70.53125" y="437.850237" style="stroke: #000000; stroke-width: 0.8"/>
      </g>
     </g>
     <g id="text_9">
      <!-- −1.0 -->
      <g transform="translate(32.23375 443.897737) scale(0.16 -0.16)">
       <defs>
        <path id="Georgia-2212" d="M 3650 1553 
L 466 1553 
L 466 1944 
L 3650 1944 
L 3650 1553 
z
" transform="scale(0.015625)"/>
        <path id="Georgia-2e" d="M 1297 359 
Q 1297 184 1170 60 
Q 1044 -63 869 -63 
Q 694 -63 567 60 
Q 441 184 441 359 
Q 441 534 567 661 
Q 694 788 869 788 
Q 1044 788 1170 661 
Q 1297 534 1297 359 
z
" transform="scale(0.015625)"/>
       </defs>
       <use xlink:href="#Georgia-2212"/>
       <use xlink:href="#Georgia-31" x="64.306641"/>
       <use xlink:href="#Georgia-2e" x="107.275391"/>
       <use xlink:href="#Georgia-30" x="134.228516"/>
      </g>
     </g>
    </g>
    <g id="ytick_2">
     <g id="line2d_17">
      <path d="M 70.53125 349.645118 
L 677.359521 349.645118 
" clip-path="url(#pce26c1fea3)" style="fill: none; stroke: #b0b0b0; stroke-width: 0.8; stroke-linecap: square"/>
     </g>
     <g id="line2d_18">
      <g>
       <use xlink:href="#m7bfa093483" x="70.53125" y="349.645118" style="stroke: #000000; stroke-width: 0.8"/>
      </g>
     </g>
     <g id="text_10">
      <!-- −0.5 -->
      <g transform="translate(30.65625 355.692618) scale(0.16 -0.16)">
       <use xlink:href="#Georgia-2212"/>
       <use xlink:href="#Georgia-30" x="64.306641"/>
       <use xlink:href="#Georgia-2e" x="125.683594"/>
       <use xlink:href="#Georgia-35" x="152.636719"/>
      </g>
     </g>
    </g>
    <g id="ytick_3">
     <g id="line2d_19">
      <path d="M 70.53125 261.44 
L 677.359521 261.44 
" clip-path="url(#pce26c1fea3)" style="fill: none; stroke: #b0b0b0; stroke-width: 0.8; stroke-linecap: square"/>
     </g>
     <g id="line2d_20">
      <g>
       <use xlink:href="#m7bfa093483" x="70.53125" y="261.44" style="stroke: #000000; stroke-width: 0.8"/>
      </g>
     </g>
     <g id="text_11">
      <!-- 0.0 -->
      <g transform="translate(39.57875 267.4875) scale(0.16 -0.16)">
       <use xlink:href="#Georgia-30"/>
       <use xlink:href="#Georgia-2e" x="61.376953"/>
       <use xlink:href="#Georgia-30" x="88.330078"/>
      </g>
     </g>
    </g>
    <g id="ytick_4">
     <g id="line2d_21">
      <path d="M 70.53125 173.234882 
L 677.359521 173.234882 
" clip-path="url(#pce26c1fea3)" style="fill: none; stroke: #b0b0b0; stroke-width: 0.8; stroke-linecap: square"/>
     </g>
     <g id="line2d_22">
      <g>
       <use xlink:href="#m7bfa093483" x="70.53125" y="173.234882" style="stroke: #000000; stroke-width: 0.8"/>
      </g>
     </g>
     <g id="text_12">
      <!-- 0.5 -->
      <g transform="translate(40.94625 179.282382) scale(0.16 -0.16)">
       <use xlink:href="#Georgia-30"/>
       <use xlink:href="#Georgia-2e" x="61.376953"/>
       <use xlink:href="#Georgia-35" x="88.330078"/>
      </g>
     </g>
    </g>
    <g id="ytick_5">
     <g id="line2d_23">
      <path d="M 70.53125 85.029763 
L 677.359521 85.029763 
" clip-path="url(#pce26c1fea3)" style="fill: none; stroke: #b0b0b0; stroke-width: 0.8; stroke-linecap: square"/>
     </g>
     <g id="line2d_24">
      <g>
       <use xlink:href="#m7bfa093483" x="70.53125" y="85.029763" style="stroke: #000000; stroke-width: 0.8"/>
      </g>
     </g>
     <g id="text_13">
      <!-- 1.0 -->
      <g transform="translate(42.52375 91.077263) scale(0.16 -0.16)">
       <use xlink:href="#Georgia-31"/>
       <use xlink:href="#Georgia-2e" x="42.96875"/>
       <use xlink:href="#Georgia-30" x="69.921875"/>
      </g>
     </g>
    </g>
    <g id="text_14">
     <!-- $y$ -->
     <g transform="translate(22.31875 267.44) rotate(-90) scale(0.2 -0.2)">
      <defs>
       <path id="DejaVuSans-Oblique-79" d="M 1588 -325 
Q 1188 -997 936 -1164 
Q 684 -1331 294 -1331 
L -159 -1331 
L -63 -850 
L 269 -850 
Q 509 -850 678 -719 
Q 847 -588 1056 -206 
L 1234 128 
L 459 3500 
L 1069 3500 
L 1650 819 
L 3256 3500 
L 3859 3500 
L 1588 -325 
z
" transform="scale(0.015625)"/>
      </defs>
      <use xlink:href="#DejaVuSans-Oblique-79" transform="translate(0 0.3125)"/>
     </g>
    </g>
   </g>
   <g id="line2d_25">
    <path d="M 98.114353 261.44 
L 115.78521 226.174326 
L 125.172853 207.929668 
L 132.903853 193.354547 
L 140.082638 180.290526 
L 146.70921 168.710743 
L 152.783567 158.558185 
L 158.30571 149.754507 
L 163.827852 141.392482 
L 168.797781 134.271643 
L 173.767709 127.558162 
L 178.185424 121.95002 
L 182.603138 116.694946 
L 187.020852 111.806244 
L 190.886352 107.838919 
L 194.751852 104.169273 
L 198.617352 100.804419 
L 202.482852 97.750877 
L 206.348352 95.014565 
L 209.661638 92.925681 
L 212.974923 91.076745 
L 216.288209 89.470389 
L 219.601495 88.1089 
L 222.91478 86.994218 
L 226.228066 86.127929 
L 229.541352 85.511268 
L 232.854637 85.145111 
L 236.167923 85.029981 
L 239.481209 85.166041 
L 242.794494 85.553098 
L 246.10778 86.1906 
L 249.421066 87.077641 
L 252.734351 88.212955 
L 256.047637 89.594928 
L 259.360923 91.221591 
L 262.674208 93.090629 
L 265.987494 95.199379 
L 269.30078 97.544839 
L 273.16628 100.575911 
L 277.03178 103.918738 
L 280.89728 107.566841 
L 284.762779 111.513152 
L 288.628279 115.750021 
L 293.045994 120.937386 
L 297.463708 126.480383 
L 301.881422 132.364982 
L 306.851351 139.3749 
L 311.821279 146.775829 
L 317.343422 155.428802 
L 322.865565 164.500991 
L 328.939922 174.921729 
L 335.566493 186.760139 
L 342.745279 200.062731 
L 351.028493 215.91565 
L 360.96835 235.460928 
L 376.982564 267.541186 
L 391.89235 297.249065 
L 401.279992 315.478693 
L 409.010992 330.036896 
L 416.189778 343.081656 
L 422.816349 354.640737 
L 428.890706 364.771957 
L 434.412849 373.554366 
L 439.382778 381.080424 
L 444.352706 388.223237 
L 449.322635 394.959925 
L 453.740349 400.589672 
L 458.158063 405.867212 
L 462.575777 410.779185 
L 466.441277 414.767485 
L 470.306777 418.458636 
L 474.172277 421.845485 
L 478.037777 424.921467 
L 481.903277 427.680621 
L 485.216563 429.789371 
L 488.529848 431.658409 
L 491.843134 433.285072 
L 495.15642 434.667045 
L 498.469705 435.802359 
L 501.782991 436.6894 
L 505.096277 437.326902 
L 508.409562 437.713959 
L 511.722848 437.850019 
L 515.036134 437.734889 
L 518.349419 437.368732 
L 521.662705 436.752071 
L 524.975991 435.885782 
L 528.289276 434.7711 
L 531.602562 433.409611 
L 534.915848 431.803255 
L 538.229133 429.954319 
L 541.542419 427.865435 
L 544.855705 425.539578 
L 548.721205 422.531006 
L 552.586705 419.21024 
L 556.452205 415.583714 
L 560.317705 411.658457 
L 564.183205 407.442076 
L 568.600919 402.277384 
L 573.018633 396.756212 
L 577.436347 390.892535 
L 582.406276 383.905011 
L 587.376204 376.525194 
L 592.898347 367.894094 
L 598.42049 358.842027 
L 604.494847 348.441306 
L 611.121418 336.622094 
L 618.300204 323.337069 
L 626.583418 307.500097 
L 636.523275 287.967658 
L 649.776418 261.44 
L 649.776418 261.44 
" clip-path="url(#pce26c1fea3)" style="fill: none; stroke: #000000; stroke-linecap: square"/>
   </g>
   <g id="line2d_26">
    <defs>
     <path id="m17db607578" d="M 0 0.4 
C 0.106081 0.4 0.207832 0.357853 0.282843 0.282843 
C 0.357853 0.207832 0.4 0.106081 0.4 0 
C 0.4 -0.106081 0.357853 -0.207832 0.282843 -0.282843 
C 0.207832 -0.357853 0.106081 -0.4 0 -0.4 
C -0.106081 -0.4 -0.207832 -0.357853 -0.282843 -0.282843 
C -0.357853 -0.207832 -0.4 -0.106081 -0.4 0 
C -0.4 0.106081 -0.357853 0.207832 -0.282843 0.282843 
C -0.207832 0.357853 -0.106081 0.4 0 0.4 
z
" style="stroke: #000000"/>
    </defs>
    <g clip-path="url(#pce26c1fea3)">
     <use xlink:href="#m17db607578" x="98.114353" y="261.44" style="stroke: #000000"/>
     <use xlink:href="#m17db607578" x="103.686697" y="254.627224" style="stroke: #000000"/>
     <use xlink:href="#m17db607578" x="109.259041" y="249.692645" style="stroke: #000000"/>
     <use xlink:href="#m17db607578" x="114.831385" y="244.833571" style="stroke: #000000"/>
     <use xlink:href="#m17db607578" x="120.40373" y="239.995104" style="stroke: #000000"/>
     <use xlink:href="#m17db607578" x="125.976074" y="235.168821" style="stroke: #000000"/>
     <use xlink:href="#m17db607578" x="131.548418" y="230.353796" style="stroke: #000000"/>
     <use xlink:href="#m17db607578" x="137.120762" y="225.550819" style="stroke: #000000"/>
     <use xlink:href="#m17db607578" x="142.693106" y="220.761165" style="stroke: #000000"/>
     <use xlink:href="#m17db607578" x="148.26545" y="215.986287" style="stroke: #000000"/>
     <use xlink:href="#m17db607578" x="153.837794" y="211.227741" style="stroke: #000000"/>
     <use xlink:href="#m17db607578" x="159.410138" y="206.487158" style="stroke: #000000"/>
     <use xlink:href="#m17db607578" x="164.982482" y="201.766249" style="stroke: #000000"/>
     <use xlink:href="#m17db607578" x="170.554826" y="197.066811" style="stroke: #000000"/>
     <use xlink:href="#m17db607578" x="176.12717" y="192.390735" style="stroke: #000000"/>
     <use xlink:href="#m17db607578" x="181.699515" y="187.74002" style="stroke: #000000"/>
     <use xlink:href="#m17db607578" x="187.271859" y="183.116785" style="stroke: #000000"/>
     <use xlink:href="#m17db607578" x="192.844203" y="178.523281" style="stroke: #000000"/>
     <use xlink:href="#m17db607578" x="198.416547" y="173.961915" style="stroke: #000000"/>
     <use xlink:href="#m17db607578" x="203.988891" y="169.43526" style="stroke: #000000"/>
     <use xlink:href="#m17db607578" x="209.561235" y="164.946086" style="stroke: #000000"/>
     <use xlink:href="#m17db607578" x="215.133579" y="160.497379" style="stroke: #000000"/>
     <use xlink:href="#m17db607578" x="220.705923" y="156.092375" style="stroke: #000000"/>
     <use xlink:href="#m17db607578" x="226.278267" y="151.734589" style="stroke: #000000"/>
     <use xlink:href="#m17db607578" x="231.850611" y="147.427861" style="stroke: #000000"/>
     <use xlink:href="#m17db607578" x="237.422955" y="143.176399" style="stroke: #000000"/>
     <use xlink:href="#m17db607578" x="242.995299" y="138.984836" style="stroke: #000000"/>
     <use xlink:href="#m17db607578" x="248.567644" y="134.858298" style="stroke: #000000"/>
     <use xlink:href="#m17db607578" x="254.139988" y="130.802484" style="stroke: #000000"/>
     <use xlink:href="#m17db607578" x="259.712332" y="126.82376" style="stroke: #000000"/>
     <use xlink:href="#m17db607578" x="265.284676" y="122.929285" style="stroke: #000000"/>
     <use xlink:href="#m17db607578" x="270.85702" y="119.127152" style="stroke: #000000"/>
     <use xlink:href="#m17db607578" x="276.429364" y="115.426574" style="stroke: #000000"/>
     <use xlink:href="#m17db607578" x="282.001708" y="111.838114" style="stroke: #000000"/>
     <use xlink:href="#m17db607578" x="287.574052" y="108.37398" style="stroke: #000000"/>
     <use xlink:href="#m17db607578" x="293.146396" y="105.04841" style="stroke: #000000"/>
     <use xlink:href="#m17db607578" x="298.71874" y="101.878169" style="stroke: #000000"/>
     <use xlink:href="#m17db607578" x="304.291084" y="98.883222" style="stroke: #000000"/>
     <use xlink:href="#m17db607578" x="309.863428" y="96.08765" style="stroke: #000000"/>
     <use xlink:href="#m17db607578" x="315.435773" y="93.520926" style="stroke: #000000"/>
     <use xlink:href="#m17db607578" x="321.008117" y="91.219747" style="stroke: #000000"/>
     <use xlink:href="#m17db607578" x="326.580461" y="89.230733" style="stroke: #000000"/>
     <use xlink:href="#m17db607578" x="332.152805" y="87.61458" style="stroke: #000000"/>
     <use xlink:href="#m17db607578" x="337.725149" y="86.452712" style="stroke: #000000"/>
     <use xlink:href="#m17db607578" x="343.297493" y="85.858586" style="stroke: #000000"/>
     <use xlink:href="#m17db607578" x="348.869837" y="85.998334" style="stroke: #000000"/>
     <use xlink:href="#m17db607578" x="354.442181" y="87.132298" style="stroke: #000000"/>
     <use xlink:href="#m17db607578" x="360.014525" y="89.710763" style="stroke: #000000"/>
     <use xlink:href="#m17db607578" x="365.586869" y="94.644335" style="stroke: #000000"/>
     <use xlink:href="#m17db607578" x="371.159213" y="104.359009" style="stroke: #000000"/>
     <use xlink:href="#m17db607578" x="376.731558" y="418.520991" style="stroke: #000000"/>
     <use xlink:href="#m17db607578" x="382.303902" y="428.235665" style="stroke: #000000"/>
     <use xlink:href="#m17db607578" x="387.876246" y="433.169237" style="stroke: #000000"/>
     <use xlink:href="#m17db607578" x="393.44859" y="435.747702" style="stroke: #000000"/>
     <use xlink:href="#m17db607578" x="399.020934" y="436.881666" style="stroke: #000000"/>
     <use xlink:href="#m17db607578" x="404.593278" y="437.021414" style="stroke: #000000"/>
     <use xlink:href="#m17db607578" x="410.165622" y="436.427288" style="stroke: #000000"/>
     <use xlink:href="#m17db607578" x="415.737966" y="435.26542" style="stroke: #000000"/>
     <use xlink:href="#m17db607578" x="421.31031" y="433.649267" style="stroke: #000000"/>
     <use xlink:href="#m17db607578" x="426.882654" y="431.660253" style="stroke: #000000"/>
     <use xlink:href="#m17db607578" x="432.454998" y="429.359074" style="stroke: #000000"/>
     <use xlink:href="#m17db607578" x="438.027342" y="426.79235" style="stroke: #000000"/>
     <use xlink:href="#m17db607578" x="443.599687" y="423.996778" style="stroke: #000000"/>
     <use xlink:href="#m17db607578" x="449.172031" y="421.001831" style="stroke: #000000"/>
     <use xlink:href="#m17db607578" x="454.744375" y="417.83159" style="stroke: #000000"/>
     <use xlink:href="#m17db607578" x="460.316719" y="414.50602" style="stroke: #000000"/>
     <use xlink:href="#m17db607578" x="465.889063" y="411.041886" style="stroke: #000000"/>
     <use xlink:href="#m17db607578" x="471.461407" y="407.453426" style="stroke: #000000"/>
     <use xlink:href="#m17db607578" x="477.033751" y="403.752848" style="stroke: #000000"/>
     <use xlink:href="#m17db607578" x="482.606095" y="399.950715" style="stroke: #000000"/>
     <use xlink:href="#m17db607578" x="488.178439" y="396.05624" style="stroke: #000000"/>
     <use xlink:href="#m17db607578" x="493.750783" y="392.077516" style="stroke: #000000"/>
     <use xlink:href="#m17db607578" x="499.323127" y="388.021702" style="stroke: #000000"/>
     <use xlink:href="#m17db607578" x="504.895471" y="383.895164" style="stroke: #000000"/>
     <use xlink:href="#m17db607578" x="510.467816" y="379.703601" style="stroke: #000000"/>
     <use xlink:href="#m17db607578" x="516.04016" y="375.452139" style="stroke: #000000"/>
     <use xlink:href="#m17db607578" x="521.612504" y="371.145411" style="stroke: #000000"/>
     <use xlink:href="#m17db607578" x="527.184848" y="366.787625" style="stroke: #000000"/>
     <use xlink:href="#m17db607578" x="532.757192" y="362.382621" style="stroke: #000000"/>
     <use xlink:href="#m17db607578" x="538.329536" y="357.933914" style="stroke: #000000"/>
     <use xlink:href="#m17db607578" x="543.90188" y="353.44474" style="stroke: #000000"/>
     <use xlink:href="#m17db607578" x="549.474224" y="348.918085" style="stroke: #000000"/>
     <use xlink:href="#m17db607578" x="555.046568" y="344.356719" style="stroke: #000000"/>
     <use xlink:href="#m17db607578" x="560.618912" y="339.763215" style="stroke: #000000"/>
     <use xlink:href="#m17db607578" x="566.191256" y="335.13998" style="stroke: #000000"/>
     <use xlink:href="#m17db607578" x="571.763601" y="330.489265" style="stroke: #000000"/>
     <use xlink:href="#m17db607578" x="577.335945" y="325.813189" style="stroke: #000000"/>
     <use xlink:href="#m17db607578" x="582.908289" y="321.113751" style="stroke: #000000"/>
     <use xlink:href="#m17db607578" x="588.480633" y="316.392842" style="stroke: #000000"/>
     <use xlink:href="#m17db607578" x="594.052977" y="311.652259" style="stroke: #000000"/>
     <use xlink:href="#m17db607578" x="599.625321" y="306.893713" style="stroke: #000000"/>
     <use xlink:href="#m17db607578" x="605.197665" y="302.118835" style="stroke: #000000"/>
     <use xlink:href="#m17db607578" x="610.770009" y="297.329181" style="stroke: #000000"/>
     <use xlink:href="#m17db607578" x="616.342353" y="292.526204" style="stroke: #000000"/>
     <use xlink:href="#m17db607578" x="621.914697" y="287.711179" style="stroke: #000000"/>
     <use xlink:href="#m17db607578" x="627.487041" y="282.884896" style="stroke: #000000"/>
     <use xlink:href="#m17db607578" x="633.059385" y="278.046429" style="stroke: #000000"/>
     <use xlink:href="#m17db607578" x="638.63173" y="273.187355" style="stroke: #000000"/>
     <use xlink:href="#m17db607578" x="644.204074" y="268.252776" style="stroke: #000000"/>
     <use xlink:href="#m17db607578" x="649.776418" y="261.44" style="stroke: #000000"/>
    </g>
   </g>
   <g id="line2d_27">
    <path d="M 98.114353 261.44 
L 103.686697 258.033425 
L 109.259041 253.688499 
L 114.831385 247.818136 
L 120.40373 240.426138 
L 125.976074 232.156386 
L 131.548418 224.129295 
L 137.120762 217.607339 
L 142.693106 213.584889 
L 148.26545 212.424789 
L 153.837794 213.656494 
L 159.410138 216.009238 
L 164.982482 217.689236 
L 170.554826 216.839513 
L 176.12717 212.06439 
L 181.699515 202.874173 
L 187.271859 189.91817 
L 192.844203 174.924063 
L 198.416547 160.337192 
L 203.988891 148.73504 
L 209.561235 142.158337 
L 215.133579 141.532101 
L 220.705923 146.337232 
L 226.278267 154.637018 
L 231.850611 163.475779 
L 237.422955 169.570177 
L 242.995299 170.132298 
L 248.567644 163.619583 
L 254.139988 150.213234 
L 259.712332 131.884928 
L 265.284676 112.009003 
L 270.85702 94.590962 
L 276.429364 83.284963 
L 282.001708 80.436633 
L 287.574052 86.395168 
L 293.146396 99.285616 
L 298.71874 115.328941 
L 304.291084 129.667086 
L 309.863428 137.523784 
L 315.435773 135.440328 
L 321.008117 122.292711 
L 326.580461 99.832797 
L 332.152805 72.595397 
L 337.725149 47.154017 
L 343.297493 30.858491 
L 348.869837 30.312727 
L 354.442181 49.920078 
L 360.014525 90.820084 
L 365.586869 150.462474 
L 371.159213 222.928996 
L 376.731558 299.951004 
L 382.303902 372.417526 
L 387.876246 432.059916 
L 393.44859 472.959922 
L 399.020934 492.567273 
L 404.593278 492.021509 
L 410.165622 475.725983 
L 415.737966 450.284603 
L 421.31031 423.047203 
L 426.882654 400.587289 
L 432.454998 387.439672 
L 438.027342 385.356216 
L 443.599687 393.212914 
L 449.172031 407.551059 
L 454.744375 423.594384 
L 460.316719 436.484832 
L 465.889063 442.443367 
L 471.461407 439.595037 
L 477.033751 428.289038 
L 482.606095 410.870997 
L 488.178439 390.995072 
L 493.750783 372.666766 
L 499.323127 359.260417 
L 504.895471 352.747702 
L 510.467816 353.309823 
L 516.04016 359.404221 
L 521.612504 368.242982 
L 527.184848 376.542768 
L 532.757192 381.347899 
L 538.329536 380.721663 
L 543.90188 374.14496 
L 549.474224 362.542808 
L 555.046568 347.955937 
L 560.618912 332.96183 
L 566.191256 320.005827 
L 571.763601 310.81561 
L 577.335945 306.040487 
L 582.908289 305.190764 
L 588.480633 306.870762 
L 594.052977 309.223506 
L 599.625321 310.455211 
L 605.197665 309.295111 
L 610.770009 305.272661 
L 616.342353 298.750705 
L 621.914697 290.723614 
L 627.487041 282.453862 
L 633.059385 275.061864 
L 638.63173 269.191501 
L 644.204074 264.846575 
L 649.776418 261.44 
" clip-path="url(#pce26c1fea3)" style="fill: none; stroke: #a80000; stroke-width: 3; stroke-linecap: square"/>
   </g>
   <g id="line2d_28">
    <path d="M 115.353793 245.895651 
L 149.832672 218.642073 
L 184.311551 188.593442 
L 218.79043 158.649481 
L 253.269309 131.709918 
L 287.748188 110.674477 
L 322.227067 98.442883 
L 356.705946 97.914863 
L 391.184825 424.965137 
L 425.663704 424.437117 
L 460.142583 412.205523 
L 494.621462 391.170082 
L 529.100341 364.230519 
L 563.57922 334.286558 
L 598.058099 304.237927 
L 632.536978 276.984349 
" clip-path="url(#pce26c1fea3)" style="fill: none; stroke: #1f77b4; stroke-width: 3; stroke-linecap: square"/>
   </g>
   <g id="patch_3">
    <path d="M 70.53125 515.68 
L 70.53125 7.2 
" style="fill: none; stroke: #000000; stroke-width: 1.5; stroke-linejoin: miter; stroke-linecap: square"/>
   </g>
   <g id="patch_4">
    <path d="M 677.359521 515.68 
L 677.359521 7.2 
" style="fill: none; stroke: #000000; stroke-width: 1.5; stroke-linejoin: miter; stroke-linecap: square"/>
   </g>
   <g id="patch_5">
    <path d="M 70.53125 515.68 
L 677.359521 515.68 
" style="fill: none; stroke: #000000; stroke-width: 1.5; stroke-linejoin: miter; stroke-linecap: square"/>
   </g>
   <g id="patch_6">
    <path d="M 70.53125 7.2 
L 677.359521 7.2 
" style="fill: none; stroke: #000000; stroke-width: 1.5; stroke-linejoin: miter; stroke-linecap: square"/>
   </g>
   <g id="legend_1">
    <g id="patch_7">
     <path d="M 582.423583 74.1125 
L 670.359521 74.1125 
Q 672.359521 74.1125 672.359521 72.1125 
L 672.359521 14.2 
Q 672.359521 12.2 670.359521 12.2 
L 582.423583 12.2 
Q 580.423583 12.2 580.423583 14.2 
L 580.423583 72.1125 
Q 580.423583 74.1125 582.423583 74.1125 
z
" style="fill: #ffffff; opacity: 0.8; stroke: #cccccc; stroke-linejoin: miter"/>
    </g>
    <g id="line2d_29">
     <path d="M 584.423583 20.259375 
L 594.423583 20.259375 
L 604.423583 20.259375 
" style="fill: none; stroke: #000000; stroke-linecap: square"/>
    </g>
    <g id="text_15">
     <!-- Init -->
     <g transform="translate(612.423583 23.759375) scale(0.1 -0.1)">
      <defs>
       <path id="Georgia-49" d="M 2244 0 
L 247 0 
L 247 222 
Q 331 228 490 240 
Q 650 253 716 278 
Q 819 319 866 389 
Q 913 459 913 584 
L 913 3797 
Q 913 3906 878 3979 
Q 844 4053 716 4103 
Q 622 4141 480 4173 
Q 338 4206 247 4213 
L 247 4434 
L 2244 4434 
L 2244 4213 
Q 2147 4209 2012 4189 
Q 1878 4169 1778 4138 
Q 1659 4100 1618 4015 
Q 1578 3931 1578 3828 
L 1578 619 
Q 1578 516 1623 436 
Q 1669 356 1778 309 
Q 1844 284 1992 254 
Q 2141 225 2244 222 
L 2244 0 
z
" transform="scale(0.015625)"/>
       <path id="Georgia-6e" d="M 3628 0 
L 2119 0 
L 2119 206 
Q 2191 213 2277 219 
Q 2363 225 2419 244 
Q 2506 272 2548 342 
Q 2591 413 2591 525 
L 2591 2109 
Q 2591 2438 2436 2616 
Q 2281 2794 2059 2794 
Q 1894 2794 1756 2742 
Q 1619 2691 1513 2616 
Q 1409 2544 1348 2461 
Q 1288 2378 1259 2328 
L 1259 556 
Q 1259 450 1303 381 
Q 1347 313 1434 275 
Q 1500 244 1576 228 
Q 1653 213 1734 206 
L 1734 0 
L 225 0 
L 225 206 
Q 297 213 373 219 
Q 450 225 506 244 
Q 594 272 636 342 
Q 678 413 678 525 
L 678 2428 
Q 678 2534 633 2623 
Q 588 2713 506 2769 
Q 447 2806 365 2823 
Q 284 2841 191 2847 
L 191 3050 
L 1216 3119 
L 1259 3075 
L 1259 2641 
L 1275 2641 
Q 1350 2716 1462 2820 
Q 1575 2925 1675 2991 
Q 1791 3066 1950 3116 
Q 2109 3166 2309 3166 
Q 2753 3166 2967 2889 
Q 3181 2613 3181 2153 
L 3181 550 
Q 3181 441 3218 373 
Q 3256 306 3347 269 
Q 3422 238 3476 225 
Q 3531 213 3628 206 
L 3628 0 
z
" transform="scale(0.015625)"/>
       <path id="Georgia-69" d="M 1722 0 
L 231 0 
L 231 206 
Q 303 213 379 219 
Q 456 225 513 244 
Q 600 272 642 342 
Q 684 413 684 525 
L 684 2428 
Q 684 2528 639 2611 
Q 594 2694 513 2750 
Q 453 2788 340 2814 
Q 228 2841 134 2847 
L 134 3050 
L 1222 3119 
L 1266 3075 
L 1266 563 
Q 1266 453 1308 381 
Q 1350 309 1441 275 
Q 1509 247 1575 230 
Q 1641 213 1722 206 
L 1722 0 
z
M 1328 4334 
Q 1328 4156 1211 4023 
Q 1094 3891 922 3891 
Q 763 3891 645 4017 
Q 528 4144 528 4306 
Q 528 4478 645 4606 
Q 763 4734 922 4734 
Q 1100 4734 1214 4614 
Q 1328 4494 1328 4334 
z
" transform="scale(0.015625)"/>
       <path id="Georgia-74" d="M 2128 134 
Q 1925 50 1744 -8 
Q 1563 -66 1300 -66 
Q 913 -66 755 129 
Q 597 325 597 681 
L 597 2769 
L 41 2769 
L 41 3069 
L 609 3069 
L 609 4028 
L 1178 4028 
L 1178 3069 
L 2063 3069 
L 2063 2769 
L 1184 2769 
L 1184 1047 
Q 1184 853 1198 723 
Q 1213 594 1266 497 
Q 1316 406 1416 359 
Q 1516 313 1684 313 
Q 1763 313 1914 327 
Q 2066 341 2128 363 
L 2128 134 
z
" transform="scale(0.015625)"/>
      </defs>
      <use xlink:href="#Georgia-49"/>
      <use xlink:href="#Georgia-6e" x="38.964844"/>
      <use xlink:href="#Georgia-69" x="98.046875"/>
      <use xlink:href="#Georgia-74" x="127.34375"/>
     </g>
    </g>
    <g id="line2d_30">
     <g>
      <use xlink:href="#m17db607578" x="594.423583" y="34.9875" style="stroke: #000000"/>
     </g>
    </g>
    <g id="text_16">
     <!-- Exact -->
     <g transform="translate(612.423583 38.4875) scale(0.1 -0.1)">
      <defs>
       <path id="Georgia-45" d="M 4034 1306 
L 3950 0 
L 269 0 
L 269 222 
Q 363 228 519 248 
Q 675 269 722 291 
Q 822 338 861 413 
Q 900 488 900 603 
L 900 3791 
Q 900 3894 865 3973 
Q 831 4053 722 4103 
Q 638 4144 495 4175 
Q 353 4206 269 4213 
L 269 4434 
L 3700 4434 
L 3700 3366 
L 3466 3366 
Q 3403 3603 3195 3870 
Q 2988 4138 2800 4163 
Q 2703 4175 2568 4181 
Q 2434 4188 2263 4188 
L 1566 4188 
L 1566 2425 
L 2066 2425 
Q 2306 2425 2417 2470 
Q 2528 2516 2613 2622 
Q 2681 2713 2729 2864 
Q 2778 3016 2794 3150 
L 3028 3150 
L 3028 1416 
L 2794 1416 
Q 2781 1566 2726 1733 
Q 2672 1900 2613 1975 
Q 2516 2097 2392 2134 
Q 2269 2172 2066 2172 
L 1566 2172 
L 1566 841 
Q 1566 641 1594 525 
Q 1622 409 1703 350 
Q 1784 291 1925 273 
Q 2066 256 2325 256 
Q 2428 256 2597 256 
Q 2766 256 2881 269 
Q 3000 281 3126 314 
Q 3253 347 3306 403 
Q 3450 553 3608 858 
Q 3766 1163 3809 1306 
L 4034 1306 
z
" transform="scale(0.015625)"/>
       <path id="Georgia-78" d="M 3194 0 
L 1781 0 
L 1781 206 
Q 1922 222 2020 237 
Q 2119 253 2119 319 
Q 2119 347 2087 406 
Q 2056 466 2025 516 
Q 1947 638 1811 842 
Q 1675 1047 1478 1331 
Q 1316 1128 1178 936 
Q 1041 744 891 528 
Q 869 497 845 450 
Q 822 403 822 375 
Q 822 306 911 261 
Q 1000 216 1178 200 
L 1178 0 
L 38 0 
L 38 194 
Q 250 256 379 345 
Q 509 434 619 566 
Q 716 691 889 909 
Q 1063 1128 1338 1503 
Q 1178 1731 948 2061 
Q 719 2391 569 2609 
Q 488 2728 383 2801 
Q 278 2875 88 2875 
L 88 3081 
L 1428 3081 
L 1428 2875 
Q 1328 2875 1231 2862 
Q 1134 2850 1134 2806 
Q 1134 2778 1153 2743 
Q 1172 2709 1200 2669 
Q 1269 2563 1414 2341 
Q 1559 2119 1728 1872 
Q 1838 2022 1983 2222 
Q 2128 2422 2250 2603 
Q 2263 2625 2275 2658 
Q 2288 2691 2288 2722 
Q 2288 2788 2180 2827 
Q 2072 2866 1975 2881 
L 1975 3081 
L 3113 3081 
L 3113 2888 
Q 2872 2825 2737 2739 
Q 2603 2653 2509 2541 
Q 2406 2413 2264 2225 
Q 2122 2038 1866 1700 
Q 2150 1300 2328 1044 
Q 2506 788 2688 516 
Q 2778 378 2889 298 
Q 3000 219 3194 206 
L 3194 0 
z
" transform="scale(0.015625)"/>
       <path id="Georgia-61" d="M 3144 56 
Q 2997 3 2886 -30 
Q 2775 -63 2634 -63 
Q 2391 -63 2245 51 
Q 2100 166 2059 384 
L 2041 384 
Q 1838 159 1605 40 
Q 1372 -78 1044 -78 
Q 697 -78 473 134 
Q 250 347 250 691 
Q 250 869 300 1009 
Q 350 1150 450 1263 
Q 528 1356 656 1429 
Q 784 1503 897 1547 
Q 1038 1600 1467 1744 
Q 1897 1888 2047 1969 
L 2047 2278 
Q 2047 2319 2030 2434 
Q 2013 2550 1956 2653 
Q 1894 2769 1780 2855 
Q 1666 2941 1456 2941 
Q 1313 2941 1189 2892 
Q 1066 2844 1016 2791 
Q 1016 2728 1045 2606 
Q 1075 2484 1075 2381 
Q 1075 2272 976 2181 
Q 878 2091 703 2091 
Q 547 2091 473 2202 
Q 400 2313 400 2450 
Q 400 2594 501 2725 
Q 603 2856 766 2959 
Q 906 3047 1106 3108 
Q 1306 3169 1497 3169 
Q 1759 3169 1954 3133 
Q 2150 3097 2309 2978 
Q 2469 2863 2551 2664 
Q 2634 2466 2634 2153 
Q 2634 1706 2625 1361 
Q 2616 1016 2616 606 
Q 2616 484 2658 412 
Q 2700 341 2788 291 
Q 2834 263 2936 259 
Q 3038 256 3144 256 
L 3144 56 
z
M 2053 1706 
Q 1788 1628 1588 1553 
Q 1388 1478 1216 1366 
Q 1059 1259 968 1114 
Q 878 969 878 769 
Q 878 509 1014 387 
Q 1150 266 1359 266 
Q 1581 266 1750 373 
Q 1919 481 2034 628 
L 2053 1706 
z
" transform="scale(0.015625)"/>
       <path id="Georgia-63" d="M 1650 -81 
Q 981 -81 603 362 
Q 225 806 225 1553 
Q 225 1878 326 2161 
Q 428 2444 622 2675 
Q 806 2897 1084 3033 
Q 1363 3169 1691 3169 
Q 2144 3169 2428 2951 
Q 2713 2734 2713 2359 
Q 2713 2203 2638 2083 
Q 2563 1963 2391 1963 
Q 2206 1963 2104 2056 
Q 2003 2150 2003 2266 
Q 2003 2406 2040 2554 
Q 2078 2703 2084 2772 
Q 2028 2869 1917 2901 
Q 1806 2934 1678 2934 
Q 1528 2934 1392 2870 
Q 1256 2806 1128 2634 
Q 1013 2478 941 2212 
Q 869 1947 869 1578 
Q 869 997 1126 630 
Q 1384 263 1803 263 
Q 2106 263 2311 409 
Q 2516 556 2691 850 
L 2891 719 
Q 2684 350 2346 134 
Q 2009 -81 1650 -81 
z
" transform="scale(0.015625)"/>
      </defs>
      <use xlink:href="#Georgia-45"/>
      <use xlink:href="#Georgia-78" x="65.332031"/>
      <use xlink:href="#Georgia-61" x="115.820312"/>
      <use xlink:href="#Georgia-63" x="166.210938"/>
      <use xlink:href="#Georgia-74" x="211.621094"/>
     </g>
    </g>
    <g id="line2d_31">
     <path d="M 584.423583 49.715625 
L 594.423583 49.715625 
L 604.423583 49.715625 
" style="fill: none; stroke: #a80000; stroke-width: 3; stroke-linecap: square"/>
    </g>
    <g id="text_17">
     <!-- 16, t=1.3 -->
     <g transform="translate(612.423583 53.215625) scale(0.1 -0.1)">
      <defs>
       <path id="Georgia-2c" d="M 1341 109 
Q 1341 -116 1239 -316 
Q 1138 -516 1006 -659 
Q 872 -809 722 -925 
Q 572 -1041 447 -1106 
L 303 -897 
Q 453 -803 572 -709 
Q 691 -616 766 -522 
Q 859 -413 925 -284 
Q 991 -156 1009 6 
L 850 6 
Q 641 6 523 115 
Q 406 225 406 409 
Q 406 541 512 664 
Q 619 788 803 788 
Q 1072 788 1206 608 
Q 1341 428 1341 109 
z
" transform="scale(0.015625)"/>
       <path id="Georgia-20" transform="scale(0.015625)"/>
       <path id="Georgia-3d" d="M 3634 2134 
L 481 2134 
L 481 2525 
L 3634 2525 
L 3634 2134 
z
M 3634 972 
L 481 972 
L 481 1363 
L 3634 1363 
L 3634 972 
z
" transform="scale(0.015625)"/>
      </defs>
      <use xlink:href="#Georgia-31"/>
      <use xlink:href="#Georgia-36" x="42.96875"/>
      <use xlink:href="#Georgia-2c" x="99.560547"/>
      <use xlink:href="#Georgia-20" x="126.513672"/>
      <use xlink:href="#Georgia-74" x="150.634766"/>
      <use xlink:href="#Georgia-3d" x="185.15625"/>
      <use xlink:href="#Georgia-31" x="249.462891"/>
      <use xlink:href="#Georgia-2e" x="292.431641"/>
      <use xlink:href="#Georgia-33" x="319.384766"/>
     </g>
    </g>
    <g id="line2d_32">
     <path d="M 584.423583 64.44375 
L 594.423583 64.44375 
L 604.423583 64.44375 
" style="fill: none; stroke: #1f77b4; stroke-width: 3; stroke-linecap: square"/>
    </g>
    <g id="text_18">
     <!-- 16, t=1.3,ggb -->
     <g transform="translate(612.423583 67.94375) scale(0.1 -0.1)">
      <defs>
       <path id="Georgia-67" d="M 2866 319 
Q 2991 200 3062 50 
Q 3134 -100 3134 -322 
Q 3134 -544 3037 -739 
Q 2941 -934 2744 -1078 
Q 2534 -1225 2243 -1306 
Q 1953 -1388 1525 -1388 
Q 825 -1388 478 -1183 
Q 131 -978 131 -584 
Q 131 -266 381 -81 
Q 631 103 1019 119 
L 1019 163 
Q 925 191 825 233 
Q 725 275 653 331 
Q 572 397 522 486 
Q 472 575 472 706 
Q 472 872 589 1011 
Q 706 1150 944 1250 
L 944 1297 
Q 644 1438 478 1658 
Q 313 1878 313 2169 
Q 313 2606 639 2887 
Q 966 3169 1475 3169 
Q 1616 3169 1755 3141 
Q 1894 3113 2038 3069 
L 3113 3069 
L 3113 2769 
L 2388 2769 
L 2388 2750 
Q 2503 2616 2559 2453 
Q 2616 2291 2616 2134 
Q 2616 1728 2286 1447 
Q 1956 1166 1519 1166 
L 1141 1166 
Q 1069 1141 991 1075 
Q 913 1009 913 897 
Q 913 781 978 720 
Q 1044 659 1138 638 
Q 1228 613 1348 606 
Q 1469 600 1597 597 
Q 1734 594 1973 578 
Q 2213 563 2313 559 
Q 2456 553 2601 490 
Q 2747 428 2866 319 
z
M 2022 2147 
Q 2022 2513 1873 2730 
Q 1725 2947 1456 2947 
Q 1309 2947 1204 2886 
Q 1100 2825 1034 2713 
Q 972 2609 945 2464 
Q 919 2319 919 2166 
Q 919 1819 1070 1600 
Q 1222 1381 1463 1381 
Q 1731 1381 1876 1598 
Q 2022 1816 2022 2147 
z
M 2622 -438 
Q 2622 -263 2540 -150 
Q 2459 -38 2294 3 
Q 2206 16 1934 31 
Q 1663 47 1303 47 
Q 966 -19 823 -173 
Q 681 -328 681 -572 
Q 681 -681 728 -781 
Q 775 -881 891 -966 
Q 1000 -1047 1184 -1098 
Q 1369 -1150 1634 -1150 
Q 2094 -1150 2358 -973 
Q 2622 -797 2622 -438 
z
" transform="scale(0.015625)"/>
       <path id="Georgia-62" d="M 3353 1544 
Q 3353 850 2915 378 
Q 2478 -94 1900 -94 
Q 1647 -94 1401 -15 
Q 1156 63 941 194 
L 709 -166 
L 516 -122 
Q 531 109 537 434 
Q 544 759 544 1063 
L 544 4113 
Q 544 4219 495 4325 
Q 447 4431 372 4478 
Q 313 4519 173 4539 
Q 34 4559 -50 4566 
L -50 4766 
L 1081 4838 
L 1125 4791 
L 1125 2759 
L 1147 2753 
Q 1341 2959 1570 3062 
Q 1800 3166 2022 3166 
Q 2591 3166 2972 2716 
Q 3353 2266 3353 1544 
z
M 2700 1522 
Q 2700 1753 2650 1993 
Q 2600 2234 2494 2413 
Q 2388 2594 2216 2706 
Q 2044 2819 1803 2819 
Q 1584 2819 1420 2733 
Q 1256 2647 1125 2500 
L 1125 706 
Q 1144 631 1198 531 
Q 1253 431 1347 341 
Q 1441 253 1559 198 
Q 1678 144 1850 144 
Q 2231 144 2465 512 
Q 2700 881 2700 1522 
z
" transform="scale(0.015625)"/>
      </defs>
      <use xlink:href="#Georgia-31"/>
      <use xlink:href="#Georgia-36" x="42.96875"/>
      <use xlink:href="#Georgia-2c" x="99.560547"/>
      <use xlink:href="#Georgia-20" x="126.513672"/>
      <use xlink:href="#Georgia-74" x="150.634766"/>
      <use xlink:href="#Georgia-3d" x="185.15625"/>
      <use xlink:href="#Georgia-31" x="249.462891"/>
      <use xlink:href="#Georgia-2e" x="292.431641"/>
      <use xlink:href="#Georgia-33" x="319.384766"/>
      <use xlink:href="#Georgia-2c" x="374.560547"/>
      <use xlink:href="#Georgia-67" x="401.513672"/>
      <use xlink:href="#Georgia-67" x="452.441406"/>
      <use xlink:href="#Georgia-62" x="503.369141"/>
     </g>
    </g>
   </g>
  </g>
  <g id="axes_2">
   <g id="patch_8">
    <path d="M 750.864942 515.68 
L 993.59625 515.68 
L 993.59625 7.2 
L 750.864942 7.2 
L 750.864942 515.68 
z
" style="fill: none"/>
   </g>
   <g id="matplotlib.axis_3">
    <g id="xtick_8">
     <g id="line2d_33">
      <path d="M 761.898183 515.68 
L 761.898183 7.2 
" clip-path="url(#p74188f4248)" style="fill: none; stroke: #b0b0b0; stroke-width: 0.8; stroke-linecap: square"/>
     </g>
     <g id="line2d_34">
      <g>
       <use xlink:href="#m5ab160c578" x="761.898183" y="515.68" style="stroke: #000000; stroke-width: 0.8"/>
      </g>
     </g>
     <g id="text_19">
      <!-- 0 -->
      <g transform="translate(756.988183 534.775) scale(0.16 -0.16)">
       <use xlink:href="#Georgia-30"/>
      </g>
     </g>
    </g>
    <g id="xtick_9">
     <g id="line2d_35">
      <path d="M 832.137978 515.68 
L 832.137978 7.2 
" clip-path="url(#p74188f4248)" style="fill: none; stroke: #b0b0b0; stroke-width: 0.8; stroke-linecap: square"/>
     </g>
     <g id="line2d_36">
      <g>
       <use xlink:href="#m5ab160c578" x="832.137978" y="515.68" style="stroke: #000000; stroke-width: 0.8"/>
      </g>
     </g>
     <g id="text_20">
      <!-- 2 -->
      <g transform="translate(827.669228 534.775) scale(0.16 -0.16)">
       <use xlink:href="#Georgia-32"/>
      </g>
     </g>
    </g>
    <g id="xtick_10">
     <g id="line2d_37">
      <path d="M 902.377774 515.68 
L 902.377774 7.2 
" clip-path="url(#p74188f4248)" style="fill: none; stroke: #b0b0b0; stroke-width: 0.8; stroke-linecap: square"/>
     </g>
     <g id="line2d_38">
      <g>
       <use xlink:href="#m5ab160c578" x="902.377774" y="515.68" style="stroke: #000000; stroke-width: 0.8"/>
      </g>
     </g>
     <g id="text_21">
      <!-- 4 -->
      <g transform="translate(897.857774 534.775) scale(0.16 -0.16)">
       <use xlink:href="#Georgia-34"/>
      </g>
     </g>
    </g>
    <g id="xtick_11">
     <g id="line2d_39">
      <path d="M 972.61757 515.68 
L 972.61757 7.2 
" clip-path="url(#p74188f4248)" style="fill: none; stroke: #b0b0b0; stroke-width: 0.8; stroke-linecap: square"/>
     </g>
     <g id="line2d_40">
      <g>
       <use xlink:href="#m5ab160c578" x="972.61757" y="515.68" style="stroke: #000000; stroke-width: 0.8"/>
      </g>
     </g>
     <g id="text_22">
      <!-- 6 -->
      <g transform="translate(968.09007 534.775) scale(0.16 -0.16)">
       <use xlink:href="#Georgia-36"/>
      </g>
     </g>
    </g>
    <g id="text_23">
     <!-- $x$ -->
     <g transform="translate(866.230596 557.36375) scale(0.2 -0.2)">
      <use xlink:href="#DejaVuSans-Oblique-78" transform="translate(0 0.3125)"/>
     </g>
    </g>
   </g>
   <g id="matplotlib.axis_4">
    <g id="ytick_6">
     <g id="line2d_41">
      <path d="M 750.864942 370.47216 
L 993.59625 370.47216 
" clip-path="url(#p74188f4248)" style="fill: none; stroke: #b0b0b0; stroke-width: 0.8; stroke-linecap: square"/>
     </g>
     <g id="line2d_42">
      <g>
       <use xlink:href="#m7bfa093483" x="750.864942" y="370.47216" style="stroke: #000000; stroke-width: 0.8"/>
      </g>
     </g>
     <g id="text_24">
      <!-- $\mathdefault{10^{-2}}$ -->
      <g transform="translate(713.144942 376.51966) scale(0.16 -0.16)">
       <use xlink:href="#Georgia-31" transform="translate(0 0.534375)"/>
       <use xlink:href="#Georgia-30" transform="translate(42.96875 0.534375)"/>
       <use xlink:href="#Georgia-2212" transform="translate(105.188164 34.232813) scale(0.7)"/>
       <use xlink:href="#Georgia-32" transform="translate(150.202812 34.232813) scale(0.7)"/>
      </g>
     </g>
    </g>
    <g id="ytick_7">
     <g id="line2d_43">
      <path d="M 750.864942 188.529272 
L 993.59625 188.529272 
" clip-path="url(#p74188f4248)" style="fill: none; stroke: #b0b0b0; stroke-width: 0.8; stroke-linecap: square"/>
     </g>
     <g id="line2d_44">
      <g>
       <use xlink:href="#m7bfa093483" x="750.864942" y="188.529272" style="stroke: #000000; stroke-width: 0.8"/>
      </g>
     </g>
     <g id="text_25">
      <!-- $\mathdefault{10^{-1}}$ -->
      <g transform="translate(714.584942 194.576772) scale(0.16 -0.16)">
       <use xlink:href="#Georgia-31" transform="translate(0 0.534375)"/>
       <use xlink:href="#Georgia-30" transform="translate(42.96875 0.534375)"/>
       <use xlink:href="#Georgia-2212" transform="translate(105.188164 34.232813) scale(0.7)"/>
       <use xlink:href="#Georgia-31" transform="translate(150.202812 34.232813) scale(0.7)"/>
      </g>
     </g>
    </g>
    <g id="ytick_8">
     <g id="line2d_45">
      <defs>
       <path id="m5b0ffe02fd" d="M 0 0 
L -2 0 
" style="stroke: #000000; stroke-width: 0.6"/>
      </defs>
      <g>
       <use xlink:href="#m5b0ffe02fd" x="750.864942" y="497.644781" style="stroke: #000000; stroke-width: 0.6"/>
      </g>
     </g>
    </g>
    <g id="ytick_9">
     <g id="line2d_46">
      <g>
       <use xlink:href="#m5b0ffe02fd" x="750.864942" y="465.606229" style="stroke: #000000; stroke-width: 0.6"/>
      </g>
     </g>
    </g>
    <g id="ytick_10">
     <g id="line2d_47">
      <g>
       <use xlink:href="#m5b0ffe02fd" x="750.864942" y="442.874515" style="stroke: #000000; stroke-width: 0.6"/>
      </g>
     </g>
    </g>
    <g id="ytick_11">
     <g id="line2d_48">
      <g>
       <use xlink:href="#m5b0ffe02fd" x="750.864942" y="425.242427" style="stroke: #000000; stroke-width: 0.6"/>
      </g>
     </g>
    </g>
    <g id="ytick_12">
     <g id="line2d_49">
      <g>
       <use xlink:href="#m5b0ffe02fd" x="750.864942" y="410.835962" style="stroke: #000000; stroke-width: 0.6"/>
      </g>
     </g>
    </g>
    <g id="ytick_13">
     <g id="line2d_50">
      <g>
       <use xlink:href="#m5b0ffe02fd" x="750.864942" y="398.65547" style="stroke: #000000; stroke-width: 0.6"/>
      </g>
     </g>
    </g>
    <g id="ytick_14">
     <g id="line2d_51">
      <g>
       <use xlink:href="#m5b0ffe02fd" x="750.864942" y="388.104248" style="stroke: #000000; stroke-width: 0.6"/>
      </g>
     </g>
    </g>
    <g id="ytick_15">
     <g id="line2d_52">
      <g>
       <use xlink:href="#m5b0ffe02fd" x="750.864942" y="378.79741" style="stroke: #000000; stroke-width: 0.6"/>
      </g>
     </g>
    </g>
    <g id="ytick_16">
     <g id="line2d_53">
      <g>
       <use xlink:href="#m5b0ffe02fd" x="750.864942" y="315.701894" style="stroke: #000000; stroke-width: 0.6"/>
      </g>
     </g>
    </g>
    <g id="ytick_17">
     <g id="line2d_54">
      <g>
       <use xlink:href="#m5b0ffe02fd" x="750.864942" y="283.663341" style="stroke: #000000; stroke-width: 0.6"/>
      </g>
     </g>
    </g>
    <g id="ytick_18">
     <g id="line2d_55">
      <g>
       <use xlink:href="#m5b0ffe02fd" x="750.864942" y="260.931627" style="stroke: #000000; stroke-width: 0.6"/>
      </g>
     </g>
    </g>
    <g id="ytick_19">
     <g id="line2d_56">
      <g>
       <use xlink:href="#m5b0ffe02fd" x="750.864942" y="243.299539" style="stroke: #000000; stroke-width: 0.6"/>
      </g>
     </g>
    </g>
    <g id="ytick_20">
     <g id="line2d_57">
      <g>
       <use xlink:href="#m5b0ffe02fd" x="750.864942" y="228.893075" style="stroke: #000000; stroke-width: 0.6"/>
      </g>
     </g>
    </g>
    <g id="ytick_21">
     <g id="line2d_58">
      <g>
       <use xlink:href="#m5b0ffe02fd" x="750.864942" y="216.712582" style="stroke: #000000; stroke-width: 0.6"/>
      </g>
     </g>
    </g>
    <g id="ytick_22">
     <g id="line2d_59">
      <g>
       <use xlink:href="#m5b0ffe02fd" x="750.864942" y="206.16136" style="stroke: #000000; stroke-width: 0.6"/>
      </g>
     </g>
    </g>
    <g id="ytick_23">
     <g id="line2d_60">
      <g>
       <use xlink:href="#m5b0ffe02fd" x="750.864942" y="196.854522" style="stroke: #000000; stroke-width: 0.6"/>
      </g>
     </g>
    </g>
    <g id="ytick_24">
     <g id="line2d_61">
      <g>
       <use xlink:href="#m5b0ffe02fd" x="750.864942" y="133.759006" style="stroke: #000000; stroke-width: 0.6"/>
      </g>
     </g>
    </g>
    <g id="ytick_25">
     <g id="line2d_62">
      <g>
       <use xlink:href="#m5b0ffe02fd" x="750.864942" y="101.720454" style="stroke: #000000; stroke-width: 0.6"/>
      </g>
     </g>
    </g>
    <g id="ytick_26">
     <g id="line2d_63">
      <g>
       <use xlink:href="#m5b0ffe02fd" x="750.864942" y="78.988739" style="stroke: #000000; stroke-width: 0.6"/>
      </g>
     </g>
    </g>
    <g id="ytick_27">
     <g id="line2d_64">
      <g>
       <use xlink:href="#m5b0ffe02fd" x="750.864942" y="61.356651" style="stroke: #000000; stroke-width: 0.6"/>
      </g>
     </g>
    </g>
    <g id="ytick_28">
     <g id="line2d_65">
      <g>
       <use xlink:href="#m5b0ffe02fd" x="750.864942" y="46.950187" style="stroke: #000000; stroke-width: 0.6"/>
      </g>
     </g>
    </g>
    <g id="ytick_29">
     <g id="line2d_66">
      <g>
       <use xlink:href="#m5b0ffe02fd" x="750.864942" y="34.769695" style="stroke: #000000; stroke-width: 0.6"/>
      </g>
     </g>
    </g>
    <g id="ytick_30">
     <g id="line2d_67">
      <g>
       <use xlink:href="#m5b0ffe02fd" x="750.864942" y="24.218472" style="stroke: #000000; stroke-width: 0.6"/>
      </g>
     </g>
    </g>
    <g id="ytick_31">
     <g id="line2d_68">
      <g>
       <use xlink:href="#m5b0ffe02fd" x="750.864942" y="14.911635" style="stroke: #000000; stroke-width: 0.6"/>
      </g>
     </g>
    </g>
    <g id="text_26">
     <!-- $|y-y_{exact}|$ -->
     <g transform="translate(704.344942 311.94) rotate(-90) scale(0.2 -0.2)">
      <defs>
       <path id="DejaVuSans-7c" d="M 1344 4891 
L 1344 -1509 
L 813 -1509 
L 813 4891 
L 1344 4891 
z
" transform="scale(0.015625)"/>
       <path id="DejaVuSans-2212" d="M 678 2272 
L 4684 2272 
L 4684 1741 
L 678 1741 
L 678 2272 
z
" transform="scale(0.015625)"/>
       <path id="DejaVuSans-Oblique-65" d="M 3078 2063 
Q 3088 2113 3092 2166 
Q 3097 2219 3097 2272 
Q 3097 2653 2873 2875 
Q 2650 3097 2266 3097 
Q 1838 3097 1509 2826 
Q 1181 2556 1013 2059 
L 3078 2063 
z
M 3578 1613 
L 903 1613 
Q 884 1494 878 1425 
Q 872 1356 872 1306 
Q 872 872 1139 634 
Q 1406 397 1894 397 
Q 2269 397 2603 481 
Q 2938 566 3225 728 
L 3116 159 
Q 2806 34 2476 -28 
Q 2147 -91 1806 -91 
Q 1078 -91 686 257 
Q 294 606 294 1247 
Q 294 1794 489 2264 
Q 684 2734 1063 3103 
Q 1306 3334 1642 3459 
Q 1978 3584 2356 3584 
Q 2950 3584 3301 3228 
Q 3653 2872 3653 2272 
Q 3653 2128 3634 1964 
Q 3616 1800 3578 1613 
z
" transform="scale(0.015625)"/>
       <path id="DejaVuSans-Oblique-61" d="M 3438 1997 
L 3047 0 
L 2472 0 
L 2578 531 
Q 2325 219 2001 64 
Q 1678 -91 1281 -91 
Q 834 -91 548 182 
Q 263 456 263 884 
Q 263 1497 752 1853 
Q 1241 2209 2100 2209 
L 2900 2209 
L 2931 2363 
Q 2938 2388 2941 2417 
Q 2944 2447 2944 2509 
Q 2944 2788 2717 2942 
Q 2491 3097 2081 3097 
Q 1800 3097 1504 3025 
Q 1209 2953 897 2809 
L 997 3341 
Q 1322 3463 1633 3523 
Q 1944 3584 2234 3584 
Q 2853 3584 3176 3315 
Q 3500 3047 3500 2534 
Q 3500 2431 3484 2292 
Q 3469 2153 3438 1997 
z
M 2816 1759 
L 2241 1759 
Q 1534 1759 1195 1570 
Q 856 1381 856 984 
Q 856 709 1029 553 
Q 1203 397 1509 397 
Q 1978 397 2328 733 
Q 2678 1069 2791 1631 
L 2816 1759 
z
" transform="scale(0.015625)"/>
       <path id="DejaVuSans-Oblique-63" d="M 3431 3366 
L 3316 2797 
Q 3109 2947 2876 3022 
Q 2644 3097 2394 3097 
Q 2119 3097 1870 3000 
Q 1622 2903 1453 2725 
Q 1184 2453 1037 2087 
Q 891 1722 891 1331 
Q 891 859 1127 628 
Q 1363 397 1844 397 
Q 2081 397 2348 469 
Q 2616 541 2906 684 
L 2797 116 
Q 2547 13 2283 -39 
Q 2019 -91 1741 -91 
Q 1044 -91 669 257 
Q 294 606 294 1253 
Q 294 1797 489 2255 
Q 684 2713 1069 3078 
Q 1331 3328 1684 3456 
Q 2038 3584 2456 3584 
Q 2700 3584 2940 3529 
Q 3181 3475 3431 3366 
z
" transform="scale(0.015625)"/>
       <path id="DejaVuSans-Oblique-74" d="M 2706 3500 
L 2619 3053 
L 1472 3053 
L 1100 1153 
Q 1081 1047 1072 975 
Q 1063 903 1063 863 
Q 1063 663 1183 572 
Q 1303 481 1569 481 
L 2150 481 
L 2053 0 
L 1503 0 
Q 991 0 739 200 
Q 488 400 488 806 
Q 488 878 497 964 
Q 506 1050 525 1153 
L 897 3053 
L 409 3053 
L 500 3500 
L 978 3500 
L 1172 4494 
L 1747 4494 
L 1556 3500 
L 2706 3500 
z
" transform="scale(0.015625)"/>
      </defs>
      <use xlink:href="#DejaVuSans-7c" transform="translate(0 0.578125)"/>
      <use xlink:href="#DejaVuSans-Oblique-79" transform="translate(33.691406 0.578125)"/>
      <use xlink:href="#DejaVuSans-2212" transform="translate(112.353516 0.578125)"/>
      <use xlink:href="#DejaVuSans-Oblique-79" transform="translate(215.625 0.578125)"/>
      <use xlink:href="#DejaVuSans-Oblique-65" transform="translate(274.804688 -15.828125) scale(0.7)"/>
      <use xlink:href="#DejaVuSans-Oblique-78" transform="translate(317.871094 -15.828125) scale(0.7)"/>
      <use xlink:href="#DejaVuSans-Oblique-61" transform="translate(359.296875 -15.828125) scale(0.7)"/>
      <use xlink:href="#DejaVuSans-Oblique-63" transform="translate(402.192383 -15.828125) scale(0.7)"/>
      <use xlink:href="#DejaVuSans-Oblique-74" transform="translate(440.678711 -15.828125) scale(0.7)"/>
      <use xlink:href="#DejaVuSans-7c" transform="translate(470.859375 0.578125)"/>
     </g>
    </g>
   </g>
   <g id="line2d_69">
    <path d="M 764.124035 569.90125 
L 764.127121 318.482625 
L 766.356058 305.866827 
L 768.584996 328.924183 
L 770.813933 481.823516 
L 773.042871 328.189741 
L 775.271809 270.843727 
L 777.500746 251.574839 
L 779.729684 259.600651 
L 781.958622 314.959762 
L 784.187559 345.20766 
L 786.416497 237.252111 
L 788.645435 196.625592 
L 790.874372 179.515413 
L 793.10331 179.912228 
L 795.332247 200.640423 
L 797.561185 263.840237 
L 799.790123 314.127279 
L 802.01906 208.942557 
L 804.247998 175.893126 
L 806.476936 168.30129 
L 808.705873 182.809818 
L 810.934811 235.341389 
L 813.163748 331.129225 
L 815.392686 196.008049 
L 817.621624 156.693311 
L 819.850561 143.607777 
L 822.079499 149.905617 
L 824.308437 180.975269 
L 826.537374 287.192003 
L 828.766312 226.426139 
L 830.99525 162.459888 
L 833.224187 141.125171 
L 835.453125 142.965981 
L 837.682062 171.157285 
L 839.911 276.933626 
L 842.139938 209.95788 
L 844.368875 144.5356 
L 846.597813 121.054761 
L 848.826751 120.138525 
L 851.055688 143.796995 
L 853.284626 228.762922 
L 855.513564 201.242983 
L 857.742501 125.239648 
L 859.971439 98.67866 
L 862.200376 97.699894 
L 864.429314 129.55034 
L 866.658252 407.127534 
L 868.887189 97.512057 
L 871.116127 37.98045 
L 873.345065 37.98045 
L 875.574002 97.512057 
L 877.80294 407.127534 
L 880.031878 129.55034 
L 882.260815 97.699894 
L 884.489753 98.67866 
L 886.71869 125.239648 
L 888.947628 201.242983 
L 891.176566 228.762922 
L 893.405503 143.796995 
L 895.634441 120.138525 
L 897.863379 121.054761 
L 900.092316 144.5356 
L 902.321254 209.95788 
L 904.550192 276.933626 
L 906.779129 171.157285 
L 909.008067 142.965981 
L 911.237004 141.125171 
L 913.465942 162.459888 
L 915.69488 226.426139 
L 917.923817 287.192003 
L 920.152755 180.975269 
L 922.381693 149.905617 
L 924.61063 143.607777 
L 926.839568 156.693311 
L 929.068505 196.008049 
L 931.297443 331.129225 
L 933.526381 235.341389 
L 935.755318 182.809818 
L 937.984256 168.30129 
L 940.213194 175.893126 
L 942.442131 208.942557 
L 944.671069 314.127279 
L 946.900007 263.840237 
L 949.128944 200.640423 
L 951.357882 179.912228 
L 953.586819 179.515413 
L 955.815757 196.625592 
L 958.044695 237.252111 
L 960.273632 345.20766 
L 962.50257 314.959762 
L 964.731508 259.600651 
L 966.960445 251.574839 
L 969.189383 270.843727 
L 971.418321 328.189741 
L 973.647258 481.823516 
L 975.876196 328.924183 
L 978.105133 305.866827 
L 980.334071 318.482625 
L 980.337156 569.90125 
" clip-path="url(#p74188f4248)" style="fill: none; stroke: #a80000; stroke-width: 3; stroke-linecap: square"/>
   </g>
   <g id="line2d_70">
    <path d="M 761.898183 198.527262 
L 764.127121 244.100324 
L 766.356058 309.900441 
L 768.584996 410.566262 
L 770.813933 364.240506 
L 773.042871 348.469763 
L 775.271809 335.652936 
L 777.500746 324.930455 
L 779.729684 315.788798 
L 781.958622 307.895194 
L 784.187559 307.303966 
L 786.416497 309.670206 
L 788.645435 312.531659 
L 790.874372 315.981735 
L 793.10331 320.140881 
L 795.332247 325.168862 
L 797.561185 331.039932 
L 799.790123 338.027565 
L 802.01906 346.752655 
L 804.247998 357.876871 
L 806.476936 372.53252 
L 808.705873 392.911784 
L 810.934811 410.686593 
L 813.163748 410.395282 
L 815.392686 413.974755 
L 817.621624 422.358943 
L 819.850561 437.791278 
L 822.079499 466.210847 
L 824.308437 492.567273 
L 826.537374 418.939441 
L 828.766312 385.960183 
L 830.99525 366.605889 
L 833.224187 354.71291 
L 835.453125 348.072593 
L 837.682062 345.927213 
L 839.911 311.710175 
L 842.139938 289.67762 
L 844.368875 274.772789 
L 846.597813 264.541278 
L 848.826751 257.912848 
L 851.055688 254.492022 
L 853.284626 240.440716 
L 855.513564 228.211584 
L 857.742501 220.620606 
L 859.971439 217.271878 
L 862.200376 218.73586 
L 864.429314 227.175323 
L 866.658252 124.660656 
L 868.887189 61.981149 
L 871.116127 30.312727 
L 873.345065 30.312727 
L 875.574002 61.981149 
L 877.80294 124.660656 
L 880.031878 227.175323 
L 882.260815 218.73586 
L 884.489753 217.271878 
L 886.71869 220.620606 
L 888.947628 228.211584 
L 891.176566 240.440716 
L 893.405503 254.492022 
L 895.634441 257.912848 
L 897.863379 264.541278 
L 900.092316 274.772789 
L 902.321254 289.67762 
L 904.550192 311.710175 
L 906.779129 345.927213 
L 909.008067 348.072593 
L 911.237004 354.71291 
L 913.465942 366.605889 
L 915.69488 385.960183 
L 917.923817 418.939441 
L 920.152755 492.567273 
L 922.381693 466.210847 
L 924.61063 437.791278 
L 926.839568 422.358943 
L 929.068505 413.974755 
L 931.297443 410.395282 
L 933.526381 410.686593 
L 935.755318 392.911784 
L 937.984256 372.53252 
L 940.213194 357.876871 
L 942.442131 346.752655 
L 944.671069 338.027565 
L 946.900007 331.039932 
L 949.128944 325.168862 
L 951.357882 320.140881 
L 953.586819 315.981735 
L 955.815757 312.531659 
L 958.044695 309.670206 
L 960.273632 307.303966 
L 962.50257 307.895194 
L 964.731508 315.788798 
L 966.960445 324.930455 
L 969.189383 335.652936 
L 971.418321 348.469763 
L 973.647258 364.240506 
L 975.876196 410.566262 
L 978.105133 309.900441 
L 980.334071 244.100324 
L 982.563009 198.527262 
" clip-path="url(#p74188f4248)" style="fill: none; stroke: #1f77b4; stroke-width: 3; stroke-linecap: square"/>
   </g>
   <g id="patch_9">
    <path d="M 750.864942 515.68 
L 750.864942 7.2 
" style="fill: none; stroke: #000000; stroke-width: 1.5; stroke-linejoin: miter; stroke-linecap: square"/>
   </g>
   <g id="patch_10">
    <path d="M 993.59625 515.68 
L 993.59625 7.2 
" style="fill: none; stroke: #000000; stroke-width: 1.5; stroke-linejoin: miter; stroke-linecap: square"/>
   </g>
   <g id="patch_11">
    <path d="M 750.864942 515.68 
L 993.59625 515.68 
" style="fill: none; stroke: #000000; stroke-width: 1.5; stroke-linejoin: miter; stroke-linecap: square"/>
   </g>
   <g id="patch_12">
    <path d="M 750.864942 7.2 
L 993.59625 7.2 
" style="fill: none; stroke: #000000; stroke-width: 1.5; stroke-linejoin: miter; stroke-linecap: square"/>
   </g>
   <g id="legend_2">
    <g id="patch_13">
     <path d="M 898.660313 44.65625 
L 986.59625 44.65625 
Q 988.59625 44.65625 988.59625 42.65625 
L 988.59625 14.2 
Q 988.59625 12.2 986.59625 12.2 
L 898.660313 12.2 
Q 896.660313 12.2 896.660313 14.2 
L 896.660313 42.65625 
Q 896.660313 44.65625 898.660313 44.65625 
z
" style="fill: #ffffff; opacity: 0.8; stroke: #cccccc; stroke-linejoin: miter"/>
    </g>
    <g id="line2d_71">
     <path d="M 900.660313 20.259375 
L 910.660313 20.259375 
L 920.660313 20.259375 
" style="fill: none; stroke: #a80000; stroke-width: 3; stroke-linecap: square"/>
    </g>
    <g id="text_27">
     <!-- 16, t=1.3 -->
     <g transform="translate(928.660313 23.759375) scale(0.1 -0.1)">
      <use xlink:href="#Georgia-31"/>
      <use xlink:href="#Georgia-36" x="42.96875"/>
      <use xlink:href="#Georgia-2c" x="99.560547"/>
      <use xlink:href="#Georgia-20" x="126.513672"/>
      <use xlink:href="#Georgia-74" x="150.634766"/>
      <use xlink:href="#Georgia-3d" x="185.15625"/>
      <use xlink:href="#Georgia-31" x="249.462891"/>
      <use xlink:href="#Georgia-2e" x="292.431641"/>
      <use xlink:href="#Georgia-33" x="319.384766"/>
     </g>
    </g>
    <g id="line2d_72">
     <path d="M 900.660313 34.9875 
L 910.660313 34.9875 
L 920.660313 34.9875 
" style="fill: none; stroke: #1f77b4; stroke-width: 3; stroke-linecap: square"/>
    </g>
    <g id="text_28">
     <!-- 16, t=1.3,ggb -->
     <g transform="translate(928.660313 38.4875) scale(0.1 -0.1)">
      <use xlink:href="#Georgia-31"/>
      <use xlink:href="#Georgia-36" x="42.96875"/>
      <use xlink:href="#Georgia-2c" x="99.560547"/>
      <use xlink:href="#Georgia-20" x="126.513672"/>
      <use xlink:href="#Georgia-74" x="150.634766"/>
      <use xlink:href="#Georgia-3d" x="185.15625"/>
      <use xlink:href="#Georgia-31" x="249.462891"/>
      <use xlink:href="#Georgia-2e" x="292.431641"/>
      <use xlink:href="#Georgia-33" x="319.384766"/>
      <use xlink:href="#Georgia-2c" x="374.560547"/>
      <use xlink:href="#Georgia-67" x="401.513672"/>
      <use xlink:href="#Georgia-67" x="452.441406"/>
      <use xlink:href="#Georgia-62" x="503.369141"/>
     </g>
    </g>
   </g>
  </g>
 </g>
 <defs>
  <clipPath id="pce26c1fea3">
   <rect x="70.53125" y="7.2" width="606.828271" height="508.48"/>
  </clipPath>
  <clipPath id="p74188f4248">
   <rect x="750.864942" y="7.2" width="242.731308" height="508.48"/>
  </clipPath>
 </defs>
</svg>
