<?xml version="1.0" encoding="utf-8" standalone="no"?>
<!DOCTYPE svg PUBLIC "-//W3C//DTD SVG 1.1//EN"
  "http://www.w3.org/Graphics/SVG/1.1/DTD/svg11.dtd">
<svg xmlns:xlink="http://www.w3.org/1999/xlink" width="1000.79625pt" height="568.90125pt" viewBox="0 0 1000.79625 568.90125" xmlns="http://www.w3.org/2000/svg" version="1.1">
 <metadata>
  <rdf:RDF xmlns:dc="http://purl.org/dc/elements/1.1/" xmlns:cc="http://creativecommons.org/ns#" xmlns:rdf="http://www.w3.org/1999/02/22-rdf-syntax-ns#">
   <cc:Work>
    <dc:type rdf:resource="http://purl.org/dc/dcmitype/StillImage"/>
    <dc:date>2023-11-29T02:30:40.016627</dc:date>
    <dc:format>image/svg+xml</dc:format>
    <dc:creator>
     <cc:Agent>
      <dc:title>Matplotlib v3.6.2, https://matplotlib.org/</dc:title>
     </cc:Agent>
    </dc:creator>
   </cc:Work>
  </rdf:RDF>
 </metadata>
 <defs>
  <style type="text/css">*{stroke-linejoin: round; stroke-linecap: butt}</style>
 </defs>
 <g id="figure_1">
  <g id="patch_1">
   <path d="M 0 568.90125 
L 1000.79625 568.90125 
L 1000.79625 0 
L 0 0 
L 0 568.90125 
z
" style="fill: none"/>
  </g>
  <g id="axes_1">
   <g id="patch_2">
    <path d="M 70.53125 515.68 
L 677.23095 515.68 
L 677.23095 7.2 
L 70.53125 7.2 
L 70.53125 515.68 
z
" style="fill: none"/>
   </g>
   <g id="matplotlib.axis_1">
    <g id="xtick_1">
     <g id="line2d_1">
      <path d="M 98.108509 515.68 
L 98.108509 7.2 
" clip-path="url(#p30f1bc82ea)" style="fill: none; stroke: #b0b0b0; stroke-width: 0.8; stroke-linecap: square"/>
     </g>
     <g id="line2d_2">
      <defs>
       <path id="m51797cd12e" d="M 0 0 
L 0 3.5 
" style="stroke: #000000; stroke-width: 0.8"/>
      </defs>
      <g>
       <use xlink:href="#m51797cd12e" x="98.108509" y="515.68" style="stroke: #000000; stroke-width: 0.8"/>
      </g>
     </g>
     <g id="text_1">
      <!-- 0 -->
      <g transform="translate(93.198509 534.775) scale(0.16 -0.16)">
       <defs>
        <path id="Georgia-30" d="M 3209 2919 
Q 3409 2678 3507 2354 
Q 3606 2031 3606 1678 
Q 3606 1253 3484 917 
Q 3363 581 3150 359 
Q 2931 131 2631 15 
Q 2331 -100 1963 -100 
Q 1559 -100 1243 34 
Q 928 169 731 403 
Q 525 647 423 973 
Q 322 1300 322 1678 
Q 322 2050 420 2362 
Q 519 2675 728 2928 
Q 928 3172 1243 3312 
Q 1559 3453 1966 3453 
Q 2394 3453 2700 3309 
Q 3006 3166 3209 2919 
z
M 2916 1678 
Q 2916 2422 2661 2831 
Q 2406 3241 1969 3241 
Q 1525 3241 1269 2831 
Q 1013 2422 1013 1678 
Q 1013 972 1258 542 
Q 1503 113 1963 113 
Q 2422 113 2669 542 
Q 2916 972 2916 1678 
z
" transform="scale(0.015625)"/>
       </defs>
       <use xlink:href="#Georgia-30"/>
      </g>
     </g>
    </g>
    <g id="xtick_2">
     <g id="line2d_3">
      <path d="M 185.889651 515.68 
L 185.889651 7.2 
" clip-path="url(#p30f1bc82ea)" style="fill: none; stroke: #b0b0b0; stroke-width: 0.8; stroke-linecap: square"/>
     </g>
     <g id="line2d_4">
      <g>
       <use xlink:href="#m51797cd12e" x="185.889651" y="515.68" style="stroke: #000000; stroke-width: 0.8"/>
      </g>
     </g>
     <g id="text_2">
      <!-- 1 -->
      <g transform="translate(182.452151 534.775) scale(0.16 -0.16)">
       <defs>
        <path id="Georgia-31" d="M 2528 0 
L 422 0 
L 422 222 
Q 516 228 714 248 
Q 913 269 988 291 
Q 1084 322 1136 392 
Q 1188 463 1188 603 
L 1188 2797 
L 409 2797 
L 409 3059 
L 581 3059 
Q 919 3059 1186 3184 
Q 1453 3309 1569 3453 
L 1828 3453 
Q 1819 3250 1809 2978 
Q 1800 2706 1800 2491 
L 1800 638 
Q 1800 528 1848 442 
Q 1897 356 1988 316 
Q 2069 281 2253 253 
Q 2438 225 2528 222 
L 2528 0 
z
" transform="scale(0.015625)"/>
       </defs>
       <use xlink:href="#Georgia-31"/>
      </g>
     </g>
    </g>
    <g id="xtick_3">
     <g id="line2d_5">
      <path d="M 273.670793 515.68 
L 273.670793 7.2 
" clip-path="url(#p30f1bc82ea)" style="fill: none; stroke: #b0b0b0; stroke-width: 0.8; stroke-linecap: square"/>
     </g>
     <g id="line2d_6">
      <g>
       <use xlink:href="#m51797cd12e" x="273.670793" y="515.68" style="stroke: #000000; stroke-width: 0.8"/>
      </g>
     </g>
     <g id="text_3">
      <!-- 2 -->
      <g transform="translate(269.202043 534.775) scale(0.16 -0.16)">
       <defs>
        <path id="Georgia-32" d="M 3272 0 
L 344 0 
L 344 425 
Q 428 522 578 642 
Q 728 763 934 903 
Q 1059 988 1234 1088 
Q 1409 1188 1631 1306 
Q 1878 1438 2011 1538 
Q 2144 1638 2253 1784 
Q 2325 1881 2369 2026 
Q 2413 2172 2413 2441 
Q 2413 2831 2203 3014 
Q 1994 3197 1666 3197 
Q 1463 3197 1281 3117 
Q 1100 3038 1009 2897 
Q 1031 2797 1064 2659 
Q 1097 2522 1097 2391 
Q 1097 2272 998 2180 
Q 900 2088 706 2088 
Q 550 2088 465 2195 
Q 381 2303 381 2484 
Q 381 2653 475 2823 
Q 569 2994 744 3138 
Q 916 3278 1169 3365 
Q 1422 3453 1716 3453 
Q 2356 3453 2732 3167 
Q 3109 2881 3109 2403 
Q 3109 2175 3042 1987 
Q 2975 1800 2825 1656 
Q 2659 1497 2437 1383 
Q 2216 1269 1759 1066 
Q 1488 944 1253 811 
Q 1019 678 869 553 
L 3272 553 
L 3272 0 
z
" transform="scale(0.015625)"/>
       </defs>
       <use xlink:href="#Georgia-32"/>
      </g>
     </g>
    </g>
    <g id="xtick_4">
     <g id="line2d_7">
      <path d="M 361.451935 515.68 
L 361.451935 7.2 
" clip-path="url(#p30f1bc82ea)" style="fill: none; stroke: #b0b0b0; stroke-width: 0.8; stroke-linecap: square"/>
     </g>
     <g id="line2d_8">
      <g>
       <use xlink:href="#m51797cd12e" x="361.451935" y="515.68" style="stroke: #000000; stroke-width: 0.8"/>
      </g>
     </g>
     <g id="text_4">
      <!-- 3 -->
      <g transform="translate(357.038185 534.775) scale(0.16 -0.16)">
       <defs>
        <path id="Georgia-33" d="M 1522 -1141 
Q 1228 -1141 984 -1067 
Q 741 -994 566 -869 
Q 391 -744 295 -581 
Q 200 -419 200 -247 
Q 200 -94 275 29 
Q 350 153 516 153 
Q 703 153 801 61 
Q 900 -31 900 -150 
Q 900 -250 867 -403 
Q 834 -556 816 -622 
Q 838 -650 895 -697 
Q 953 -744 1038 -781 
Q 1138 -828 1247 -856 
Q 1356 -884 1556 -884 
Q 1744 -884 1917 -821 
Q 2091 -759 2222 -622 
Q 2359 -478 2436 -286 
Q 2513 -94 2513 219 
Q 2513 388 2477 553 
Q 2441 719 2344 841 
Q 2247 963 2080 1030 
Q 1913 1097 1656 1097 
L 1247 1097 
L 1247 1456 
L 1519 1456 
Q 1950 1456 2140 1693 
Q 2331 1931 2331 2409 
Q 2331 2800 2147 2998 
Q 1963 3197 1625 3197 
Q 1463 3197 1358 3158 
Q 1253 3119 1188 3081 
Q 1109 3038 1059 2984 
Q 1009 2931 984 2906 
Q 1006 2806 1037 2661 
Q 1069 2516 1069 2384 
Q 1069 2269 970 2176 
Q 872 2084 681 2084 
Q 516 2084 439 2203 
Q 363 2322 363 2478 
Q 363 2641 453 2809 
Q 544 2978 722 3125 
Q 900 3272 1156 3362 
Q 1413 3453 1747 3453 
Q 2131 3453 2382 3339 
Q 2634 3225 2778 3063 
Q 2919 2903 2972 2728 
Q 3025 2553 3025 2428 
Q 3025 2272 2981 2114 
Q 2938 1956 2838 1822 
Q 2728 1675 2548 1554 
Q 2369 1434 2097 1359 
L 2097 1309 
Q 2272 1294 2470 1231 
Q 2669 1169 2828 1047 
Q 2994 919 3100 717 
Q 3206 516 3206 206 
Q 3206 -394 2725 -767 
Q 2244 -1141 1522 -1141 
z
" transform="scale(0.015625)"/>
       </defs>
       <use xlink:href="#Georgia-33"/>
      </g>
     </g>
    </g>
    <g id="xtick_5">
     <g id="line2d_9">
      <path d="M 449.233077 515.68 
L 449.233077 7.2 
" clip-path="url(#p30f1bc82ea)" style="fill: none; stroke: #b0b0b0; stroke-width: 0.8; stroke-linecap: square"/>
     </g>
     <g id="line2d_10">
      <g>
       <use xlink:href="#m51797cd12e" x="449.233077" y="515.68" style="stroke: #000000; stroke-width: 0.8"/>
      </g>
     </g>
     <g id="text_5">
      <!-- 4 -->
      <g transform="translate(444.713077 534.775) scale(0.16 -0.16)">
       <defs>
        <path id="Georgia-34" d="M 3388 281 
L 2753 281 
L 2753 -1141 
L 2153 -1141 
L 2153 281 
L 153 281 
L 153 763 
L 2344 3434 
L 2753 3434 
L 2753 691 
L 3388 691 
L 3388 281 
z
M 2153 691 
L 2153 2738 
L 466 691 
L 2153 691 
z
" transform="scale(0.015625)"/>
       </defs>
       <use xlink:href="#Georgia-34"/>
      </g>
     </g>
    </g>
    <g id="xtick_6">
     <g id="line2d_11">
      <path d="M 537.014219 515.68 
L 537.014219 7.2 
" clip-path="url(#p30f1bc82ea)" style="fill: none; stroke: #b0b0b0; stroke-width: 0.8; stroke-linecap: square"/>
     </g>
     <g id="line2d_12">
      <g>
       <use xlink:href="#m51797cd12e" x="537.014219" y="515.68" style="stroke: #000000; stroke-width: 0.8"/>
      </g>
     </g>
     <g id="text_6">
      <!-- 5 -->
      <g transform="translate(532.787969 534.775) scale(0.16 -0.16)">
       <defs>
        <path id="Georgia-35" d="M 2634 1466 
Q 2841 1303 2977 1047 
Q 3113 791 3113 406 
Q 3113 -266 2653 -703 
Q 2194 -1141 1488 -1141 
Q 941 -1141 562 -881 
Q 184 -622 184 -278 
Q 184 -119 262 0 
Q 341 119 503 119 
Q 691 119 789 20 
Q 888 -78 888 -194 
Q 888 -294 853 -444 
Q 819 -594 800 -666 
Q 825 -688 881 -725 
Q 938 -763 1016 -797 
Q 1097 -831 1214 -857 
Q 1331 -884 1488 -884 
Q 1688 -884 1866 -803 
Q 2044 -722 2166 -563 
Q 2300 -388 2367 -164 
Q 2434 59 2434 403 
Q 2434 844 2189 1133 
Q 1944 1422 1544 1422 
Q 1294 1422 1076 1328 
Q 859 1234 688 1016 
L 478 1097 
L 744 3353 
L 2981 3353 
L 2981 2797 
L 997 2797 
L 834 1472 
Q 975 1572 1204 1670 
Q 1434 1769 1709 1769 
Q 1938 1769 2183 1698 
Q 2428 1628 2634 1466 
z
" transform="scale(0.015625)"/>
       </defs>
       <use xlink:href="#Georgia-35"/>
      </g>
     </g>
    </g>
    <g id="xtick_7">
     <g id="line2d_13">
      <path d="M 624.795361 515.68 
L 624.795361 7.2 
" clip-path="url(#p30f1bc82ea)" style="fill: none; stroke: #b0b0b0; stroke-width: 0.8; stroke-linecap: square"/>
     </g>
     <g id="line2d_14">
      <g>
       <use xlink:href="#m51797cd12e" x="624.795361" y="515.68" style="stroke: #000000; stroke-width: 0.8"/>
      </g>
     </g>
     <g id="text_7">
      <!-- 6 -->
      <g transform="translate(620.267861 534.775) scale(0.16 -0.16)">
       <defs>
        <path id="Georgia-36" d="M 3359 1441 
Q 3359 1116 3242 831 
Q 3125 547 2928 347 
Q 2700 119 2423 9 
Q 2147 -100 1847 -100 
Q 1500 -100 1219 28 
Q 938 156 741 391 
Q 541 628 431 972 
Q 322 1316 322 1744 
Q 322 2859 986 3625 
Q 1650 4391 2766 4544 
L 2822 4263 
L 2541 4213 
Q 1863 3994 1492 3531 
Q 1122 3069 1013 2409 
Q 1281 2644 1543 2741 
Q 1806 2838 2097 2838 
Q 2619 2838 2989 2438 
Q 3359 2038 3359 1441 
z
M 2681 1356 
Q 2681 1863 2448 2169 
Q 2216 2475 1825 2475 
Q 1591 2475 1389 2387 
Q 1188 2300 1000 2094 
Q 997 2056 990 1920 
Q 984 1784 984 1706 
Q 984 975 1223 561 
Q 1463 147 1853 147 
Q 2225 147 2453 470 
Q 2681 794 2681 1356 
z
" transform="scale(0.015625)"/>
       </defs>
       <use xlink:href="#Georgia-36"/>
      </g>
     </g>
    </g>
    <g id="text_8">
     <!-- $x$ -->
     <g transform="translate(367.8811 557.36375) scale(0.2 -0.2)">
      <defs>
       <path id="DejaVuSans-Oblique-78" d="M 3841 3500 
L 2234 1784 
L 3219 0 
L 2559 0 
L 1819 1388 
L 531 0 
L -166 0 
L 1556 1844 
L 641 3500 
L 1300 3500 
L 1972 2234 
L 3144 3500 
L 3841 3500 
z
" transform="scale(0.015625)"/>
      </defs>
      <use xlink:href="#DejaVuSans-Oblique-78" transform="translate(0 0.3125)"/>
     </g>
    </g>
   </g>
   <g id="matplotlib.axis_2">
    <g id="ytick_1">
     <g id="line2d_15">
      <path d="M 70.53125 479.143987 
L 677.23095 479.143987 
" clip-path="url(#p30f1bc82ea)" style="fill: none; stroke: #b0b0b0; stroke-width: 0.8; stroke-linecap: square"/>
     </g>
     <g id="line2d_16">
      <defs>
       <path id="mb4e49a09e4" d="M 0 0 
L -3.5 0 
" style="stroke: #000000; stroke-width: 0.8"/>
      </defs>
      <g>
       <use xlink:href="#mb4e49a09e4" x="70.53125" y="479.143987" style="stroke: #000000; stroke-width: 0.8"/>
      </g>
     </g>
     <g id="text_9">
      <!-- −1.5 -->
      <g transform="translate(33.60125 485.191487) scale(0.16 -0.16)">
       <defs>
        <path id="Georgia-2212" d="M 3650 1553 
L 466 1553 
L 466 1944 
L 3650 1944 
L 3650 1553 
z
" transform="scale(0.015625)"/>
        <path id="Georgia-2e" d="M 1297 359 
Q 1297 184 1170 60 
Q 1044 -63 869 -63 
Q 694 -63 567 60 
Q 441 184 441 359 
Q 441 534 567 661 
Q 694 788 869 788 
Q 1044 788 1170 661 
Q 1297 534 1297 359 
z
" transform="scale(0.015625)"/>
       </defs>
       <use xlink:href="#Georgia-2212"/>
       <use xlink:href="#Georgia-31" x="64.306641"/>
       <use xlink:href="#Georgia-2e" x="107.275391"/>
       <use xlink:href="#Georgia-35" x="134.228516"/>
      </g>
     </g>
    </g>
    <g id="ytick_2">
     <g id="line2d_17">
      <path d="M 70.53125 407.558361 
L 677.23095 407.558361 
" clip-path="url(#p30f1bc82ea)" style="fill: none; stroke: #b0b0b0; stroke-width: 0.8; stroke-linecap: square"/>
     </g>
     <g id="line2d_18">
      <g>
       <use xlink:href="#mb4e49a09e4" x="70.53125" y="407.558361" style="stroke: #000000; stroke-width: 0.8"/>
      </g>
     </g>
     <g id="text_10">
      <!-- −1.0 -->
      <g transform="translate(32.23375 413.605861) scale(0.16 -0.16)">
       <use xlink:href="#Georgia-2212"/>
       <use xlink:href="#Georgia-31" x="64.306641"/>
       <use xlink:href="#Georgia-2e" x="107.275391"/>
       <use xlink:href="#Georgia-30" x="134.228516"/>
      </g>
     </g>
    </g>
    <g id="ytick_3">
     <g id="line2d_19">
      <path d="M 70.53125 335.972736 
L 677.23095 335.972736 
" clip-path="url(#p30f1bc82ea)" style="fill: none; stroke: #b0b0b0; stroke-width: 0.8; stroke-linecap: square"/>
     </g>
     <g id="line2d_20">
      <g>
       <use xlink:href="#mb4e49a09e4" x="70.53125" y="335.972736" style="stroke: #000000; stroke-width: 0.8"/>
      </g>
     </g>
     <g id="text_11">
      <!-- −0.5 -->
      <g transform="translate(30.65625 342.020236) scale(0.16 -0.16)">
       <use xlink:href="#Georgia-2212"/>
       <use xlink:href="#Georgia-30" x="64.306641"/>
       <use xlink:href="#Georgia-2e" x="125.683594"/>
       <use xlink:href="#Georgia-35" x="152.636719"/>
      </g>
     </g>
    </g>
    <g id="ytick_4">
     <g id="line2d_21">
      <path d="M 70.53125 264.38711 
L 677.23095 264.38711 
" clip-path="url(#p30f1bc82ea)" style="fill: none; stroke: #b0b0b0; stroke-width: 0.8; stroke-linecap: square"/>
     </g>
     <g id="line2d_22">
      <g>
       <use xlink:href="#mb4e49a09e4" x="70.53125" y="264.38711" style="stroke: #000000; stroke-width: 0.8"/>
      </g>
     </g>
     <g id="text_12">
      <!-- 0.0 -->
      <g transform="translate(39.57875 270.43461) scale(0.16 -0.16)">
       <use xlink:href="#Georgia-30"/>
       <use xlink:href="#Georgia-2e" x="61.376953"/>
       <use xlink:href="#Georgia-30" x="88.330078"/>
      </g>
     </g>
    </g>
    <g id="ytick_5">
     <g id="line2d_23">
      <path d="M 70.53125 192.801485 
L 677.23095 192.801485 
" clip-path="url(#p30f1bc82ea)" style="fill: none; stroke: #b0b0b0; stroke-width: 0.8; stroke-linecap: square"/>
     </g>
     <g id="line2d_24">
      <g>
       <use xlink:href="#mb4e49a09e4" x="70.53125" y="192.801485" style="stroke: #000000; stroke-width: 0.8"/>
      </g>
     </g>
     <g id="text_13">
      <!-- 0.5 -->
      <g transform="translate(40.94625 198.848985) scale(0.16 -0.16)">
       <use xlink:href="#Georgia-30"/>
       <use xlink:href="#Georgia-2e" x="61.376953"/>
       <use xlink:href="#Georgia-35" x="88.330078"/>
      </g>
     </g>
    </g>
    <g id="ytick_6">
     <g id="line2d_25">
      <path d="M 70.53125 121.215859 
L 677.23095 121.215859 
" clip-path="url(#p30f1bc82ea)" style="fill: none; stroke: #b0b0b0; stroke-width: 0.8; stroke-linecap: square"/>
     </g>
     <g id="line2d_26">
      <g>
       <use xlink:href="#mb4e49a09e4" x="70.53125" y="121.215859" style="stroke: #000000; stroke-width: 0.8"/>
      </g>
     </g>
     <g id="text_14">
      <!-- 1.0 -->
      <g transform="translate(42.52375 127.263359) scale(0.16 -0.16)">
       <use xlink:href="#Georgia-31"/>
       <use xlink:href="#Georgia-2e" x="42.96875"/>
       <use xlink:href="#Georgia-30" x="69.921875"/>
      </g>
     </g>
    </g>
    <g id="ytick_7">
     <g id="line2d_27">
      <path d="M 70.53125 49.630233 
L 677.23095 49.630233 
" clip-path="url(#p30f1bc82ea)" style="fill: none; stroke: #b0b0b0; stroke-width: 0.8; stroke-linecap: square"/>
     </g>
     <g id="line2d_28">
      <g>
       <use xlink:href="#mb4e49a09e4" x="70.53125" y="49.630233" style="stroke: #000000; stroke-width: 0.8"/>
      </g>
     </g>
     <g id="text_15">
      <!-- 1.5 -->
      <g transform="translate(43.89125 55.677733) scale(0.16 -0.16)">
       <use xlink:href="#Georgia-31"/>
       <use xlink:href="#Georgia-2e" x="42.96875"/>
       <use xlink:href="#Georgia-35" x="69.921875"/>
      </g>
     </g>
    </g>
    <g id="text_16">
     <!-- $y$ -->
     <g transform="translate(22.31875 267.44) rotate(-90) scale(0.2 -0.2)">
      <defs>
       <path id="DejaVuSans-Oblique-79" d="M 1588 -325 
Q 1188 -997 936 -1164 
Q 684 -1331 294 -1331 
L -159 -1331 
L -63 -850 
L 269 -850 
Q 509 -850 678 -719 
Q 847 -588 1056 -206 
L 1234 128 
L 459 3500 
L 1069 3500 
L 1650 819 
L 3256 3500 
L 3859 3500 
L 1588 -325 
z
" transform="scale(0.015625)"/>
      </defs>
      <use xlink:href="#DejaVuSans-Oblique-79" transform="translate(0 0.3125)"/>
     </g>
    </g>
   </g>
   <g id="line2d_29">
    <path d="M 98.108509 264.38711 
L 115.775622 235.766148 
L 125.713373 220.101943 
L 133.994832 207.473238 
L 141.172097 196.933878 
L 147.797264 187.603703 
L 153.870334 179.433834 
L 159.391307 172.358404 
L 164.91228 165.646896 
L 169.881155 159.939661 
L 174.850031 154.567001 
L 179.818906 149.546129 
L 184.235685 145.391487 
L 188.652463 141.53804 
L 193.069241 137.995542 
L 196.933922 135.158 
L 200.798603 132.570905 
L 204.663284 130.23927 
L 208.527965 128.167614 
L 212.392646 126.359952 
L 216.257327 124.819788 
L 220.122008 123.550105 
L 223.434591 122.678967 
L 226.747175 122.009607 
L 230.059759 121.542978 
L 233.372342 121.279746 
L 236.684926 121.220284 
L 239.99751 121.364677 
L 243.310093 121.71272 
L 246.622677 122.263917 
L 249.935261 123.017484 
L 253.247844 123.972347 
L 257.112525 125.33894 
L 260.977206 126.975009 
L 264.841887 128.877384 
L 268.706568 131.042376 
L 272.571249 133.465792 
L 276.43593 136.142933 
L 280.300611 139.068612 
L 284.717389 142.709283 
L 289.134167 146.657937 
L 293.550946 150.904581 
L 297.967724 155.438466 
L 302.936599 160.868113 
L 307.905475 166.629362 
L 313.426448 173.397186 
L 318.947421 180.524825 
L 325.020491 188.747134 
L 331.645658 198.128268 
L 338.822923 208.715151 
L 346.552284 220.530317 
L 355.385841 234.443998 
L 366.979884 253.142802 
L 394.584748 297.842609 
L 403.970401 312.507432 
L 411.699763 324.178891 
L 418.877028 334.603722 
L 425.502195 343.81177 
L 431.575265 351.856462 
L 437.096238 358.80763 
L 442.617211 365.385418 
L 447.586086 370.964655 
L 452.554962 376.202493 
L 456.97174 380.558151 
L 461.388518 384.619764 
L 465.805297 388.377051 
L 470.222075 391.820501 
L 474.086756 394.569204 
L 477.951437 397.065613 
L 481.816118 399.304891 
L 485.680799 401.282698 
L 489.54548 402.9952 
L 493.410161 404.43908 
L 497.274842 405.611538 
L 500.587425 406.398736 
L 503.900009 406.983724 
L 507.212593 407.365669 
L 510.525176 407.544026 
L 513.83776 407.518542 
L 517.150344 407.289253 
L 520.462927 406.856485 
L 523.775511 406.220855 
L 527.088095 405.383268 
L 530.400678 404.344917 
L 534.265359 402.881751 
L 538.13004 401.150182 
L 541.994721 399.153565 
L 545.859402 396.895771 
L 549.724083 394.381174 
L 553.588764 391.614648 
L 557.453445 388.601555 
L 561.870223 384.863613 
L 566.287001 380.820727 
L 570.70378 376.483131 
L 575.672655 371.264762 
L 580.641531 365.704033 
L 585.610406 359.818754 
L 591.131379 352.921876 
L 596.652352 345.674891 
L 602.725422 337.333077 
L 609.350589 327.836294 
L 616.527854 317.142193 
L 624.809313 304.369527 
L 634.194967 289.470204 
L 647.997399 267.088366 
L 649.65369 264.38711 
L 649.65369 264.38711 
" clip-path="url(#p30f1bc82ea)" style="fill: none; stroke: #000000; stroke-linecap: square"/>
   </g>
   <g id="line2d_30">
    <defs>
     <path id="m63ae3ea230" d="M 0 0.4 
C 0.106081 0.4 0.207832 0.357853 0.282843 0.282843 
C 0.357853 0.207832 0.4 0.106081 0.4 0 
C 0.4 -0.106081 0.357853 -0.207832 0.282843 -0.282843 
C 0.207832 -0.357853 0.106081 -0.4 0 -0.4 
C -0.106081 -0.4 -0.207832 -0.357853 -0.282843 -0.282843 
C -0.357853 -0.207832 -0.4 -0.106081 -0.4 0 
C -0.4 0.106081 -0.357853 0.207832 -0.282843 0.282843 
C -0.207832 0.357853 -0.106081 0.4 0 0.4 
z
" style="stroke: #000000"/>
    </defs>
    <g clip-path="url(#p30f1bc82ea)">
     <use xlink:href="#m63ae3ea230" x="98.108509" y="264.38711" style="stroke: #000000"/>
     <use xlink:href="#m63ae3ea230" x="103.679673" y="258.857989" style="stroke: #000000"/>
     <use xlink:href="#m63ae3ea230" x="109.250836" y="254.853177" style="stroke: #000000"/>
     <use xlink:href="#m63ae3ea230" x="114.821999" y="250.909643" style="stroke: #000000"/>
     <use xlink:href="#m63ae3ea230" x="120.393163" y="246.982834" style="stroke: #000000"/>
     <use xlink:href="#m63ae3ea230" x="125.964326" y="243.065912" style="stroke: #000000"/>
     <use xlink:href="#m63ae3ea230" x="131.53549" y="239.158128" style="stroke: #000000"/>
     <use xlink:href="#m63ae3ea230" x="137.106653" y="235.260122" style="stroke: #000000"/>
     <use xlink:href="#m63ae3ea230" x="142.677817" y="231.372928" style="stroke: #000000"/>
     <use xlink:href="#m63ae3ea230" x="148.24898" y="227.497726" style="stroke: #000000"/>
     <use xlink:href="#m63ae3ea230" x="153.820144" y="223.635779" style="stroke: #000000"/>
     <use xlink:href="#m63ae3ea230" x="159.391307" y="219.78841" style="stroke: #000000"/>
     <use xlink:href="#m63ae3ea230" x="164.96247" y="215.957009" style="stroke: #000000"/>
     <use xlink:href="#m63ae3ea230" x="170.533634" y="212.143033" style="stroke: #000000"/>
     <use xlink:href="#m63ae3ea230" x="176.104797" y="208.348017" style="stroke: #000000"/>
     <use xlink:href="#m63ae3ea230" x="181.675961" y="204.573584" style="stroke: #000000"/>
     <use xlink:href="#m63ae3ea230" x="187.247124" y="200.821453" style="stroke: #000000"/>
     <use xlink:href="#m63ae3ea230" x="192.818288" y="197.093451" style="stroke: #000000"/>
     <use xlink:href="#m63ae3ea230" x="198.389451" y="193.391531" style="stroke: #000000"/>
     <use xlink:href="#m63ae3ea230" x="203.960615" y="189.717783" style="stroke: #000000"/>
     <use xlink:href="#m63ae3ea230" x="209.531778" y="186.074453" style="stroke: #000000"/>
     <use xlink:href="#m63ae3ea230" x="215.102941" y="182.463966" style="stroke: #000000"/>
     <use xlink:href="#m63ae3ea230" x="220.674105" y="178.888947" style="stroke: #000000"/>
     <use xlink:href="#m63ae3ea230" x="226.245268" y="175.352249" style="stroke: #000000"/>
     <use xlink:href="#m63ae3ea230" x="231.816432" y="171.856989" style="stroke: #000000"/>
     <use xlink:href="#m63ae3ea230" x="237.387595" y="168.406582" style="stroke: #000000"/>
     <use xlink:href="#m63ae3ea230" x="242.958759" y="165.004788" style="stroke: #000000"/>
     <use xlink:href="#m63ae3ea230" x="248.529922" y="161.655767" style="stroke: #000000"/>
     <use xlink:href="#m63ae3ea230" x="254.101086" y="158.364143" style="stroke: #000000"/>
     <use xlink:href="#m63ae3ea230" x="259.672249" y="155.135086" style="stroke: #000000"/>
     <use xlink:href="#m63ae3ea230" x="265.243413" y="151.974403" style="stroke: #000000"/>
     <use xlink:href="#m63ae3ea230" x="270.814576" y="148.888663" style="stroke: #000000"/>
     <use xlink:href="#m63ae3ea230" x="276.385739" y="145.885343" style="stroke: #000000"/>
     <use xlink:href="#m63ae3ea230" x="281.956903" y="142.973015" style="stroke: #000000"/>
     <use xlink:href="#m63ae3ea230" x="287.528066" y="140.16159" style="stroke: #000000"/>
     <use xlink:href="#m63ae3ea230" x="293.09923" y="137.462619" style="stroke: #000000"/>
     <use xlink:href="#m63ae3ea230" x="298.670393" y="134.88971" style="stroke: #000000"/>
     <use xlink:href="#m63ae3ea230" x="304.241557" y="132.459067" style="stroke: #000000"/>
     <use xlink:href="#m63ae3ea230" x="309.81272" y="130.190233" style="stroke: #000000"/>
     <use xlink:href="#m63ae3ea230" x="315.383884" y="128.107129" style="stroke: #000000"/>
     <use xlink:href="#m63ae3ea230" x="320.955047" y="126.239534" style="stroke: #000000"/>
     <use xlink:href="#m63ae3ea230" x="326.52621" y="124.625288" style="stroke: #000000"/>
     <use xlink:href="#m63ae3ea230" x="332.097374" y="123.313648" style="stroke: #000000"/>
     <use xlink:href="#m63ae3ea230" x="337.668537" y="122.370698" style="stroke: #000000"/>
     <use xlink:href="#m63ae3ea230" x="343.239701" y="121.888516" style="stroke: #000000"/>
     <use xlink:href="#m63ae3ea230" x="348.810864" y="122.001933" style="stroke: #000000"/>
     <use xlink:href="#m63ae3ea230" x="354.382028" y="122.922237" style="stroke: #000000"/>
     <use xlink:href="#m63ae3ea230" x="359.953191" y="125.014871" style="stroke: #000000"/>
     <use xlink:href="#m63ae3ea230" x="365.524355" y="129.018866" style="stroke: #000000"/>
     <use xlink:href="#m63ae3ea230" x="371.095518" y="136.903114" style="stroke: #000000"/>
     <use xlink:href="#m63ae3ea230" x="376.666681" y="391.871107" style="stroke: #000000"/>
     <use xlink:href="#m63ae3ea230" x="382.237845" y="399.755354" style="stroke: #000000"/>
     <use xlink:href="#m63ae3ea230" x="387.809008" y="403.759349" style="stroke: #000000"/>
     <use xlink:href="#m63ae3ea230" x="393.380172" y="405.851983" style="stroke: #000000"/>
     <use xlink:href="#m63ae3ea230" x="398.951335" y="406.772287" style="stroke: #000000"/>
     <use xlink:href="#m63ae3ea230" x="404.522499" y="406.885704" style="stroke: #000000"/>
     <use xlink:href="#m63ae3ea230" x="410.093662" y="406.403523" style="stroke: #000000"/>
     <use xlink:href="#m63ae3ea230" x="415.664826" y="405.460572" style="stroke: #000000"/>
     <use xlink:href="#m63ae3ea230" x="421.235989" y="404.148932" style="stroke: #000000"/>
     <use xlink:href="#m63ae3ea230" x="426.807153" y="402.534686" style="stroke: #000000"/>
     <use xlink:href="#m63ae3ea230" x="432.378316" y="400.667092" style="stroke: #000000"/>
     <use xlink:href="#m63ae3ea230" x="437.949479" y="398.583987" style="stroke: #000000"/>
     <use xlink:href="#m63ae3ea230" x="443.520643" y="396.315153" style="stroke: #000000"/>
     <use xlink:href="#m63ae3ea230" x="449.091806" y="393.88451" style="stroke: #000000"/>
     <use xlink:href="#m63ae3ea230" x="454.66297" y="391.311601" style="stroke: #000000"/>
     <use xlink:href="#m63ae3ea230" x="460.234133" y="388.612631" style="stroke: #000000"/>
     <use xlink:href="#m63ae3ea230" x="465.805297" y="385.801205" style="stroke: #000000"/>
     <use xlink:href="#m63ae3ea230" x="471.37646" y="382.888878" style="stroke: #000000"/>
     <use xlink:href="#m63ae3ea230" x="476.947624" y="379.885557" style="stroke: #000000"/>
     <use xlink:href="#m63ae3ea230" x="482.518787" y="376.799817" style="stroke: #000000"/>
     <use xlink:href="#m63ae3ea230" x="488.08995" y="373.639134" style="stroke: #000000"/>
     <use xlink:href="#m63ae3ea230" x="493.661114" y="370.410077" style="stroke: #000000"/>
     <use xlink:href="#m63ae3ea230" x="499.232277" y="367.118453" style="stroke: #000000"/>
     <use xlink:href="#m63ae3ea230" x="504.803441" y="363.769432" style="stroke: #000000"/>
     <use xlink:href="#m63ae3ea230" x="510.374604" y="360.367638" style="stroke: #000000"/>
     <use xlink:href="#m63ae3ea230" x="515.945768" y="356.917231" style="stroke: #000000"/>
     <use xlink:href="#m63ae3ea230" x="521.516931" y="353.421971" style="stroke: #000000"/>
     <use xlink:href="#m63ae3ea230" x="527.088095" y="349.885274" style="stroke: #000000"/>
     <use xlink:href="#m63ae3ea230" x="532.659258" y="346.310254" style="stroke: #000000"/>
     <use xlink:href="#m63ae3ea230" x="538.230421" y="342.699767" style="stroke: #000000"/>
     <use xlink:href="#m63ae3ea230" x="543.801585" y="339.056438" style="stroke: #000000"/>
     <use xlink:href="#m63ae3ea230" x="549.372748" y="335.382689" style="stroke: #000000"/>
     <use xlink:href="#m63ae3ea230" x="554.943912" y="331.680769" style="stroke: #000000"/>
     <use xlink:href="#m63ae3ea230" x="560.515075" y="327.952768" style="stroke: #000000"/>
     <use xlink:href="#m63ae3ea230" x="566.086239" y="324.200636" style="stroke: #000000"/>
     <use xlink:href="#m63ae3ea230" x="571.657402" y="320.426203" style="stroke: #000000"/>
     <use xlink:href="#m63ae3ea230" x="577.228566" y="316.631187" style="stroke: #000000"/>
     <use xlink:href="#m63ae3ea230" x="582.799729" y="312.817211" style="stroke: #000000"/>
     <use xlink:href="#m63ae3ea230" x="588.370893" y="308.98581" style="stroke: #000000"/>
     <use xlink:href="#m63ae3ea230" x="593.942056" y="305.138441" style="stroke: #000000"/>
     <use xlink:href="#m63ae3ea230" x="599.513219" y="301.276494" style="stroke: #000000"/>
     <use xlink:href="#m63ae3ea230" x="605.084383" y="297.401293" style="stroke: #000000"/>
     <use xlink:href="#m63ae3ea230" x="610.655546" y="293.514098" style="stroke: #000000"/>
     <use xlink:href="#m63ae3ea230" x="616.22671" y="289.616092" style="stroke: #000000"/>
     <use xlink:href="#m63ae3ea230" x="621.797873" y="285.708308" style="stroke: #000000"/>
     <use xlink:href="#m63ae3ea230" x="627.369037" y="281.791387" style="stroke: #000000"/>
     <use xlink:href="#m63ae3ea230" x="632.9402" y="277.864578" style="stroke: #000000"/>
     <use xlink:href="#m63ae3ea230" x="638.511364" y="273.921044" style="stroke: #000000"/>
     <use xlink:href="#m63ae3ea230" x="644.082527" y="269.916232" style="stroke: #000000"/>
     <use xlink:href="#m63ae3ea230" x="649.65369" y="264.38711" style="stroke: #000000"/>
    </g>
   </g>
   <g id="line2d_31">
    <path d="M 98.108509 264.390362 
L 103.679673 267.529655 
L 109.250836 257.991179 
L 114.821999 255.991405 
L 120.393163 260.981966 
L 125.964326 250.461727 
L 131.53549 237.624376 
L 137.106653 240.278812 
L 142.677817 237.637866 
L 148.24898 224.20763 
L 153.820144 223.703098 
L 159.391307 227.780264 
L 164.96247 216.43354 
L 170.533634 208.650384 
L 176.104797 213.988678 
L 181.675961 208.452844 
L 187.247124 196.244953 
L 192.818288 199.167339 
L 198.389451 200.379327 
L 203.960615 187.119096 
L 209.531778 183.737439 
L 215.102941 189.562614 
L 220.674105 180.260931 
L 226.245268 170.306057 
L 231.816432 176.294215 
L 237.387595 173.955595 
L 242.958759 160.09237 
L 248.529922 161.501804 
L 254.101086 166.238899 
L 259.672249 153.463425 
L 265.243413 147.399647 
L 270.814576 155.829351 
L 276.385739 149.199885 
L 281.956903 136.330892 
L 287.528066 142.977988 
L 293.09923 145.173448 
L 298.670393 129.819469 
L 304.241557 129.720067 
L 309.81272 139.435852 
L 315.383884 127.214252 
L 320.955047 118.187158 
L 326.52621 132.333989 
L 332.097374 129.552686 
L 337.668537 110.881409 
L 343.239701 121.80996 
L 348.810864 134.955974 
L 354.382028 112.564629 
L 359.953191 110.818222 
L 365.524355 147.883497 
L 371.095518 128.375228 
L 376.666681 400.461557 
L 382.237845 380.641775 
L 387.809008 417.753837 
L 393.380172 416.573131 
L 398.951335 394.272451 
L 404.522499 406.565593 
L 410.093662 417.085403 
L 415.664826 399.442989 
L 421.235989 397.534053 
L 426.807153 410.826656 
L 432.378316 400.617862 
L 437.949479 388.75007 
L 443.520643 399.460359 
L 449.091806 399.358595 
L 454.66297 383.459039 
L 460.234133 385.641932 
L 465.805297 392.528834 
L 471.37646 379.608426 
L 476.947624 372.890663 
L 482.518787 381.39002 
L 488.08995 375.334566 
L 493.661114 362.506283 
L 499.232277 367.273431 
L 504.803441 368.705694 
L 510.374604 354.803045 
L 515.945768 352.46927 
L 521.516931 358.487477 
L 527.088095 348.510855 
L 532.659258 339.196993 
L 538.230421 345.047674 
L 543.801585 341.660801 
L 549.372748 328.382038 
L 554.943912 329.610053 
L 560.515075 332.538508 
L 566.086239 320.31271 
L 571.657402 314.782888 
L 577.228566 320.133304 
L 582.799729 312.336963 
L 588.370893 300.987848 
L 593.942056 305.078559 
L 599.513219 304.567275 
L 605.084383 291.129023 
L 610.655546 288.499764 
L 616.22671 291.153894 
L 621.797873 278.305762 
L 627.369037 267.793216 
L 632.9402 272.788761 
L 638.511364 270.777861 
L 644.082527 261.242052 
L 649.65369 264.390362 
" clip-path="url(#p30f1bc82ea)" style="fill: none; stroke: #a80000; stroke-width: 3; stroke-linecap: square"/>
   </g>
   <g id="line2d_32">
    <path d="M 99.185746 424.114955 
L 101.340219 347.322053 
L 103.494692 302.562622 
L 105.649166 277.801855 
L 107.803639 265.011464 
L 109.958113 258.979888 
L 112.112586 256.439033 
L 114.267059 255.431999 
L 118.576006 254.178981 
L 120.730479 253.159623 
L 122.884953 251.767501 
L 125.039426 250.058436 
L 129.348373 246.059087 
L 135.811793 239.794118 
L 140.12074 235.931334 
L 144.429686 232.39094 
L 150.893107 227.517055 
L 161.665473 219.875322 
L 181.055734 206.415785 
L 198.291521 194.745084 
L 213.372834 184.780218 
L 228.454148 175.084563 
L 241.380988 167.032128 
L 254.307828 159.266339 
L 265.080195 153.05522 
L 275.852562 147.125527 
L 284.470455 142.619478 
L 293.088349 138.360696 
L 301.706242 134.391451 
L 308.169662 131.636038 
L 314.633082 129.101271 
L 321.096502 126.824073 
L 327.559922 124.851611 
L 331.868869 123.729303 
L 336.177816 122.773777 
L 340.486763 122.007684 
L 344.795709 121.54127 
L 346.950183 121.531893 
L 349.104656 121.814565 
L 351.259129 122.599004 
L 353.413603 124.236235 
L 355.568076 127.295767 
L 357.72255 132.67747 
L 359.877023 141.771155 
L 362.031496 156.681002 
L 364.18597 180.537171 
L 366.340443 217.923494 
L 368.494916 275.458325 
L 370.64939 362.575793 
L 372.803863 492.567273 
L 374.958336 30.312727 
L 377.11281 163.403781 
L 379.267283 252.271188 
L 381.421757 310.71791 
L 383.57623 348.517403 
L 385.730703 372.507079 
L 387.885177 387.407432 
L 390.03965 396.4301 
L 392.194123 401.72479 
L 394.348597 404.704227 
L 396.50307 406.277631 
L 398.657543 407.016274 
L 400.812017 407.269144 
L 402.96649 407.242443 
L 407.275437 406.764479 
L 411.584384 405.999786 
L 415.89333 405.047015 
L 420.202277 403.925323 
L 426.665697 401.950883 
L 433.129117 399.671755 
L 439.592537 397.136644 
L 446.055957 394.381842 
L 454.673851 390.413379 
L 463.291744 386.154809 
L 471.909638 381.648735 
L 482.682005 375.719024 
L 493.454372 369.507895 
L 504.226738 363.057704 
L 517.153579 355.04955 
L 530.080419 346.793995 
L 545.161732 336.90077 
L 562.397519 325.304135 
L 579.633306 313.414569 
L 596.869093 301.257197 
L 603.332513 296.382994 
L 607.64146 292.842624 
L 611.950407 288.98105 
L 622.722773 278.704298 
L 624.877247 276.964793 
L 627.03172 275.506957 
L 629.186193 274.358305 
L 633.49514 272.445989 
L 635.649614 270.725359 
L 637.804087 267.01005 
L 639.95856 259.094619 
L 642.113034 243.348603 
L 644.267507 214.039526 
L 646.42198 162.399795 
L 648.576454 75.357468 
L 648.576454 75.357468 
" clip-path="url(#p30f1bc82ea)" style="fill: none; stroke: #1f77b4; stroke-width: 3; stroke-linecap: square"/>
   </g>
   <g id="patch_3">
    <path d="M 70.53125 515.68 
L 70.53125 7.2 
" style="fill: none; stroke: #000000; stroke-width: 1.5; stroke-linejoin: miter; stroke-linecap: square"/>
   </g>
   <g id="patch_4">
    <path d="M 677.23095 515.68 
L 677.23095 7.2 
" style="fill: none; stroke: #000000; stroke-width: 1.5; stroke-linejoin: miter; stroke-linecap: square"/>
   </g>
   <g id="patch_5">
    <path d="M 70.53125 515.68 
L 677.23095 515.68 
" style="fill: none; stroke: #000000; stroke-width: 1.5; stroke-linejoin: miter; stroke-linecap: square"/>
   </g>
   <g id="patch_6">
    <path d="M 70.53125 7.2 
L 677.23095 7.2 
" style="fill: none; stroke: #000000; stroke-width: 1.5; stroke-linejoin: miter; stroke-linecap: square"/>
   </g>
   <g id="legend_1">
    <g id="patch_7">
     <path d="M 575.723137 74.1125 
L 670.23095 74.1125 
Q 672.23095 74.1125 672.23095 72.1125 
L 672.23095 14.2 
Q 672.23095 12.2 670.23095 12.2 
L 575.723137 12.2 
Q 573.723137 12.2 573.723137 14.2 
L 573.723137 72.1125 
Q 573.723137 74.1125 575.723137 74.1125 
z
" style="fill: #ffffff; opacity: 0.8; stroke: #cccccc; stroke-linejoin: miter"/>
    </g>
    <g id="line2d_33">
     <path d="M 577.723137 20.259375 
L 587.723137 20.259375 
L 597.723137 20.259375 
" style="fill: none; stroke: #000000; stroke-linecap: square"/>
    </g>
    <g id="text_17">
     <!-- Init -->
     <g transform="translate(605.723137 23.759375) scale(0.1 -0.1)">
      <defs>
       <path id="Georgia-49" d="M 2244 0 
L 247 0 
L 247 222 
Q 331 228 490 240 
Q 650 253 716 278 
Q 819 319 866 389 
Q 913 459 913 584 
L 913 3797 
Q 913 3906 878 3979 
Q 844 4053 716 4103 
Q 622 4141 480 4173 
Q 338 4206 247 4213 
L 247 4434 
L 2244 4434 
L 2244 4213 
Q 2147 4209 2012 4189 
Q 1878 4169 1778 4138 
Q 1659 4100 1618 4015 
Q 1578 3931 1578 3828 
L 1578 619 
Q 1578 516 1623 436 
Q 1669 356 1778 309 
Q 1844 284 1992 254 
Q 2141 225 2244 222 
L 2244 0 
z
" transform="scale(0.015625)"/>
       <path id="Georgia-6e" d="M 3628 0 
L 2119 0 
L 2119 206 
Q 2191 213 2277 219 
Q 2363 225 2419 244 
Q 2506 272 2548 342 
Q 2591 413 2591 525 
L 2591 2109 
Q 2591 2438 2436 2616 
Q 2281 2794 2059 2794 
Q 1894 2794 1756 2742 
Q 1619 2691 1513 2616 
Q 1409 2544 1348 2461 
Q 1288 2378 1259 2328 
L 1259 556 
Q 1259 450 1303 381 
Q 1347 313 1434 275 
Q 1500 244 1576 228 
Q 1653 213 1734 206 
L 1734 0 
L 225 0 
L 225 206 
Q 297 213 373 219 
Q 450 225 506 244 
Q 594 272 636 342 
Q 678 413 678 525 
L 678 2428 
Q 678 2534 633 2623 
Q 588 2713 506 2769 
Q 447 2806 365 2823 
Q 284 2841 191 2847 
L 191 3050 
L 1216 3119 
L 1259 3075 
L 1259 2641 
L 1275 2641 
Q 1350 2716 1462 2820 
Q 1575 2925 1675 2991 
Q 1791 3066 1950 3116 
Q 2109 3166 2309 3166 
Q 2753 3166 2967 2889 
Q 3181 2613 3181 2153 
L 3181 550 
Q 3181 441 3218 373 
Q 3256 306 3347 269 
Q 3422 238 3476 225 
Q 3531 213 3628 206 
L 3628 0 
z
" transform="scale(0.015625)"/>
       <path id="Georgia-69" d="M 1722 0 
L 231 0 
L 231 206 
Q 303 213 379 219 
Q 456 225 513 244 
Q 600 272 642 342 
Q 684 413 684 525 
L 684 2428 
Q 684 2528 639 2611 
Q 594 2694 513 2750 
Q 453 2788 340 2814 
Q 228 2841 134 2847 
L 134 3050 
L 1222 3119 
L 1266 3075 
L 1266 563 
Q 1266 453 1308 381 
Q 1350 309 1441 275 
Q 1509 247 1575 230 
Q 1641 213 1722 206 
L 1722 0 
z
M 1328 4334 
Q 1328 4156 1211 4023 
Q 1094 3891 922 3891 
Q 763 3891 645 4017 
Q 528 4144 528 4306 
Q 528 4478 645 4606 
Q 763 4734 922 4734 
Q 1100 4734 1214 4614 
Q 1328 4494 1328 4334 
z
" transform="scale(0.015625)"/>
       <path id="Georgia-74" d="M 2128 134 
Q 1925 50 1744 -8 
Q 1563 -66 1300 -66 
Q 913 -66 755 129 
Q 597 325 597 681 
L 597 2769 
L 41 2769 
L 41 3069 
L 609 3069 
L 609 4028 
L 1178 4028 
L 1178 3069 
L 2063 3069 
L 2063 2769 
L 1184 2769 
L 1184 1047 
Q 1184 853 1198 723 
Q 1213 594 1266 497 
Q 1316 406 1416 359 
Q 1516 313 1684 313 
Q 1763 313 1914 327 
Q 2066 341 2128 363 
L 2128 134 
z
" transform="scale(0.015625)"/>
      </defs>
      <use xlink:href="#Georgia-49"/>
      <use xlink:href="#Georgia-6e" x="38.964844"/>
      <use xlink:href="#Georgia-69" x="98.046875"/>
      <use xlink:href="#Georgia-74" x="127.34375"/>
     </g>
    </g>
    <g id="line2d_34">
     <g>
      <use xlink:href="#m63ae3ea230" x="587.723137" y="34.9875" style="stroke: #000000"/>
     </g>
    </g>
    <g id="text_18">
     <!-- Exact -->
     <g transform="translate(605.723137 38.4875) scale(0.1 -0.1)">
      <defs>
       <path id="Georgia-45" d="M 4034 1306 
L 3950 0 
L 269 0 
L 269 222 
Q 363 228 519 248 
Q 675 269 722 291 
Q 822 338 861 413 
Q 900 488 900 603 
L 900 3791 
Q 900 3894 865 3973 
Q 831 4053 722 4103 
Q 638 4144 495 4175 
Q 353 4206 269 4213 
L 269 4434 
L 3700 4434 
L 3700 3366 
L 3466 3366 
Q 3403 3603 3195 3870 
Q 2988 4138 2800 4163 
Q 2703 4175 2568 4181 
Q 2434 4188 2263 4188 
L 1566 4188 
L 1566 2425 
L 2066 2425 
Q 2306 2425 2417 2470 
Q 2528 2516 2613 2622 
Q 2681 2713 2729 2864 
Q 2778 3016 2794 3150 
L 3028 3150 
L 3028 1416 
L 2794 1416 
Q 2781 1566 2726 1733 
Q 2672 1900 2613 1975 
Q 2516 2097 2392 2134 
Q 2269 2172 2066 2172 
L 1566 2172 
L 1566 841 
Q 1566 641 1594 525 
Q 1622 409 1703 350 
Q 1784 291 1925 273 
Q 2066 256 2325 256 
Q 2428 256 2597 256 
Q 2766 256 2881 269 
Q 3000 281 3126 314 
Q 3253 347 3306 403 
Q 3450 553 3608 858 
Q 3766 1163 3809 1306 
L 4034 1306 
z
" transform="scale(0.015625)"/>
       <path id="Georgia-78" d="M 3194 0 
L 1781 0 
L 1781 206 
Q 1922 222 2020 237 
Q 2119 253 2119 319 
Q 2119 347 2087 406 
Q 2056 466 2025 516 
Q 1947 638 1811 842 
Q 1675 1047 1478 1331 
Q 1316 1128 1178 936 
Q 1041 744 891 528 
Q 869 497 845 450 
Q 822 403 822 375 
Q 822 306 911 261 
Q 1000 216 1178 200 
L 1178 0 
L 38 0 
L 38 194 
Q 250 256 379 345 
Q 509 434 619 566 
Q 716 691 889 909 
Q 1063 1128 1338 1503 
Q 1178 1731 948 2061 
Q 719 2391 569 2609 
Q 488 2728 383 2801 
Q 278 2875 88 2875 
L 88 3081 
L 1428 3081 
L 1428 2875 
Q 1328 2875 1231 2862 
Q 1134 2850 1134 2806 
Q 1134 2778 1153 2743 
Q 1172 2709 1200 2669 
Q 1269 2563 1414 2341 
Q 1559 2119 1728 1872 
Q 1838 2022 1983 2222 
Q 2128 2422 2250 2603 
Q 2263 2625 2275 2658 
Q 2288 2691 2288 2722 
Q 2288 2788 2180 2827 
Q 2072 2866 1975 2881 
L 1975 3081 
L 3113 3081 
L 3113 2888 
Q 2872 2825 2737 2739 
Q 2603 2653 2509 2541 
Q 2406 2413 2264 2225 
Q 2122 2038 1866 1700 
Q 2150 1300 2328 1044 
Q 2506 788 2688 516 
Q 2778 378 2889 298 
Q 3000 219 3194 206 
L 3194 0 
z
" transform="scale(0.015625)"/>
       <path id="Georgia-61" d="M 3144 56 
Q 2997 3 2886 -30 
Q 2775 -63 2634 -63 
Q 2391 -63 2245 51 
Q 2100 166 2059 384 
L 2041 384 
Q 1838 159 1605 40 
Q 1372 -78 1044 -78 
Q 697 -78 473 134 
Q 250 347 250 691 
Q 250 869 300 1009 
Q 350 1150 450 1263 
Q 528 1356 656 1429 
Q 784 1503 897 1547 
Q 1038 1600 1467 1744 
Q 1897 1888 2047 1969 
L 2047 2278 
Q 2047 2319 2030 2434 
Q 2013 2550 1956 2653 
Q 1894 2769 1780 2855 
Q 1666 2941 1456 2941 
Q 1313 2941 1189 2892 
Q 1066 2844 1016 2791 
Q 1016 2728 1045 2606 
Q 1075 2484 1075 2381 
Q 1075 2272 976 2181 
Q 878 2091 703 2091 
Q 547 2091 473 2202 
Q 400 2313 400 2450 
Q 400 2594 501 2725 
Q 603 2856 766 2959 
Q 906 3047 1106 3108 
Q 1306 3169 1497 3169 
Q 1759 3169 1954 3133 
Q 2150 3097 2309 2978 
Q 2469 2863 2551 2664 
Q 2634 2466 2634 2153 
Q 2634 1706 2625 1361 
Q 2616 1016 2616 606 
Q 2616 484 2658 412 
Q 2700 341 2788 291 
Q 2834 263 2936 259 
Q 3038 256 3144 256 
L 3144 56 
z
M 2053 1706 
Q 1788 1628 1588 1553 
Q 1388 1478 1216 1366 
Q 1059 1259 968 1114 
Q 878 969 878 769 
Q 878 509 1014 387 
Q 1150 266 1359 266 
Q 1581 266 1750 373 
Q 1919 481 2034 628 
L 2053 1706 
z
" transform="scale(0.015625)"/>
       <path id="Georgia-63" d="M 1650 -81 
Q 981 -81 603 362 
Q 225 806 225 1553 
Q 225 1878 326 2161 
Q 428 2444 622 2675 
Q 806 2897 1084 3033 
Q 1363 3169 1691 3169 
Q 2144 3169 2428 2951 
Q 2713 2734 2713 2359 
Q 2713 2203 2638 2083 
Q 2563 1963 2391 1963 
Q 2206 1963 2104 2056 
Q 2003 2150 2003 2266 
Q 2003 2406 2040 2554 
Q 2078 2703 2084 2772 
Q 2028 2869 1917 2901 
Q 1806 2934 1678 2934 
Q 1528 2934 1392 2870 
Q 1256 2806 1128 2634 
Q 1013 2478 941 2212 
Q 869 1947 869 1578 
Q 869 997 1126 630 
Q 1384 263 1803 263 
Q 2106 263 2311 409 
Q 2516 556 2691 850 
L 2891 719 
Q 2684 350 2346 134 
Q 2009 -81 1650 -81 
z
" transform="scale(0.015625)"/>
      </defs>
      <use xlink:href="#Georgia-45"/>
      <use xlink:href="#Georgia-78" x="65.332031"/>
      <use xlink:href="#Georgia-61" x="115.820312"/>
      <use xlink:href="#Georgia-63" x="166.210938"/>
      <use xlink:href="#Georgia-74" x="211.621094"/>
     </g>
    </g>
    <g id="line2d_35">
     <path d="M 577.723137 49.715625 
L 587.723137 49.715625 
L 597.723137 49.715625 
" style="fill: none; stroke: #a80000; stroke-width: 3; stroke-linecap: square"/>
    </g>
    <g id="text_19">
     <!-- 256, t=1.3 -->
     <g transform="translate(605.723137 53.215625) scale(0.1 -0.1)">
      <defs>
       <path id="Georgia-2c" d="M 1341 109 
Q 1341 -116 1239 -316 
Q 1138 -516 1006 -659 
Q 872 -809 722 -925 
Q 572 -1041 447 -1106 
L 303 -897 
Q 453 -803 572 -709 
Q 691 -616 766 -522 
Q 859 -413 925 -284 
Q 991 -156 1009 6 
L 850 6 
Q 641 6 523 115 
Q 406 225 406 409 
Q 406 541 512 664 
Q 619 788 803 788 
Q 1072 788 1206 608 
Q 1341 428 1341 109 
z
" transform="scale(0.015625)"/>
       <path id="Georgia-20" transform="scale(0.015625)"/>
       <path id="Georgia-3d" d="M 3634 2134 
L 481 2134 
L 481 2525 
L 3634 2525 
L 3634 2134 
z
M 3634 972 
L 481 972 
L 481 1363 
L 3634 1363 
L 3634 972 
z
" transform="scale(0.015625)"/>
      </defs>
      <use xlink:href="#Georgia-32"/>
      <use xlink:href="#Georgia-35" x="55.859375"/>
      <use xlink:href="#Georgia-36" x="108.691406"/>
      <use xlink:href="#Georgia-2c" x="165.283203"/>
      <use xlink:href="#Georgia-20" x="192.236328"/>
      <use xlink:href="#Georgia-74" x="216.357422"/>
      <use xlink:href="#Georgia-3d" x="250.878906"/>
      <use xlink:href="#Georgia-31" x="315.185547"/>
      <use xlink:href="#Georgia-2e" x="358.154297"/>
      <use xlink:href="#Georgia-33" x="385.107422"/>
     </g>
    </g>
    <g id="line2d_36">
     <path d="M 577.723137 64.44375 
L 587.723137 64.44375 
L 597.723137 64.44375 
" style="fill: none; stroke: #1f77b4; stroke-width: 3; stroke-linecap: square"/>
    </g>
    <g id="text_20">
     <!-- 256, t=1.3,ggb -->
     <g transform="translate(605.723137 67.94375) scale(0.1 -0.1)">
      <defs>
       <path id="Georgia-67" d="M 2866 319 
Q 2991 200 3062 50 
Q 3134 -100 3134 -322 
Q 3134 -544 3037 -739 
Q 2941 -934 2744 -1078 
Q 2534 -1225 2243 -1306 
Q 1953 -1388 1525 -1388 
Q 825 -1388 478 -1183 
Q 131 -978 131 -584 
Q 131 -266 381 -81 
Q 631 103 1019 119 
L 1019 163 
Q 925 191 825 233 
Q 725 275 653 331 
Q 572 397 522 486 
Q 472 575 472 706 
Q 472 872 589 1011 
Q 706 1150 944 1250 
L 944 1297 
Q 644 1438 478 1658 
Q 313 1878 313 2169 
Q 313 2606 639 2887 
Q 966 3169 1475 3169 
Q 1616 3169 1755 3141 
Q 1894 3113 2038 3069 
L 3113 3069 
L 3113 2769 
L 2388 2769 
L 2388 2750 
Q 2503 2616 2559 2453 
Q 2616 2291 2616 2134 
Q 2616 1728 2286 1447 
Q 1956 1166 1519 1166 
L 1141 1166 
Q 1069 1141 991 1075 
Q 913 1009 913 897 
Q 913 781 978 720 
Q 1044 659 1138 638 
Q 1228 613 1348 606 
Q 1469 600 1597 597 
Q 1734 594 1973 578 
Q 2213 563 2313 559 
Q 2456 553 2601 490 
Q 2747 428 2866 319 
z
M 2022 2147 
Q 2022 2513 1873 2730 
Q 1725 2947 1456 2947 
Q 1309 2947 1204 2886 
Q 1100 2825 1034 2713 
Q 972 2609 945 2464 
Q 919 2319 919 2166 
Q 919 1819 1070 1600 
Q 1222 1381 1463 1381 
Q 1731 1381 1876 1598 
Q 2022 1816 2022 2147 
z
M 2622 -438 
Q 2622 -263 2540 -150 
Q 2459 -38 2294 3 
Q 2206 16 1934 31 
Q 1663 47 1303 47 
Q 966 -19 823 -173 
Q 681 -328 681 -572 
Q 681 -681 728 -781 
Q 775 -881 891 -966 
Q 1000 -1047 1184 -1098 
Q 1369 -1150 1634 -1150 
Q 2094 -1150 2358 -973 
Q 2622 -797 2622 -438 
z
" transform="scale(0.015625)"/>
       <path id="Georgia-62" d="M 3353 1544 
Q 3353 850 2915 378 
Q 2478 -94 1900 -94 
Q 1647 -94 1401 -15 
Q 1156 63 941 194 
L 709 -166 
L 516 -122 
Q 531 109 537 434 
Q 544 759 544 1063 
L 544 4113 
Q 544 4219 495 4325 
Q 447 4431 372 4478 
Q 313 4519 173 4539 
Q 34 4559 -50 4566 
L -50 4766 
L 1081 4838 
L 1125 4791 
L 1125 2759 
L 1147 2753 
Q 1341 2959 1570 3062 
Q 1800 3166 2022 3166 
Q 2591 3166 2972 2716 
Q 3353 2266 3353 1544 
z
M 2700 1522 
Q 2700 1753 2650 1993 
Q 2600 2234 2494 2413 
Q 2388 2594 2216 2706 
Q 2044 2819 1803 2819 
Q 1584 2819 1420 2733 
Q 1256 2647 1125 2500 
L 1125 706 
Q 1144 631 1198 531 
Q 1253 431 1347 341 
Q 1441 253 1559 198 
Q 1678 144 1850 144 
Q 2231 144 2465 512 
Q 2700 881 2700 1522 
z
" transform="scale(0.015625)"/>
      </defs>
      <use xlink:href="#Georgia-32"/>
      <use xlink:href="#Georgia-35" x="55.859375"/>
      <use xlink:href="#Georgia-36" x="108.691406"/>
      <use xlink:href="#Georgia-2c" x="165.283203"/>
      <use xlink:href="#Georgia-20" x="192.236328"/>
      <use xlink:href="#Georgia-74" x="216.357422"/>
      <use xlink:href="#Georgia-3d" x="250.878906"/>
      <use xlink:href="#Georgia-31" x="315.185547"/>
      <use xlink:href="#Georgia-2e" x="358.154297"/>
      <use xlink:href="#Georgia-33" x="385.107422"/>
      <use xlink:href="#Georgia-2c" x="440.283203"/>
      <use xlink:href="#Georgia-67" x="467.236328"/>
      <use xlink:href="#Georgia-67" x="518.164062"/>
      <use xlink:href="#Georgia-62" x="569.091797"/>
     </g>
    </g>
   </g>
  </g>
  <g id="axes_2">
   <g id="patch_8">
    <path d="M 750.91637 515.68 
L 993.59625 515.68 
L 993.59625 7.2 
L 750.91637 7.2 
L 750.91637 515.68 
z
" style="fill: none"/>
   </g>
   <g id="matplotlib.axis_3">
    <g id="xtick_8">
     <g id="line2d_37">
      <g>
       <use xlink:href="#m51797cd12e" x="761.947274" y="515.68" style="stroke: #000000; stroke-width: 0.8"/>
      </g>
     </g>
     <g id="text_21">
      <!-- 0 -->
      <g transform="translate(757.037274 534.775) scale(0.16 -0.16)">
       <use xlink:href="#Georgia-30"/>
      </g>
     </g>
    </g>
    <g id="xtick_9">
     <g id="line2d_38">
      <g>
       <use xlink:href="#m51797cd12e" x="832.172187" y="515.68" style="stroke: #000000; stroke-width: 0.8"/>
      </g>
     </g>
     <g id="text_22">
      <!-- 2 -->
      <g transform="translate(827.703437 534.775) scale(0.16 -0.16)">
       <use xlink:href="#Georgia-32"/>
      </g>
     </g>
    </g>
    <g id="xtick_10">
     <g id="line2d_39">
      <g>
       <use xlink:href="#m51797cd12e" x="902.397101" y="515.68" style="stroke: #000000; stroke-width: 0.8"/>
      </g>
     </g>
     <g id="text_23">
      <!-- 4 -->
      <g transform="translate(897.877101 534.775) scale(0.16 -0.16)">
       <use xlink:href="#Georgia-34"/>
      </g>
     </g>
    </g>
    <g id="xtick_11">
     <g id="line2d_40">
      <g>
       <use xlink:href="#m51797cd12e" x="972.622015" y="515.68" style="stroke: #000000; stroke-width: 0.8"/>
      </g>
     </g>
     <g id="text_24">
      <!-- 6 -->
      <g transform="translate(968.094515 534.775) scale(0.16 -0.16)">
       <use xlink:href="#Georgia-36"/>
      </g>
     </g>
    </g>
    <g id="text_25">
     <!-- $k$ -->
     <g transform="translate(866.45631 557.36375) scale(0.2 -0.2)">
      <defs>
       <path id="DejaVuSans-Oblique-6b" d="M 1172 4863 
L 1747 4863 
L 1197 2028 
L 3169 3500 
L 3916 3500 
L 1716 1825 
L 3322 0 
L 2625 0 
L 1131 1709 
L 800 0 
L 225 0 
L 1172 4863 
z
" transform="scale(0.015625)"/>
      </defs>
      <use xlink:href="#DejaVuSans-Oblique-6b" transform="translate(0 0.015625)"/>
     </g>
    </g>
   </g>
   <g id="matplotlib.axis_4">
    <g id="ytick_8">
     <g id="line2d_41">
      <g>
       <use xlink:href="#mb4e49a09e4" x="750.91637" y="432.339071" style="stroke: #000000; stroke-width: 0.8"/>
      </g>
     </g>
     <g id="text_26">
      <!-- $\mathdefault{10^{-4}}$ -->
      <g transform="translate(713.03637 438.386571) scale(0.16 -0.16)">
       <use xlink:href="#Georgia-31" transform="translate(0 0.742188)"/>
       <use xlink:href="#Georgia-30" transform="translate(42.96875 0.742188)"/>
       <use xlink:href="#Georgia-2212" transform="translate(105.188164 34.440625) scale(0.7)"/>
       <use xlink:href="#Georgia-34" transform="translate(150.202812 34.440625) scale(0.7)"/>
      </g>
     </g>
    </g>
    <g id="ytick_9">
     <g id="line2d_42">
      <g>
       <use xlink:href="#mb4e49a09e4" x="750.91637" y="338.768529" style="stroke: #000000; stroke-width: 0.8"/>
      </g>
     </g>
     <g id="text_27">
      <!-- $\mathdefault{10^{-3}}$ -->
      <g transform="translate(713.19637 344.816029) scale(0.16 -0.16)">
       <use xlink:href="#Georgia-31" transform="translate(0 0.534375)"/>
       <use xlink:href="#Georgia-30" transform="translate(42.96875 0.534375)"/>
       <use xlink:href="#Georgia-2212" transform="translate(105.188164 34.232813) scale(0.7)"/>
       <use xlink:href="#Georgia-33" transform="translate(150.202812 34.232813) scale(0.7)"/>
      </g>
     </g>
    </g>
    <g id="ytick_10">
     <g id="line2d_43">
      <g>
       <use xlink:href="#mb4e49a09e4" x="750.91637" y="245.197987" style="stroke: #000000; stroke-width: 0.8"/>
      </g>
     </g>
     <g id="text_28">
      <!-- $\mathdefault{10^{-2}}$ -->
      <g transform="translate(713.19637 251.245487) scale(0.16 -0.16)">
       <use xlink:href="#Georgia-31" transform="translate(0 0.534375)"/>
       <use xlink:href="#Georgia-30" transform="translate(42.96875 0.534375)"/>
       <use xlink:href="#Georgia-2212" transform="translate(105.188164 34.232813) scale(0.7)"/>
       <use xlink:href="#Georgia-32" transform="translate(150.202812 34.232813) scale(0.7)"/>
      </g>
     </g>
    </g>
    <g id="ytick_11">
     <g id="line2d_44">
      <g>
       <use xlink:href="#mb4e49a09e4" x="750.91637" y="151.627445" style="stroke: #000000; stroke-width: 0.8"/>
      </g>
     </g>
     <g id="text_29">
      <!-- $\mathdefault{10^{-1}}$ -->
      <g transform="translate(714.63637 157.674945) scale(0.16 -0.16)">
       <use xlink:href="#Georgia-31" transform="translate(0 0.534375)"/>
       <use xlink:href="#Georgia-30" transform="translate(42.96875 0.534375)"/>
       <use xlink:href="#Georgia-2212" transform="translate(105.188164 34.232813) scale(0.7)"/>
       <use xlink:href="#Georgia-31" transform="translate(150.202812 34.232813) scale(0.7)"/>
      </g>
     </g>
    </g>
    <g id="ytick_12">
     <g id="line2d_45">
      <g>
       <use xlink:href="#mb4e49a09e4" x="750.91637" y="58.056904" style="stroke: #000000; stroke-width: 0.8"/>
      </g>
     </g>
     <g id="text_30">
      <!-- $\mathdefault{10^{0}}$ -->
      <g transform="translate(719.75637 64.104404) scale(0.16 -0.16)">
       <use xlink:href="#Georgia-31" transform="translate(0 0.534375)"/>
       <use xlink:href="#Georgia-30" transform="translate(42.96875 0.534375)"/>
       <use xlink:href="#Georgia-30" transform="translate(105.188164 34.232813) scale(0.7)"/>
      </g>
     </g>
    </g>
    <g id="ytick_13">
     <g id="line2d_46">
      <defs>
       <path id="mc1fa9f92a8" d="M 0 0 
L -2 0 
" style="stroke: #000000; stroke-width: 0.6"/>
      </defs>
      <g>
       <use xlink:href="#mc1fa9f92a8" x="750.91637" y="497.742073" style="stroke: #000000; stroke-width: 0.6"/>
      </g>
     </g>
    </g>
    <g id="ytick_14">
     <g id="line2d_47">
      <g>
       <use xlink:href="#mc1fa9f92a8" x="750.91637" y="481.265118" style="stroke: #000000; stroke-width: 0.6"/>
      </g>
     </g>
    </g>
    <g id="ytick_15">
     <g id="line2d_48">
      <g>
       <use xlink:href="#mc1fa9f92a8" x="750.91637" y="469.574533" style="stroke: #000000; stroke-width: 0.6"/>
      </g>
     </g>
    </g>
    <g id="ytick_16">
     <g id="line2d_49">
      <g>
       <use xlink:href="#mc1fa9f92a8" x="750.91637" y="460.50661" style="stroke: #000000; stroke-width: 0.6"/>
      </g>
     </g>
    </g>
    <g id="ytick_17">
     <g id="line2d_50">
      <g>
       <use xlink:href="#mc1fa9f92a8" x="750.91637" y="453.097578" style="stroke: #000000; stroke-width: 0.6"/>
      </g>
     </g>
    </g>
    <g id="ytick_18">
     <g id="line2d_51">
      <g>
       <use xlink:href="#mc1fa9f92a8" x="750.91637" y="446.833331" style="stroke: #000000; stroke-width: 0.6"/>
      </g>
     </g>
    </g>
    <g id="ytick_19">
     <g id="line2d_52">
      <g>
       <use xlink:href="#mc1fa9f92a8" x="750.91637" y="441.406993" style="stroke: #000000; stroke-width: 0.6"/>
      </g>
     </g>
    </g>
    <g id="ytick_20">
     <g id="line2d_53">
      <g>
       <use xlink:href="#mc1fa9f92a8" x="750.91637" y="436.620624" style="stroke: #000000; stroke-width: 0.6"/>
      </g>
     </g>
    </g>
    <g id="ytick_21">
     <g id="line2d_54">
      <g>
       <use xlink:href="#mc1fa9f92a8" x="750.91637" y="404.171531" style="stroke: #000000; stroke-width: 0.6"/>
      </g>
     </g>
    </g>
    <g id="ytick_22">
     <g id="line2d_55">
      <g>
       <use xlink:href="#mc1fa9f92a8" x="750.91637" y="387.694576" style="stroke: #000000; stroke-width: 0.6"/>
      </g>
     </g>
    </g>
    <g id="ytick_23">
     <g id="line2d_56">
      <g>
       <use xlink:href="#mc1fa9f92a8" x="750.91637" y="376.003991" style="stroke: #000000; stroke-width: 0.6"/>
      </g>
     </g>
    </g>
    <g id="ytick_24">
     <g id="line2d_57">
      <g>
       <use xlink:href="#mc1fa9f92a8" x="750.91637" y="366.936069" style="stroke: #000000; stroke-width: 0.6"/>
      </g>
     </g>
    </g>
    <g id="ytick_25">
     <g id="line2d_58">
      <g>
       <use xlink:href="#mc1fa9f92a8" x="750.91637" y="359.527037" style="stroke: #000000; stroke-width: 0.6"/>
      </g>
     </g>
    </g>
    <g id="ytick_26">
     <g id="line2d_59">
      <g>
       <use xlink:href="#mc1fa9f92a8" x="750.91637" y="353.262789" style="stroke: #000000; stroke-width: 0.6"/>
      </g>
     </g>
    </g>
    <g id="ytick_27">
     <g id="line2d_60">
      <g>
       <use xlink:href="#mc1fa9f92a8" x="750.91637" y="347.836451" style="stroke: #000000; stroke-width: 0.6"/>
      </g>
     </g>
    </g>
    <g id="ytick_28">
     <g id="line2d_61">
      <g>
       <use xlink:href="#mc1fa9f92a8" x="750.91637" y="343.050082" style="stroke: #000000; stroke-width: 0.6"/>
      </g>
     </g>
    </g>
    <g id="ytick_29">
     <g id="line2d_62">
      <g>
       <use xlink:href="#mc1fa9f92a8" x="750.91637" y="310.600989" style="stroke: #000000; stroke-width: 0.6"/>
      </g>
     </g>
    </g>
    <g id="ytick_30">
     <g id="line2d_63">
      <g>
       <use xlink:href="#mc1fa9f92a8" x="750.91637" y="294.124035" style="stroke: #000000; stroke-width: 0.6"/>
      </g>
     </g>
    </g>
    <g id="ytick_31">
     <g id="line2d_64">
      <g>
       <use xlink:href="#mc1fa9f92a8" x="750.91637" y="282.433449" style="stroke: #000000; stroke-width: 0.6"/>
      </g>
     </g>
    </g>
    <g id="ytick_32">
     <g id="line2d_65">
      <g>
       <use xlink:href="#mc1fa9f92a8" x="750.91637" y="273.365527" style="stroke: #000000; stroke-width: 0.6"/>
      </g>
     </g>
    </g>
    <g id="ytick_33">
     <g id="line2d_66">
      <g>
       <use xlink:href="#mc1fa9f92a8" x="750.91637" y="265.956495" style="stroke: #000000; stroke-width: 0.6"/>
      </g>
     </g>
    </g>
    <g id="ytick_34">
     <g id="line2d_67">
      <g>
       <use xlink:href="#mc1fa9f92a8" x="750.91637" y="259.692247" style="stroke: #000000; stroke-width: 0.6"/>
      </g>
     </g>
    </g>
    <g id="ytick_35">
     <g id="line2d_68">
      <g>
       <use xlink:href="#mc1fa9f92a8" x="750.91637" y="254.26591" style="stroke: #000000; stroke-width: 0.6"/>
      </g>
     </g>
    </g>
    <g id="ytick_36">
     <g id="line2d_69">
      <g>
       <use xlink:href="#mc1fa9f92a8" x="750.91637" y="249.47954" style="stroke: #000000; stroke-width: 0.6"/>
      </g>
     </g>
    </g>
    <g id="ytick_37">
     <g id="line2d_70">
      <g>
       <use xlink:href="#mc1fa9f92a8" x="750.91637" y="217.030447" style="stroke: #000000; stroke-width: 0.6"/>
      </g>
     </g>
    </g>
    <g id="ytick_38">
     <g id="line2d_71">
      <g>
       <use xlink:href="#mc1fa9f92a8" x="750.91637" y="200.553493" style="stroke: #000000; stroke-width: 0.6"/>
      </g>
     </g>
    </g>
    <g id="ytick_39">
     <g id="line2d_72">
      <g>
       <use xlink:href="#mc1fa9f92a8" x="750.91637" y="188.862908" style="stroke: #000000; stroke-width: 0.6"/>
      </g>
     </g>
    </g>
    <g id="ytick_40">
     <g id="line2d_73">
      <g>
       <use xlink:href="#mc1fa9f92a8" x="750.91637" y="179.794985" style="stroke: #000000; stroke-width: 0.6"/>
      </g>
     </g>
    </g>
    <g id="ytick_41">
     <g id="line2d_74">
      <g>
       <use xlink:href="#mc1fa9f92a8" x="750.91637" y="172.385953" style="stroke: #000000; stroke-width: 0.6"/>
      </g>
     </g>
    </g>
    <g id="ytick_42">
     <g id="line2d_75">
      <g>
       <use xlink:href="#mc1fa9f92a8" x="750.91637" y="166.121706" style="stroke: #000000; stroke-width: 0.6"/>
      </g>
     </g>
    </g>
    <g id="ytick_43">
     <g id="line2d_76">
      <g>
       <use xlink:href="#mc1fa9f92a8" x="750.91637" y="160.695368" style="stroke: #000000; stroke-width: 0.6"/>
      </g>
     </g>
    </g>
    <g id="ytick_44">
     <g id="line2d_77">
      <g>
       <use xlink:href="#mc1fa9f92a8" x="750.91637" y="155.908999" style="stroke: #000000; stroke-width: 0.6"/>
      </g>
     </g>
    </g>
    <g id="ytick_45">
     <g id="line2d_78">
      <g>
       <use xlink:href="#mc1fa9f92a8" x="750.91637" y="123.459906" style="stroke: #000000; stroke-width: 0.6"/>
      </g>
     </g>
    </g>
    <g id="ytick_46">
     <g id="line2d_79">
      <g>
       <use xlink:href="#mc1fa9f92a8" x="750.91637" y="106.982951" style="stroke: #000000; stroke-width: 0.6"/>
      </g>
     </g>
    </g>
    <g id="ytick_47">
     <g id="line2d_80">
      <g>
       <use xlink:href="#mc1fa9f92a8" x="750.91637" y="95.292366" style="stroke: #000000; stroke-width: 0.6"/>
      </g>
     </g>
    </g>
    <g id="ytick_48">
     <g id="line2d_81">
      <g>
       <use xlink:href="#mc1fa9f92a8" x="750.91637" y="86.224443" style="stroke: #000000; stroke-width: 0.6"/>
      </g>
     </g>
    </g>
    <g id="ytick_49">
     <g id="line2d_82">
      <g>
       <use xlink:href="#mc1fa9f92a8" x="750.91637" y="78.815411" style="stroke: #000000; stroke-width: 0.6"/>
      </g>
     </g>
    </g>
    <g id="ytick_50">
     <g id="line2d_83">
      <g>
       <use xlink:href="#mc1fa9f92a8" x="750.91637" y="72.551164" style="stroke: #000000; stroke-width: 0.6"/>
      </g>
     </g>
    </g>
    <g id="ytick_51">
     <g id="line2d_84">
      <g>
       <use xlink:href="#mc1fa9f92a8" x="750.91637" y="67.124826" style="stroke: #000000; stroke-width: 0.6"/>
      </g>
     </g>
    </g>
    <g id="ytick_52">
     <g id="line2d_85">
      <g>
       <use xlink:href="#mc1fa9f92a8" x="750.91637" y="62.338457" style="stroke: #000000; stroke-width: 0.6"/>
      </g>
     </g>
    </g>
    <g id="ytick_53">
     <g id="line2d_86">
      <g>
       <use xlink:href="#mc1fa9f92a8" x="750.91637" y="29.889364" style="stroke: #000000; stroke-width: 0.6"/>
      </g>
     </g>
    </g>
    <g id="ytick_54">
     <g id="line2d_87">
      <g>
       <use xlink:href="#mc1fa9f92a8" x="750.91637" y="13.412409" style="stroke: #000000; stroke-width: 0.6"/>
      </g>
     </g>
    </g>
    <g id="text_31">
     <!-- $|y-y_{exact}|$ -->
     <g transform="translate(704.23637 311.94) rotate(-90) scale(0.2 -0.2)">
      <defs>
       <path id="DejaVuSans-7c" d="M 1344 4891 
L 1344 -1509 
L 813 -1509 
L 813 4891 
L 1344 4891 
z
" transform="scale(0.015625)"/>
       <path id="DejaVuSans-2212" d="M 678 2272 
L 4684 2272 
L 4684 1741 
L 678 1741 
L 678 2272 
z
" transform="scale(0.015625)"/>
       <path id="DejaVuSans-Oblique-65" d="M 3078 2063 
Q 3088 2113 3092 2166 
Q 3097 2219 3097 2272 
Q 3097 2653 2873 2875 
Q 2650 3097 2266 3097 
Q 1838 3097 1509 2826 
Q 1181 2556 1013 2059 
L 3078 2063 
z
M 3578 1613 
L 903 1613 
Q 884 1494 878 1425 
Q 872 1356 872 1306 
Q 872 872 1139 634 
Q 1406 397 1894 397 
Q 2269 397 2603 481 
Q 2938 566 3225 728 
L 3116 159 
Q 2806 34 2476 -28 
Q 2147 -91 1806 -91 
Q 1078 -91 686 257 
Q 294 606 294 1247 
Q 294 1794 489 2264 
Q 684 2734 1063 3103 
Q 1306 3334 1642 3459 
Q 1978 3584 2356 3584 
Q 2950 3584 3301 3228 
Q 3653 2872 3653 2272 
Q 3653 2128 3634 1964 
Q 3616 1800 3578 1613 
z
" transform="scale(0.015625)"/>
       <path id="DejaVuSans-Oblique-61" d="M 3438 1997 
L 3047 0 
L 2472 0 
L 2578 531 
Q 2325 219 2001 64 
Q 1678 -91 1281 -91 
Q 834 -91 548 182 
Q 263 456 263 884 
Q 263 1497 752 1853 
Q 1241 2209 2100 2209 
L 2900 2209 
L 2931 2363 
Q 2938 2388 2941 2417 
Q 2944 2447 2944 2509 
Q 2944 2788 2717 2942 
Q 2491 3097 2081 3097 
Q 1800 3097 1504 3025 
Q 1209 2953 897 2809 
L 997 3341 
Q 1322 3463 1633 3523 
Q 1944 3584 2234 3584 
Q 2853 3584 3176 3315 
Q 3500 3047 3500 2534 
Q 3500 2431 3484 2292 
Q 3469 2153 3438 1997 
z
M 2816 1759 
L 2241 1759 
Q 1534 1759 1195 1570 
Q 856 1381 856 984 
Q 856 709 1029 553 
Q 1203 397 1509 397 
Q 1978 397 2328 733 
Q 2678 1069 2791 1631 
L 2816 1759 
z
" transform="scale(0.015625)"/>
       <path id="DejaVuSans-Oblique-63" d="M 3431 3366 
L 3316 2797 
Q 3109 2947 2876 3022 
Q 2644 3097 2394 3097 
Q 2119 3097 1870 3000 
Q 1622 2903 1453 2725 
Q 1184 2453 1037 2087 
Q 891 1722 891 1331 
Q 891 859 1127 628 
Q 1363 397 1844 397 
Q 2081 397 2348 469 
Q 2616 541 2906 684 
L 2797 116 
Q 2547 13 2283 -39 
Q 2019 -91 1741 -91 
Q 1044 -91 669 257 
Q 294 606 294 1253 
Q 294 1797 489 2255 
Q 684 2713 1069 3078 
Q 1331 3328 1684 3456 
Q 2038 3584 2456 3584 
Q 2700 3584 2940 3529 
Q 3181 3475 3431 3366 
z
" transform="scale(0.015625)"/>
       <path id="DejaVuSans-Oblique-74" d="M 2706 3500 
L 2619 3053 
L 1472 3053 
L 1100 1153 
Q 1081 1047 1072 975 
Q 1063 903 1063 863 
Q 1063 663 1183 572 
Q 1303 481 1569 481 
L 2150 481 
L 2053 0 
L 1503 0 
Q 991 0 739 200 
Q 488 400 488 806 
Q 488 878 497 964 
Q 506 1050 525 1153 
L 897 3053 
L 409 3053 
L 500 3500 
L 978 3500 
L 1172 4494 
L 1747 4494 
L 1556 3500 
L 2706 3500 
z
" transform="scale(0.015625)"/>
      </defs>
      <use xlink:href="#DejaVuSans-7c" transform="translate(0 0.578125)"/>
      <use xlink:href="#DejaVuSans-Oblique-79" transform="translate(33.691406 0.578125)"/>
      <use xlink:href="#DejaVuSans-2212" transform="translate(112.353516 0.578125)"/>
      <use xlink:href="#DejaVuSans-Oblique-79" transform="translate(215.625 0.578125)"/>
      <use xlink:href="#DejaVuSans-Oblique-65" transform="translate(274.804688 -15.828125) scale(0.7)"/>
      <use xlink:href="#DejaVuSans-Oblique-78" transform="translate(317.871094 -15.828125) scale(0.7)"/>
      <use xlink:href="#DejaVuSans-Oblique-61" transform="translate(359.296875 -15.828125) scale(0.7)"/>
      <use xlink:href="#DejaVuSans-Oblique-63" transform="translate(402.192383 -15.828125) scale(0.7)"/>
      <use xlink:href="#DejaVuSans-Oblique-74" transform="translate(440.678711 -15.828125) scale(0.7)"/>
      <use xlink:href="#DejaVuSans-7c" transform="translate(470.859375 0.578125)"/>
     </g>
    </g>
   </g>
   <g id="line2d_88">
    <path d="M 761.947274 492.567273 
L 764.175739 172.002735 
L 766.404205 213.309389 
L 768.63267 193.719356 
L 770.861135 152.540197 
L 773.089601 178.470006 
L 775.318066 242.400282 
L 777.546531 194.226879 
L 779.774997 185.213561 
L 782.003462 211.386013 
L 784.231928 369.433406 
L 786.460393 175.320282 
L 788.688858 289.902699 
L 790.917324 208.958197 
L 793.145789 189.479151 
L 795.374255 204.691953 
L 797.60272 197.975032 
L 799.831185 230.139726 
L 802.059651 180.776128 
L 804.288116 220.972748 
L 806.516581 225.285655 
L 808.745047 180.136533 
L 810.973512 246.929675 
L 813.201978 194.004796 
L 815.430443 199.230927 
L 817.658908 190.14483 
L 819.887374 195.096621 
L 822.115839 335.815433 
L 824.344304 175.92011 
L 826.57277 238.901403 
L 828.801235 197.99052 
L 831.029701 181.051009 
L 833.258166 211.08519 
L 835.486631 182.837798 
L 837.715097 217.703381 
L 839.943562 176.774974 
L 842.172027 193.811591 
L 844.400493 218.835775 
L 846.628958 169.398346 
L 848.857424 264.385975 
L 851.085889 175.013697 
L 853.314354 176.786188 
L 855.54282 185.381918 
L 857.771285 160.569296 
L 859.999751 363.160097 
L 862.228216 155.693139 
L 864.456681 164.783121 
L 866.685147 151.970847 
L 868.913612 140.418397 
L 871.142077 172.682169 
L 873.370543 172.385124 
L 875.599008 139.885633 
L 877.827474 152.553684 
L 880.055939 163.381268 
L 882.284404 157.143569 
L 884.51287 306.07072 
L 886.741335 163.530376 
L 888.9698 186.850555 
L 891.198266 183.004821 
L 893.426731 173.822202 
L 895.655197 382.150727 
L 897.883662 166.891539 
L 900.112127 213.216208 
L 902.340593 190.697286 
L 904.569058 176.034801 
L 906.797523 215.535871 
L 909.025989 182.317998 
L 911.254454 211.505315 
L 913.48292 180.734868 
L 915.711385 197.853532 
L 917.93985 238.327632 
L 920.168316 175.770535 
L 922.396781 335.548488 
L 924.625247 194.899862 
L 926.853712 190.030894 
L 929.082177 199.132728 
L 931.310643 193.849565 
L 933.539108 246.857632 
L 935.767573 180.052964 
L 937.996039 225.096687 
L 940.224504 220.884082 
L 942.45297 180.701441 
L 944.681435 230.201932 
L 946.9099 197.893056 
L 949.138366 204.601265 
L 951.366831 189.460026 
L 953.595296 208.848192 
L 955.823762 289.586907 
L 958.052227 175.289235 
L 960.280693 374.190614 
L 962.509158 211.377555 
L 964.737623 185.16604 
L 966.966089 194.262163 
L 969.194554 242.293122 
L 971.423019 178.433035 
L 973.651485 152.542989 
L 975.87995 193.766931 
L 978.108416 213.242354 
L 980.336881 171.99096 
L 982.565346 492.567273 
" clip-path="url(#pa1306b373f)" style="fill: none; stroke: #a80000; stroke-width: 3; stroke-linecap: square"/>
   </g>
   <g id="line2d_89">
    <path d="M 762.378168 53.338891 
L 764.101747 106.447515 
L 766.687115 197.525945 
L 767.548905 207.597934 
L 768.410694 202.151211 
L 769.272483 193.731957 
L 770.134273 187.54699 
L 770.996062 184.258343 
L 771.857851 183.488757 
L 772.719641 184.715129 
L 773.58143 187.510954 
L 774.443219 191.501265 
L 776.166798 201.759588 
L 778.752166 218.316197 
L 779.613955 223.032026 
L 780.475745 227.070677 
L 781.337534 230.322999 
L 782.199323 232.822965 
L 783.061113 234.732809 
L 783.922902 236.10769 
L 784.784691 237.171775 
L 785.646481 238.015615 
L 795.987953 246.100581 
L 798.573321 247.71802 
L 808.053004 252.541232 
L 808.914793 252.857776 
L 809.776583 253.362988 
L 811.500161 254.091594 
L 812.361951 254.503352 
L 813.22374 254.707591 
L 814.085529 255.244054 
L 815.809108 255.873299 
L 816.670897 256.305629 
L 817.532687 256.469759 
L 818.394476 256.958072 
L 823.565212 258.836855 
L 824.427001 258.89622 
L 825.288791 259.449967 
L 826.15058 259.611083 
L 827.874159 260.308025 
L 828.735948 260.263095 
L 829.597737 260.862517 
L 831.321316 261.23504 
L 832.183106 261.764397 
L 833.044895 261.74815 
L 833.906684 262.296664 
L 834.768474 262.62988 
L 835.630263 262.624136 
L 836.492052 263.395838 
L 837.353842 263.490517 
L 839.07742 264.588569 
L 839.93921 264.389221 
L 840.800999 265.594498 
L 841.662788 265.949292 
L 842.524578 266.445888 
L 843.386367 267.537343 
L 844.248156 267.593586 
L 845.109946 269.116596 
L 845.971735 270.051836 
L 846.833524 270.614912 
L 847.695314 272.783062 
L 848.557103 273.504541 
L 850.280682 278.081356 
L 851.142471 278.846978 
L 852.00426 283.639345 
L 852.86605 286.190585 
L 853.727839 290.490017 
L 854.589629 297.471932 
L 855.451418 301.089484 
L 856.313207 317.385363 
L 857.174997 336.667971 
L 858.036786 381.033891 
L 858.898575 346.249665 
L 860.622154 299.216705 
L 861.483943 293.874392 
L 862.345733 318.475652 
L 863.207522 326.708069 
L 864.069311 244.015855 
L 864.931101 204.184261 
L 866.654679 145.165202 
L 868.378258 98.84059 
L 870.101837 58.32336 
L 870.963626 39.451667 
L 871.825415 31.166898 
L 872.687205 30.312727 
L 873.548994 38.952908 
L 875.272573 77.889488 
L 876.996151 121.894791 
L 877.857941 146.156182 
L 878.71973 174.438716 
L 879.58152 206.816143 
L 880.443309 248.878798 
L 881.305098 357.53203 
L 882.166888 309.733824 
L 883.028677 291.427852 
L 883.890466 298.211241 
L 885.614045 346.957942 
L 886.475834 379.45184 
L 887.337624 336.491257 
L 888.199413 317.53748 
L 889.061202 301.325666 
L 889.922992 297.749982 
L 890.784781 290.725453 
L 891.64657 286.368064 
L 892.50836 283.753449 
L 893.370149 278.894803 
L 894.231938 278.077904 
L 895.955517 273.436559 
L 896.817306 272.700374 
L 897.679096 270.531005 
L 898.540885 269.971388 
L 899.402674 269.045702 
L 900.264464 267.535951 
L 901.126253 267.491785 
L 901.988043 266.413099 
L 902.849832 265.9272 
L 903.711621 265.581102 
L 904.573411 264.382588 
L 905.4352 264.586449 
L 907.158779 263.492846 
L 908.020568 263.398789 
L 908.882357 262.627057 
L 909.744147 262.632506 
L 910.605936 262.298857 
L 911.467725 261.74992 
L 912.329515 261.765855 
L 913.191304 261.236271 
L 914.914883 260.863554 
L 915.776672 260.264079 
L 916.638461 260.308969 
L 918.36204 259.611862 
L 919.223829 259.450633 
L 920.085619 258.896756 
L 920.947408 258.837274 
L 926.979934 256.470005 
L 927.841723 256.305891 
L 929.565302 255.543542 
L 930.427091 255.244259 
L 931.28888 254.707752 
L 932.15067 254.503469 
L 944.21572 248.643879 
L 947.662878 246.668715 
L 950.248246 244.897378 
L 959.727929 237.173477 
L 960.589718 236.109251 
L 961.451507 234.733507 
L 962.313297 232.821989 
L 963.175086 230.319807 
L 964.036875 227.065474 
L 964.898665 223.026185 
L 966.622243 213.021941 
L 969.207612 196.373796 
L 970.069401 191.530273 
L 970.93119 187.51477 
L 971.79298 184.641599 
L 972.654769 183.228936 
L 973.516558 183.582023 
L 974.378348 185.951053 
L 976.101926 194.169547 
L 976.963716 192.618041 
L 977.825505 178.383158 
L 978.687294 153.163315 
L 980.410873 96.425903 
L 982.134452 46.536177 
L 982.134452 46.536177 
" clip-path="url(#pa1306b373f)" style="fill: none; stroke: #1f77b4; stroke-width: 3; stroke-linecap: square"/>
   </g>
   <g id="patch_9">
    <path d="M 750.91637 515.68 
L 750.91637 7.2 
" style="fill: none; stroke: #000000; stroke-width: 1.5; stroke-linejoin: miter; stroke-linecap: square"/>
   </g>
   <g id="patch_10">
    <path d="M 993.59625 515.68 
L 993.59625 7.2 
" style="fill: none; stroke: #000000; stroke-width: 1.5; stroke-linejoin: miter; stroke-linecap: square"/>
   </g>
   <g id="patch_11">
    <path d="M 750.91637 515.68 
L 993.59625 515.68 
" style="fill: none; stroke: #000000; stroke-width: 1.5; stroke-linejoin: miter; stroke-linecap: square"/>
   </g>
   <g id="patch_12">
    <path d="M 750.91637 7.2 
L 993.59625 7.2 
" style="fill: none; stroke: #000000; stroke-width: 1.5; stroke-linejoin: miter; stroke-linecap: square"/>
   </g>
   <g id="legend_2">
    <g id="patch_13">
     <path d="M 892.088438 44.65625 
L 986.59625 44.65625 
Q 988.59625 44.65625 988.59625 42.65625 
L 988.59625 14.2 
Q 988.59625 12.2 986.59625 12.2 
L 892.088438 12.2 
Q 890.088438 12.2 890.088438 14.2 
L 890.088438 42.65625 
Q 890.088438 44.65625 892.088438 44.65625 
z
" style="fill: #ffffff; opacity: 0.8; stroke: #cccccc; stroke-linejoin: miter"/>
    </g>
    <g id="line2d_90">
     <path d="M 894.088438 20.259375 
L 904.088438 20.259375 
L 914.088438 20.259375 
" style="fill: none; stroke: #a80000; stroke-width: 3; stroke-linecap: square"/>
    </g>
    <g id="text_32">
     <!-- 256, t=1.3 -->
     <g transform="translate(922.088438 23.759375) scale(0.1 -0.1)">
      <use xlink:href="#Georgia-32"/>
      <use xlink:href="#Georgia-35" x="55.859375"/>
      <use xlink:href="#Georgia-36" x="108.691406"/>
      <use xlink:href="#Georgia-2c" x="165.283203"/>
      <use xlink:href="#Georgia-20" x="192.236328"/>
      <use xlink:href="#Georgia-74" x="216.357422"/>
      <use xlink:href="#Georgia-3d" x="250.878906"/>
      <use xlink:href="#Georgia-31" x="315.185547"/>
      <use xlink:href="#Georgia-2e" x="358.154297"/>
      <use xlink:href="#Georgia-33" x="385.107422"/>
     </g>
    </g>
    <g id="line2d_91">
     <path d="M 894.088438 34.9875 
L 904.088438 34.9875 
L 914.088438 34.9875 
" style="fill: none; stroke: #1f77b4; stroke-width: 3; stroke-linecap: square"/>
    </g>
    <g id="text_33">
     <!-- 256, t=1.3,ggb -->
     <g transform="translate(922.088438 38.4875) scale(0.1 -0.1)">
      <use xlink:href="#Georgia-32"/>
      <use xlink:href="#Georgia-35" x="55.859375"/>
      <use xlink:href="#Georgia-36" x="108.691406"/>
      <use xlink:href="#Georgia-2c" x="165.283203"/>
      <use xlink:href="#Georgia-20" x="192.236328"/>
      <use xlink:href="#Georgia-74" x="216.357422"/>
      <use xlink:href="#Georgia-3d" x="250.878906"/>
      <use xlink:href="#Georgia-31" x="315.185547"/>
      <use xlink:href="#Georgia-2e" x="358.154297"/>
      <use xlink:href="#Georgia-33" x="385.107422"/>
      <use xlink:href="#Georgia-2c" x="440.283203"/>
      <use xlink:href="#Georgia-67" x="467.236328"/>
      <use xlink:href="#Georgia-67" x="518.164062"/>
      <use xlink:href="#Georgia-62" x="569.091797"/>
     </g>
    </g>
   </g>
  </g>
 </g>
 <defs>
  <clipPath id="p30f1bc82ea">
   <rect x="70.53125" y="7.2" width="606.6997" height="508.48"/>
  </clipPath>
  <clipPath id="pa1306b373f">
   <rect x="750.91637" y="7.2" width="242.67988" height="508.48"/>
  </clipPath>
 </defs>
</svg>
