<?xml version="1.0" encoding="utf-8" standalone="no"?>
<!DOCTYPE svg PUBLIC "-//W3C//DTD SVG 1.1//EN"
  "http://www.w3.org/Graphics/SVG/1.1/DTD/svg11.dtd">
<svg xmlns:xlink="http://www.w3.org/1999/xlink" width="1000.79625pt" height="568.90125pt" viewBox="0 0 1000.79625 568.90125" xmlns="http://www.w3.org/2000/svg" version="1.1">
 <metadata>
  <rdf:RDF xmlns:dc="http://purl.org/dc/elements/1.1/" xmlns:cc="http://creativecommons.org/ns#" xmlns:rdf="http://www.w3.org/1999/02/22-rdf-syntax-ns#">
   <cc:Work>
    <dc:type rdf:resource="http://purl.org/dc/dcmitype/StillImage"/>
    <dc:date>2023-11-29T03:33:25.600951</dc:date>
    <dc:format>image/svg+xml</dc:format>
    <dc:creator>
     <cc:Agent>
      <dc:title>Matplotlib v3.6.2, https://matplotlib.org/</dc:title>
     </cc:Agent>
    </dc:creator>
   </cc:Work>
  </rdf:RDF>
 </metadata>
 <defs>
  <style type="text/css">*{stroke-linejoin: round; stroke-linecap: butt}</style>
 </defs>
 <g id="figure_1">
  <g id="patch_1">
   <path d="M 0 568.90125 
L 1000.79625 568.90125 
L 1000.79625 0 
L 0 0 
L 0 568.90125 
z
" style="fill: none"/>
  </g>
  <g id="axes_1">
   <g id="patch_2">
    <path d="M 70.53125 515.68 
L 673.98624 515.68 
L 673.98624 7.2 
L 70.53125 7.2 
L 70.53125 515.68 
z
" style="fill: none"/>
   </g>
   <g id="matplotlib.axis_1">
    <g id="xtick_1">
     <g id="line2d_1">
      <path d="M 97.961022 515.68 
L 97.961022 7.2 
" clip-path="url(#p37afc0364b)" style="fill: none; stroke: #b0b0b0; stroke-width: 0.8; stroke-linecap: square"/>
     </g>
     <g id="line2d_2">
      <defs>
       <path id="m3dded53768" d="M 0 0 
L 0 3.5 
" style="stroke: #000000; stroke-width: 0.8"/>
      </defs>
      <g>
       <use xlink:href="#m3dded53768" x="97.961022" y="515.68" style="stroke: #000000; stroke-width: 0.8"/>
      </g>
     </g>
     <g id="text_1">
      <!-- 0 -->
      <g transform="translate(93.051022 534.775) scale(0.16 -0.16)">
       <defs>
        <path id="Georgia-30" d="M 3209 2919 
Q 3409 2678 3507 2354 
Q 3606 2031 3606 1678 
Q 3606 1253 3484 917 
Q 3363 581 3150 359 
Q 2931 131 2631 15 
Q 2331 -100 1963 -100 
Q 1559 -100 1243 34 
Q 928 169 731 403 
Q 525 647 423 973 
Q 322 1300 322 1678 
Q 322 2050 420 2362 
Q 519 2675 728 2928 
Q 928 3172 1243 3312 
Q 1559 3453 1966 3453 
Q 2394 3453 2700 3309 
Q 3006 3166 3209 2919 
z
M 2916 1678 
Q 2916 2422 2661 2831 
Q 2406 3241 1969 3241 
Q 1525 3241 1269 2831 
Q 1013 2422 1013 1678 
Q 1013 972 1258 542 
Q 1503 113 1963 113 
Q 2422 113 2669 542 
Q 2916 972 2916 1678 
z
" transform="scale(0.015625)"/>
       </defs>
       <use xlink:href="#Georgia-30"/>
      </g>
     </g>
    </g>
    <g id="xtick_2">
     <g id="line2d_3">
      <path d="M 185.272699 515.68 
L 185.272699 7.2 
" clip-path="url(#p37afc0364b)" style="fill: none; stroke: #b0b0b0; stroke-width: 0.8; stroke-linecap: square"/>
     </g>
     <g id="line2d_4">
      <g>
       <use xlink:href="#m3dded53768" x="185.272699" y="515.68" style="stroke: #000000; stroke-width: 0.8"/>
      </g>
     </g>
     <g id="text_2">
      <!-- 1 -->
      <g transform="translate(181.835199 534.775) scale(0.16 -0.16)">
       <defs>
        <path id="Georgia-31" d="M 2528 0 
L 422 0 
L 422 222 
Q 516 228 714 248 
Q 913 269 988 291 
Q 1084 322 1136 392 
Q 1188 463 1188 603 
L 1188 2797 
L 409 2797 
L 409 3059 
L 581 3059 
Q 919 3059 1186 3184 
Q 1453 3309 1569 3453 
L 1828 3453 
Q 1819 3250 1809 2978 
Q 1800 2706 1800 2491 
L 1800 638 
Q 1800 528 1848 442 
Q 1897 356 1988 316 
Q 2069 281 2253 253 
Q 2438 225 2528 222 
L 2528 0 
z
" transform="scale(0.015625)"/>
       </defs>
       <use xlink:href="#Georgia-31"/>
      </g>
     </g>
    </g>
    <g id="xtick_3">
     <g id="line2d_5">
      <path d="M 272.584376 515.68 
L 272.584376 7.2 
" clip-path="url(#p37afc0364b)" style="fill: none; stroke: #b0b0b0; stroke-width: 0.8; stroke-linecap: square"/>
     </g>
     <g id="line2d_6">
      <g>
       <use xlink:href="#m3dded53768" x="272.584376" y="515.68" style="stroke: #000000; stroke-width: 0.8"/>
      </g>
     </g>
     <g id="text_3">
      <!-- 2 -->
      <g transform="translate(268.115626 534.775) scale(0.16 -0.16)">
       <defs>
        <path id="Georgia-32" d="M 3272 0 
L 344 0 
L 344 425 
Q 428 522 578 642 
Q 728 763 934 903 
Q 1059 988 1234 1088 
Q 1409 1188 1631 1306 
Q 1878 1438 2011 1538 
Q 2144 1638 2253 1784 
Q 2325 1881 2369 2026 
Q 2413 2172 2413 2441 
Q 2413 2831 2203 3014 
Q 1994 3197 1666 3197 
Q 1463 3197 1281 3117 
Q 1100 3038 1009 2897 
Q 1031 2797 1064 2659 
Q 1097 2522 1097 2391 
Q 1097 2272 998 2180 
Q 900 2088 706 2088 
Q 550 2088 465 2195 
Q 381 2303 381 2484 
Q 381 2653 475 2823 
Q 569 2994 744 3138 
Q 916 3278 1169 3365 
Q 1422 3453 1716 3453 
Q 2356 3453 2732 3167 
Q 3109 2881 3109 2403 
Q 3109 2175 3042 1987 
Q 2975 1800 2825 1656 
Q 2659 1497 2437 1383 
Q 2216 1269 1759 1066 
Q 1488 944 1253 811 
Q 1019 678 869 553 
L 3272 553 
L 3272 0 
z
" transform="scale(0.015625)"/>
       </defs>
       <use xlink:href="#Georgia-32"/>
      </g>
     </g>
    </g>
    <g id="xtick_4">
     <g id="line2d_7">
      <path d="M 359.896053 515.68 
L 359.896053 7.2 
" clip-path="url(#p37afc0364b)" style="fill: none; stroke: #b0b0b0; stroke-width: 0.8; stroke-linecap: square"/>
     </g>
     <g id="line2d_8">
      <g>
       <use xlink:href="#m3dded53768" x="359.896053" y="515.68" style="stroke: #000000; stroke-width: 0.8"/>
      </g>
     </g>
     <g id="text_4">
      <!-- 3 -->
      <g transform="translate(355.482303 534.775) scale(0.16 -0.16)">
       <defs>
        <path id="Georgia-33" d="M 1522 -1141 
Q 1228 -1141 984 -1067 
Q 741 -994 566 -869 
Q 391 -744 295 -581 
Q 200 -419 200 -247 
Q 200 -94 275 29 
Q 350 153 516 153 
Q 703 153 801 61 
Q 900 -31 900 -150 
Q 900 -250 867 -403 
Q 834 -556 816 -622 
Q 838 -650 895 -697 
Q 953 -744 1038 -781 
Q 1138 -828 1247 -856 
Q 1356 -884 1556 -884 
Q 1744 -884 1917 -821 
Q 2091 -759 2222 -622 
Q 2359 -478 2436 -286 
Q 2513 -94 2513 219 
Q 2513 388 2477 553 
Q 2441 719 2344 841 
Q 2247 963 2080 1030 
Q 1913 1097 1656 1097 
L 1247 1097 
L 1247 1456 
L 1519 1456 
Q 1950 1456 2140 1693 
Q 2331 1931 2331 2409 
Q 2331 2800 2147 2998 
Q 1963 3197 1625 3197 
Q 1463 3197 1358 3158 
Q 1253 3119 1188 3081 
Q 1109 3038 1059 2984 
Q 1009 2931 984 2906 
Q 1006 2806 1037 2661 
Q 1069 2516 1069 2384 
Q 1069 2269 970 2176 
Q 872 2084 681 2084 
Q 516 2084 439 2203 
Q 363 2322 363 2478 
Q 363 2641 453 2809 
Q 544 2978 722 3125 
Q 900 3272 1156 3362 
Q 1413 3453 1747 3453 
Q 2131 3453 2382 3339 
Q 2634 3225 2778 3063 
Q 2919 2903 2972 2728 
Q 3025 2553 3025 2428 
Q 3025 2272 2981 2114 
Q 2938 1956 2838 1822 
Q 2728 1675 2548 1554 
Q 2369 1434 2097 1359 
L 2097 1309 
Q 2272 1294 2470 1231 
Q 2669 1169 2828 1047 
Q 2994 919 3100 717 
Q 3206 516 3206 206 
Q 3206 -394 2725 -767 
Q 2244 -1141 1522 -1141 
z
" transform="scale(0.015625)"/>
       </defs>
       <use xlink:href="#Georgia-33"/>
      </g>
     </g>
    </g>
    <g id="xtick_5">
     <g id="line2d_9">
      <path d="M 447.20773 515.68 
L 447.20773 7.2 
" clip-path="url(#p37afc0364b)" style="fill: none; stroke: #b0b0b0; stroke-width: 0.8; stroke-linecap: square"/>
     </g>
     <g id="line2d_10">
      <g>
       <use xlink:href="#m3dded53768" x="447.20773" y="515.68" style="stroke: #000000; stroke-width: 0.8"/>
      </g>
     </g>
     <g id="text_5">
      <!-- 4 -->
      <g transform="translate(442.68773 534.775) scale(0.16 -0.16)">
       <defs>
        <path id="Georgia-34" d="M 3388 281 
L 2753 281 
L 2753 -1141 
L 2153 -1141 
L 2153 281 
L 153 281 
L 153 763 
L 2344 3434 
L 2753 3434 
L 2753 691 
L 3388 691 
L 3388 281 
z
M 2153 691 
L 2153 2738 
L 466 691 
L 2153 691 
z
" transform="scale(0.015625)"/>
       </defs>
       <use xlink:href="#Georgia-34"/>
      </g>
     </g>
    </g>
    <g id="xtick_6">
     <g id="line2d_11">
      <path d="M 534.519406 515.68 
L 534.519406 7.2 
" clip-path="url(#p37afc0364b)" style="fill: none; stroke: #b0b0b0; stroke-width: 0.8; stroke-linecap: square"/>
     </g>
     <g id="line2d_12">
      <g>
       <use xlink:href="#m3dded53768" x="534.519406" y="515.68" style="stroke: #000000; stroke-width: 0.8"/>
      </g>
     </g>
     <g id="text_6">
      <!-- 5 -->
      <g transform="translate(530.293156 534.775) scale(0.16 -0.16)">
       <defs>
        <path id="Georgia-35" d="M 2634 1466 
Q 2841 1303 2977 1047 
Q 3113 791 3113 406 
Q 3113 -266 2653 -703 
Q 2194 -1141 1488 -1141 
Q 941 -1141 562 -881 
Q 184 -622 184 -278 
Q 184 -119 262 0 
Q 341 119 503 119 
Q 691 119 789 20 
Q 888 -78 888 -194 
Q 888 -294 853 -444 
Q 819 -594 800 -666 
Q 825 -688 881 -725 
Q 938 -763 1016 -797 
Q 1097 -831 1214 -857 
Q 1331 -884 1488 -884 
Q 1688 -884 1866 -803 
Q 2044 -722 2166 -563 
Q 2300 -388 2367 -164 
Q 2434 59 2434 403 
Q 2434 844 2189 1133 
Q 1944 1422 1544 1422 
Q 1294 1422 1076 1328 
Q 859 1234 688 1016 
L 478 1097 
L 744 3353 
L 2981 3353 
L 2981 2797 
L 997 2797 
L 834 1472 
Q 975 1572 1204 1670 
Q 1434 1769 1709 1769 
Q 1938 1769 2183 1698 
Q 2428 1628 2634 1466 
z
" transform="scale(0.015625)"/>
       </defs>
       <use xlink:href="#Georgia-35"/>
      </g>
     </g>
    </g>
    <g id="xtick_7">
     <g id="line2d_13">
      <path d="M 621.831083 515.68 
L 621.831083 7.2 
" clip-path="url(#p37afc0364b)" style="fill: none; stroke: #b0b0b0; stroke-width: 0.8; stroke-linecap: square"/>
     </g>
     <g id="line2d_14">
      <g>
       <use xlink:href="#m3dded53768" x="621.831083" y="515.68" style="stroke: #000000; stroke-width: 0.8"/>
      </g>
     </g>
     <g id="text_7">
      <!-- 6 -->
      <g transform="translate(617.303583 534.775) scale(0.16 -0.16)">
       <defs>
        <path id="Georgia-36" d="M 3359 1441 
Q 3359 1116 3242 831 
Q 3125 547 2928 347 
Q 2700 119 2423 9 
Q 2147 -100 1847 -100 
Q 1500 -100 1219 28 
Q 938 156 741 391 
Q 541 628 431 972 
Q 322 1316 322 1744 
Q 322 2859 986 3625 
Q 1650 4391 2766 4544 
L 2822 4263 
L 2541 4213 
Q 1863 3994 1492 3531 
Q 1122 3069 1013 2409 
Q 1281 2644 1543 2741 
Q 1806 2838 2097 2838 
Q 2619 2838 2989 2438 
Q 3359 2038 3359 1441 
z
M 2681 1356 
Q 2681 1863 2448 2169 
Q 2216 2475 1825 2475 
Q 1591 2475 1389 2387 
Q 1188 2300 1000 2094 
Q 997 2056 990 1920 
Q 984 1784 984 1706 
Q 984 975 1223 561 
Q 1463 147 1853 147 
Q 2225 147 2453 470 
Q 2681 794 2681 1356 
z
" transform="scale(0.015625)"/>
       </defs>
       <use xlink:href="#Georgia-36"/>
      </g>
     </g>
    </g>
    <g id="text_8">
     <!-- $x$ -->
     <g transform="translate(366.258745 557.36375) scale(0.2 -0.2)">
      <defs>
       <path id="DejaVuSans-Oblique-78" d="M 3841 3500 
L 2234 1784 
L 3219 0 
L 2559 0 
L 1819 1388 
L 531 0 
L -166 0 
L 1556 1844 
L 641 3500 
L 1300 3500 
L 1972 2234 
L 3144 3500 
L 3841 3500 
z
" transform="scale(0.015625)"/>
      </defs>
      <use xlink:href="#DejaVuSans-Oblique-78" transform="translate(0 0.3125)"/>
     </g>
    </g>
   </g>
   <g id="matplotlib.axis_2">
    <g id="ytick_1">
     <g id="line2d_15">
      <path d="M 70.53125 472.510125 
L 673.98624 472.510125 
" clip-path="url(#p37afc0364b)" style="fill: none; stroke: #b0b0b0; stroke-width: 0.8; stroke-linecap: square"/>
     </g>
     <g id="line2d_16">
      <defs>
       <path id="m1d22de5c7d" d="M 0 0 
L -3.5 0 
" style="stroke: #000000; stroke-width: 0.8"/>
      </defs>
      <g>
       <use xlink:href="#m1d22de5c7d" x="70.53125" y="472.510125" style="stroke: #000000; stroke-width: 0.8"/>
      </g>
     </g>
     <g id="text_9">
      <!-- −1.0 -->
      <g transform="translate(32.23375 478.557625) scale(0.16 -0.16)">
       <defs>
        <path id="Georgia-2212" d="M 3650 1553 
L 466 1553 
L 466 1944 
L 3650 1944 
L 3650 1553 
z
" transform="scale(0.015625)"/>
        <path id="Georgia-2e" d="M 1297 359 
Q 1297 184 1170 60 
Q 1044 -63 869 -63 
Q 694 -63 567 60 
Q 441 184 441 359 
Q 441 534 567 661 
Q 694 788 869 788 
Q 1044 788 1170 661 
Q 1297 534 1297 359 
z
" transform="scale(0.015625)"/>
       </defs>
       <use xlink:href="#Georgia-2212"/>
       <use xlink:href="#Georgia-31" x="64.306641"/>
       <use xlink:href="#Georgia-2e" x="107.275391"/>
       <use xlink:href="#Georgia-30" x="134.228516"/>
      </g>
     </g>
    </g>
    <g id="ytick_2">
     <g id="line2d_17">
      <path d="M 70.53125 366.975062 
L 673.98624 366.975062 
" clip-path="url(#p37afc0364b)" style="fill: none; stroke: #b0b0b0; stroke-width: 0.8; stroke-linecap: square"/>
     </g>
     <g id="line2d_18">
      <g>
       <use xlink:href="#m1d22de5c7d" x="70.53125" y="366.975062" style="stroke: #000000; stroke-width: 0.8"/>
      </g>
     </g>
     <g id="text_10">
      <!-- −0.5 -->
      <g transform="translate(30.65625 373.022562) scale(0.16 -0.16)">
       <use xlink:href="#Georgia-2212"/>
       <use xlink:href="#Georgia-30" x="64.306641"/>
       <use xlink:href="#Georgia-2e" x="125.683594"/>
       <use xlink:href="#Georgia-35" x="152.636719"/>
      </g>
     </g>
    </g>
    <g id="ytick_3">
     <g id="line2d_19">
      <path d="M 70.53125 261.44 
L 673.98624 261.44 
" clip-path="url(#p37afc0364b)" style="fill: none; stroke: #b0b0b0; stroke-width: 0.8; stroke-linecap: square"/>
     </g>
     <g id="line2d_20">
      <g>
       <use xlink:href="#m1d22de5c7d" x="70.53125" y="261.44" style="stroke: #000000; stroke-width: 0.8"/>
      </g>
     </g>
     <g id="text_11">
      <!-- 0.0 -->
      <g transform="translate(39.57875 267.4875) scale(0.16 -0.16)">
       <use xlink:href="#Georgia-30"/>
       <use xlink:href="#Georgia-2e" x="61.376953"/>
       <use xlink:href="#Georgia-30" x="88.330078"/>
      </g>
     </g>
    </g>
    <g id="ytick_4">
     <g id="line2d_21">
      <path d="M 70.53125 155.904938 
L 673.98624 155.904938 
" clip-path="url(#p37afc0364b)" style="fill: none; stroke: #b0b0b0; stroke-width: 0.8; stroke-linecap: square"/>
     </g>
     <g id="line2d_22">
      <g>
       <use xlink:href="#m1d22de5c7d" x="70.53125" y="155.904938" style="stroke: #000000; stroke-width: 0.8"/>
      </g>
     </g>
     <g id="text_12">
      <!-- 0.5 -->
      <g transform="translate(40.94625 161.952438) scale(0.16 -0.16)">
       <use xlink:href="#Georgia-30"/>
       <use xlink:href="#Georgia-2e" x="61.376953"/>
       <use xlink:href="#Georgia-35" x="88.330078"/>
      </g>
     </g>
    </g>
    <g id="ytick_5">
     <g id="line2d_23">
      <path d="M 70.53125 50.369875 
L 673.98624 50.369875 
" clip-path="url(#p37afc0364b)" style="fill: none; stroke: #b0b0b0; stroke-width: 0.8; stroke-linecap: square"/>
     </g>
     <g id="line2d_24">
      <g>
       <use xlink:href="#m1d22de5c7d" x="70.53125" y="50.369875" style="stroke: #000000; stroke-width: 0.8"/>
      </g>
     </g>
     <g id="text_13">
      <!-- 1.0 -->
      <g transform="translate(42.52375 56.417375) scale(0.16 -0.16)">
       <use xlink:href="#Georgia-31"/>
       <use xlink:href="#Georgia-2e" x="42.96875"/>
       <use xlink:href="#Georgia-30" x="69.921875"/>
      </g>
     </g>
    </g>
    <g id="text_14">
     <!-- $y$ -->
     <g transform="translate(22.31875 267.44) rotate(-90) scale(0.2 -0.2)">
      <defs>
       <path id="DejaVuSans-Oblique-79" d="M 1588 -325 
Q 1188 -997 936 -1164 
Q 684 -1331 294 -1331 
L -159 -1331 
L -63 -850 
L 269 -850 
Q 509 -850 678 -719 
Q 847 -588 1056 -206 
L 1234 128 
L 459 3500 
L 1069 3500 
L 1650 819 
L 3256 3500 
L 3859 3500 
L 1588 -325 
z
" transform="scale(0.015625)"/>
      </defs>
      <use xlink:href="#DejaVuSans-Oblique-79" transform="translate(0 0.3125)"/>
     </g>
    </g>
   </g>
   <g id="line2d_25">
    <path d="M 97.961022 261.44 
L 115.533649 219.245565 
L 124.869107 197.416321 
L 132.557131 179.977578 
L 139.696011 164.346827 
L 145.736602 151.623441 
L 151.777192 139.425477 
L 157.268638 128.841527 
L 162.210939 119.763143 
L 167.153241 111.138592 
L 171.546397 103.87569 
L 175.939554 97.011606 
L 180.332711 90.563713 
L 184.725867 84.548334 
L 188.56988 79.65167 
L 192.413892 75.107312 
L 196.257904 70.924068 
L 200.101916 67.110044 
L 203.396783 64.140374 
L 206.691651 61.451638 
L 209.986519 59.047666 
L 213.281386 56.93188 
L 216.576254 55.107294 
L 219.871121 53.576505 
L 222.616844 52.526861 
L 225.362567 51.683802 
L 228.10829 51.048162 
L 230.854013 50.620569 
L 233.599736 50.401446 
L 236.345459 50.391009 
L 239.091182 50.58927 
L 241.836905 50.996032 
L 244.582628 51.610892 
L 247.328351 52.433243 
L 250.074074 53.462272 
L 252.819797 54.696961 
L 256.114664 56.448325 
L 259.409532 58.491577 
L 262.704399 60.823807 
L 265.999267 63.441696 
L 269.294134 66.341514 
L 272.589002 69.519132 
L 275.883869 72.970028 
L 279.727881 77.334886 
L 283.571894 82.056541 
L 287.415906 87.125842 
L 291.259918 92.532964 
L 295.653075 99.11272 
L 300.046231 106.103349 
L 304.439388 113.487159 
L 309.381689 122.240609 
L 314.323991 131.439957 
L 319.815436 142.148534 
L 325.306882 153.328842 
L 331.347473 166.119213 
L 337.937208 180.590312 
L 345.625232 198.049124 
L 354.411546 218.595413 
L 365.943582 246.186825 
L 392.302522 309.470013 
L 401.088836 329.875223 
L 408.77686 347.168662 
L 415.366595 361.467868 
L 421.407186 374.077099 
L 426.898631 385.07392 
L 432.390077 395.581837 
L 437.332379 404.586563 
L 442.27468 413.132748 
L 446.667837 420.322243 
L 451.060993 427.109583 
L 455.45415 433.47759 
L 459.298162 438.692913 
L 463.142174 443.564719 
L 466.986186 448.083567 
L 470.830199 452.240698 
L 474.125066 455.509932 
L 477.419934 458.502828 
L 480.714801 461.215127 
L 484.009669 463.642966 
L 487.304536 465.782888 
L 490.599404 467.631846 
L 493.894271 469.187207 
L 496.639994 470.257456 
L 499.385717 471.121214 
L 502.13144 471.777628 
L 504.877163 472.226048 
L 507.622886 472.466031 
L 510.368609 472.49734 
L 513.114332 472.319944 
L 515.860055 471.934017 
L 518.605778 471.339943 
L 521.351501 470.538307 
L 524.097224 469.529904 
L 526.842947 468.31573 
L 530.137814 466.588808 
L 533.432682 464.569774 
L 536.727549 462.261504 
L 540.022417 459.667284 
L 543.317284 456.790808 
L 546.612152 453.636172 
L 549.90702 450.207867 
L 553.751032 445.868826 
L 557.595044 441.172361 
L 561.439056 436.127575 
L 565.283068 430.744242 
L 569.676225 424.19073 
L 574.069381 417.225273 
L 578.462538 409.865499 
L 583.404839 401.137657 
L 588.347141 391.962321 
L 593.838587 381.278459 
L 599.330033 370.120702 
L 605.370623 357.352533 
L 611.960358 342.902422 
L 619.648382 325.463679 
L 628.434696 304.934315 
L 639.966732 277.355123 
L 646.556467 261.44 
L 646.556467 261.44 
" clip-path="url(#p37afc0364b)" style="fill: none; stroke: #000000; stroke-linecap: square"/>
   </g>
   <g id="line2d_26">
    <defs>
     <path id="maec084c178" d="M 0 0.4 
C 0.106081 0.4 0.207832 0.357853 0.282843 0.282843 
C 0.357853 0.207832 0.4 0.106081 0.4 0 
C 0.4 -0.106081 0.357853 -0.207832 0.282843 -0.282843 
C 0.207832 -0.357853 0.106081 -0.4 0 -0.4 
C -0.106081 -0.4 -0.207832 -0.357853 -0.282843 -0.282843 
C -0.357853 -0.207832 -0.4 -0.106081 -0.4 0 
C -0.4 0.106081 -0.357853 0.207832 -0.282843 0.282843 
C -0.207832 0.357853 -0.106081 0.4 0 0.4 
z
" style="stroke: #000000"/>
    </defs>
    <g clip-path="url(#p37afc0364b)">
     <use xlink:href="#maec084c178" x="97.961022" y="261.44" style="stroke: #000000"/>
     <use xlink:href="#maec084c178" x="103.50239" y="253.288696" style="stroke: #000000"/>
     <use xlink:href="#maec084c178" x="109.043759" y="247.384605" style="stroke: #000000"/>
     <use xlink:href="#maec084c178" x="114.585127" y="241.570852" style="stroke: #000000"/>
     <use xlink:href="#maec084c178" x="120.126495" y="235.781757" style="stroke: #000000"/>
     <use xlink:href="#maec084c178" x="125.667863" y="230.007237" style="stroke: #000000"/>
     <use xlink:href="#maec084c178" x="131.209231" y="224.24619" style="stroke: #000000"/>
     <use xlink:href="#maec084c178" x="136.750599" y="218.499556" style="stroke: #000000"/>
     <use xlink:href="#maec084c178" x="142.291967" y="212.768863" style="stroke: #000000"/>
     <use xlink:href="#maec084c178" x="147.833335" y="207.05585" style="stroke: #000000"/>
     <use xlink:href="#maec084c178" x="153.374704" y="201.362377" style="stroke: #000000"/>
     <use xlink:href="#maec084c178" x="158.916072" y="195.690396" style="stroke: #000000"/>
     <use xlink:href="#maec084c178" x="164.45744" y="190.041955" style="stroke: #000000"/>
     <use xlink:href="#maec084c178" x="169.998808" y="184.419203" style="stroke: #000000"/>
     <use xlink:href="#maec084c178" x="175.540176" y="178.824403" style="stroke: #000000"/>
     <use xlink:href="#maec084c178" x="181.081544" y="173.259948" style="stroke: #000000"/>
     <use xlink:href="#maec084c178" x="186.622912" y="167.72837" style="stroke: #000000"/>
     <use xlink:href="#maec084c178" x="192.16428" y="162.232366" style="stroke: #000000"/>
     <use xlink:href="#maec084c178" x="197.705649" y="156.774813" style="stroke: #000000"/>
     <use xlink:href="#maec084c178" x="203.247017" y="151.358792" style="stroke: #000000"/>
     <use xlink:href="#maec084c178" x="208.788385" y="145.987616" style="stroke: #000000"/>
     <use xlink:href="#maec084c178" x="214.329753" y="140.664857" style="stroke: #000000"/>
     <use xlink:href="#maec084c178" x="219.871121" y="135.394387" style="stroke: #000000"/>
     <use xlink:href="#maec084c178" x="225.412489" y="130.180413" style="stroke: #000000"/>
     <use xlink:href="#maec084c178" x="230.953857" y="125.027529" style="stroke: #000000"/>
     <use xlink:href="#maec084c178" x="236.495226" y="119.940768" style="stroke: #000000"/>
     <use xlink:href="#maec084c178" x="242.036594" y="114.925675" style="stroke: #000000"/>
     <use xlink:href="#maec084c178" x="247.577962" y="109.988383" style="stroke: #000000"/>
     <use xlink:href="#maec084c178" x="253.11933" y="105.13571" style="stroke: #000000"/>
     <use xlink:href="#maec084c178" x="258.660698" y="100.375274" style="stroke: #000000"/>
     <use xlink:href="#maec084c178" x="264.202066" y="95.715639" style="stroke: #000000"/>
     <use xlink:href="#maec084c178" x="269.743434" y="91.166488" style="stroke: #000000"/>
     <use xlink:href="#maec084c178" x="275.284802" y="86.738846" style="stroke: #000000"/>
     <use xlink:href="#maec084c178" x="280.826171" y="82.445349" style="stroke: #000000"/>
     <use xlink:href="#maec084c178" x="286.367539" y="78.300606" style="stroke: #000000"/>
     <use xlink:href="#maec084c178" x="291.908907" y="74.321651" style="stroke: #000000"/>
     <use xlink:href="#maec084c178" x="297.450275" y="70.528542" style="stroke: #000000"/>
     <use xlink:href="#maec084c178" x="302.991643" y="66.945168" style="stroke: #000000"/>
     <use xlink:href="#maec084c178" x="308.533011" y="63.600341" style="stroke: #000000"/>
     <use xlink:href="#maec084c178" x="314.074379" y="60.529325" style="stroke: #000000"/>
     <use xlink:href="#maec084c178" x="319.615748" y="57.776025" style="stroke: #000000"/>
     <use xlink:href="#maec084c178" x="325.157116" y="55.396224" style="stroke: #000000"/>
     <use xlink:href="#maec084c178" x="330.698484" y="53.46254" style="stroke: #000000"/>
     <use xlink:href="#maec084c178" x="336.239852" y="52.072395" style="stroke: #000000"/>
     <use xlink:href="#maec084c178" x="341.78122" y="51.361539" style="stroke: #000000"/>
     <use xlink:href="#maec084c178" x="347.322588" y="51.528745" style="stroke: #000000"/>
     <use xlink:href="#maec084c178" x="352.863956" y="52.885502" style="stroke: #000000"/>
     <use xlink:href="#maec084c178" x="358.405324" y="55.970566" style="stroke: #000000"/>
     <use xlink:href="#maec084c178" x="363.946693" y="61.873453" style="stroke: #000000"/>
     <use xlink:href="#maec084c178" x="369.488061" y="73.4968" style="stroke: #000000"/>
     <use xlink:href="#maec084c178" x="375.029429" y="449.3832" style="stroke: #000000"/>
     <use xlink:href="#maec084c178" x="380.570797" y="461.006547" style="stroke: #000000"/>
     <use xlink:href="#maec084c178" x="386.112165" y="466.909434" style="stroke: #000000"/>
     <use xlink:href="#maec084c178" x="391.653533" y="469.994498" style="stroke: #000000"/>
     <use xlink:href="#maec084c178" x="397.194901" y="471.351255" style="stroke: #000000"/>
     <use xlink:href="#maec084c178" x="402.736269" y="471.518461" style="stroke: #000000"/>
     <use xlink:href="#maec084c178" x="408.277638" y="470.807605" style="stroke: #000000"/>
     <use xlink:href="#maec084c178" x="413.819006" y="469.41746" style="stroke: #000000"/>
     <use xlink:href="#maec084c178" x="419.360374" y="467.483776" style="stroke: #000000"/>
     <use xlink:href="#maec084c178" x="424.901742" y="465.103975" style="stroke: #000000"/>
     <use xlink:href="#maec084c178" x="430.44311" y="462.350675" style="stroke: #000000"/>
     <use xlink:href="#maec084c178" x="435.984478" y="459.279659" style="stroke: #000000"/>
     <use xlink:href="#maec084c178" x="441.525846" y="455.934832" style="stroke: #000000"/>
     <use xlink:href="#maec084c178" x="447.067215" y="452.351458" style="stroke: #000000"/>
     <use xlink:href="#maec084c178" x="452.608583" y="448.558349" style="stroke: #000000"/>
     <use xlink:href="#maec084c178" x="458.149951" y="444.579394" style="stroke: #000000"/>
     <use xlink:href="#maec084c178" x="463.691319" y="440.434651" style="stroke: #000000"/>
     <use xlink:href="#maec084c178" x="469.232687" y="436.141154" style="stroke: #000000"/>
     <use xlink:href="#maec084c178" x="474.774055" y="431.713512" style="stroke: #000000"/>
     <use xlink:href="#maec084c178" x="480.315423" y="427.164361" style="stroke: #000000"/>
     <use xlink:href="#maec084c178" x="485.856791" y="422.504726" style="stroke: #000000"/>
     <use xlink:href="#maec084c178" x="491.39816" y="417.74429" style="stroke: #000000"/>
     <use xlink:href="#maec084c178" x="496.939528" y="412.891617" style="stroke: #000000"/>
     <use xlink:href="#maec084c178" x="502.480896" y="407.954325" style="stroke: #000000"/>
     <use xlink:href="#maec084c178" x="508.022264" y="402.939232" style="stroke: #000000"/>
     <use xlink:href="#maec084c178" x="513.563632" y="397.852471" style="stroke: #000000"/>
     <use xlink:href="#maec084c178" x="519.105" y="392.699587" style="stroke: #000000"/>
     <use xlink:href="#maec084c178" x="524.646368" y="387.485613" style="stroke: #000000"/>
     <use xlink:href="#maec084c178" x="530.187737" y="382.215143" style="stroke: #000000"/>
     <use xlink:href="#maec084c178" x="535.729105" y="376.892384" style="stroke: #000000"/>
     <use xlink:href="#maec084c178" x="541.270473" y="371.521208" style="stroke: #000000"/>
     <use xlink:href="#maec084c178" x="546.811841" y="366.105187" style="stroke: #000000"/>
     <use xlink:href="#maec084c178" x="552.353209" y="360.647634" style="stroke: #000000"/>
     <use xlink:href="#maec084c178" x="557.894577" y="355.15163" style="stroke: #000000"/>
     <use xlink:href="#maec084c178" x="563.435945" y="349.620052" style="stroke: #000000"/>
     <use xlink:href="#maec084c178" x="568.977313" y="344.055597" style="stroke: #000000"/>
     <use xlink:href="#maec084c178" x="574.518682" y="338.460797" style="stroke: #000000"/>
     <use xlink:href="#maec084c178" x="580.06005" y="332.838045" style="stroke: #000000"/>
     <use xlink:href="#maec084c178" x="585.601418" y="327.189604" style="stroke: #000000"/>
     <use xlink:href="#maec084c178" x="591.142786" y="321.517623" style="stroke: #000000"/>
     <use xlink:href="#maec084c178" x="596.684154" y="315.82415" style="stroke: #000000"/>
     <use xlink:href="#maec084c178" x="602.225522" y="310.111137" style="stroke: #000000"/>
     <use xlink:href="#maec084c178" x="607.76689" y="304.380444" style="stroke: #000000"/>
     <use xlink:href="#maec084c178" x="613.308258" y="298.63381" style="stroke: #000000"/>
     <use xlink:href="#maec084c178" x="618.849627" y="292.872763" style="stroke: #000000"/>
     <use xlink:href="#maec084c178" x="624.390995" y="287.098243" style="stroke: #000000"/>
     <use xlink:href="#maec084c178" x="629.932363" y="281.309148" style="stroke: #000000"/>
     <use xlink:href="#maec084c178" x="635.473731" y="275.495395" style="stroke: #000000"/>
     <use xlink:href="#maec084c178" x="641.015099" y="269.591304" style="stroke: #000000"/>
     <use xlink:href="#maec084c178" x="646.556467" y="261.44" style="stroke: #000000"/>
    </g>
   </g>
   <g id="line2d_27">
    <path d="M 97.961022 261.44 
L 103.50239 255.649777 
L 109.043759 249.859952 
L 114.585127 244.070741 
L 120.126495 238.2821 
L 125.667863 232.493811 
L 131.209231 226.705807 
L 136.750599 220.918709 
L 142.291967 215.134535 
L 147.833335 209.357486 
L 153.374704 203.594654 
L 158.916072 197.856486 
L 164.45744 192.156834 
L 169.998808 186.512431 
L 175.540176 180.941686 
L 181.081544 175.462771 
L 186.622912 170.091044 
L 192.16428 164.835992 
L 197.705649 159.697951 
L 203.247017 154.664982 
L 208.788385 149.710351 
L 214.329753 144.791091 
L 219.871121 139.848117 
L 225.412489 134.808302 
L 230.953857 129.588798 
L 236.495226 124.10369 
L 242.036594 118.272878 
L 247.577962 112.032799 
L 253.11933 105.348366 
L 258.660698 98.225253 
L 264.202066 90.721476 
L 269.743434 82.957089 
L 275.284802 75.120823 
L 280.826171 67.472553 
L 286.367539 60.340743 
L 291.908907 54.114279 
L 297.450275 49.228554 
L 302.991643 46.14614 
L 308.533011 45.33285 
L 314.074379 47.230511 
L 319.615748 52.228123 
L 325.157116 60.63341 
L 330.698484 72.646871 
L 336.239852 88.340435 
L 341.78122 107.642571 
L 347.322588 130.331346 
L 352.863956 156.036338 
L 358.405324 184.24973 
L 363.946693 214.346147 
L 369.488061 245.610172 
L 375.029429 277.269828 
L 380.570797 308.533853 
L 386.112165 338.63027 
L 391.653533 366.843662 
L 397.194901 392.548654 
L 402.736269 415.237429 
L 408.277638 434.539565 
L 413.819006 450.233129 
L 419.360374 462.24659 
L 424.901742 470.651877 
L 430.44311 475.649489 
L 435.984478 477.54715 
L 441.525846 476.73386 
L 447.067215 473.651446 
L 452.608583 468.765721 
L 458.149951 462.539257 
L 463.691319 455.407447 
L 469.232687 447.759177 
L 474.774055 439.922911 
L 480.315423 432.158524 
L 485.856791 424.654747 
L 491.39816 417.531634 
L 496.939528 410.847201 
L 502.480896 404.607122 
L 508.022264 398.77631 
L 513.563632 393.291202 
L 519.105 388.071698 
L 524.646368 383.031883 
L 530.187737 378.088909 
L 535.729105 373.169649 
L 541.270473 368.215018 
L 546.811841 363.182049 
L 552.353209 358.044008 
L 557.894577 352.788956 
L 563.435945 347.417229 
L 568.977313 341.938314 
L 574.518682 336.367569 
L 580.06005 330.723166 
L 585.601418 325.023514 
L 591.142786 319.285346 
L 596.684154 313.522514 
L 602.225522 307.745465 
L 607.76689 301.961291 
L 613.308258 296.174193 
L 618.849627 290.386189 
L 624.390995 284.5979 
L 629.932363 278.809259 
L 635.473731 273.020048 
L 641.015099 267.230223 
L 646.556467 261.44 
" clip-path="url(#p37afc0364b)" style="fill: none; stroke: #a80000; stroke-width: 3; stroke-linecap: square"/>
   </g>
   <g id="line2d_28">
    <path d="M 97.961022 261.44 
L 103.50239 255.785184 
L 109.043759 250.129009 
L 114.585127 244.461613 
L 120.126495 238.776766 
L 125.667863 233.077744 
L 131.209231 227.364669 
L 136.750599 221.632984 
L 142.291967 215.886068 
L 147.833335 210.133124 
L 153.374704 204.377781 
L 158.916072 198.622327 
L 164.45744 192.875973 
L 169.998808 187.14838 
L 175.540176 181.443554 
L 181.081544 175.766057 
L 186.622912 170.124067 
L 192.16428 164.523516 
L 197.705649 158.966997 
L 203.247017 153.458503 
L 208.788385 148.003336 
L 214.329753 142.604953 
L 219.871121 137.266011 
L 225.412489 131.990613 
L 230.953857 126.783364 
L 236.495226 121.64832 
L 242.036594 116.590081 
L 247.577962 111.614429 
L 253.11933 106.727653 
L 258.660698 101.936503 
L 264.202066 97.248737 
L 269.743434 92.673336 
L 275.284802 88.220859 
L 280.826171 83.903004 
L 286.367539 79.730228 
L 291.908907 75.71494 
L 297.450275 71.887021 
L 302.991643 68.289706 
L 308.533011 64.908637 
L 314.074379 61.633389 
L 319.615748 58.515089 
L 325.157116 56.189742 
L 330.698484 55.432264 
L 336.239852 55.175251 
L 341.78122 51.306813 
L 347.322588 40.719334 
L 352.863956 30.312727 
L 358.405324 41.028711 
L 363.946693 96.198367 
L 369.488061 199.370466 
L 375.029429 323.509534 
L 380.570797 426.681633 
L 386.112165 481.851289 
L 391.653533 492.567273 
L 397.194901 482.160666 
L 402.736269 471.573187 
L 408.277638 467.704749 
L 413.819006 467.447736 
L 419.360374 466.690258 
L 424.901742 464.364911 
L 430.44311 461.246611 
L 435.984478 457.971363 
L 441.525846 454.590294 
L 447.067215 450.992979 
L 452.608583 447.16506 
L 458.149951 443.149772 
L 463.691319 438.976996 
L 469.232687 434.659141 
L 474.774055 430.206664 
L 480.315423 425.631263 
L 485.856791 420.943497 
L 491.39816 416.152347 
L 496.939528 411.265571 
L 502.480896 406.289919 
L 508.022264 401.23168 
L 513.563632 396.096636 
L 519.105 390.889387 
L 524.646368 385.613989 
L 530.187737 380.275047 
L 535.729105 374.876664 
L 541.270473 369.421497 
L 546.811841 363.913003 
L 552.353209 358.356484 
L 557.894577 352.755933 
L 563.435945 347.113943 
L 568.977313 341.436446 
L 574.518682 335.73162 
L 580.06005 330.004027 
L 585.601418 324.257673 
L 591.142786 318.502219 
L 596.684154 312.746876 
L 602.225522 306.993932 
L 607.76689 301.247016 
L 613.308258 295.515331 
L 618.849627 289.802256 
L 624.390995 284.103234 
L 629.932363 278.418387 
L 635.473731 272.750991 
L 641.015099 267.094816 
L 646.556467 261.44 
" clip-path="url(#p37afc0364b)" style="fill: none; stroke: #1f77b4; stroke-width: 3; stroke-linecap: square"/>
   </g>
   <g id="line2d_29">
    <path d="M 97.961022 261.440002 
L 103.50239 256.379241 
L 109.043759 251.246791 
L 114.585127 245.984534 
L 120.126495 240.548398 
L 125.667863 234.926144 
L 131.209231 229.125201 
L 136.750599 223.180985 
L 142.291967 217.140518 
L 147.833335 211.056467 
L 153.374704 204.978935 
L 158.916072 198.943693 
L 164.45744 192.977516 
L 169.998808 187.089593 
L 175.540176 181.283589 
L 181.081544 175.553692 
L 186.622912 169.893992 
L 192.16428 164.297247 
L 197.705649 158.758321 
L 203.247017 153.274291 
L 208.788385 147.843988 
L 214.329753 142.468538 
L 219.871121 137.150071 
L 225.412489 131.892018 
L 230.953857 126.698469 
L 236.495226 121.574185 
L 242.036594 116.524492 
L 247.577962 111.555284 
L 253.11933 106.673107 
L 258.660698 101.885181 
L 264.202066 97.1996 
L 269.743434 92.625392 
L 275.284802 88.172726 
L 280.826171 83.853146 
L 286.367539 79.679778 
L 291.908907 75.667701 
L 297.450275 71.834398 
L 302.991643 68.200269 
L 308.533011 64.789437 
L 314.074379 61.630808 
L 319.615748 58.759262 
L 325.157116 56.218992 
L 330.698484 54.060102 
L 336.239852 52.36989 
L 341.78122 51.228524 
L 347.322588 50.399293 
L 352.863956 53.286388 
L 358.405324 48.589566 
L 363.946693 35.640095 
L 369.488061 145.240265 
L 375.029429 377.639957 
L 380.570797 487.239695 
L 386.112165 474.29031 
L 391.653533 469.593545 
L 397.194901 472.480628 
L 402.736269 471.65143 
L 408.277638 470.510099 
L 413.819006 468.819929 
L 419.360374 466.661083 
L 424.901742 464.120845 
L 430.44311 461.249318 
L 435.984478 458.090678 
L 441.525846 454.67982 
L 447.067215 451.04564 
L 452.608583 447.212292 
L 458.149951 443.200176 
L 463.691319 439.026794 
L 469.232687 434.707215 
L 474.774055 430.254566 
L 480.315423 425.680374 
L 485.856791 420.994806 
L 491.39816 416.206887 
L 496.939528 411.324713 
L 502.480896 406.355506 
L 508.022264 401.305814 
L 513.563632 396.181531 
L 519.105 390.987982 
L 524.646368 385.729929 
L 530.187737 380.411462 
L 535.729105 375.036012 
L 541.270473 369.605709 
L 546.811841 364.121679 
L 552.353209 358.582751 
L 557.894577 352.986006 
L 563.435945 347.326306 
L 568.977313 341.59641 
L 574.518682 335.790406 
L 580.06005 329.902483 
L 585.601418 323.936305 
L 591.142786 317.901064 
L 596.684154 311.823531 
L 602.225522 305.739481 
L 607.76689 299.699014 
L 613.308258 293.754799 
L 618.849627 287.953857 
L 624.390995 282.331603 
L 629.932363 276.895469 
L 635.473731 271.633213 
L 641.015099 266.500763 
L 646.556467 261.440002 
" clip-path="url(#p37afc0364b)" style="fill: none; stroke: #ff7f0e; stroke-width: 3; stroke-linecap: square"/>
   </g>
   <g id="patch_3">
    <path d="M 70.53125 515.68 
L 70.53125 7.2 
" style="fill: none; stroke: #000000; stroke-width: 1.5; stroke-linejoin: miter; stroke-linecap: square"/>
   </g>
   <g id="patch_4">
    <path d="M 673.98624 515.68 
L 673.98624 7.2 
" style="fill: none; stroke: #000000; stroke-width: 1.5; stroke-linejoin: miter; stroke-linecap: square"/>
   </g>
   <g id="patch_5">
    <path d="M 70.53125 515.68 
L 673.98624 515.68 
" style="fill: none; stroke: #000000; stroke-width: 1.5; stroke-linejoin: miter; stroke-linecap: square"/>
   </g>
   <g id="patch_6">
    <path d="M 70.53125 7.2 
L 673.98624 7.2 
" style="fill: none; stroke: #000000; stroke-width: 1.5; stroke-linejoin: miter; stroke-linecap: square"/>
   </g>
   <g id="legend_1">
    <g id="patch_7">
     <path d="M 537.028427 88.840625 
L 666.98624 88.840625 
Q 668.98624 88.840625 668.98624 86.840625 
L 668.98624 14.2 
Q 668.98624 12.2 666.98624 12.2 
L 537.028427 12.2 
Q 535.028427 12.2 535.028427 14.2 
L 535.028427 86.840625 
Q 535.028427 88.840625 537.028427 88.840625 
z
" style="fill: #ffffff; opacity: 0.8; stroke: #cccccc; stroke-linejoin: miter"/>
    </g>
    <g id="line2d_30">
     <path d="M 539.028427 20.259375 
L 549.028427 20.259375 
L 559.028427 20.259375 
" style="fill: none; stroke: #000000; stroke-linecap: square"/>
    </g>
    <g id="text_15">
     <!-- Init -->
     <g transform="translate(567.028427 23.759375) scale(0.1 -0.1)">
      <defs>
       <path id="Georgia-49" d="M 2244 0 
L 247 0 
L 247 222 
Q 331 228 490 240 
Q 650 253 716 278 
Q 819 319 866 389 
Q 913 459 913 584 
L 913 3797 
Q 913 3906 878 3979 
Q 844 4053 716 4103 
Q 622 4141 480 4173 
Q 338 4206 247 4213 
L 247 4434 
L 2244 4434 
L 2244 4213 
Q 2147 4209 2012 4189 
Q 1878 4169 1778 4138 
Q 1659 4100 1618 4015 
Q 1578 3931 1578 3828 
L 1578 619 
Q 1578 516 1623 436 
Q 1669 356 1778 309 
Q 1844 284 1992 254 
Q 2141 225 2244 222 
L 2244 0 
z
" transform="scale(0.015625)"/>
       <path id="Georgia-6e" d="M 3628 0 
L 2119 0 
L 2119 206 
Q 2191 213 2277 219 
Q 2363 225 2419 244 
Q 2506 272 2548 342 
Q 2591 413 2591 525 
L 2591 2109 
Q 2591 2438 2436 2616 
Q 2281 2794 2059 2794 
Q 1894 2794 1756 2742 
Q 1619 2691 1513 2616 
Q 1409 2544 1348 2461 
Q 1288 2378 1259 2328 
L 1259 556 
Q 1259 450 1303 381 
Q 1347 313 1434 275 
Q 1500 244 1576 228 
Q 1653 213 1734 206 
L 1734 0 
L 225 0 
L 225 206 
Q 297 213 373 219 
Q 450 225 506 244 
Q 594 272 636 342 
Q 678 413 678 525 
L 678 2428 
Q 678 2534 633 2623 
Q 588 2713 506 2769 
Q 447 2806 365 2823 
Q 284 2841 191 2847 
L 191 3050 
L 1216 3119 
L 1259 3075 
L 1259 2641 
L 1275 2641 
Q 1350 2716 1462 2820 
Q 1575 2925 1675 2991 
Q 1791 3066 1950 3116 
Q 2109 3166 2309 3166 
Q 2753 3166 2967 2889 
Q 3181 2613 3181 2153 
L 3181 550 
Q 3181 441 3218 373 
Q 3256 306 3347 269 
Q 3422 238 3476 225 
Q 3531 213 3628 206 
L 3628 0 
z
" transform="scale(0.015625)"/>
       <path id="Georgia-69" d="M 1722 0 
L 231 0 
L 231 206 
Q 303 213 379 219 
Q 456 225 513 244 
Q 600 272 642 342 
Q 684 413 684 525 
L 684 2428 
Q 684 2528 639 2611 
Q 594 2694 513 2750 
Q 453 2788 340 2814 
Q 228 2841 134 2847 
L 134 3050 
L 1222 3119 
L 1266 3075 
L 1266 563 
Q 1266 453 1308 381 
Q 1350 309 1441 275 
Q 1509 247 1575 230 
Q 1641 213 1722 206 
L 1722 0 
z
M 1328 4334 
Q 1328 4156 1211 4023 
Q 1094 3891 922 3891 
Q 763 3891 645 4017 
Q 528 4144 528 4306 
Q 528 4478 645 4606 
Q 763 4734 922 4734 
Q 1100 4734 1214 4614 
Q 1328 4494 1328 4334 
z
" transform="scale(0.015625)"/>
       <path id="Georgia-74" d="M 2128 134 
Q 1925 50 1744 -8 
Q 1563 -66 1300 -66 
Q 913 -66 755 129 
Q 597 325 597 681 
L 597 2769 
L 41 2769 
L 41 3069 
L 609 3069 
L 609 4028 
L 1178 4028 
L 1178 3069 
L 2063 3069 
L 2063 2769 
L 1184 2769 
L 1184 1047 
Q 1184 853 1198 723 
Q 1213 594 1266 497 
Q 1316 406 1416 359 
Q 1516 313 1684 313 
Q 1763 313 1914 327 
Q 2066 341 2128 363 
L 2128 134 
z
" transform="scale(0.015625)"/>
      </defs>
      <use xlink:href="#Georgia-49"/>
      <use xlink:href="#Georgia-6e" x="38.964844"/>
      <use xlink:href="#Georgia-69" x="98.046875"/>
      <use xlink:href="#Georgia-74" x="127.34375"/>
     </g>
    </g>
    <g id="line2d_31">
     <g>
      <use xlink:href="#maec084c178" x="549.028427" y="34.9875" style="stroke: #000000"/>
     </g>
    </g>
    <g id="text_16">
     <!-- Exact -->
     <g transform="translate(567.028427 38.4875) scale(0.1 -0.1)">
      <defs>
       <path id="Georgia-45" d="M 4034 1306 
L 3950 0 
L 269 0 
L 269 222 
Q 363 228 519 248 
Q 675 269 722 291 
Q 822 338 861 413 
Q 900 488 900 603 
L 900 3791 
Q 900 3894 865 3973 
Q 831 4053 722 4103 
Q 638 4144 495 4175 
Q 353 4206 269 4213 
L 269 4434 
L 3700 4434 
L 3700 3366 
L 3466 3366 
Q 3403 3603 3195 3870 
Q 2988 4138 2800 4163 
Q 2703 4175 2568 4181 
Q 2434 4188 2263 4188 
L 1566 4188 
L 1566 2425 
L 2066 2425 
Q 2306 2425 2417 2470 
Q 2528 2516 2613 2622 
Q 2681 2713 2729 2864 
Q 2778 3016 2794 3150 
L 3028 3150 
L 3028 1416 
L 2794 1416 
Q 2781 1566 2726 1733 
Q 2672 1900 2613 1975 
Q 2516 2097 2392 2134 
Q 2269 2172 2066 2172 
L 1566 2172 
L 1566 841 
Q 1566 641 1594 525 
Q 1622 409 1703 350 
Q 1784 291 1925 273 
Q 2066 256 2325 256 
Q 2428 256 2597 256 
Q 2766 256 2881 269 
Q 3000 281 3126 314 
Q 3253 347 3306 403 
Q 3450 553 3608 858 
Q 3766 1163 3809 1306 
L 4034 1306 
z
" transform="scale(0.015625)"/>
       <path id="Georgia-78" d="M 3194 0 
L 1781 0 
L 1781 206 
Q 1922 222 2020 237 
Q 2119 253 2119 319 
Q 2119 347 2087 406 
Q 2056 466 2025 516 
Q 1947 638 1811 842 
Q 1675 1047 1478 1331 
Q 1316 1128 1178 936 
Q 1041 744 891 528 
Q 869 497 845 450 
Q 822 403 822 375 
Q 822 306 911 261 
Q 1000 216 1178 200 
L 1178 0 
L 38 0 
L 38 194 
Q 250 256 379 345 
Q 509 434 619 566 
Q 716 691 889 909 
Q 1063 1128 1338 1503 
Q 1178 1731 948 2061 
Q 719 2391 569 2609 
Q 488 2728 383 2801 
Q 278 2875 88 2875 
L 88 3081 
L 1428 3081 
L 1428 2875 
Q 1328 2875 1231 2862 
Q 1134 2850 1134 2806 
Q 1134 2778 1153 2743 
Q 1172 2709 1200 2669 
Q 1269 2563 1414 2341 
Q 1559 2119 1728 1872 
Q 1838 2022 1983 2222 
Q 2128 2422 2250 2603 
Q 2263 2625 2275 2658 
Q 2288 2691 2288 2722 
Q 2288 2788 2180 2827 
Q 2072 2866 1975 2881 
L 1975 3081 
L 3113 3081 
L 3113 2888 
Q 2872 2825 2737 2739 
Q 2603 2653 2509 2541 
Q 2406 2413 2264 2225 
Q 2122 2038 1866 1700 
Q 2150 1300 2328 1044 
Q 2506 788 2688 516 
Q 2778 378 2889 298 
Q 3000 219 3194 206 
L 3194 0 
z
" transform="scale(0.015625)"/>
       <path id="Georgia-61" d="M 3144 56 
Q 2997 3 2886 -30 
Q 2775 -63 2634 -63 
Q 2391 -63 2245 51 
Q 2100 166 2059 384 
L 2041 384 
Q 1838 159 1605 40 
Q 1372 -78 1044 -78 
Q 697 -78 473 134 
Q 250 347 250 691 
Q 250 869 300 1009 
Q 350 1150 450 1263 
Q 528 1356 656 1429 
Q 784 1503 897 1547 
Q 1038 1600 1467 1744 
Q 1897 1888 2047 1969 
L 2047 2278 
Q 2047 2319 2030 2434 
Q 2013 2550 1956 2653 
Q 1894 2769 1780 2855 
Q 1666 2941 1456 2941 
Q 1313 2941 1189 2892 
Q 1066 2844 1016 2791 
Q 1016 2728 1045 2606 
Q 1075 2484 1075 2381 
Q 1075 2272 976 2181 
Q 878 2091 703 2091 
Q 547 2091 473 2202 
Q 400 2313 400 2450 
Q 400 2594 501 2725 
Q 603 2856 766 2959 
Q 906 3047 1106 3108 
Q 1306 3169 1497 3169 
Q 1759 3169 1954 3133 
Q 2150 3097 2309 2978 
Q 2469 2863 2551 2664 
Q 2634 2466 2634 2153 
Q 2634 1706 2625 1361 
Q 2616 1016 2616 606 
Q 2616 484 2658 412 
Q 2700 341 2788 291 
Q 2834 263 2936 259 
Q 3038 256 3144 256 
L 3144 56 
z
M 2053 1706 
Q 1788 1628 1588 1553 
Q 1388 1478 1216 1366 
Q 1059 1259 968 1114 
Q 878 969 878 769 
Q 878 509 1014 387 
Q 1150 266 1359 266 
Q 1581 266 1750 373 
Q 1919 481 2034 628 
L 2053 1706 
z
" transform="scale(0.015625)"/>
       <path id="Georgia-63" d="M 1650 -81 
Q 981 -81 603 362 
Q 225 806 225 1553 
Q 225 1878 326 2161 
Q 428 2444 622 2675 
Q 806 2897 1084 3033 
Q 1363 3169 1691 3169 
Q 2144 3169 2428 2951 
Q 2713 2734 2713 2359 
Q 2713 2203 2638 2083 
Q 2563 1963 2391 1963 
Q 2206 1963 2104 2056 
Q 2003 2150 2003 2266 
Q 2003 2406 2040 2554 
Q 2078 2703 2084 2772 
Q 2028 2869 1917 2901 
Q 1806 2934 1678 2934 
Q 1528 2934 1392 2870 
Q 1256 2806 1128 2634 
Q 1013 2478 941 2212 
Q 869 1947 869 1578 
Q 869 997 1126 630 
Q 1384 263 1803 263 
Q 2106 263 2311 409 
Q 2516 556 2691 850 
L 2891 719 
Q 2684 350 2346 134 
Q 2009 -81 1650 -81 
z
" transform="scale(0.015625)"/>
      </defs>
      <use xlink:href="#Georgia-45"/>
      <use xlink:href="#Georgia-78" x="65.332031"/>
      <use xlink:href="#Georgia-61" x="115.820312"/>
      <use xlink:href="#Georgia-63" x="166.210938"/>
      <use xlink:href="#Georgia-74" x="211.621094"/>
     </g>
    </g>
    <g id="line2d_32">
     <path d="M 539.028427 49.715625 
L 549.028427 49.715625 
L 559.028427 49.715625 
" style="fill: none; stroke: #a80000; stroke-width: 3; stroke-linecap: square"/>
    </g>
    <g id="text_17">
     <!-- 16, t=1.3,exponential -->
     <g transform="translate(567.028427 53.215625) scale(0.1 -0.1)">
      <defs>
       <path id="Georgia-2c" d="M 1341 109 
Q 1341 -116 1239 -316 
Q 1138 -516 1006 -659 
Q 872 -809 722 -925 
Q 572 -1041 447 -1106 
L 303 -897 
Q 453 -803 572 -709 
Q 691 -616 766 -522 
Q 859 -413 925 -284 
Q 991 -156 1009 6 
L 850 6 
Q 641 6 523 115 
Q 406 225 406 409 
Q 406 541 512 664 
Q 619 788 803 788 
Q 1072 788 1206 608 
Q 1341 428 1341 109 
z
" transform="scale(0.015625)"/>
       <path id="Georgia-20" transform="scale(0.015625)"/>
       <path id="Georgia-3d" d="M 3634 2134 
L 481 2134 
L 481 2525 
L 3634 2525 
L 3634 2134 
z
M 3634 972 
L 481 972 
L 481 1363 
L 3634 1363 
L 3634 972 
z
" transform="scale(0.015625)"/>
       <path id="Georgia-65" d="M 2963 725 
Q 2769 356 2444 137 
Q 2119 -81 1697 -81 
Q 1325 -81 1045 50 
Q 766 181 584 406 
Q 403 631 314 931 
Q 225 1231 225 1566 
Q 225 1866 320 2155 
Q 416 2444 600 2675 
Q 778 2897 1042 3033 
Q 1306 3169 1634 3169 
Q 1972 3169 2212 3062 
Q 2453 2956 2603 2772 
Q 2747 2597 2817 2359 
Q 2888 2122 2888 1844 
L 2888 1638 
L 847 1638 
Q 847 1334 905 1087 
Q 963 841 1088 653 
Q 1209 472 1406 367 
Q 1603 263 1875 263 
Q 2153 263 2354 392 
Q 2556 522 2744 859 
L 2963 725 
z
M 2272 1900 
Q 2272 2075 2242 2275 
Q 2213 2475 2147 2609 
Q 2075 2753 1950 2843 
Q 1825 2934 1628 2934 
Q 1300 2934 1083 2661 
Q 866 2388 847 1900 
L 2272 1900 
z
" transform="scale(0.015625)"/>
       <path id="Georgia-70" d="M 3041 2716 
Q 3225 2497 3326 2208 
Q 3428 1919 3428 1547 
Q 3428 1181 3306 879 
Q 3184 578 2984 366 
Q 2775 150 2519 34 
Q 2263 -81 1975 -81 
Q 1697 -81 1519 -18 
Q 1341 44 1228 128 
L 1203 128 
L 1203 -797 
Q 1203 -909 1247 -984 
Q 1291 -1059 1381 -1094 
Q 1456 -1122 1595 -1148 
Q 1734 -1175 1825 -1178 
L 1825 -1388 
L 103 -1388 
L 103 -1178 
Q 200 -1172 290 -1162 
Q 381 -1153 453 -1131 
Q 547 -1100 584 -1022 
Q 622 -944 622 -838 
L 622 2441 
Q 622 2534 575 2621 
Q 528 2709 453 2763 
Q 397 2800 297 2820 
Q 197 2841 103 2847 
L 103 3050 
L 1153 3119 
L 1197 3081 
L 1197 2734 
L 1222 2728 
Q 1384 2916 1625 3041 
Q 1866 3166 2103 3166 
Q 2391 3166 2630 3044 
Q 2869 2922 3041 2716 
z
M 2531 500 
Q 2656 694 2715 950 
Q 2775 1206 2775 1522 
Q 2775 1753 2725 1993 
Q 2675 2234 2569 2413 
Q 2463 2594 2291 2706 
Q 2119 2819 1878 2819 
Q 1647 2819 1484 2717 
Q 1322 2616 1203 2475 
L 1203 653 
Q 1231 569 1295 478 
Q 1359 388 1438 322 
Q 1534 244 1646 195 
Q 1759 147 1922 147 
Q 2097 147 2259 239 
Q 2422 331 2531 500 
z
" transform="scale(0.015625)"/>
       <path id="Georgia-6f" d="M 3228 1572 
Q 3228 1247 3125 933 
Q 3022 619 2831 400 
Q 2616 150 2331 28 
Q 2047 -94 1694 -94 
Q 1400 -94 1134 17 
Q 869 128 663 341 
Q 459 550 339 851 
Q 219 1153 219 1528 
Q 219 2250 639 2709 
Q 1059 3169 1741 3169 
Q 2388 3169 2808 2733 
Q 3228 2297 3228 1572 
z
M 2581 1566 
Q 2581 1800 2534 2061 
Q 2488 2322 2394 2503 
Q 2294 2697 2131 2814 
Q 1969 2931 1734 2931 
Q 1494 2931 1323 2812 
Q 1153 2694 1047 2488 
Q 947 2297 906 2053 
Q 866 1809 866 1581 
Q 866 1281 914 1026 
Q 963 772 1069 572 
Q 1175 372 1336 258 
Q 1497 144 1734 144 
Q 2125 144 2353 522 
Q 2581 900 2581 1566 
z
" transform="scale(0.015625)"/>
       <path id="Georgia-6c" d="M 1669 0 
L 166 0 
L 166 206 
Q 238 213 319 220 
Q 400 228 453 244 
Q 541 272 584 342 
Q 628 413 628 525 
L 628 4094 
Q 628 4206 579 4304 
Q 531 4403 453 4459 
Q 397 4497 247 4528 
Q 97 4559 6 4566 
L 6 4766 
L 1166 4838 
L 1209 4791 
L 1209 563 
Q 1209 453 1250 383 
Q 1291 313 1381 275 
Q 1450 244 1517 228 
Q 1584 213 1669 206 
L 1669 0 
z
" transform="scale(0.015625)"/>
      </defs>
      <use xlink:href="#Georgia-31"/>
      <use xlink:href="#Georgia-36" x="42.96875"/>
      <use xlink:href="#Georgia-2c" x="99.560547"/>
      <use xlink:href="#Georgia-20" x="126.513672"/>
      <use xlink:href="#Georgia-74" x="150.634766"/>
      <use xlink:href="#Georgia-3d" x="185.15625"/>
      <use xlink:href="#Georgia-31" x="249.462891"/>
      <use xlink:href="#Georgia-2e" x="292.431641"/>
      <use xlink:href="#Georgia-33" x="319.384766"/>
      <use xlink:href="#Georgia-2c" x="374.560547"/>
      <use xlink:href="#Georgia-65" x="401.513672"/>
      <use xlink:href="#Georgia-78" x="449.853516"/>
      <use xlink:href="#Georgia-70" x="500.341797"/>
      <use xlink:href="#Georgia-6f" x="557.470703"/>
      <use xlink:href="#Georgia-6e" x="611.376953"/>
      <use xlink:href="#Georgia-65" x="670.458984"/>
      <use xlink:href="#Georgia-6e" x="718.798828"/>
      <use xlink:href="#Georgia-74" x="777.880859"/>
      <use xlink:href="#Georgia-69" x="812.402344"/>
      <use xlink:href="#Georgia-61" x="841.699219"/>
      <use xlink:href="#Georgia-6c" x="892.089844"/>
     </g>
    </g>
    <g id="line2d_33">
     <path d="M 539.028427 64.44375 
L 549.028427 64.44375 
L 559.028427 64.44375 
" style="fill: none; stroke: #1f77b4; stroke-width: 3; stroke-linecap: square"/>
    </g>
    <g id="text_18">
     <!-- 64, t=1.3,exponential -->
     <g transform="translate(567.028427 67.94375) scale(0.1 -0.1)">
      <use xlink:href="#Georgia-36"/>
      <use xlink:href="#Georgia-34" x="56.591797"/>
      <use xlink:href="#Georgia-2c" x="113.085938"/>
      <use xlink:href="#Georgia-20" x="140.039062"/>
      <use xlink:href="#Georgia-74" x="164.160156"/>
      <use xlink:href="#Georgia-3d" x="198.681641"/>
      <use xlink:href="#Georgia-31" x="262.988281"/>
      <use xlink:href="#Georgia-2e" x="305.957031"/>
      <use xlink:href="#Georgia-33" x="332.910156"/>
      <use xlink:href="#Georgia-2c" x="388.085938"/>
      <use xlink:href="#Georgia-65" x="415.039062"/>
      <use xlink:href="#Georgia-78" x="463.378906"/>
      <use xlink:href="#Georgia-70" x="513.867188"/>
      <use xlink:href="#Georgia-6f" x="570.996094"/>
      <use xlink:href="#Georgia-6e" x="624.902344"/>
      <use xlink:href="#Georgia-65" x="683.984375"/>
      <use xlink:href="#Georgia-6e" x="732.324219"/>
      <use xlink:href="#Georgia-74" x="791.40625"/>
      <use xlink:href="#Georgia-69" x="825.927734"/>
      <use xlink:href="#Georgia-61" x="855.224609"/>
      <use xlink:href="#Georgia-6c" x="905.615234"/>
     </g>
    </g>
    <g id="line2d_34">
     <path d="M 539.028427 79.171875 
L 549.028427 79.171875 
L 559.028427 79.171875 
" style="fill: none; stroke: #ff7f0e; stroke-width: 3; stroke-linecap: square"/>
    </g>
    <g id="text_19">
     <!-- 128, t=1.3,exponential -->
     <g transform="translate(567.028427 82.671875) scale(0.1 -0.1)">
      <defs>
       <path id="Georgia-38" d="M 3491 1175 
Q 3491 650 3037 272 
Q 2584 -106 1847 -106 
Q 1156 -106 740 241 
Q 325 588 325 1134 
Q 325 1538 570 1808 
Q 816 2078 1297 2266 
Q 900 2488 703 2753 
Q 506 3019 506 3353 
Q 506 3863 939 4206 
Q 1372 4550 1975 4550 
Q 2578 4550 2951 4225 
Q 3325 3900 3325 3409 
Q 3325 3094 3119 2811 
Q 2913 2528 2513 2347 
Q 3031 2125 3261 1856 
Q 3491 1588 3491 1175 
z
M 2734 3444 
Q 2734 3825 2507 4064 
Q 2281 4303 1928 4303 
Q 1575 4303 1350 4073 
Q 1125 3844 1125 3503 
Q 1125 3175 1381 2947 
Q 1638 2719 2294 2459 
Q 2528 2609 2631 2856 
Q 2734 3103 2734 3444 
z
M 2866 1028 
Q 2866 1225 2781 1373 
Q 2697 1522 2538 1644 
Q 2384 1763 2111 1892 
Q 1838 2022 1519 2156 
Q 1219 1994 1078 1742 
Q 938 1491 938 1169 
Q 938 709 1208 426 
Q 1478 144 1928 144 
Q 2359 144 2612 394 
Q 2866 644 2866 1028 
z
" transform="scale(0.015625)"/>
      </defs>
      <use xlink:href="#Georgia-31"/>
      <use xlink:href="#Georgia-32" x="42.96875"/>
      <use xlink:href="#Georgia-38" x="98.828125"/>
      <use xlink:href="#Georgia-2c" x="158.447266"/>
      <use xlink:href="#Georgia-20" x="185.400391"/>
      <use xlink:href="#Georgia-74" x="209.521484"/>
      <use xlink:href="#Georgia-3d" x="244.042969"/>
      <use xlink:href="#Georgia-31" x="308.349609"/>
      <use xlink:href="#Georgia-2e" x="351.318359"/>
      <use xlink:href="#Georgia-33" x="378.271484"/>
      <use xlink:href="#Georgia-2c" x="433.447266"/>
      <use xlink:href="#Georgia-65" x="460.400391"/>
      <use xlink:href="#Georgia-78" x="508.740234"/>
      <use xlink:href="#Georgia-70" x="559.228516"/>
      <use xlink:href="#Georgia-6f" x="616.357422"/>
      <use xlink:href="#Georgia-6e" x="670.263672"/>
      <use xlink:href="#Georgia-65" x="729.345703"/>
      <use xlink:href="#Georgia-6e" x="777.685547"/>
      <use xlink:href="#Georgia-74" x="836.767578"/>
      <use xlink:href="#Georgia-69" x="871.289062"/>
      <use xlink:href="#Georgia-61" x="900.585938"/>
      <use xlink:href="#Georgia-6c" x="950.976562"/>
     </g>
    </g>
   </g>
  </g>
  <g id="axes_2">
   <g id="patch_8">
    <path d="M 752.214254 515.68 
L 993.59625 515.68 
L 993.59625 7.2 
L 752.214254 7.2 
L 752.214254 515.68 
z
" style="fill: none"/>
   </g>
   <g id="matplotlib.axis_3">
    <g id="xtick_8">
     <g id="line2d_35">
      <path d="M 763.186163 515.68 
L 763.186163 7.2 
" clip-path="url(#pc077800ccb)" style="fill: none; stroke: #b0b0b0; stroke-width: 0.8; stroke-linecap: square"/>
     </g>
     <g id="line2d_36">
      <g>
       <use xlink:href="#m3dded53768" x="763.186163" y="515.68" style="stroke: #000000; stroke-width: 0.8"/>
      </g>
     </g>
     <g id="text_20">
      <!-- 0 -->
      <g transform="translate(758.276163 534.775) scale(0.16 -0.16)">
       <use xlink:href="#Georgia-30"/>
      </g>
     </g>
    </g>
    <g id="xtick_9">
     <g id="line2d_37">
      <path d="M 833.035505 515.68 
L 833.035505 7.2 
" clip-path="url(#pc077800ccb)" style="fill: none; stroke: #b0b0b0; stroke-width: 0.8; stroke-linecap: square"/>
     </g>
     <g id="line2d_38">
      <g>
       <use xlink:href="#m3dded53768" x="833.035505" y="515.68" style="stroke: #000000; stroke-width: 0.8"/>
      </g>
     </g>
     <g id="text_21">
      <!-- 2 -->
      <g transform="translate(828.566755 534.775) scale(0.16 -0.16)">
       <use xlink:href="#Georgia-32"/>
      </g>
     </g>
    </g>
    <g id="xtick_10">
     <g id="line2d_39">
      <path d="M 902.884846 515.68 
L 902.884846 7.2 
" clip-path="url(#pc077800ccb)" style="fill: none; stroke: #b0b0b0; stroke-width: 0.8; stroke-linecap: square"/>
     </g>
     <g id="line2d_40">
      <g>
       <use xlink:href="#m3dded53768" x="902.884846" y="515.68" style="stroke: #000000; stroke-width: 0.8"/>
      </g>
     </g>
     <g id="text_22">
      <!-- 4 -->
      <g transform="translate(898.364846 534.775) scale(0.16 -0.16)">
       <use xlink:href="#Georgia-34"/>
      </g>
     </g>
    </g>
    <g id="xtick_11">
     <g id="line2d_41">
      <path d="M 972.734187 515.68 
L 972.734187 7.2 
" clip-path="url(#pc077800ccb)" style="fill: none; stroke: #b0b0b0; stroke-width: 0.8; stroke-linecap: square"/>
     </g>
     <g id="line2d_42">
      <g>
       <use xlink:href="#m3dded53768" x="972.734187" y="515.68" style="stroke: #000000; stroke-width: 0.8"/>
      </g>
     </g>
     <g id="text_23">
      <!-- 6 -->
      <g transform="translate(968.206687 534.775) scale(0.16 -0.16)">
       <use xlink:href="#Georgia-36"/>
      </g>
     </g>
    </g>
    <g id="text_24">
     <!-- $x$ -->
     <g transform="translate(866.905252 557.36375) scale(0.2 -0.2)">
      <use xlink:href="#DejaVuSans-Oblique-78" transform="translate(0 0.3125)"/>
     </g>
    </g>
   </g>
   <g id="matplotlib.axis_4">
    <g id="ytick_6">
     <g id="line2d_43">
      <path d="M 752.214254 459.883944 
L 993.59625 459.883944 
" clip-path="url(#pc077800ccb)" style="fill: none; stroke: #b0b0b0; stroke-width: 0.8; stroke-linecap: square"/>
     </g>
     <g id="line2d_44">
      <g>
       <use xlink:href="#m1d22de5c7d" x="752.214254" y="459.883944" style="stroke: #000000; stroke-width: 0.8"/>
      </g>
     </g>
     <g id="text_25">
      <!-- $\mathdefault{10^{-15}}$ -->
      <g transform="translate(710.014254 465.931444) scale(0.16 -0.16)">
       <use xlink:href="#Georgia-31" transform="translate(0 0.534375)"/>
       <use xlink:href="#Georgia-30" transform="translate(42.96875 0.534375)"/>
       <use xlink:href="#Georgia-2212" transform="translate(105.188164 34.232813) scale(0.7)"/>
       <use xlink:href="#Georgia-31" transform="translate(150.202812 34.232813) scale(0.7)"/>
       <use xlink:href="#Georgia-35" transform="translate(180.280937 34.232813) scale(0.7)"/>
      </g>
     </g>
    </g>
    <g id="ytick_7">
     <g id="line2d_45">
      <path d="M 752.214254 402.267414 
L 993.59625 402.267414 
" clip-path="url(#pc077800ccb)" style="fill: none; stroke: #b0b0b0; stroke-width: 0.8; stroke-linecap: square"/>
     </g>
     <g id="line2d_46">
      <g>
       <use xlink:href="#m1d22de5c7d" x="752.214254" y="402.267414" style="stroke: #000000; stroke-width: 0.8"/>
      </g>
     </g>
     <g id="text_26">
      <!-- $\mathdefault{10^{-13}}$ -->
      <g transform="translate(709.694254 408.314914) scale(0.16 -0.16)">
       <use xlink:href="#Georgia-31" transform="translate(0 0.534375)"/>
       <use xlink:href="#Georgia-30" transform="translate(42.96875 0.534375)"/>
       <use xlink:href="#Georgia-2212" transform="translate(105.188164 34.232813) scale(0.7)"/>
       <use xlink:href="#Georgia-31" transform="translate(150.202812 34.232813) scale(0.7)"/>
       <use xlink:href="#Georgia-33" transform="translate(180.280937 34.232813) scale(0.7)"/>
      </g>
     </g>
    </g>
    <g id="ytick_8">
     <g id="line2d_47">
      <path d="M 752.214254 344.650883 
L 993.59625 344.650883 
" clip-path="url(#pc077800ccb)" style="fill: none; stroke: #b0b0b0; stroke-width: 0.8; stroke-linecap: square"/>
     </g>
     <g id="line2d_48">
      <g>
       <use xlink:href="#m1d22de5c7d" x="752.214254" y="344.650883" style="stroke: #000000; stroke-width: 0.8"/>
      </g>
     </g>
     <g id="text_27">
      <!-- $\mathdefault{10^{-11}}$ -->
      <g transform="translate(711.134254 350.698383) scale(0.16 -0.16)">
       <use xlink:href="#Georgia-31" transform="translate(0 0.534375)"/>
       <use xlink:href="#Georgia-30" transform="translate(42.96875 0.534375)"/>
       <use xlink:href="#Georgia-2212" transform="translate(105.188164 34.232813) scale(0.7)"/>
       <use xlink:href="#Georgia-31" transform="translate(150.202812 34.232813) scale(0.7)"/>
       <use xlink:href="#Georgia-31" transform="translate(180.280937 34.232813) scale(0.7)"/>
      </g>
     </g>
    </g>
    <g id="ytick_9">
     <g id="line2d_49">
      <path d="M 752.214254 287.034352 
L 993.59625 287.034352 
" clip-path="url(#pc077800ccb)" style="fill: none; stroke: #b0b0b0; stroke-width: 0.8; stroke-linecap: square"/>
     </g>
     <g id="line2d_50">
      <g>
       <use xlink:href="#m1d22de5c7d" x="752.214254" y="287.034352" style="stroke: #000000; stroke-width: 0.8"/>
      </g>
     </g>
     <g id="text_28">
      <!-- $\mathdefault{10^{-9}}$ -->
      <g transform="translate(714.334254 293.081852) scale(0.16 -0.16)">
       <defs>
        <path id="Georgia-39" d="M 3300 1613 
Q 3300 1069 3128 589 
Q 2956 109 2634 -253 
Q 2319 -609 1864 -845 
Q 1409 -1081 847 -1156 
L 791 -875 
L 1072 -825 
Q 1744 -613 2122 -172 
Q 2500 269 2609 947 
Q 2353 728 2098 626 
Q 1844 525 1525 525 
Q 1016 525 639 922 
Q 263 1319 263 1922 
Q 263 2569 698 3012 
Q 1134 3456 1775 3456 
Q 2472 3456 2886 2959 
Q 3300 2463 3300 1613 
z
M 2638 1650 
Q 2638 2381 2398 2795 
Q 2159 3209 1769 3209 
Q 1397 3209 1169 2889 
Q 941 2569 941 2006 
Q 941 1500 1173 1194 
Q 1406 888 1797 888 
Q 2041 888 2244 977 
Q 2447 1066 2622 1263 
Q 2622 1275 2626 1312 
Q 2631 1350 2631 1419 
Q 2631 1463 2634 1525 
Q 2638 1588 2638 1650 
z
" transform="scale(0.015625)"/>
       </defs>
       <use xlink:href="#Georgia-31" transform="translate(0 0.501563)"/>
       <use xlink:href="#Georgia-30" transform="translate(42.96875 0.501563)"/>
       <use xlink:href="#Georgia-2212" transform="translate(105.188164 34.2) scale(0.7)"/>
       <use xlink:href="#Georgia-39" transform="translate(150.202812 34.2) scale(0.7)"/>
      </g>
     </g>
    </g>
    <g id="ytick_10">
     <g id="line2d_51">
      <path d="M 752.214254 229.417822 
L 993.59625 229.417822 
" clip-path="url(#pc077800ccb)" style="fill: none; stroke: #b0b0b0; stroke-width: 0.8; stroke-linecap: square"/>
     </g>
     <g id="line2d_52">
      <g>
       <use xlink:href="#m1d22de5c7d" x="752.214254" y="229.417822" style="stroke: #000000; stroke-width: 0.8"/>
      </g>
     </g>
     <g id="text_29">
      <!-- $\mathdefault{10^{-7}}$ -->
      <g transform="translate(715.134254 235.465322) scale(0.16 -0.16)">
       <defs>
        <path id="Georgia-37" d="M 3216 3150 
L 988 -1141 
L 597 -1141 
L 2694 2828 
L 1466 2828 
Q 1194 2828 1041 2822 
Q 888 2816 759 2763 
Q 663 2722 586 2555 
Q 509 2388 469 2128 
L 278 2128 
L 278 3353 
L 3216 3353 
L 3216 3150 
z
" transform="scale(0.015625)"/>
       </defs>
       <use xlink:href="#Georgia-31" transform="translate(0 0.628125)"/>
       <use xlink:href="#Georgia-30" transform="translate(42.96875 0.628125)"/>
       <use xlink:href="#Georgia-2212" transform="translate(105.188164 34.326563) scale(0.7)"/>
       <use xlink:href="#Georgia-37" transform="translate(150.202812 34.326563) scale(0.7)"/>
      </g>
     </g>
    </g>
    <g id="ytick_11">
     <g id="line2d_53">
      <path d="M 752.214254 171.801291 
L 993.59625 171.801291 
" clip-path="url(#pc077800ccb)" style="fill: none; stroke: #b0b0b0; stroke-width: 0.8; stroke-linecap: square"/>
     </g>
     <g id="line2d_54">
      <g>
       <use xlink:href="#m1d22de5c7d" x="752.214254" y="171.801291" style="stroke: #000000; stroke-width: 0.8"/>
      </g>
     </g>
     <g id="text_30">
      <!-- $\mathdefault{10^{-5}}$ -->
      <g transform="translate(714.814254 177.848791) scale(0.16 -0.16)">
       <use xlink:href="#Georgia-31" transform="translate(0 0.628125)"/>
       <use xlink:href="#Georgia-30" transform="translate(42.96875 0.628125)"/>
       <use xlink:href="#Georgia-2212" transform="translate(105.188164 34.326563) scale(0.7)"/>
       <use xlink:href="#Georgia-35" transform="translate(150.202812 34.326563) scale(0.7)"/>
      </g>
     </g>
    </g>
    <g id="ytick_12">
     <g id="line2d_55">
      <path d="M 752.214254 114.184761 
L 993.59625 114.184761 
" clip-path="url(#pc077800ccb)" style="fill: none; stroke: #b0b0b0; stroke-width: 0.8; stroke-linecap: square"/>
     </g>
     <g id="line2d_56">
      <g>
       <use xlink:href="#m1d22de5c7d" x="752.214254" y="114.184761" style="stroke: #000000; stroke-width: 0.8"/>
      </g>
     </g>
     <g id="text_31">
      <!-- $\mathdefault{10^{-3}}$ -->
      <g transform="translate(714.494254 120.232261) scale(0.16 -0.16)">
       <use xlink:href="#Georgia-31" transform="translate(0 0.534375)"/>
       <use xlink:href="#Georgia-30" transform="translate(42.96875 0.534375)"/>
       <use xlink:href="#Georgia-2212" transform="translate(105.188164 34.232813) scale(0.7)"/>
       <use xlink:href="#Georgia-33" transform="translate(150.202812 34.232813) scale(0.7)"/>
      </g>
     </g>
    </g>
    <g id="ytick_13">
     <g id="line2d_57">
      <path d="M 752.214254 56.56823 
L 993.59625 56.56823 
" clip-path="url(#pc077800ccb)" style="fill: none; stroke: #b0b0b0; stroke-width: 0.8; stroke-linecap: square"/>
     </g>
     <g id="line2d_58">
      <g>
       <use xlink:href="#m1d22de5c7d" x="752.214254" y="56.56823" style="stroke: #000000; stroke-width: 0.8"/>
      </g>
     </g>
     <g id="text_32">
      <!-- $\mathdefault{10^{-1}}$ -->
      <g transform="translate(715.934254 62.61573) scale(0.16 -0.16)">
       <use xlink:href="#Georgia-31" transform="translate(0 0.534375)"/>
       <use xlink:href="#Georgia-30" transform="translate(42.96875 0.534375)"/>
       <use xlink:href="#Georgia-2212" transform="translate(105.188164 34.232813) scale(0.7)"/>
       <use xlink:href="#Georgia-31" transform="translate(150.202812 34.232813) scale(0.7)"/>
      </g>
     </g>
    </g>
    <g id="text_33">
     <!-- $|y-y_{exact}|$ -->
     <g transform="translate(700.894254 311.94) rotate(-90) scale(0.2 -0.2)">
      <defs>
       <path id="DejaVuSans-7c" d="M 1344 4891 
L 1344 -1509 
L 813 -1509 
L 813 4891 
L 1344 4891 
z
" transform="scale(0.015625)"/>
       <path id="DejaVuSans-2212" d="M 678 2272 
L 4684 2272 
L 4684 1741 
L 678 1741 
L 678 2272 
z
" transform="scale(0.015625)"/>
       <path id="DejaVuSans-Oblique-65" d="M 3078 2063 
Q 3088 2113 3092 2166 
Q 3097 2219 3097 2272 
Q 3097 2653 2873 2875 
Q 2650 3097 2266 3097 
Q 1838 3097 1509 2826 
Q 1181 2556 1013 2059 
L 3078 2063 
z
M 3578 1613 
L 903 1613 
Q 884 1494 878 1425 
Q 872 1356 872 1306 
Q 872 872 1139 634 
Q 1406 397 1894 397 
Q 2269 397 2603 481 
Q 2938 566 3225 728 
L 3116 159 
Q 2806 34 2476 -28 
Q 2147 -91 1806 -91 
Q 1078 -91 686 257 
Q 294 606 294 1247 
Q 294 1794 489 2264 
Q 684 2734 1063 3103 
Q 1306 3334 1642 3459 
Q 1978 3584 2356 3584 
Q 2950 3584 3301 3228 
Q 3653 2872 3653 2272 
Q 3653 2128 3634 1964 
Q 3616 1800 3578 1613 
z
" transform="scale(0.015625)"/>
       <path id="DejaVuSans-Oblique-61" d="M 3438 1997 
L 3047 0 
L 2472 0 
L 2578 531 
Q 2325 219 2001 64 
Q 1678 -91 1281 -91 
Q 834 -91 548 182 
Q 263 456 263 884 
Q 263 1497 752 1853 
Q 1241 2209 2100 2209 
L 2900 2209 
L 2931 2363 
Q 2938 2388 2941 2417 
Q 2944 2447 2944 2509 
Q 2944 2788 2717 2942 
Q 2491 3097 2081 3097 
Q 1800 3097 1504 3025 
Q 1209 2953 897 2809 
L 997 3341 
Q 1322 3463 1633 3523 
Q 1944 3584 2234 3584 
Q 2853 3584 3176 3315 
Q 3500 3047 3500 2534 
Q 3500 2431 3484 2292 
Q 3469 2153 3438 1997 
z
M 2816 1759 
L 2241 1759 
Q 1534 1759 1195 1570 
Q 856 1381 856 984 
Q 856 709 1029 553 
Q 1203 397 1509 397 
Q 1978 397 2328 733 
Q 2678 1069 2791 1631 
L 2816 1759 
z
" transform="scale(0.015625)"/>
       <path id="DejaVuSans-Oblique-63" d="M 3431 3366 
L 3316 2797 
Q 3109 2947 2876 3022 
Q 2644 3097 2394 3097 
Q 2119 3097 1870 3000 
Q 1622 2903 1453 2725 
Q 1184 2453 1037 2087 
Q 891 1722 891 1331 
Q 891 859 1127 628 
Q 1363 397 1844 397 
Q 2081 397 2348 469 
Q 2616 541 2906 684 
L 2797 116 
Q 2547 13 2283 -39 
Q 2019 -91 1741 -91 
Q 1044 -91 669 257 
Q 294 606 294 1253 
Q 294 1797 489 2255 
Q 684 2713 1069 3078 
Q 1331 3328 1684 3456 
Q 2038 3584 2456 3584 
Q 2700 3584 2940 3529 
Q 3181 3475 3431 3366 
z
" transform="scale(0.015625)"/>
       <path id="DejaVuSans-Oblique-74" d="M 2706 3500 
L 2619 3053 
L 1472 3053 
L 1100 1153 
Q 1081 1047 1072 975 
Q 1063 903 1063 863 
Q 1063 663 1183 572 
Q 1303 481 1569 481 
L 2150 481 
L 2053 0 
L 1503 0 
Q 991 0 739 200 
Q 488 400 488 806 
Q 488 878 497 964 
Q 506 1050 525 1153 
L 897 3053 
L 409 3053 
L 500 3500 
L 978 3500 
L 1172 4494 
L 1747 4494 
L 1556 3500 
L 2706 3500 
z
" transform="scale(0.015625)"/>
      </defs>
      <use xlink:href="#DejaVuSans-7c" transform="translate(0 0.578125)"/>
      <use xlink:href="#DejaVuSans-Oblique-79" transform="translate(33.691406 0.578125)"/>
      <use xlink:href="#DejaVuSans-2212" transform="translate(112.353516 0.578125)"/>
      <use xlink:href="#DejaVuSans-Oblique-79" transform="translate(215.625 0.578125)"/>
      <use xlink:href="#DejaVuSans-Oblique-65" transform="translate(274.804688 -15.828125) scale(0.7)"/>
      <use xlink:href="#DejaVuSans-Oblique-78" transform="translate(317.871094 -15.828125) scale(0.7)"/>
      <use xlink:href="#DejaVuSans-Oblique-61" transform="translate(359.296875 -15.828125) scale(0.7)"/>
      <use xlink:href="#DejaVuSans-Oblique-63" transform="translate(402.192383 -15.828125) scale(0.7)"/>
      <use xlink:href="#DejaVuSans-Oblique-74" transform="translate(440.678711 -15.828125) scale(0.7)"/>
      <use xlink:href="#DejaVuSans-7c" transform="translate(470.859375 0.578125)"/>
     </g>
    </g>
   </g>
   <g id="line2d_59">
    <path d="M 763.186163 492.567273 
L 765.40271 83.973992 
L 767.619258 83.382694 
L 769.835805 83.259261 
L 772.052352 83.256989 
L 774.268899 83.32608 
L 776.485447 83.462451 
L 778.701994 83.669996 
L 780.918541 83.949687 
L 783.135088 84.293019 
L 785.351636 84.675838 
L 787.568183 85.052407 
L 789.78473 85.351752 
L 792.001277 85.480498 
L 794.217825 85.337544 
L 796.434372 84.842021 
L 798.650919 83.965554 
L 800.867466 82.750571 
L 803.084014 81.302359 
L 805.300561 79.761736 
L 807.517108 78.277118 
L 809.733655 76.989629 
L 811.950203 76.034059 
L 814.16675 75.55414 
L 816.383297 75.735551 
L 818.599844 76.878877 
L 820.816392 79.607488 
L 823.032939 85.775706 
L 825.249486 114.091112 
L 827.466033 85.14557 
L 829.682581 74.601168 
L 831.899128 68.382944 
L 834.115675 64.038056 
L 836.332222 60.86423 
L 838.54877 58.588374 
L 840.765317 57.113194 
L 842.981864 56.454363 
L 845.198411 56.752134 
L 847.414959 58.375887 
L 849.631506 62.347567 
L 851.848053 73.285608 
L 854.0646 74.006701 
L 856.281148 57.7632 
L 858.497695 49.795484 
L 860.714242 44.297773 
L 862.930789 40.086624 
L 865.147337 36.718011 
L 867.363884 33.990347 
L 869.580431 31.828691 
L 871.796978 30.312727 
L 874.013526 30.312727 
L 876.230073 31.828691 
L 878.44662 33.990347 
L 880.663167 36.718011 
L 882.879715 40.086624 
L 885.096262 44.297773 
L 887.312809 49.795484 
L 889.529356 57.7632 
L 891.745904 74.006701 
L 893.962451 73.285608 
L 896.178998 62.347567 
L 898.395545 58.375887 
L 900.612093 56.752134 
L 902.82864 56.454363 
L 905.045187 57.113194 
L 907.261735 58.588374 
L 909.478282 60.86423 
L 911.694829 64.038056 
L 913.911376 68.382944 
L 916.127924 74.601168 
L 918.344471 85.14557 
L 920.561018 114.091112 
L 922.777565 85.775706 
L 924.994113 79.607488 
L 927.21066 76.878877 
L 929.427207 75.735551 
L 931.643754 75.55414 
L 933.860302 76.034059 
L 936.076849 76.989629 
L 938.293396 78.277118 
L 940.509943 79.761736 
L 942.726491 81.302359 
L 944.943038 82.750571 
L 947.159585 83.965554 
L 949.376132 84.842021 
L 951.59268 85.337544 
L 953.809227 85.480498 
L 956.025774 85.351752 
L 958.242321 85.052407 
L 960.458869 84.675838 
L 962.675416 84.293019 
L 964.891963 83.949687 
L 967.10851 83.669996 
L 969.325058 83.462451 
L 971.541605 83.32608 
L 973.758152 83.256989 
L 975.974699 83.259261 
L 978.191247 83.382694 
L 980.407794 83.973992 
L 982.624341 478.682564 
" clip-path="url(#pc077800ccb)" style="fill: none; stroke: #a80000; stroke-width: 3; stroke-linecap: square"/>
   </g>
   <g id="line2d_60">
    <path d="M 763.186163 489.421277 
L 765.40271 83.276294 
L 767.619258 82.091738 
L 769.835805 81.441708 
L 772.052352 80.998461 
L 774.268899 80.686993 
L 776.485447 80.493033 
L 778.701994 80.433203 
L 780.918541 80.498144 
L 783.135088 80.659445 
L 785.351636 80.913555 
L 787.568183 81.264777 
L 789.78473 81.689734 
L 792.001277 82.161348 
L 794.217825 82.676189 
L 796.434372 83.228169 
L 798.650919 83.791894 
L 800.867466 84.350154 
L 803.084014 84.902591 
L 805.300561 85.44181 
L 807.517108 85.952559 
L 809.733655 86.430979 
L 811.950203 86.880524 
L 814.16675 87.298016 
L 816.383297 87.679511 
L 818.599844 88.028378 
L 820.816392 88.348572 
L 823.032939 88.640302 
L 825.249486 88.90548 
L 827.466033 89.149227 
L 829.682581 89.37672 
L 831.899128 89.592796 
L 834.115675 89.800712 
L 836.332222 90.008056 
L 838.54877 90.251012 
L 840.765317 90.573089 
L 842.981864 90.88964 
L 845.198411 91.018698 
L 847.414959 91.360563 
L 849.631506 93.484079 
L 851.848053 98.505722 
L 854.0646 97.616251 
L 856.281148 86.241356 
L 858.497695 80.555871 
L 860.714242 131.073114 
L 862.930789 64.940624 
L 865.147337 55.728234 
L 867.363884 60.89011 
L 869.580431 50.484423 
L 871.796978 34.227187 
L 874.013526 34.227187 
L 876.230073 50.484423 
L 878.44662 60.89011 
L 880.663167 55.728234 
L 882.879715 64.940624 
L 885.096262 131.073114 
L 887.312809 80.555871 
L 889.529356 86.241356 
L 891.745904 97.616251 
L 893.962451 98.505722 
L 896.178998 93.484079 
L 898.395545 91.360563 
L 900.612093 91.018698 
L 902.82864 90.88964 
L 905.045187 90.573089 
L 907.261735 90.251012 
L 909.478282 90.008056 
L 911.694829 89.800712 
L 913.911376 89.592796 
L 916.127924 89.37672 
L 918.344471 89.149227 
L 920.561018 88.90548 
L 922.777565 88.640302 
L 924.994113 88.348572 
L 927.21066 88.028378 
L 929.427207 87.679511 
L 931.643754 87.298016 
L 933.860302 86.880524 
L 936.076849 86.430979 
L 938.293396 85.952559 
L 940.509943 85.44181 
L 942.726491 84.902591 
L 944.943038 84.350154 
L 947.159585 83.791894 
L 949.376132 83.228169 
L 951.59268 82.676189 
L 953.809227 82.161348 
L 956.025774 81.689734 
L 958.242321 81.264777 
L 960.458869 80.913555 
L 962.675416 80.659445 
L 964.891963 80.498144 
L 967.10851 80.433203 
L 969.325058 80.493033 
L 971.541605 80.686993 
L 973.758152 80.998461 
L 975.974699 81.441708 
L 978.191247 82.091738 
L 980.407794 83.276294 
L 982.624341 464.474352 
" clip-path="url(#pc077800ccb)" style="fill: none; stroke: #1f77b4; stroke-width: 3; stroke-linecap: square"/>
   </g>
   <g id="line2d_61">
    <path d="M 763.186163 258.366226 
L 765.40271 80.60561 
L 767.619258 77.817021 
L 769.835805 76.14707 
L 772.052352 75.184542 
L 774.268899 74.791134 
L 776.485447 74.893022 
L 778.701994 75.410229 
L 780.918541 76.26677 
L 783.135088 77.376433 
L 785.351636 78.639145 
L 787.568183 79.963507 
L 789.78473 81.249297 
L 792.001277 82.433791 
L 794.217825 83.46465 
L 796.434372 84.335991 
L 798.650919 85.055113 
L 800.867466 85.651087 
L 803.084014 86.154115 
L 805.300561 86.590618 
L 807.517108 86.982893 
L 809.733655 87.343151 
L 811.950203 87.680597 
L 814.16675 87.998718 
L 816.383297 88.299551 
L 818.599844 88.58371 
L 820.816392 88.851581 
L 823.032939 89.103858 
L 825.249486 89.341679 
L 827.466033 89.567418 
L 829.682581 89.784281 
L 831.899128 89.997344 
L 834.115675 90.213797 
L 836.332222 90.443484 
L 838.54877 90.700507 
L 840.765317 91.004637 
L 842.981864 91.383923 
L 845.198411 91.879908 
L 847.414959 92.555799 
L 849.631506 93.513357 
L 851.848053 94.934182 
L 854.0646 97.163373 
L 856.281148 101.164679 
L 858.497695 109.890828 
L 860.714242 119.961549 
L 862.930789 93.199643 
L 865.147337 106.158936 
L 867.363884 69.713774 
L 869.580431 53.847949 
L 871.796978 41.260798 
L 874.013526 41.260836 
L 876.230073 53.848049 
L 878.44662 69.713985 
L 880.663167 106.156845 
L 882.879715 93.200517 
L 885.096262 119.965896 
L 887.312809 109.890355 
L 889.529356 101.165337 
L 891.745904 97.164523 
L 893.962451 94.935536 
L 896.178998 93.514788 
L 898.395545 92.557004 
L 900.612093 91.88079 
L 902.82864 91.384287 
L 905.045187 91.004575 
L 907.261735 90.700089 
L 909.478282 90.442953 
L 911.694829 90.21329 
L 913.911376 89.996984 
L 916.127924 89.784062 
L 918.344471 89.567312 
L 920.561018 89.341632 
L 922.777565 89.103837 
L 924.994113 88.85157 
L 927.21066 88.583703 
L 929.427207 88.299547 
L 931.643754 87.998717 
L 933.860302 87.680597 
L 936.076849 87.34315 
L 938.293396 86.982891 
L 940.509943 86.590615 
L 942.726491 86.154111 
L 944.943038 85.651081 
L 947.159585 85.055105 
L 949.376132 84.335982 
L 951.59268 83.464641 
L 953.809227 82.433783 
L 956.025774 81.24929 
L 958.242321 79.963501 
L 960.458869 78.63914 
L 962.675416 77.376429 
L 964.891963 76.266768 
L 967.10851 75.410227 
L 969.325058 74.893022 
L 971.541605 74.791136 
L 973.758152 75.184546 
L 975.974699 76.147077 
L 978.191247 77.817032 
L 980.407794 80.605626 
L 982.624341 258.366226 
" clip-path="url(#pc077800ccb)" style="fill: none; stroke: #ff7f0e; stroke-width: 3; stroke-linecap: square"/>
   </g>
   <g id="patch_9">
    <path d="M 752.214254 515.68 
L 752.214254 7.2 
" style="fill: none; stroke: #000000; stroke-width: 1.5; stroke-linejoin: miter; stroke-linecap: square"/>
   </g>
   <g id="patch_10">
    <path d="M 993.59625 515.68 
L 993.59625 7.2 
" style="fill: none; stroke: #000000; stroke-width: 1.5; stroke-linejoin: miter; stroke-linecap: square"/>
   </g>
   <g id="patch_11">
    <path d="M 752.214254 515.68 
L 993.59625 515.68 
" style="fill: none; stroke: #000000; stroke-width: 1.5; stroke-linejoin: miter; stroke-linecap: square"/>
   </g>
   <g id="patch_12">
    <path d="M 752.214254 7.2 
L 993.59625 7.2 
" style="fill: none; stroke: #000000; stroke-width: 1.5; stroke-linejoin: miter; stroke-linecap: square"/>
   </g>
   <g id="legend_2">
    <g id="patch_13">
     <path d="M 807.926346 510.68 
L 937.884158 510.68 
Q 939.884158 510.68 939.884158 508.68 
L 939.884158 465.495625 
Q 939.884158 463.495625 937.884158 463.495625 
L 807.926346 463.495625 
Q 805.926346 463.495625 805.926346 465.495625 
L 805.926346 508.68 
Q 805.926346 510.68 807.926346 510.68 
z
" style="fill: #ffffff; opacity: 0.8; stroke: #cccccc; stroke-linejoin: miter"/>
    </g>
    <g id="line2d_62">
     <path d="M 809.926346 471.555 
L 819.926346 471.555 
L 829.926346 471.555 
" style="fill: none; stroke: #a80000; stroke-width: 3; stroke-linecap: square"/>
    </g>
    <g id="text_34">
     <!-- 16, t=1.3,exponential -->
     <g transform="translate(837.926346 475.055) scale(0.1 -0.1)">
      <use xlink:href="#Georgia-31"/>
      <use xlink:href="#Georgia-36" x="42.96875"/>
      <use xlink:href="#Georgia-2c" x="99.560547"/>
      <use xlink:href="#Georgia-20" x="126.513672"/>
      <use xlink:href="#Georgia-74" x="150.634766"/>
      <use xlink:href="#Georgia-3d" x="185.15625"/>
      <use xlink:href="#Georgia-31" x="249.462891"/>
      <use xlink:href="#Georgia-2e" x="292.431641"/>
      <use xlink:href="#Georgia-33" x="319.384766"/>
      <use xlink:href="#Georgia-2c" x="374.560547"/>
      <use xlink:href="#Georgia-65" x="401.513672"/>
      <use xlink:href="#Georgia-78" x="449.853516"/>
      <use xlink:href="#Georgia-70" x="500.341797"/>
      <use xlink:href="#Georgia-6f" x="557.470703"/>
      <use xlink:href="#Georgia-6e" x="611.376953"/>
      <use xlink:href="#Georgia-65" x="670.458984"/>
      <use xlink:href="#Georgia-6e" x="718.798828"/>
      <use xlink:href="#Georgia-74" x="777.880859"/>
      <use xlink:href="#Georgia-69" x="812.402344"/>
      <use xlink:href="#Georgia-61" x="841.699219"/>
      <use xlink:href="#Georgia-6c" x="892.089844"/>
     </g>
    </g>
    <g id="line2d_63">
     <path d="M 809.926346 486.283125 
L 819.926346 486.283125 
L 829.926346 486.283125 
" style="fill: none; stroke: #1f77b4; stroke-width: 3; stroke-linecap: square"/>
    </g>
    <g id="text_35">
     <!-- 64, t=1.3,exponential -->
     <g transform="translate(837.926346 489.783125) scale(0.1 -0.1)">
      <use xlink:href="#Georgia-36"/>
      <use xlink:href="#Georgia-34" x="56.591797"/>
      <use xlink:href="#Georgia-2c" x="113.085938"/>
      <use xlink:href="#Georgia-20" x="140.039062"/>
      <use xlink:href="#Georgia-74" x="164.160156"/>
      <use xlink:href="#Georgia-3d" x="198.681641"/>
      <use xlink:href="#Georgia-31" x="262.988281"/>
      <use xlink:href="#Georgia-2e" x="305.957031"/>
      <use xlink:href="#Georgia-33" x="332.910156"/>
      <use xlink:href="#Georgia-2c" x="388.085938"/>
      <use xlink:href="#Georgia-65" x="415.039062"/>
      <use xlink:href="#Georgia-78" x="463.378906"/>
      <use xlink:href="#Georgia-70" x="513.867188"/>
      <use xlink:href="#Georgia-6f" x="570.996094"/>
      <use xlink:href="#Georgia-6e" x="624.902344"/>
      <use xlink:href="#Georgia-65" x="683.984375"/>
      <use xlink:href="#Georgia-6e" x="732.324219"/>
      <use xlink:href="#Georgia-74" x="791.40625"/>
      <use xlink:href="#Georgia-69" x="825.927734"/>
      <use xlink:href="#Georgia-61" x="855.224609"/>
      <use xlink:href="#Georgia-6c" x="905.615234"/>
     </g>
    </g>
    <g id="line2d_64">
     <path d="M 809.926346 501.01125 
L 819.926346 501.01125 
L 829.926346 501.01125 
" style="fill: none; stroke: #ff7f0e; stroke-width: 3; stroke-linecap: square"/>
    </g>
    <g id="text_36">
     <!-- 128, t=1.3,exponential -->
     <g transform="translate(837.926346 504.51125) scale(0.1 -0.1)">
      <use xlink:href="#Georgia-31"/>
      <use xlink:href="#Georgia-32" x="42.96875"/>
      <use xlink:href="#Georgia-38" x="98.828125"/>
      <use xlink:href="#Georgia-2c" x="158.447266"/>
      <use xlink:href="#Georgia-20" x="185.400391"/>
      <use xlink:href="#Georgia-74" x="209.521484"/>
      <use xlink:href="#Georgia-3d" x="244.042969"/>
      <use xlink:href="#Georgia-31" x="308.349609"/>
      <use xlink:href="#Georgia-2e" x="351.318359"/>
      <use xlink:href="#Georgia-33" x="378.271484"/>
      <use xlink:href="#Georgia-2c" x="433.447266"/>
      <use xlink:href="#Georgia-65" x="460.400391"/>
      <use xlink:href="#Georgia-78" x="508.740234"/>
      <use xlink:href="#Georgia-70" x="559.228516"/>
      <use xlink:href="#Georgia-6f" x="616.357422"/>
      <use xlink:href="#Georgia-6e" x="670.263672"/>
      <use xlink:href="#Georgia-65" x="729.345703"/>
      <use xlink:href="#Georgia-6e" x="777.685547"/>
      <use xlink:href="#Georgia-74" x="836.767578"/>
      <use xlink:href="#Georgia-69" x="871.289062"/>
      <use xlink:href="#Georgia-61" x="900.585938"/>
      <use xlink:href="#Georgia-6c" x="950.976562"/>
     </g>
    </g>
   </g>
  </g>
 </g>
 <defs>
  <clipPath id="p37afc0364b">
   <rect x="70.53125" y="7.2" width="603.45499" height="508.48"/>
  </clipPath>
  <clipPath id="pc077800ccb">
   <rect x="752.214254" y="7.2" width="241.381996" height="508.48"/>
  </clipPath>
 </defs>
</svg>
