<?xml version="1.0" encoding="utf-8" standalone="no"?>
<!DOCTYPE svg PUBLIC "-//W3C//DTD SVG 1.1//EN"
  "http://www.w3.org/Graphics/SVG/1.1/DTD/svg11.dtd">
<svg xmlns:xlink="http://www.w3.org/1999/xlink" width="831.6475pt" height="486.5325pt" viewBox="0 0 831.6475 486.5325" xmlns="http://www.w3.org/2000/svg" version="1.1">
 <metadata>
  <rdf:RDF xmlns:dc="http://purl.org/dc/elements/1.1/" xmlns:cc="http://creativecommons.org/ns#" xmlns:rdf="http://www.w3.org/1999/02/22-rdf-syntax-ns#">
   <cc:Work>
    <dc:type rdf:resource="http://purl.org/dc/dcmitype/StillImage"/>
    <dc:date>2023-11-29T02:55:35.666263</dc:date>
    <dc:format>image/svg+xml</dc:format>
    <dc:creator>
     <cc:Agent>
      <dc:title>Matplotlib v3.6.2, https://matplotlib.org/</dc:title>
     </cc:Agent>
    </dc:creator>
   </cc:Work>
  </rdf:RDF>
 </metadata>
 <defs>
  <style type="text/css">*{stroke-linejoin: round; stroke-linecap: butt}</style>
 </defs>
 <g id="figure_1">
  <g id="patch_1">
   <path d="M 0 486.5325 
L 831.6475 486.5325 
L 831.6475 0 
L 0 0 
L 0 486.5325 
z
" style="fill: none"/>
  </g>
  <g id="axes_1">
   <g id="patch_2">
    <path d="M 43.2475 456.7675 
L 824.4475 456.7675 
L 824.4475 13.2475 
L 43.2475 13.2475 
L 43.2475 456.7675 
z
" style="fill: none"/>
   </g>
   <g id="matplotlib.axis_1">
    <g id="xtick_1">
     <g id="line2d_1">
      <path d="M 78.756591 456.7675 
L 78.756591 13.2475 
" clip-path="url(#p9b9dc974d2)" style="fill: none; stroke: #b0b0b0; stroke-width: 0.8; stroke-linecap: square"/>
     </g>
     <g id="line2d_2">
      <defs>
       <path id="mff8437a6bc" d="M 0 0 
L 0 3.5 
" style="stroke: #000000; stroke-width: 0.8"/>
      </defs>
      <g>
       <use xlink:href="#mff8437a6bc" x="78.756591" y="456.7675" style="stroke: #000000; stroke-width: 0.8"/>
      </g>
     </g>
     <g id="text_1">
      <!-- −1.00 -->
      <g transform="translate(58.197841 475.8625) scale(0.16 -0.16)">
       <defs>
        <path id="Georgia-2212" d="M 3650 1553 
L 466 1553 
L 466 1944 
L 3650 1944 
L 3650 1553 
z
" transform="scale(0.015625)"/>
        <path id="Georgia-31" d="M 2528 0 
L 422 0 
L 422 222 
Q 516 228 714 248 
Q 913 269 988 291 
Q 1084 322 1136 392 
Q 1188 463 1188 603 
L 1188 2797 
L 409 2797 
L 409 3059 
L 581 3059 
Q 919 3059 1186 3184 
Q 1453 3309 1569 3453 
L 1828 3453 
Q 1819 3250 1809 2978 
Q 1800 2706 1800 2491 
L 1800 638 
Q 1800 528 1848 442 
Q 1897 356 1988 316 
Q 2069 281 2253 253 
Q 2438 225 2528 222 
L 2528 0 
z
" transform="scale(0.015625)"/>
        <path id="Georgia-2e" d="M 1297 359 
Q 1297 184 1170 60 
Q 1044 -63 869 -63 
Q 694 -63 567 60 
Q 441 184 441 359 
Q 441 534 567 661 
Q 694 788 869 788 
Q 1044 788 1170 661 
Q 1297 534 1297 359 
z
" transform="scale(0.015625)"/>
        <path id="Georgia-30" d="M 3209 2919 
Q 3409 2678 3507 2354 
Q 3606 2031 3606 1678 
Q 3606 1253 3484 917 
Q 3363 581 3150 359 
Q 2931 131 2631 15 
Q 2331 -100 1963 -100 
Q 1559 -100 1243 34 
Q 928 169 731 403 
Q 525 647 423 973 
Q 322 1300 322 1678 
Q 322 2050 420 2362 
Q 519 2675 728 2928 
Q 928 3172 1243 3312 
Q 1559 3453 1966 3453 
Q 2394 3453 2700 3309 
Q 3006 3166 3209 2919 
z
M 2916 1678 
Q 2916 2422 2661 2831 
Q 2406 3241 1969 3241 
Q 1525 3241 1269 2831 
Q 1013 2422 1013 1678 
Q 1013 972 1258 542 
Q 1503 113 1963 113 
Q 2422 113 2669 542 
Q 2916 972 2916 1678 
z
" transform="scale(0.015625)"/>
       </defs>
       <use xlink:href="#Georgia-2212"/>
       <use xlink:href="#Georgia-31" x="64.306641"/>
       <use xlink:href="#Georgia-2e" x="107.275391"/>
       <use xlink:href="#Georgia-30" x="134.228516"/>
       <use xlink:href="#Georgia-30" x="195.605469"/>
      </g>
     </g>
    </g>
    <g id="xtick_2">
     <g id="line2d_3">
      <path d="M 167.529318 456.7675 
L 167.529318 13.2475 
" clip-path="url(#p9b9dc974d2)" style="fill: none; stroke: #b0b0b0; stroke-width: 0.8; stroke-linecap: square"/>
     </g>
     <g id="line2d_4">
      <g>
       <use xlink:href="#mff8437a6bc" x="167.529318" y="456.7675" style="stroke: #000000; stroke-width: 0.8"/>
      </g>
     </g>
     <g id="text_2">
      <!-- −0.75 -->
      <g transform="translate(147.071818 475.8625) scale(0.16 -0.16)">
       <defs>
        <path id="Georgia-37" d="M 3216 3150 
L 988 -1141 
L 597 -1141 
L 2694 2828 
L 1466 2828 
Q 1194 2828 1041 2822 
Q 888 2816 759 2763 
Q 663 2722 586 2555 
Q 509 2388 469 2128 
L 278 2128 
L 278 3353 
L 3216 3353 
L 3216 3150 
z
" transform="scale(0.015625)"/>
        <path id="Georgia-35" d="M 2634 1466 
Q 2841 1303 2977 1047 
Q 3113 791 3113 406 
Q 3113 -266 2653 -703 
Q 2194 -1141 1488 -1141 
Q 941 -1141 562 -881 
Q 184 -622 184 -278 
Q 184 -119 262 0 
Q 341 119 503 119 
Q 691 119 789 20 
Q 888 -78 888 -194 
Q 888 -294 853 -444 
Q 819 -594 800 -666 
Q 825 -688 881 -725 
Q 938 -763 1016 -797 
Q 1097 -831 1214 -857 
Q 1331 -884 1488 -884 
Q 1688 -884 1866 -803 
Q 2044 -722 2166 -563 
Q 2300 -388 2367 -164 
Q 2434 59 2434 403 
Q 2434 844 2189 1133 
Q 1944 1422 1544 1422 
Q 1294 1422 1076 1328 
Q 859 1234 688 1016 
L 478 1097 
L 744 3353 
L 2981 3353 
L 2981 2797 
L 997 2797 
L 834 1472 
Q 975 1572 1204 1670 
Q 1434 1769 1709 1769 
Q 1938 1769 2183 1698 
Q 2428 1628 2634 1466 
z
" transform="scale(0.015625)"/>
       </defs>
       <use xlink:href="#Georgia-2212"/>
       <use xlink:href="#Georgia-30" x="64.306641"/>
       <use xlink:href="#Georgia-2e" x="125.683594"/>
       <use xlink:href="#Georgia-37" x="152.636719"/>
       <use xlink:href="#Georgia-35" x="202.880859"/>
      </g>
     </g>
    </g>
    <g id="xtick_3">
     <g id="line2d_5">
      <path d="M 256.302045 456.7675 
L 256.302045 13.2475 
" clip-path="url(#p9b9dc974d2)" style="fill: none; stroke: #b0b0b0; stroke-width: 0.8; stroke-linecap: square"/>
     </g>
     <g id="line2d_6">
      <g>
       <use xlink:href="#mff8437a6bc" x="256.302045" y="456.7675" style="stroke: #000000; stroke-width: 0.8"/>
      </g>
     </g>
     <g id="text_3">
      <!-- −0.50 -->
      <g transform="translate(234.954545 475.8625) scale(0.16 -0.16)">
       <use xlink:href="#Georgia-2212"/>
       <use xlink:href="#Georgia-30" x="64.306641"/>
       <use xlink:href="#Georgia-2e" x="125.683594"/>
       <use xlink:href="#Georgia-35" x="152.636719"/>
       <use xlink:href="#Georgia-30" x="205.46875"/>
      </g>
     </g>
    </g>
    <g id="xtick_4">
     <g id="line2d_7">
      <path d="M 345.074773 456.7675 
L 345.074773 13.2475 
" clip-path="url(#p9b9dc974d2)" style="fill: none; stroke: #b0b0b0; stroke-width: 0.8; stroke-linecap: square"/>
     </g>
     <g id="line2d_8">
      <g>
       <use xlink:href="#mff8437a6bc" x="345.074773" y="456.7675" style="stroke: #000000; stroke-width: 0.8"/>
      </g>
     </g>
     <g id="text_4">
      <!-- −0.25 -->
      <g transform="translate(324.168523 475.8625) scale(0.16 -0.16)">
       <defs>
        <path id="Georgia-32" d="M 3272 0 
L 344 0 
L 344 425 
Q 428 522 578 642 
Q 728 763 934 903 
Q 1059 988 1234 1088 
Q 1409 1188 1631 1306 
Q 1878 1438 2011 1538 
Q 2144 1638 2253 1784 
Q 2325 1881 2369 2026 
Q 2413 2172 2413 2441 
Q 2413 2831 2203 3014 
Q 1994 3197 1666 3197 
Q 1463 3197 1281 3117 
Q 1100 3038 1009 2897 
Q 1031 2797 1064 2659 
Q 1097 2522 1097 2391 
Q 1097 2272 998 2180 
Q 900 2088 706 2088 
Q 550 2088 465 2195 
Q 381 2303 381 2484 
Q 381 2653 475 2823 
Q 569 2994 744 3138 
Q 916 3278 1169 3365 
Q 1422 3453 1716 3453 
Q 2356 3453 2732 3167 
Q 3109 2881 3109 2403 
Q 3109 2175 3042 1987 
Q 2975 1800 2825 1656 
Q 2659 1497 2437 1383 
Q 2216 1269 1759 1066 
Q 1488 944 1253 811 
Q 1019 678 869 553 
L 3272 553 
L 3272 0 
z
" transform="scale(0.015625)"/>
       </defs>
       <use xlink:href="#Georgia-2212"/>
       <use xlink:href="#Georgia-30" x="64.306641"/>
       <use xlink:href="#Georgia-2e" x="125.683594"/>
       <use xlink:href="#Georgia-32" x="152.636719"/>
       <use xlink:href="#Georgia-35" x="208.496094"/>
      </g>
     </g>
    </g>
    <g id="xtick_5">
     <g id="line2d_9">
      <path d="M 433.8475 456.7675 
L 433.8475 13.2475 
" clip-path="url(#p9b9dc974d2)" style="fill: none; stroke: #b0b0b0; stroke-width: 0.8; stroke-linecap: square"/>
     </g>
     <g id="line2d_10">
      <g>
       <use xlink:href="#mff8437a6bc" x="433.8475" y="456.7675" style="stroke: #000000; stroke-width: 0.8"/>
      </g>
     </g>
     <g id="text_5">
      <!-- 0.00 -->
      <g transform="translate(416.96125 475.8625) scale(0.16 -0.16)">
       <use xlink:href="#Georgia-30"/>
       <use xlink:href="#Georgia-2e" x="61.376953"/>
       <use xlink:href="#Georgia-30" x="88.330078"/>
       <use xlink:href="#Georgia-30" x="149.707031"/>
      </g>
     </g>
    </g>
    <g id="xtick_6">
     <g id="line2d_11">
      <path d="M 522.620227 456.7675 
L 522.620227 13.2475 
" clip-path="url(#p9b9dc974d2)" style="fill: none; stroke: #b0b0b0; stroke-width: 0.8; stroke-linecap: square"/>
     </g>
     <g id="line2d_12">
      <g>
       <use xlink:href="#mff8437a6bc" x="522.620227" y="456.7675" style="stroke: #000000; stroke-width: 0.8"/>
      </g>
     </g>
     <g id="text_6">
      <!-- 0.25 -->
      <g transform="translate(506.858977 475.8625) scale(0.16 -0.16)">
       <use xlink:href="#Georgia-30"/>
       <use xlink:href="#Georgia-2e" x="61.376953"/>
       <use xlink:href="#Georgia-32" x="88.330078"/>
       <use xlink:href="#Georgia-35" x="144.189453"/>
      </g>
     </g>
    </g>
    <g id="xtick_7">
     <g id="line2d_13">
      <path d="M 611.392955 456.7675 
L 611.392955 13.2475 
" clip-path="url(#p9b9dc974d2)" style="fill: none; stroke: #b0b0b0; stroke-width: 0.8; stroke-linecap: square"/>
     </g>
     <g id="line2d_14">
      <g>
       <use xlink:href="#mff8437a6bc" x="611.392955" y="456.7675" style="stroke: #000000; stroke-width: 0.8"/>
      </g>
     </g>
     <g id="text_7">
      <!-- 0.50 -->
      <g transform="translate(595.190455 475.8625) scale(0.16 -0.16)">
       <use xlink:href="#Georgia-30"/>
       <use xlink:href="#Georgia-2e" x="61.376953"/>
       <use xlink:href="#Georgia-35" x="88.330078"/>
       <use xlink:href="#Georgia-30" x="141.162109"/>
      </g>
     </g>
    </g>
    <g id="xtick_8">
     <g id="line2d_15">
      <path d="M 700.165682 456.7675 
L 700.165682 13.2475 
" clip-path="url(#p9b9dc974d2)" style="fill: none; stroke: #b0b0b0; stroke-width: 0.8; stroke-linecap: square"/>
     </g>
     <g id="line2d_16">
      <g>
       <use xlink:href="#mff8437a6bc" x="700.165682" y="456.7675" style="stroke: #000000; stroke-width: 0.8"/>
      </g>
     </g>
     <g id="text_8">
      <!-- 0.75 -->
      <g transform="translate(684.853182 475.8625) scale(0.16 -0.16)">
       <use xlink:href="#Georgia-30"/>
       <use xlink:href="#Georgia-2e" x="61.376953"/>
       <use xlink:href="#Georgia-37" x="88.330078"/>
       <use xlink:href="#Georgia-35" x="138.574219"/>
      </g>
     </g>
    </g>
    <g id="xtick_9">
     <g id="line2d_17">
      <path d="M 788.938409 456.7675 
L 788.938409 13.2475 
" clip-path="url(#p9b9dc974d2)" style="fill: none; stroke: #b0b0b0; stroke-width: 0.8; stroke-linecap: square"/>
     </g>
     <g id="line2d_18">
      <g>
       <use xlink:href="#mff8437a6bc" x="788.938409" y="456.7675" style="stroke: #000000; stroke-width: 0.8"/>
      </g>
     </g>
     <g id="text_9">
      <!-- 1.00 -->
      <g transform="translate(773.524659 475.8625) scale(0.16 -0.16)">
       <use xlink:href="#Georgia-31"/>
       <use xlink:href="#Georgia-2e" x="42.96875"/>
       <use xlink:href="#Georgia-30" x="69.921875"/>
       <use xlink:href="#Georgia-30" x="131.298828"/>
      </g>
     </g>
    </g>
   </g>
   <g id="matplotlib.axis_2">
    <g id="ytick_1">
     <g id="line2d_19">
      <path d="M 43.2475 456.7675 
L 824.4475 456.7675 
" clip-path="url(#p9b9dc974d2)" style="fill: none; stroke: #b0b0b0; stroke-width: 0.8; stroke-linecap: square"/>
     </g>
     <g id="line2d_20">
      <defs>
       <path id="m2fad8cce4d" d="M 0 0 
L -3.5 0 
" style="stroke: #000000; stroke-width: 0.8"/>
      </defs>
      <g>
       <use xlink:href="#m2fad8cce4d" x="43.2475" y="456.7675" style="stroke: #000000; stroke-width: 0.8"/>
      </g>
     </g>
     <g id="text_10">
      <!-- −20 -->
      <g transform="translate(7.2 462.815) scale(0.16 -0.16)">
       <use xlink:href="#Georgia-2212"/>
       <use xlink:href="#Georgia-32" x="64.306641"/>
       <use xlink:href="#Georgia-30" x="120.166016"/>
      </g>
     </g>
    </g>
    <g id="ytick_2">
     <g id="line2d_21">
      <path d="M 43.2475 401.3275 
L 824.4475 401.3275 
" clip-path="url(#p9b9dc974d2)" style="fill: none; stroke: #b0b0b0; stroke-width: 0.8; stroke-linecap: square"/>
     </g>
     <g id="line2d_22">
      <g>
       <use xlink:href="#m2fad8cce4d" x="43.2475" y="401.3275" style="stroke: #000000; stroke-width: 0.8"/>
      </g>
     </g>
     <g id="text_11">
      <!-- −15 -->
      <g transform="translate(10.63 407.375) scale(0.16 -0.16)">
       <use xlink:href="#Georgia-2212"/>
       <use xlink:href="#Georgia-31" x="64.306641"/>
       <use xlink:href="#Georgia-35" x="107.275391"/>
      </g>
     </g>
    </g>
    <g id="ytick_3">
     <g id="line2d_23">
      <path d="M 43.2475 345.8875 
L 824.4475 345.8875 
" clip-path="url(#p9b9dc974d2)" style="fill: none; stroke: #b0b0b0; stroke-width: 0.8; stroke-linecap: square"/>
     </g>
     <g id="line2d_24">
      <g>
       <use xlink:href="#m2fad8cce4d" x="43.2475" y="345.8875" style="stroke: #000000; stroke-width: 0.8"/>
      </g>
     </g>
     <g id="text_12">
      <!-- −10 -->
      <g transform="translate(9.2625 351.935) scale(0.16 -0.16)">
       <use xlink:href="#Georgia-2212"/>
       <use xlink:href="#Georgia-31" x="64.306641"/>
       <use xlink:href="#Georgia-30" x="107.275391"/>
      </g>
     </g>
    </g>
    <g id="ytick_4">
     <g id="line2d_25">
      <path d="M 43.2475 290.4475 
L 824.4475 290.4475 
" clip-path="url(#p9b9dc974d2)" style="fill: none; stroke: #b0b0b0; stroke-width: 0.8; stroke-linecap: square"/>
     </g>
     <g id="line2d_26">
      <g>
       <use xlink:href="#m2fad8cce4d" x="43.2475" y="290.4475" style="stroke: #000000; stroke-width: 0.8"/>
      </g>
     </g>
     <g id="text_13">
      <!-- −5 -->
      <g transform="translate(17.505 296.495) scale(0.16 -0.16)">
       <use xlink:href="#Georgia-2212"/>
       <use xlink:href="#Georgia-35" x="64.306641"/>
      </g>
     </g>
    </g>
    <g id="ytick_5">
     <g id="line2d_27">
      <path d="M 43.2475 235.0075 
L 824.4475 235.0075 
" clip-path="url(#p9b9dc974d2)" style="fill: none; stroke: #b0b0b0; stroke-width: 0.8; stroke-linecap: square"/>
     </g>
     <g id="line2d_28">
      <g>
       <use xlink:href="#m2fad8cce4d" x="43.2475" y="235.0075" style="stroke: #000000; stroke-width: 0.8"/>
      </g>
     </g>
     <g id="text_14">
      <!-- 0 -->
      <g transform="translate(26.4275 241.055) scale(0.16 -0.16)">
       <use xlink:href="#Georgia-30"/>
      </g>
     </g>
    </g>
    <g id="ytick_6">
     <g id="line2d_29">
      <path d="M 43.2475 179.5675 
L 824.4475 179.5675 
" clip-path="url(#p9b9dc974d2)" style="fill: none; stroke: #b0b0b0; stroke-width: 0.8; stroke-linecap: square"/>
     </g>
     <g id="line2d_30">
      <g>
       <use xlink:href="#m2fad8cce4d" x="43.2475" y="179.5675" style="stroke: #000000; stroke-width: 0.8"/>
      </g>
     </g>
     <g id="text_15">
      <!-- 5 -->
      <g transform="translate(27.795 185.615) scale(0.16 -0.16)">
       <use xlink:href="#Georgia-35"/>
      </g>
     </g>
    </g>
    <g id="ytick_7">
     <g id="line2d_31">
      <path d="M 43.2475 124.1275 
L 824.4475 124.1275 
" clip-path="url(#p9b9dc974d2)" style="fill: none; stroke: #b0b0b0; stroke-width: 0.8; stroke-linecap: square"/>
     </g>
     <g id="line2d_32">
      <g>
       <use xlink:href="#m2fad8cce4d" x="43.2475" y="124.1275" style="stroke: #000000; stroke-width: 0.8"/>
      </g>
     </g>
     <g id="text_16">
      <!-- 10 -->
      <g transform="translate(19.5525 130.175) scale(0.16 -0.16)">
       <use xlink:href="#Georgia-31"/>
       <use xlink:href="#Georgia-30" x="42.96875"/>
      </g>
     </g>
    </g>
    <g id="ytick_8">
     <g id="line2d_33">
      <path d="M 43.2475 68.6875 
L 824.4475 68.6875 
" clip-path="url(#p9b9dc974d2)" style="fill: none; stroke: #b0b0b0; stroke-width: 0.8; stroke-linecap: square"/>
     </g>
     <g id="line2d_34">
      <g>
       <use xlink:href="#m2fad8cce4d" x="43.2475" y="68.6875" style="stroke: #000000; stroke-width: 0.8"/>
      </g>
     </g>
     <g id="text_17">
      <!-- 15 -->
      <g transform="translate(20.92 74.735) scale(0.16 -0.16)">
       <use xlink:href="#Georgia-31"/>
       <use xlink:href="#Georgia-35" x="42.96875"/>
      </g>
     </g>
    </g>
    <g id="ytick_9">
     <g id="line2d_35">
      <path d="M 43.2475 13.2475 
L 824.4475 13.2475 
" clip-path="url(#p9b9dc974d2)" style="fill: none; stroke: #b0b0b0; stroke-width: 0.8; stroke-linecap: square"/>
     </g>
     <g id="line2d_36">
      <g>
       <use xlink:href="#m2fad8cce4d" x="43.2475" y="13.2475" style="stroke: #000000; stroke-width: 0.8"/>
      </g>
     </g>
     <g id="text_18">
      <!-- 20 -->
      <g transform="translate(17.49 19.295) scale(0.16 -0.16)">
       <use xlink:href="#Georgia-32"/>
       <use xlink:href="#Georgia-30" x="55.859375"/>
      </g>
     </g>
    </g>
   </g>
   <g id="line2d_37">
    <path d="M 78.756591 223.9195 
L 788.938409 223.9195 
L 788.938409 223.9195 
" clip-path="url(#p9b9dc974d2)" style="fill: none; stroke: #a80000; stroke-width: 3; stroke-linecap: square"/>
   </g>
   <g id="line2d_38">
    <path d="M 78.756591 301.5355 
L 788.938409 168.4795 
L 788.938409 168.4795 
" clip-path="url(#p9b9dc974d2)" style="fill: none; stroke: #1f77b4; stroke-width: 3; stroke-linecap: square"/>
   </g>
   <g id="line2d_39">
    <path d="M 78.756591 2.1595 
L 88.470851 16.520448 
L 98.185112 30.483074 
L 107.899372 44.047377 
L 117.266694 56.750003 
L 126.634017 69.08225 
L 136.001339 81.044118 
L 145.368662 92.635607 
L 154.389046 103.447726 
L 163.409431 113.916393 
L 172.429816 124.041608 
L 181.4502 133.823372 
L 190.123647 142.905023 
L 198.797094 151.669134 
L 207.47054 160.115704 
L 216.143987 168.244735 
L 224.470496 175.749862 
L 232.797005 182.962344 
L 241.123514 189.882181 
L 249.450023 196.509373 
L 257.776531 202.84392 
L 265.756102 208.639918 
L 273.735673 214.167151 
L 281.715244 219.425618 
L 289.694815 224.415318 
L 297.674386 229.136252 
L 305.307019 233.400437 
L 312.939653 237.418718 
L 320.572286 241.191096 
L 328.204919 244.717571 
L 335.837552 247.998143 
L 343.470185 251.032812 
L 351.102818 253.821577 
L 358.735451 256.364439 
L 366.021147 258.562326 
L 373.306842 260.536156 
L 380.592537 262.28593 
L 387.878232 263.811647 
L 395.163928 265.113308 
L 402.449623 266.190913 
L 409.735318 267.044461 
L 417.021013 267.673953 
L 424.306709 268.079388 
L 431.592404 268.260767 
L 438.878099 268.21809 
L 446.163794 267.951356 
L 453.44949 267.460566 
L 460.735185 266.745719 
L 468.02088 265.806816 
L 475.306575 264.643857 
L 482.592271 263.256841 
L 489.877966 261.645769 
L 497.163661 259.81064 
L 504.449356 257.751455 
L 511.735052 255.468214 
L 519.020747 252.960916 
L 526.65338 250.093909 
L 534.286013 246.980998 
L 541.918646 243.622184 
L 549.551279 240.017467 
L 557.183912 236.166847 
L 564.816546 232.070324 
L 572.449179 227.727898 
L 580.42875 222.925165 
L 588.408321 217.853666 
L 596.387892 212.513401 
L 604.367463 206.90437 
L 612.347034 201.026574 
L 620.326605 194.88001 
L 628.653114 188.179657 
L 636.979622 181.186659 
L 645.306131 173.901015 
L 653.63264 166.322727 
L 661.959149 158.451793 
L 670.632596 149.941715 
L 679.306042 141.114096 
L 687.979489 131.968937 
L 696.652936 122.506237 
L 705.67332 112.328183 
L 714.693705 101.806678 
L 723.71409 90.941721 
L 732.734474 79.733312 
L 742.101797 67.730291 
L 751.469119 55.356891 
L 760.836442 42.613111 
L 770.203764 29.498953 
L 779.918024 15.507876 
L 788.938409 2.1595 
L 788.938409 2.1595 
" clip-path="url(#p9b9dc974d2)" style="fill: none; stroke: #ff7f0e; stroke-width: 3; stroke-linecap: square"/>
   </g>
   <g id="line2d_40">
    <path d="M 147.026514 487.5325 
L 151.960481 467.517567 
L 157.164549 447.290975 
L 162.368617 427.955109 
L 167.572685 409.493216 
L 172.776753 391.888542 
L 177.633884 376.216135 
L 182.491014 361.262246 
L 187.348144 347.013254 
L 192.205274 333.455537 
L 197.062404 320.575474 
L 201.919534 308.359444 
L 206.429727 297.598662 
L 210.939919 287.387789 
L 215.450111 277.715918 
L 219.960304 268.572143 
L 224.470496 259.945559 
L 228.980688 251.82526 
L 233.143943 244.769533 
L 237.307197 238.127326 
L 241.470452 231.890062 
L 245.633706 226.049162 
L 249.79696 220.59605 
L 253.960215 215.522146 
L 258.123469 210.818874 
L 261.939786 206.825804 
L 265.756102 203.130353 
L 269.572419 199.725914 
L 273.388736 196.605878 
L 277.205052 193.76364 
L 281.021369 191.192593 
L 284.837685 188.886128 
L 288.654002 186.83764 
L 292.470318 185.04052 
L 296.286635 183.488163 
L 300.102951 182.17396 
L 303.919268 181.091305 
L 307.735585 180.233591 
L 311.551901 179.594211 
L 315.368218 179.166557 
L 319.531472 178.933735 
L 323.694727 178.936445 
L 327.857981 179.166108 
L 332.021235 179.614147 
L 336.531428 180.336005 
L 341.04162 181.293179 
L 345.551812 182.474762 
L 350.408942 183.985694 
L 355.266073 185.730618 
L 360.470141 187.844365 
L 365.674209 190.194336 
L 371.225215 192.942466 
L 377.123158 196.113218 
L 383.36804 199.725622 
L 389.95986 203.792008 
L 397.245555 208.548781 
L 405.572064 214.265211 
L 415.286324 221.224085 
L 428.123025 230.721184 
L 454.837241 250.55441 
L 464.551501 257.444205 
L 472.87801 263.079742 
L 480.163706 267.749315 
L 486.755525 271.723601 
L 493.000407 275.237182 
L 498.89835 278.304264 
L 504.449356 280.945648 
L 509.653424 283.187466 
L 514.857492 285.185242 
L 519.714623 286.814872 
L 524.571753 288.2037 
L 529.081945 289.265802 
L 533.592137 290.097623 
L 537.755392 290.651633 
L 541.918646 290.991557 
L 546.081901 291.108815 
L 550.245155 290.994831 
L 554.061472 290.67988 
L 557.877788 290.156806 
L 561.694105 289.419002 
L 565.510421 288.459861 
L 569.326738 287.272776 
L 573.143054 285.851141 
L 576.959371 284.188347 
L 580.775688 282.277788 
L 584.592004 280.112856 
L 588.408321 277.686946 
L 592.224637 274.993449 
L 596.040954 272.025759 
L 599.85727 268.777268 
L 603.673587 265.241369 
L 607.489904 261.411456 
L 611.30622 257.280921 
L 615.122537 252.843158 
L 619.285791 247.643804 
L 623.449045 242.062382 
L 627.6123 236.090314 
L 631.775554 229.719022 
L 635.938809 222.939928 
L 640.102063 215.744455 
L 644.265318 208.124024 
L 648.77551 199.379057 
L 653.285702 190.114382 
L 657.795895 180.319093 
L 662.306087 169.982286 
L 666.816279 159.093053 
L 671.326471 147.64049 
L 675.836664 135.613689 
L 680.693794 122.007047 
L 685.550924 107.708157 
L 690.408054 92.703397 
L 695.265184 76.979146 
L 700.122315 60.521784 
L 704.979445 43.317688 
L 710.183513 24.040609 
L 715.387581 3.87392 
L 716.611371 -1 
L 716.611371 -1 
" clip-path="url(#p9b9dc974d2)" style="fill: none; stroke: #2ca02c; stroke-width: 3; stroke-linecap: square"/>
   </g>
   <g id="line2d_41">
    <path d="M 157.599622 -1 
L 161.327804 28.977527 
L 165.14412 57.818936 
L 168.960437 84.855513 
L 172.429816 107.918186 
L 175.899194 129.58265 
L 179.368573 149.892468 
L 182.837952 168.890619 
L 186.30733 186.619504 
L 189.776709 203.120938 
L 192.89915 216.956851 
L 196.021591 229.861595 
L 199.144032 241.864444 
L 202.266472 252.994292 
L 205.388913 263.279651 
L 208.511354 272.748649 
L 211.286857 280.502638 
L 214.06236 287.652766 
L 216.837863 294.21803 
L 219.613366 300.217188 
L 222.388869 305.66876 
L 225.164372 310.591027 
L 227.592937 314.478006 
L 230.021502 317.98549 
L 232.450067 321.125279 
L 234.878632 323.909031 
L 237.307197 326.348264 
L 239.735762 328.454356 
L 242.164327 330.238547 
L 244.592892 331.711936 
L 246.67452 332.735779 
L 248.756147 333.546151 
L 250.837774 334.149798 
L 252.919401 334.553388 
L 255.347966 334.780185 
L 257.776531 334.753996 
L 260.205096 334.48502 
L 262.633662 333.983318 
L 265.062227 333.258813 
L 267.490792 332.321285 
L 270.266295 331.001344 
L 273.041798 329.429929 
L 276.164238 327.378831 
L 279.286679 325.046559 
L 282.756058 322.148583 
L 286.225437 318.952678 
L 290.041753 315.12296 
L 294.205008 310.606713 
L 298.7152 305.36197 
L 303.57233 299.360773 
L 309.123336 292.130422 
L 315.715156 283.144989 
L 324.041664 271.380696 
L 350.062005 234.309521 
L 357.000762 224.95921 
L 363.245644 216.920899 
L 368.79665 210.13638 
L 374.000718 204.127543 
L 378.857848 198.858313 
L 383.36804 194.282287 
L 387.878232 190.031323 
L 392.041487 186.411272 
L 396.204741 183.096081 
L 400.021058 180.334823 
L 403.837374 177.8474 
L 407.653691 175.64094 
L 411.12307 173.884173 
L 414.592448 172.368905 
L 418.061827 171.098657 
L 421.531206 170.076369 
L 425.000584 169.304397 
L 428.123025 168.825122 
L 431.245466 168.550939 
L 434.367907 168.482358 
L 437.490348 168.619506 
L 440.612788 168.962128 
L 443.735229 169.509588 
L 447.204608 170.356868 
L 450.673987 171.453818 
L 454.143365 172.797907 
L 457.612744 174.386021 
L 461.082123 176.214464 
L 464.551501 178.278958 
L 468.367818 180.816724 
L 472.184135 183.626938 
L 476.000451 186.701467 
L 480.163706 190.346365 
L 484.32696 194.282287 
L 488.837152 198.858313 
L 493.694282 204.127543 
L 498.551413 209.724771 
L 503.755481 216.053166 
L 509.653424 223.59247 
L 516.245244 232.408957 
L 523.877877 243.015755 
L 534.286013 257.898375 
L 550.592093 281.210351 
L 557.877788 291.202881 
L 563.775732 298.919679 
L 568.9798 305.36197 
L 573.489992 310.606713 
L 577.653247 315.12296 
L 581.469563 318.952678 
L 584.938942 322.148583 
L 588.408321 325.046559 
L 591.530762 327.378831 
L 594.653202 329.429929 
L 597.428705 331.001344 
L 600.204208 332.321285 
L 602.979711 333.375582 
L 605.408276 334.068861 
L 607.836841 334.537926 
L 610.265406 334.772838 
L 612.693972 334.763514 
L 615.122537 334.499735 
L 617.204164 334.063262 
L 619.285791 333.425626 
L 621.367418 332.580146 
L 623.449045 331.520063 
L 625.530673 330.238547 
L 627.6123 328.728688 
L 630.040865 326.669267 
L 632.46943 324.278319 
L 634.897995 321.544486 
L 637.32656 318.45627 
L 639.755125 315.002032 
L 642.18369 311.169995 
L 644.612256 306.94824 
L 647.040821 302.324711 
L 649.816324 296.533055 
L 652.591827 290.182266 
L 655.367329 283.253675 
L 658.142832 275.728376 
L 660.918335 267.587221 
L 663.693838 258.810829 
L 666.816279 248.153637 
L 669.93872 236.639331 
L 673.061161 224.23923 
L 676.183602 210.92427 
L 679.306042 196.665006 
L 682.428483 181.431612 
L 685.897862 163.326364 
L 689.367241 143.939192 
L 692.836619 123.22752 
L 696.305998 101.148193 
L 699.775377 77.657475 
L 703.244755 52.711046 
L 706.714134 26.264004 
L 710.095378 -1 
L 710.095378 -1 
" clip-path="url(#p9b9dc974d2)" style="fill: none; stroke: #d62728; stroke-width: 3; stroke-linecap: square"/>
   </g>
   <g id="patch_3">
    <path d="M 43.2475 456.7675 
L 43.2475 13.2475 
" style="fill: none; stroke: #000000; stroke-width: 1.5; stroke-linejoin: miter; stroke-linecap: square"/>
   </g>
   <g id="patch_4">
    <path d="M 824.4475 456.7675 
L 824.4475 13.2475 
" style="fill: none; stroke: #000000; stroke-width: 1.5; stroke-linejoin: miter; stroke-linecap: square"/>
   </g>
   <g id="patch_5">
    <path d="M 43.2475 456.7675 
L 824.4475 456.7675 
" style="fill: none; stroke: #000000; stroke-width: 1.5; stroke-linejoin: miter; stroke-linecap: square"/>
   </g>
   <g id="patch_6">
    <path d="M 43.2475 13.2475 
L 824.4475 13.2475 
" style="fill: none; stroke: #000000; stroke-width: 1.5; stroke-linejoin: miter; stroke-linecap: square"/>
   </g>
   <g id="legend_1">
    <g id="patch_7">
     <path d="M 50.2475 451.7675 
L 106.7475 451.7675 
Q 108.7475 451.7675 108.7475 449.7675 
L 108.7475 377.126875 
Q 108.7475 375.126875 106.7475 375.126875 
L 50.2475 375.126875 
Q 48.2475 375.126875 48.2475 377.126875 
L 48.2475 449.7675 
Q 48.2475 451.7675 50.2475 451.7675 
z
" style="fill: #ffffff; opacity: 0.8; stroke: #cccccc; stroke-linejoin: miter"/>
    </g>
    <g id="line2d_42">
     <path d="M 52.2475 383.18625 
L 62.2475 383.18625 
L 72.2475 383.18625 
" style="fill: none; stroke: #a80000; stroke-width: 3; stroke-linecap: square"/>
    </g>
    <g id="text_19">
     <!-- $k=0$ -->
     <g transform="translate(80.2475 386.68625) scale(0.1 -0.1)">
      <defs>
       <path id="DejaVuSans-Oblique-6b" d="M 1172 4863 
L 1747 4863 
L 1197 2028 
L 3169 3500 
L 3916 3500 
L 1716 1825 
L 3322 0 
L 2625 0 
L 1131 1709 
L 800 0 
L 225 0 
L 1172 4863 
z
" transform="scale(0.015625)"/>
       <path id="DejaVuSans-3d" d="M 678 2906 
L 4684 2906 
L 4684 2381 
L 678 2381 
L 678 2906 
z
M 678 1631 
L 4684 1631 
L 4684 1100 
L 678 1100 
L 678 1631 
z
" transform="scale(0.015625)"/>
       <path id="DejaVuSans-30" d="M 2034 4250 
Q 1547 4250 1301 3770 
Q 1056 3291 1056 2328 
Q 1056 1369 1301 889 
Q 1547 409 2034 409 
Q 2525 409 2770 889 
Q 3016 1369 3016 2328 
Q 3016 3291 2770 3770 
Q 2525 4250 2034 4250 
z
M 2034 4750 
Q 2819 4750 3233 4129 
Q 3647 3509 3647 2328 
Q 3647 1150 3233 529 
Q 2819 -91 2034 -91 
Q 1250 -91 836 529 
Q 422 1150 422 2328 
Q 422 3509 836 4129 
Q 1250 4750 2034 4750 
z
" transform="scale(0.015625)"/>
      </defs>
      <use xlink:href="#DejaVuSans-Oblique-6b" transform="translate(0 0.015625)"/>
      <use xlink:href="#DejaVuSans-3d" transform="translate(77.392578 0.015625)"/>
      <use xlink:href="#DejaVuSans-30" transform="translate(180.664062 0.015625)"/>
     </g>
    </g>
    <g id="line2d_43">
     <path d="M 52.2475 397.914375 
L 62.2475 397.914375 
L 72.2475 397.914375 
" style="fill: none; stroke: #1f77b4; stroke-width: 3; stroke-linecap: square"/>
    </g>
    <g id="text_20">
     <!-- $k=1$ -->
     <g transform="translate(80.2475 401.414375) scale(0.1 -0.1)">
      <defs>
       <path id="DejaVuSans-31" d="M 794 531 
L 1825 531 
L 1825 4091 
L 703 3866 
L 703 4441 
L 1819 4666 
L 2450 4666 
L 2450 531 
L 3481 531 
L 3481 0 
L 794 0 
L 794 531 
z
" transform="scale(0.015625)"/>
      </defs>
      <use xlink:href="#DejaVuSans-Oblique-6b" transform="translate(0 0.015625)"/>
      <use xlink:href="#DejaVuSans-3d" transform="translate(77.392578 0.015625)"/>
      <use xlink:href="#DejaVuSans-31" transform="translate(180.664062 0.015625)"/>
     </g>
    </g>
    <g id="line2d_44">
     <path d="M 52.2475 412.6425 
L 62.2475 412.6425 
L 72.2475 412.6425 
" style="fill: none; stroke: #ff7f0e; stroke-width: 3; stroke-linecap: square"/>
    </g>
    <g id="text_21">
     <!-- $k=2$ -->
     <g transform="translate(80.2475 416.1425) scale(0.1 -0.1)">
      <defs>
       <path id="DejaVuSans-32" d="M 1228 531 
L 3431 531 
L 3431 0 
L 469 0 
L 469 531 
Q 828 903 1448 1529 
Q 2069 2156 2228 2338 
Q 2531 2678 2651 2914 
Q 2772 3150 2772 3378 
Q 2772 3750 2511 3984 
Q 2250 4219 1831 4219 
Q 1534 4219 1204 4116 
Q 875 4013 500 3803 
L 500 4441 
Q 881 4594 1212 4672 
Q 1544 4750 1819 4750 
Q 2544 4750 2975 4387 
Q 3406 4025 3406 3419 
Q 3406 3131 3298 2873 
Q 3191 2616 2906 2266 
Q 2828 2175 2409 1742 
Q 1991 1309 1228 531 
z
" transform="scale(0.015625)"/>
      </defs>
      <use xlink:href="#DejaVuSans-Oblique-6b" transform="translate(0 0.015625)"/>
      <use xlink:href="#DejaVuSans-3d" transform="translate(77.392578 0.015625)"/>
      <use xlink:href="#DejaVuSans-32" transform="translate(180.664062 0.015625)"/>
     </g>
    </g>
    <g id="line2d_45">
     <path d="M 52.2475 427.370625 
L 62.2475 427.370625 
L 72.2475 427.370625 
" style="fill: none; stroke: #2ca02c; stroke-width: 3; stroke-linecap: square"/>
    </g>
    <g id="text_22">
     <!-- $k=3$ -->
     <g transform="translate(80.2475 430.870625) scale(0.1 -0.1)">
      <defs>
       <path id="DejaVuSans-33" d="M 2597 2516 
Q 3050 2419 3304 2112 
Q 3559 1806 3559 1356 
Q 3559 666 3084 287 
Q 2609 -91 1734 -91 
Q 1441 -91 1130 -33 
Q 819 25 488 141 
L 488 750 
Q 750 597 1062 519 
Q 1375 441 1716 441 
Q 2309 441 2620 675 
Q 2931 909 2931 1356 
Q 2931 1769 2642 2001 
Q 2353 2234 1838 2234 
L 1294 2234 
L 1294 2753 
L 1863 2753 
Q 2328 2753 2575 2939 
Q 2822 3125 2822 3475 
Q 2822 3834 2567 4026 
Q 2313 4219 1838 4219 
Q 1578 4219 1281 4162 
Q 984 4106 628 3988 
L 628 4550 
Q 988 4650 1302 4700 
Q 1616 4750 1894 4750 
Q 2613 4750 3031 4423 
Q 3450 4097 3450 3541 
Q 3450 3153 3228 2886 
Q 3006 2619 2597 2516 
z
" transform="scale(0.015625)"/>
      </defs>
      <use xlink:href="#DejaVuSans-Oblique-6b" transform="translate(0 0.015625)"/>
      <use xlink:href="#DejaVuSans-3d" transform="translate(77.392578 0.015625)"/>
      <use xlink:href="#DejaVuSans-33" transform="translate(180.664062 0.015625)"/>
     </g>
    </g>
    <g id="line2d_46">
     <path d="M 52.2475 442.09875 
L 62.2475 442.09875 
L 72.2475 442.09875 
" style="fill: none; stroke: #d62728; stroke-width: 3; stroke-linecap: square"/>
    </g>
    <g id="text_23">
     <!-- $k=4$ -->
     <g transform="translate(80.2475 445.59875) scale(0.1 -0.1)">
      <defs>
       <path id="DejaVuSans-34" d="M 2419 4116 
L 825 1625 
L 2419 1625 
L 2419 4116 
z
M 2253 4666 
L 3047 4666 
L 3047 1625 
L 3713 1625 
L 3713 1100 
L 3047 1100 
L 3047 0 
L 2419 0 
L 2419 1100 
L 313 1100 
L 313 1709 
L 2253 4666 
z
" transform="scale(0.015625)"/>
      </defs>
      <use xlink:href="#DejaVuSans-Oblique-6b" transform="translate(0 0.015625)"/>
      <use xlink:href="#DejaVuSans-3d" transform="translate(77.392578 0.015625)"/>
      <use xlink:href="#DejaVuSans-34" transform="translate(180.664062 0.015625)"/>
     </g>
    </g>
   </g>
  </g>
 </g>
 <defs>
  <clipPath id="p9b9dc974d2">
   <rect x="43.2475" y="13.2475" width="781.2" height="443.52"/>
  </clipPath>
 </defs>
</svg>
