<?xml version="1.0" encoding="utf-8" standalone="no"?>
<!DOCTYPE svg PUBLIC "-//W3C//DTD SVG 1.1//EN"
  "http://www.w3.org/Graphics/SVG/1.1/DTD/svg11.dtd">
<svg xmlns:xlink="http://www.w3.org/1999/xlink" width="1000.7675pt" height="568.739576pt" viewBox="0 0 1000.7675 568.739576" xmlns="http://www.w3.org/2000/svg" version="1.1">
 <metadata>
  <rdf:RDF xmlns:dc="http://purl.org/dc/elements/1.1/" xmlns:cc="http://creativecommons.org/ns#" xmlns:rdf="http://www.w3.org/1999/02/22-rdf-syntax-ns#">
   <cc:Work>
    <dc:type rdf:resource="http://purl.org/dc/dcmitype/StillImage"/>
    <dc:date>2023-11-29T01:32:18.078009</dc:date>
    <dc:format>image/svg+xml</dc:format>
    <dc:creator>
     <cc:Agent>
      <dc:title>Matplotlib v3.6.2, https://matplotlib.org/</dc:title>
     </cc:Agent>
    </dc:creator>
   </cc:Work>
  </rdf:RDF>
 </metadata>
 <defs>
  <style type="text/css">*{stroke-linejoin: round; stroke-linecap: butt}</style>
 </defs>
 <g id="figure_1">
  <g id="patch_1">
   <path d="M 0 568.739576 
L 1000.7675 568.739576 
L 1000.7675 0 
L 0 0 
L 0 568.739576 
z
" style="fill: none"/>
  </g>
  <g id="axes_1">
   <g id="patch_2">
    <path d="M 33.4275 538.974576 
L 684.734342 538.974576 
L 684.734342 11.655929 
L 33.4275 11.655929 
L 33.4275 538.974576 
z
" style="fill: none"/>
   </g>
   <g id="matplotlib.axis_1">
    <g id="xtick_1">
     <g id="line2d_1">
      <path d="M 63.032356 538.974576 
L 63.032356 11.655929 
" clip-path="url(#pe1bd960d3b)" style="fill: none; stroke: #b0b0b0; stroke-width: 0.8; stroke-linecap: square"/>
     </g>
     <g id="line2d_2">
      <defs>
       <path id="m3cf9737778" d="M 0 0 
L 0 3.5 
" style="stroke: #000000; stroke-width: 0.8"/>
      </defs>
      <g>
       <use xlink:href="#m3cf9737778" x="63.032356" y="538.974576" style="stroke: #000000; stroke-width: 0.8"/>
      </g>
     </g>
     <g id="text_1">
      <!-- 0 -->
      <g transform="translate(58.122356 558.069576) scale(0.16 -0.16)">
       <defs>
        <path id="Georgia-30" d="M 3209 2919 
Q 3409 2678 3507 2354 
Q 3606 2031 3606 1678 
Q 3606 1253 3484 917 
Q 3363 581 3150 359 
Q 2931 131 2631 15 
Q 2331 -100 1963 -100 
Q 1559 -100 1243 34 
Q 928 169 731 403 
Q 525 647 423 973 
Q 322 1300 322 1678 
Q 322 2050 420 2362 
Q 519 2675 728 2928 
Q 928 3172 1243 3312 
Q 1559 3453 1966 3453 
Q 2394 3453 2700 3309 
Q 3006 3166 3209 2919 
z
M 2916 1678 
Q 2916 2422 2661 2831 
Q 2406 3241 1969 3241 
Q 1525 3241 1269 2831 
Q 1013 2422 1013 1678 
Q 1013 972 1258 542 
Q 1503 113 1963 113 
Q 2422 113 2669 542 
Q 2916 972 2916 1678 
z
" transform="scale(0.015625)"/>
       </defs>
       <use xlink:href="#Georgia-30"/>
      </g>
     </g>
    </g>
    <g id="xtick_2">
     <g id="line2d_3">
      <path d="M 157.267541 538.974576 
L 157.267541 11.655929 
" clip-path="url(#pe1bd960d3b)" style="fill: none; stroke: #b0b0b0; stroke-width: 0.8; stroke-linecap: square"/>
     </g>
     <g id="line2d_4">
      <g>
       <use xlink:href="#m3cf9737778" x="157.267541" y="538.974576" style="stroke: #000000; stroke-width: 0.8"/>
      </g>
     </g>
     <g id="text_2">
      <!-- 1 -->
      <g transform="translate(153.830041 558.069576) scale(0.16 -0.16)">
       <defs>
        <path id="Georgia-31" d="M 2528 0 
L 422 0 
L 422 222 
Q 516 228 714 248 
Q 913 269 988 291 
Q 1084 322 1136 392 
Q 1188 463 1188 603 
L 1188 2797 
L 409 2797 
L 409 3059 
L 581 3059 
Q 919 3059 1186 3184 
Q 1453 3309 1569 3453 
L 1828 3453 
Q 1819 3250 1809 2978 
Q 1800 2706 1800 2491 
L 1800 638 
Q 1800 528 1848 442 
Q 1897 356 1988 316 
Q 2069 281 2253 253 
Q 2438 225 2528 222 
L 2528 0 
z
" transform="scale(0.015625)"/>
       </defs>
       <use xlink:href="#Georgia-31"/>
      </g>
     </g>
    </g>
    <g id="xtick_3">
     <g id="line2d_5">
      <path d="M 251.502726 538.974576 
L 251.502726 11.655929 
" clip-path="url(#pe1bd960d3b)" style="fill: none; stroke: #b0b0b0; stroke-width: 0.8; stroke-linecap: square"/>
     </g>
     <g id="line2d_6">
      <g>
       <use xlink:href="#m3cf9737778" x="251.502726" y="538.974576" style="stroke: #000000; stroke-width: 0.8"/>
      </g>
     </g>
     <g id="text_3">
      <!-- 2 -->
      <g transform="translate(247.033976 558.069576) scale(0.16 -0.16)">
       <defs>
        <path id="Georgia-32" d="M 3272 0 
L 344 0 
L 344 425 
Q 428 522 578 642 
Q 728 763 934 903 
Q 1059 988 1234 1088 
Q 1409 1188 1631 1306 
Q 1878 1438 2011 1538 
Q 2144 1638 2253 1784 
Q 2325 1881 2369 2026 
Q 2413 2172 2413 2441 
Q 2413 2831 2203 3014 
Q 1994 3197 1666 3197 
Q 1463 3197 1281 3117 
Q 1100 3038 1009 2897 
Q 1031 2797 1064 2659 
Q 1097 2522 1097 2391 
Q 1097 2272 998 2180 
Q 900 2088 706 2088 
Q 550 2088 465 2195 
Q 381 2303 381 2484 
Q 381 2653 475 2823 
Q 569 2994 744 3138 
Q 916 3278 1169 3365 
Q 1422 3453 1716 3453 
Q 2356 3453 2732 3167 
Q 3109 2881 3109 2403 
Q 3109 2175 3042 1987 
Q 2975 1800 2825 1656 
Q 2659 1497 2437 1383 
Q 2216 1269 1759 1066 
Q 1488 944 1253 811 
Q 1019 678 869 553 
L 3272 553 
L 3272 0 
z
" transform="scale(0.015625)"/>
       </defs>
       <use xlink:href="#Georgia-32"/>
      </g>
     </g>
    </g>
    <g id="xtick_4">
     <g id="line2d_7">
      <path d="M 345.737911 538.974576 
L 345.737911 11.655929 
" clip-path="url(#pe1bd960d3b)" style="fill: none; stroke: #b0b0b0; stroke-width: 0.8; stroke-linecap: square"/>
     </g>
     <g id="line2d_8">
      <g>
       <use xlink:href="#m3cf9737778" x="345.737911" y="538.974576" style="stroke: #000000; stroke-width: 0.8"/>
      </g>
     </g>
     <g id="text_4">
      <!-- 3 -->
      <g transform="translate(341.324161 558.069576) scale(0.16 -0.16)">
       <defs>
        <path id="Georgia-33" d="M 1522 -1141 
Q 1228 -1141 984 -1067 
Q 741 -994 566 -869 
Q 391 -744 295 -581 
Q 200 -419 200 -247 
Q 200 -94 275 29 
Q 350 153 516 153 
Q 703 153 801 61 
Q 900 -31 900 -150 
Q 900 -250 867 -403 
Q 834 -556 816 -622 
Q 838 -650 895 -697 
Q 953 -744 1038 -781 
Q 1138 -828 1247 -856 
Q 1356 -884 1556 -884 
Q 1744 -884 1917 -821 
Q 2091 -759 2222 -622 
Q 2359 -478 2436 -286 
Q 2513 -94 2513 219 
Q 2513 388 2477 553 
Q 2441 719 2344 841 
Q 2247 963 2080 1030 
Q 1913 1097 1656 1097 
L 1247 1097 
L 1247 1456 
L 1519 1456 
Q 1950 1456 2140 1693 
Q 2331 1931 2331 2409 
Q 2331 2800 2147 2998 
Q 1963 3197 1625 3197 
Q 1463 3197 1358 3158 
Q 1253 3119 1188 3081 
Q 1109 3038 1059 2984 
Q 1009 2931 984 2906 
Q 1006 2806 1037 2661 
Q 1069 2516 1069 2384 
Q 1069 2269 970 2176 
Q 872 2084 681 2084 
Q 516 2084 439 2203 
Q 363 2322 363 2478 
Q 363 2641 453 2809 
Q 544 2978 722 3125 
Q 900 3272 1156 3362 
Q 1413 3453 1747 3453 
Q 2131 3453 2382 3339 
Q 2634 3225 2778 3063 
Q 2919 2903 2972 2728 
Q 3025 2553 3025 2428 
Q 3025 2272 2981 2114 
Q 2938 1956 2838 1822 
Q 2728 1675 2548 1554 
Q 2369 1434 2097 1359 
L 2097 1309 
Q 2272 1294 2470 1231 
Q 2669 1169 2828 1047 
Q 2994 919 3100 717 
Q 3206 516 3206 206 
Q 3206 -394 2725 -767 
Q 2244 -1141 1522 -1141 
z
" transform="scale(0.015625)"/>
       </defs>
       <use xlink:href="#Georgia-33"/>
      </g>
     </g>
    </g>
    <g id="xtick_5">
     <g id="line2d_9">
      <path d="M 439.973096 538.974576 
L 439.973096 11.655929 
" clip-path="url(#pe1bd960d3b)" style="fill: none; stroke: #b0b0b0; stroke-width: 0.8; stroke-linecap: square"/>
     </g>
     <g id="line2d_10">
      <g>
       <use xlink:href="#m3cf9737778" x="439.973096" y="538.974576" style="stroke: #000000; stroke-width: 0.8"/>
      </g>
     </g>
     <g id="text_5">
      <!-- 4 -->
      <g transform="translate(435.453096 558.069576) scale(0.16 -0.16)">
       <defs>
        <path id="Georgia-34" d="M 3388 281 
L 2753 281 
L 2753 -1141 
L 2153 -1141 
L 2153 281 
L 153 281 
L 153 763 
L 2344 3434 
L 2753 3434 
L 2753 691 
L 3388 691 
L 3388 281 
z
M 2153 691 
L 2153 2738 
L 466 691 
L 2153 691 
z
" transform="scale(0.015625)"/>
       </defs>
       <use xlink:href="#Georgia-34"/>
      </g>
     </g>
    </g>
    <g id="xtick_6">
     <g id="line2d_11">
      <path d="M 534.208281 538.974576 
L 534.208281 11.655929 
" clip-path="url(#pe1bd960d3b)" style="fill: none; stroke: #b0b0b0; stroke-width: 0.8; stroke-linecap: square"/>
     </g>
     <g id="line2d_12">
      <g>
       <use xlink:href="#m3cf9737778" x="534.208281" y="538.974576" style="stroke: #000000; stroke-width: 0.8"/>
      </g>
     </g>
     <g id="text_6">
      <!-- 5 -->
      <g transform="translate(529.982031 558.069576) scale(0.16 -0.16)">
       <defs>
        <path id="Georgia-35" d="M 2634 1466 
Q 2841 1303 2977 1047 
Q 3113 791 3113 406 
Q 3113 -266 2653 -703 
Q 2194 -1141 1488 -1141 
Q 941 -1141 562 -881 
Q 184 -622 184 -278 
Q 184 -119 262 0 
Q 341 119 503 119 
Q 691 119 789 20 
Q 888 -78 888 -194 
Q 888 -294 853 -444 
Q 819 -594 800 -666 
Q 825 -688 881 -725 
Q 938 -763 1016 -797 
Q 1097 -831 1214 -857 
Q 1331 -884 1488 -884 
Q 1688 -884 1866 -803 
Q 2044 -722 2166 -563 
Q 2300 -388 2367 -164 
Q 2434 59 2434 403 
Q 2434 844 2189 1133 
Q 1944 1422 1544 1422 
Q 1294 1422 1076 1328 
Q 859 1234 688 1016 
L 478 1097 
L 744 3353 
L 2981 3353 
L 2981 2797 
L 997 2797 
L 834 1472 
Q 975 1572 1204 1670 
Q 1434 1769 1709 1769 
Q 1938 1769 2183 1698 
Q 2428 1628 2634 1466 
z
" transform="scale(0.015625)"/>
       </defs>
       <use xlink:href="#Georgia-35"/>
      </g>
     </g>
    </g>
    <g id="xtick_7">
     <g id="line2d_13">
      <path d="M 628.443466 538.974576 
L 628.443466 11.655929 
" clip-path="url(#pe1bd960d3b)" style="fill: none; stroke: #b0b0b0; stroke-width: 0.8; stroke-linecap: square"/>
     </g>
     <g id="line2d_14">
      <g>
       <use xlink:href="#m3cf9737778" x="628.443466" y="538.974576" style="stroke: #000000; stroke-width: 0.8"/>
      </g>
     </g>
     <g id="text_7">
      <!-- 6 -->
      <g transform="translate(623.915966 558.069576) scale(0.16 -0.16)">
       <defs>
        <path id="Georgia-36" d="M 3359 1441 
Q 3359 1116 3242 831 
Q 3125 547 2928 347 
Q 2700 119 2423 9 
Q 2147 -100 1847 -100 
Q 1500 -100 1219 28 
Q 938 156 741 391 
Q 541 628 431 972 
Q 322 1316 322 1744 
Q 322 2859 986 3625 
Q 1650 4391 2766 4544 
L 2822 4263 
L 2541 4213 
Q 1863 3994 1492 3531 
Q 1122 3069 1013 2409 
Q 1281 2644 1543 2741 
Q 1806 2838 2097 2838 
Q 2619 2838 2989 2438 
Q 3359 2038 3359 1441 
z
M 2681 1356 
Q 2681 1863 2448 2169 
Q 2216 2475 1825 2475 
Q 1591 2475 1389 2387 
Q 1188 2300 1000 2094 
Q 997 2056 990 1920 
Q 984 1784 984 1706 
Q 984 975 1223 561 
Q 1463 147 1853 147 
Q 2225 147 2453 470 
Q 2681 794 2681 1356 
z
" transform="scale(0.015625)"/>
       </defs>
       <use xlink:href="#Georgia-36"/>
      </g>
     </g>
    </g>
   </g>
   <g id="matplotlib.axis_2">
    <g id="ytick_1">
     <g id="line2d_15">
      <path d="M 33.4275 486.313743 
L 684.734342 486.313743 
" clip-path="url(#pe1bd960d3b)" style="fill: none; stroke: #b0b0b0; stroke-width: 0.8; stroke-linecap: square"/>
     </g>
     <g id="line2d_16">
      <defs>
       <path id="m9beca93831" d="M 0 0 
L -3.5 0 
" style="stroke: #000000; stroke-width: 0.8"/>
      </defs>
      <g>
       <use xlink:href="#m9beca93831" x="33.4275" y="486.313743" style="stroke: #000000; stroke-width: 0.8"/>
      </g>
     </g>
     <g id="text_8">
      <!-- −3 -->
      <g transform="translate(7.31 492.361243) scale(0.16 -0.16)">
       <defs>
        <path id="Georgia-2212" d="M 3650 1553 
L 466 1553 
L 466 1944 
L 3650 1944 
L 3650 1553 
z
" transform="scale(0.015625)"/>
       </defs>
       <use xlink:href="#Georgia-2212"/>
       <use xlink:href="#Georgia-33" x="64.306641"/>
      </g>
     </g>
    </g>
    <g id="ytick_2">
     <g id="line2d_17">
      <path d="M 33.4275 415.946536 
L 684.734342 415.946536 
" clip-path="url(#pe1bd960d3b)" style="fill: none; stroke: #b0b0b0; stroke-width: 0.8; stroke-linecap: square"/>
     </g>
     <g id="line2d_18">
      <g>
       <use xlink:href="#m9beca93831" x="33.4275" y="415.946536" style="stroke: #000000; stroke-width: 0.8"/>
      </g>
     </g>
     <g id="text_9">
      <!-- −2 -->
      <g transform="translate(7.2 421.994036) scale(0.16 -0.16)">
       <use xlink:href="#Georgia-2212"/>
       <use xlink:href="#Georgia-32" x="64.306641"/>
      </g>
     </g>
    </g>
    <g id="ytick_3">
     <g id="line2d_19">
      <path d="M 33.4275 345.579329 
L 684.734342 345.579329 
" clip-path="url(#pe1bd960d3b)" style="fill: none; stroke: #b0b0b0; stroke-width: 0.8; stroke-linecap: square"/>
     </g>
     <g id="line2d_20">
      <g>
       <use xlink:href="#m9beca93831" x="33.4275" y="345.579329" style="stroke: #000000; stroke-width: 0.8"/>
      </g>
     </g>
     <g id="text_10">
      <!-- −1 -->
      <g transform="translate(9.2625 351.626829) scale(0.16 -0.16)">
       <use xlink:href="#Georgia-2212"/>
       <use xlink:href="#Georgia-31" x="64.306641"/>
      </g>
     </g>
    </g>
    <g id="ytick_4">
     <g id="line2d_21">
      <path d="M 33.4275 275.212122 
L 684.734342 275.212122 
" clip-path="url(#pe1bd960d3b)" style="fill: none; stroke: #b0b0b0; stroke-width: 0.8; stroke-linecap: square"/>
     </g>
     <g id="line2d_22">
      <g>
       <use xlink:href="#m9beca93831" x="33.4275" y="275.212122" style="stroke: #000000; stroke-width: 0.8"/>
      </g>
     </g>
     <g id="text_11">
      <!-- 0 -->
      <g transform="translate(16.6075 281.259622) scale(0.16 -0.16)">
       <use xlink:href="#Georgia-30"/>
      </g>
     </g>
    </g>
    <g id="ytick_5">
     <g id="line2d_23">
      <path d="M 33.4275 204.844915 
L 684.734342 204.844915 
" clip-path="url(#pe1bd960d3b)" style="fill: none; stroke: #b0b0b0; stroke-width: 0.8; stroke-linecap: square"/>
     </g>
     <g id="line2d_24">
      <g>
       <use xlink:href="#m9beca93831" x="33.4275" y="204.844915" style="stroke: #000000; stroke-width: 0.8"/>
      </g>
     </g>
     <g id="text_12">
      <!-- 1 -->
      <g transform="translate(19.5525 210.892415) scale(0.16 -0.16)">
       <use xlink:href="#Georgia-31"/>
      </g>
     </g>
    </g>
    <g id="ytick_6">
     <g id="line2d_25">
      <path d="M 33.4275 134.477708 
L 684.734342 134.477708 
" clip-path="url(#pe1bd960d3b)" style="fill: none; stroke: #b0b0b0; stroke-width: 0.8; stroke-linecap: square"/>
     </g>
     <g id="line2d_26">
      <g>
       <use xlink:href="#m9beca93831" x="33.4275" y="134.477708" style="stroke: #000000; stroke-width: 0.8"/>
      </g>
     </g>
     <g id="text_13">
      <!-- 2 -->
      <g transform="translate(17.49 140.525208) scale(0.16 -0.16)">
       <use xlink:href="#Georgia-32"/>
      </g>
     </g>
    </g>
    <g id="ytick_7">
     <g id="line2d_27">
      <path d="M 33.4275 64.110501 
L 684.734342 64.110501 
" clip-path="url(#pe1bd960d3b)" style="fill: none; stroke: #b0b0b0; stroke-width: 0.8; stroke-linecap: square"/>
     </g>
     <g id="line2d_28">
      <g>
       <use xlink:href="#m9beca93831" x="33.4275" y="64.110501" style="stroke: #000000; stroke-width: 0.8"/>
      </g>
     </g>
     <g id="text_14">
      <!-- 3 -->
      <g transform="translate(17.6 70.158001) scale(0.16 -0.16)">
       <use xlink:href="#Georgia-33"/>
      </g>
     </g>
    </g>
   </g>
   <g id="line2d_29">
    <path d="M 63.032356 275.212122 
L 358.784576 54.368307 
L 359.377266 496.055937 
L 655.129486 275.212122 
L 655.129486 275.212122 
" clip-path="url(#pe1bd960d3b)" style="fill: none; stroke: #000000; stroke-linecap: square"/>
   </g>
   <g id="line2d_30">
    <path d="M 63.032356 275.212448 
L 96.815676 250.004487 
L 122.301338 230.665676 
L 141.860102 215.910724 
L 153.121209 207.688962 
L 163.196936 200.612923 
L 173.272663 193.817012 
L 200.536395 175.659017 
L 206.463293 171.301428 
L 211.797501 167.083341 
L 216.53902 163.03923 
L 221.280538 158.672142 
L 225.429367 154.558817 
L 229.578196 150.157269 
L 233.727024 145.462974 
L 238.468543 139.749927 
L 243.210062 133.698638 
L 249.13696 125.753878 
L 267.510344 100.761126 
L 271.066483 96.417585 
L 274.622622 92.441447 
L 277.586071 89.479738 
L 279.95683 87.382849 
L 282.32759 85.561149 
L 284.698349 84.045128 
L 286.476418 83.12692 
L 288.254488 82.410242 
L 290.032557 81.90742 
L 291.810627 81.630466 
L 293.588696 81.591007 
L 295.366766 81.800214 
L 297.144835 82.268731 
L 298.922905 83.006603 
L 300.700974 84.023212 
L 302.479043 85.327205 
L 304.257113 86.926434 
L 306.035182 88.827892 
L 307.813252 91.037657 
L 309.591321 93.560838 
L 311.369391 96.401521 
L 313.74015 100.688057 
L 316.110909 105.548378 
L 318.481669 110.982936 
L 320.852428 116.988436 
L 323.223187 123.557754 
L 326.186636 132.545158 
L 329.150085 142.366104 
L 332.113534 152.98129 
L 335.076984 164.34234 
L 338.633122 178.879242 
L 342.781951 196.939255 
L 347.52347 218.774974 
L 352.857678 244.44928 
L 373.009132 342.679707 
L 377.157961 361.335569 
L 381.306789 378.913322 
L 384.862928 392.973013 
L 387.826377 403.89747 
L 390.789827 414.046047 
L 393.753276 423.37567 
L 396.716725 431.852514 
L 399.087484 438.003274 
L 401.458243 443.584323 
L 403.829003 448.591372 
L 406.199762 453.023907 
L 408.570521 456.885087 
L 410.348591 459.409919 
L 412.12666 461.621139 
L 413.904729 463.523845 
L 415.682799 465.124109 
L 417.460868 466.42892 
L 419.238938 467.446127 
L 421.017007 468.184376 
L 422.795077 468.65305 
L 424.573146 468.862198 
L 426.351216 468.822466 
L 428.129285 468.545034 
L 429.907355 468.041535 
L 431.685424 467.323992 
L 433.463494 466.404741 
L 435.834253 464.887075 
L 438.205012 463.063467 
L 440.575771 460.964443 
L 443.53922 457.999803 
L 446.50267 454.711332 
L 450.058808 450.418394 
L 454.207637 445.051319 
L 460.134535 436.977199 
L 473.173711 419.058395 
L 478.50792 412.142584 
L 483.249438 406.339613 
L 487.990957 400.903553 
L 492.139786 396.460746 
L 496.288614 392.308073 
L 501.030133 387.899881 
L 505.771651 383.820004 
L 510.51317 380.025615 
L 515.847378 376.037286 
L 522.366966 371.463213 
L 531.257314 365.541489 
L 552.594147 351.4403 
L 562.077184 344.851216 
L 572.152911 337.578751 
L 584.599397 328.300961 
L 611.863129 307.585513 
L 634.978032 290.198528 
L 655.129486 275.212448 
L 655.129486 275.212448 
" clip-path="url(#pe1bd960d3b)" style="fill: none; stroke: #a80000; stroke-width: 3; stroke-linecap: square"/>
   </g>
   <g id="line2d_31">
    <path d="M 63.032356 275.212122 
L 296.552145 100.725379 
L 304.849803 94.208531 
L 307.813252 92.216754 
L 310.184011 90.888049 
L 312.55477 89.804835 
L 319.074358 87.085485 
L 320.259738 86.329037 
L 321.445118 85.376935 
L 322.630497 84.178683 
L 323.815877 82.686884 
L 325.001257 80.860872 
L 326.186636 78.670664 
L 327.372016 76.101072 
L 329.150085 71.549418 
L 330.928155 66.268748 
L 336.855053 47.689735 
L 338.040433 45.01418 
L 338.633122 43.977806 
L 339.225812 43.182223 
L 339.818502 42.657791 
L 340.411192 42.434928 
L 341.003882 42.543835 
L 341.596572 43.01421 
L 342.189261 43.874953 
L 342.781951 45.153867 
L 343.374641 46.877356 
L 343.967331 49.070131 
L 345.15271 54.952169 
L 346.33809 62.952945 
L 347.52347 73.18092 
L 348.708849 85.692999 
L 349.894229 100.489127 
L 351.079609 117.50887 
L 352.857678 146.924242 
L 354.635748 180.391088 
L 357.006507 229.667629 
L 363.526095 369.933493 
L 365.304164 403.442802 
L 367.082234 432.9058 
L 368.860303 457.653574 
L 370.045683 471.339303 
L 371.231062 482.729222 
L 372.416442 491.851177 
L 373.601822 498.787864 
L 374.787201 503.67059 
L 375.379891 505.394165 
L 375.972581 506.671547 
L 376.565271 507.529205 
L 377.157961 507.995027 
L 377.75065 508.098018 
L 378.34334 507.867997 
L 378.93603 507.335306 
L 379.52872 506.530513 
L 380.7141 504.226378 
L 381.899479 501.194465 
L 383.677549 495.771813 
L 388.419067 480.5041 
L 390.197137 475.681819 
L 391.975206 471.685817 
L 393.160586 469.50036 
L 394.345965 467.681994 
L 395.531345 466.199988 
L 396.716725 465.012871 
L 397.902104 464.072446 
L 399.680174 463.012225 
L 402.050933 461.992344 
L 406.792452 460.132446 
L 409.163211 458.926575 
L 411.53397 457.465914 
L 414.497419 455.343107 
L 419.238938 451.592647 
L 426.351216 445.997012 
L 435.241563 439.384816 
L 454.207637 425.243038 
L 655.129486 275.212122 
L 655.129486 275.212122 
" clip-path="url(#pe1bd960d3b)" style="fill: none; stroke: #1f77b4; stroke-width: 3; stroke-linecap: square"/>
   </g>
   <g id="line2d_32">
    <path d="M 63.032356 275.212122 
L 327.964706 77.247968 
L 331.520845 74.285445 
L 332.706224 73.485706 
L 333.891604 72.894595 
L 335.076984 72.551141 
L 336.262363 72.431951 
L 338.633122 72.29291 
L 339.225812 72.085429 
L 339.818502 71.719291 
L 340.411192 71.144172 
L 341.003882 70.310506 
L 341.596572 69.172752 
L 342.189261 67.693097 
L 342.781951 65.845427 
L 343.967331 61.024431 
L 345.15271 54.884986 
L 347.52347 41.476172 
L 348.11616 38.779034 
L 348.708849 36.750577 
L 349.301539 35.624958 
L 349.894229 35.643373 
L 350.486919 37.04573 
L 351.079609 40.061581 
L 351.672298 44.900669 
L 352.264988 51.743523 
L 352.857678 60.73252 
L 353.450368 71.963873 
L 354.635748 101.269388 
L 355.821127 139.298504 
L 357.006507 184.72688 
L 359.377266 288.36462 
L 361.155336 365.484734 
L 362.340715 411.026298 
L 363.526095 449.183442 
L 364.711474 478.603775 
L 365.304164 489.879873 
L 365.896854 498.902145 
L 366.489544 505.765444 
L 367.082234 510.611592 
L 367.674924 513.621373 
L 368.267613 515.005547 
L 368.860303 514.995336 
L 369.452993 513.832848 
L 370.045683 511.761836 
L 371.231062 505.827504 
L 374.194512 489.269707 
L 375.379891 484.441428 
L 375.972581 482.60157 
L 376.565271 481.135888 
L 377.157961 480.016816 
L 377.75065 479.204945 
L 378.34334 478.653118 
L 378.93603 478.310232 
L 380.12141 478.046756 
L 383.084859 477.925904 
L 384.270239 477.574025 
L 385.455618 476.967228 
L 387.233688 475.685558 
L 394.938655 469.441652 
L 407.977831 459.76347 
L 655.129486 275.212122 
L 655.129486 275.212122 
" clip-path="url(#pe1bd960d3b)" style="fill: none; stroke: #ff7f0e; stroke-width: 3; stroke-linecap: square"/>
   </g>
   <g id="patch_3">
    <path d="M 33.4275 538.974576 
L 33.4275 11.655929 
" style="fill: none; stroke: #000000; stroke-width: 1.5; stroke-linejoin: miter; stroke-linecap: square"/>
   </g>
   <g id="patch_4">
    <path d="M 684.734342 538.974576 
L 684.734342 11.655929 
" style="fill: none; stroke: #000000; stroke-width: 1.5; stroke-linejoin: miter; stroke-linecap: square"/>
   </g>
   <g id="patch_5">
    <path d="M 33.4275 538.974576 
L 684.734342 538.974576 
" style="fill: none; stroke: #000000; stroke-width: 1.5; stroke-linejoin: miter; stroke-linecap: square"/>
   </g>
   <g id="patch_6">
    <path d="M 33.4275 11.655929 
L 684.734342 11.655929 
" style="fill: none; stroke: #000000; stroke-width: 1.5; stroke-linejoin: miter; stroke-linecap: square"/>
   </g>
   <g id="legend_1">
    <g id="patch_7">
     <path d="M 547.156217 78.568429 
L 677.734342 78.568429 
Q 679.734342 78.568429 679.734342 76.568429 
L 679.734342 18.655929 
Q 679.734342 16.655929 677.734342 16.655929 
L 547.156217 16.655929 
Q 545.156217 16.655929 545.156217 18.655929 
L 545.156217 76.568429 
Q 545.156217 78.568429 547.156217 78.568429 
z
" style="fill: #ffffff; opacity: 0.8; stroke: #cccccc; stroke-linejoin: miter"/>
    </g>
    <g id="line2d_33">
     <path d="M 549.156217 24.715304 
L 559.156217 24.715304 
L 569.156217 24.715304 
" style="fill: none; stroke: #000000; stroke-linecap: square"/>
    </g>
    <g id="text_15">
     <!-- Init -->
     <g transform="translate(577.156217 28.215304) scale(0.1 -0.1)">
      <defs>
       <path id="Georgia-49" d="M 2244 0 
L 247 0 
L 247 222 
Q 331 228 490 240 
Q 650 253 716 278 
Q 819 319 866 389 
Q 913 459 913 584 
L 913 3797 
Q 913 3906 878 3979 
Q 844 4053 716 4103 
Q 622 4141 480 4173 
Q 338 4206 247 4213 
L 247 4434 
L 2244 4434 
L 2244 4213 
Q 2147 4209 2012 4189 
Q 1878 4169 1778 4138 
Q 1659 4100 1618 4015 
Q 1578 3931 1578 3828 
L 1578 619 
Q 1578 516 1623 436 
Q 1669 356 1778 309 
Q 1844 284 1992 254 
Q 2141 225 2244 222 
L 2244 0 
z
" transform="scale(0.015625)"/>
       <path id="Georgia-6e" d="M 3628 0 
L 2119 0 
L 2119 206 
Q 2191 213 2277 219 
Q 2363 225 2419 244 
Q 2506 272 2548 342 
Q 2591 413 2591 525 
L 2591 2109 
Q 2591 2438 2436 2616 
Q 2281 2794 2059 2794 
Q 1894 2794 1756 2742 
Q 1619 2691 1513 2616 
Q 1409 2544 1348 2461 
Q 1288 2378 1259 2328 
L 1259 556 
Q 1259 450 1303 381 
Q 1347 313 1434 275 
Q 1500 244 1576 228 
Q 1653 213 1734 206 
L 1734 0 
L 225 0 
L 225 206 
Q 297 213 373 219 
Q 450 225 506 244 
Q 594 272 636 342 
Q 678 413 678 525 
L 678 2428 
Q 678 2534 633 2623 
Q 588 2713 506 2769 
Q 447 2806 365 2823 
Q 284 2841 191 2847 
L 191 3050 
L 1216 3119 
L 1259 3075 
L 1259 2641 
L 1275 2641 
Q 1350 2716 1462 2820 
Q 1575 2925 1675 2991 
Q 1791 3066 1950 3116 
Q 2109 3166 2309 3166 
Q 2753 3166 2967 2889 
Q 3181 2613 3181 2153 
L 3181 550 
Q 3181 441 3218 373 
Q 3256 306 3347 269 
Q 3422 238 3476 225 
Q 3531 213 3628 206 
L 3628 0 
z
" transform="scale(0.015625)"/>
       <path id="Georgia-69" d="M 1722 0 
L 231 0 
L 231 206 
Q 303 213 379 219 
Q 456 225 513 244 
Q 600 272 642 342 
Q 684 413 684 525 
L 684 2428 
Q 684 2528 639 2611 
Q 594 2694 513 2750 
Q 453 2788 340 2814 
Q 228 2841 134 2847 
L 134 3050 
L 1222 3119 
L 1266 3075 
L 1266 563 
Q 1266 453 1308 381 
Q 1350 309 1441 275 
Q 1509 247 1575 230 
Q 1641 213 1722 206 
L 1722 0 
z
M 1328 4334 
Q 1328 4156 1211 4023 
Q 1094 3891 922 3891 
Q 763 3891 645 4017 
Q 528 4144 528 4306 
Q 528 4478 645 4606 
Q 763 4734 922 4734 
Q 1100 4734 1214 4614 
Q 1328 4494 1328 4334 
z
" transform="scale(0.015625)"/>
       <path id="Georgia-74" d="M 2128 134 
Q 1925 50 1744 -8 
Q 1563 -66 1300 -66 
Q 913 -66 755 129 
Q 597 325 597 681 
L 597 2769 
L 41 2769 
L 41 3069 
L 609 3069 
L 609 4028 
L 1178 4028 
L 1178 3069 
L 2063 3069 
L 2063 2769 
L 1184 2769 
L 1184 1047 
Q 1184 853 1198 723 
Q 1213 594 1266 497 
Q 1316 406 1416 359 
Q 1516 313 1684 313 
Q 1763 313 1914 327 
Q 2066 341 2128 363 
L 2128 134 
z
" transform="scale(0.015625)"/>
      </defs>
      <use xlink:href="#Georgia-49"/>
      <use xlink:href="#Georgia-6e" x="38.964844"/>
      <use xlink:href="#Georgia-69" x="98.046875"/>
      <use xlink:href="#Georgia-74" x="127.34375"/>
     </g>
    </g>
    <g id="line2d_34">
     <path d="M 549.156217 39.443429 
L 559.156217 39.443429 
L 569.156217 39.443429 
" style="fill: none; stroke: #a80000; stroke-width: 3; stroke-linecap: square"/>
    </g>
    <g id="text_16">
     <!-- 16, t=1.0,exponential -->
     <g transform="translate(577.156217 42.943429) scale(0.1 -0.1)">
      <defs>
       <path id="Georgia-2c" d="M 1341 109 
Q 1341 -116 1239 -316 
Q 1138 -516 1006 -659 
Q 872 -809 722 -925 
Q 572 -1041 447 -1106 
L 303 -897 
Q 453 -803 572 -709 
Q 691 -616 766 -522 
Q 859 -413 925 -284 
Q 991 -156 1009 6 
L 850 6 
Q 641 6 523 115 
Q 406 225 406 409 
Q 406 541 512 664 
Q 619 788 803 788 
Q 1072 788 1206 608 
Q 1341 428 1341 109 
z
" transform="scale(0.015625)"/>
       <path id="Georgia-20" transform="scale(0.015625)"/>
       <path id="Georgia-3d" d="M 3634 2134 
L 481 2134 
L 481 2525 
L 3634 2525 
L 3634 2134 
z
M 3634 972 
L 481 972 
L 481 1363 
L 3634 1363 
L 3634 972 
z
" transform="scale(0.015625)"/>
       <path id="Georgia-2e" d="M 1297 359 
Q 1297 184 1170 60 
Q 1044 -63 869 -63 
Q 694 -63 567 60 
Q 441 184 441 359 
Q 441 534 567 661 
Q 694 788 869 788 
Q 1044 788 1170 661 
Q 1297 534 1297 359 
z
" transform="scale(0.015625)"/>
       <path id="Georgia-65" d="M 2963 725 
Q 2769 356 2444 137 
Q 2119 -81 1697 -81 
Q 1325 -81 1045 50 
Q 766 181 584 406 
Q 403 631 314 931 
Q 225 1231 225 1566 
Q 225 1866 320 2155 
Q 416 2444 600 2675 
Q 778 2897 1042 3033 
Q 1306 3169 1634 3169 
Q 1972 3169 2212 3062 
Q 2453 2956 2603 2772 
Q 2747 2597 2817 2359 
Q 2888 2122 2888 1844 
L 2888 1638 
L 847 1638 
Q 847 1334 905 1087 
Q 963 841 1088 653 
Q 1209 472 1406 367 
Q 1603 263 1875 263 
Q 2153 263 2354 392 
Q 2556 522 2744 859 
L 2963 725 
z
M 2272 1900 
Q 2272 2075 2242 2275 
Q 2213 2475 2147 2609 
Q 2075 2753 1950 2843 
Q 1825 2934 1628 2934 
Q 1300 2934 1083 2661 
Q 866 2388 847 1900 
L 2272 1900 
z
" transform="scale(0.015625)"/>
       <path id="Georgia-78" d="M 3194 0 
L 1781 0 
L 1781 206 
Q 1922 222 2020 237 
Q 2119 253 2119 319 
Q 2119 347 2087 406 
Q 2056 466 2025 516 
Q 1947 638 1811 842 
Q 1675 1047 1478 1331 
Q 1316 1128 1178 936 
Q 1041 744 891 528 
Q 869 497 845 450 
Q 822 403 822 375 
Q 822 306 911 261 
Q 1000 216 1178 200 
L 1178 0 
L 38 0 
L 38 194 
Q 250 256 379 345 
Q 509 434 619 566 
Q 716 691 889 909 
Q 1063 1128 1338 1503 
Q 1178 1731 948 2061 
Q 719 2391 569 2609 
Q 488 2728 383 2801 
Q 278 2875 88 2875 
L 88 3081 
L 1428 3081 
L 1428 2875 
Q 1328 2875 1231 2862 
Q 1134 2850 1134 2806 
Q 1134 2778 1153 2743 
Q 1172 2709 1200 2669 
Q 1269 2563 1414 2341 
Q 1559 2119 1728 1872 
Q 1838 2022 1983 2222 
Q 2128 2422 2250 2603 
Q 2263 2625 2275 2658 
Q 2288 2691 2288 2722 
Q 2288 2788 2180 2827 
Q 2072 2866 1975 2881 
L 1975 3081 
L 3113 3081 
L 3113 2888 
Q 2872 2825 2737 2739 
Q 2603 2653 2509 2541 
Q 2406 2413 2264 2225 
Q 2122 2038 1866 1700 
Q 2150 1300 2328 1044 
Q 2506 788 2688 516 
Q 2778 378 2889 298 
Q 3000 219 3194 206 
L 3194 0 
z
" transform="scale(0.015625)"/>
       <path id="Georgia-70" d="M 3041 2716 
Q 3225 2497 3326 2208 
Q 3428 1919 3428 1547 
Q 3428 1181 3306 879 
Q 3184 578 2984 366 
Q 2775 150 2519 34 
Q 2263 -81 1975 -81 
Q 1697 -81 1519 -18 
Q 1341 44 1228 128 
L 1203 128 
L 1203 -797 
Q 1203 -909 1247 -984 
Q 1291 -1059 1381 -1094 
Q 1456 -1122 1595 -1148 
Q 1734 -1175 1825 -1178 
L 1825 -1388 
L 103 -1388 
L 103 -1178 
Q 200 -1172 290 -1162 
Q 381 -1153 453 -1131 
Q 547 -1100 584 -1022 
Q 622 -944 622 -838 
L 622 2441 
Q 622 2534 575 2621 
Q 528 2709 453 2763 
Q 397 2800 297 2820 
Q 197 2841 103 2847 
L 103 3050 
L 1153 3119 
L 1197 3081 
L 1197 2734 
L 1222 2728 
Q 1384 2916 1625 3041 
Q 1866 3166 2103 3166 
Q 2391 3166 2630 3044 
Q 2869 2922 3041 2716 
z
M 2531 500 
Q 2656 694 2715 950 
Q 2775 1206 2775 1522 
Q 2775 1753 2725 1993 
Q 2675 2234 2569 2413 
Q 2463 2594 2291 2706 
Q 2119 2819 1878 2819 
Q 1647 2819 1484 2717 
Q 1322 2616 1203 2475 
L 1203 653 
Q 1231 569 1295 478 
Q 1359 388 1438 322 
Q 1534 244 1646 195 
Q 1759 147 1922 147 
Q 2097 147 2259 239 
Q 2422 331 2531 500 
z
" transform="scale(0.015625)"/>
       <path id="Georgia-6f" d="M 3228 1572 
Q 3228 1247 3125 933 
Q 3022 619 2831 400 
Q 2616 150 2331 28 
Q 2047 -94 1694 -94 
Q 1400 -94 1134 17 
Q 869 128 663 341 
Q 459 550 339 851 
Q 219 1153 219 1528 
Q 219 2250 639 2709 
Q 1059 3169 1741 3169 
Q 2388 3169 2808 2733 
Q 3228 2297 3228 1572 
z
M 2581 1566 
Q 2581 1800 2534 2061 
Q 2488 2322 2394 2503 
Q 2294 2697 2131 2814 
Q 1969 2931 1734 2931 
Q 1494 2931 1323 2812 
Q 1153 2694 1047 2488 
Q 947 2297 906 2053 
Q 866 1809 866 1581 
Q 866 1281 914 1026 
Q 963 772 1069 572 
Q 1175 372 1336 258 
Q 1497 144 1734 144 
Q 2125 144 2353 522 
Q 2581 900 2581 1566 
z
" transform="scale(0.015625)"/>
       <path id="Georgia-61" d="M 3144 56 
Q 2997 3 2886 -30 
Q 2775 -63 2634 -63 
Q 2391 -63 2245 51 
Q 2100 166 2059 384 
L 2041 384 
Q 1838 159 1605 40 
Q 1372 -78 1044 -78 
Q 697 -78 473 134 
Q 250 347 250 691 
Q 250 869 300 1009 
Q 350 1150 450 1263 
Q 528 1356 656 1429 
Q 784 1503 897 1547 
Q 1038 1600 1467 1744 
Q 1897 1888 2047 1969 
L 2047 2278 
Q 2047 2319 2030 2434 
Q 2013 2550 1956 2653 
Q 1894 2769 1780 2855 
Q 1666 2941 1456 2941 
Q 1313 2941 1189 2892 
Q 1066 2844 1016 2791 
Q 1016 2728 1045 2606 
Q 1075 2484 1075 2381 
Q 1075 2272 976 2181 
Q 878 2091 703 2091 
Q 547 2091 473 2202 
Q 400 2313 400 2450 
Q 400 2594 501 2725 
Q 603 2856 766 2959 
Q 906 3047 1106 3108 
Q 1306 3169 1497 3169 
Q 1759 3169 1954 3133 
Q 2150 3097 2309 2978 
Q 2469 2863 2551 2664 
Q 2634 2466 2634 2153 
Q 2634 1706 2625 1361 
Q 2616 1016 2616 606 
Q 2616 484 2658 412 
Q 2700 341 2788 291 
Q 2834 263 2936 259 
Q 3038 256 3144 256 
L 3144 56 
z
M 2053 1706 
Q 1788 1628 1588 1553 
Q 1388 1478 1216 1366 
Q 1059 1259 968 1114 
Q 878 969 878 769 
Q 878 509 1014 387 
Q 1150 266 1359 266 
Q 1581 266 1750 373 
Q 1919 481 2034 628 
L 2053 1706 
z
" transform="scale(0.015625)"/>
       <path id="Georgia-6c" d="M 1669 0 
L 166 0 
L 166 206 
Q 238 213 319 220 
Q 400 228 453 244 
Q 541 272 584 342 
Q 628 413 628 525 
L 628 4094 
Q 628 4206 579 4304 
Q 531 4403 453 4459 
Q 397 4497 247 4528 
Q 97 4559 6 4566 
L 6 4766 
L 1166 4838 
L 1209 4791 
L 1209 563 
Q 1209 453 1250 383 
Q 1291 313 1381 275 
Q 1450 244 1517 228 
Q 1584 213 1669 206 
L 1669 0 
z
" transform="scale(0.015625)"/>
      </defs>
      <use xlink:href="#Georgia-31"/>
      <use xlink:href="#Georgia-36" x="42.96875"/>
      <use xlink:href="#Georgia-2c" x="99.560547"/>
      <use xlink:href="#Georgia-20" x="126.513672"/>
      <use xlink:href="#Georgia-74" x="150.634766"/>
      <use xlink:href="#Georgia-3d" x="185.15625"/>
      <use xlink:href="#Georgia-31" x="249.462891"/>
      <use xlink:href="#Georgia-2e" x="292.431641"/>
      <use xlink:href="#Georgia-30" x="319.384766"/>
      <use xlink:href="#Georgia-2c" x="380.761719"/>
      <use xlink:href="#Georgia-65" x="407.714844"/>
      <use xlink:href="#Georgia-78" x="456.054688"/>
      <use xlink:href="#Georgia-70" x="506.542969"/>
      <use xlink:href="#Georgia-6f" x="563.671875"/>
      <use xlink:href="#Georgia-6e" x="617.578125"/>
      <use xlink:href="#Georgia-65" x="676.660156"/>
      <use xlink:href="#Georgia-6e" x="725"/>
      <use xlink:href="#Georgia-74" x="784.082031"/>
      <use xlink:href="#Georgia-69" x="818.603516"/>
      <use xlink:href="#Georgia-61" x="847.900391"/>
      <use xlink:href="#Georgia-6c" x="898.291016"/>
     </g>
    </g>
    <g id="line2d_35">
     <path d="M 549.156217 54.171554 
L 559.156217 54.171554 
L 569.156217 54.171554 
" style="fill: none; stroke: #1f77b4; stroke-width: 3; stroke-linecap: square"/>
    </g>
    <g id="text_17">
     <!-- 64, t=1.0,exponential -->
     <g transform="translate(577.156217 57.671554) scale(0.1 -0.1)">
      <use xlink:href="#Georgia-36"/>
      <use xlink:href="#Georgia-34" x="56.591797"/>
      <use xlink:href="#Georgia-2c" x="113.085938"/>
      <use xlink:href="#Georgia-20" x="140.039062"/>
      <use xlink:href="#Georgia-74" x="164.160156"/>
      <use xlink:href="#Georgia-3d" x="198.681641"/>
      <use xlink:href="#Georgia-31" x="262.988281"/>
      <use xlink:href="#Georgia-2e" x="305.957031"/>
      <use xlink:href="#Georgia-30" x="332.910156"/>
      <use xlink:href="#Georgia-2c" x="394.287109"/>
      <use xlink:href="#Georgia-65" x="421.240234"/>
      <use xlink:href="#Georgia-78" x="469.580078"/>
      <use xlink:href="#Georgia-70" x="520.068359"/>
      <use xlink:href="#Georgia-6f" x="577.197266"/>
      <use xlink:href="#Georgia-6e" x="631.103516"/>
      <use xlink:href="#Georgia-65" x="690.185547"/>
      <use xlink:href="#Georgia-6e" x="738.525391"/>
      <use xlink:href="#Georgia-74" x="797.607422"/>
      <use xlink:href="#Georgia-69" x="832.128906"/>
      <use xlink:href="#Georgia-61" x="861.425781"/>
      <use xlink:href="#Georgia-6c" x="911.816406"/>
     </g>
    </g>
    <g id="line2d_36">
     <path d="M 549.156217 68.899679 
L 559.156217 68.899679 
L 569.156217 68.899679 
" style="fill: none; stroke: #ff7f0e; stroke-width: 3; stroke-linecap: square"/>
    </g>
    <g id="text_18">
     <!-- 128, t=1.0,exponential -->
     <g transform="translate(577.156217 72.399679) scale(0.1 -0.1)">
      <defs>
       <path id="Georgia-38" d="M 3491 1175 
Q 3491 650 3037 272 
Q 2584 -106 1847 -106 
Q 1156 -106 740 241 
Q 325 588 325 1134 
Q 325 1538 570 1808 
Q 816 2078 1297 2266 
Q 900 2488 703 2753 
Q 506 3019 506 3353 
Q 506 3863 939 4206 
Q 1372 4550 1975 4550 
Q 2578 4550 2951 4225 
Q 3325 3900 3325 3409 
Q 3325 3094 3119 2811 
Q 2913 2528 2513 2347 
Q 3031 2125 3261 1856 
Q 3491 1588 3491 1175 
z
M 2734 3444 
Q 2734 3825 2507 4064 
Q 2281 4303 1928 4303 
Q 1575 4303 1350 4073 
Q 1125 3844 1125 3503 
Q 1125 3175 1381 2947 
Q 1638 2719 2294 2459 
Q 2528 2609 2631 2856 
Q 2734 3103 2734 3444 
z
M 2866 1028 
Q 2866 1225 2781 1373 
Q 2697 1522 2538 1644 
Q 2384 1763 2111 1892 
Q 1838 2022 1519 2156 
Q 1219 1994 1078 1742 
Q 938 1491 938 1169 
Q 938 709 1208 426 
Q 1478 144 1928 144 
Q 2359 144 2612 394 
Q 2866 644 2866 1028 
z
" transform="scale(0.015625)"/>
      </defs>
      <use xlink:href="#Georgia-31"/>
      <use xlink:href="#Georgia-32" x="42.96875"/>
      <use xlink:href="#Georgia-38" x="98.828125"/>
      <use xlink:href="#Georgia-2c" x="158.447266"/>
      <use xlink:href="#Georgia-20" x="185.400391"/>
      <use xlink:href="#Georgia-74" x="209.521484"/>
      <use xlink:href="#Georgia-3d" x="244.042969"/>
      <use xlink:href="#Georgia-31" x="308.349609"/>
      <use xlink:href="#Georgia-2e" x="351.318359"/>
      <use xlink:href="#Georgia-30" x="378.271484"/>
      <use xlink:href="#Georgia-2c" x="439.648438"/>
      <use xlink:href="#Georgia-65" x="466.601562"/>
      <use xlink:href="#Georgia-78" x="514.941406"/>
      <use xlink:href="#Georgia-70" x="565.429688"/>
      <use xlink:href="#Georgia-6f" x="622.558594"/>
      <use xlink:href="#Georgia-6e" x="676.464844"/>
      <use xlink:href="#Georgia-65" x="735.546875"/>
      <use xlink:href="#Georgia-6e" x="783.886719"/>
      <use xlink:href="#Georgia-74" x="842.96875"/>
      <use xlink:href="#Georgia-69" x="877.490234"/>
      <use xlink:href="#Georgia-61" x="906.787109"/>
      <use xlink:href="#Georgia-6c" x="957.177734"/>
     </g>
    </g>
   </g>
  </g>
  <g id="axes_2">
   <g id="patch_8">
    <path d="M 733.044763 538.974576 
L 993.5675 538.974576 
L 993.5675 11.655929 
L 733.044763 11.655929 
L 733.044763 538.974576 
z
" style="fill: none"/>
   </g>
   <g id="matplotlib.axis_3">
    <g id="xtick_8">
     <g id="line2d_37">
      <g>
       <use xlink:href="#m3cf9737778" x="744.886706" y="538.974576" style="stroke: #000000; stroke-width: 0.8"/>
      </g>
     </g>
     <g id="text_19">
      <!-- 0 -->
      <g transform="translate(739.976706 558.069576) scale(0.16 -0.16)">
       <use xlink:href="#Georgia-30"/>
      </g>
     </g>
    </g>
    <g id="xtick_9">
     <g id="line2d_38">
      <g>
       <use xlink:href="#m3cf9737778" x="820.274854" y="538.974576" style="stroke: #000000; stroke-width: 0.8"/>
      </g>
     </g>
     <g id="text_20">
      <!-- 2 -->
      <g transform="translate(815.806104 558.069576) scale(0.16 -0.16)">
       <use xlink:href="#Georgia-32"/>
      </g>
     </g>
    </g>
    <g id="xtick_10">
     <g id="line2d_39">
      <g>
       <use xlink:href="#m3cf9737778" x="895.663002" y="538.974576" style="stroke: #000000; stroke-width: 0.8"/>
      </g>
     </g>
     <g id="text_21">
      <!-- 4 -->
      <g transform="translate(891.143002 558.069576) scale(0.16 -0.16)">
       <use xlink:href="#Georgia-34"/>
      </g>
     </g>
    </g>
    <g id="xtick_11">
     <g id="line2d_40">
      <g>
       <use xlink:href="#m3cf9737778" x="971.051149" y="538.974576" style="stroke: #000000; stroke-width: 0.8"/>
      </g>
     </g>
     <g id="text_22">
      <!-- 6 -->
      <g transform="translate(966.523649 558.069576) scale(0.16 -0.16)">
       <use xlink:href="#Georgia-36"/>
      </g>
     </g>
    </g>
   </g>
   <g id="matplotlib.axis_4">
    <g id="ytick_8">
     <g id="line2d_41">
      <g>
       <use xlink:href="#m9beca93831" x="733.044763" y="455.356021" style="stroke: #000000; stroke-width: 0.8"/>
      </g>
     </g>
     <g id="text_23">
      <!-- $\mathdefault{10^{-9}}$ -->
      <g transform="translate(695.164763 461.403521) scale(0.16 -0.16)">
       <defs>
        <path id="Georgia-39" d="M 3300 1613 
Q 3300 1069 3128 589 
Q 2956 109 2634 -253 
Q 2319 -609 1864 -845 
Q 1409 -1081 847 -1156 
L 791 -875 
L 1072 -825 
Q 1744 -613 2122 -172 
Q 2500 269 2609 947 
Q 2353 728 2098 626 
Q 1844 525 1525 525 
Q 1016 525 639 922 
Q 263 1319 263 1922 
Q 263 2569 698 3012 
Q 1134 3456 1775 3456 
Q 2472 3456 2886 2959 
Q 3300 2463 3300 1613 
z
M 2638 1650 
Q 2638 2381 2398 2795 
Q 2159 3209 1769 3209 
Q 1397 3209 1169 2889 
Q 941 2569 941 2006 
Q 941 1500 1173 1194 
Q 1406 888 1797 888 
Q 2041 888 2244 977 
Q 2447 1066 2622 1263 
Q 2622 1275 2626 1312 
Q 2631 1350 2631 1419 
Q 2631 1463 2634 1525 
Q 2638 1588 2638 1650 
z
" transform="scale(0.015625)"/>
       </defs>
       <use xlink:href="#Georgia-31" transform="translate(0 0.501563)"/>
       <use xlink:href="#Georgia-30" transform="translate(42.96875 0.501563)"/>
       <use xlink:href="#Georgia-2212" transform="translate(105.188164 34.2) scale(0.7)"/>
       <use xlink:href="#Georgia-39" transform="translate(150.202812 34.2) scale(0.7)"/>
      </g>
     </g>
    </g>
    <g id="ytick_9">
     <g id="line2d_42">
      <g>
       <use xlink:href="#m9beca93831" x="733.044763" y="366.934317" style="stroke: #000000; stroke-width: 0.8"/>
      </g>
     </g>
     <g id="text_24">
      <!-- $\mathdefault{10^{-7}}$ -->
      <g transform="translate(695.964763 372.981817) scale(0.16 -0.16)">
       <defs>
        <path id="Georgia-37" d="M 3216 3150 
L 988 -1141 
L 597 -1141 
L 2694 2828 
L 1466 2828 
Q 1194 2828 1041 2822 
Q 888 2816 759 2763 
Q 663 2722 586 2555 
Q 509 2388 469 2128 
L 278 2128 
L 278 3353 
L 3216 3353 
L 3216 3150 
z
" transform="scale(0.015625)"/>
       </defs>
       <use xlink:href="#Georgia-31" transform="translate(0 0.628125)"/>
       <use xlink:href="#Georgia-30" transform="translate(42.96875 0.628125)"/>
       <use xlink:href="#Georgia-2212" transform="translate(105.188164 34.326563) scale(0.7)"/>
       <use xlink:href="#Georgia-37" transform="translate(150.202812 34.326563) scale(0.7)"/>
      </g>
     </g>
    </g>
    <g id="ytick_10">
     <g id="line2d_43">
      <g>
       <use xlink:href="#m9beca93831" x="733.044763" y="278.512612" style="stroke: #000000; stroke-width: 0.8"/>
      </g>
     </g>
     <g id="text_25">
      <!-- $\mathdefault{10^{-5}}$ -->
      <g transform="translate(695.644763 284.560112) scale(0.16 -0.16)">
       <use xlink:href="#Georgia-31" transform="translate(0 0.628125)"/>
       <use xlink:href="#Georgia-30" transform="translate(42.96875 0.628125)"/>
       <use xlink:href="#Georgia-2212" transform="translate(105.188164 34.326563) scale(0.7)"/>
       <use xlink:href="#Georgia-35" transform="translate(150.202812 34.326563) scale(0.7)"/>
      </g>
     </g>
    </g>
    <g id="ytick_11">
     <g id="line2d_44">
      <g>
       <use xlink:href="#m9beca93831" x="733.044763" y="190.090908" style="stroke: #000000; stroke-width: 0.8"/>
      </g>
     </g>
     <g id="text_26">
      <!-- $\mathdefault{10^{-3}}$ -->
      <g transform="translate(695.324763 196.138408) scale(0.16 -0.16)">
       <use xlink:href="#Georgia-31" transform="translate(0 0.534375)"/>
       <use xlink:href="#Georgia-30" transform="translate(42.96875 0.534375)"/>
       <use xlink:href="#Georgia-2212" transform="translate(105.188164 34.232813) scale(0.7)"/>
       <use xlink:href="#Georgia-33" transform="translate(150.202812 34.232813) scale(0.7)"/>
      </g>
     </g>
    </g>
    <g id="ytick_12">
     <g id="line2d_45">
      <g>
       <use xlink:href="#m9beca93831" x="733.044763" y="101.669204" style="stroke: #000000; stroke-width: 0.8"/>
      </g>
     </g>
     <g id="text_27">
      <!-- $\mathdefault{10^{-1}}$ -->
      <g transform="translate(696.764763 107.716704) scale(0.16 -0.16)">
       <use xlink:href="#Georgia-31" transform="translate(0 0.534375)"/>
       <use xlink:href="#Georgia-30" transform="translate(42.96875 0.534375)"/>
       <use xlink:href="#Georgia-2212" transform="translate(105.188164 34.232813) scale(0.7)"/>
       <use xlink:href="#Georgia-31" transform="translate(150.202812 34.232813) scale(0.7)"/>
      </g>
     </g>
    </g>
    <g id="ytick_13">
     <g id="line2d_46">
      <g>
       <use xlink:href="#m9beca93831" x="733.044763" y="13.2475" style="stroke: #000000; stroke-width: 0.8"/>
      </g>
     </g>
     <g id="text_28">
      <!-- $\mathdefault{10^{1}}$ -->
      <g transform="translate(703.964763 19.295) scale(0.16 -0.16)">
       <use xlink:href="#Georgia-31" transform="translate(0 0.534375)"/>
       <use xlink:href="#Georgia-30" transform="translate(42.96875 0.534375)"/>
       <use xlink:href="#Georgia-31" transform="translate(105.188164 34.232813) scale(0.7)"/>
      </g>
     </g>
    </g>
   </g>
   <g id="line2d_47">
    <path d="M 744.886706 293.285648 
L 745.123782 250.790936 
L 745.597933 231.198372 
L 746.072085 221.78751 
L 746.783313 213.160615 
L 747.494541 207.454004 
L 748.205769 203.306823 
L 749.154072 199.284012 
L 750.102376 196.448524 
L 750.813604 194.920693 
L 751.524832 193.832701 
L 752.236059 193.152271 
L 752.710211 192.919817 
L 753.184363 192.866819 
L 753.658515 193.000433 
L 754.132667 193.332947 
L 754.606819 193.882981 
L 755.318046 195.177947 
L 756.029274 197.171965 
L 756.740502 200.126937 
L 757.45173 204.560473 
L 757.925882 208.881287 
L 758.400034 215.216529 
L 758.874185 226.040401 
L 759.111261 236.008006 
L 759.348337 259.777219 
L 759.585413 251.365749 
L 759.822489 232.221878 
L 760.296641 215.952715 
L 760.770793 206.78932 
L 761.482021 197.588493 
L 762.193248 190.948769 
L 763.141552 184.176228 
L 764.089856 178.831904 
L 765.275235 173.439128 
L 766.460615 169.049837 
L 767.645995 165.415658 
L 768.831374 162.395721 
L 770.016754 159.907775 
L 771.202134 157.906323 
L 772.387513 156.372615 
L 773.335817 155.484618 
L 774.284121 154.911638 
L 774.995348 154.703152 
L 775.706576 154.701657 
L 776.417804 154.929528 
L 777.129032 155.417869 
L 777.84026 156.21036 
L 778.551487 157.369786 
L 779.262715 158.989717 
L 779.973943 161.217081 
L 780.685171 164.300623 
L 781.396399 168.711582 
L 781.87055 172.865537 
L 782.344702 178.756991 
L 782.818854 188.260787 
L 783.05593 196.22892 
L 783.293006 210.893288 
L 783.530082 242.907251 
L 783.767158 204.160364 
L 784.24131 184.227034 
L 784.715461 174.171973 
L 785.426689 164.462378 
L 786.137917 157.594061 
L 787.086221 150.649987 
L 788.034524 145.182305 
L 789.219904 139.644544 
L 790.405284 135.093137 
L 791.827739 130.571658 
L 793.250195 126.84517 
L 794.67265 123.774096 
L 796.095106 121.280589 
L 797.280486 119.615437 
L 798.465865 118.318782 
L 799.414169 117.551854 
L 800.362473 117.036957 
L 801.310776 116.79275 
L 802.022004 116.803849 
L 802.733232 116.999626 
L 803.44446 117.402467 
L 804.155688 118.042625 
L 804.866915 118.961734 
L 805.578143 120.218648 
L 806.289371 121.899731 
L 807.000599 124.138361 
L 807.711826 127.155704 
L 808.423054 131.3586 
L 808.897206 135.213989 
L 809.371358 140.511748 
L 809.84551 148.571503 
L 810.082586 154.752559 
L 810.319662 164.342544 
L 810.556738 185.626736 
L 810.793814 183.847652 
L 811.030889 162.927868 
L 811.505041 146.203903 
L 811.979193 136.98708 
L 812.690421 127.820453 
L 813.401649 121.235239 
L 814.349952 114.516394 
L 815.535332 108.006735 
L 816.720712 102.781036 
L 818.143167 97.624836 
L 819.565623 93.337851 
L 820.988078 89.713253 
L 822.410534 86.628445 
L 823.83299 84.00756 
L 825.255445 81.803723 
L 826.677901 79.990139 
L 828.100356 78.555763 
L 829.285736 77.652005 
L 830.471116 77.023298 
L 831.419419 76.730259 
L 832.367723 76.638855 
L 833.316027 76.768961 
L 834.26433 77.148205 
L 835.212634 77.81525 
L 836.160938 78.825248 
L 837.109242 80.25941 
L 838.057545 82.24298 
L 838.768773 84.210416 
L 839.480001 86.741492 
L 840.191229 90.073285 
L 840.902456 94.648628 
L 841.376608 98.828937 
L 841.85076 104.602622 
L 842.324912 113.5766 
L 842.561988 120.744076 
L 842.799064 132.783017 
L 843.03614 176.432188 
L 843.273216 136.611985 
L 843.747367 113.433828 
L 844.221519 102.81991 
L 844.932747 92.889342 
L 845.643975 85.983972 
L 846.592279 79.058354 
L 847.540582 73.613172 
L 848.725962 68.066229 
L 850.148418 62.600197 
L 851.570873 58.010453 
L 853.230405 53.438402 
L 854.889936 49.495212 
L 856.786544 45.581359 
L 858.683151 42.172533 
L 860.579758 39.179031 
L 862.713442 36.229802 
L 863.187594 35.628046 
L 863.424669 35.624958 
L 865.558353 38.484271 
L 867.45496 41.38438 
L 869.351568 44.682181 
L 871.248175 48.459534 
L 872.907707 52.251873 
L 874.567238 56.626742 
L 875.989694 60.987139 
L 877.412149 66.126061 
L 878.597529 71.262201 
L 879.545833 76.202874 
L 880.494136 82.295872 
L 881.205364 88.091939 
L 881.916592 95.773769 
L 882.390744 102.87748 
L 882.864896 113.540312 
L 883.101971 122.026518 
L 883.339047 136.990399 
L 883.576123 173.59724 
L 883.813199 132.463824 
L 884.287351 113.453593 
L 884.761503 104.522595 
L 885.472731 96.535073 
L 886.183959 91.384593 
L 886.895186 87.710052 
L 887.606414 84.94964 
L 888.554718 82.214239 
L 889.503022 80.233516 
L 890.451325 78.801557 
L 891.399629 77.793378 
L 892.347933 77.127924 
L 893.296236 76.750141 
L 894.24454 76.621431 
L 895.192844 76.714216 
L 896.141148 77.008659 
L 897.326527 77.639207 
L 898.511907 78.544954 
L 899.697286 79.716223 
L 901.119742 81.469246 
L 902.542198 83.610205 
L 903.964653 86.163255 
L 905.387109 89.171752 
L 906.809564 92.706271 
L 908.23202 96.880546 
L 909.417399 100.981273 
L 910.602779 105.840773 
L 911.788159 111.787576 
L 912.736462 117.754292 
L 913.44769 123.374076 
L 914.158918 130.689858 
L 914.63307 137.266801 
L 915.107222 146.656275 
L 915.344298 153.560317 
L 915.581374 164.018787 
L 915.81845 187.273165 
L 916.055525 182.477572 
L 916.292601 163.252088 
L 916.766753 148.091786 
L 917.240905 140.201103 
L 917.952133 132.944621 
L 918.663361 128.242508 
L 919.374588 124.920355 
L 920.085816 122.474007 
L 920.797044 120.640572 
L 921.508272 119.265788 
L 922.2195 118.251665 
L 922.930727 117.532352 
L 923.641955 117.061738 
L 924.353183 116.806561 
L 925.064411 116.742326 
L 926.012714 116.922828 
L 926.961018 117.379808 
L 927.909322 118.092663 
L 929.094701 119.324828 
L 930.280081 120.926605 
L 931.465461 122.901234 
L 932.65084 125.266366 
L 934.073296 128.670539 
L 935.258676 132.05091 
L 936.444055 136.033228 
L 937.629435 140.788591 
L 938.814814 146.621391 
L 939.763118 152.454422 
L 940.474346 157.904794 
L 941.185574 164.899351 
L 941.659726 171.050233 
L 942.133877 179.512552 
L 942.608029 193.631583 
L 942.845105 207.606257 
L 943.082181 272.205065 
L 943.319257 206.979179 
L 943.793409 187.012564 
L 944.267561 178.01547 
L 944.741713 172.340084 
L 945.45294 166.685573 
L 946.164168 162.882697 
L 946.875396 160.179726 
L 947.586624 158.217075 
L 948.297852 156.795096 
L 949.009079 155.791877 
L 949.720307 155.127979 
L 950.431535 154.749241 
L 951.142763 154.617581 
L 951.853991 154.705737 
L 952.565218 154.994097 
L 953.513522 155.666571 
L 954.461826 156.649525 
L 955.410129 157.932833 
L 956.595509 159.959443 
L 957.780889 162.475241 
L 958.966268 165.527409 
L 960.151648 169.200796 
L 961.337028 173.640782 
L 962.522407 179.104685 
L 963.470711 184.533886 
L 964.419015 191.444186 
L 965.130242 198.266848 
L 965.84147 207.843617 
L 966.315622 217.613086 
L 966.552698 224.881325 
L 966.789774 236.147994 
L 967.02685 264.262498 
L 967.738078 223.856561 
L 968.21223 214.019185 
L 968.686381 208.071063 
L 969.397609 202.338544 
L 970.108837 198.635712 
L 970.820065 196.140246 
L 971.531293 194.472702 
L 972.24252 193.43104 
L 972.716672 193.025024 
L 973.190824 192.823583 
L 973.664976 192.812339 
L 974.139128 192.982393 
L 974.61328 193.329485 
L 975.324507 194.183212 
L 976.035735 195.454496 
L 976.746963 197.187059 
L 977.458191 199.459887 
L 978.169418 202.408436 
L 978.880646 206.271835 
L 979.591874 211.511659 
L 980.066026 216.238464 
L 980.540178 222.7076 
L 981.01433 232.75657 
L 981.251406 240.930283 
L 981.488481 255.522857 
L 981.725557 293.285648 
L 981.725557 293.285648 
" clip-path="url(#p3189316c14)" style="fill: none; stroke: #a80000; stroke-width: 3; stroke-linecap: square"/>
   </g>
   <g id="line2d_48">
    <path d="M 744.886706 442.86925 
L 745.123782 472.632078 
L 745.360857 436.19192 
L 745.835009 418.224872 
L 746.309161 411.079332 
L 746.546237 409.271641 
L 746.783313 408.330093 
L 747.020389 408.172117 
L 747.257465 408.784724 
L 747.494541 410.219902 
L 747.731617 412.613827 
L 747.968693 416.247236 
L 748.205769 421.718875 
L 748.442845 430.571968 
L 748.67992 449.432256 
L 748.916996 455.991959 
L 749.154072 432.674201 
L 749.628224 417.00312 
L 750.102376 410.523217 
L 750.339452 408.93229 
L 750.576528 408.180242 
L 750.813604 408.202943 
L 751.05068 409.002677 
L 751.287756 410.64895 
L 751.524832 413.304988 
L 751.761908 417.305025 
L 751.998983 423.383974 
L 752.236059 433.590373 
L 752.473135 459.58015 
L 753.184363 421.137011 
L 753.658515 412.283587 
L 754.132667 408.575998 
L 754.369743 408.011617 
L 754.606819 408.217079 
L 754.843895 409.210151 
L 755.080971 411.079553 
L 755.318046 414.020159 
L 755.555122 418.432565 
L 755.792198 425.233457 
L 756.029274 437.248218 
L 756.26635 483.532978 
L 756.503426 440.940926 
L 756.977578 419.467284 
L 757.45173 411.457881 
L 757.925882 408.203056 
L 758.162958 407.827032 
L 758.400034 408.219862 
L 758.637109 409.415462 
L 758.874185 411.524189 
L 759.111261 414.778865 
L 759.348337 419.664552 
L 759.585413 427.34975 
L 759.822489 441.953441 
L 760.059565 474.783264 
L 760.296641 436.100869 
L 760.770793 417.864094 
L 761.244945 410.627449 
L 761.482021 408.787041 
L 761.719097 407.81656 
L 761.956172 407.631969 
L 762.193248 408.219352 
L 762.430324 409.629956 
L 762.6674 411.999147 
L 762.904476 415.60637 
L 763.141552 421.047446 
L 763.378628 429.855652 
L 763.615704 448.579737 
L 763.85278 455.581685 
L 764.089856 432.057235 
L 764.564008 416.310632 
L 765.038159 409.792535 
L 765.275235 408.186827 
L 765.512311 407.422135 
L 765.749387 407.434365 
L 765.986463 408.226192 
L 766.223539 409.86799 
L 766.460615 412.524778 
L 766.697691 416.534829 
L 766.934767 422.644045 
L 767.171843 432.944875 
L 767.408919 459.66251 
L 768.120147 420.084954 
L 768.594298 411.273449 
L 769.06845 407.583437 
L 769.305526 407.027808 
L 769.542602 407.244556 
L 769.779678 408.253642 
L 770.016754 410.147147 
L 770.25383 413.126204 
L 770.490906 417.605397 
L 770.727982 424.542034 
L 770.965058 436.952657 
L 771.202134 494.732477 
L 771.43921 438.855136 
L 771.913361 418.040615 
L 772.387513 410.164919 
L 772.861665 406.984948 
L 773.098741 406.643716 
L 773.335817 407.075067 
L 773.572893 408.317516 
L 773.809969 410.488479 
L 774.047045 413.834224 
L 774.284121 418.871511 
L 774.521197 426.869696 
L 774.995348 465.28426 
L 775.232424 433.482802 
L 775.706576 416.087281 
L 776.180728 409.074244 
L 776.417804 407.306566 
L 776.65488 406.401437 
L 776.891956 406.281983 
L 777.129032 406.94063 
L 777.366108 408.436399 
L 777.603184 410.917122 
L 777.84026 414.687128 
L 778.077336 420.404928 
L 778.314411 429.828665 
L 778.551487 451.436667 
L 778.788563 449.131605 
L 779.025639 429.005513 
L 779.499791 414.217195 
L 779.973943 408.008958 
L 780.211019 406.510655 
L 780.448095 405.844662 
L 780.685171 405.956551 
L 780.922247 406.858197 
L 781.159323 408.632003 
L 781.396399 411.463398 
L 781.633474 415.733795 
L 781.87055 422.306954 
L 782.107626 433.770471 
L 782.344702 471.432948 
L 782.581778 439.89019 
L 782.818854 425.128689 
L 783.293006 412.426679 
L 783.767158 406.977589 
L 784.004234 405.748104 
L 784.24131 405.327415 
L 784.478386 405.682793 
L 784.715461 406.846936 
L 784.952537 408.929831 
L 785.189613 412.164923 
L 785.426689 417.039871 
L 785.663765 424.732414 
L 785.900841 439.41592 
L 786.137917 471.058729 
L 786.374993 433.215414 
L 786.849145 415.042859 
L 787.323297 407.817868 
L 787.560373 405.984925 
L 787.797449 405.026008 
L 788.034524 404.859204 
L 788.2716 405.473482 
L 788.508676 406.924744 
L 788.745752 409.356843 
L 788.982828 413.067084 
L 789.219904 418.696918 
L 789.45698 427.94297 
L 789.694056 448.717934 
L 789.931132 448.754525 
L 790.168208 427.858154 
L 790.64236 412.823165 
L 791.116512 406.532715 
L 791.353587 405.008892 
L 791.590663 404.32299 
L 791.827739 404.419351 
L 792.064815 405.309492 
L 792.301891 407.076283 
L 792.538967 409.90683 
L 792.776043 414.187036 
L 793.013119 420.794086 
L 793.250195 432.376492 
L 793.487271 471.902727 
L 793.724347 437.789948 
L 793.961423 423.22603 
L 794.435575 410.588693 
L 794.909726 405.139582 
L 795.146802 403.903262 
L 795.383878 403.473526 
L 795.620954 403.818702 
L 795.85803 404.97263 
L 796.095106 407.047125 
L 796.332182 410.279319 
L 796.569258 415.166033 
L 796.806334 422.914975 
L 797.04341 437.876932 
L 797.280486 466.079468 
L 797.517562 430.572443 
L 797.991713 412.522653 
L 798.465865 405.169868 
L 798.940017 402.141058 
L 799.177093 401.807447 
L 799.414169 402.20987 
L 799.651245 403.385601 
L 799.888321 405.444455 
L 800.125397 408.614013 
L 800.362473 413.364594 
L 800.599549 420.818468 
L 800.836625 434.841463 
L 801.073701 474.062959 
L 801.310776 430.184348 
L 801.784928 411.029533 
L 802.25908 402.963521 
L 802.733232 399.005481 
L 802.970308 398.046973 
L 803.207384 397.662212 
L 803.44446 397.822745 
L 803.681536 398.532164 
L 803.918612 399.828634 
L 804.392763 404.599695 
L 804.866915 414.303597 
L 805.103991 423.643299 
L 805.341067 445.255668 
L 805.578143 441.603892 
L 805.815219 421.055663 
L 806.289371 404.328899 
L 806.763523 395.111865 
L 807.474751 386.101222 
L 808.185978 380.132098 
L 808.66013 377.536883 
L 809.134282 376.242328 
L 809.371358 376.225096 
L 809.608434 376.766352 
L 809.84551 378.04783 
L 810.082586 380.386101 
L 810.319662 384.412374 
L 810.556738 391.716198 
L 810.793814 409.158965 
L 811.030889 412.562918 
L 811.267965 387.758699 
L 811.742117 367.856568 
L 812.216269 356.543015 
L 812.927497 345.678607 
L 813.401649 341.03275 
L 813.875801 338.187454 
L 814.112877 337.47915 
L 814.349952 337.318046 
L 814.587028 337.807598 
L 814.824104 339.125473 
L 815.06118 341.596035 
L 815.298256 345.89026 
L 815.535332 353.769599 
L 815.772408 373.661382 
L 816.009484 369.841764 
L 816.24656 347.801897 
L 816.720712 328.972776 
L 817.194864 318.232084 
L 817.906091 308.053658 
L 818.380243 303.80692 
L 818.854395 301.32106 
L 819.091471 300.77734 
L 819.328547 300.770183 
L 819.565623 301.402268 
L 819.802699 302.84985 
L 820.039775 305.434382 
L 820.276851 309.819418 
L 820.513927 317.739309 
L 820.751003 337.369871 
L 820.988078 334.668223 
L 821.225154 312.382407 
L 821.699306 293.580086 
L 822.173458 282.88475 
L 822.884686 272.680714 
L 823.358838 268.317101 
L 823.83299 265.587868 
L 824.070065 264.850738 
L 824.307141 264.578274 
L 824.544217 264.839808 
L 824.781293 265.7509 
L 825.018369 267.50936 
L 825.255445 270.480786 
L 825.492521 275.443905 
L 825.729597 284.576978 
L 825.966673 311.174931 
L 826.677901 264.420099 
L 827.152053 251.547386 
L 827.86328 239.768757 
L 828.574508 232.594743 
L 829.04866 229.726949 
L 829.522812 228.391416 
L 829.759888 228.380117 
L 829.996964 228.90046 
L 830.23404 230.080417 
L 830.471116 232.139236 
L 830.708191 235.488055 
L 830.945267 241.030844 
L 831.182343 251.482232 
L 831.419419 291.542616 
L 831.656495 253.358279 
L 832.130647 227.831158 
L 832.604799 215.532695 
L 833.316027 204.04311 
L 834.027254 196.847824 
L 834.501406 193.799496 
L 834.975558 192.094172 
L 835.212634 191.791546 
L 835.44971 191.912714 
L 835.686786 192.533102 
L 835.923862 193.773774 
L 836.160938 195.838585 
L 836.398014 199.102234 
L 836.63509 204.364098 
L 836.872166 213.882094 
L 837.109242 242.143067 
L 837.583393 203.629654 
L 838.057545 186.551479 
L 838.531697 176.403318 
L 839.242925 166.303726 
L 839.954153 159.75191 
L 840.428305 156.893196 
L 840.902456 155.195698 
L 841.139532 154.815258 
L 841.376608 154.787307 
L 841.613684 155.163539 
L 841.85076 156.023566 
L 842.087836 157.493519 
L 842.324912 159.784986 
L 842.561988 163.287915 
L 842.799064 168.842037 
L 843.03614 178.873082 
L 843.273216 210.829209 
L 843.747367 167.453374 
L 844.221519 150.817412 
L 844.695671 140.819928 
L 845.406899 130.715162 
L 846.118127 123.898748 
L 846.829355 119.425597 
L 847.303506 117.627905 
L 847.777658 116.838103 
L 848.014734 116.873202 
L 848.25181 117.24495 
L 848.488886 118.013709 
L 848.725962 119.271012 
L 849.200114 123.93426 
L 849.43719 128.057667 
L 849.674266 134.60476 
L 849.911342 147.102911 
L 850.148418 201.350466 
L 850.385493 142.624685 
L 850.859645 120.005925 
L 851.333797 108.43267 
L 852.045025 97.157791 
L 852.756253 89.395412 
L 853.467481 83.791433 
L 854.178708 79.856596 
L 854.65286 78.080185 
L 855.127012 76.994586 
L 855.364088 76.729967 
L 855.601164 76.669122 
L 855.83824 76.832867 
L 856.075316 77.250133 
L 856.312392 77.961473 
L 856.786544 80.526447 
L 857.260695 85.466845 
L 857.497771 89.539598 
L 857.734847 95.714497 
L 857.971923 106.663356 
L 858.208999 145.724646 
L 858.446075 109.982219 
L 858.920227 84.942554 
L 859.394379 72.977074 
L 860.105606 61.373484 
L 860.816834 53.136543 
L 861.765138 44.910136 
L 862.713442 38.663372 
L 863.187594 36.082644 
L 863.424669 36.069162 
L 864.372973 41.570397 
L 865.321277 48.704017 
L 866.032505 55.620589 
L 866.743732 64.740563 
L 867.217884 72.999879 
L 867.692036 85.017059 
L 867.929112 94.304976 
L 868.166188 110.358939 
L 868.403264 143.229429 
L 868.64034 106.289264 
L 869.114492 89.368398 
L 869.588644 82.474945 
L 870.062795 78.922636 
L 870.536947 77.16266 
L 870.774023 76.75168 
L 871.011099 76.593913 
L 871.248175 76.660645 
L 871.485251 76.931232 
L 871.959403 78.029578 
L 872.433555 79.8207 
L 873.144783 83.78396 
L 873.85601 89.429758 
L 874.567238 97.261495 
L 875.04139 104.304627 
L 875.515542 113.920582 
L 875.989694 129.463473 
L 876.22677 144.279661 
L 876.463846 207.366002 
L 876.700921 145.279055 
L 877.175073 127.426386 
L 877.649225 120.7841 
L 878.123377 117.758942 
L 878.360453 117.034618 
L 878.597529 116.701589 
L 878.834605 116.701738 
L 879.071681 116.9958 
L 879.545833 118.36899 
L 880.019984 120.709162 
L 880.494136 124.007751 
L 881.205364 130.983326 
L 881.679516 137.401836 
L 882.153668 146.058734 
L 882.62782 159.136738 
L 882.864896 169.706248 
L 883.101971 190.139869 
L 883.339047 197.941764 
L 883.576123 175.888559 
L 884.050275 162.146846 
L 884.524427 156.848254 
L 884.998579 154.779431 
L 885.235655 154.501263 
L 885.472731 154.616509 
L 885.709807 155.077998 
L 886.183959 156.931136 
L 886.65811 159.952961 
L 887.132262 164.184499 
L 887.606414 169.836548 
L 888.080566 177.428308 
L 888.554718 188.314825 
L 888.791794 196.183874 
L 889.02887 207.866342 
L 889.265946 233.755472 
L 889.503022 226.349502 
L 889.740097 209.358072 
L 890.214249 197.355299 
L 890.688401 192.833392 
L 890.925477 191.836124 
L 891.162553 191.412559 
L 891.399629 191.460469 
L 891.636705 191.915792 
L 892.110857 193.905995 
L 892.585009 197.24681 
L 893.05916 202.00327 
L 893.533312 208.483364 
L 894.007464 217.495759 
L 894.481616 231.53922 
L 894.718692 243.423711 
L 894.955768 270.29309 
L 895.192844 260.981335 
L 895.42992 244.549069 
L 895.904072 232.947543 
L 896.378223 228.774387 
L 896.615299 227.966177 
L 896.852375 227.747164 
L 897.089451 228.018469 
L 897.326527 228.719624 
L 897.800679 231.287375 
L 898.274831 235.368208 
L 898.748983 241.135415 
L 899.223135 249.157213 
L 899.697286 261.080595 
L 899.934362 270.105748 
L 900.171438 284.716727 
L 900.408514 372.772107 
L 900.64559 288.35936 
L 900.882666 276.749326 
L 901.356818 267.412671 
L 901.83097 264.216123 
L 902.068046 263.789615 
L 902.305122 263.93034 
L 902.542198 264.557706 
L 903.016349 267.107309 
L 903.490501 271.317288 
L 903.964653 277.376869 
L 904.438805 285.95634 
L 904.912957 299.14289 
L 905.150033 309.747048 
L 905.624185 340.664384 
L 905.861261 317.756255 
L 906.335412 304.614155 
L 906.809564 300.360112 
L 907.04664 299.672281 
L 907.283716 299.642887 
L 907.520792 300.16426 
L 907.994944 302.639749 
L 908.469096 306.921144 
L 908.943248 313.199053 
L 909.417399 322.220068 
L 909.891551 336.449979 
L 910.128627 348.490512 
L 910.365703 375.575346 
L 910.602779 366.439932 
L 910.839855 350.286529 
L 911.314007 339.342129 
L 911.551083 337.121392 
L 911.788159 335.993998 
L 912.025235 335.669944 
L 912.262311 335.989377 
L 912.499387 336.860307 
L 912.973538 340.080126 
L 913.44769 345.234343 
L 913.921842 352.640896 
L 914.395994 363.38703 
L 914.870146 381.620865 
L 915.344298 416.582809 
L 915.581374 391.958693 
L 915.81845 383.509839 
L 916.292601 376.740824 
L 916.529677 375.561805 
L 916.766753 375.233435 
L 917.003829 375.551437 
L 917.240905 376.388867 
L 917.715057 379.302638 
L 918.426285 386.012753 
L 919.374588 397.944397 
L 920.085816 409.029096 
L 920.559968 419.163547 
L 920.797044 426.647371 
L 921.03412 438.796662 
L 921.271196 480.100997 
L 921.508272 443.668232 
L 921.982424 420.622589 
L 922.456575 410.746445 
L 922.930727 405.07671 
L 923.404879 402.009159 
L 923.641955 401.298113 
L 923.879031 401.121208 
L 924.116107 401.499604 
L 924.353183 402.483627 
L 924.590259 404.164582 
L 925.064411 410.380192 
L 925.301487 415.778767 
L 925.538563 424.324284 
L 926.012714 454.693043 
L 926.24979 428.416778 
L 926.723942 411.973832 
L 927.198094 405.133636 
L 927.672246 402.43501 
L 927.909322 402.247692 
L 928.146398 402.796337 
L 928.383474 404.125735 
L 928.62055 406.354168 
L 928.857626 409.721535 
L 929.094701 414.722197 
L 929.331777 422.546125 
L 929.568853 437.424241 
L 929.805929 468.030477 
L 930.043005 431.075817 
L 930.517157 413.138565 
L 930.991309 406.069581 
L 931.228385 404.304974 
L 931.465461 403.409352 
L 931.702537 403.300651 
L 931.939613 403.966849 
L 932.176689 405.461674 
L 932.413764 407.924477 
L 932.65084 411.64266 
L 932.887916 417.231769 
L 933.124992 426.294297 
L 933.362068 445.931608 
L 933.599144 449.909795 
L 933.83622 427.694157 
L 934.310372 412.409049 
L 934.784524 406.139077 
L 935.0216 404.646113 
L 935.258676 403.995445 
L 935.495752 404.127563 
L 935.732827 405.050389 
L 935.969903 406.842118 
L 936.206979 409.681895 
L 936.444055 413.938536 
L 936.681131 420.441579 
L 936.918207 431.630602 
L 937.155283 465.431352 
L 937.629435 424.336514 
L 938.103587 411.503546 
L 938.577739 406.091844 
L 938.814814 404.897239 
L 939.05189 404.515917 
L 939.288966 404.912644 
L 939.526042 406.117916 
L 939.763118 408.239129 
L 940.000194 411.505449 
L 940.23727 416.395111 
L 940.474346 424.057005 
L 940.711422 438.50155 
L 940.948498 473.929231 
L 941.185574 433.380273 
L 941.659726 415.066563 
L 942.133877 407.900619 
L 942.370953 406.109992 
L 942.608029 405.196065 
L 942.845105 405.074722 
L 943.082181 405.733028 
L 943.319257 407.224606 
L 943.556333 409.689695 
L 943.793409 413.418478 
L 944.030485 419.034455 
L 944.267561 428.169709 
L 944.504637 448.175194 
L 944.741713 450.880124 
L 944.978789 429.129981 
L 945.45294 413.956139 
L 945.927092 407.704569 
L 946.164168 406.212134 
L 946.401244 405.558686 
L 946.63832 405.68523 
L 946.875396 406.599682 
L 947.112472 408.379682 
L 947.349548 411.202976 
L 947.586624 415.434998 
L 947.8237 421.89559 
L 948.060776 432.982543 
L 948.297852 465.792575 
L 948.772003 426.008394 
L 949.246155 413.074504 
L 949.720307 407.606257 
L 949.957383 406.384701 
L 950.194459 405.974569 
L 950.431535 406.338771 
L 950.668611 407.505352 
L 950.905687 409.577635 
L 951.142763 412.776861 
L 951.379839 417.562716 
L 951.616915 425.02658 
L 951.853991 438.863453 
L 952.091066 484.56169 
L 952.328142 435.713887 
L 952.802294 416.781121 
L 953.276446 409.437059 
L 953.513522 407.583119 
L 953.750598 406.610233 
L 953.987674 406.429363 
L 954.22475 407.023143 
L 954.461826 408.439696 
L 954.698902 410.810393 
L 954.935978 414.407746 
L 955.173054 419.81117 
L 955.410129 428.49822 
L 955.884281 456.330469 
L 956.121357 431.664474 
L 956.595509 415.717862 
L 957.069661 409.202656 
L 957.306737 407.614755 
L 957.543813 406.872453 
L 957.780889 406.909448 
L 958.017965 407.726741 
L 958.255041 409.393012 
L 958.492116 412.07088 
L 958.729192 416.094029 
L 958.966268 422.19658 
L 959.203344 432.424631 
L 959.44042 458.405657 
L 960.151648 420.110098 
L 960.6258 411.320333 
L 961.099952 407.683251 
L 961.337028 407.156868 
L 961.574104 407.402715 
L 961.811179 408.439392 
L 962.048255 410.357169 
L 962.285331 413.354032 
L 962.522407 417.83769 
L 962.759483 424.745702 
L 962.996559 437.001092 
L 963.233635 488.355216 
L 963.470711 439.830977 
L 963.944863 418.78144 
L 964.419015 410.916088 
L 964.893167 407.773187 
L 965.130242 407.451012 
L 965.367318 407.898893 
L 965.604394 409.152809 
L 965.84147 411.326187 
L 966.078546 414.65764 
L 966.315622 419.645773 
L 966.552698 427.501772 
L 966.789774 442.592508 
L 967.02685 470.637217 
L 967.263926 435.420122 
L 967.738078 417.630093 
L 968.21223 410.558994 
L 968.449305 408.782554 
L 968.686381 407.87146 
L 968.923457 407.744441 
L 969.160533 408.389714 
L 969.397609 409.860857 
L 969.634685 412.296662 
L 969.871761 415.983121 
L 970.108837 421.532201 
L 970.345913 430.533709 
L 970.582989 449.985386 
L 970.820065 454.479149 
L 971.057141 432.019973 
L 971.531293 416.604756 
L 972.005444 410.229867 
L 972.24252 408.680336 
L 972.479596 407.967401 
L 972.716672 408.028985 
L 972.953748 408.869243 
L 973.190824 410.559999 
L 973.4279 413.268348 
L 973.664976 417.336476 
L 973.902052 423.520488 
L 974.139128 433.953435 
L 974.376204 461.410293 
L 975.087431 420.892685 
L 975.561583 412.189747 
L 976.035735 408.575977 
L 976.272811 408.052785 
L 976.509887 408.298873 
L 976.746963 409.334025 
L 976.984039 411.249537 
L 977.221115 414.244651 
L 977.458191 418.729384 
L 977.695267 425.647421 
L 977.932343 437.950111 
L 978.169418 491.026635 
L 978.406494 440.493131 
L 978.880646 419.510557 
L 979.354798 411.631573 
L 979.82895 408.461095 
L 980.066026 408.122007 
L 980.303102 408.550933 
L 980.540178 409.783458 
L 980.777254 411.932078 
L 981.01433 415.233356 
L 981.251406 420.180811 
L 981.488481 427.96927 
L 981.725557 442.869263 
L 981.725557 442.869263 
" clip-path="url(#p3189316c14)" style="fill: none; stroke: #1f77b4; stroke-width: 3; stroke-linecap: square"/>
   </g>
   <g id="line2d_49">
    <path d="M 744.886706 453.114865 
L 745.123782 480.433107 
L 745.360857 446.058699 
L 745.597933 436.124637 
L 745.835009 431.860804 
L 746.072085 431.035182 
L 746.309161 433.339549 
L 746.546237 439.719478 
L 747.020389 473.866326 
L 747.257465 444.927812 
L 747.494541 435.622146 
L 747.731617 431.661719 
L 747.968693 431.07062 
L 748.205769 433.632754 
L 748.442845 440.430599 
L 748.916996 468.913207 
L 749.154072 443.807229 
L 749.391148 435.08336 
L 749.628224 431.418277 
L 749.8653 431.062957 
L 750.102376 433.892159 
L 750.339452 441.140304 
L 750.576528 459.461268 
L 750.813604 464.855404 
L 751.05068 442.681028 
L 751.287756 434.504295 
L 751.524832 431.130647 
L 751.761908 431.015527 
L 751.998983 434.125232 
L 752.236059 441.866064 
L 752.473135 462.210696 
L 752.710211 461.349323 
L 752.947287 441.538701 
L 753.184363 433.883527 
L 753.421439 430.800937 
L 753.658515 430.933504 
L 753.895591 434.341522 
L 754.132667 442.629588 
L 754.369743 465.578506 
L 754.606819 458.206891 
L 754.843895 440.374076 
L 755.080971 433.2218 
L 755.318046 430.432916 
L 755.555122 430.823552 
L 755.792198 434.552339 
L 756.029274 443.457206 
L 756.26635 469.953172 
L 756.977578 432.522016 
L 757.214654 430.031962 
L 757.45173 430.693748 
L 757.688806 434.770833 
L 757.925882 444.381023 
L 758.162958 476.14567 
L 758.637109 437.972114 
L 758.874185 431.788703 
L 759.111261 429.604643 
L 759.348337 430.553311 
L 759.585413 435.011767 
L 759.822489 445.440518 
L 760.059565 486.412155 
L 760.296641 450.05142 
L 760.533717 436.73901 
L 760.770793 431.027928 
L 761.007869 429.158692 
L 761.244945 430.412516 
L 761.482021 435.291763 
L 761.719097 446.685784 
L 761.956172 515.005547 
L 762.193248 447.605401 
L 762.430324 435.490833 
L 762.6674 430.246755 
L 762.904476 428.702545 
L 763.141552 430.2824 
L 763.378628 435.629278 
L 763.615704 448.182305 
L 763.85278 495.40731 
L 764.089856 445.258778 
L 764.326932 434.234187 
L 764.564008 429.453087 
L 764.801084 428.245329 
L 765.038159 430.174841 
L 765.275235 436.045234 
L 765.512311 450.0205 
L 765.749387 477.832435 
L 765.986463 443.001503 
L 766.223539 432.976397 
L 766.460615 428.655246 
L 766.697691 427.796472 
L 766.934767 430.102359 
L 767.171843 436.563442 
L 767.645995 468.105759 
L 767.883071 440.827944 
L 768.120147 431.725286 
L 768.357222 427.861859 
L 768.594298 427.365772 
L 768.831374 430.078315 
L 769.06845 437.211919 
L 769.305526 455.329153 
L 769.542602 461.154417 
L 769.779678 438.735037 
L 770.016754 430.488677 
L 770.25383 427.081548 
L 770.490906 426.963178 
L 770.727982 430.116943 
L 770.965058 438.024379 
L 771.202134 459.381114 
L 771.43921 455.645973 
L 771.676285 436.721557 
L 771.913361 429.274345 
L 772.150437 426.322958 
L 772.387513 426.598877 
L 772.624589 430.233786 
L 772.861665 439.043188 
L 773.098741 465.258394 
L 773.809969 428.089679 
L 774.047045 425.594509 
L 774.284121 426.283243 
L 774.521197 430.445959 
L 774.758273 440.323463 
L 774.995348 475.066567 
L 775.232424 447.030534 
L 775.4695 432.932131 
L 775.706576 426.941804 
L 775.943652 424.904551 
L 776.180728 426.027062 
L 776.417804 430.772976 
L 776.65488 441.940957 
L 776.891956 500.981311 
L 777.129032 443.484227 
L 777.366108 431.157195 
L 777.603184 425.837353 
L 777.84026 424.261248 
L 778.077336 425.841581 
L 778.314411 431.237545 
L 778.551487 444.005357 
L 778.788563 486.239734 
L 779.025639 440.291895 
L 779.262715 429.463223 
L 779.499791 424.782689 
L 779.736867 423.672779 
L 779.973943 425.738905 
L 780.211019 431.867142 
L 780.685171 467.837971 
L 780.922247 437.386942 
L 781.159323 427.851155 
L 781.396399 423.783788 
L 781.633474 423.147337 
L 781.87055 425.732244 
L 782.107626 432.695982 
L 782.344702 450.278703 
L 782.581778 457.96002 
L 782.818854 434.723238 
L 783.05593 426.322106 
L 783.293006 422.846457 
L 783.530082 422.693382 
L 783.767158 425.836488 
L 784.004234 433.76851 
L 784.24131 455.345726 
L 784.478386 451.010036 
L 784.715461 432.267592 
L 784.952537 424.87723 
L 785.189613 421.976355 
L 785.426689 422.319762 
L 785.663765 426.068822 
L 785.900841 435.144726 
L 786.137917 463.257297 
L 786.612069 429.995594 
L 786.849145 423.517891 
L 787.086221 421.179185 
L 787.323297 422.036048 
L 787.560373 426.449768 
L 787.797449 436.909858 
L 788.034524 479.268255 
L 788.2716 441.074713 
L 788.508676 427.888809 
L 788.745752 422.245587 
L 788.982828 420.460763 
L 789.219904 421.852746 
L 789.45698 427.004432 
L 789.694056 439.191828 
L 789.931132 495.320361 
L 790.168208 437.221156 
L 790.405284 425.933308 
L 790.64236 421.062123 
L 790.879436 419.827291 
L 791.116512 421.781835 
L 791.353587 427.764688 
L 791.590663 442.197859 
L 791.827739 465.963248 
L 792.064815 433.845348 
L 792.301891 424.118376 
L 792.538967 419.969633 
L 792.776043 419.28546 
L 793.013119 421.837247 
L 793.250195 428.772282 
L 793.487271 446.299465 
L 793.724347 454.155206 
L 793.961423 430.842293 
L 794.198499 422.435886 
L 794.435575 418.970674 
L 794.67265 418.842748 
L 794.909726 422.035618 
L 795.146802 430.083979 
L 795.383878 452.275078 
L 795.620954 446.436958 
L 795.85803 428.142312 
L 796.095106 420.879761 
L 796.332182 418.06836 
L 796.569258 418.507679 
L 796.806334 422.397374 
L 797.04341 431.78053 
L 797.280486 462.278907 
L 797.754638 425.697068 
L 797.991713 419.445651 
L 798.228789 417.266473 
L 798.465865 418.290231 
L 798.702941 422.948206 
L 798.940017 433.983012 
L 799.177093 489.190211 
L 799.414169 435.910797 
L 799.651245 423.472059 
L 799.888321 418.13071 
L 800.125397 416.569663 
L 800.362473 418.202291 
L 800.599549 423.721411 
L 800.836625 436.88635 
L 801.073701 472.807013 
L 801.310776 431.946956 
L 801.547852 421.442098 
L 801.784928 416.933457 
L 802.022004 415.983576 
L 802.25908 418.258291 
L 802.496156 424.761398 
L 802.970308 454.858609 
L 803.207384 428.520915 
L 803.44446 419.588687 
L 803.681536 415.853759 
L 803.918612 415.515208 
L 804.155688 418.476175 
L 804.392763 426.129739 
L 804.629839 446.540722 
L 804.866915 445.200934 
L 805.103991 425.508414 
L 805.341067 417.898208 
L 805.578143 414.89276 
L 805.815219 415.17315 
L 806.052295 418.878599 
L 806.289371 427.915376 
L 806.526447 455.882817 
L 807.000599 422.828933 
L 807.237675 416.36089 
L 807.474751 414.053029 
L 807.711826 414.968107 
L 807.948902 419.494942 
L 808.185978 430.254392 
L 808.423054 478.437042 
L 808.66013 433.185191 
L 808.897206 420.427854 
L 809.134282 414.970019 
L 809.371358 413.338631 
L 809.608434 414.913455 
L 809.84551 420.36418 
L 810.082586 433.370899 
L 810.319662 471.376988 
L 810.556738 428.873601 
L 810.793814 418.267042 
L 811.030889 413.72151 
L 811.267965 412.755349 
L 811.505041 415.026128 
L 811.742117 421.539729 
L 812.216269 451.38235 
L 812.453345 425.215805 
L 812.690421 416.319427 
L 812.927497 412.61361 
L 813.164573 412.311003 
L 813.401649 415.327826 
L 813.638725 423.097548 
L 813.875801 444.056251 
L 814.112877 441.252021 
L 814.349952 422.046646 
L 814.587028 414.565821 
L 814.824104 411.646796 
L 815.06118 412.015847 
L 815.298256 415.846828 
L 815.535332 425.151122 
L 815.772408 455.135564 
L 816.24656 419.263445 
L 816.483636 412.992897 
L 816.720712 410.82377 
L 816.957788 411.883211 
L 817.194864 416.620781 
L 817.43194 427.88118 
L 817.669015 492.768859 
L 817.906091 428.954239 
L 818.143167 416.798956 
L 818.380243 411.59193 
L 818.617319 410.149562 
L 818.854395 411.930351 
L 819.091471 417.701216 
L 819.328547 431.602867 
L 819.565623 459.539934 
L 819.802699 424.607149 
L 820.039775 414.607742 
L 820.276851 410.358129 
L 820.513927 409.631926 
L 820.751003 412.179879 
L 820.988078 419.161363 
L 821.225154 436.946186 
L 821.46223 443.801679 
L 821.699306 420.948413 
L 821.936382 412.658768 
L 822.173458 409.290305 
L 822.410534 409.282042 
L 822.64761 412.662228 
L 822.884686 421.111166 
L 823.121762 445.504985 
L 823.358838 434.804451 
L 823.595914 417.804038 
L 823.83299 410.931019 
L 824.070065 408.3912 
L 824.307141 409.116603 
L 824.544217 413.42182 
L 824.781293 423.732939 
L 825.018369 464.271681 
L 825.255445 428.385964 
L 825.492521 415.060789 
L 825.729597 409.407388 
L 825.966673 407.666448 
L 826.203749 409.161679 
L 826.440825 414.533915 
L 826.677901 427.390004 
L 826.914977 467.448146 
L 827.152053 423.291968 
L 827.389128 412.602076 
L 827.626204 408.043476 
L 827.86328 407.100435 
L 828.100356 409.440603 
L 828.337432 416.13249 
L 828.811584 443.144098 
L 829.04866 418.7383 
L 829.285736 410.13285 
L 829.522812 406.591636 
L 829.759888 406.45994 
L 829.996964 409.75363 
L 830.23404 418.201874 
L 830.471116 443.436611 
L 831.182343 406.692559 
L 831.419419 403.908072 
L 831.656495 404.300028 
L 831.893571 408.158932 
L 832.130647 417.804093 
L 832.367723 454.796771 
L 832.604799 422.133656 
L 832.841875 407.558056 
L 833.078951 400.582248 
L 833.316027 397.138761 
L 833.553103 396.24341 
L 833.790179 397.824896 
L 834.027254 402.678293 
L 834.26433 414.26764 
L 834.501406 460.615167 
L 834.738482 408.060842 
L 835.212634 386.388206 
L 835.686786 377.251861 
L 835.923862 375.091028 
L 836.160938 374.567571 
L 836.398014 376.247262 
L 836.63509 381.847284 
L 836.872166 399.823426 
L 837.109242 394.181953 
L 837.346317 370.891679 
L 837.820469 350.714736 
L 838.294621 340.860479 
L 838.531697 338.582439 
L 838.768773 338.31683 
L 839.005849 340.952792 
L 839.242925 349.538755 
L 839.480001 411.826946 
L 839.717077 343.766444 
L 840.191229 317.604863 
L 840.66538 305.849837 
L 840.902456 302.734486 
L 841.139532 301.40868 
L 841.376608 302.315265 
L 841.613684 306.813988 
L 842.087836 329.306001 
L 842.324912 300.42949 
L 842.799064 278.955654 
L 843.273216 268.62941 
L 843.510292 265.973934 
L 843.747367 265.023037 
L 843.984443 266.24857 
L 844.221519 271.041905 
L 844.695671 293.077145 
L 844.932747 264.794283 
L 845.406899 243.491973 
L 845.881051 232.999078 
L 846.118127 230.093284 
L 846.355203 228.696183 
L 846.592279 229.102118 
L 846.829355 232.142895 
L 847.06643 240.492743 
L 847.303506 279.01461 
L 847.540582 239.159029 
L 848.014734 211.922677 
L 848.488886 199.466769 
L 848.963038 193.12547 
L 849.200114 191.988199 
L 849.43719 192.507186 
L 849.674266 195.427011 
L 849.911342 202.991501 
L 850.148418 230.075436 
L 850.622569 188.388452 
L 851.096721 170.206009 
L 851.570873 160.384665 
L 852.045025 155.476578 
L 852.282101 154.84268 
L 852.519177 155.760452 
L 852.756253 158.973552 
L 852.993329 166.663951 
L 853.230405 192.593306 
L 853.704556 153.227845 
L 854.178708 134.911117 
L 854.65286 124.70311 
L 855.127012 118.841191 
L 855.364088 117.333112 
L 855.601164 116.867251 
L 855.83824 117.68244 
L 856.075316 120.311623 
L 856.312392 126.115181 
L 856.786544 153.533428 
L 857.023619 123.512492 
L 857.497771 102.054841 
L 857.971923 90.456996 
L 858.446075 83.008376 
L 858.920227 78.470729 
L 859.157303 77.219705 
L 859.394379 76.705023 
L 859.631455 77.050864 
L 859.868531 78.500902 
L 860.105606 81.554843 
L 860.342682 87.421798 
L 860.579758 100.462675 
L 860.816834 126.423208 
L 861.05391 88.999933 
L 861.528062 66.559852 
L 862.002214 54.353592 
L 862.713442 42.382029 
L 863.187594 36.704954 
L 863.424669 36.677128 
L 864.135897 45.784992 
L 864.610049 54.330523 
L 865.084201 66.572387 
L 865.321277 75.510074 
L 865.558353 89.20328 
L 865.795429 128.383568 
L 866.032505 99.903512 
L 866.269581 87.110101 
L 866.506657 81.318047 
L 866.743732 78.303648 
L 866.980808 76.88153 
L 867.217884 76.55981 
L 867.45496 77.098522 
L 867.692036 78.3759 
L 868.166188 82.982167 
L 868.64034 90.543532 
L 869.114492 102.374334 
L 869.351568 111.224071 
L 869.588644 124.723128 
L 869.82572 160.132825 
L 870.299871 125.020184 
L 870.536947 119.625729 
L 870.774023 117.216153 
L 871.011099 116.557637 
L 871.248175 117.157572 
L 871.485251 118.796277 
L 871.959403 124.963329 
L 872.433555 135.675041 
L 872.907707 155.46581 
L 873.144783 178.622503 
L 873.381858 182.198021 
L 873.618934 163.888448 
L 873.85601 157.484574 
L 874.093086 154.871571 
L 874.330162 154.352206 
L 874.567238 155.312665 
L 874.804314 157.504818 
L 875.278466 165.481086 
L 875.752618 179.987715 
L 875.989694 192.464285 
L 876.22677 219.2041 
L 876.463846 214.010871 
L 876.700921 198.657897 
L 876.937997 193.199905 
L 877.175073 191.291586 
L 877.412149 191.460848 
L 877.649225 193.177294 
L 878.123377 200.731498 
L 878.597529 215.286872 
L 878.834605 228.013691 
L 879.071681 256.001837 
L 879.308757 248.505884 
L 879.545833 233.979123 
L 879.782908 228.96124 
L 880.019984 227.484729 
L 880.25706 228.141851 
L 880.494136 230.442582 
L 880.968288 239.714592 
L 881.44244 258.348679 
L 881.916592 295.249482 
L 882.153668 272.123046 
L 882.390744 265.574517 
L 882.62782 263.536935 
L 882.864896 263.98534 
L 883.101971 266.272094 
L 883.576123 275.978948 
L 883.813199 284.109375 
L 884.050275 296.349027 
L 884.287351 321.43225 
L 884.524427 321.422532 
L 884.761503 305.35335 
L 884.998579 300.34438 
L 885.235655 299.232281 
L 885.472731 300.482278 
L 885.709807 303.612286 
L 886.183959 315.731621 
L 886.421034 326.200609 
L 886.65811 344.322803 
L 886.895186 375.497958 
L 887.132262 344.22221 
L 887.369338 337.130631 
L 887.606414 335.241974 
L 887.84349 336.141794 
L 888.080566 339.118931 
L 888.554718 351.146945 
L 888.791794 361.443376 
L 889.02887 378.491911 
L 889.265946 430.961692 
L 889.503022 383.724554 
L 889.740097 376.102301 
L 889.977173 374.234044 
L 890.214249 375.190119 
L 890.451325 378.02008 
L 890.925477 387.756951 
L 891.399629 401.94545 
L 891.873781 424.348922 
L 892.110857 459.231744 
L 892.585009 418.554914 
L 893.05916 405.933225 
L 893.296236 403.406709 
L 893.533312 402.872132 
L 893.770388 404.505758 
L 894.007464 408.999067 
L 894.24454 418.542885 
L 894.481616 447.408317 
L 894.955768 413.418833 
L 895.192844 406.90038 
L 895.42992 404.412415 
L 895.666996 404.978332 
L 895.904072 408.80989 
L 896.141148 417.719784 
L 896.378223 443.419129 
L 897.089451 407.838149 
L 897.326527 405.520054 
L 897.563603 406.433202 
L 897.800679 410.898967 
L 898.037755 421.317874 
L 898.274831 460.954302 
L 898.511907 426.644113 
L 898.748983 413.377725 
L 898.986059 407.851243 
L 899.223135 406.248398 
L 899.46021 407.879489 
L 899.697286 413.370599 
L 899.934362 426.263508 
L 900.171438 468.69268 
L 900.408514 422.888013 
L 900.64559 412.261602 
L 900.882666 407.817164 
L 901.119742 406.991685 
L 901.356818 409.429323 
L 901.593894 416.145937 
L 902.068046 445.580811 
L 902.305122 420.062588 
L 902.542198 411.42265 
L 902.779273 407.946052 
L 903.016349 407.880746 
L 903.253425 411.170312 
L 903.490501 419.327593 
L 903.727577 441.553165 
L 903.964653 436.153185 
L 904.201729 417.958632 
L 904.438805 410.870506 
L 904.675881 408.263622 
L 904.912957 408.943241 
L 905.150033 413.141188 
L 905.387109 423.044802 
L 905.624185 457.062147 
L 905.861261 430.441913 
L 906.098336 416.389965 
L 906.335412 410.569892 
L 906.572488 408.76153 
L 906.809564 410.183586 
L 907.04664 415.370375 
L 907.283716 427.488531 
L 907.520792 493.104843 
L 907.757868 426.521961 
L 907.994944 415.233771 
L 908.23202 410.488497 
L 908.469096 409.428838 
L 908.706172 411.604351 
L 908.943248 417.89315 
L 909.417399 453.375618 
L 909.654475 423.67264 
L 909.891551 414.407873 
L 910.128627 410.601168 
L 910.365703 410.257037 
L 910.602779 413.211012 
L 910.839855 420.760252 
L 911.076931 440.257202 
L 911.314007 442.15841 
L 911.551083 421.543953 
L 911.788159 413.85501 
L 912.025235 410.888655 
L 912.262311 411.240471 
L 912.499387 415.013385 
L 912.736462 424.047783 
L 912.973538 451.110682 
L 913.44769 419.938708 
L 913.684766 413.533757 
L 913.921842 411.336249 
L 914.158918 412.376275 
L 914.395994 417.026799 
L 914.63307 427.874273 
L 914.870146 474.70266 
L 915.107222 431.414905 
L 915.344298 418.734756 
L 915.581374 413.413284 
L 915.81845 411.932753 
L 916.055525 413.664224 
L 916.292601 419.273663 
L 916.529677 432.435375 
L 916.766753 470.740234 
L 917.003829 428.297 
L 917.240905 417.850985 
L 917.477981 413.47014 
L 917.715057 412.669839 
L 917.952133 415.106776 
L 918.189209 421.786135 
L 918.663361 451.975153 
L 918.900437 425.964755 
L 919.137512 417.230866 
L 919.374588 413.686256 
L 919.611664 413.541562 
L 919.84874 416.709359 
L 920.085816 424.610401 
L 920.322892 445.562043 
L 920.559968 443.381839 
L 920.797044 424.191546 
L 921.03412 416.833424 
L 921.271196 414.047496 
L 921.508272 414.544013 
L 921.745348 418.480671 
L 921.982424 427.814072 
L 922.2195 456.87929 
L 922.693651 422.84016 
L 922.930727 416.628004 
L 923.167803 414.542808 
L 923.404879 415.675195 
L 923.641955 420.433474 
L 923.879031 431.499699 
L 924.116107 483.122389 
L 924.353183 434.244352 
L 924.590259 421.820937 
L 924.827335 416.591147 
L 925.064411 415.163489 
L 925.301487 416.934797 
L 925.538563 422.585653 
L 925.775638 435.831562 
L 926.012714 473.045324 
L 926.24979 431.468636 
L 926.486866 421.072042 
L 926.723942 416.704488 
L 926.961018 415.902738 
L 927.198094 418.324319 
L 927.43517 424.961858 
L 927.909322 455.818082 
L 928.146398 429.361586 
L 928.383474 420.548963 
L 928.62055 416.953429 
L 928.857626 416.75533 
L 929.094701 419.847086 
L 929.331777 427.596354 
L 929.568853 447.850446 
L 929.805929 447.579125 
L 930.043005 427.742072 
L 930.280081 420.218442 
L 930.517157 417.32615 
L 930.754233 417.71729 
L 930.991309 421.50834 
L 931.228385 430.537349 
L 931.465461 457.458821 
L 931.939613 426.496459 
L 932.176689 420.055023 
L 932.413764 417.812972 
L 932.65084 418.78581 
L 932.887916 423.315793 
L 933.124992 433.85467 
L 933.362068 475.148305 
L 933.599144 438.674825 
L 933.83622 425.548434 
L 934.073296 420.038568 
L 934.310372 418.405778 
L 934.547448 419.959001 
L 934.784524 425.279818 
L 935.0216 437.653634 
L 935.258676 493.141692 
L 935.495752 435.942404 
L 935.732827 424.844144 
L 935.969903 420.15285 
L 936.206979 419.097746 
L 936.444055 421.235898 
L 936.681131 427.414434 
L 936.918207 442.102897 
L 937.155283 465.386688 
L 937.392359 433.856017 
L 937.629435 424.343889 
L 937.866511 420.384449 
L 938.103587 419.88291 
L 938.340663 422.616278 
L 938.577739 429.738175 
L 938.814814 447.495813 
L 939.05189 455.283861 
L 939.288966 432.241125 
L 939.526042 424.017457 
L 939.763118 420.722047 
L 940.000194 420.756129 
L 940.23727 424.100823 
L 940.474346 432.276083 
L 940.711422 454.413088 
L 940.948498 449.273965 
L 941.185574 430.987145 
L 941.42265 423.841029 
L 941.659726 421.155786 
L 941.896802 421.712641 
L 942.133877 425.690818 
L 942.370953 435.061871 
L 942.608029 464.281573 
L 943.082181 430.019184 
L 943.319257 423.795289 
L 943.556333 421.676947 
L 943.793409 422.748162 
L 944.030485 427.388621 
L 944.267561 438.142942 
L 944.504637 482.785549 
L 944.741713 442.137148 
L 944.978789 429.283833 
L 945.215865 423.864149 
L 945.45294 422.277548 
L 945.690016 423.858416 
L 945.927092 429.197244 
L 946.164168 441.586698 
L 946.401244 496.782554 
L 946.63832 439.843553 
L 946.875396 428.741307 
L 947.112472 424.03385 
L 947.349548 422.950158 
L 947.586624 425.039389 
L 947.8237 431.120952 
L 948.060776 445.495058 
L 948.297852 471.197386 
L 948.534928 438.064587 
L 948.772003 428.360702 
L 949.009079 424.292129 
L 949.246155 423.687568 
L 949.483231 426.286873 
L 949.720307 433.165148 
L 950.194459 461.421355 
L 950.431535 436.670629 
L 950.668611 428.117275 
L 950.905687 424.628065 
L 951.142763 424.482768 
L 951.379839 427.596583 
L 951.616915 435.336952 
L 951.853991 455.470703 
L 952.091066 455.555299 
L 952.328142 435.575012 
L 952.565218 427.990448 
L 952.802294 425.031355 
L 953.03937 425.328649 
L 953.276446 428.963886 
L 953.513522 437.645437 
L 953.750598 462.366325 
L 953.987674 451.516459 
L 954.22475 434.71651 
L 954.461826 427.962639 
L 954.698902 425.492331 
L 954.935978 426.21804 
L 955.173054 430.383959 
L 955.410129 440.102669 
L 955.647205 472.040704 
L 956.121357 434.049313 
L 956.358433 428.018353 
L 956.595509 426.001517 
L 956.832585 427.143418 
L 957.069661 431.851431 
L 957.306737 442.724392 
L 957.543813 489.487957 
L 957.780889 446.264647 
L 958.017965 433.537957 
L 958.255041 428.143616 
L 958.492116 426.549692 
L 958.729192 428.097164 
L 958.966268 433.360801 
L 959.203344 445.532335 
L 959.44042 510.005923 
L 959.677496 444.476991 
L 959.914572 433.153527 
L 960.151648 428.325402 
L 960.388724 427.127569 
L 960.6258 429.071243 
L 960.862876 434.905928 
L 961.099952 448.556454 
L 961.337028 480.982135 
L 961.574104 443.049402 
L 961.811179 432.872088 
L 962.048255 428.551569 
L 962.285331 427.726021 
L 962.522407 430.057459 
L 962.759483 436.480639 
L 963.233635 470.768955 
L 963.470711 441.893685 
L 963.707787 432.672704 
L 963.944863 428.810401 
L 964.181939 428.335817 
L 964.419015 431.047449 
L 964.656091 438.078574 
L 965.130242 464.709215 
L 965.367318 440.946464 
L 965.604394 432.537004 
L 965.84147 429.090766 
L 966.078546 428.947948 
L 966.315622 432.032907 
L 966.552698 439.693793 
L 966.789774 459.476671 
L 967.02685 460.523738 
L 967.263926 440.159402 
L 967.501002 432.448299 
L 967.738078 429.381872 
L 967.975154 429.553489 
L 968.21223 433.005724 
L 968.449305 441.320948 
L 968.686381 464.093932 
L 968.923457 457.398182 
L 969.160533 439.494193 
L 969.397609 432.391378 
L 969.634685 429.673464 
L 969.871761 430.144008 
L 970.108837 433.958403 
L 970.345913 442.955984 
L 970.582989 469.592787 
L 971.294217 432.352175 
L 971.531293 429.955924 
L 971.768368 430.711637 
L 972.005444 434.884297 
L 972.24252 444.597104 
L 972.479596 476.571964 
L 972.953748 438.408794 
L 973.190824 432.317951 
L 973.4279 430.220207 
L 973.664976 431.249347 
L 973.902052 435.778034 
L 974.139128 446.245285 
L 974.376204 486.548857 
L 974.61328 451.245571 
L 974.850356 437.939403 
L 975.087431 432.276976 
L 975.324507 430.458407 
L 975.561583 431.751319 
L 975.798659 436.63604 
L 976.035735 447.90597 
L 976.272811 505.935244 
L 976.509887 449.770815 
L 976.746963 437.49176 
L 976.984039 432.218884 
L 977.221115 430.663635 
L 977.458191 432.213126 
L 977.695267 437.456744 
L 977.932343 449.590372 
L 978.169418 514.260571 
L 978.406494 448.4464 
L 978.64357 437.04912 
L 978.880646 432.134752 
L 979.117722 430.830468 
L 979.354798 432.63197 
L 979.591874 438.241143 
L 979.82895 451.317058 
L 980.066026 490.541141 
L 980.303102 447.221782 
L 980.540178 436.597273 
L 980.777254 432.017243 
L 981.01433 430.955022 
L 981.251406 433.007055 
L 981.488481 438.993088 
L 981.725557 453.114876 
L 981.725557 453.114876 
" clip-path="url(#p3189316c14)" style="fill: none; stroke: #ff7f0e; stroke-width: 3; stroke-linecap: square"/>
   </g>
   <g id="patch_9">
    <path d="M 733.044763 538.974576 
L 733.044763 11.655929 
" style="fill: none; stroke: #000000; stroke-width: 1.5; stroke-linejoin: miter; stroke-linecap: square"/>
   </g>
   <g id="patch_10">
    <path d="M 993.5675 538.974576 
L 993.5675 11.655929 
" style="fill: none; stroke: #000000; stroke-width: 1.5; stroke-linejoin: miter; stroke-linecap: square"/>
   </g>
   <g id="patch_11">
    <path d="M 733.044763 538.974576 
L 993.5675 538.974576 
" style="fill: none; stroke: #000000; stroke-width: 1.5; stroke-linejoin: miter; stroke-linecap: square"/>
   </g>
   <g id="patch_12">
    <path d="M 733.044763 11.655929 
L 993.5675 11.655929 
" style="fill: none; stroke: #000000; stroke-width: 1.5; stroke-linejoin: miter; stroke-linecap: square"/>
   </g>
   <g id="legend_2">
    <g id="patch_13">
     <path d="M 798.017069 533.974576 
L 928.595194 533.974576 
Q 930.595194 533.974576 930.595194 531.974576 
L 930.595194 488.790201 
Q 930.595194 486.790201 928.595194 486.790201 
L 798.017069 486.790201 
Q 796.017069 486.790201 796.017069 488.790201 
L 796.017069 531.974576 
Q 796.017069 533.974576 798.017069 533.974576 
z
" style="fill: #ffffff; opacity: 0.8; stroke: #cccccc; stroke-linejoin: miter"/>
    </g>
    <g id="line2d_50">
     <path d="M 800.017069 494.849576 
L 810.017069 494.849576 
L 820.017069 494.849576 
" style="fill: none; stroke: #a80000; stroke-width: 3; stroke-linecap: square"/>
    </g>
    <g id="text_29">
     <!-- 16, t=1.0,exponential -->
     <g transform="translate(828.017069 498.349576) scale(0.1 -0.1)">
      <use xlink:href="#Georgia-31"/>
      <use xlink:href="#Georgia-36" x="42.96875"/>
      <use xlink:href="#Georgia-2c" x="99.560547"/>
      <use xlink:href="#Georgia-20" x="126.513672"/>
      <use xlink:href="#Georgia-74" x="150.634766"/>
      <use xlink:href="#Georgia-3d" x="185.15625"/>
      <use xlink:href="#Georgia-31" x="249.462891"/>
      <use xlink:href="#Georgia-2e" x="292.431641"/>
      <use xlink:href="#Georgia-30" x="319.384766"/>
      <use xlink:href="#Georgia-2c" x="380.761719"/>
      <use xlink:href="#Georgia-65" x="407.714844"/>
      <use xlink:href="#Georgia-78" x="456.054688"/>
      <use xlink:href="#Georgia-70" x="506.542969"/>
      <use xlink:href="#Georgia-6f" x="563.671875"/>
      <use xlink:href="#Georgia-6e" x="617.578125"/>
      <use xlink:href="#Georgia-65" x="676.660156"/>
      <use xlink:href="#Georgia-6e" x="725"/>
      <use xlink:href="#Georgia-74" x="784.082031"/>
      <use xlink:href="#Georgia-69" x="818.603516"/>
      <use xlink:href="#Georgia-61" x="847.900391"/>
      <use xlink:href="#Georgia-6c" x="898.291016"/>
     </g>
    </g>
    <g id="line2d_51">
     <path d="M 800.017069 509.577701 
L 810.017069 509.577701 
L 820.017069 509.577701 
" style="fill: none; stroke: #1f77b4; stroke-width: 3; stroke-linecap: square"/>
    </g>
    <g id="text_30">
     <!-- 64, t=1.0,exponential -->
     <g transform="translate(828.017069 513.077701) scale(0.1 -0.1)">
      <use xlink:href="#Georgia-36"/>
      <use xlink:href="#Georgia-34" x="56.591797"/>
      <use xlink:href="#Georgia-2c" x="113.085938"/>
      <use xlink:href="#Georgia-20" x="140.039062"/>
      <use xlink:href="#Georgia-74" x="164.160156"/>
      <use xlink:href="#Georgia-3d" x="198.681641"/>
      <use xlink:href="#Georgia-31" x="262.988281"/>
      <use xlink:href="#Georgia-2e" x="305.957031"/>
      <use xlink:href="#Georgia-30" x="332.910156"/>
      <use xlink:href="#Georgia-2c" x="394.287109"/>
      <use xlink:href="#Georgia-65" x="421.240234"/>
      <use xlink:href="#Georgia-78" x="469.580078"/>
      <use xlink:href="#Georgia-70" x="520.068359"/>
      <use xlink:href="#Georgia-6f" x="577.197266"/>
      <use xlink:href="#Georgia-6e" x="631.103516"/>
      <use xlink:href="#Georgia-65" x="690.185547"/>
      <use xlink:href="#Georgia-6e" x="738.525391"/>
      <use xlink:href="#Georgia-74" x="797.607422"/>
      <use xlink:href="#Georgia-69" x="832.128906"/>
      <use xlink:href="#Georgia-61" x="861.425781"/>
      <use xlink:href="#Georgia-6c" x="911.816406"/>
     </g>
    </g>
    <g id="line2d_52">
     <path d="M 800.017069 524.305826 
L 810.017069 524.305826 
L 820.017069 524.305826 
" style="fill: none; stroke: #ff7f0e; stroke-width: 3; stroke-linecap: square"/>
    </g>
    <g id="text_31">
     <!-- 128, t=1.0,exponential -->
     <g transform="translate(828.017069 527.805826) scale(0.1 -0.1)">
      <use xlink:href="#Georgia-31"/>
      <use xlink:href="#Georgia-32" x="42.96875"/>
      <use xlink:href="#Georgia-38" x="98.828125"/>
      <use xlink:href="#Georgia-2c" x="158.447266"/>
      <use xlink:href="#Georgia-20" x="185.400391"/>
      <use xlink:href="#Georgia-74" x="209.521484"/>
      <use xlink:href="#Georgia-3d" x="244.042969"/>
      <use xlink:href="#Georgia-31" x="308.349609"/>
      <use xlink:href="#Georgia-2e" x="351.318359"/>
      <use xlink:href="#Georgia-30" x="378.271484"/>
      <use xlink:href="#Georgia-2c" x="439.648438"/>
      <use xlink:href="#Georgia-65" x="466.601562"/>
      <use xlink:href="#Georgia-78" x="514.941406"/>
      <use xlink:href="#Georgia-70" x="565.429688"/>
      <use xlink:href="#Georgia-6f" x="622.558594"/>
      <use xlink:href="#Georgia-6e" x="676.464844"/>
      <use xlink:href="#Georgia-65" x="735.546875"/>
      <use xlink:href="#Georgia-6e" x="783.886719"/>
      <use xlink:href="#Georgia-74" x="842.96875"/>
      <use xlink:href="#Georgia-69" x="877.490234"/>
      <use xlink:href="#Georgia-61" x="906.787109"/>
      <use xlink:href="#Georgia-6c" x="957.177734"/>
     </g>
    </g>
   </g>
  </g>
 </g>
 <defs>
  <clipPath id="pe1bd960d3b">
   <rect x="33.4275" y="11.655929" width="651.306842" height="527.318647"/>
  </clipPath>
  <clipPath id="p3189316c14">
   <rect x="733.044763" y="11.655929" width="260.522737" height="527.318647"/>
  </clipPath>
 </defs>
</svg>
