<?xml version="1.0" encoding="utf-8" standalone="no"?>
<!DOCTYPE svg PUBLIC "-//W3C//DTD SVG 1.1//EN"
  "http://www.w3.org/Graphics/SVG/1.1/DTD/svg11.dtd">
<svg xmlns:xlink="http://www.w3.org/1999/xlink" width="1000.84125pt" height="568.871735pt" viewBox="0 0 1000.84125 568.871735" xmlns="http://www.w3.org/2000/svg" version="1.1">
 <metadata>
  <rdf:RDF xmlns:dc="http://purl.org/dc/elements/1.1/" xmlns:cc="http://creativecommons.org/ns#" xmlns:rdf="http://www.w3.org/1999/02/22-rdf-syntax-ns#">
   <cc:Work>
    <dc:type rdf:resource="http://purl.org/dc/dcmitype/StillImage"/>
    <dc:date>2023-11-29T03:17:35.850514</dc:date>
    <dc:format>image/svg+xml</dc:format>
    <dc:creator>
     <cc:Agent>
      <dc:title>Matplotlib v3.6.2, https://matplotlib.org/</dc:title>
     </cc:Agent>
    </dc:creator>
   </cc:Work>
  </rdf:RDF>
 </metadata>
 <defs>
  <style type="text/css">*{stroke-linejoin: round; stroke-linecap: butt}</style>
 </defs>
 <g id="figure_1">
  <g id="patch_1">
   <path d="M 0 568.871735 
L 1000.84125 568.871735 
L 1000.84125 0 
L 0 0 
L 0 568.871735 
z
" style="fill: none"/>
  </g>
  <g id="axes_1">
   <g id="patch_2">
    <path d="M 56.98625 515.650485 
L 673.393092 515.650485 
L 673.393092 12.098212 
L 56.98625 12.098212 
L 56.98625 515.650485 
z
" style="fill: none"/>
   </g>
   <g id="matplotlib.axis_1">
    <g id="xtick_1">
     <g id="line2d_1">
      <path d="M 85.004743 515.650485 
L 85.004743 12.098212 
" clip-path="url(#pef97c4ff19)" style="fill: none; stroke: #b0b0b0; stroke-width: 0.8; stroke-linecap: square"/>
     </g>
     <g id="line2d_2">
      <defs>
       <path id="m2d5402f682" d="M 0 0 
L 0 3.5 
" style="stroke: #000000; stroke-width: 0.8"/>
      </defs>
      <g>
       <use xlink:href="#m2d5402f682" x="85.004743" y="515.650485" style="stroke: #000000; stroke-width: 0.8"/>
      </g>
     </g>
     <g id="text_1">
      <!-- 0 -->
      <g transform="translate(80.094743 534.745485) scale(0.16 -0.16)">
       <defs>
        <path id="Georgia-30" d="M 3209 2919 
Q 3409 2678 3507 2354 
Q 3606 2031 3606 1678 
Q 3606 1253 3484 917 
Q 3363 581 3150 359 
Q 2931 131 2631 15 
Q 2331 -100 1963 -100 
Q 1559 -100 1243 34 
Q 928 169 731 403 
Q 525 647 423 973 
Q 322 1300 322 1678 
Q 322 2050 420 2362 
Q 519 2675 728 2928 
Q 928 3172 1243 3312 
Q 1559 3453 1966 3453 
Q 2394 3453 2700 3309 
Q 3006 3166 3209 2919 
z
M 2916 1678 
Q 2916 2422 2661 2831 
Q 2406 3241 1969 3241 
Q 1525 3241 1269 2831 
Q 1013 2422 1013 1678 
Q 1013 972 1258 542 
Q 1503 113 1963 113 
Q 2422 113 2669 542 
Q 2916 972 2916 1678 
z
" transform="scale(0.015625)"/>
       </defs>
       <use xlink:href="#Georgia-30"/>
      </g>
     </g>
    </g>
    <g id="xtick_2">
     <g id="line2d_3">
      <path d="M 174.190375 515.650485 
L 174.190375 12.098212 
" clip-path="url(#pef97c4ff19)" style="fill: none; stroke: #b0b0b0; stroke-width: 0.8; stroke-linecap: square"/>
     </g>
     <g id="line2d_4">
      <g>
       <use xlink:href="#m2d5402f682" x="174.190375" y="515.650485" style="stroke: #000000; stroke-width: 0.8"/>
      </g>
     </g>
     <g id="text_2">
      <!-- 1 -->
      <g transform="translate(170.752875 534.745485) scale(0.16 -0.16)">
       <defs>
        <path id="Georgia-31" d="M 2528 0 
L 422 0 
L 422 222 
Q 516 228 714 248 
Q 913 269 988 291 
Q 1084 322 1136 392 
Q 1188 463 1188 603 
L 1188 2797 
L 409 2797 
L 409 3059 
L 581 3059 
Q 919 3059 1186 3184 
Q 1453 3309 1569 3453 
L 1828 3453 
Q 1819 3250 1809 2978 
Q 1800 2706 1800 2491 
L 1800 638 
Q 1800 528 1848 442 
Q 1897 356 1988 316 
Q 2069 281 2253 253 
Q 2438 225 2528 222 
L 2528 0 
z
" transform="scale(0.015625)"/>
       </defs>
       <use xlink:href="#Georgia-31"/>
      </g>
     </g>
    </g>
    <g id="xtick_3">
     <g id="line2d_5">
      <path d="M 263.376008 515.650485 
L 263.376008 12.098212 
" clip-path="url(#pef97c4ff19)" style="fill: none; stroke: #b0b0b0; stroke-width: 0.8; stroke-linecap: square"/>
     </g>
     <g id="line2d_6">
      <g>
       <use xlink:href="#m2d5402f682" x="263.376008" y="515.650485" style="stroke: #000000; stroke-width: 0.8"/>
      </g>
     </g>
     <g id="text_3">
      <!-- 2 -->
      <g transform="translate(258.907258 534.745485) scale(0.16 -0.16)">
       <defs>
        <path id="Georgia-32" d="M 3272 0 
L 344 0 
L 344 425 
Q 428 522 578 642 
Q 728 763 934 903 
Q 1059 988 1234 1088 
Q 1409 1188 1631 1306 
Q 1878 1438 2011 1538 
Q 2144 1638 2253 1784 
Q 2325 1881 2369 2026 
Q 2413 2172 2413 2441 
Q 2413 2831 2203 3014 
Q 1994 3197 1666 3197 
Q 1463 3197 1281 3117 
Q 1100 3038 1009 2897 
Q 1031 2797 1064 2659 
Q 1097 2522 1097 2391 
Q 1097 2272 998 2180 
Q 900 2088 706 2088 
Q 550 2088 465 2195 
Q 381 2303 381 2484 
Q 381 2653 475 2823 
Q 569 2994 744 3138 
Q 916 3278 1169 3365 
Q 1422 3453 1716 3453 
Q 2356 3453 2732 3167 
Q 3109 2881 3109 2403 
Q 3109 2175 3042 1987 
Q 2975 1800 2825 1656 
Q 2659 1497 2437 1383 
Q 2216 1269 1759 1066 
Q 1488 944 1253 811 
Q 1019 678 869 553 
L 3272 553 
L 3272 0 
z
" transform="scale(0.015625)"/>
       </defs>
       <use xlink:href="#Georgia-32"/>
      </g>
     </g>
    </g>
    <g id="xtick_4">
     <g id="line2d_7">
      <path d="M 352.561641 515.650485 
L 352.561641 12.098212 
" clip-path="url(#pef97c4ff19)" style="fill: none; stroke: #b0b0b0; stroke-width: 0.8; stroke-linecap: square"/>
     </g>
     <g id="line2d_8">
      <g>
       <use xlink:href="#m2d5402f682" x="352.561641" y="515.650485" style="stroke: #000000; stroke-width: 0.8"/>
      </g>
     </g>
     <g id="text_4">
      <!-- 3 -->
      <g transform="translate(348.147891 534.745485) scale(0.16 -0.16)">
       <defs>
        <path id="Georgia-33" d="M 1522 -1141 
Q 1228 -1141 984 -1067 
Q 741 -994 566 -869 
Q 391 -744 295 -581 
Q 200 -419 200 -247 
Q 200 -94 275 29 
Q 350 153 516 153 
Q 703 153 801 61 
Q 900 -31 900 -150 
Q 900 -250 867 -403 
Q 834 -556 816 -622 
Q 838 -650 895 -697 
Q 953 -744 1038 -781 
Q 1138 -828 1247 -856 
Q 1356 -884 1556 -884 
Q 1744 -884 1917 -821 
Q 2091 -759 2222 -622 
Q 2359 -478 2436 -286 
Q 2513 -94 2513 219 
Q 2513 388 2477 553 
Q 2441 719 2344 841 
Q 2247 963 2080 1030 
Q 1913 1097 1656 1097 
L 1247 1097 
L 1247 1456 
L 1519 1456 
Q 1950 1456 2140 1693 
Q 2331 1931 2331 2409 
Q 2331 2800 2147 2998 
Q 1963 3197 1625 3197 
Q 1463 3197 1358 3158 
Q 1253 3119 1188 3081 
Q 1109 3038 1059 2984 
Q 1009 2931 984 2906 
Q 1006 2806 1037 2661 
Q 1069 2516 1069 2384 
Q 1069 2269 970 2176 
Q 872 2084 681 2084 
Q 516 2084 439 2203 
Q 363 2322 363 2478 
Q 363 2641 453 2809 
Q 544 2978 722 3125 
Q 900 3272 1156 3362 
Q 1413 3453 1747 3453 
Q 2131 3453 2382 3339 
Q 2634 3225 2778 3063 
Q 2919 2903 2972 2728 
Q 3025 2553 3025 2428 
Q 3025 2272 2981 2114 
Q 2938 1956 2838 1822 
Q 2728 1675 2548 1554 
Q 2369 1434 2097 1359 
L 2097 1309 
Q 2272 1294 2470 1231 
Q 2669 1169 2828 1047 
Q 2994 919 3100 717 
Q 3206 516 3206 206 
Q 3206 -394 2725 -767 
Q 2244 -1141 1522 -1141 
z
" transform="scale(0.015625)"/>
       </defs>
       <use xlink:href="#Georgia-33"/>
      </g>
     </g>
    </g>
    <g id="xtick_5">
     <g id="line2d_9">
      <path d="M 441.747273 515.650485 
L 441.747273 12.098212 
" clip-path="url(#pef97c4ff19)" style="fill: none; stroke: #b0b0b0; stroke-width: 0.8; stroke-linecap: square"/>
     </g>
     <g id="line2d_10">
      <g>
       <use xlink:href="#m2d5402f682" x="441.747273" y="515.650485" style="stroke: #000000; stroke-width: 0.8"/>
      </g>
     </g>
     <g id="text_5">
      <!-- 4 -->
      <g transform="translate(437.227273 534.745485) scale(0.16 -0.16)">
       <defs>
        <path id="Georgia-34" d="M 3388 281 
L 2753 281 
L 2753 -1141 
L 2153 -1141 
L 2153 281 
L 153 281 
L 153 763 
L 2344 3434 
L 2753 3434 
L 2753 691 
L 3388 691 
L 3388 281 
z
M 2153 691 
L 2153 2738 
L 466 691 
L 2153 691 
z
" transform="scale(0.015625)"/>
       </defs>
       <use xlink:href="#Georgia-34"/>
      </g>
     </g>
    </g>
    <g id="xtick_6">
     <g id="line2d_11">
      <path d="M 530.932906 515.650485 
L 530.932906 12.098212 
" clip-path="url(#pef97c4ff19)" style="fill: none; stroke: #b0b0b0; stroke-width: 0.8; stroke-linecap: square"/>
     </g>
     <g id="line2d_12">
      <g>
       <use xlink:href="#m2d5402f682" x="530.932906" y="515.650485" style="stroke: #000000; stroke-width: 0.8"/>
      </g>
     </g>
     <g id="text_6">
      <!-- 5 -->
      <g transform="translate(526.706656 534.745485) scale(0.16 -0.16)">
       <defs>
        <path id="Georgia-35" d="M 2634 1466 
Q 2841 1303 2977 1047 
Q 3113 791 3113 406 
Q 3113 -266 2653 -703 
Q 2194 -1141 1488 -1141 
Q 941 -1141 562 -881 
Q 184 -622 184 -278 
Q 184 -119 262 0 
Q 341 119 503 119 
Q 691 119 789 20 
Q 888 -78 888 -194 
Q 888 -294 853 -444 
Q 819 -594 800 -666 
Q 825 -688 881 -725 
Q 938 -763 1016 -797 
Q 1097 -831 1214 -857 
Q 1331 -884 1488 -884 
Q 1688 -884 1866 -803 
Q 2044 -722 2166 -563 
Q 2300 -388 2367 -164 
Q 2434 59 2434 403 
Q 2434 844 2189 1133 
Q 1944 1422 1544 1422 
Q 1294 1422 1076 1328 
Q 859 1234 688 1016 
L 478 1097 
L 744 3353 
L 2981 3353 
L 2981 2797 
L 997 2797 
L 834 1472 
Q 975 1572 1204 1670 
Q 1434 1769 1709 1769 
Q 1938 1769 2183 1698 
Q 2428 1628 2634 1466 
z
" transform="scale(0.015625)"/>
       </defs>
       <use xlink:href="#Georgia-35"/>
      </g>
     </g>
    </g>
    <g id="xtick_7">
     <g id="line2d_13">
      <path d="M 620.118539 515.650485 
L 620.118539 12.098212 
" clip-path="url(#pef97c4ff19)" style="fill: none; stroke: #b0b0b0; stroke-width: 0.8; stroke-linecap: square"/>
     </g>
     <g id="line2d_14">
      <g>
       <use xlink:href="#m2d5402f682" x="620.118539" y="515.650485" style="stroke: #000000; stroke-width: 0.8"/>
      </g>
     </g>
     <g id="text_7">
      <!-- 6 -->
      <g transform="translate(615.591039 534.745485) scale(0.16 -0.16)">
       <defs>
        <path id="Georgia-36" d="M 3359 1441 
Q 3359 1116 3242 831 
Q 3125 547 2928 347 
Q 2700 119 2423 9 
Q 2147 -100 1847 -100 
Q 1500 -100 1219 28 
Q 938 156 741 391 
Q 541 628 431 972 
Q 322 1316 322 1744 
Q 322 2859 986 3625 
Q 1650 4391 2766 4544 
L 2822 4263 
L 2541 4213 
Q 1863 3994 1492 3531 
Q 1122 3069 1013 2409 
Q 1281 2644 1543 2741 
Q 1806 2838 2097 2838 
Q 2619 2838 2989 2438 
Q 3359 2038 3359 1441 
z
M 2681 1356 
Q 2681 1863 2448 2169 
Q 2216 2475 1825 2475 
Q 1591 2475 1389 2387 
Q 1188 2300 1000 2094 
Q 997 2056 990 1920 
Q 984 1784 984 1706 
Q 984 975 1223 561 
Q 1463 147 1853 147 
Q 2225 147 2453 470 
Q 2681 794 2681 1356 
z
" transform="scale(0.015625)"/>
       </defs>
       <use xlink:href="#Georgia-36"/>
      </g>
     </g>
    </g>
    <g id="text_8">
     <!-- $x$ -->
     <g transform="translate(359.189671 557.334235) scale(0.2 -0.2)">
      <defs>
       <path id="DejaVuSans-Oblique-78" d="M 3841 3500 
L 2234 1784 
L 3219 0 
L 2559 0 
L 1819 1388 
L 531 0 
L -166 0 
L 1556 1844 
L 641 3500 
L 1300 3500 
L 1972 2234 
L 3144 3500 
L 3841 3500 
z
" transform="scale(0.015625)"/>
      </defs>
      <use xlink:href="#DejaVuSans-Oblique-78" transform="translate(0 0.3125)"/>
     </g>
    </g>
   </g>
   <g id="matplotlib.axis_2">
    <g id="ytick_1">
     <g id="line2d_15">
      <path d="M 56.98625 512.726971 
L 673.393092 512.726971 
" clip-path="url(#pef97c4ff19)" style="fill: none; stroke: #b0b0b0; stroke-width: 0.8; stroke-linecap: square"/>
     </g>
     <g id="line2d_16">
      <defs>
       <path id="m636f2424b2" d="M 0 0 
L -3.5 0 
" style="stroke: #000000; stroke-width: 0.8"/>
      </defs>
      <g>
       <use xlink:href="#m636f2424b2" x="56.98625" y="512.726971" style="stroke: #000000; stroke-width: 0.8"/>
      </g>
     </g>
     <g id="text_9">
      <!-- −4 -->
      <g transform="translate(30.65625 518.774471) scale(0.16 -0.16)">
       <defs>
        <path id="Georgia-2212" d="M 3650 1553 
L 466 1553 
L 466 1944 
L 3650 1944 
L 3650 1553 
z
" transform="scale(0.015625)"/>
       </defs>
       <use xlink:href="#Georgia-2212"/>
       <use xlink:href="#Georgia-34" x="64.306641"/>
      </g>
     </g>
    </g>
    <g id="ytick_2">
     <g id="line2d_17">
      <path d="M 56.98625 450.292037 
L 673.393092 450.292037 
" clip-path="url(#pef97c4ff19)" style="fill: none; stroke: #b0b0b0; stroke-width: 0.8; stroke-linecap: square"/>
     </g>
     <g id="line2d_18">
      <g>
       <use xlink:href="#m636f2424b2" x="56.98625" y="450.292037" style="stroke: #000000; stroke-width: 0.8"/>
      </g>
     </g>
     <g id="text_10">
      <!-- −3 -->
      <g transform="translate(30.86875 456.339537) scale(0.16 -0.16)">
       <use xlink:href="#Georgia-2212"/>
       <use xlink:href="#Georgia-33" x="64.306641"/>
      </g>
     </g>
    </g>
    <g id="ytick_3">
     <g id="line2d_19">
      <path d="M 56.98625 387.857103 
L 673.393092 387.857103 
" clip-path="url(#pef97c4ff19)" style="fill: none; stroke: #b0b0b0; stroke-width: 0.8; stroke-linecap: square"/>
     </g>
     <g id="line2d_20">
      <g>
       <use xlink:href="#m636f2424b2" x="56.98625" y="387.857103" style="stroke: #000000; stroke-width: 0.8"/>
      </g>
     </g>
     <g id="text_11">
      <!-- −2 -->
      <g transform="translate(30.75875 393.904603) scale(0.16 -0.16)">
       <use xlink:href="#Georgia-2212"/>
       <use xlink:href="#Georgia-32" x="64.306641"/>
      </g>
     </g>
    </g>
    <g id="ytick_4">
     <g id="line2d_21">
      <path d="M 56.98625 325.422169 
L 673.393092 325.422169 
" clip-path="url(#pef97c4ff19)" style="fill: none; stroke: #b0b0b0; stroke-width: 0.8; stroke-linecap: square"/>
     </g>
     <g id="line2d_22">
      <g>
       <use xlink:href="#m636f2424b2" x="56.98625" y="325.422169" style="stroke: #000000; stroke-width: 0.8"/>
      </g>
     </g>
     <g id="text_12">
      <!-- −1 -->
      <g transform="translate(32.82125 331.469669) scale(0.16 -0.16)">
       <use xlink:href="#Georgia-2212"/>
       <use xlink:href="#Georgia-31" x="64.306641"/>
      </g>
     </g>
    </g>
    <g id="ytick_5">
     <g id="line2d_23">
      <path d="M 56.98625 262.987236 
L 673.393092 262.987236 
" clip-path="url(#pef97c4ff19)" style="fill: none; stroke: #b0b0b0; stroke-width: 0.8; stroke-linecap: square"/>
     </g>
     <g id="line2d_24">
      <g>
       <use xlink:href="#m636f2424b2" x="56.98625" y="262.987236" style="stroke: #000000; stroke-width: 0.8"/>
      </g>
     </g>
     <g id="text_13">
      <!-- 0 -->
      <g transform="translate(40.16625 269.034736) scale(0.16 -0.16)">
       <use xlink:href="#Georgia-30"/>
      </g>
     </g>
    </g>
    <g id="ytick_6">
     <g id="line2d_25">
      <path d="M 56.98625 200.552302 
L 673.393092 200.552302 
" clip-path="url(#pef97c4ff19)" style="fill: none; stroke: #b0b0b0; stroke-width: 0.8; stroke-linecap: square"/>
     </g>
     <g id="line2d_26">
      <g>
       <use xlink:href="#m636f2424b2" x="56.98625" y="200.552302" style="stroke: #000000; stroke-width: 0.8"/>
      </g>
     </g>
     <g id="text_14">
      <!-- 1 -->
      <g transform="translate(43.11125 206.599802) scale(0.16 -0.16)">
       <use xlink:href="#Georgia-31"/>
      </g>
     </g>
    </g>
    <g id="ytick_7">
     <g id="line2d_27">
      <path d="M 56.98625 138.117368 
L 673.393092 138.117368 
" clip-path="url(#pef97c4ff19)" style="fill: none; stroke: #b0b0b0; stroke-width: 0.8; stroke-linecap: square"/>
     </g>
     <g id="line2d_28">
      <g>
       <use xlink:href="#m636f2424b2" x="56.98625" y="138.117368" style="stroke: #000000; stroke-width: 0.8"/>
      </g>
     </g>
     <g id="text_15">
      <!-- 2 -->
      <g transform="translate(41.04875 144.164868) scale(0.16 -0.16)">
       <use xlink:href="#Georgia-32"/>
      </g>
     </g>
    </g>
    <g id="ytick_8">
     <g id="line2d_29">
      <path d="M 56.98625 75.682434 
L 673.393092 75.682434 
" clip-path="url(#pef97c4ff19)" style="fill: none; stroke: #b0b0b0; stroke-width: 0.8; stroke-linecap: square"/>
     </g>
     <g id="line2d_30">
      <g>
       <use xlink:href="#m636f2424b2" x="56.98625" y="75.682434" style="stroke: #000000; stroke-width: 0.8"/>
      </g>
     </g>
     <g id="text_16">
      <!-- 3 -->
      <g transform="translate(41.15875 81.729934) scale(0.16 -0.16)">
       <use xlink:href="#Georgia-33"/>
      </g>
     </g>
    </g>
    <g id="ytick_9">
     <g id="line2d_31">
      <path d="M 56.98625 13.2475 
L 673.393092 13.2475 
" clip-path="url(#pef97c4ff19)" style="fill: none; stroke: #b0b0b0; stroke-width: 0.8; stroke-linecap: square"/>
     </g>
     <g id="line2d_32">
      <g>
       <use xlink:href="#m636f2424b2" x="56.98625" y="13.2475" style="stroke: #000000; stroke-width: 0.8"/>
      </g>
     </g>
     <g id="text_17">
      <!-- 4 -->
      <g transform="translate(40.94625 19.295) scale(0.16 -0.16)">
       <use xlink:href="#Georgia-34"/>
      </g>
     </g>
    </g>
    <g id="text_18">
     <!-- $y$ -->
     <g transform="translate(22.31875 269.874349) rotate(-90) scale(0.2 -0.2)">
      <defs>
       <path id="DejaVuSans-Oblique-79" d="M 1588 -325 
Q 1188 -997 936 -1164 
Q 684 -1331 294 -1331 
L -159 -1331 
L -63 -850 
L 269 -850 
Q 509 -850 678 -719 
Q 847 -588 1056 -206 
L 1234 128 
L 459 3500 
L 1069 3500 
L 1650 819 
L 3256 3500 
L 3859 3500 
L 1588 -325 
z
" transform="scale(0.015625)"/>
      </defs>
      <use xlink:href="#DejaVuSans-Oblique-79" transform="translate(0 0.3125)"/>
     </g>
    </g>
   </g>
   <g id="line2d_33">
    <path d="M 85.004743 262.987236 
L 364.909206 67.038447 
L 365.470137 458.936024 
L 645.3746 262.987236 
L 645.3746 262.987236 
" clip-path="url(#pef97c4ff19)" style="fill: none; stroke: #000000; stroke-linecap: square"/>
   </g>
   <g id="line2d_34">
    <path d="M 85.004743 262.79492 
L 93.979635 257.072531 
L 98.467082 253.93105 
L 102.954528 250.508558 
L 108.002905 246.356155 
L 120.904313 235.558608 
L 124.830829 232.694406 
L 128.196413 230.530565 
L 131.561998 228.65824 
L 134.927583 227.06384 
L 138.854098 225.487663 
L 151.194576 220.817614 
L 153.99923 219.383179 
L 156.803884 217.670134 
L 159.608538 215.635202 
L 162.413192 213.255335 
L 165.217845 210.530872 
L 168.022499 207.487157 
L 171.388084 203.485684 
L 176.436461 197.054125 
L 182.045769 189.953868 
L 185.411354 186.077827 
L 188.216008 183.231451 
L 190.459731 181.26838 
L 192.703454 179.620495 
L 194.947177 178.308372 
L 196.62997 177.549392 
L 198.312762 176.981163 
L 199.995554 176.596595 
L 202.239277 176.348455 
L 204.483001 176.364679 
L 206.726724 176.591198 
L 210.092308 177.178583 
L 215.140686 178.089741 
L 217.384409 178.287993 
L 219.628132 178.239892 
L 221.310924 177.995493 
L 222.993717 177.540025 
L 224.676509 176.848443 
L 226.359301 175.900364 
L 228.042094 174.680723 
L 229.724886 173.180308 
L 231.407678 171.396191 
L 233.090471 169.332013 
L 235.334194 166.163007 
L 237.577917 162.55838 
L 240.382571 157.538474 
L 243.748156 150.982976 
L 251.601187 135.440616 
L 253.84491 131.485722 
L 256.088633 127.966149 
L 257.771425 125.675507 
L 259.454218 123.726783 
L 261.13701 122.151582 
L 262.819802 120.974144 
L 263.941664 120.418448 
L 265.063526 120.049438 
L 266.185387 119.867876 
L 267.307249 119.872645 
L 268.42911 120.060713 
L 269.550972 120.427111 
L 270.672833 120.964935 
L 272.355626 122.073281 
L 274.038418 123.509399 
L 275.721211 125.226606 
L 277.964934 127.85724 
L 281.330518 132.220259 
L 285.257034 137.237057 
L 287.500757 139.703028 
L 289.183549 141.216503 
L 290.866342 142.356941 
L 291.988203 142.874427 
L 293.110065 143.174546 
L 294.231927 143.239148 
L 295.353788 143.051805 
L 296.47565 142.598019 
L 297.597511 141.865408 
L 298.719373 140.843893 
L 299.841234 139.525856 
L 300.963096 137.906288 
L 302.084958 135.982915 
L 303.76775 132.530258 
L 305.450542 128.410317 
L 307.133335 123.652608 
L 308.816127 118.30198 
L 311.05985 110.351398 
L 313.864504 99.365948 
L 317.79102 82.864405 
L 322.278466 64.209556 
L 324.522189 55.734724 
L 326.204981 50.031205 
L 327.887774 45.046622 
L 329.570566 40.920754 
L 330.692428 38.713563 
L 331.814289 36.985186 
L 332.936151 35.771219 
L 333.497082 35.367645 
L 334.058012 35.10497 
L 334.618943 34.986952 
L 335.179874 35.017175 
L 335.740805 35.199034 
L 336.301736 35.535734 
L 336.862666 36.030278 
L 337.984528 37.503868 
L 339.10639 39.639568 
L 340.228251 42.453523 
L 341.350113 45.958096 
L 342.471974 50.161719 
L 343.593836 55.068776 
L 345.276628 63.747709 
L 346.959421 73.992097 
L 348.642213 85.763753 
L 350.325005 99.003361 
L 352.568728 118.798721 
L 354.812452 140.816293 
L 357.617106 171.001678 
L 360.98269 210.20309 
L 366.591998 279.143665 
L 371.079444 333.550257 
L 374.445029 371.627703 
L 377.249683 400.500368 
L 379.493406 421.254886 
L 381.737129 439.629019 
L 383.419922 451.718155 
L 385.102714 462.282897 
L 386.785507 471.278947 
L 388.468299 478.683427 
L 389.59016 482.73394 
L 390.712022 486.080775 
L 391.833884 488.732781 
L 392.955745 490.702758 
L 394.077607 492.007318 
L 394.638538 492.416258 
L 395.199468 492.666711 
L 395.760399 492.761745 
L 396.32133 492.704629 
L 396.882261 492.498827 
L 397.443191 492.147989 
L 398.565053 491.026688 
L 399.686915 489.373349 
L 400.808776 487.223038 
L 401.930638 484.612977 
L 403.61343 479.921757 
L 405.296222 474.422394 
L 407.539946 466.081034 
L 410.3446 454.520856 
L 419.319492 416.32692 
L 421.563215 408.004395 
L 423.806938 400.625107 
L 425.489731 395.8013 
L 427.172523 391.638122 
L 428.855316 388.164998 
L 429.977177 386.240456 
L 431.099039 384.629496 
L 432.2209 383.329601 
L 433.342762 382.335468 
L 434.464623 381.639128 
L 435.586485 381.230097 
L 436.708347 381.095544 
L 437.830208 381.220467 
L 438.95207 381.587893 
L 440.073931 382.179088 
L 441.195793 382.973772 
L 442.878585 384.499793 
L 444.561378 386.357612 
L 446.805101 389.210728 
L 451.292547 395.471838 
L 454.097201 399.215496 
L 456.340924 401.841866 
L 458.023717 403.499953 
L 459.706509 404.832955 
L 461.389301 405.798511 
L 462.511163 406.221508 
L 463.633024 406.459201 
L 464.754886 406.506344 
L 465.876748 406.359682 
L 466.998609 406.017943 
L 468.120471 405.481795 
L 469.242332 404.753795 
L 470.925125 403.312116 
L 472.607917 401.470983 
L 474.290709 399.260322 
L 475.973502 396.717088 
L 478.217225 392.883694 
L 481.021879 387.544173 
L 484.948394 379.488001 
L 489.996771 369.142381 
L 492.801425 363.851869 
L 495.045148 360.01983 
L 497.288872 356.623578 
L 499.532595 353.715032 
L 501.215387 351.872644 
L 502.89818 350.326577 
L 504.580972 349.074563 
L 506.263764 348.107771 
L 507.946557 347.411222 
L 509.629349 346.964341 
L 511.312141 346.741607 
L 512.994934 346.713298 
L 515.238657 346.920396 
L 518.043311 347.4522 
L 525.896342 349.143807 
L 528.140065 349.326673 
L 530.383788 349.251359 
L 532.06658 348.996069 
L 533.749373 348.553488 
L 535.432165 347.913681 
L 537.114958 347.071649 
L 538.79775 346.02727 
L 541.041473 344.328592 
L 543.285196 342.301874 
L 545.528919 339.982517 
L 548.333573 336.742277 
L 551.699158 332.495805 
L 562.356843 318.700334 
L 565.161497 315.490947 
L 567.966151 312.604998 
L 570.770805 310.078635 
L 573.014528 308.323875 
L 575.258251 306.799189 
L 578.062905 305.191093 
L 580.867559 303.866315 
L 584.233144 302.557557 
L 589.281521 300.892951 
L 594.329898 299.185098 
L 597.695483 297.830116 
L 601.061067 296.20745 
L 603.865721 294.619812 
L 607.231306 292.425956 
L 610.596891 289.942013 
L 614.523406 286.751017 
L 620.693645 281.384818 
L 627.985745 275.105873 
L 632.473191 271.539785 
L 636.960638 268.275227 
L 642.009015 264.917702 
L 645.3746 262.79492 
L 645.3746 262.79492 
" clip-path="url(#pef97c4ff19)" style="fill: none; stroke: #a80000; stroke-width: 3; stroke-linecap: square"/>
   </g>
   <g id="line2d_35">
    <path d="M 102.516301 254.115456 
L 137.539417 227.35152 
L 172.562533 201.583534 
L 207.585649 176.702045 
L 242.608765 152.597602 
L 277.631881 129.160754 
L 312.654997 106.282048 
L 347.678113 83.852033 
L 382.701229 441.864194 
L 417.724345 419.484621 
L 452.747461 396.70462 
L 487.770577 373.369563 
L 522.793693 349.324822 
L 557.816809 324.415767 
L 592.839925 298.48777 
L 627.863042 271.386202 
" clip-path="url(#pef97c4ff19)" style="fill: none; stroke: #1f77b4; stroke-width: 3; stroke-linecap: square"/>
   </g>
   <g id="patch_3">
    <path d="M 56.98625 515.650485 
L 56.98625 12.098212 
" style="fill: none; stroke: #000000; stroke-width: 1.5; stroke-linejoin: miter; stroke-linecap: square"/>
   </g>
   <g id="patch_4">
    <path d="M 673.393092 515.650485 
L 673.393092 12.098212 
" style="fill: none; stroke: #000000; stroke-width: 1.5; stroke-linejoin: miter; stroke-linecap: square"/>
   </g>
   <g id="patch_5">
    <path d="M 56.98625 515.650485 
L 673.393092 515.650485 
" style="fill: none; stroke: #000000; stroke-width: 1.5; stroke-linejoin: miter; stroke-linecap: square"/>
   </g>
   <g id="patch_6">
    <path d="M 56.98625 12.098212 
L 673.393092 12.098212 
" style="fill: none; stroke: #000000; stroke-width: 1.5; stroke-linejoin: miter; stroke-linecap: square"/>
   </g>
   <g id="legend_1">
    <g id="patch_7">
     <path d="M 577.836842 64.282587 
L 666.393092 64.282587 
Q 668.393092 64.282587 668.393092 62.282587 
L 668.393092 19.098212 
Q 668.393092 17.098212 666.393092 17.098212 
L 577.836842 17.098212 
Q 575.836842 17.098212 575.836842 19.098212 
L 575.836842 62.282587 
Q 575.836842 64.282587 577.836842 64.282587 
z
" style="fill: #ffffff; opacity: 0.8; stroke: #cccccc; stroke-linejoin: miter"/>
    </g>
    <g id="line2d_36">
     <path d="M 579.836842 25.157587 
L 589.836842 25.157587 
L 599.836842 25.157587 
" style="fill: none; stroke: #000000; stroke-linecap: square"/>
    </g>
    <g id="text_19">
     <!-- Init -->
     <g transform="translate(607.836842 28.657587) scale(0.1 -0.1)">
      <defs>
       <path id="Georgia-49" d="M 2244 0 
L 247 0 
L 247 222 
Q 331 228 490 240 
Q 650 253 716 278 
Q 819 319 866 389 
Q 913 459 913 584 
L 913 3797 
Q 913 3906 878 3979 
Q 844 4053 716 4103 
Q 622 4141 480 4173 
Q 338 4206 247 4213 
L 247 4434 
L 2244 4434 
L 2244 4213 
Q 2147 4209 2012 4189 
Q 1878 4169 1778 4138 
Q 1659 4100 1618 4015 
Q 1578 3931 1578 3828 
L 1578 619 
Q 1578 516 1623 436 
Q 1669 356 1778 309 
Q 1844 284 1992 254 
Q 2141 225 2244 222 
L 2244 0 
z
" transform="scale(0.015625)"/>
       <path id="Georgia-6e" d="M 3628 0 
L 2119 0 
L 2119 206 
Q 2191 213 2277 219 
Q 2363 225 2419 244 
Q 2506 272 2548 342 
Q 2591 413 2591 525 
L 2591 2109 
Q 2591 2438 2436 2616 
Q 2281 2794 2059 2794 
Q 1894 2794 1756 2742 
Q 1619 2691 1513 2616 
Q 1409 2544 1348 2461 
Q 1288 2378 1259 2328 
L 1259 556 
Q 1259 450 1303 381 
Q 1347 313 1434 275 
Q 1500 244 1576 228 
Q 1653 213 1734 206 
L 1734 0 
L 225 0 
L 225 206 
Q 297 213 373 219 
Q 450 225 506 244 
Q 594 272 636 342 
Q 678 413 678 525 
L 678 2428 
Q 678 2534 633 2623 
Q 588 2713 506 2769 
Q 447 2806 365 2823 
Q 284 2841 191 2847 
L 191 3050 
L 1216 3119 
L 1259 3075 
L 1259 2641 
L 1275 2641 
Q 1350 2716 1462 2820 
Q 1575 2925 1675 2991 
Q 1791 3066 1950 3116 
Q 2109 3166 2309 3166 
Q 2753 3166 2967 2889 
Q 3181 2613 3181 2153 
L 3181 550 
Q 3181 441 3218 373 
Q 3256 306 3347 269 
Q 3422 238 3476 225 
Q 3531 213 3628 206 
L 3628 0 
z
" transform="scale(0.015625)"/>
       <path id="Georgia-69" d="M 1722 0 
L 231 0 
L 231 206 
Q 303 213 379 219 
Q 456 225 513 244 
Q 600 272 642 342 
Q 684 413 684 525 
L 684 2428 
Q 684 2528 639 2611 
Q 594 2694 513 2750 
Q 453 2788 340 2814 
Q 228 2841 134 2847 
L 134 3050 
L 1222 3119 
L 1266 3075 
L 1266 563 
Q 1266 453 1308 381 
Q 1350 309 1441 275 
Q 1509 247 1575 230 
Q 1641 213 1722 206 
L 1722 0 
z
M 1328 4334 
Q 1328 4156 1211 4023 
Q 1094 3891 922 3891 
Q 763 3891 645 4017 
Q 528 4144 528 4306 
Q 528 4478 645 4606 
Q 763 4734 922 4734 
Q 1100 4734 1214 4614 
Q 1328 4494 1328 4334 
z
" transform="scale(0.015625)"/>
       <path id="Georgia-74" d="M 2128 134 
Q 1925 50 1744 -8 
Q 1563 -66 1300 -66 
Q 913 -66 755 129 
Q 597 325 597 681 
L 597 2769 
L 41 2769 
L 41 3069 
L 609 3069 
L 609 4028 
L 1178 4028 
L 1178 3069 
L 2063 3069 
L 2063 2769 
L 1184 2769 
L 1184 1047 
Q 1184 853 1198 723 
Q 1213 594 1266 497 
Q 1316 406 1416 359 
Q 1516 313 1684 313 
Q 1763 313 1914 327 
Q 2066 341 2128 363 
L 2128 134 
z
" transform="scale(0.015625)"/>
      </defs>
      <use xlink:href="#Georgia-49"/>
      <use xlink:href="#Georgia-6e" x="38.964844"/>
      <use xlink:href="#Georgia-69" x="98.046875"/>
      <use xlink:href="#Georgia-74" x="127.34375"/>
     </g>
    </g>
    <g id="line2d_37">
     <path d="M 579.836842 39.885712 
L 589.836842 39.885712 
L 599.836842 39.885712 
" style="fill: none; stroke: #a80000; stroke-width: 3; stroke-linecap: square"/>
    </g>
    <g id="text_20">
     <!-- 16, t=1.0 -->
     <g transform="translate(607.836842 43.385712) scale(0.1 -0.1)">
      <defs>
       <path id="Georgia-2c" d="M 1341 109 
Q 1341 -116 1239 -316 
Q 1138 -516 1006 -659 
Q 872 -809 722 -925 
Q 572 -1041 447 -1106 
L 303 -897 
Q 453 -803 572 -709 
Q 691 -616 766 -522 
Q 859 -413 925 -284 
Q 991 -156 1009 6 
L 850 6 
Q 641 6 523 115 
Q 406 225 406 409 
Q 406 541 512 664 
Q 619 788 803 788 
Q 1072 788 1206 608 
Q 1341 428 1341 109 
z
" transform="scale(0.015625)"/>
       <path id="Georgia-20" transform="scale(0.015625)"/>
       <path id="Georgia-3d" d="M 3634 2134 
L 481 2134 
L 481 2525 
L 3634 2525 
L 3634 2134 
z
M 3634 972 
L 481 972 
L 481 1363 
L 3634 1363 
L 3634 972 
z
" transform="scale(0.015625)"/>
       <path id="Georgia-2e" d="M 1297 359 
Q 1297 184 1170 60 
Q 1044 -63 869 -63 
Q 694 -63 567 60 
Q 441 184 441 359 
Q 441 534 567 661 
Q 694 788 869 788 
Q 1044 788 1170 661 
Q 1297 534 1297 359 
z
" transform="scale(0.015625)"/>
      </defs>
      <use xlink:href="#Georgia-31"/>
      <use xlink:href="#Georgia-36" x="42.96875"/>
      <use xlink:href="#Georgia-2c" x="99.560547"/>
      <use xlink:href="#Georgia-20" x="126.513672"/>
      <use xlink:href="#Georgia-74" x="150.634766"/>
      <use xlink:href="#Georgia-3d" x="185.15625"/>
      <use xlink:href="#Georgia-31" x="249.462891"/>
      <use xlink:href="#Georgia-2e" x="292.431641"/>
      <use xlink:href="#Georgia-30" x="319.384766"/>
     </g>
    </g>
    <g id="line2d_38">
     <path d="M 579.836842 54.613837 
L 589.836842 54.613837 
L 599.836842 54.613837 
" style="fill: none; stroke: #1f77b4; stroke-width: 3; stroke-linecap: square"/>
    </g>
    <g id="text_21">
     <!-- 16, t=1.0,ggb -->
     <g transform="translate(607.836842 58.113837) scale(0.1 -0.1)">
      <defs>
       <path id="Georgia-67" d="M 2866 319 
Q 2991 200 3062 50 
Q 3134 -100 3134 -322 
Q 3134 -544 3037 -739 
Q 2941 -934 2744 -1078 
Q 2534 -1225 2243 -1306 
Q 1953 -1388 1525 -1388 
Q 825 -1388 478 -1183 
Q 131 -978 131 -584 
Q 131 -266 381 -81 
Q 631 103 1019 119 
L 1019 163 
Q 925 191 825 233 
Q 725 275 653 331 
Q 572 397 522 486 
Q 472 575 472 706 
Q 472 872 589 1011 
Q 706 1150 944 1250 
L 944 1297 
Q 644 1438 478 1658 
Q 313 1878 313 2169 
Q 313 2606 639 2887 
Q 966 3169 1475 3169 
Q 1616 3169 1755 3141 
Q 1894 3113 2038 3069 
L 3113 3069 
L 3113 2769 
L 2388 2769 
L 2388 2750 
Q 2503 2616 2559 2453 
Q 2616 2291 2616 2134 
Q 2616 1728 2286 1447 
Q 1956 1166 1519 1166 
L 1141 1166 
Q 1069 1141 991 1075 
Q 913 1009 913 897 
Q 913 781 978 720 
Q 1044 659 1138 638 
Q 1228 613 1348 606 
Q 1469 600 1597 597 
Q 1734 594 1973 578 
Q 2213 563 2313 559 
Q 2456 553 2601 490 
Q 2747 428 2866 319 
z
M 2022 2147 
Q 2022 2513 1873 2730 
Q 1725 2947 1456 2947 
Q 1309 2947 1204 2886 
Q 1100 2825 1034 2713 
Q 972 2609 945 2464 
Q 919 2319 919 2166 
Q 919 1819 1070 1600 
Q 1222 1381 1463 1381 
Q 1731 1381 1876 1598 
Q 2022 1816 2022 2147 
z
M 2622 -438 
Q 2622 -263 2540 -150 
Q 2459 -38 2294 3 
Q 2206 16 1934 31 
Q 1663 47 1303 47 
Q 966 -19 823 -173 
Q 681 -328 681 -572 
Q 681 -681 728 -781 
Q 775 -881 891 -966 
Q 1000 -1047 1184 -1098 
Q 1369 -1150 1634 -1150 
Q 2094 -1150 2358 -973 
Q 2622 -797 2622 -438 
z
" transform="scale(0.015625)"/>
       <path id="Georgia-62" d="M 3353 1544 
Q 3353 850 2915 378 
Q 2478 -94 1900 -94 
Q 1647 -94 1401 -15 
Q 1156 63 941 194 
L 709 -166 
L 516 -122 
Q 531 109 537 434 
Q 544 759 544 1063 
L 544 4113 
Q 544 4219 495 4325 
Q 447 4431 372 4478 
Q 313 4519 173 4539 
Q 34 4559 -50 4566 
L -50 4766 
L 1081 4838 
L 1125 4791 
L 1125 2759 
L 1147 2753 
Q 1341 2959 1570 3062 
Q 1800 3166 2022 3166 
Q 2591 3166 2972 2716 
Q 3353 2266 3353 1544 
z
M 2700 1522 
Q 2700 1753 2650 1993 
Q 2600 2234 2494 2413 
Q 2388 2594 2216 2706 
Q 2044 2819 1803 2819 
Q 1584 2819 1420 2733 
Q 1256 2647 1125 2500 
L 1125 706 
Q 1144 631 1198 531 
Q 1253 431 1347 341 
Q 1441 253 1559 198 
Q 1678 144 1850 144 
Q 2231 144 2465 512 
Q 2700 881 2700 1522 
z
" transform="scale(0.015625)"/>
      </defs>
      <use xlink:href="#Georgia-31"/>
      <use xlink:href="#Georgia-36" x="42.96875"/>
      <use xlink:href="#Georgia-2c" x="99.560547"/>
      <use xlink:href="#Georgia-20" x="126.513672"/>
      <use xlink:href="#Georgia-74" x="150.634766"/>
      <use xlink:href="#Georgia-3d" x="185.15625"/>
      <use xlink:href="#Georgia-31" x="249.462891"/>
      <use xlink:href="#Georgia-2e" x="292.431641"/>
      <use xlink:href="#Georgia-30" x="319.384766"/>
      <use xlink:href="#Georgia-2c" x="380.761719"/>
      <use xlink:href="#Georgia-67" x="407.714844"/>
      <use xlink:href="#Georgia-67" x="458.642578"/>
      <use xlink:href="#Georgia-62" x="509.570312"/>
     </g>
    </g>
   </g>
  </g>
  <g id="axes_2">
   <g id="patch_8">
    <path d="M 747.078513 515.650485 
L 993.64125 515.650485 
L 993.64125 12.098212 
L 747.078513 12.098212 
L 747.078513 515.650485 
z
" style="fill: none"/>
   </g>
   <g id="matplotlib.axis_3">
    <g id="xtick_8">
     <g id="line2d_39">
      <path d="M 758.28591 515.650485 
L 758.28591 12.098212 
" clip-path="url(#p70b2b7b184)" style="fill: none; stroke: #b0b0b0; stroke-width: 0.8; stroke-linecap: square"/>
     </g>
     <g id="line2d_40">
      <g>
       <use xlink:href="#m2d5402f682" x="758.28591" y="515.650485" style="stroke: #000000; stroke-width: 0.8"/>
      </g>
     </g>
     <g id="text_22">
      <!-- 0 -->
      <g transform="translate(753.37591 534.745485) scale(0.16 -0.16)">
       <use xlink:href="#Georgia-30"/>
      </g>
     </g>
    </g>
    <g id="xtick_9">
     <g id="line2d_41">
      <path d="M 829.634416 515.650485 
L 829.634416 12.098212 
" clip-path="url(#p70b2b7b184)" style="fill: none; stroke: #b0b0b0; stroke-width: 0.8; stroke-linecap: square"/>
     </g>
     <g id="line2d_42">
      <g>
       <use xlink:href="#m2d5402f682" x="829.634416" y="515.650485" style="stroke: #000000; stroke-width: 0.8"/>
      </g>
     </g>
     <g id="text_23">
      <!-- 2 -->
      <g transform="translate(825.165666 534.745485) scale(0.16 -0.16)">
       <use xlink:href="#Georgia-32"/>
      </g>
     </g>
    </g>
    <g id="xtick_10">
     <g id="line2d_43">
      <path d="M 900.982922 515.650485 
L 900.982922 12.098212 
" clip-path="url(#p70b2b7b184)" style="fill: none; stroke: #b0b0b0; stroke-width: 0.8; stroke-linecap: square"/>
     </g>
     <g id="line2d_44">
      <g>
       <use xlink:href="#m2d5402f682" x="900.982922" y="515.650485" style="stroke: #000000; stroke-width: 0.8"/>
      </g>
     </g>
     <g id="text_24">
      <!-- 4 -->
      <g transform="translate(896.462922 534.745485) scale(0.16 -0.16)">
       <use xlink:href="#Georgia-34"/>
      </g>
     </g>
    </g>
    <g id="xtick_11">
     <g id="line2d_45">
      <path d="M 972.331429 515.650485 
L 972.331429 12.098212 
" clip-path="url(#p70b2b7b184)" style="fill: none; stroke: #b0b0b0; stroke-width: 0.8; stroke-linecap: square"/>
     </g>
     <g id="line2d_46">
      <g>
       <use xlink:href="#m2d5402f682" x="972.331429" y="515.650485" style="stroke: #000000; stroke-width: 0.8"/>
      </g>
     </g>
     <g id="text_25">
      <!-- 6 -->
      <g transform="translate(967.803929 534.745485) scale(0.16 -0.16)">
       <use xlink:href="#Georgia-36"/>
      </g>
     </g>
    </g>
    <g id="text_26">
     <!-- $x$ -->
     <g transform="translate(864.359882 557.334235) scale(0.2 -0.2)">
      <use xlink:href="#DejaVuSans-Oblique-78" transform="translate(0 0.3125)"/>
     </g>
    </g>
   </g>
   <g id="matplotlib.axis_4">
    <g id="ytick_10">
     <g id="line2d_47">
      <path d="M 747.078513 477.972688 
L 993.64125 477.972688 
" clip-path="url(#p70b2b7b184)" style="fill: none; stroke: #b0b0b0; stroke-width: 0.8; stroke-linecap: square"/>
     </g>
     <g id="line2d_48">
      <g>
       <use xlink:href="#m636f2424b2" x="747.078513" y="477.972688" style="stroke: #000000; stroke-width: 0.8"/>
      </g>
     </g>
     <g id="text_27">
      <!-- $\mathdefault{10^{-4}}$ -->
      <g transform="translate(709.198513 484.020188) scale(0.16 -0.16)">
       <use xlink:href="#Georgia-31" transform="translate(0 0.742188)"/>
       <use xlink:href="#Georgia-30" transform="translate(42.96875 0.742188)"/>
       <use xlink:href="#Georgia-2212" transform="translate(105.188164 34.440625) scale(0.7)"/>
       <use xlink:href="#Georgia-34" transform="translate(150.202812 34.440625) scale(0.7)"/>
      </g>
     </g>
    </g>
    <g id="ytick_11">
     <g id="line2d_49">
      <path d="M 747.078513 379.348785 
L 993.64125 379.348785 
" clip-path="url(#p70b2b7b184)" style="fill: none; stroke: #b0b0b0; stroke-width: 0.8; stroke-linecap: square"/>
     </g>
     <g id="line2d_50">
      <g>
       <use xlink:href="#m636f2424b2" x="747.078513" y="379.348785" style="stroke: #000000; stroke-width: 0.8"/>
      </g>
     </g>
     <g id="text_28">
      <!-- $\mathdefault{10^{-3}}$ -->
      <g transform="translate(709.358513 385.396285) scale(0.16 -0.16)">
       <use xlink:href="#Georgia-31" transform="translate(0 0.534375)"/>
       <use xlink:href="#Georgia-30" transform="translate(42.96875 0.534375)"/>
       <use xlink:href="#Georgia-2212" transform="translate(105.188164 34.232813) scale(0.7)"/>
       <use xlink:href="#Georgia-33" transform="translate(150.202812 34.232813) scale(0.7)"/>
      </g>
     </g>
    </g>
    <g id="ytick_12">
     <g id="line2d_51">
      <path d="M 747.078513 280.724881 
L 993.64125 280.724881 
" clip-path="url(#p70b2b7b184)" style="fill: none; stroke: #b0b0b0; stroke-width: 0.8; stroke-linecap: square"/>
     </g>
     <g id="line2d_52">
      <g>
       <use xlink:href="#m636f2424b2" x="747.078513" y="280.724881" style="stroke: #000000; stroke-width: 0.8"/>
      </g>
     </g>
     <g id="text_29">
      <!-- $\mathdefault{10^{-2}}$ -->
      <g transform="translate(709.358513 286.772381) scale(0.16 -0.16)">
       <use xlink:href="#Georgia-31" transform="translate(0 0.534375)"/>
       <use xlink:href="#Georgia-30" transform="translate(42.96875 0.534375)"/>
       <use xlink:href="#Georgia-2212" transform="translate(105.188164 34.232813) scale(0.7)"/>
       <use xlink:href="#Georgia-32" transform="translate(150.202812 34.232813) scale(0.7)"/>
      </g>
     </g>
    </g>
    <g id="ytick_13">
     <g id="line2d_53">
      <path d="M 747.078513 182.100978 
L 993.64125 182.100978 
" clip-path="url(#p70b2b7b184)" style="fill: none; stroke: #b0b0b0; stroke-width: 0.8; stroke-linecap: square"/>
     </g>
     <g id="line2d_54">
      <g>
       <use xlink:href="#m636f2424b2" x="747.078513" y="182.100978" style="stroke: #000000; stroke-width: 0.8"/>
      </g>
     </g>
     <g id="text_30">
      <!-- $\mathdefault{10^{-1}}$ -->
      <g transform="translate(710.798513 188.148478) scale(0.16 -0.16)">
       <use xlink:href="#Georgia-31" transform="translate(0 0.534375)"/>
       <use xlink:href="#Georgia-30" transform="translate(42.96875 0.534375)"/>
       <use xlink:href="#Georgia-2212" transform="translate(105.188164 34.232813) scale(0.7)"/>
       <use xlink:href="#Georgia-31" transform="translate(150.202812 34.232813) scale(0.7)"/>
      </g>
     </g>
    </g>
    <g id="ytick_14">
     <g id="line2d_55">
      <path d="M 747.078513 83.477075 
L 993.64125 83.477075 
" clip-path="url(#p70b2b7b184)" style="fill: none; stroke: #b0b0b0; stroke-width: 0.8; stroke-linecap: square"/>
     </g>
     <g id="line2d_56">
      <g>
       <use xlink:href="#m636f2424b2" x="747.078513" y="83.477075" style="stroke: #000000; stroke-width: 0.8"/>
      </g>
     </g>
     <g id="text_31">
      <!-- $\mathdefault{10^{0}}$ -->
      <g transform="translate(715.918513 89.524575) scale(0.16 -0.16)">
       <use xlink:href="#Georgia-31" transform="translate(0 0.534375)"/>
       <use xlink:href="#Georgia-30" transform="translate(42.96875 0.534375)"/>
       <use xlink:href="#Georgia-30" transform="translate(105.188164 34.232813) scale(0.7)"/>
      </g>
     </g>
    </g>
    <g id="ytick_15">
     <g id="line2d_57">
      <defs>
       <path id="m30df266f94" d="M 0 0 
L -2 0 
" style="stroke: #000000; stroke-width: 0.6"/>
      </defs>
      <g>
       <use xlink:href="#m30df266f94" x="747.078513" y="507.661441" style="stroke: #000000; stroke-width: 0.6"/>
      </g>
     </g>
    </g>
    <g id="ytick_16">
     <g id="line2d_58">
      <g>
       <use xlink:href="#m30df266f94" x="747.078513" y="499.852278" style="stroke: #000000; stroke-width: 0.6"/>
      </g>
     </g>
    </g>
    <g id="ytick_17">
     <g id="line2d_59">
      <g>
       <use xlink:href="#m30df266f94" x="747.078513" y="493.249724" style="stroke: #000000; stroke-width: 0.6"/>
      </g>
     </g>
    </g>
    <g id="ytick_18">
     <g id="line2d_60">
      <g>
       <use xlink:href="#m30df266f94" x="747.078513" y="487.530332" style="stroke: #000000; stroke-width: 0.6"/>
      </g>
     </g>
    </g>
    <g id="ytick_19">
     <g id="line2d_61">
      <g>
       <use xlink:href="#m30df266f94" x="747.078513" y="482.48547" style="stroke: #000000; stroke-width: 0.6"/>
      </g>
     </g>
    </g>
    <g id="ytick_20">
     <g id="line2d_62">
      <g>
       <use xlink:href="#m30df266f94" x="747.078513" y="448.283935" style="stroke: #000000; stroke-width: 0.6"/>
      </g>
     </g>
    </g>
    <g id="ytick_21">
     <g id="line2d_63">
      <g>
       <use xlink:href="#m30df266f94" x="747.078513" y="430.917128" style="stroke: #000000; stroke-width: 0.6"/>
      </g>
     </g>
    </g>
    <g id="ytick_22">
     <g id="line2d_64">
      <g>
       <use xlink:href="#m30df266f94" x="747.078513" y="418.595182" style="stroke: #000000; stroke-width: 0.6"/>
      </g>
     </g>
    </g>
    <g id="ytick_23">
     <g id="line2d_65">
      <g>
       <use xlink:href="#m30df266f94" x="747.078513" y="409.037538" style="stroke: #000000; stroke-width: 0.6"/>
      </g>
     </g>
    </g>
    <g id="ytick_24">
     <g id="line2d_66">
      <g>
       <use xlink:href="#m30df266f94" x="747.078513" y="401.228374" style="stroke: #000000; stroke-width: 0.6"/>
      </g>
     </g>
    </g>
    <g id="ytick_25">
     <g id="line2d_67">
      <g>
       <use xlink:href="#m30df266f94" x="747.078513" y="394.625821" style="stroke: #000000; stroke-width: 0.6"/>
      </g>
     </g>
    </g>
    <g id="ytick_26">
     <g id="line2d_68">
      <g>
       <use xlink:href="#m30df266f94" x="747.078513" y="388.906429" style="stroke: #000000; stroke-width: 0.6"/>
      </g>
     </g>
    </g>
    <g id="ytick_27">
     <g id="line2d_69">
      <g>
       <use xlink:href="#m30df266f94" x="747.078513" y="383.861567" style="stroke: #000000; stroke-width: 0.6"/>
      </g>
     </g>
    </g>
    <g id="ytick_28">
     <g id="line2d_70">
      <g>
       <use xlink:href="#m30df266f94" x="747.078513" y="349.660032" style="stroke: #000000; stroke-width: 0.6"/>
      </g>
     </g>
    </g>
    <g id="ytick_29">
     <g id="line2d_71">
      <g>
       <use xlink:href="#m30df266f94" x="747.078513" y="332.293224" style="stroke: #000000; stroke-width: 0.6"/>
      </g>
     </g>
    </g>
    <g id="ytick_30">
     <g id="line2d_72">
      <g>
       <use xlink:href="#m30df266f94" x="747.078513" y="319.971278" style="stroke: #000000; stroke-width: 0.6"/>
      </g>
     </g>
    </g>
    <g id="ytick_31">
     <g id="line2d_73">
      <g>
       <use xlink:href="#m30df266f94" x="747.078513" y="310.413635" style="stroke: #000000; stroke-width: 0.6"/>
      </g>
     </g>
    </g>
    <g id="ytick_32">
     <g id="line2d_74">
      <g>
       <use xlink:href="#m30df266f94" x="747.078513" y="302.604471" style="stroke: #000000; stroke-width: 0.6"/>
      </g>
     </g>
    </g>
    <g id="ytick_33">
     <g id="line2d_75">
      <g>
       <use xlink:href="#m30df266f94" x="747.078513" y="296.001917" style="stroke: #000000; stroke-width: 0.6"/>
      </g>
     </g>
    </g>
    <g id="ytick_34">
     <g id="line2d_76">
      <g>
       <use xlink:href="#m30df266f94" x="747.078513" y="290.282525" style="stroke: #000000; stroke-width: 0.6"/>
      </g>
     </g>
    </g>
    <g id="ytick_35">
     <g id="line2d_77">
      <g>
       <use xlink:href="#m30df266f94" x="747.078513" y="285.237664" style="stroke: #000000; stroke-width: 0.6"/>
      </g>
     </g>
    </g>
    <g id="ytick_36">
     <g id="line2d_78">
      <g>
       <use xlink:href="#m30df266f94" x="747.078513" y="251.036128" style="stroke: #000000; stroke-width: 0.6"/>
      </g>
     </g>
    </g>
    <g id="ytick_37">
     <g id="line2d_79">
      <g>
       <use xlink:href="#m30df266f94" x="747.078513" y="233.669321" style="stroke: #000000; stroke-width: 0.6"/>
      </g>
     </g>
    </g>
    <g id="ytick_38">
     <g id="line2d_80">
      <g>
       <use xlink:href="#m30df266f94" x="747.078513" y="221.347375" style="stroke: #000000; stroke-width: 0.6"/>
      </g>
     </g>
    </g>
    <g id="ytick_39">
     <g id="line2d_81">
      <g>
       <use xlink:href="#m30df266f94" x="747.078513" y="211.789731" style="stroke: #000000; stroke-width: 0.6"/>
      </g>
     </g>
    </g>
    <g id="ytick_40">
     <g id="line2d_82">
      <g>
       <use xlink:href="#m30df266f94" x="747.078513" y="203.980568" style="stroke: #000000; stroke-width: 0.6"/>
      </g>
     </g>
    </g>
    <g id="ytick_41">
     <g id="line2d_83">
      <g>
       <use xlink:href="#m30df266f94" x="747.078513" y="197.378014" style="stroke: #000000; stroke-width: 0.6"/>
      </g>
     </g>
    </g>
    <g id="ytick_42">
     <g id="line2d_84">
      <g>
       <use xlink:href="#m30df266f94" x="747.078513" y="191.658622" style="stroke: #000000; stroke-width: 0.6"/>
      </g>
     </g>
    </g>
    <g id="ytick_43">
     <g id="line2d_85">
      <g>
       <use xlink:href="#m30df266f94" x="747.078513" y="186.61376" style="stroke: #000000; stroke-width: 0.6"/>
      </g>
     </g>
    </g>
    <g id="ytick_44">
     <g id="line2d_86">
      <g>
       <use xlink:href="#m30df266f94" x="747.078513" y="152.412225" style="stroke: #000000; stroke-width: 0.6"/>
      </g>
     </g>
    </g>
    <g id="ytick_45">
     <g id="line2d_87">
      <g>
       <use xlink:href="#m30df266f94" x="747.078513" y="135.045418" style="stroke: #000000; stroke-width: 0.6"/>
      </g>
     </g>
    </g>
    <g id="ytick_46">
     <g id="line2d_88">
      <g>
       <use xlink:href="#m30df266f94" x="747.078513" y="122.723472" style="stroke: #000000; stroke-width: 0.6"/>
      </g>
     </g>
    </g>
    <g id="ytick_47">
     <g id="line2d_89">
      <g>
       <use xlink:href="#m30df266f94" x="747.078513" y="113.165828" style="stroke: #000000; stroke-width: 0.6"/>
      </g>
     </g>
    </g>
    <g id="ytick_48">
     <g id="line2d_90">
      <g>
       <use xlink:href="#m30df266f94" x="747.078513" y="105.356664" style="stroke: #000000; stroke-width: 0.6"/>
      </g>
     </g>
    </g>
    <g id="ytick_49">
     <g id="line2d_91">
      <g>
       <use xlink:href="#m30df266f94" x="747.078513" y="98.754111" style="stroke: #000000; stroke-width: 0.6"/>
      </g>
     </g>
    </g>
    <g id="ytick_50">
     <g id="line2d_92">
      <g>
       <use xlink:href="#m30df266f94" x="747.078513" y="93.034719" style="stroke: #000000; stroke-width: 0.6"/>
      </g>
     </g>
    </g>
    <g id="ytick_51">
     <g id="line2d_93">
      <g>
       <use xlink:href="#m30df266f94" x="747.078513" y="87.989857" style="stroke: #000000; stroke-width: 0.6"/>
      </g>
     </g>
    </g>
    <g id="ytick_52">
     <g id="line2d_94">
      <g>
       <use xlink:href="#m30df266f94" x="747.078513" y="53.788322" style="stroke: #000000; stroke-width: 0.6"/>
      </g>
     </g>
    </g>
    <g id="ytick_53">
     <g id="line2d_95">
      <g>
       <use xlink:href="#m30df266f94" x="747.078513" y="36.421514" style="stroke: #000000; stroke-width: 0.6"/>
      </g>
     </g>
    </g>
    <g id="ytick_54">
     <g id="line2d_96">
      <g>
       <use xlink:href="#m30df266f94" x="747.078513" y="24.099568" style="stroke: #000000; stroke-width: 0.6"/>
      </g>
     </g>
    </g>
    <g id="ytick_55">
     <g id="line2d_97">
      <g>
       <use xlink:href="#m30df266f94" x="747.078513" y="14.541925" style="stroke: #000000; stroke-width: 0.6"/>
      </g>
     </g>
    </g>
    <g id="text_32">
     <!-- $|y-y_{exact}|$ -->
     <g transform="translate(700.398513 314.374349) rotate(-90) scale(0.2 -0.2)">
      <defs>
       <path id="DejaVuSans-7c" d="M 1344 4891 
L 1344 -1509 
L 813 -1509 
L 813 4891 
L 1344 4891 
z
" transform="scale(0.015625)"/>
       <path id="DejaVuSans-2212" d="M 678 2272 
L 4684 2272 
L 4684 1741 
L 678 1741 
L 678 2272 
z
" transform="scale(0.015625)"/>
       <path id="DejaVuSans-Oblique-65" d="M 3078 2063 
Q 3088 2113 3092 2166 
Q 3097 2219 3097 2272 
Q 3097 2653 2873 2875 
Q 2650 3097 2266 3097 
Q 1838 3097 1509 2826 
Q 1181 2556 1013 2059 
L 3078 2063 
z
M 3578 1613 
L 903 1613 
Q 884 1494 878 1425 
Q 872 1356 872 1306 
Q 872 872 1139 634 
Q 1406 397 1894 397 
Q 2269 397 2603 481 
Q 2938 566 3225 728 
L 3116 159 
Q 2806 34 2476 -28 
Q 2147 -91 1806 -91 
Q 1078 -91 686 257 
Q 294 606 294 1247 
Q 294 1794 489 2264 
Q 684 2734 1063 3103 
Q 1306 3334 1642 3459 
Q 1978 3584 2356 3584 
Q 2950 3584 3301 3228 
Q 3653 2872 3653 2272 
Q 3653 2128 3634 1964 
Q 3616 1800 3578 1613 
z
" transform="scale(0.015625)"/>
       <path id="DejaVuSans-Oblique-61" d="M 3438 1997 
L 3047 0 
L 2472 0 
L 2578 531 
Q 2325 219 2001 64 
Q 1678 -91 1281 -91 
Q 834 -91 548 182 
Q 263 456 263 884 
Q 263 1497 752 1853 
Q 1241 2209 2100 2209 
L 2900 2209 
L 2931 2363 
Q 2938 2388 2941 2417 
Q 2944 2447 2944 2509 
Q 2944 2788 2717 2942 
Q 2491 3097 2081 3097 
Q 1800 3097 1504 3025 
Q 1209 2953 897 2809 
L 997 3341 
Q 1322 3463 1633 3523 
Q 1944 3584 2234 3584 
Q 2853 3584 3176 3315 
Q 3500 3047 3500 2534 
Q 3500 2431 3484 2292 
Q 3469 2153 3438 1997 
z
M 2816 1759 
L 2241 1759 
Q 1534 1759 1195 1570 
Q 856 1381 856 984 
Q 856 709 1029 553 
Q 1203 397 1509 397 
Q 1978 397 2328 733 
Q 2678 1069 2791 1631 
L 2816 1759 
z
" transform="scale(0.015625)"/>
       <path id="DejaVuSans-Oblique-63" d="M 3431 3366 
L 3316 2797 
Q 3109 2947 2876 3022 
Q 2644 3097 2394 3097 
Q 2119 3097 1870 3000 
Q 1622 2903 1453 2725 
Q 1184 2453 1037 2087 
Q 891 1722 891 1331 
Q 891 859 1127 628 
Q 1363 397 1844 397 
Q 2081 397 2348 469 
Q 2616 541 2906 684 
L 2797 116 
Q 2547 13 2283 -39 
Q 2019 -91 1741 -91 
Q 1044 -91 669 257 
Q 294 606 294 1253 
Q 294 1797 489 2255 
Q 684 2713 1069 3078 
Q 1331 3328 1684 3456 
Q 2038 3584 2456 3584 
Q 2700 3584 2940 3529 
Q 3181 3475 3431 3366 
z
" transform="scale(0.015625)"/>
       <path id="DejaVuSans-Oblique-74" d="M 2706 3500 
L 2619 3053 
L 1472 3053 
L 1100 1153 
Q 1081 1047 1072 975 
Q 1063 903 1063 863 
Q 1063 663 1183 572 
Q 1303 481 1569 481 
L 2150 481 
L 2053 0 
L 1503 0 
Q 991 0 739 200 
Q 488 400 488 806 
Q 488 878 497 964 
Q 506 1050 525 1153 
L 897 3053 
L 409 3053 
L 500 3500 
L 978 3500 
L 1172 4494 
L 1747 4494 
L 1556 3500 
L 2706 3500 
z
" transform="scale(0.015625)"/>
      </defs>
      <use xlink:href="#DejaVuSans-7c" transform="translate(0 0.578125)"/>
      <use xlink:href="#DejaVuSans-Oblique-79" transform="translate(33.691406 0.578125)"/>
      <use xlink:href="#DejaVuSans-2212" transform="translate(112.353516 0.578125)"/>
      <use xlink:href="#DejaVuSans-Oblique-79" transform="translate(215.625 0.578125)"/>
      <use xlink:href="#DejaVuSans-Oblique-65" transform="translate(274.804688 -15.828125) scale(0.7)"/>
      <use xlink:href="#DejaVuSans-Oblique-78" transform="translate(317.871094 -15.828125) scale(0.7)"/>
      <use xlink:href="#DejaVuSans-Oblique-61" transform="translate(359.296875 -15.828125) scale(0.7)"/>
      <use xlink:href="#DejaVuSans-Oblique-63" transform="translate(402.192383 -15.828125) scale(0.7)"/>
      <use xlink:href="#DejaVuSans-Oblique-74" transform="translate(440.678711 -15.828125) scale(0.7)"/>
      <use xlink:href="#DejaVuSans-7c" transform="translate(470.859375 0.578125)"/>
     </g>
    </g>
   </g>
   <g id="line2d_98">
    <path d="M 758.28591 331.162497 
L 758.734655 356.519058 
L 758.959027 378.794079 
L 759.183399 427.288284 
L 759.407772 424.232225 
L 759.632144 378.761639 
L 760.080889 344.063162 
L 760.529633 326.515084 
L 760.978378 315.484657 
L 761.427123 308.138537 
L 761.875867 303.341037 
L 762.324612 300.572842 
L 762.548984 299.874401 
L 762.773356 299.620123 
L 762.997729 299.815107 
L 763.222101 300.476721 
L 763.670846 303.343117 
L 764.11959 308.721239 
L 764.568335 317.717273 
L 765.01708 333.088934 
L 765.241452 345.491838 
L 765.465824 365.051097 
L 765.690197 407.16927 
L 765.914569 416.987885 
L 766.138941 364.513227 
L 766.587686 324.692704 
L 767.03643 302.913087 
L 767.709547 281.435592 
L 768.382664 266.360519 
L 769.280154 251.694125 
L 770.177643 241.01249 
L 771.075132 233.196123 
L 771.748249 228.873201 
L 772.421366 225.729159 
L 773.094483 223.705996 
L 773.543228 222.974798 
L 773.991972 222.748749 
L 774.216345 222.831568 
L 774.665089 223.408819 
L 775.113834 224.573163 
L 775.562578 226.388865 
L 776.011323 228.948974 
L 776.68444 234.500578 
L 777.357557 242.852566 
L 777.806302 250.749391 
L 778.255046 261.650521 
L 778.703791 277.930861 
L 779.152535 307.362988 
L 779.376908 338.531822 
L 779.60128 437.75604 
L 779.825652 329.916911 
L 780.274397 284.431113 
L 780.723142 262.387713 
L 781.396259 241.859669 
L 782.069376 228.046643 
L 782.742493 217.8738 
L 783.639982 207.900111 
L 784.537471 200.822731 
L 785.210588 197.006649 
L 785.883705 194.301215 
L 786.556822 192.630106 
L 787.005567 192.076379 
L 787.454311 191.974289 
L 787.903056 192.337263 
L 788.3518 193.189344 
L 788.800545 194.567442 
L 789.24929 196.525113 
L 789.922407 200.724123 
L 790.595524 206.823534 
L 791.26864 215.592504 
L 791.941757 228.649713 
L 792.390502 241.616207 
L 792.839247 261.782247 
L 793.063619 277.808127 
L 793.287991 304.477198 
L 793.512364 395.246918 
L 793.736736 315.471252 
L 794.185481 263.653796 
L 794.634225 240.610953 
L 795.307342 219.778949 
L 795.980459 206.030866 
L 796.653576 196.038 
L 797.551065 186.363212 
L 798.448555 179.59836 
L 799.121672 176.010352 
L 799.794788 173.521464 
L 800.243533 172.431098 
L 800.692278 171.78204 
L 801.141022 171.572818 
L 801.589767 171.810976 
L 802.038512 172.513722 
L 802.487256 173.709456 
L 802.936001 175.440471 
L 803.609118 179.180086 
L 804.282235 184.592745 
L 804.955352 192.258701 
L 805.628469 203.317581 
L 806.077213 213.764444 
L 806.525958 228.671056 
L 806.974703 253.320763 
L 807.199075 275.269672 
L 807.423447 324.149868 
L 807.647819 317.774914 
L 807.872192 272.424185 
L 808.320936 236.344425 
L 808.769681 216.930458 
L 809.442798 198.344422 
L 810.115915 185.747937 
L 810.789032 176.50355 
L 811.686521 167.541758 
L 812.359638 162.661772 
L 813.032755 159.043929 
L 813.705872 156.530442 
L 814.154617 155.423439 
L 814.603361 154.75576 
L 815.052106 154.524509 
L 815.500851 154.73577 
L 815.949595 155.405123 
L 816.39834 156.559016 
L 816.847084 158.237238 
L 817.520201 161.869291 
L 818.193318 167.122853 
L 818.866435 174.540588 
L 819.539552 185.173004 
L 819.988297 195.119803 
L 820.437041 209.095581 
L 820.885786 231.402903 
L 821.110158 250.017593 
L 821.334531 284.578644 
L 821.558903 342.421872 
L 821.783275 266.269177 
L 822.23202 223.988405 
L 822.680765 202.987103 
L 823.353882 183.421368 
L 824.026998 170.338449 
L 824.700115 160.787601 
L 825.597605 151.538446 
L 826.270722 146.486829 
L 826.943839 142.715723 
L 827.616956 140.057745 
L 828.290072 138.420248 
L 828.738817 137.874689 
L 829.187562 137.765007 
L 829.636306 138.100592 
L 830.085051 138.900761 
L 830.533796 140.1965 
L 830.98254 142.03347 
L 831.655657 145.953834 
L 832.328774 151.597561 
L 833.001891 159.597702 
L 833.675008 171.222466 
L 834.123753 182.350143 
L 834.572497 198.59082 
L 835.021242 226.993591 
L 835.245614 255.423541 
L 835.469987 391.454604 
L 835.694359 258.510902 
L 836.143103 209.707396 
L 836.591848 187.242942 
L 837.264965 166.737552 
L 837.938082 153.12745 
L 838.611199 143.192601 
L 839.508688 133.522741 
L 840.406177 126.704245 
L 841.079294 123.045007 
L 841.752411 120.461719 
L 842.425528 118.87677 
L 842.874273 118.360068 
L 843.323018 118.278431 
L 843.771762 118.645081 
L 844.220507 119.483827 
L 844.669251 120.831284 
L 845.117996 122.740618 
L 845.791113 126.832657 
L 846.46423 132.780743 
L 847.137347 141.34724 
L 847.810464 154.13309 
L 848.259208 166.853348 
L 848.707953 186.642403 
L 848.932325 202.331865 
L 849.156698 228.239155 
L 849.38107 309.595456 
L 849.829815 208.048981 
L 850.278559 175.695542 
L 850.727304 157.145252 
L 851.400421 138.797719 
L 852.073538 126.017329 
L 852.971027 113.704769 
L 853.868516 104.81989 
L 854.766006 98.365909 
L 855.439123 94.819954 
L 856.11224 92.262425 
L 856.785356 90.646401 
L 857.234101 90.090325 
L 857.682846 89.963423 
L 858.13159 90.287653 
L 858.580335 91.097465 
L 859.02908 92.443378 
L 859.477824 94.39786 
L 860.150941 98.711182 
L 860.824058 105.228713 
L 861.497175 115.119018 
L 861.94592 124.819285 
L 862.394664 139.110291 
L 862.843409 163.710766 
L 863.067781 186.666692 
L 863.292154 244.25698 
L 864.189643 139.728137 
L 864.86276 111.913311 
L 865.535877 94.012365 
L 866.433366 76.828029 
L 867.330855 63.793153 
L 868.452717 50.985193 
L 869.574578 40.75163 
L 870.247695 35.526026 
L 870.472068 34.986952 
L 871.593929 43.947709 
L 872.715791 54.974587 
L 873.61328 65.887352 
L 874.510769 79.609798 
L 875.183886 92.828238 
L 875.857003 110.487556 
L 876.305748 126.915782 
L 876.754493 151.790236 
L 876.978865 171.917702 
L 877.427609 256.772953 
L 877.651982 188.7322 
L 878.100726 149.552807 
L 878.549471 130.849991 
L 879.222588 114.439164 
L 879.895705 104.347906 
L 880.568822 97.678874 
L 881.241939 93.235092 
L 881.915056 90.415116 
L 882.3638 89.265269 
L 882.812545 88.623585 
L 883.26129 88.447005 
L 883.710034 88.706604 
L 884.158779 89.384719 
L 884.607524 90.473303 
L 885.28064 92.879965 
L 885.953757 96.254821 
L 886.626874 100.691634 
L 887.299991 106.356961 
L 887.973108 113.532534 
L 888.646225 122.707935 
L 889.319342 134.807699 
L 889.992459 151.874508 
L 890.441204 168.584775 
L 890.889948 195.63523 
L 891.114321 219.828832 
L 891.338693 278.667192 
L 892.236182 179.219516 
L 892.684927 161.682092 
L 893.358044 145.435491 
L 894.031161 134.982335 
L 894.704278 127.789983 
L 895.377395 122.772367 
L 896.050512 119.371875 
L 896.723629 117.273637 
L 897.172373 116.503586 
L 897.621118 116.195047 
L 898.069862 116.326347 
L 898.518607 116.885878 
L 898.967352 117.87109 
L 899.640469 120.163313 
L 900.313586 123.49158 
L 900.986703 127.978505 
L 901.659819 133.835869 
L 902.332936 141.425409 
L 903.006053 151.397761 
L 903.67917 165.062501 
L 904.127915 177.644399 
L 904.57666 195.552559 
L 905.025404 226.489158 
L 905.249777 258.170621 
L 905.474149 365.160244 
L 905.698521 252.220703 
L 906.147266 207.998219 
L 906.59601 187.442229 
L 907.269127 169.164297 
L 907.942244 157.572878 
L 908.615361 149.582586 
L 909.288478 143.935842 
L 909.961595 140.003671 
L 910.634712 137.435528 
L 911.083457 136.37606 
L 911.532201 135.792178 
L 911.980946 135.658898 
L 912.429691 135.961793 
L 912.878435 136.695733 
L 913.32718 137.864452 
L 914.000297 140.46371 
L 914.673414 144.161658 
L 915.346531 149.119556 
L 916.019648 155.61225 
L 916.692765 164.118475 
L 917.365882 175.541121 
L 918.038998 191.864539 
L 918.487743 207.943708 
L 918.936488 233.898854 
L 919.16086 256.727157 
L 919.385232 307.988833 
L 919.609605 297.294948 
L 919.833977 253.894871 
L 920.282722 219.326875 
L 920.731466 201.106491 
L 921.404583 184.198367 
L 922.0777 173.234345 
L 922.750817 165.601922 
L 923.423934 160.189039 
L 924.097051 156.426814 
L 924.770168 153.994522 
L 925.218913 153.015385 
L 925.667657 152.507818 
L 926.116402 152.449616 
L 926.565146 152.82876 
L 927.013891 153.642379 
L 927.462636 154.896508 
L 928.135753 157.640303 
L 928.80887 161.512418 
L 929.481987 166.69048 
L 930.155103 173.477193 
L 930.82822 182.405317 
L 931.501337 194.501265 
L 932.174454 212.112236 
L 932.623199 230.044409 
L 933.071944 261.242739 
L 933.296316 293.621937 
L 933.520688 385.087869 
L 933.745061 285.02868 
L 934.193805 241.497455 
L 934.64255 221.044752 
L 935.315667 202.782848 
L 935.988784 191.170753 
L 936.661901 183.155172 
L 937.335018 177.488151 
L 938.008134 173.544706 
L 938.681251 170.976372 
L 939.129996 169.923612 
L 939.578741 169.352291 
L 940.027485 169.237738 
L 940.47623 169.565851 
L 940.924975 170.331866 
L 941.373719 171.539949 
L 942.046836 174.213138 
L 942.719953 178.005203 
L 943.39307 183.081448 
L 944.066187 189.723738 
L 944.739304 198.42441 
L 945.412421 210.117062 
L 946.085538 226.874121 
L 946.534282 243.486025 
L 946.983027 270.727638 
L 947.207399 295.51051 
L 947.431772 359.35876 
L 948.104889 265.238657 
L 948.553633 242.45118 
L 949.22675 222.980324 
L 949.899867 210.897354 
L 950.572984 202.676917 
L 951.246101 196.934188 
L 951.919218 192.989795 
L 952.592335 190.469283 
L 953.04108 189.468251 
L 953.489824 188.961267 
L 953.938569 188.921636 
L 954.387313 189.333639 
L 954.836058 190.191128 
L 955.284803 191.496979 
L 955.95792 194.325698 
L 956.631037 198.279126 
L 957.304154 203.514824 
L 957.977271 210.301523 
L 958.650387 219.10597 
L 959.323504 230.803381 
L 959.996621 247.297885 
L 960.445366 263.295814 
L 960.894111 288.530391 
L 961.118483 309.94025 
L 961.342855 353.414336 
L 961.567228 367.199593 
L 961.7916 315.724558 
L 962.240345 279.24504 
L 962.689089 260.819573 
L 963.362206 244.198551 
L 964.035323 233.774233 
L 964.70844 226.81194 
L 965.381557 222.164242 
L 966.054674 219.250661 
L 966.503419 218.105687 
L 966.952163 217.525889 
L 967.176535 217.434678 
L 967.400908 217.47076 
L 967.849652 217.914038 
L 968.298397 218.841042 
L 968.747142 220.247204 
L 969.420259 223.268464 
L 970.093376 227.440858 
L 970.766492 232.885294 
L 971.439609 239.810219 
L 972.112726 248.567673 
L 972.785843 259.780014 
L 973.45896 274.670208 
L 974.132077 296.170219 
L 974.580822 318.45556 
L 974.805194 335.187666 
L 975.029566 361.453612 
L 975.253939 432.119901 
L 975.702683 350.225026 
L 976.151428 320.299558 
L 976.600173 304.970861 
L 977.048917 295.48214 
L 977.497662 289.296303 
L 977.946407 285.339881 
L 978.395151 283.076101 
L 978.619524 282.483312 
L 978.843896 282.218843 
L 979.068268 282.268249 
L 979.29264 282.622837 
L 979.741385 284.238317 
L 980.19013 287.096371 
L 980.638874 291.31576 
L 981.087619 297.135285 
L 981.536364 304.993788 
L 981.985108 315.72911 
L 982.433853 331.162497 
L 982.433853 331.162497 
" clip-path="url(#p70b2b7b184)" style="fill: none; stroke: #a80000; stroke-width: 3; stroke-linecap: square"/>
   </g>
   <g id="line2d_99">
    <path d="M 758.28591 167.052639 
L 759.183399 175.398741 
L 760.080889 185.774628 
L 760.754006 195.632169 
L 761.427123 208.458658 
L 762.10024 226.852738 
L 762.548984 245.808183 
L 762.997729 280.650281 
L 763.222101 322.988089 
L 763.446473 339.061187 
L 763.670846 285.952742 
L 764.11959 248.078299 
L 764.568335 228.297157 
L 765.241452 209.39323 
L 765.465824 208.649844 
L 767.709547 213.500684 
L 769.728898 218.392242 
L 771.748249 223.915332 
L 773.543228 229.504662 
L 775.113834 235.075893 
L 776.68444 241.481693 
L 778.030674 247.855837 
L 779.825652 256.678402 
L 781.396259 262.545639 
L 782.966865 269.346116 
L 784.313099 276.180743 
L 785.659333 284.316935 
L 786.781194 292.521858 
L 787.903056 302.680083 
L 788.800545 313.000493 
L 789.473662 322.791397 
L 790.146779 335.504956 
L 790.819896 353.665896 
L 791.26864 372.252211 
L 791.717385 405.822774 
L 792.16613 477.016773 
L 792.390502 416.213589 
L 792.839247 376.687664 
L 793.287991 356.486956 
L 793.736736 351.563551 
L 794.858598 342.225528 
L 795.980459 334.563405 
L 797.326693 326.877163 
L 798.672927 320.362627 
L 800.243533 313.835661 
L 802.038512 307.42192 
L 803.83349 301.844686 
L 805.852841 296.332096 
L 807.199075 293.015492 
L 807.423447 293.016799 
L 809.218426 298.158515 
L 811.013404 304.002757 
L 812.58401 309.865282 
L 814.154617 316.659427 
L 815.500851 323.486592 
L 816.847084 331.612203 
L 817.968946 339.804217 
L 819.090808 349.942629 
L 819.988297 360.237485 
L 820.661414 369.997759 
L 821.334531 382.907929 
L 821.558903 398.27135 
L 821.783275 422.45744 
L 822.007648 483.383557 
L 822.680765 392.014885 
L 823.129509 368.152401 
L 823.802626 346.944975 
L 824.475743 332.824589 
L 825.373232 319.201697 
L 826.270722 308.882039 
L 827.392583 298.724397 
L 828.514445 290.519854 
L 829.860679 282.383973 
L 831.206913 275.549566 
L 832.777519 268.749275 
L 834.348125 262.882176 
L 835.694359 257.846102 
L 837.264965 251.027746 
L 838.835571 245.147212 
L 840.63055 239.287317 
L 842.425528 234.133493 
L 844.444879 228.992008 
L 846.688602 223.921177 
L 848.932325 219.387631 
L 849.829815 217.457181 
L 852.073538 212.51575 
L 854.317261 208.085893 
L 856.785356 203.69006 
L 859.477824 199.359021 
L 862.394664 195.113972 
L 863.292154 193.888153 
L 863.740898 143.763572 
L 864.189643 118.543327 
L 864.86276 96.641617 
L 865.535877 82.220423 
L 866.433366 68.388918 
L 867.330855 57.950433 
L 868.452717 47.700931 
L 869.574578 39.436661 
L 870.247695 35.149073 
L 870.472068 35.091786 
L 871.593929 42.485645 
L 872.715791 51.427785 
L 873.61328 60.228283 
L 874.510769 71.317323 
L 875.183886 82.048729 
L 875.857003 96.401384 
L 876.305748 109.610831 
L 876.754493 128.80979 
L 876.978865 143.045775 
L 877.427609 191.61857 
L 880.34445 195.613986 
L 883.036917 199.665248 
L 885.729385 204.140114 
L 888.197481 208.698162 
L 890.441204 213.30996 
L 892.236182 217.010236 
L 894.479905 221.557954 
L 896.499256 226.109587 
L 898.518607 231.203062 
L 900.313586 236.30268 
L 902.108564 242.092576 
L 903.67917 247.892686 
L 907.044755 260.890754 
L 908.615361 267.038155 
L 909.961595 273.11574 
L 911.307829 280.200591 
L 912.429691 287.156444 
L 913.551552 295.465175 
L 914.449041 303.511208 
L 915.346531 313.426631 
L 916.24402 326.351597 
L 916.917137 339.491008 
L 917.590254 358.541095 
L 918.038998 378.563757 
L 918.263371 393.717188 
L 918.487743 417.379088 
L 918.712115 474.664036 
L 918.936488 449.267908 
L 919.385232 388.776244 
L 920.058349 372.534853 
L 920.955839 357.687577 
L 921.853328 346.683246 
L 922.975189 336.002435 
L 924.097051 327.46053 
L 925.443285 319.05018 
L 926.789519 312.023316 
L 928.360125 305.060384 
L 929.930731 299.072683 
L 931.72571 293.119893 
L 933.296316 288.513748 
L 933.520688 288.494995 
L 935.540039 293.399911 
L 937.55939 298.940043 
L 939.354368 304.549016 
L 940.924975 310.142562 
L 942.495581 316.577895 
L 943.841815 322.986179 
L 945.188049 330.524836 
L 946.30991 338.011632 
L 947.207399 345.11403 
L 947.431772 347.58733 
L 947.880516 365.682628 
L 948.329261 397.634284 
L 948.553633 432.242535 
L 948.778006 492.761745 
L 949.002378 415.252924 
L 949.451123 373.147614 
L 949.899867 352.330629 
L 950.572984 332.809026 
L 951.246101 319.449016 
L 952.14359 306.364706 
L 953.04108 296.356073 
L 954.162941 286.441026 
L 955.284803 278.39524 
L 956.631037 270.389885 
L 957.977271 263.647742 
L 959.547877 256.925902 
L 961.118483 251.117262 
L 961.567228 249.185585 
L 962.913461 241.720239 
L 964.484068 234.391735 
L 966.054674 228.135842 
L 967.849652 221.952461 
L 969.644631 216.550163 
L 971.663982 211.190065 
L 973.683333 206.426754 
L 975.253939 203.056661 
L 975.478311 203.660377 
L 976.151428 219.686236 
L 976.600173 235.117194 
L 977.048917 259.473797 
L 977.27329 280.152996 
L 977.497662 321.6647 
L 977.722034 341.063347 
L 977.946407 286.522616 
L 978.395151 248.312751 
L 978.843896 228.444741 
L 979.517013 209.488093 
L 980.19013 196.392822 
L 981.087619 183.49991 
L 981.985108 173.603304 
L 982.433853 169.398399 
L 982.433853 169.398399 
" clip-path="url(#p70b2b7b184)" style="fill: none; stroke: #1f77b4; stroke-width: 3; stroke-linecap: square"/>
   </g>
   <g id="patch_9">
    <path d="M 747.078513 515.650485 
L 747.078513 12.098212 
" style="fill: none; stroke: #000000; stroke-width: 1.5; stroke-linejoin: miter; stroke-linecap: square"/>
   </g>
   <g id="patch_10">
    <path d="M 993.64125 515.650485 
L 993.64125 12.098212 
" style="fill: none; stroke: #000000; stroke-width: 1.5; stroke-linejoin: miter; stroke-linecap: square"/>
   </g>
   <g id="patch_11">
    <path d="M 747.078513 515.650485 
L 993.64125 515.650485 
" style="fill: none; stroke: #000000; stroke-width: 1.5; stroke-linejoin: miter; stroke-linecap: square"/>
   </g>
   <g id="patch_12">
    <path d="M 747.078513 12.098212 
L 993.64125 12.098212 
" style="fill: none; stroke: #000000; stroke-width: 1.5; stroke-linejoin: miter; stroke-linecap: square"/>
   </g>
   <g id="legend_2">
    <g id="patch_13">
     <path d="M 898.085 49.554462 
L 986.64125 49.554462 
Q 988.64125 49.554462 988.64125 47.554462 
L 988.64125 19.098212 
Q 988.64125 17.098212 986.64125 17.098212 
L 898.085 17.098212 
Q 896.085 17.098212 896.085 19.098212 
L 896.085 47.554462 
Q 896.085 49.554462 898.085 49.554462 
z
" style="fill: #ffffff; opacity: 0.8; stroke: #cccccc; stroke-linejoin: miter"/>
    </g>
    <g id="line2d_100">
     <path d="M 900.085 25.157587 
L 910.085 25.157587 
L 920.085 25.157587 
" style="fill: none; stroke: #a80000; stroke-width: 3; stroke-linecap: square"/>
    </g>
    <g id="text_33">
     <!-- 16, t=1.0 -->
     <g transform="translate(928.085 28.657587) scale(0.1 -0.1)">
      <use xlink:href="#Georgia-31"/>
      <use xlink:href="#Georgia-36" x="42.96875"/>
      <use xlink:href="#Georgia-2c" x="99.560547"/>
      <use xlink:href="#Georgia-20" x="126.513672"/>
      <use xlink:href="#Georgia-74" x="150.634766"/>
      <use xlink:href="#Georgia-3d" x="185.15625"/>
      <use xlink:href="#Georgia-31" x="249.462891"/>
      <use xlink:href="#Georgia-2e" x="292.431641"/>
      <use xlink:href="#Georgia-30" x="319.384766"/>
     </g>
    </g>
    <g id="line2d_101">
     <path d="M 900.085 39.885712 
L 910.085 39.885712 
L 920.085 39.885712 
" style="fill: none; stroke: #1f77b4; stroke-width: 3; stroke-linecap: square"/>
    </g>
    <g id="text_34">
     <!-- 16, t=1.0,ggb -->
     <g transform="translate(928.085 43.385712) scale(0.1 -0.1)">
      <use xlink:href="#Georgia-31"/>
      <use xlink:href="#Georgia-36" x="42.96875"/>
      <use xlink:href="#Georgia-2c" x="99.560547"/>
      <use xlink:href="#Georgia-20" x="126.513672"/>
      <use xlink:href="#Georgia-74" x="150.634766"/>
      <use xlink:href="#Georgia-3d" x="185.15625"/>
      <use xlink:href="#Georgia-31" x="249.462891"/>
      <use xlink:href="#Georgia-2e" x="292.431641"/>
      <use xlink:href="#Georgia-30" x="319.384766"/>
      <use xlink:href="#Georgia-2c" x="380.761719"/>
      <use xlink:href="#Georgia-67" x="407.714844"/>
      <use xlink:href="#Georgia-67" x="458.642578"/>
      <use xlink:href="#Georgia-62" x="509.570312"/>
     </g>
    </g>
   </g>
  </g>
 </g>
 <defs>
  <clipPath id="pef97c4ff19">
   <rect x="56.98625" y="12.098212" width="616.406842" height="503.552272"/>
  </clipPath>
  <clipPath id="p70b2b7b184">
   <rect x="747.078513" y="12.098212" width="246.562737" height="503.552272"/>
  </clipPath>
 </defs>
</svg>
