<?xml version="1.0" encoding="utf-8" standalone="no"?>
<!DOCTYPE svg PUBLIC "-//W3C//DTD SVG 1.1//EN"
  "http://www.w3.org/Graphics/SVG/1.1/DTD/svg11.dtd">
<svg xmlns:xlink="http://www.w3.org/1999/xlink" width="1000.84125pt" height="568.90125pt" viewBox="0 0 1000.84125 568.90125" xmlns="http://www.w3.org/2000/svg" version="1.1">
 <metadata>
  <rdf:RDF xmlns:dc="http://purl.org/dc/elements/1.1/" xmlns:cc="http://creativecommons.org/ns#" xmlns:rdf="http://www.w3.org/1999/02/22-rdf-syntax-ns#">
   <cc:Work>
    <dc:type rdf:resource="http://purl.org/dc/dcmitype/StillImage"/>
    <dc:date>2023-11-29T03:17:10.710080</dc:date>
    <dc:format>image/svg+xml</dc:format>
    <dc:creator>
     <cc:Agent>
      <dc:title>Matplotlib v3.6.2, https://matplotlib.org/</dc:title>
     </cc:Agent>
    </dc:creator>
   </cc:Work>
  </rdf:RDF>
 </metadata>
 <defs>
  <style type="text/css">*{stroke-linejoin: round; stroke-linecap: butt}</style>
 </defs>
 <g id="figure_1">
  <g id="patch_1">
   <path d="M 0 568.90125 
L 1000.84125 568.90125 
L 1000.84125 0 
L 0 0 
L 0 568.90125 
z
" style="fill: none"/>
  </g>
  <g id="axes_1">
   <g id="patch_2">
    <path d="M 56.98625 515.68 
L 673.232378 515.68 
L 673.232378 7.2 
L 56.98625 7.2 
L 56.98625 515.68 
z
" style="fill: none"/>
   </g>
   <g id="matplotlib.axis_1">
    <g id="xtick_1">
     <g id="line2d_1">
      <path d="M 84.997438 515.68 
L 84.997438 7.2 
" clip-path="url(#pf9827f8cd5)" style="fill: none; stroke: #b0b0b0; stroke-width: 0.8; stroke-linecap: square"/>
     </g>
     <g id="line2d_2">
      <defs>
       <path id="m5b62769ae1" d="M 0 0 
L 0 3.5 
" style="stroke: #000000; stroke-width: 0.8"/>
      </defs>
      <g>
       <use xlink:href="#m5b62769ae1" x="84.997438" y="515.68" style="stroke: #000000; stroke-width: 0.8"/>
      </g>
     </g>
     <g id="text_1">
      <!-- 0 -->
      <g transform="translate(80.087438 534.775) scale(0.16 -0.16)">
       <defs>
        <path id="Georgia-30" d="M 3209 2919 
Q 3409 2678 3507 2354 
Q 3606 2031 3606 1678 
Q 3606 1253 3484 917 
Q 3363 581 3150 359 
Q 2931 131 2631 15 
Q 2331 -100 1963 -100 
Q 1559 -100 1243 34 
Q 928 169 731 403 
Q 525 647 423 973 
Q 322 1300 322 1678 
Q 322 2050 420 2362 
Q 519 2675 728 2928 
Q 928 3172 1243 3312 
Q 1559 3453 1966 3453 
Q 2394 3453 2700 3309 
Q 3006 3166 3209 2919 
z
M 2916 1678 
Q 2916 2422 2661 2831 
Q 2406 3241 1969 3241 
Q 1525 3241 1269 2831 
Q 1013 2422 1013 1678 
Q 1013 972 1258 542 
Q 1503 113 1963 113 
Q 2422 113 2669 542 
Q 2916 972 2916 1678 
z
" transform="scale(0.015625)"/>
       </defs>
       <use xlink:href="#Georgia-30"/>
      </g>
     </g>
    </g>
    <g id="xtick_2">
     <g id="line2d_3">
      <path d="M 174.159817 515.68 
L 174.159817 7.2 
" clip-path="url(#pf9827f8cd5)" style="fill: none; stroke: #b0b0b0; stroke-width: 0.8; stroke-linecap: square"/>
     </g>
     <g id="line2d_4">
      <g>
       <use xlink:href="#m5b62769ae1" x="174.159817" y="515.68" style="stroke: #000000; stroke-width: 0.8"/>
      </g>
     </g>
     <g id="text_2">
      <!-- 1 -->
      <g transform="translate(170.722317 534.775) scale(0.16 -0.16)">
       <defs>
        <path id="Georgia-31" d="M 2528 0 
L 422 0 
L 422 222 
Q 516 228 714 248 
Q 913 269 988 291 
Q 1084 322 1136 392 
Q 1188 463 1188 603 
L 1188 2797 
L 409 2797 
L 409 3059 
L 581 3059 
Q 919 3059 1186 3184 
Q 1453 3309 1569 3453 
L 1828 3453 
Q 1819 3250 1809 2978 
Q 1800 2706 1800 2491 
L 1800 638 
Q 1800 528 1848 442 
Q 1897 356 1988 316 
Q 2069 281 2253 253 
Q 2438 225 2528 222 
L 2528 0 
z
" transform="scale(0.015625)"/>
       </defs>
       <use xlink:href="#Georgia-31"/>
      </g>
     </g>
    </g>
    <g id="xtick_3">
     <g id="line2d_5">
      <path d="M 263.322197 515.68 
L 263.322197 7.2 
" clip-path="url(#pf9827f8cd5)" style="fill: none; stroke: #b0b0b0; stroke-width: 0.8; stroke-linecap: square"/>
     </g>
     <g id="line2d_6">
      <g>
       <use xlink:href="#m5b62769ae1" x="263.322197" y="515.68" style="stroke: #000000; stroke-width: 0.8"/>
      </g>
     </g>
     <g id="text_3">
      <!-- 2 -->
      <g transform="translate(258.853447 534.775) scale(0.16 -0.16)">
       <defs>
        <path id="Georgia-32" d="M 3272 0 
L 344 0 
L 344 425 
Q 428 522 578 642 
Q 728 763 934 903 
Q 1059 988 1234 1088 
Q 1409 1188 1631 1306 
Q 1878 1438 2011 1538 
Q 2144 1638 2253 1784 
Q 2325 1881 2369 2026 
Q 2413 2172 2413 2441 
Q 2413 2831 2203 3014 
Q 1994 3197 1666 3197 
Q 1463 3197 1281 3117 
Q 1100 3038 1009 2897 
Q 1031 2797 1064 2659 
Q 1097 2522 1097 2391 
Q 1097 2272 998 2180 
Q 900 2088 706 2088 
Q 550 2088 465 2195 
Q 381 2303 381 2484 
Q 381 2653 475 2823 
Q 569 2994 744 3138 
Q 916 3278 1169 3365 
Q 1422 3453 1716 3453 
Q 2356 3453 2732 3167 
Q 3109 2881 3109 2403 
Q 3109 2175 3042 1987 
Q 2975 1800 2825 1656 
Q 2659 1497 2437 1383 
Q 2216 1269 1759 1066 
Q 1488 944 1253 811 
Q 1019 678 869 553 
L 3272 553 
L 3272 0 
z
" transform="scale(0.015625)"/>
       </defs>
       <use xlink:href="#Georgia-32"/>
      </g>
     </g>
    </g>
    <g id="xtick_4">
     <g id="line2d_7">
      <path d="M 352.484576 515.68 
L 352.484576 7.2 
" clip-path="url(#pf9827f8cd5)" style="fill: none; stroke: #b0b0b0; stroke-width: 0.8; stroke-linecap: square"/>
     </g>
     <g id="line2d_8">
      <g>
       <use xlink:href="#m5b62769ae1" x="352.484576" y="515.68" style="stroke: #000000; stroke-width: 0.8"/>
      </g>
     </g>
     <g id="text_4">
      <!-- 3 -->
      <g transform="translate(348.070826 534.775) scale(0.16 -0.16)">
       <defs>
        <path id="Georgia-33" d="M 1522 -1141 
Q 1228 -1141 984 -1067 
Q 741 -994 566 -869 
Q 391 -744 295 -581 
Q 200 -419 200 -247 
Q 200 -94 275 29 
Q 350 153 516 153 
Q 703 153 801 61 
Q 900 -31 900 -150 
Q 900 -250 867 -403 
Q 834 -556 816 -622 
Q 838 -650 895 -697 
Q 953 -744 1038 -781 
Q 1138 -828 1247 -856 
Q 1356 -884 1556 -884 
Q 1744 -884 1917 -821 
Q 2091 -759 2222 -622 
Q 2359 -478 2436 -286 
Q 2513 -94 2513 219 
Q 2513 388 2477 553 
Q 2441 719 2344 841 
Q 2247 963 2080 1030 
Q 1913 1097 1656 1097 
L 1247 1097 
L 1247 1456 
L 1519 1456 
Q 1950 1456 2140 1693 
Q 2331 1931 2331 2409 
Q 2331 2800 2147 2998 
Q 1963 3197 1625 3197 
Q 1463 3197 1358 3158 
Q 1253 3119 1188 3081 
Q 1109 3038 1059 2984 
Q 1009 2931 984 2906 
Q 1006 2806 1037 2661 
Q 1069 2516 1069 2384 
Q 1069 2269 970 2176 
Q 872 2084 681 2084 
Q 516 2084 439 2203 
Q 363 2322 363 2478 
Q 363 2641 453 2809 
Q 544 2978 722 3125 
Q 900 3272 1156 3362 
Q 1413 3453 1747 3453 
Q 2131 3453 2382 3339 
Q 2634 3225 2778 3063 
Q 2919 2903 2972 2728 
Q 3025 2553 3025 2428 
Q 3025 2272 2981 2114 
Q 2938 1956 2838 1822 
Q 2728 1675 2548 1554 
Q 2369 1434 2097 1359 
L 2097 1309 
Q 2272 1294 2470 1231 
Q 2669 1169 2828 1047 
Q 2994 919 3100 717 
Q 3206 516 3206 206 
Q 3206 -394 2725 -767 
Q 2244 -1141 1522 -1141 
z
" transform="scale(0.015625)"/>
       </defs>
       <use xlink:href="#Georgia-33"/>
      </g>
     </g>
    </g>
    <g id="xtick_5">
     <g id="line2d_9">
      <path d="M 441.646956 515.68 
L 441.646956 7.2 
" clip-path="url(#pf9827f8cd5)" style="fill: none; stroke: #b0b0b0; stroke-width: 0.8; stroke-linecap: square"/>
     </g>
     <g id="line2d_10">
      <g>
       <use xlink:href="#m5b62769ae1" x="441.646956" y="515.68" style="stroke: #000000; stroke-width: 0.8"/>
      </g>
     </g>
     <g id="text_5">
      <!-- 4 -->
      <g transform="translate(437.126956 534.775) scale(0.16 -0.16)">
       <defs>
        <path id="Georgia-34" d="M 3388 281 
L 2753 281 
L 2753 -1141 
L 2153 -1141 
L 2153 281 
L 153 281 
L 153 763 
L 2344 3434 
L 2753 3434 
L 2753 691 
L 3388 691 
L 3388 281 
z
M 2153 691 
L 2153 2738 
L 466 691 
L 2153 691 
z
" transform="scale(0.015625)"/>
       </defs>
       <use xlink:href="#Georgia-34"/>
      </g>
     </g>
    </g>
    <g id="xtick_6">
     <g id="line2d_11">
      <path d="M 530.809335 515.68 
L 530.809335 7.2 
" clip-path="url(#pf9827f8cd5)" style="fill: none; stroke: #b0b0b0; stroke-width: 0.8; stroke-linecap: square"/>
     </g>
     <g id="line2d_12">
      <g>
       <use xlink:href="#m5b62769ae1" x="530.809335" y="515.68" style="stroke: #000000; stroke-width: 0.8"/>
      </g>
     </g>
     <g id="text_6">
      <!-- 5 -->
      <g transform="translate(526.583085 534.775) scale(0.16 -0.16)">
       <defs>
        <path id="Georgia-35" d="M 2634 1466 
Q 2841 1303 2977 1047 
Q 3113 791 3113 406 
Q 3113 -266 2653 -703 
Q 2194 -1141 1488 -1141 
Q 941 -1141 562 -881 
Q 184 -622 184 -278 
Q 184 -119 262 0 
Q 341 119 503 119 
Q 691 119 789 20 
Q 888 -78 888 -194 
Q 888 -294 853 -444 
Q 819 -594 800 -666 
Q 825 -688 881 -725 
Q 938 -763 1016 -797 
Q 1097 -831 1214 -857 
Q 1331 -884 1488 -884 
Q 1688 -884 1866 -803 
Q 2044 -722 2166 -563 
Q 2300 -388 2367 -164 
Q 2434 59 2434 403 
Q 2434 844 2189 1133 
Q 1944 1422 1544 1422 
Q 1294 1422 1076 1328 
Q 859 1234 688 1016 
L 478 1097 
L 744 3353 
L 2981 3353 
L 2981 2797 
L 997 2797 
L 834 1472 
Q 975 1572 1204 1670 
Q 1434 1769 1709 1769 
Q 1938 1769 2183 1698 
Q 2428 1628 2634 1466 
z
" transform="scale(0.015625)"/>
       </defs>
       <use xlink:href="#Georgia-35"/>
      </g>
     </g>
    </g>
    <g id="xtick_7">
     <g id="line2d_13">
      <path d="M 619.971715 515.68 
L 619.971715 7.2 
" clip-path="url(#pf9827f8cd5)" style="fill: none; stroke: #b0b0b0; stroke-width: 0.8; stroke-linecap: square"/>
     </g>
     <g id="line2d_14">
      <g>
       <use xlink:href="#m5b62769ae1" x="619.971715" y="515.68" style="stroke: #000000; stroke-width: 0.8"/>
      </g>
     </g>
     <g id="text_7">
      <!-- 6 -->
      <g transform="translate(615.444215 534.775) scale(0.16 -0.16)">
       <defs>
        <path id="Georgia-36" d="M 3359 1441 
Q 3359 1116 3242 831 
Q 3125 547 2928 347 
Q 2700 119 2423 9 
Q 2147 -100 1847 -100 
Q 1500 -100 1219 28 
Q 938 156 741 391 
Q 541 628 431 972 
Q 322 1316 322 1744 
Q 322 2859 986 3625 
Q 1650 4391 2766 4544 
L 2822 4263 
L 2541 4213 
Q 1863 3994 1492 3531 
Q 1122 3069 1013 2409 
Q 1281 2644 1543 2741 
Q 1806 2838 2097 2838 
Q 2619 2838 2989 2438 
Q 3359 2038 3359 1441 
z
M 2681 1356 
Q 2681 1863 2448 2169 
Q 2216 2475 1825 2475 
Q 1591 2475 1389 2387 
Q 1188 2300 1000 2094 
Q 997 2056 990 1920 
Q 984 1784 984 1706 
Q 984 975 1223 561 
Q 1463 147 1853 147 
Q 2225 147 2453 470 
Q 2681 794 2681 1356 
z
" transform="scale(0.015625)"/>
       </defs>
       <use xlink:href="#Georgia-36"/>
      </g>
     </g>
    </g>
    <g id="text_8">
     <!-- $x$ -->
     <g transform="translate(359.109314 557.36375) scale(0.2 -0.2)">
      <defs>
       <path id="DejaVuSans-Oblique-78" d="M 3841 3500 
L 2234 1784 
L 3219 0 
L 2559 0 
L 1819 1388 
L 531 0 
L -166 0 
L 1556 1844 
L 641 3500 
L 1300 3500 
L 1972 2234 
L 3144 3500 
L 3841 3500 
z
" transform="scale(0.015625)"/>
      </defs>
      <use xlink:href="#DejaVuSans-Oblique-78" transform="translate(0 0.3125)"/>
     </g>
    </g>
   </g>
   <g id="matplotlib.axis_2">
    <g id="ytick_1">
     <g id="line2d_15">
      <path d="M 56.98625 492.762681 
L 673.232378 492.762681 
" clip-path="url(#pf9827f8cd5)" style="fill: none; stroke: #b0b0b0; stroke-width: 0.8; stroke-linecap: square"/>
     </g>
     <g id="line2d_16">
      <defs>
       <path id="m0f2f03501e" d="M 0 0 
L -3.5 0 
" style="stroke: #000000; stroke-width: 0.8"/>
      </defs>
      <g>
       <use xlink:href="#m0f2f03501e" x="56.98625" y="492.762681" style="stroke: #000000; stroke-width: 0.8"/>
      </g>
     </g>
     <g id="text_9">
      <!-- −4 -->
      <g transform="translate(30.65625 498.810181) scale(0.16 -0.16)">
       <defs>
        <path id="Georgia-2212" d="M 3650 1553 
L 466 1553 
L 466 1944 
L 3650 1944 
L 3650 1553 
z
" transform="scale(0.015625)"/>
       </defs>
       <use xlink:href="#Georgia-2212"/>
       <use xlink:href="#Georgia-34" x="64.306641"/>
      </g>
     </g>
    </g>
    <g id="ytick_2">
     <g id="line2d_17">
      <path d="M 56.98625 434.023433 
L 673.232378 434.023433 
" clip-path="url(#pf9827f8cd5)" style="fill: none; stroke: #b0b0b0; stroke-width: 0.8; stroke-linecap: square"/>
     </g>
     <g id="line2d_18">
      <g>
       <use xlink:href="#m0f2f03501e" x="56.98625" y="434.023433" style="stroke: #000000; stroke-width: 0.8"/>
      </g>
     </g>
     <g id="text_10">
      <!-- −3 -->
      <g transform="translate(30.86875 440.070933) scale(0.16 -0.16)">
       <use xlink:href="#Georgia-2212"/>
       <use xlink:href="#Georgia-33" x="64.306641"/>
      </g>
     </g>
    </g>
    <g id="ytick_3">
     <g id="line2d_19">
      <path d="M 56.98625 375.284186 
L 673.232378 375.284186 
" clip-path="url(#pf9827f8cd5)" style="fill: none; stroke: #b0b0b0; stroke-width: 0.8; stroke-linecap: square"/>
     </g>
     <g id="line2d_20">
      <g>
       <use xlink:href="#m0f2f03501e" x="56.98625" y="375.284186" style="stroke: #000000; stroke-width: 0.8"/>
      </g>
     </g>
     <g id="text_11">
      <!-- −2 -->
      <g transform="translate(30.75875 381.331686) scale(0.16 -0.16)">
       <use xlink:href="#Georgia-2212"/>
       <use xlink:href="#Georgia-32" x="64.306641"/>
      </g>
     </g>
    </g>
    <g id="ytick_4">
     <g id="line2d_21">
      <path d="M 56.98625 316.544938 
L 673.232378 316.544938 
" clip-path="url(#pf9827f8cd5)" style="fill: none; stroke: #b0b0b0; stroke-width: 0.8; stroke-linecap: square"/>
     </g>
     <g id="line2d_22">
      <g>
       <use xlink:href="#m0f2f03501e" x="56.98625" y="316.544938" style="stroke: #000000; stroke-width: 0.8"/>
      </g>
     </g>
     <g id="text_12">
      <!-- −1 -->
      <g transform="translate(32.82125 322.592438) scale(0.16 -0.16)">
       <use xlink:href="#Georgia-2212"/>
       <use xlink:href="#Georgia-31" x="64.306641"/>
      </g>
     </g>
    </g>
    <g id="ytick_5">
     <g id="line2d_23">
      <path d="M 56.98625 257.80569 
L 673.232378 257.80569 
" clip-path="url(#pf9827f8cd5)" style="fill: none; stroke: #b0b0b0; stroke-width: 0.8; stroke-linecap: square"/>
     </g>
     <g id="line2d_24">
      <g>
       <use xlink:href="#m0f2f03501e" x="56.98625" y="257.80569" style="stroke: #000000; stroke-width: 0.8"/>
      </g>
     </g>
     <g id="text_13">
      <!-- 0 -->
      <g transform="translate(40.16625 263.85319) scale(0.16 -0.16)">
       <use xlink:href="#Georgia-30"/>
      </g>
     </g>
    </g>
    <g id="ytick_6">
     <g id="line2d_25">
      <path d="M 56.98625 199.066443 
L 673.232378 199.066443 
" clip-path="url(#pf9827f8cd5)" style="fill: none; stroke: #b0b0b0; stroke-width: 0.8; stroke-linecap: square"/>
     </g>
     <g id="line2d_26">
      <g>
       <use xlink:href="#m0f2f03501e" x="56.98625" y="199.066443" style="stroke: #000000; stroke-width: 0.8"/>
      </g>
     </g>
     <g id="text_14">
      <!-- 1 -->
      <g transform="translate(43.11125 205.113943) scale(0.16 -0.16)">
       <use xlink:href="#Georgia-31"/>
      </g>
     </g>
    </g>
    <g id="ytick_7">
     <g id="line2d_27">
      <path d="M 56.98625 140.327195 
L 673.232378 140.327195 
" clip-path="url(#pf9827f8cd5)" style="fill: none; stroke: #b0b0b0; stroke-width: 0.8; stroke-linecap: square"/>
     </g>
     <g id="line2d_28">
      <g>
       <use xlink:href="#m0f2f03501e" x="56.98625" y="140.327195" style="stroke: #000000; stroke-width: 0.8"/>
      </g>
     </g>
     <g id="text_15">
      <!-- 2 -->
      <g transform="translate(41.04875 146.374695) scale(0.16 -0.16)">
       <use xlink:href="#Georgia-32"/>
      </g>
     </g>
    </g>
    <g id="ytick_8">
     <g id="line2d_29">
      <path d="M 56.98625 81.587948 
L 673.232378 81.587948 
" clip-path="url(#pf9827f8cd5)" style="fill: none; stroke: #b0b0b0; stroke-width: 0.8; stroke-linecap: square"/>
     </g>
     <g id="line2d_30">
      <g>
       <use xlink:href="#m0f2f03501e" x="56.98625" y="81.587948" style="stroke: #000000; stroke-width: 0.8"/>
      </g>
     </g>
     <g id="text_16">
      <!-- 3 -->
      <g transform="translate(41.15875 87.635448) scale(0.16 -0.16)">
       <use xlink:href="#Georgia-33"/>
      </g>
     </g>
    </g>
    <g id="ytick_9">
     <g id="line2d_31">
      <path d="M 56.98625 22.8487 
L 673.232378 22.8487 
" clip-path="url(#pf9827f8cd5)" style="fill: none; stroke: #b0b0b0; stroke-width: 0.8; stroke-linecap: square"/>
     </g>
     <g id="line2d_32">
      <g>
       <use xlink:href="#m0f2f03501e" x="56.98625" y="22.8487" style="stroke: #000000; stroke-width: 0.8"/>
      </g>
     </g>
     <g id="text_17">
      <!-- 4 -->
      <g transform="translate(40.94625 28.8962) scale(0.16 -0.16)">
       <use xlink:href="#Georgia-34"/>
      </g>
     </g>
    </g>
    <g id="text_18">
     <!-- $y$ -->
     <g transform="translate(22.31875 267.44) rotate(-90) scale(0.2 -0.2)">
      <defs>
       <path id="DejaVuSans-Oblique-79" d="M 1588 -325 
Q 1188 -997 936 -1164 
Q 684 -1331 294 -1331 
L -159 -1331 
L -63 -850 
L 269 -850 
Q 509 -850 678 -719 
Q 847 -588 1056 -206 
L 1234 128 
L 459 3500 
L 1069 3500 
L 1650 819 
L 3256 3500 
L 3859 3500 
L 1588 -325 
z
" transform="scale(0.015625)"/>
      </defs>
      <use xlink:href="#DejaVuSans-Oblique-79" transform="translate(0 0.3125)"/>
     </g>
    </g>
   </g>
   <g id="line2d_33">
    <path d="M 84.997438 257.80569 
L 364.828922 73.455621 
L 365.389706 442.15576 
L 645.22119 257.80569 
L 645.22119 257.80569 
" clip-path="url(#pf9827f8cd5)" style="fill: none; stroke: #000000; stroke-linecap: square"/>
   </g>
   <g id="line2d_34">
    <path d="M 84.997438 257.751804 
L 91.166068 253.740832 
L 97.334697 249.584401 
L 105.746466 244.323886 
L 113.597449 238.605196 
L 115.840587 237.41241 
L 119.766079 235.417342 
L 121.448433 234.339956 
L 123.691571 232.590679 
L 129.299416 227.909369 
L 130.98177 226.893705 
L 132.664123 226.116271 
L 137.1504 224.251414 
L 138.832753 223.191449 
L 140.515107 221.820261 
L 143.31903 219.09206 
L 145.562168 217.002393 
L 147.244521 215.769993 
L 148.926875 214.907019 
L 150.609229 214.346021 
L 153.973936 213.343492 
L 155.095505 212.797527 
L 156.217074 212.067008 
L 157.899427 210.61588 
L 160.142566 208.213415 
L 162.385704 205.800298 
L 164.068057 204.352398 
L 165.189626 203.650898 
L 166.311196 203.16683 
L 167.993549 202.764371 
L 170.797472 202.312172 
L 171.919041 201.94381 
L 173.04061 201.358892 
L 174.162179 200.525516 
L 175.283748 199.451385 
L 176.966102 197.501474 
L 179.770024 194.11137 
L 180.891594 193.000859 
L 182.013163 192.144602 
L 183.134732 191.56917 
L 184.256301 191.256134 
L 185.938654 191.133773 
L 188.181793 191.065503 
L 189.303362 190.813765 
L 190.424931 190.295677 
L 191.5465 189.467901 
L 192.668069 188.336287 
L 194.350422 186.202274 
L 197.154345 182.416117 
L 198.275914 181.188961 
L 199.397483 180.271646 
L 200.519052 179.701463 
L 201.640621 179.460293 
L 202.76219 179.47608 
L 206.126898 179.800508 
L 207.248467 179.540016 
L 208.370036 178.923518 
L 209.491605 177.921878 
L 210.613174 176.567722 
L 212.295528 174.086669 
L 214.538666 170.708347 
L 215.660235 169.338119 
L 216.781804 168.338882 
L 217.903373 167.762353 
L 219.024942 167.593015 
L 220.146511 167.74892 
L 223.511218 168.657006 
L 224.632787 168.541799 
L 225.754357 168.000569 
L 226.875926 166.99047 
L 227.997495 165.54356 
L 229.679848 162.797039 
L 231.922986 158.979152 
L 233.044556 157.43066 
L 234.166125 156.322306 
L 235.287694 155.725139 
L 235.848478 155.618407 
L 236.970047 155.743542 
L 238.091616 156.205748 
L 240.334754 157.368195 
L 241.456324 157.642929 
L 242.017108 157.621503 
L 242.577893 157.471999 
L 243.138677 157.183845 
L 243.699462 156.751964 
L 244.821031 155.465649 
L 245.9426 153.687144 
L 247.624953 150.453969 
L 249.307307 147.21482 
L 250.428876 145.438831 
L 251.550445 144.183869 
L 252.11123 143.785866 
L 252.672014 143.547184 
L 253.232799 143.464591 
L 253.793583 143.528473 
L 254.915152 144.027378 
L 256.597506 145.320635 
L 257.719075 146.178598 
L 258.840644 146.729198 
L 259.401429 146.818646 
L 259.962213 146.755288 
L 260.522998 146.524634 
L 261.083782 146.118796 
L 261.644567 145.536893 
L 262.766136 143.876898 
L 263.887705 141.675527 
L 267.252412 134.289307 
L 268.373981 132.499314 
L 268.934766 131.859327 
L 269.49555 131.409602 
L 270.056335 131.156069 
L 270.61712 131.09678 
L 271.177904 131.221875 
L 271.738689 131.513869 
L 272.860258 132.494397 
L 275.66418 135.562177 
L 276.224965 135.960689 
L 276.785749 136.202243 
L 277.346534 136.259708 
L 277.907318 136.113027 
L 278.468103 135.750132 
L 279.028888 135.167551 
L 279.589672 134.370674 
L 280.711241 132.199033 
L 281.83281 129.443491 
L 284.636733 122.147598 
L 285.758302 119.996077 
L 286.319087 119.23093 
L 286.879871 118.701621 
L 287.440656 118.418379 
L 288.00144 118.381611 
L 288.562225 118.581734 
L 289.123009 118.999402 
L 290.244578 120.365325 
L 293.609286 125.442429 
L 294.17007 125.905065 
L 294.730855 126.141445 
L 295.291639 126.123095 
L 295.852424 125.831386 
L 296.413208 125.258456 
L 296.973993 124.407708 
L 298.095562 121.942593 
L 299.217131 118.679441 
L 302.021054 109.715044 
L 303.142623 107.017011 
L 303.703407 106.056967 
L 304.264192 105.398524 
L 304.824976 105.059145 
L 305.385761 105.043694 
L 305.946545 105.343999 
L 306.50733 105.938936 
L 307.068114 106.795032 
L 308.189684 109.102207 
L 310.432822 114.357913 
L 311.554391 116.220743 
L 312.115175 116.746001 
L 312.67596 116.940319 
L 313.236744 116.77372 
L 313.797529 116.230207 
L 314.358313 115.308703 
L 314.919098 114.023419 
L 316.040667 110.492724 
L 317.723021 103.627092 
L 319.405374 96.669164 
L 320.526943 93.047509 
L 321.087728 91.749345 
L 321.648512 90.859631 
L 322.209297 90.409693 
L 322.770081 90.413842 
L 323.330866 90.868367 
L 323.891651 91.751233 
L 324.452435 93.022504 
L 325.574004 96.488534 
L 328.377927 106.509363 
L 328.938711 107.966796 
L 329.499496 109.029233 
L 330.06028 109.626541 
L 330.621065 109.705311 
L 331.18185 109.231501 
L 331.742634 108.192376 
L 332.303419 106.597672 
L 332.864203 104.479907 
L 333.985772 98.9148 
L 336.22891 85.152373 
L 337.350479 78.885258 
L 337.911264 76.343124 
L 338.472049 74.340854 
L 339.032833 72.966691 
L 339.593618 72.287024 
L 340.154402 72.342917 
L 340.715187 73.147476 
L 341.275971 74.684202 
L 341.836756 76.906407 
L 342.958325 83.073988 
L 346.323032 105.255261 
L 346.883817 107.694493 
L 347.444601 109.327756 
L 348.005386 110.023996 
L 348.56617 109.68131 
L 349.126955 108.232377 
L 349.687739 105.648913 
L 350.248524 101.944999 
L 350.809308 97.179101 
L 351.930877 84.919346 
L 355.295585 41.617433 
L 355.856369 36.406482 
L 356.417154 32.595238 
L 356.977938 30.475541 
L 357.538723 30.312727 
L 358.099507 32.336996 
L 358.660292 36.735589 
L 359.221076 43.646046 
L 359.781861 53.150767 
L 360.342645 65.273065 
L 361.464215 97.156138 
L 362.585784 138.256255 
L 364.268137 212.715032 
L 367.632844 370.881847 
L 368.754414 414.693093 
L 369.875983 449.726935 
L 370.997552 474.533927 
L 371.558336 482.915633 
L 372.119121 488.64213 
L 372.679905 491.80881 
L 373.24069 492.567273 
L 373.801474 491.119753 
L 374.362259 487.712195 
L 374.923043 482.626215 
L 376.044613 468.669881 
L 379.40932 419.75098 
L 380.530889 408.429445 
L 381.091673 404.518069 
L 381.652458 401.865333 
L 382.213242 400.481287 
L 382.774027 400.330763 
L 383.334812 401.336815 
L 383.895596 403.385378 
L 384.456381 406.330961 
L 385.57795 414.213726 
L 388.381872 436.434991 
L 389.503441 442.574569 
L 390.064226 444.536682 
L 390.62501 445.674293 
L 391.185795 445.964045 
L 391.74658 445.415273 
L 392.307364 444.068422 
L 392.868149 441.992397 
L 393.989718 436.048409 
L 395.672071 424.566701 
L 397.354425 413.375134 
L 398.475994 407.747716 
L 399.036779 405.752864 
L 399.597563 404.37138 
L 400.158348 403.622865 
L 400.719132 403.501954 
L 401.279917 403.979278 
L 401.840701 405.003302 
L 402.401486 406.50295 
L 403.523055 410.567354 
L 406.326978 421.951717 
L 406.887762 423.604878 
L 407.448547 424.854961 
L 408.009331 425.64928 
L 408.570116 425.954309 
L 409.1309 425.756481 
L 409.691685 425.062204 
L 410.252469 423.897107 
L 410.813254 422.304562 
L 411.934823 418.086039 
L 415.860315 401.208435 
L 416.421099 399.617435 
L 416.981884 398.408988 
L 417.542668 397.607566 
L 418.103453 397.221078 
L 418.664237 397.240928 
L 419.225022 397.642709 
L 419.785806 398.387506 
L 420.907376 400.689408 
L 424.272083 409.029946 
L 424.832867 409.889096 
L 425.393652 410.448683 
L 425.954436 410.677838 
L 426.515221 410.559373 
L 427.076005 410.090194 
L 427.63679 409.281145 
L 428.197574 408.156315 
L 429.319144 405.114209 
L 431.001497 399.378761 
L 432.683851 393.744162 
L 433.80542 390.828378 
L 434.366204 389.75427 
L 434.926989 388.970773 
L 435.487773 388.489189 
L 436.048558 388.308632 
L 436.609343 388.41627 
L 437.170127 388.788048 
L 437.730912 389.389828 
L 438.852481 391.105932 
L 441.095619 395.089641 
L 442.217188 396.49468 
L 442.777972 396.893934 
L 443.338757 397.051779 
L 443.899542 396.951126 
L 444.460326 396.585462 
L 445.021111 395.95893 
L 445.581895 395.086 
L 446.703464 392.705635 
L 448.385818 388.132189 
L 450.068171 383.493465 
L 451.189741 380.981941 
L 452.31131 379.255618 
L 452.872094 378.733697 
L 453.432879 378.445871 
L 453.993663 378.385356 
L 454.554448 378.536393 
L 455.115232 378.875016 
L 456.236801 379.984835 
L 459.040724 383.361872 
L 459.601509 383.803894 
L 460.162293 384.085438 
L 460.723078 384.182765 
L 461.283862 384.079834 
L 461.844647 383.768837 
L 462.405431 383.250396 
L 462.966216 382.533411 
L 464.087785 380.577703 
L 465.770139 376.778043 
L 468.013277 371.656647 
L 469.134846 369.71867 
L 469.69563 368.996958 
L 470.256415 368.458169 
L 470.817199 368.106604 
L 471.377984 367.939009 
L 471.938768 367.944814 
L 472.499553 368.106651 
L 473.621122 368.799897 
L 476.985829 371.487984 
L 477.546614 371.677093 
L 478.107398 371.722117 
L 478.668183 371.608333 
L 479.228967 371.327578 
L 479.789752 370.878478 
L 480.911321 369.503268 
L 482.03289 367.599748 
L 486.519166 359.117006 
L 487.640735 357.883455 
L 488.20152 357.492242 
L 488.762305 357.252043 
L 489.323089 357.155752 
L 489.883874 357.190586 
L 491.005443 357.577794 
L 494.37015 359.396383 
L 494.930934 359.508727 
L 495.491719 359.50691 
L 496.052504 359.377612 
L 496.613288 359.112796 
L 497.734857 358.172173 
L 498.856426 356.730495 
L 500.53878 353.914764 
L 502.781918 349.949781 
L 503.903487 348.320299 
L 505.025056 347.121098 
L 506.146625 346.414261 
L 507.268194 346.182553 
L 508.389763 346.334102 
L 510.072117 346.941692 
L 511.193686 347.330075 
L 512.315255 347.496435 
L 513.436824 347.303213 
L 514.558393 346.673078 
L 515.679962 345.599669 
L 516.801531 344.146853 
L 519.04467 340.629666 
L 520.727023 338.107494 
L 521.848592 336.764811 
L 522.970161 335.803491 
L 524.09173 335.249144 
L 525.213299 335.062381 
L 526.334869 335.146666 
L 529.138791 335.606761 
L 530.26036 335.505503 
L 531.381929 335.077449 
L 532.503498 334.281804 
L 533.625068 333.136969 
L 535.307421 330.936982 
L 538.111344 327.037373 
L 539.232913 325.776085 
L 540.354482 324.821466 
L 541.476051 324.199545 
L 542.59762 323.883013 
L 543.719189 323.796947 
L 547.083896 323.766639 
L 548.205465 323.446517 
L 549.327035 322.841896 
L 550.448604 321.93937 
L 551.570173 320.773071 
L 553.813311 317.976761 
L 556.056449 315.282681 
L 557.178018 314.217564 
L 558.299587 313.41306 
L 559.421156 312.871973 
L 560.542725 312.555304 
L 562.785863 312.279833 
L 564.468217 312.000888 
L 565.589786 311.614368 
L 566.711355 311.004061 
L 567.832924 310.156561 
L 569.515278 308.503639 
L 574.001554 303.610995 
L 575.123123 302.698657 
L 576.244692 301.99527 
L 577.366261 301.488146 
L 579.048615 300.99403 
L 581.852538 300.282327 
L 582.974107 299.826479 
L 584.095676 299.200392 
L 585.778029 297.924871 
L 587.460383 296.327688 
L 591.385875 292.461919 
L 593.068228 291.202309 
L 594.750582 290.283733 
L 596.99372 289.425438 
L 599.797643 288.351831 
L 601.479997 287.422329 
L 603.16235 286.204419 
L 605.405488 284.245714 
L 608.770196 281.280086 
L 610.452549 280.064467 
L 612.134903 279.080114 
L 614.938825 277.755989 
L 617.742748 276.348601 
L 619.985886 274.896238 
L 622.789809 272.71464 
L 626.154516 270.071242 
L 628.397654 268.556212 
L 631.762362 266.617497 
L 635.127069 264.646752 
L 638.491776 262.364635 
L 644.099621 258.472398 
L 645.22119 257.751804 
L 645.22119 257.751804 
" clip-path="url(#pf9827f8cd5)" style="fill: none; stroke: #a80000; stroke-width: 3; stroke-linecap: square"/>
   </g>
   <g id="line2d_35">
    <path d="M 89.374186 254.862622 
L 98.127682 249.123104 
L 106.881178 243.373171 
L 115.634674 237.616043 
L 124.38817 231.854188 
L 133.141666 226.089434 
L 141.895163 220.323088 
L 150.648659 214.556028 
L 159.402155 208.788799 
L 168.155651 203.021692 
L 176.909147 197.254816 
L 185.662643 191.48816 
L 194.416139 185.721646 
L 203.169635 179.955168 
L 211.923132 174.188631 
L 220.676628 168.421969 
L 229.430124 162.655162 
L 238.18362 156.888241 
L 246.937116 151.12128 
L 255.690612 145.354381 
L 264.444108 139.587653 
L 273.197605 133.821175 
L 281.951101 128.054952 
L 290.704597 122.288865 
L 299.458093 116.522604 
L 308.211589 110.755597 
L 316.965085 104.986929 
L 325.718581 99.215251 
L 334.472078 93.438673 
L 343.225574 87.654662 
L 351.97907 81.859913 
L 360.732566 76.050226 
L 369.486062 439.711148 
L 378.239558 433.841513 
L 386.993054 428.007069 
L 395.746551 422.198056 
L 404.500047 416.406777 
L 413.253543 410.627302 
L 422.007039 404.85519 
L 430.760535 399.087241 
L 439.514031 393.321266 
L 448.267527 387.555874 
L 457.021023 381.790286 
L 465.77452 376.024173 
L 474.528016 370.257506 
L 483.281512 364.490436 
L 492.035008 358.723195 
L 500.788504 352.956014 
L 509.542 347.189064 
L 518.295496 341.422424 
L 527.048993 335.656064 
L 535.802489 329.889851 
L 544.555985 324.123579 
L 553.309481 318.357019 
L 562.062977 312.589991 
L 570.816473 306.822457 
L 579.569969 301.054636 
L 588.323466 295.287142 
L 597.076962 289.521141 
L 605.830458 283.758528 
L 614.583954 278.002135 
L 623.33745 272.255948 
L 632.090946 266.525356 
L 640.844442 260.817414 
" clip-path="url(#pf9827f8cd5)" style="fill: none; stroke: #1f77b4; stroke-width: 3; stroke-linecap: square"/>
   </g>
   <g id="patch_3">
    <path d="M 56.98625 515.68 
L 56.98625 7.2 
" style="fill: none; stroke: #000000; stroke-width: 1.5; stroke-linejoin: miter; stroke-linecap: square"/>
   </g>
   <g id="patch_4">
    <path d="M 673.232378 515.68 
L 673.232378 7.2 
" style="fill: none; stroke: #000000; stroke-width: 1.5; stroke-linejoin: miter; stroke-linecap: square"/>
   </g>
   <g id="patch_5">
    <path d="M 56.98625 515.68 
L 673.232378 515.68 
" style="fill: none; stroke: #000000; stroke-width: 1.5; stroke-linejoin: miter; stroke-linecap: square"/>
   </g>
   <g id="patch_6">
    <path d="M 56.98625 7.2 
L 673.232378 7.2 
" style="fill: none; stroke: #000000; stroke-width: 1.5; stroke-linejoin: miter; stroke-linecap: square"/>
   </g>
   <g id="legend_1">
    <g id="patch_7">
     <path d="M 576.323003 59.384375 
L 666.232378 59.384375 
Q 668.232378 59.384375 668.232378 57.384375 
L 668.232378 14.2 
Q 668.232378 12.2 666.232378 12.2 
L 576.323003 12.2 
Q 574.323003 12.2 574.323003 14.2 
L 574.323003 57.384375 
Q 574.323003 59.384375 576.323003 59.384375 
z
" style="fill: #ffffff; opacity: 0.8; stroke: #cccccc; stroke-linejoin: miter"/>
    </g>
    <g id="line2d_36">
     <path d="M 578.323003 20.259375 
L 588.323003 20.259375 
L 598.323003 20.259375 
" style="fill: none; stroke: #000000; stroke-linecap: square"/>
    </g>
    <g id="text_19">
     <!-- Init -->
     <g transform="translate(606.323003 23.759375) scale(0.1 -0.1)">
      <defs>
       <path id="Georgia-49" d="M 2244 0 
L 247 0 
L 247 222 
Q 331 228 490 240 
Q 650 253 716 278 
Q 819 319 866 389 
Q 913 459 913 584 
L 913 3797 
Q 913 3906 878 3979 
Q 844 4053 716 4103 
Q 622 4141 480 4173 
Q 338 4206 247 4213 
L 247 4434 
L 2244 4434 
L 2244 4213 
Q 2147 4209 2012 4189 
Q 1878 4169 1778 4138 
Q 1659 4100 1618 4015 
Q 1578 3931 1578 3828 
L 1578 619 
Q 1578 516 1623 436 
Q 1669 356 1778 309 
Q 1844 284 1992 254 
Q 2141 225 2244 222 
L 2244 0 
z
" transform="scale(0.015625)"/>
       <path id="Georgia-6e" d="M 3628 0 
L 2119 0 
L 2119 206 
Q 2191 213 2277 219 
Q 2363 225 2419 244 
Q 2506 272 2548 342 
Q 2591 413 2591 525 
L 2591 2109 
Q 2591 2438 2436 2616 
Q 2281 2794 2059 2794 
Q 1894 2794 1756 2742 
Q 1619 2691 1513 2616 
Q 1409 2544 1348 2461 
Q 1288 2378 1259 2328 
L 1259 556 
Q 1259 450 1303 381 
Q 1347 313 1434 275 
Q 1500 244 1576 228 
Q 1653 213 1734 206 
L 1734 0 
L 225 0 
L 225 206 
Q 297 213 373 219 
Q 450 225 506 244 
Q 594 272 636 342 
Q 678 413 678 525 
L 678 2428 
Q 678 2534 633 2623 
Q 588 2713 506 2769 
Q 447 2806 365 2823 
Q 284 2841 191 2847 
L 191 3050 
L 1216 3119 
L 1259 3075 
L 1259 2641 
L 1275 2641 
Q 1350 2716 1462 2820 
Q 1575 2925 1675 2991 
Q 1791 3066 1950 3116 
Q 2109 3166 2309 3166 
Q 2753 3166 2967 2889 
Q 3181 2613 3181 2153 
L 3181 550 
Q 3181 441 3218 373 
Q 3256 306 3347 269 
Q 3422 238 3476 225 
Q 3531 213 3628 206 
L 3628 0 
z
" transform="scale(0.015625)"/>
       <path id="Georgia-69" d="M 1722 0 
L 231 0 
L 231 206 
Q 303 213 379 219 
Q 456 225 513 244 
Q 600 272 642 342 
Q 684 413 684 525 
L 684 2428 
Q 684 2528 639 2611 
Q 594 2694 513 2750 
Q 453 2788 340 2814 
Q 228 2841 134 2847 
L 134 3050 
L 1222 3119 
L 1266 3075 
L 1266 563 
Q 1266 453 1308 381 
Q 1350 309 1441 275 
Q 1509 247 1575 230 
Q 1641 213 1722 206 
L 1722 0 
z
M 1328 4334 
Q 1328 4156 1211 4023 
Q 1094 3891 922 3891 
Q 763 3891 645 4017 
Q 528 4144 528 4306 
Q 528 4478 645 4606 
Q 763 4734 922 4734 
Q 1100 4734 1214 4614 
Q 1328 4494 1328 4334 
z
" transform="scale(0.015625)"/>
       <path id="Georgia-74" d="M 2128 134 
Q 1925 50 1744 -8 
Q 1563 -66 1300 -66 
Q 913 -66 755 129 
Q 597 325 597 681 
L 597 2769 
L 41 2769 
L 41 3069 
L 609 3069 
L 609 4028 
L 1178 4028 
L 1178 3069 
L 2063 3069 
L 2063 2769 
L 1184 2769 
L 1184 1047 
Q 1184 853 1198 723 
Q 1213 594 1266 497 
Q 1316 406 1416 359 
Q 1516 313 1684 313 
Q 1763 313 1914 327 
Q 2066 341 2128 363 
L 2128 134 
z
" transform="scale(0.015625)"/>
      </defs>
      <use xlink:href="#Georgia-49"/>
      <use xlink:href="#Georgia-6e" x="38.964844"/>
      <use xlink:href="#Georgia-69" x="98.046875"/>
      <use xlink:href="#Georgia-74" x="127.34375"/>
     </g>
    </g>
    <g id="line2d_37">
     <path d="M 578.323003 34.9875 
L 588.323003 34.9875 
L 598.323003 34.9875 
" style="fill: none; stroke: #a80000; stroke-width: 3; stroke-linecap: square"/>
    </g>
    <g id="text_20">
     <!-- 64, t=1.0 -->
     <g transform="translate(606.323003 38.4875) scale(0.1 -0.1)">
      <defs>
       <path id="Georgia-2c" d="M 1341 109 
Q 1341 -116 1239 -316 
Q 1138 -516 1006 -659 
Q 872 -809 722 -925 
Q 572 -1041 447 -1106 
L 303 -897 
Q 453 -803 572 -709 
Q 691 -616 766 -522 
Q 859 -413 925 -284 
Q 991 -156 1009 6 
L 850 6 
Q 641 6 523 115 
Q 406 225 406 409 
Q 406 541 512 664 
Q 619 788 803 788 
Q 1072 788 1206 608 
Q 1341 428 1341 109 
z
" transform="scale(0.015625)"/>
       <path id="Georgia-20" transform="scale(0.015625)"/>
       <path id="Georgia-3d" d="M 3634 2134 
L 481 2134 
L 481 2525 
L 3634 2525 
L 3634 2134 
z
M 3634 972 
L 481 972 
L 481 1363 
L 3634 1363 
L 3634 972 
z
" transform="scale(0.015625)"/>
       <path id="Georgia-2e" d="M 1297 359 
Q 1297 184 1170 60 
Q 1044 -63 869 -63 
Q 694 -63 567 60 
Q 441 184 441 359 
Q 441 534 567 661 
Q 694 788 869 788 
Q 1044 788 1170 661 
Q 1297 534 1297 359 
z
" transform="scale(0.015625)"/>
      </defs>
      <use xlink:href="#Georgia-36"/>
      <use xlink:href="#Georgia-34" x="56.591797"/>
      <use xlink:href="#Georgia-2c" x="113.085938"/>
      <use xlink:href="#Georgia-20" x="140.039062"/>
      <use xlink:href="#Georgia-74" x="164.160156"/>
      <use xlink:href="#Georgia-3d" x="198.681641"/>
      <use xlink:href="#Georgia-31" x="262.988281"/>
      <use xlink:href="#Georgia-2e" x="305.957031"/>
      <use xlink:href="#Georgia-30" x="332.910156"/>
     </g>
    </g>
    <g id="line2d_38">
     <path d="M 578.323003 49.715625 
L 588.323003 49.715625 
L 598.323003 49.715625 
" style="fill: none; stroke: #1f77b4; stroke-width: 3; stroke-linecap: square"/>
    </g>
    <g id="text_21">
     <!-- 64, t=1.0,ggb -->
     <g transform="translate(606.323003 53.215625) scale(0.1 -0.1)">
      <defs>
       <path id="Georgia-67" d="M 2866 319 
Q 2991 200 3062 50 
Q 3134 -100 3134 -322 
Q 3134 -544 3037 -739 
Q 2941 -934 2744 -1078 
Q 2534 -1225 2243 -1306 
Q 1953 -1388 1525 -1388 
Q 825 -1388 478 -1183 
Q 131 -978 131 -584 
Q 131 -266 381 -81 
Q 631 103 1019 119 
L 1019 163 
Q 925 191 825 233 
Q 725 275 653 331 
Q 572 397 522 486 
Q 472 575 472 706 
Q 472 872 589 1011 
Q 706 1150 944 1250 
L 944 1297 
Q 644 1438 478 1658 
Q 313 1878 313 2169 
Q 313 2606 639 2887 
Q 966 3169 1475 3169 
Q 1616 3169 1755 3141 
Q 1894 3113 2038 3069 
L 3113 3069 
L 3113 2769 
L 2388 2769 
L 2388 2750 
Q 2503 2616 2559 2453 
Q 2616 2291 2616 2134 
Q 2616 1728 2286 1447 
Q 1956 1166 1519 1166 
L 1141 1166 
Q 1069 1141 991 1075 
Q 913 1009 913 897 
Q 913 781 978 720 
Q 1044 659 1138 638 
Q 1228 613 1348 606 
Q 1469 600 1597 597 
Q 1734 594 1973 578 
Q 2213 563 2313 559 
Q 2456 553 2601 490 
Q 2747 428 2866 319 
z
M 2022 2147 
Q 2022 2513 1873 2730 
Q 1725 2947 1456 2947 
Q 1309 2947 1204 2886 
Q 1100 2825 1034 2713 
Q 972 2609 945 2464 
Q 919 2319 919 2166 
Q 919 1819 1070 1600 
Q 1222 1381 1463 1381 
Q 1731 1381 1876 1598 
Q 2022 1816 2022 2147 
z
M 2622 -438 
Q 2622 -263 2540 -150 
Q 2459 -38 2294 3 
Q 2206 16 1934 31 
Q 1663 47 1303 47 
Q 966 -19 823 -173 
Q 681 -328 681 -572 
Q 681 -681 728 -781 
Q 775 -881 891 -966 
Q 1000 -1047 1184 -1098 
Q 1369 -1150 1634 -1150 
Q 2094 -1150 2358 -973 
Q 2622 -797 2622 -438 
z
" transform="scale(0.015625)"/>
       <path id="Georgia-62" d="M 3353 1544 
Q 3353 850 2915 378 
Q 2478 -94 1900 -94 
Q 1647 -94 1401 -15 
Q 1156 63 941 194 
L 709 -166 
L 516 -122 
Q 531 109 537 434 
Q 544 759 544 1063 
L 544 4113 
Q 544 4219 495 4325 
Q 447 4431 372 4478 
Q 313 4519 173 4539 
Q 34 4559 -50 4566 
L -50 4766 
L 1081 4838 
L 1125 4791 
L 1125 2759 
L 1147 2753 
Q 1341 2959 1570 3062 
Q 1800 3166 2022 3166 
Q 2591 3166 2972 2716 
Q 3353 2266 3353 1544 
z
M 2700 1522 
Q 2700 1753 2650 1993 
Q 2600 2234 2494 2413 
Q 2388 2594 2216 2706 
Q 2044 2819 1803 2819 
Q 1584 2819 1420 2733 
Q 1256 2647 1125 2500 
L 1125 706 
Q 1144 631 1198 531 
Q 1253 431 1347 341 
Q 1441 253 1559 198 
Q 1678 144 1850 144 
Q 2231 144 2465 512 
Q 2700 881 2700 1522 
z
" transform="scale(0.015625)"/>
      </defs>
      <use xlink:href="#Georgia-36"/>
      <use xlink:href="#Georgia-34" x="56.591797"/>
      <use xlink:href="#Georgia-2c" x="113.085938"/>
      <use xlink:href="#Georgia-20" x="140.039062"/>
      <use xlink:href="#Georgia-74" x="164.160156"/>
      <use xlink:href="#Georgia-3d" x="198.681641"/>
      <use xlink:href="#Georgia-31" x="262.988281"/>
      <use xlink:href="#Georgia-2e" x="305.957031"/>
      <use xlink:href="#Georgia-30" x="332.910156"/>
      <use xlink:href="#Georgia-2c" x="394.287109"/>
      <use xlink:href="#Georgia-67" x="421.240234"/>
      <use xlink:href="#Georgia-67" x="472.167969"/>
      <use xlink:href="#Georgia-62" x="523.095703"/>
     </g>
    </g>
   </g>
  </g>
  <g id="axes_2">
   <g id="patch_8">
    <path d="M 747.142799 515.68 
L 993.64125 515.68 
L 993.64125 7.2 
L 747.142799 7.2 
L 747.142799 515.68 
z
" style="fill: none"/>
   </g>
   <g id="matplotlib.axis_3">
    <g id="xtick_8">
     <g id="line2d_39">
      <path d="M 758.347274 515.68 
L 758.347274 7.2 
" clip-path="url(#p02563964b2)" style="fill: none; stroke: #b0b0b0; stroke-width: 0.8; stroke-linecap: square"/>
     </g>
     <g id="line2d_40">
      <g>
       <use xlink:href="#m5b62769ae1" x="758.347274" y="515.68" style="stroke: #000000; stroke-width: 0.8"/>
      </g>
     </g>
     <g id="text_22">
      <!-- 0 -->
      <g transform="translate(753.437274 534.775) scale(0.16 -0.16)">
       <use xlink:href="#Georgia-30"/>
      </g>
     </g>
    </g>
    <g id="xtick_9">
     <g id="line2d_41">
      <path d="M 829.677177 515.68 
L 829.677177 7.2 
" clip-path="url(#p02563964b2)" style="fill: none; stroke: #b0b0b0; stroke-width: 0.8; stroke-linecap: square"/>
     </g>
     <g id="line2d_42">
      <g>
       <use xlink:href="#m5b62769ae1" x="829.677177" y="515.68" style="stroke: #000000; stroke-width: 0.8"/>
      </g>
     </g>
     <g id="text_23">
      <!-- 2 -->
      <g transform="translate(825.208427 534.775) scale(0.16 -0.16)">
       <use xlink:href="#Georgia-32"/>
      </g>
     </g>
    </g>
    <g id="xtick_10">
     <g id="line2d_43">
      <path d="M 901.007081 515.68 
L 901.007081 7.2 
" clip-path="url(#p02563964b2)" style="fill: none; stroke: #b0b0b0; stroke-width: 0.8; stroke-linecap: square"/>
     </g>
     <g id="line2d_44">
      <g>
       <use xlink:href="#m5b62769ae1" x="901.007081" y="515.68" style="stroke: #000000; stroke-width: 0.8"/>
      </g>
     </g>
     <g id="text_24">
      <!-- 4 -->
      <g transform="translate(896.487081 534.775) scale(0.16 -0.16)">
       <use xlink:href="#Georgia-34"/>
      </g>
     </g>
    </g>
    <g id="xtick_11">
     <g id="line2d_45">
      <path d="M 972.336985 515.68 
L 972.336985 7.2 
" clip-path="url(#p02563964b2)" style="fill: none; stroke: #b0b0b0; stroke-width: 0.8; stroke-linecap: square"/>
     </g>
     <g id="line2d_46">
      <g>
       <use xlink:href="#m5b62769ae1" x="972.336985" y="515.68" style="stroke: #000000; stroke-width: 0.8"/>
      </g>
     </g>
     <g id="text_25">
      <!-- 6 -->
      <g transform="translate(967.809485 534.775) scale(0.16 -0.16)">
       <use xlink:href="#Georgia-36"/>
      </g>
     </g>
    </g>
    <g id="text_26">
     <!-- $x$ -->
     <g transform="translate(864.392024 557.36375) scale(0.2 -0.2)">
      <use xlink:href="#DejaVuSans-Oblique-78" transform="translate(0 0.3125)"/>
     </g>
    </g>
   </g>
   <g id="matplotlib.axis_4">
    <g id="ytick_10">
     <g id="line2d_47">
      <path d="M 747.142799 456.70503 
L 993.64125 456.70503 
" clip-path="url(#p02563964b2)" style="fill: none; stroke: #b0b0b0; stroke-width: 0.8; stroke-linecap: square"/>
     </g>
     <g id="line2d_48">
      <g>
       <use xlink:href="#m0f2f03501e" x="747.142799" y="456.70503" style="stroke: #000000; stroke-width: 0.8"/>
      </g>
     </g>
     <g id="text_27">
      <!-- $\mathdefault{10^{-8}}$ -->
      <g transform="translate(708.942799 462.75253) scale(0.16 -0.16)">
       <defs>
        <path id="Georgia-38" d="M 3491 1175 
Q 3491 650 3037 272 
Q 2584 -106 1847 -106 
Q 1156 -106 740 241 
Q 325 588 325 1134 
Q 325 1538 570 1808 
Q 816 2078 1297 2266 
Q 900 2488 703 2753 
Q 506 3019 506 3353 
Q 506 3863 939 4206 
Q 1372 4550 1975 4550 
Q 2578 4550 2951 4225 
Q 3325 3900 3325 3409 
Q 3325 3094 3119 2811 
Q 2913 2528 2513 2347 
Q 3031 2125 3261 1856 
Q 3491 1588 3491 1175 
z
M 2734 3444 
Q 2734 3825 2507 4064 
Q 2281 4303 1928 4303 
Q 1575 4303 1350 4073 
Q 1125 3844 1125 3503 
Q 1125 3175 1381 2947 
Q 1638 2719 2294 2459 
Q 2528 2609 2631 2856 
Q 2734 3103 2734 3444 
z
M 2866 1028 
Q 2866 1225 2781 1373 
Q 2697 1522 2538 1644 
Q 2384 1763 2111 1892 
Q 1838 2022 1519 2156 
Q 1219 1994 1078 1742 
Q 938 1491 938 1169 
Q 938 709 1208 426 
Q 1478 144 1928 144 
Q 2359 144 2612 394 
Q 2866 644 2866 1028 
z
" transform="scale(0.015625)"/>
       </defs>
       <use xlink:href="#Georgia-31" transform="translate(0 0.535938)"/>
       <use xlink:href="#Georgia-30" transform="translate(42.96875 0.535938)"/>
       <use xlink:href="#Georgia-2212" transform="translate(105.188164 34.234375) scale(0.7)"/>
       <use xlink:href="#Georgia-38" transform="translate(150.202812 34.234375) scale(0.7)"/>
      </g>
     </g>
    </g>
    <g id="ytick_11">
     <g id="line2d_49">
      <path d="M 747.142799 356.081897 
L 993.64125 356.081897 
" clip-path="url(#p02563964b2)" style="fill: none; stroke: #b0b0b0; stroke-width: 0.8; stroke-linecap: square"/>
     </g>
     <g id="line2d_50">
      <g>
       <use xlink:href="#m0f2f03501e" x="747.142799" y="356.081897" style="stroke: #000000; stroke-width: 0.8"/>
      </g>
     </g>
     <g id="text_28">
      <!-- $\mathdefault{10^{-6}}$ -->
      <g transform="translate(709.262799 362.129397) scale(0.16 -0.16)">
       <use xlink:href="#Georgia-31" transform="translate(0 0.601562)"/>
       <use xlink:href="#Georgia-30" transform="translate(42.96875 0.601562)"/>
       <use xlink:href="#Georgia-2212" transform="translate(105.188164 34.3) scale(0.7)"/>
       <use xlink:href="#Georgia-36" transform="translate(150.202812 34.3) scale(0.7)"/>
      </g>
     </g>
    </g>
    <g id="ytick_12">
     <g id="line2d_51">
      <path d="M 747.142799 255.458764 
L 993.64125 255.458764 
" clip-path="url(#p02563964b2)" style="fill: none; stroke: #b0b0b0; stroke-width: 0.8; stroke-linecap: square"/>
     </g>
     <g id="line2d_52">
      <g>
       <use xlink:href="#m0f2f03501e" x="747.142799" y="255.458764" style="stroke: #000000; stroke-width: 0.8"/>
      </g>
     </g>
     <g id="text_29">
      <!-- $\mathdefault{10^{-4}}$ -->
      <g transform="translate(709.262799 261.506264) scale(0.16 -0.16)">
       <use xlink:href="#Georgia-31" transform="translate(0 0.742188)"/>
       <use xlink:href="#Georgia-30" transform="translate(42.96875 0.742188)"/>
       <use xlink:href="#Georgia-2212" transform="translate(105.188164 34.440625) scale(0.7)"/>
       <use xlink:href="#Georgia-34" transform="translate(150.202812 34.440625) scale(0.7)"/>
      </g>
     </g>
    </g>
    <g id="ytick_13">
     <g id="line2d_53">
      <path d="M 747.142799 154.835631 
L 993.64125 154.835631 
" clip-path="url(#p02563964b2)" style="fill: none; stroke: #b0b0b0; stroke-width: 0.8; stroke-linecap: square"/>
     </g>
     <g id="line2d_54">
      <g>
       <use xlink:href="#m0f2f03501e" x="747.142799" y="154.835631" style="stroke: #000000; stroke-width: 0.8"/>
      </g>
     </g>
     <g id="text_30">
      <!-- $\mathdefault{10^{-2}}$ -->
      <g transform="translate(709.422799 160.883131) scale(0.16 -0.16)">
       <use xlink:href="#Georgia-31" transform="translate(0 0.534375)"/>
       <use xlink:href="#Georgia-30" transform="translate(42.96875 0.534375)"/>
       <use xlink:href="#Georgia-2212" transform="translate(105.188164 34.232813) scale(0.7)"/>
       <use xlink:href="#Georgia-32" transform="translate(150.202812 34.232813) scale(0.7)"/>
      </g>
     </g>
    </g>
    <g id="ytick_14">
     <g id="line2d_55">
      <path d="M 747.142799 54.212499 
L 993.64125 54.212499 
" clip-path="url(#p02563964b2)" style="fill: none; stroke: #b0b0b0; stroke-width: 0.8; stroke-linecap: square"/>
     </g>
     <g id="line2d_56">
      <g>
       <use xlink:href="#m0f2f03501e" x="747.142799" y="54.212499" style="stroke: #000000; stroke-width: 0.8"/>
      </g>
     </g>
     <g id="text_31">
      <!-- $\mathdefault{10^{0}}$ -->
      <g transform="translate(715.982799 60.259999) scale(0.16 -0.16)">
       <use xlink:href="#Georgia-31" transform="translate(0 0.534375)"/>
       <use xlink:href="#Georgia-30" transform="translate(42.96875 0.534375)"/>
       <use xlink:href="#Georgia-30" transform="translate(105.188164 34.232813) scale(0.7)"/>
      </g>
     </g>
    </g>
    <g id="text_32">
     <!-- $|y-y_{exact}|$ -->
     <g transform="translate(700.142799 311.94) rotate(-90) scale(0.2 -0.2)">
      <defs>
       <path id="DejaVuSans-7c" d="M 1344 4891 
L 1344 -1509 
L 813 -1509 
L 813 4891 
L 1344 4891 
z
" transform="scale(0.015625)"/>
       <path id="DejaVuSans-2212" d="M 678 2272 
L 4684 2272 
L 4684 1741 
L 678 1741 
L 678 2272 
z
" transform="scale(0.015625)"/>
       <path id="DejaVuSans-Oblique-65" d="M 3078 2063 
Q 3088 2113 3092 2166 
Q 3097 2219 3097 2272 
Q 3097 2653 2873 2875 
Q 2650 3097 2266 3097 
Q 1838 3097 1509 2826 
Q 1181 2556 1013 2059 
L 3078 2063 
z
M 3578 1613 
L 903 1613 
Q 884 1494 878 1425 
Q 872 1356 872 1306 
Q 872 872 1139 634 
Q 1406 397 1894 397 
Q 2269 397 2603 481 
Q 2938 566 3225 728 
L 3116 159 
Q 2806 34 2476 -28 
Q 2147 -91 1806 -91 
Q 1078 -91 686 257 
Q 294 606 294 1247 
Q 294 1794 489 2264 
Q 684 2734 1063 3103 
Q 1306 3334 1642 3459 
Q 1978 3584 2356 3584 
Q 2950 3584 3301 3228 
Q 3653 2872 3653 2272 
Q 3653 2128 3634 1964 
Q 3616 1800 3578 1613 
z
" transform="scale(0.015625)"/>
       <path id="DejaVuSans-Oblique-61" d="M 3438 1997 
L 3047 0 
L 2472 0 
L 2578 531 
Q 2325 219 2001 64 
Q 1678 -91 1281 -91 
Q 834 -91 548 182 
Q 263 456 263 884 
Q 263 1497 752 1853 
Q 1241 2209 2100 2209 
L 2900 2209 
L 2931 2363 
Q 2938 2388 2941 2417 
Q 2944 2447 2944 2509 
Q 2944 2788 2717 2942 
Q 2491 3097 2081 3097 
Q 1800 3097 1504 3025 
Q 1209 2953 897 2809 
L 997 3341 
Q 1322 3463 1633 3523 
Q 1944 3584 2234 3584 
Q 2853 3584 3176 3315 
Q 3500 3047 3500 2534 
Q 3500 2431 3484 2292 
Q 3469 2153 3438 1997 
z
M 2816 1759 
L 2241 1759 
Q 1534 1759 1195 1570 
Q 856 1381 856 984 
Q 856 709 1029 553 
Q 1203 397 1509 397 
Q 1978 397 2328 733 
Q 2678 1069 2791 1631 
L 2816 1759 
z
" transform="scale(0.015625)"/>
       <path id="DejaVuSans-Oblique-63" d="M 3431 3366 
L 3316 2797 
Q 3109 2947 2876 3022 
Q 2644 3097 2394 3097 
Q 2119 3097 1870 3000 
Q 1622 2903 1453 2725 
Q 1184 2453 1037 2087 
Q 891 1722 891 1331 
Q 891 859 1127 628 
Q 1363 397 1844 397 
Q 2081 397 2348 469 
Q 2616 541 2906 684 
L 2797 116 
Q 2547 13 2283 -39 
Q 2019 -91 1741 -91 
Q 1044 -91 669 257 
Q 294 606 294 1253 
Q 294 1797 489 2255 
Q 684 2713 1069 3078 
Q 1331 3328 1684 3456 
Q 2038 3584 2456 3584 
Q 2700 3584 2940 3529 
Q 3181 3475 3431 3366 
z
" transform="scale(0.015625)"/>
       <path id="DejaVuSans-Oblique-74" d="M 2706 3500 
L 2619 3053 
L 1472 3053 
L 1100 1153 
Q 1081 1047 1072 975 
Q 1063 903 1063 863 
Q 1063 663 1183 572 
Q 1303 481 1569 481 
L 2150 481 
L 2053 0 
L 1503 0 
Q 991 0 739 200 
Q 488 400 488 806 
Q 488 878 497 964 
Q 506 1050 525 1153 
L 897 3053 
L 409 3053 
L 500 3500 
L 978 3500 
L 1172 4494 
L 1747 4494 
L 1556 3500 
L 2706 3500 
z
" transform="scale(0.015625)"/>
      </defs>
      <use xlink:href="#DejaVuSans-7c" transform="translate(0 0.578125)"/>
      <use xlink:href="#DejaVuSans-Oblique-79" transform="translate(33.691406 0.578125)"/>
      <use xlink:href="#DejaVuSans-2212" transform="translate(112.353516 0.578125)"/>
      <use xlink:href="#DejaVuSans-Oblique-79" transform="translate(215.625 0.578125)"/>
      <use xlink:href="#DejaVuSans-Oblique-65" transform="translate(274.804688 -15.828125) scale(0.7)"/>
      <use xlink:href="#DejaVuSans-Oblique-78" transform="translate(317.871094 -15.828125) scale(0.7)"/>
      <use xlink:href="#DejaVuSans-Oblique-61" transform="translate(359.296875 -15.828125) scale(0.7)"/>
      <use xlink:href="#DejaVuSans-Oblique-63" transform="translate(402.192383 -15.828125) scale(0.7)"/>
      <use xlink:href="#DejaVuSans-Oblique-74" transform="translate(440.678711 -15.828125) scale(0.7)"/>
      <use xlink:href="#DejaVuSans-7c" transform="translate(470.859375 0.578125)"/>
     </g>
    </g>
   </g>
   <g id="line2d_57">
    <path d="M 758.347274 207.031183 
L 758.571588 213.591438 
L 758.795901 224.318035 
L 759.020215 246.584253 
L 759.244529 256.608211 
L 759.468843 231.598678 
L 759.693157 223.010899 
L 759.917471 219.781094 
L 760.141784 220.261688 
L 760.366098 224.868205 
L 760.590412 237.287716 
L 760.814726 293.506603 
L 761.03904 229.938643 
L 761.487667 204.727048 
L 761.936295 193.874094 
L 762.384922 189.065684 
L 762.609236 188.443567 
L 762.83355 189.039055 
L 763.057864 191.053779 
L 763.282178 194.959628 
L 763.506492 201.908034 
L 763.730805 215.722438 
L 763.955119 294.742406 
L 764.179433 212.54538 
L 764.628061 188.254012 
L 765.076688 178.023823 
L 765.525316 173.252014 
L 765.74963 172.37151 
L 765.973944 172.447881 
L 766.198257 173.552591 
L 766.422571 175.870873 
L 766.646885 179.79363 
L 766.871199 186.197135 
L 767.095513 197.587925 
L 767.319826 229.694446 
L 767.768454 189.596039 
L 768.217082 173.236278 
L 768.665709 165.76613 
L 769.114337 162.826232 
L 769.338651 162.751678 
L 769.562965 163.62943 
L 769.787278 165.587581 
L 770.011592 168.901587 
L 770.235906 174.153553 
L 770.46022 182.774577 
L 770.684534 200.061096 
L 770.908847 226.492475 
L 771.133161 189.296575 
L 771.581789 168.662551 
L 772.030417 159.969284 
L 772.479044 156.292272 
L 772.703358 155.870264 
L 772.927672 156.360319 
L 773.151986 157.838376 
L 773.376299 160.489867 
L 773.600613 164.698991 
L 773.824927 171.316592 
L 774.049241 182.736647 
L 774.273555 213.054755 
L 774.946496 166.762694 
L 775.395124 156.208085 
L 775.843751 151.524889 
L 776.068065 150.673825 
L 776.292379 150.722533 
L 776.516693 151.70083 
L 776.741007 153.726249 
L 776.96532 157.053195 
L 777.189634 162.213283 
L 777.413948 170.477021 
L 777.638262 186.206819 
L 777.862576 231.969912 
L 778.08689 180.980712 
L 778.535517 159.164704 
L 778.984145 150.334986 
L 779.432772 146.653757 
L 779.657086 146.232832 
L 779.8814 146.712216 
L 780.105714 148.155595 
L 780.330028 150.72854 
L 780.554341 154.774686 
L 780.778655 161.039001 
L 781.002969 171.508763 
L 781.227283 195.710512 
L 781.451597 193.36473 
L 781.675911 170.109558 
L 782.124538 152.85181 
L 782.573166 145.418115 
L 782.79748 143.543466 
L 783.021793 142.626541 
L 783.246107 142.607374 
L 783.470421 143.503127 
L 783.694735 145.41435 
L 783.919049 148.565578 
L 784.143363 153.421874 
L 784.367676 161.055896 
L 784.59199 174.824306 
L 784.816304 234.919311 
L 785.040618 177.296161 
L 785.489245 153.011824 
L 785.937873 143.678253 
L 786.386501 139.74753 
L 786.610815 139.222549 
L 786.835128 139.592218 
L 787.059442 140.905224 
L 787.283756 143.3047 
L 787.50807 147.091019 
L 787.732384 152.90227 
L 787.956697 162.349847 
L 788.405325 196.452376 
L 788.629639 166.401081 
L 789.078266 147.44761 
L 789.526894 139.529083 
L 789.975522 136.45313 
L 790.199836 136.30504 
L 790.424149 137.060969 
L 790.648463 138.803551 
L 790.872777 141.727575 
L 791.097091 146.235054 
L 791.321405 153.222984 
L 791.545718 165.271039 
L 791.770032 199.209253 
L 792.21866 157.973019 
L 792.667288 142.550382 
L 793.115915 135.839913 
L 793.340229 134.233042 
L 793.564543 133.562019 
L 793.788857 133.783913 
L 794.01317 134.931788 
L 794.237484 137.126834 
L 794.461798 140.629196 
L 794.686112 145.982766 
L 794.910426 154.494983 
L 795.134739 170.731207 
L 795.359053 210.803087 
L 795.583367 164.492947 
L 796.031995 143.267912 
L 796.480622 134.74143 
L 796.92925 131.310571 
L 797.153564 131.005688 
L 797.377878 131.597337 
L 797.602191 133.150504 
L 797.826505 135.832262 
L 798.050819 139.988737 
L 798.275133 146.370724 
L 798.499447 156.986375 
L 798.723761 181.558473 
L 798.948074 178.520015 
L 799.172388 155.590968 
L 799.621016 138.570002 
L 800.069643 131.312894 
L 800.293957 129.519008 
L 800.518271 128.679428 
L 800.742585 128.734625 
L 800.966899 129.701906 
L 801.191212 131.681702 
L 801.415526 134.898035 
L 801.63984 139.814549 
L 801.864154 147.499501 
L 802.088468 161.288395 
L 802.312782 220.126231 
L 802.537095 164.081068 
L 802.985723 139.843114 
L 803.434351 130.607483 
L 803.882978 126.775294 
L 804.107292 126.297496 
L 804.331606 126.712136 
L 804.55592 128.067058 
L 804.780234 130.503962 
L 805.004547 134.320316 
L 805.228861 140.147044 
L 805.453175 149.571293 
L 805.901803 184.881638 
L 806.126116 154.169677 
L 806.574744 135.15764 
L 807.023372 127.279229 
L 807.471999 124.255024 
L 807.696313 124.131978 
L 807.920627 124.910618 
L 808.144941 126.671851 
L 808.369255 129.607527 
L 808.593568 134.113451 
L 808.817882 141.069791 
L 809.042196 152.986879 
L 809.26651 185.609522 
L 809.715137 146.411921 
L 810.163765 130.896066 
L 810.612393 124.18799 
L 810.836707 122.589282 
L 811.06102 121.927111 
L 811.285334 122.156704 
L 811.509648 123.309223 
L 811.733962 125.503159 
L 811.958276 128.99374 
L 812.182589 134.313573 
L 812.406903 142.735257 
L 812.631217 158.631159 
L 812.855531 204.220524 
L 813.079845 153.626025 
L 813.528472 132.094878 
L 813.9771 123.520232 
L 814.425728 120.075392 
L 814.650041 119.765466 
L 814.874355 120.350315 
L 815.098669 121.892401 
L 815.322983 124.554878 
L 815.547297 128.676096 
L 815.77161 134.987149 
L 815.995924 145.424011 
L 816.220238 169.040365 
L 816.444552 168.771499 
L 816.668866 144.970369 
L 817.117493 127.701639 
L 817.566121 120.378829 
L 817.790435 118.565641 
L 818.014749 117.709261 
L 818.239062 117.747453 
L 818.463376 118.694993 
L 818.68769 120.64903 
L 818.912004 123.827977 
L 819.136318 128.683328 
L 819.360631 136.248633 
L 819.584945 149.69815 
L 819.809259 200.475181 
L 820.033573 154.043699 
L 820.482201 129.218756 
L 820.930828 119.865437 
L 821.379456 115.970692 
L 821.60377 115.466008 
L 821.828083 115.85266 
L 822.052397 117.175523 
L 822.276711 119.571992 
L 822.501025 123.331479 
L 822.725339 129.065669 
L 822.949653 138.297952 
L 823.39828 176.856528 
L 823.622594 144.009237 
L 824.071222 124.585363 
L 824.519849 116.584243 
L 824.968477 113.481448 
L 825.192791 113.321933 
L 825.417104 114.061862 
L 825.641418 115.778573 
L 825.865732 118.658177 
L 826.090046 123.084707 
L 826.31436 129.906966 
L 826.538674 141.50875 
L 826.762987 171.843579 
L 827.435929 126.381902 
L 827.884556 116.154054 
L 828.333184 111.777738 
L 828.557498 111.069812 
L 828.781812 111.25327 
L 829.006126 112.356008 
L 829.230439 114.492108 
L 829.454753 117.908979 
L 829.679067 123.121605 
L 829.903381 131.349038 
L 830.127695 146.676694 
L 830.352008 204.359717 
L 830.576322 143.536744 
L 831.02495 121.387695 
L 831.473577 112.634682 
L 831.922205 109.071059 
L 832.146519 108.706376 
L 832.370833 109.234821 
L 832.595147 110.715144 
L 832.81946 113.304892 
L 833.043774 117.331514 
L 833.268088 123.498864 
L 833.492402 133.64513 
L 833.716716 155.977232 
L 833.941029 159.652387 
L 834.165343 134.415839 
L 834.613971 116.691726 
L 835.062599 109.188953 
L 835.286912 107.306468 
L 835.511226 106.385019 
L 835.73554 106.358527 
L 835.959854 107.238297 
L 836.184168 109.117108 
L 836.408481 112.206069 
L 836.632795 116.941089 
L 836.857109 124.31188 
L 837.081423 137.295018 
L 837.305737 180.988963 
L 837.53005 143.639671 
L 837.978678 117.907251 
L 838.427306 108.31471 
L 838.875933 104.257023 
L 839.100247 103.677316 
L 839.324561 103.987964 
L 839.548875 105.2301 
L 839.773189 107.535845 
L 839.997502 111.184899 
L 840.221816 116.766111 
L 840.44613 125.728612 
L 840.894758 168.781662 
L 841.119072 132.705415 
L 841.567699 112.66563 
L 842.016327 104.426811 
L 842.464954 101.142725 
L 842.689268 100.896429 
L 842.913582 101.547184 
L 843.137896 103.168206 
L 843.36221 105.939147 
L 843.586523 110.230999 
L 843.810837 116.858378 
L 844.035151 128.070723 
L 844.259465 156.143946 
L 844.483779 144.526577 
L 844.708093 123.854647 
L 845.15672 107.535189 
L 845.605348 100.453114 
L 845.829662 98.701718 
L 846.053975 97.893287 
L 846.278289 97.975994 
L 846.502603 98.974256 
L 846.726917 100.997636 
L 846.951231 104.285745 
L 847.175545 109.336297 
L 847.399858 117.316839 
L 847.624172 132.047347 
L 847.848486 215.011979 
L 848.0728 130.680696 
L 848.521427 107.754196 
L 848.970055 98.69913 
L 849.418683 94.89476 
L 849.642996 94.414472 
L 849.86731 94.826003 
L 850.091624 96.184907 
L 850.315938 98.644179 
L 850.540252 102.522716 
L 850.764566 108.503463 
L 850.988879 118.35123 
L 851.213193 139.679188 
L 851.437507 146.469841 
L 851.661821 119.870865 
L 852.110448 101.613039 
L 852.559076 93.804581 
L 853.007704 90.731117 
L 853.232018 90.572416 
L 853.456331 91.318879 
L 853.680645 93.061349 
L 853.904959 96.008188 
L 854.129273 100.589935 
L 854.353587 107.78179 
L 854.5779 120.496825 
L 854.802214 162.201101 
L 855.026528 127.294524 
L 855.475156 100.999909 
L 855.923783 91.0816 
L 856.372411 86.723742 
L 856.596725 85.99769 
L 856.821039 86.164619 
L 857.045352 87.26715 
L 857.269666 89.440727 
L 857.49398 92.972334 
L 857.718294 98.469043 
L 857.942608 107.44025 
L 858.391235 146.326006 
L 858.615549 112.729206 
L 859.064177 92.754209 
L 859.512804 84.265182 
L 859.961432 80.691944 
L 860.185746 80.307628 
L 860.41006 80.836274 
L 860.634373 82.365524 
L 860.858687 85.101851 
L 861.083001 89.475024 
L 861.307315 96.461306 
L 861.531629 108.982428 
L 861.755943 150.736426 
L 861.980256 115.237342 
L 862.428884 88.543977 
L 862.877512 78.185543 
L 863.326139 73.390823 
L 863.550453 72.457498 
L 863.774767 72.434573 
L 863.999081 73.37925 
L 864.223394 75.454789 
L 864.447708 79.007811 
L 864.672022 84.798651 
L 864.896336 94.881227 
L 865.12065 119.449762 
L 865.344964 113.920993 
L 865.569277 90.81123 
L 866.017905 72.460963 
L 866.466533 63.66055 
L 866.91516 59.363999 
L 867.139474 58.554991 
L 867.363788 58.648953 
L 867.588102 59.768 
L 867.812416 62.183865 
L 868.036729 66.480077 
L 868.261043 74.109125 
L 868.709671 113.287612 
L 868.933985 76.189376 
L 869.382612 52.570718 
L 869.83124 40.027103 
L 870.279867 31.497789 
L 870.504181 30.312727 
L 870.952809 38.45464 
L 871.401437 50.444005 
L 871.62575 59.294364 
L 871.850064 72.663523 
L 872.074378 103.520882 
L 872.298692 91.776958 
L 872.523006 73.202359 
L 872.971633 60.120115 
L 873.420261 55.866973 
L 873.644575 55.419032 
L 873.868889 55.846992 
L 874.093202 57.100163 
L 874.54183 62.247989 
L 874.990458 72.281282 
L 875.214771 80.708512 
L 875.439085 94.748586 
L 875.663399 140.234209 
L 875.887713 102.700112 
L 876.33634 78.864525 
L 876.784968 70.959748 
L 877.009282 69.204276 
L 877.233596 68.467295 
L 877.45791 68.624219 
L 877.682223 69.636861 
L 877.906537 71.539373 
L 878.355165 78.619869 
L 878.579479 84.566533 
L 878.803792 93.513379 
L 879.028106 109.560486 
L 879.25242 167.177989 
L 879.476734 107.66628 
L 879.925362 86.823794 
L 880.373989 79.296341 
L 880.598303 77.597214 
L 880.822617 76.89362 
L 881.046931 77.0828 
L 881.271244 78.143703 
L 881.495558 80.129321 
L 881.944186 87.617477 
L 882.1685 94.066334 
L 882.392813 104.15639 
L 882.841441 138.939241 
L 883.065755 109.776186 
L 883.514383 92.00594 
L 883.96301 85.180449 
L 884.187324 83.679904 
L 884.411638 83.14336 
L 884.635952 83.493635 
L 884.860265 84.731067 
L 885.084579 86.933565 
L 885.533207 95.170407 
L 885.757521 102.423838 
L 885.981835 114.387021 
L 886.206148 144.441191 
L 886.87909 101.437965 
L 887.327717 92.026547 
L 887.776345 88.472515 
L 888.000659 88.168425 
L 888.224973 88.74765 
L 888.449286 90.234859 
L 888.6736 92.738778 
L 889.122228 101.998324 
L 889.346542 110.390214 
L 889.570856 125.379963 
L 889.795169 266.927664 
L 890.019483 125.845925 
L 890.468111 103.576981 
L 890.916738 95.397244 
L 891.141052 93.432908 
L 891.365366 92.486451 
L 891.58968 92.449926 
L 891.813994 93.299545 
L 892.038308 95.087042 
L 892.486935 102.220512 
L 892.711249 108.52141 
L 892.935563 118.509978 
L 893.38419 151.890998 
L 893.608504 123.232992 
L 894.057132 105.314297 
L 894.505759 98.263328 
L 894.730073 96.652283 
L 894.954387 96.010631 
L 895.178701 96.263381 
L 895.403015 97.413602 
L 895.627329 99.543516 
L 896.075956 107.720629 
L 896.30027 115.052102 
L 896.524584 127.374495 
L 896.748898 160.785737 
L 897.197525 121.623471 
L 897.646153 106.83749 
L 898.094781 100.815526 
L 898.319094 99.552926 
L 898.543408 99.223154 
L 898.767722 99.781482 
L 898.992036 101.258706 
L 899.21635 103.772373 
L 899.664977 113.195628 
L 899.889291 121.888564 
L 900.113605 137.936001 
L 900.337919 187.007914 
L 900.562232 134.158105 
L 901.01086 113.088886 
L 901.459488 105.101377 
L 901.683802 103.174931 
L 901.908115 102.254613 
L 902.132429 102.241961 
L 902.356743 103.120902 
L 902.581057 104.951935 
L 903.029684 112.281398 
L 903.253998 118.825244 
L 903.478312 129.399822 
L 903.702626 152.508543 
L 903.92694 155.053188 
L 904.151254 130.684379 
L 904.599881 113.767134 
L 905.048509 106.964759 
L 905.272823 105.423287 
L 905.497136 104.840103 
L 905.72145 105.150306 
L 905.945764 106.366066 
L 906.170078 108.581011 
L 906.618705 117.083436 
L 906.843019 124.804801 
L 907.067333 138.174526 
L 907.291647 183.017943 
L 907.515961 144.886259 
L 907.964588 119.927801 
L 908.413216 111.012084 
L 908.861844 107.619037 
L 909.086157 107.369983 
L 909.310471 108.010655 
L 909.534785 109.582326 
L 909.759099 112.217123 
L 910.207727 122.102938 
L 910.43204 131.389218 
L 910.880668 175.255982 
L 911.104982 139.401612 
L 911.553609 120.008169 
L 912.002237 112.428644 
L 912.226551 110.623735 
L 912.450865 109.806404 
L 912.675178 109.891237 
L 912.899492 110.872844 
L 913.123806 112.823915 
L 913.572434 120.53927 
L 913.796748 127.481228 
L 914.021061 138.975824 
L 914.245375 167.035886 
L 914.469689 156.533171 
L 914.694003 136.021515 
L 915.14263 120.321584 
L 915.591258 113.904959 
L 915.815572 112.490776 
L 916.039886 112.020845 
L 916.2642 112.442501 
L 916.488513 113.779233 
L 916.712827 116.139218 
L 917.161455 125.131913 
L 917.385769 133.40649 
L 917.610082 148.314769 
L 917.834396 260.430092 
L 918.05871 148.344999 
L 918.507338 125.907464 
L 918.955965 117.524236 
L 919.404593 114.419563 
L 919.628907 114.292544 
L 919.853221 115.05754 
L 920.077534 116.768254 
L 920.301848 119.574709 
L 920.750476 130.08197 
L 920.97479 140.164348 
L 921.199103 161.252667 
L 921.423417 170.842045 
L 921.647731 143.602874 
L 922.096359 125.867357 
L 922.544986 118.765497 
L 922.7693 117.115239 
L 922.993614 116.433496 
L 923.217928 116.648813 
L 923.442242 117.767727 
L 923.666555 119.877126 
L 924.115183 128.086946 
L 924.339497 135.535837 
L 924.563811 148.255555 
L 924.788125 185.741455 
L 925.236752 140.61479 
L 925.68538 126.125088 
L 926.134007 120.145325 
L 926.358321 118.884714 
L 926.582635 118.55481 
L 926.806949 119.115895 
L 927.031263 120.604017 
L 927.255576 123.144231 
L 927.704204 132.740512 
L 927.928518 141.709928 
L 928.152832 158.743947 
L 928.377146 193.261314 
L 928.601459 151.568051 
L 929.050087 131.37753 
L 929.498715 123.560169 
L 929.723028 121.675194 
L 929.947342 120.787499 
L 930.171656 120.805925 
L 930.39597 121.720479 
L 930.620284 123.598724 
L 931.068911 131.112324 
L 931.293225 137.870381 
L 931.517539 148.962252 
L 931.741853 174.781733 
L 931.966167 169.53122 
L 932.19048 147.636793 
L 932.639108 131.440965 
L 933.087736 124.845691 
L 933.312049 123.368969 
L 933.536363 122.843055 
L 933.760677 123.210677 
L 933.984991 124.491143 
L 934.209305 126.787344 
L 934.657932 135.583615 
L 934.882246 143.649357 
L 935.10656 157.978778 
L 935.330874 225.76565 
L 935.555188 160.28739 
L 936.003815 137.025028 
L 936.452443 128.452592 
L 936.901071 125.243635 
L 937.125384 125.073422 
L 937.349698 125.795611 
L 937.574012 127.459919 
L 937.798326 130.210695 
L 938.246953 140.52137 
L 938.471267 150.350165 
L 938.919895 184.475069 
L 939.144209 155.162774 
L 939.592836 136.959679 
L 940.041464 129.725992 
L 940.265778 128.035609 
L 940.490092 127.320263 
L 940.714405 127.5045 
L 940.938719 128.591493 
L 941.163033 130.664186 
L 941.611661 138.754491 
L 941.835974 146.072707 
L 942.060288 158.456343 
L 942.284602 192.804966 
L 942.73323 152.092847 
L 943.181857 137.324629 
L 943.630485 131.260419 
L 943.854799 129.975332 
L 944.079113 129.625391 
L 944.303426 130.167698 
L 944.52774 131.635279 
L 944.752054 134.149185 
L 945.200682 143.638391 
L 945.424995 152.461275 
L 945.649309 168.986975 
L 945.873623 209.792696 
L 946.097937 163.485963 
L 946.546565 142.871654 
L 946.995192 134.976685 
L 947.219506 133.076737 
L 947.44382 132.180343 
L 947.668134 132.193037 
L 947.892447 133.10227 
L 948.116761 134.972859 
L 948.565389 142.444071 
L 948.789703 149.139569 
L 949.014017 160.060714 
L 949.23833 184.877325 
L 949.462644 182.367892 
L 949.686958 159.695794 
L 950.135586 143.298076 
L 950.584213 136.679686 
L 950.808527 135.207057 
L 951.032841 134.68962 
L 951.257155 135.067762 
L 951.481468 136.358778 
L 951.705782 138.663146 
L 952.15441 147.448337 
L 952.378724 155.462249 
L 952.603038 169.586354 
L 952.827351 228.999068 
L 953.051665 172.996944 
L 953.500293 149.431977 
L 953.94892 140.861971 
L 954.397548 137.698513 
L 954.621862 137.556979 
L 954.846176 138.309556 
L 955.07049 140.004565 
L 955.294803 142.784529 
L 955.743431 153.131679 
L 955.967745 162.934578 
L 956.416372 198.295402 
L 956.640686 168.326664 
L 957.089314 150.08568 
L 957.537941 142.926593 
L 957.762255 141.283888 
L 957.986569 140.620013 
L 958.210883 140.858535 
L 958.435197 142.002007 
L 958.659511 144.13288 
L 959.108138 152.342038 
L 959.332452 159.717618 
L 959.556766 172.146818 
L 959.78108 206.373123 
L 960.229707 166.084912 
L 960.678335 151.449902 
L 961.126963 145.541104 
L 961.351276 144.338642 
L 961.57559 144.074493 
L 961.799904 144.706034 
L 962.024218 146.266884 
L 962.248532 148.879243 
L 962.697159 158.593565 
L 962.921473 167.566309 
L 963.145787 184.371725 
L 963.370101 222.870094 
L 963.594414 178.479994 
L 964.043042 158.242548 
L 964.49167 150.611334 
L 964.715984 148.840326 
L 964.940297 148.074948 
L 965.164611 148.222574 
L 965.388925 149.272572 
L 965.613239 151.292412 
L 966.061866 159.110519 
L 966.28618 166.037089 
L 966.510494 177.325553 
L 966.734808 203.53108 
L 966.959122 197.875175 
L 967.183436 176.310871 
L 967.632063 160.524066 
L 968.080691 154.325967 
L 968.305005 153.055211 
L 968.529318 152.742595 
L 968.753632 153.33274 
L 968.977946 154.847609 
L 969.20226 157.394476 
L 969.650887 166.78493 
L 969.875201 175.269036 
L 970.099515 190.389749 
L 970.323829 305.601831 
L 970.548143 190.91744 
L 970.99677 168.97158 
L 971.445398 161.128727 
L 971.669712 159.353638 
L 971.894026 158.613533 
L 972.118339 158.803426 
L 972.342653 159.903846 
L 972.566967 161.973555 
L 973.015595 169.830256 
L 973.239909 176.664922 
L 973.464222 187.556782 
L 973.688536 211.074506 
L 973.91285 213.638388 
L 974.137164 189.725441 
L 974.585791 173.584202 
L 975.034419 167.619256 
L 975.258733 166.531742 
L 975.483047 166.431548 
L 975.70736 167.25971 
L 975.931674 169.037444 
L 976.380302 176.009582 
L 976.604616 181.948552 
L 976.82893 190.874989 
L 977.053243 206.692065 
L 977.277557 279.330465 
L 977.501871 206.667395 
L 977.950499 186.058743 
L 978.399126 179.364215 
L 978.62344 178.216097 
L 978.847754 178.159757 
L 979.072068 179.107766 
L 979.296382 181.065012 
L 979.745009 188.528069 
L 980.193637 203.880955 
L 980.417951 219.463913 
L 980.642264 294.013901 
L 980.866578 223.962759 
L 981.090892 210.549864 
L 981.315206 204.199359 
L 981.53952 201.054993 
L 981.763833 200.003043 
L 981.988147 200.64784 
L 982.212461 202.922865 
L 982.436775 207.031183 
L 982.436775 207.031183 
" clip-path="url(#p02563964b2)" style="fill: none; stroke: #a80000; stroke-width: 3; stroke-linecap: square"/>
   </g>
   <g id="line2d_58">
    <path d="M 758.347274 119.623976 
L 758.795901 125.940657 
L 759.244529 134.861849 
L 759.693157 150.193488 
L 759.917471 165.716312 
L 760.141784 204.913086 
L 761.487667 209.144458 
L 762.609236 213.429111 
L 764.628061 221.659228 
L 765.74963 226.393679 
L 766.646885 231.094094 
L 767.319826 234.771091 
L 768.441395 239.723149 
L 769.338651 244.694674 
L 770.235906 251.141196 
L 770.684534 254.848227 
L 771.581789 259.889427 
L 772.479044 266.45395 
L 773.151986 273.116975 
L 773.824927 282.750836 
L 774.273555 290.108259 
L 774.946496 298.310053 
L 775.395124 306.218717 
L 775.843751 318.737292 
L 776.068065 329.420839 
L 776.292379 351.180813 
L 776.516693 358.753649 
L 776.741007 331.92288 
L 777.189634 312.664817 
L 777.638262 303.082908 
L 778.984145 298.888722 
L 780.330028 295.371431 
L 781.002969 293.804581 
L 781.227283 293.830828 
L 782.79748 297.480722 
L 784.143363 301.182222 
L 784.59199 302.569869 
L 785.489245 307.273927 
L 786.386501 313.316651 
L 787.059442 319.282479 
L 787.732384 327.515565 
L 788.405325 339.045085 
L 788.853953 350.021616 
L 789.078266 358.651942 
L 789.30258 373.123997 
L 789.526894 434.349592 
L 789.751208 375.951133 
L 790.199836 350.962828 
L 790.648463 339.609756 
L 791.321405 329.233167 
L 791.770032 325.25737 
L 792.891601 320.954961 
L 794.237484 316.709171 
L 795.134739 314.355949 
L 797.826505 316.891749 
L 798.499447 317.574507 
L 798.723761 318.095838 
L 799.84533 322.683863 
L 800.742585 327.205217 
L 801.63984 332.912992 
L 802.312782 338.799339 
L 802.985723 348.134849 
L 803.434351 357.728434 
L 803.882978 375.236929 
L 804.331606 407.497886 
L 804.55592 378.977385 
L 805.004547 359.328297 
L 805.453175 349.152673 
L 805.901803 343.218661 
L 806.799058 335.507145 
L 807.696313 329.818674 
L 808.817882 324.313848 
L 809.26651 322.876504 
L 811.733962 320.173615 
L 812.631217 319.303059 
L 814.201414 322.437264 
L 815.77161 326.097559 
L 815.995924 326.674354 
L 816.220238 327.594549 
L 817.117493 333.80352 
L 817.790435 339.98728 
L 818.463376 348.64392 
L 818.912004 357.202652 
L 819.360631 371.469916 
L 819.584945 384.958402 
L 819.809259 492.567273 
L 820.033573 384.68243 
L 820.482201 360.573483 
L 820.930828 349.391138 
L 821.60377 339.109858 
L 822.276711 332.146324 
L 823.173966 325.448871 
L 824.295535 320.563508 
L 825.417104 316.573332 
L 826.538674 313.200534 
L 826.762987 312.930333 
L 830.127695 312.167873 
L 831.249264 316.266457 
L 832.370833 321.31557 
L 833.268088 326.40999 
L 833.492402 327.893557 
L 833.716716 330.216104 
L 834.165343 338.869293 
L 834.613971 353.407295 
L 834.838285 367.386414 
L 835.062599 416.852633 
L 835.286912 372.478657 
L 835.73554 346.641461 
L 836.184168 335.131153 
L 836.857109 324.667804 
L 837.978678 312.229148 
L 838.875933 305.406983 
L 839.773189 300.215714 
L 840.670444 296.071928 
L 842.016327 292.284946 
L 843.586523 288.564069 
L 844.035151 287.607789 
L 844.259465 287.58128 
L 846.278289 290.520756 
L 847.624172 292.725967 
L 848.0728 298.462446 
L 848.521427 306.421574 
L 848.970055 319.069205 
L 849.194369 329.940713 
L 849.418683 352.550267 
L 849.642996 357.035297 
L 849.86731 331.431074 
L 850.315938 312.481295 
L 850.764566 302.487912 
L 851.213193 294.123411 
L 851.661821 283.370899 
L 852.334762 273.334801 
L 853.007704 266.483542 
L 853.904959 259.783031 
L 854.802214 253.842438 
L 855.69947 246.495187 
L 856.596725 241.006558 
L 857.718294 235.652602 
L 858.166921 233.744014 
L 859.064177 228.361016 
L 860.185746 223.087792 
L 861.307315 218.843002 
L 861.755943 217.118995 
L 862.877512 211.992302 
L 863.999081 207.842824 
L 865.793591 201.604174 
L 866.91516 197.633658 
L 868.261043 193.660946 
L 868.485357 193.063767 
L 868.709671 100.360328 
L 868.933985 68.337152 
L 869.382612 47.985545 
L 869.83124 37.634069 
L 870.279867 30.638727 
L 870.504181 30.657704 
L 870.952809 37.660211 
L 871.401437 48.027545 
L 871.62575 55.933142 
L 871.850064 68.44391 
L 872.074378 100.826407 
L 872.298692 173.549623 
L 873.644575 177.322916 
L 874.766144 181.056768 
L 876.33634 186.529734 
L 877.45791 190.275634 
L 878.579479 194.799364 
L 879.476734 198.570404 
L 880.598303 202.660664 
L 881.719872 207.697129 
L 883.514383 216.47081 
L 884.411638 220.805708 
L 885.308893 226.218964 
L 886.87909 236.733816 
L 887.776345 242.625279 
L 888.449286 248.396111 
L 889.122228 256.260522 
L 890.019483 268.941215 
L 890.692425 277.609506 
L 891.141052 286.185328 
L 891.58968 300.501243 
L 891.813994 314.076642 
L 892.038308 357.247022 
L 892.262621 321.173058 
L 892.711249 294.538371 
L 893.159877 283.023207 
L 894.281446 278.35792 
L 895.627329 273.822027 
L 896.524584 271.248961 
L 896.748898 271.059166 
L 898.543408 274.135308 
L 900.113605 277.235508 
L 900.786546 279.877645 
L 901.683802 284.108468 
L 902.581057 289.360116 
L 903.253998 294.33903 
L 904.375567 304.998621 
L 905.048509 314.588405 
L 905.497136 324.591288 
L 905.72145 332.083767 
L 905.945764 343.57683 
L 906.170078 369.318994 
L 906.394392 364.473185 
L 906.618705 341.967421 
L 907.067333 323.901796 
L 907.515961 317.313403 
L 908.188902 311.044008 
L 909.086157 304.770505 
L 909.983413 299.90223 
L 910.656354 296.852298 
L 913.796748 295.87484 
L 914.021061 295.807133 
L 914.245375 295.972738 
L 915.591258 299.508333 
L 916.937141 303.728599 
L 917.610082 306.189853 
L 918.283024 310.315081 
L 918.955965 315.548947 
L 919.628907 322.445127 
L 920.077534 328.655397 
L 920.526162 337.364416 
L 920.97479 352.064597 
L 921.199103 365.977869 
L 921.423417 401.722989 
L 921.872045 358.382481 
L 922.320673 341.783561 
L 922.7693 332.460315 
L 923.442242 323.297057 
L 924.115183 316.860847 
L 924.788125 312.304944 
L 926.134007 308.146932 
L 927.47989 304.655095 
L 928.152832 303.098338 
L 929.050087 303.682557 
L 931.517539 305.484108 
L 931.741853 305.879158 
L 932.863422 310.562153 
L 933.760677 315.199339 
L 934.657932 321.093384 
L 935.10656 324.768644 
L 935.555188 331.029817 
L 936.003815 340.299807 
L 936.452443 356.725206 
L 936.676757 374.680368 
L 936.901071 402.930912 
L 937.125384 365.119551 
L 937.574012 343.861645 
L 938.02264 333.293458 
L 938.695581 323.401729 
L 939.592836 315.585597 
L 940.490092 309.840676 
L 941.611661 304.29367 
L 942.284602 301.824798 
L 944.52774 298.992012 
L 945.649309 297.702409 
L 946.322251 299.238059 
L 947.668134 302.874301 
L 949.014017 307.238907 
L 949.23833 308.449707 
L 949.911272 316.366871 
L 950.359899 323.884972 
L 950.808527 335.439247 
L 951.032841 344.799709 
L 951.257155 361.520963 
L 951.481468 403.034036 
L 951.705782 355.802341 
L 952.15441 333.542656 
L 952.827351 318.027494 
L 953.500293 307.278953 
L 954.173234 300.106448 
L 955.07049 293.178444 
L 955.967745 287.926332 
L 956.416372 286.043712 
L 957.762255 281.926076 
L 959.108138 278.462732 
L 959.556766 277.420391 
L 959.78108 277.359291 
L 961.351276 280.852331 
L 962.697159 284.367084 
L 963.145787 285.676631 
L 963.594414 294.578109 
L 964.043042 311.344988 
L 964.49167 352.21138 
L 964.715984 318.188132 
L 965.164611 297.491454 
L 965.613239 287.05615 
L 966.28618 277.205936 
L 966.734808 271.703507 
L 967.407749 259.979661 
L 968.080691 252.39111 
L 968.977946 245.176794 
L 969.875201 239.762393 
L 970.099515 238.595205 
L 971.669712 226.932015 
L 972.791281 221.143046 
L 973.91285 215.938686 
L 974.810105 210.919786 
L 975.931674 205.930199 
L 978.174812 196.762142 
L 979.296382 192.44685 
L 980.642264 188.190609 
L 981.090892 148.220283 
L 981.53952 133.861354 
L 982.212461 121.979602 
L 982.436775 119.120118 
L 982.436775 119.120118 
" clip-path="url(#p02563964b2)" style="fill: none; stroke: #1f77b4; stroke-width: 3; stroke-linecap: square"/>
   </g>
   <g id="patch_9">
    <path d="M 747.142799 515.68 
L 747.142799 7.2 
" style="fill: none; stroke: #000000; stroke-width: 1.5; stroke-linejoin: miter; stroke-linecap: square"/>
   </g>
   <g id="patch_10">
    <path d="M 993.64125 515.68 
L 993.64125 7.2 
" style="fill: none; stroke: #000000; stroke-width: 1.5; stroke-linejoin: miter; stroke-linecap: square"/>
   </g>
   <g id="patch_11">
    <path d="M 747.142799 515.68 
L 993.64125 515.68 
" style="fill: none; stroke: #000000; stroke-width: 1.5; stroke-linejoin: miter; stroke-linecap: square"/>
   </g>
   <g id="patch_12">
    <path d="M 747.142799 7.2 
L 993.64125 7.2 
" style="fill: none; stroke: #000000; stroke-width: 1.5; stroke-linejoin: miter; stroke-linecap: square"/>
   </g>
   <g id="legend_2">
    <g id="patch_13">
     <path d="M 896.731875 44.65625 
L 986.64125 44.65625 
Q 988.64125 44.65625 988.64125 42.65625 
L 988.64125 14.2 
Q 988.64125 12.2 986.64125 12.2 
L 896.731875 12.2 
Q 894.731875 12.2 894.731875 14.2 
L 894.731875 42.65625 
Q 894.731875 44.65625 896.731875 44.65625 
z
" style="fill: #ffffff; opacity: 0.8; stroke: #cccccc; stroke-linejoin: miter"/>
    </g>
    <g id="line2d_59">
     <path d="M 898.731875 20.259375 
L 908.731875 20.259375 
L 918.731875 20.259375 
" style="fill: none; stroke: #a80000; stroke-width: 3; stroke-linecap: square"/>
    </g>
    <g id="text_33">
     <!-- 64, t=1.0 -->
     <g transform="translate(926.731875 23.759375) scale(0.1 -0.1)">
      <use xlink:href="#Georgia-36"/>
      <use xlink:href="#Georgia-34" x="56.591797"/>
      <use xlink:href="#Georgia-2c" x="113.085938"/>
      <use xlink:href="#Georgia-20" x="140.039062"/>
      <use xlink:href="#Georgia-74" x="164.160156"/>
      <use xlink:href="#Georgia-3d" x="198.681641"/>
      <use xlink:href="#Georgia-31" x="262.988281"/>
      <use xlink:href="#Georgia-2e" x="305.957031"/>
      <use xlink:href="#Georgia-30" x="332.910156"/>
     </g>
    </g>
    <g id="line2d_60">
     <path d="M 898.731875 34.9875 
L 908.731875 34.9875 
L 918.731875 34.9875 
" style="fill: none; stroke: #1f77b4; stroke-width: 3; stroke-linecap: square"/>
    </g>
    <g id="text_34">
     <!-- 64, t=1.0,ggb -->
     <g transform="translate(926.731875 38.4875) scale(0.1 -0.1)">
      <use xlink:href="#Georgia-36"/>
      <use xlink:href="#Georgia-34" x="56.591797"/>
      <use xlink:href="#Georgia-2c" x="113.085938"/>
      <use xlink:href="#Georgia-20" x="140.039062"/>
      <use xlink:href="#Georgia-74" x="164.160156"/>
      <use xlink:href="#Georgia-3d" x="198.681641"/>
      <use xlink:href="#Georgia-31" x="262.988281"/>
      <use xlink:href="#Georgia-2e" x="305.957031"/>
      <use xlink:href="#Georgia-30" x="332.910156"/>
      <use xlink:href="#Georgia-2c" x="394.287109"/>
      <use xlink:href="#Georgia-67" x="421.240234"/>
      <use xlink:href="#Georgia-67" x="472.167969"/>
      <use xlink:href="#Georgia-62" x="523.095703"/>
     </g>
    </g>
   </g>
  </g>
 </g>
 <defs>
  <clipPath id="pf9827f8cd5">
   <rect x="56.98625" y="7.2" width="616.246128" height="508.48"/>
  </clipPath>
  <clipPath id="p02563964b2">
   <rect x="747.142799" y="7.2" width="246.498451" height="508.48"/>
  </clipPath>
 </defs>
</svg>
