<?xml version="1.0" encoding="utf-8" standalone="no"?>
<!DOCTYPE svg PUBLIC "-//W3C//DTD SVG 1.1//EN"
  "http://www.w3.org/Graphics/SVG/1.1/DTD/svg11.dtd">
<svg xmlns:xlink="http://www.w3.org/1999/xlink" width="1000.84125pt" height="568.90125pt" viewBox="0 0 1000.84125 568.90125" xmlns="http://www.w3.org/2000/svg" version="1.1">
 <metadata>
  <rdf:RDF xmlns:dc="http://purl.org/dc/elements/1.1/" xmlns:cc="http://creativecommons.org/ns#" xmlns:rdf="http://www.w3.org/1999/02/22-rdf-syntax-ns#">
   <cc:Work>
    <dc:type rdf:resource="http://purl.org/dc/dcmitype/StillImage"/>
    <dc:date>2023-11-29T03:18:34.615127</dc:date>
    <dc:format>image/svg+xml</dc:format>
    <dc:creator>
     <cc:Agent>
      <dc:title>Matplotlib v3.6.2, https://matplotlib.org/</dc:title>
     </cc:Agent>
    </dc:creator>
   </cc:Work>
  </rdf:RDF>
 </metadata>
 <defs>
  <style type="text/css">*{stroke-linejoin: round; stroke-linecap: butt}</style>
 </defs>
 <g id="figure_1">
  <g id="patch_1">
   <path d="M 0 568.90125 
L 1000.84125 568.90125 
L 1000.84125 0 
L 0 0 
L 0 568.90125 
z
" style="fill: none"/>
  </g>
  <g id="axes_1">
   <g id="patch_2">
    <path d="M 56.98625 515.68 
L 673.232378 515.68 
L 673.232378 7.2 
L 56.98625 7.2 
L 56.98625 515.68 
z
" style="fill: none"/>
   </g>
   <g id="matplotlib.axis_1">
    <g id="xtick_1">
     <g id="line2d_1">
      <path d="M 84.997438 515.68 
L 84.997438 7.2 
" clip-path="url(#pc8098b5c18)" style="fill: none; stroke: #b0b0b0; stroke-width: 0.8; stroke-linecap: square"/>
     </g>
     <g id="line2d_2">
      <defs>
       <path id="ma8d8d714e2" d="M 0 0 
L 0 3.5 
" style="stroke: #000000; stroke-width: 0.8"/>
      </defs>
      <g>
       <use xlink:href="#ma8d8d714e2" x="84.997438" y="515.68" style="stroke: #000000; stroke-width: 0.8"/>
      </g>
     </g>
     <g id="text_1">
      <!-- 0 -->
      <g transform="translate(80.087438 534.775) scale(0.16 -0.16)">
       <defs>
        <path id="Georgia-30" d="M 3209 2919 
Q 3409 2678 3507 2354 
Q 3606 2031 3606 1678 
Q 3606 1253 3484 917 
Q 3363 581 3150 359 
Q 2931 131 2631 15 
Q 2331 -100 1963 -100 
Q 1559 -100 1243 34 
Q 928 169 731 403 
Q 525 647 423 973 
Q 322 1300 322 1678 
Q 322 2050 420 2362 
Q 519 2675 728 2928 
Q 928 3172 1243 3312 
Q 1559 3453 1966 3453 
Q 2394 3453 2700 3309 
Q 3006 3166 3209 2919 
z
M 2916 1678 
Q 2916 2422 2661 2831 
Q 2406 3241 1969 3241 
Q 1525 3241 1269 2831 
Q 1013 2422 1013 1678 
Q 1013 972 1258 542 
Q 1503 113 1963 113 
Q 2422 113 2669 542 
Q 2916 972 2916 1678 
z
" transform="scale(0.015625)"/>
       </defs>
       <use xlink:href="#Georgia-30"/>
      </g>
     </g>
    </g>
    <g id="xtick_2">
     <g id="line2d_3">
      <path d="M 174.159817 515.68 
L 174.159817 7.2 
" clip-path="url(#pc8098b5c18)" style="fill: none; stroke: #b0b0b0; stroke-width: 0.8; stroke-linecap: square"/>
     </g>
     <g id="line2d_4">
      <g>
       <use xlink:href="#ma8d8d714e2" x="174.159817" y="515.68" style="stroke: #000000; stroke-width: 0.8"/>
      </g>
     </g>
     <g id="text_2">
      <!-- 1 -->
      <g transform="translate(170.722317 534.775) scale(0.16 -0.16)">
       <defs>
        <path id="Georgia-31" d="M 2528 0 
L 422 0 
L 422 222 
Q 516 228 714 248 
Q 913 269 988 291 
Q 1084 322 1136 392 
Q 1188 463 1188 603 
L 1188 2797 
L 409 2797 
L 409 3059 
L 581 3059 
Q 919 3059 1186 3184 
Q 1453 3309 1569 3453 
L 1828 3453 
Q 1819 3250 1809 2978 
Q 1800 2706 1800 2491 
L 1800 638 
Q 1800 528 1848 442 
Q 1897 356 1988 316 
Q 2069 281 2253 253 
Q 2438 225 2528 222 
L 2528 0 
z
" transform="scale(0.015625)"/>
       </defs>
       <use xlink:href="#Georgia-31"/>
      </g>
     </g>
    </g>
    <g id="xtick_3">
     <g id="line2d_5">
      <path d="M 263.322197 515.68 
L 263.322197 7.2 
" clip-path="url(#pc8098b5c18)" style="fill: none; stroke: #b0b0b0; stroke-width: 0.8; stroke-linecap: square"/>
     </g>
     <g id="line2d_6">
      <g>
       <use xlink:href="#ma8d8d714e2" x="263.322197" y="515.68" style="stroke: #000000; stroke-width: 0.8"/>
      </g>
     </g>
     <g id="text_3">
      <!-- 2 -->
      <g transform="translate(258.853447 534.775) scale(0.16 -0.16)">
       <defs>
        <path id="Georgia-32" d="M 3272 0 
L 344 0 
L 344 425 
Q 428 522 578 642 
Q 728 763 934 903 
Q 1059 988 1234 1088 
Q 1409 1188 1631 1306 
Q 1878 1438 2011 1538 
Q 2144 1638 2253 1784 
Q 2325 1881 2369 2026 
Q 2413 2172 2413 2441 
Q 2413 2831 2203 3014 
Q 1994 3197 1666 3197 
Q 1463 3197 1281 3117 
Q 1100 3038 1009 2897 
Q 1031 2797 1064 2659 
Q 1097 2522 1097 2391 
Q 1097 2272 998 2180 
Q 900 2088 706 2088 
Q 550 2088 465 2195 
Q 381 2303 381 2484 
Q 381 2653 475 2823 
Q 569 2994 744 3138 
Q 916 3278 1169 3365 
Q 1422 3453 1716 3453 
Q 2356 3453 2732 3167 
Q 3109 2881 3109 2403 
Q 3109 2175 3042 1987 
Q 2975 1800 2825 1656 
Q 2659 1497 2437 1383 
Q 2216 1269 1759 1066 
Q 1488 944 1253 811 
Q 1019 678 869 553 
L 3272 553 
L 3272 0 
z
" transform="scale(0.015625)"/>
       </defs>
       <use xlink:href="#Georgia-32"/>
      </g>
     </g>
    </g>
    <g id="xtick_4">
     <g id="line2d_7">
      <path d="M 352.484576 515.68 
L 352.484576 7.2 
" clip-path="url(#pc8098b5c18)" style="fill: none; stroke: #b0b0b0; stroke-width: 0.8; stroke-linecap: square"/>
     </g>
     <g id="line2d_8">
      <g>
       <use xlink:href="#ma8d8d714e2" x="352.484576" y="515.68" style="stroke: #000000; stroke-width: 0.8"/>
      </g>
     </g>
     <g id="text_4">
      <!-- 3 -->
      <g transform="translate(348.070826 534.775) scale(0.16 -0.16)">
       <defs>
        <path id="Georgia-33" d="M 1522 -1141 
Q 1228 -1141 984 -1067 
Q 741 -994 566 -869 
Q 391 -744 295 -581 
Q 200 -419 200 -247 
Q 200 -94 275 29 
Q 350 153 516 153 
Q 703 153 801 61 
Q 900 -31 900 -150 
Q 900 -250 867 -403 
Q 834 -556 816 -622 
Q 838 -650 895 -697 
Q 953 -744 1038 -781 
Q 1138 -828 1247 -856 
Q 1356 -884 1556 -884 
Q 1744 -884 1917 -821 
Q 2091 -759 2222 -622 
Q 2359 -478 2436 -286 
Q 2513 -94 2513 219 
Q 2513 388 2477 553 
Q 2441 719 2344 841 
Q 2247 963 2080 1030 
Q 1913 1097 1656 1097 
L 1247 1097 
L 1247 1456 
L 1519 1456 
Q 1950 1456 2140 1693 
Q 2331 1931 2331 2409 
Q 2331 2800 2147 2998 
Q 1963 3197 1625 3197 
Q 1463 3197 1358 3158 
Q 1253 3119 1188 3081 
Q 1109 3038 1059 2984 
Q 1009 2931 984 2906 
Q 1006 2806 1037 2661 
Q 1069 2516 1069 2384 
Q 1069 2269 970 2176 
Q 872 2084 681 2084 
Q 516 2084 439 2203 
Q 363 2322 363 2478 
Q 363 2641 453 2809 
Q 544 2978 722 3125 
Q 900 3272 1156 3362 
Q 1413 3453 1747 3453 
Q 2131 3453 2382 3339 
Q 2634 3225 2778 3063 
Q 2919 2903 2972 2728 
Q 3025 2553 3025 2428 
Q 3025 2272 2981 2114 
Q 2938 1956 2838 1822 
Q 2728 1675 2548 1554 
Q 2369 1434 2097 1359 
L 2097 1309 
Q 2272 1294 2470 1231 
Q 2669 1169 2828 1047 
Q 2994 919 3100 717 
Q 3206 516 3206 206 
Q 3206 -394 2725 -767 
Q 2244 -1141 1522 -1141 
z
" transform="scale(0.015625)"/>
       </defs>
       <use xlink:href="#Georgia-33"/>
      </g>
     </g>
    </g>
    <g id="xtick_5">
     <g id="line2d_9">
      <path d="M 441.646956 515.68 
L 441.646956 7.2 
" clip-path="url(#pc8098b5c18)" style="fill: none; stroke: #b0b0b0; stroke-width: 0.8; stroke-linecap: square"/>
     </g>
     <g id="line2d_10">
      <g>
       <use xlink:href="#ma8d8d714e2" x="441.646956" y="515.68" style="stroke: #000000; stroke-width: 0.8"/>
      </g>
     </g>
     <g id="text_5">
      <!-- 4 -->
      <g transform="translate(437.126956 534.775) scale(0.16 -0.16)">
       <defs>
        <path id="Georgia-34" d="M 3388 281 
L 2753 281 
L 2753 -1141 
L 2153 -1141 
L 2153 281 
L 153 281 
L 153 763 
L 2344 3434 
L 2753 3434 
L 2753 691 
L 3388 691 
L 3388 281 
z
M 2153 691 
L 2153 2738 
L 466 691 
L 2153 691 
z
" transform="scale(0.015625)"/>
       </defs>
       <use xlink:href="#Georgia-34"/>
      </g>
     </g>
    </g>
    <g id="xtick_6">
     <g id="line2d_11">
      <path d="M 530.809335 515.68 
L 530.809335 7.2 
" clip-path="url(#pc8098b5c18)" style="fill: none; stroke: #b0b0b0; stroke-width: 0.8; stroke-linecap: square"/>
     </g>
     <g id="line2d_12">
      <g>
       <use xlink:href="#ma8d8d714e2" x="530.809335" y="515.68" style="stroke: #000000; stroke-width: 0.8"/>
      </g>
     </g>
     <g id="text_6">
      <!-- 5 -->
      <g transform="translate(526.583085 534.775) scale(0.16 -0.16)">
       <defs>
        <path id="Georgia-35" d="M 2634 1466 
Q 2841 1303 2977 1047 
Q 3113 791 3113 406 
Q 3113 -266 2653 -703 
Q 2194 -1141 1488 -1141 
Q 941 -1141 562 -881 
Q 184 -622 184 -278 
Q 184 -119 262 0 
Q 341 119 503 119 
Q 691 119 789 20 
Q 888 -78 888 -194 
Q 888 -294 853 -444 
Q 819 -594 800 -666 
Q 825 -688 881 -725 
Q 938 -763 1016 -797 
Q 1097 -831 1214 -857 
Q 1331 -884 1488 -884 
Q 1688 -884 1866 -803 
Q 2044 -722 2166 -563 
Q 2300 -388 2367 -164 
Q 2434 59 2434 403 
Q 2434 844 2189 1133 
Q 1944 1422 1544 1422 
Q 1294 1422 1076 1328 
Q 859 1234 688 1016 
L 478 1097 
L 744 3353 
L 2981 3353 
L 2981 2797 
L 997 2797 
L 834 1472 
Q 975 1572 1204 1670 
Q 1434 1769 1709 1769 
Q 1938 1769 2183 1698 
Q 2428 1628 2634 1466 
z
" transform="scale(0.015625)"/>
       </defs>
       <use xlink:href="#Georgia-35"/>
      </g>
     </g>
    </g>
    <g id="xtick_7">
     <g id="line2d_13">
      <path d="M 619.971715 515.68 
L 619.971715 7.2 
" clip-path="url(#pc8098b5c18)" style="fill: none; stroke: #b0b0b0; stroke-width: 0.8; stroke-linecap: square"/>
     </g>
     <g id="line2d_14">
      <g>
       <use xlink:href="#ma8d8d714e2" x="619.971715" y="515.68" style="stroke: #000000; stroke-width: 0.8"/>
      </g>
     </g>
     <g id="text_7">
      <!-- 6 -->
      <g transform="translate(615.444215 534.775) scale(0.16 -0.16)">
       <defs>
        <path id="Georgia-36" d="M 3359 1441 
Q 3359 1116 3242 831 
Q 3125 547 2928 347 
Q 2700 119 2423 9 
Q 2147 -100 1847 -100 
Q 1500 -100 1219 28 
Q 938 156 741 391 
Q 541 628 431 972 
Q 322 1316 322 1744 
Q 322 2859 986 3625 
Q 1650 4391 2766 4544 
L 2822 4263 
L 2541 4213 
Q 1863 3994 1492 3531 
Q 1122 3069 1013 2409 
Q 1281 2644 1543 2741 
Q 1806 2838 2097 2838 
Q 2619 2838 2989 2438 
Q 3359 2038 3359 1441 
z
M 2681 1356 
Q 2681 1863 2448 2169 
Q 2216 2475 1825 2475 
Q 1591 2475 1389 2387 
Q 1188 2300 1000 2094 
Q 997 2056 990 1920 
Q 984 1784 984 1706 
Q 984 975 1223 561 
Q 1463 147 1853 147 
Q 2225 147 2453 470 
Q 2681 794 2681 1356 
z
" transform="scale(0.015625)"/>
       </defs>
       <use xlink:href="#Georgia-36"/>
      </g>
     </g>
    </g>
    <g id="text_8">
     <!-- $x$ -->
     <g transform="translate(359.109314 557.36375) scale(0.2 -0.2)">
      <defs>
       <path id="DejaVuSans-Oblique-78" d="M 3841 3500 
L 2234 1784 
L 3219 0 
L 2559 0 
L 1819 1388 
L 531 0 
L -166 0 
L 1556 1844 
L 641 3500 
L 1300 3500 
L 1972 2234 
L 3144 3500 
L 3841 3500 
z
" transform="scale(0.015625)"/>
      </defs>
      <use xlink:href="#DejaVuSans-Oblique-78" transform="translate(0 0.3125)"/>
     </g>
    </g>
   </g>
   <g id="matplotlib.axis_2">
    <g id="ytick_1">
     <g id="line2d_15">
      <path d="M 56.98625 492.762681 
L 673.232378 492.762681 
" clip-path="url(#pc8098b5c18)" style="fill: none; stroke: #b0b0b0; stroke-width: 0.8; stroke-linecap: square"/>
     </g>
     <g id="line2d_16">
      <defs>
       <path id="m8dd9bdeb0f" d="M 0 0 
L -3.5 0 
" style="stroke: #000000; stroke-width: 0.8"/>
      </defs>
      <g>
       <use xlink:href="#m8dd9bdeb0f" x="56.98625" y="492.762681" style="stroke: #000000; stroke-width: 0.8"/>
      </g>
     </g>
     <g id="text_9">
      <!-- −4 -->
      <g transform="translate(30.65625 498.810181) scale(0.16 -0.16)">
       <defs>
        <path id="Georgia-2212" d="M 3650 1553 
L 466 1553 
L 466 1944 
L 3650 1944 
L 3650 1553 
z
" transform="scale(0.015625)"/>
       </defs>
       <use xlink:href="#Georgia-2212"/>
       <use xlink:href="#Georgia-34" x="64.306641"/>
      </g>
     </g>
    </g>
    <g id="ytick_2">
     <g id="line2d_17">
      <path d="M 56.98625 434.023433 
L 673.232378 434.023433 
" clip-path="url(#pc8098b5c18)" style="fill: none; stroke: #b0b0b0; stroke-width: 0.8; stroke-linecap: square"/>
     </g>
     <g id="line2d_18">
      <g>
       <use xlink:href="#m8dd9bdeb0f" x="56.98625" y="434.023433" style="stroke: #000000; stroke-width: 0.8"/>
      </g>
     </g>
     <g id="text_10">
      <!-- −3 -->
      <g transform="translate(30.86875 440.070933) scale(0.16 -0.16)">
       <use xlink:href="#Georgia-2212"/>
       <use xlink:href="#Georgia-33" x="64.306641"/>
      </g>
     </g>
    </g>
    <g id="ytick_3">
     <g id="line2d_19">
      <path d="M 56.98625 375.284186 
L 673.232378 375.284186 
" clip-path="url(#pc8098b5c18)" style="fill: none; stroke: #b0b0b0; stroke-width: 0.8; stroke-linecap: square"/>
     </g>
     <g id="line2d_20">
      <g>
       <use xlink:href="#m8dd9bdeb0f" x="56.98625" y="375.284186" style="stroke: #000000; stroke-width: 0.8"/>
      </g>
     </g>
     <g id="text_11">
      <!-- −2 -->
      <g transform="translate(30.75875 381.331686) scale(0.16 -0.16)">
       <use xlink:href="#Georgia-2212"/>
       <use xlink:href="#Georgia-32" x="64.306641"/>
      </g>
     </g>
    </g>
    <g id="ytick_4">
     <g id="line2d_21">
      <path d="M 56.98625 316.544938 
L 673.232378 316.544938 
" clip-path="url(#pc8098b5c18)" style="fill: none; stroke: #b0b0b0; stroke-width: 0.8; stroke-linecap: square"/>
     </g>
     <g id="line2d_22">
      <g>
       <use xlink:href="#m8dd9bdeb0f" x="56.98625" y="316.544938" style="stroke: #000000; stroke-width: 0.8"/>
      </g>
     </g>
     <g id="text_12">
      <!-- −1 -->
      <g transform="translate(32.82125 322.592438) scale(0.16 -0.16)">
       <use xlink:href="#Georgia-2212"/>
       <use xlink:href="#Georgia-31" x="64.306641"/>
      </g>
     </g>
    </g>
    <g id="ytick_5">
     <g id="line2d_23">
      <path d="M 56.98625 257.80569 
L 673.232378 257.80569 
" clip-path="url(#pc8098b5c18)" style="fill: none; stroke: #b0b0b0; stroke-width: 0.8; stroke-linecap: square"/>
     </g>
     <g id="line2d_24">
      <g>
       <use xlink:href="#m8dd9bdeb0f" x="56.98625" y="257.80569" style="stroke: #000000; stroke-width: 0.8"/>
      </g>
     </g>
     <g id="text_13">
      <!-- 0 -->
      <g transform="translate(40.16625 263.85319) scale(0.16 -0.16)">
       <use xlink:href="#Georgia-30"/>
      </g>
     </g>
    </g>
    <g id="ytick_6">
     <g id="line2d_25">
      <path d="M 56.98625 199.066443 
L 673.232378 199.066443 
" clip-path="url(#pc8098b5c18)" style="fill: none; stroke: #b0b0b0; stroke-width: 0.8; stroke-linecap: square"/>
     </g>
     <g id="line2d_26">
      <g>
       <use xlink:href="#m8dd9bdeb0f" x="56.98625" y="199.066443" style="stroke: #000000; stroke-width: 0.8"/>
      </g>
     </g>
     <g id="text_14">
      <!-- 1 -->
      <g transform="translate(43.11125 205.113943) scale(0.16 -0.16)">
       <use xlink:href="#Georgia-31"/>
      </g>
     </g>
    </g>
    <g id="ytick_7">
     <g id="line2d_27">
      <path d="M 56.98625 140.327195 
L 673.232378 140.327195 
" clip-path="url(#pc8098b5c18)" style="fill: none; stroke: #b0b0b0; stroke-width: 0.8; stroke-linecap: square"/>
     </g>
     <g id="line2d_28">
      <g>
       <use xlink:href="#m8dd9bdeb0f" x="56.98625" y="140.327195" style="stroke: #000000; stroke-width: 0.8"/>
      </g>
     </g>
     <g id="text_15">
      <!-- 2 -->
      <g transform="translate(41.04875 146.374695) scale(0.16 -0.16)">
       <use xlink:href="#Georgia-32"/>
      </g>
     </g>
    </g>
    <g id="ytick_8">
     <g id="line2d_29">
      <path d="M 56.98625 81.587948 
L 673.232378 81.587948 
" clip-path="url(#pc8098b5c18)" style="fill: none; stroke: #b0b0b0; stroke-width: 0.8; stroke-linecap: square"/>
     </g>
     <g id="line2d_30">
      <g>
       <use xlink:href="#m8dd9bdeb0f" x="56.98625" y="81.587948" style="stroke: #000000; stroke-width: 0.8"/>
      </g>
     </g>
     <g id="text_16">
      <!-- 3 -->
      <g transform="translate(41.15875 87.635448) scale(0.16 -0.16)">
       <use xlink:href="#Georgia-33"/>
      </g>
     </g>
    </g>
    <g id="ytick_9">
     <g id="line2d_31">
      <path d="M 56.98625 22.8487 
L 673.232378 22.8487 
" clip-path="url(#pc8098b5c18)" style="fill: none; stroke: #b0b0b0; stroke-width: 0.8; stroke-linecap: square"/>
     </g>
     <g id="line2d_32">
      <g>
       <use xlink:href="#m8dd9bdeb0f" x="56.98625" y="22.8487" style="stroke: #000000; stroke-width: 0.8"/>
      </g>
     </g>
     <g id="text_17">
      <!-- 4 -->
      <g transform="translate(40.94625 28.8962) scale(0.16 -0.16)">
       <use xlink:href="#Georgia-34"/>
      </g>
     </g>
    </g>
    <g id="text_18">
     <!-- $y$ -->
     <g transform="translate(22.31875 267.44) rotate(-90) scale(0.2 -0.2)">
      <defs>
       <path id="DejaVuSans-Oblique-79" d="M 1588 -325 
Q 1188 -997 936 -1164 
Q 684 -1331 294 -1331 
L -159 -1331 
L -63 -850 
L 269 -850 
Q 509 -850 678 -719 
Q 847 -588 1056 -206 
L 1234 128 
L 459 3500 
L 1069 3500 
L 1650 819 
L 3256 3500 
L 3859 3500 
L 1588 -325 
z
" transform="scale(0.015625)"/>
      </defs>
      <use xlink:href="#DejaVuSans-Oblique-79" transform="translate(0 0.3125)"/>
     </g>
    </g>
   </g>
   <g id="line2d_33">
    <path d="M 84.997438 257.80569 
L 364.828922 73.455621 
L 365.389706 442.15576 
L 645.22119 257.80569 
L 645.22119 257.80569 
" clip-path="url(#pc8098b5c18)" style="fill: none; stroke: #000000; stroke-linecap: square"/>
   </g>
   <g id="line2d_34">
    <path d="M 84.997438 257.751804 
L 91.166068 253.740832 
L 97.334697 249.584401 
L 105.746466 244.323886 
L 113.597449 238.605196 
L 115.840587 237.41241 
L 119.766079 235.417342 
L 121.448433 234.339956 
L 123.691571 232.590679 
L 129.299416 227.909369 
L 130.98177 226.893705 
L 132.664123 226.116271 
L 137.1504 224.251414 
L 138.832753 223.191449 
L 140.515107 221.820261 
L 143.31903 219.09206 
L 145.562168 217.002393 
L 147.244521 215.769993 
L 148.926875 214.907019 
L 150.609229 214.346021 
L 153.973936 213.343492 
L 155.095505 212.797527 
L 156.217074 212.067008 
L 157.899427 210.61588 
L 160.142566 208.213415 
L 162.385704 205.800298 
L 164.068057 204.352398 
L 165.189626 203.650898 
L 166.311196 203.16683 
L 167.993549 202.764371 
L 170.797472 202.312172 
L 171.919041 201.94381 
L 173.04061 201.358892 
L 174.162179 200.525516 
L 175.283748 199.451385 
L 176.966102 197.501474 
L 179.770024 194.11137 
L 180.891594 193.000859 
L 182.013163 192.144602 
L 183.134732 191.56917 
L 184.256301 191.256134 
L 185.938654 191.133773 
L 188.181793 191.065503 
L 189.303362 190.813765 
L 190.424931 190.295677 
L 191.5465 189.467901 
L 192.668069 188.336287 
L 194.350422 186.202274 
L 197.154345 182.416117 
L 198.275914 181.188961 
L 199.397483 180.271646 
L 200.519052 179.701463 
L 201.640621 179.460293 
L 202.76219 179.47608 
L 206.126898 179.800508 
L 207.248467 179.540016 
L 208.370036 178.923518 
L 209.491605 177.921878 
L 210.613174 176.567722 
L 212.295528 174.086669 
L 214.538666 170.708347 
L 215.660235 169.338119 
L 216.781804 168.338882 
L 217.903373 167.762353 
L 219.024942 167.593015 
L 220.146511 167.74892 
L 223.511218 168.657006 
L 224.632787 168.541799 
L 225.754357 168.000569 
L 226.875926 166.99047 
L 227.997495 165.54356 
L 229.679848 162.797039 
L 231.922986 158.979152 
L 233.044556 157.43066 
L 234.166125 156.322306 
L 235.287694 155.725139 
L 235.848478 155.618407 
L 236.970047 155.743542 
L 238.091616 156.205748 
L 240.334754 157.368195 
L 241.456324 157.642929 
L 242.017108 157.621503 
L 242.577893 157.471999 
L 243.138677 157.183845 
L 243.699462 156.751964 
L 244.821031 155.465649 
L 245.9426 153.687144 
L 247.624953 150.453969 
L 249.307307 147.21482 
L 250.428876 145.438831 
L 251.550445 144.183869 
L 252.11123 143.785866 
L 252.672014 143.547184 
L 253.232799 143.464591 
L 253.793583 143.528473 
L 254.915152 144.027378 
L 256.597506 145.320635 
L 257.719075 146.178598 
L 258.840644 146.729198 
L 259.401429 146.818646 
L 259.962213 146.755288 
L 260.522998 146.524634 
L 261.083782 146.118796 
L 261.644567 145.536893 
L 262.766136 143.876898 
L 263.887705 141.675527 
L 267.252412 134.289307 
L 268.373981 132.499314 
L 268.934766 131.859327 
L 269.49555 131.409602 
L 270.056335 131.156069 
L 270.61712 131.09678 
L 271.177904 131.221875 
L 271.738689 131.513869 
L 272.860258 132.494397 
L 275.66418 135.562177 
L 276.224965 135.960689 
L 276.785749 136.202243 
L 277.346534 136.259708 
L 277.907318 136.113027 
L 278.468103 135.750132 
L 279.028888 135.167551 
L 279.589672 134.370674 
L 280.711241 132.199033 
L 281.83281 129.443491 
L 284.636733 122.147598 
L 285.758302 119.996077 
L 286.319087 119.23093 
L 286.879871 118.701621 
L 287.440656 118.418379 
L 288.00144 118.381611 
L 288.562225 118.581734 
L 289.123009 118.999402 
L 290.244578 120.365325 
L 293.609286 125.442429 
L 294.17007 125.905065 
L 294.730855 126.141445 
L 295.291639 126.123095 
L 295.852424 125.831386 
L 296.413208 125.258456 
L 296.973993 124.407708 
L 298.095562 121.942593 
L 299.217131 118.679441 
L 302.021054 109.715044 
L 303.142623 107.017011 
L 303.703407 106.056967 
L 304.264192 105.398524 
L 304.824976 105.059145 
L 305.385761 105.043694 
L 305.946545 105.343999 
L 306.50733 105.938936 
L 307.068114 106.795032 
L 308.189684 109.102207 
L 310.432822 114.357913 
L 311.554391 116.220743 
L 312.115175 116.746001 
L 312.67596 116.940319 
L 313.236744 116.77372 
L 313.797529 116.230207 
L 314.358313 115.308703 
L 314.919098 114.023419 
L 316.040667 110.492724 
L 317.723021 103.627092 
L 319.405374 96.669164 
L 320.526943 93.047509 
L 321.087728 91.749345 
L 321.648512 90.859631 
L 322.209297 90.409693 
L 322.770081 90.413842 
L 323.330866 90.868367 
L 323.891651 91.751233 
L 324.452435 93.022504 
L 325.574004 96.488534 
L 328.377927 106.509363 
L 328.938711 107.966796 
L 329.499496 109.029233 
L 330.06028 109.626541 
L 330.621065 109.705311 
L 331.18185 109.231501 
L 331.742634 108.192376 
L 332.303419 106.597672 
L 332.864203 104.479907 
L 333.985772 98.9148 
L 336.22891 85.152373 
L 337.350479 78.885258 
L 337.911264 76.343124 
L 338.472049 74.340854 
L 339.032833 72.966691 
L 339.593618 72.287024 
L 340.154402 72.342917 
L 340.715187 73.147476 
L 341.275971 74.684202 
L 341.836756 76.906407 
L 342.958325 83.073988 
L 346.323032 105.255261 
L 346.883817 107.694493 
L 347.444601 109.327756 
L 348.005386 110.023996 
L 348.56617 109.68131 
L 349.126955 108.232377 
L 349.687739 105.648913 
L 350.248524 101.944999 
L 350.809308 97.179101 
L 351.930877 84.919346 
L 355.295585 41.617433 
L 355.856369 36.406482 
L 356.417154 32.595238 
L 356.977938 30.475541 
L 357.538723 30.312727 
L 358.099507 32.336996 
L 358.660292 36.735589 
L 359.221076 43.646046 
L 359.781861 53.150767 
L 360.342645 65.273065 
L 361.464215 97.156138 
L 362.585784 138.256255 
L 364.268137 212.715032 
L 367.632844 370.881847 
L 368.754414 414.693093 
L 369.875983 449.726935 
L 370.997552 474.533927 
L 371.558336 482.915633 
L 372.119121 488.64213 
L 372.679905 491.80881 
L 373.24069 492.567273 
L 373.801474 491.119753 
L 374.362259 487.712195 
L 374.923043 482.626215 
L 376.044613 468.669881 
L 379.40932 419.75098 
L 380.530889 408.429445 
L 381.091673 404.518069 
L 381.652458 401.865333 
L 382.213242 400.481287 
L 382.774027 400.330763 
L 383.334812 401.336815 
L 383.895596 403.385378 
L 384.456381 406.330961 
L 385.57795 414.213726 
L 388.381872 436.434991 
L 389.503441 442.574569 
L 390.064226 444.536682 
L 390.62501 445.674293 
L 391.185795 445.964045 
L 391.74658 445.415273 
L 392.307364 444.068422 
L 392.868149 441.992397 
L 393.989718 436.048409 
L 395.672071 424.566701 
L 397.354425 413.375134 
L 398.475994 407.747716 
L 399.036779 405.752864 
L 399.597563 404.37138 
L 400.158348 403.622865 
L 400.719132 403.501954 
L 401.279917 403.979278 
L 401.840701 405.003302 
L 402.401486 406.50295 
L 403.523055 410.567354 
L 406.326978 421.951717 
L 406.887762 423.604878 
L 407.448547 424.854961 
L 408.009331 425.64928 
L 408.570116 425.954309 
L 409.1309 425.756481 
L 409.691685 425.062204 
L 410.252469 423.897107 
L 410.813254 422.304562 
L 411.934823 418.086039 
L 415.860315 401.208435 
L 416.421099 399.617435 
L 416.981884 398.408988 
L 417.542668 397.607566 
L 418.103453 397.221078 
L 418.664237 397.240928 
L 419.225022 397.642709 
L 419.785806 398.387506 
L 420.907376 400.689408 
L 424.272083 409.029946 
L 424.832867 409.889096 
L 425.393652 410.448683 
L 425.954436 410.677838 
L 426.515221 410.559373 
L 427.076005 410.090194 
L 427.63679 409.281145 
L 428.197574 408.156315 
L 429.319144 405.114209 
L 431.001497 399.378761 
L 432.683851 393.744162 
L 433.80542 390.828378 
L 434.366204 389.75427 
L 434.926989 388.970773 
L 435.487773 388.489189 
L 436.048558 388.308632 
L 436.609343 388.41627 
L 437.170127 388.788048 
L 437.730912 389.389828 
L 438.852481 391.105932 
L 441.095619 395.089641 
L 442.217188 396.49468 
L 442.777972 396.893934 
L 443.338757 397.051779 
L 443.899542 396.951126 
L 444.460326 396.585462 
L 445.021111 395.95893 
L 445.581895 395.086 
L 446.703464 392.705635 
L 448.385818 388.132189 
L 450.068171 383.493465 
L 451.189741 380.981941 
L 452.31131 379.255618 
L 452.872094 378.733697 
L 453.432879 378.445871 
L 453.993663 378.385356 
L 454.554448 378.536393 
L 455.115232 378.875016 
L 456.236801 379.984835 
L 459.040724 383.361872 
L 459.601509 383.803894 
L 460.162293 384.085438 
L 460.723078 384.182765 
L 461.283862 384.079834 
L 461.844647 383.768837 
L 462.405431 383.250396 
L 462.966216 382.533411 
L 464.087785 380.577703 
L 465.770139 376.778043 
L 468.013277 371.656647 
L 469.134846 369.71867 
L 469.69563 368.996958 
L 470.256415 368.458169 
L 470.817199 368.106604 
L 471.377984 367.939009 
L 471.938768 367.944814 
L 472.499553 368.106651 
L 473.621122 368.799897 
L 476.985829 371.487984 
L 477.546614 371.677093 
L 478.107398 371.722117 
L 478.668183 371.608333 
L 479.228967 371.327578 
L 479.789752 370.878478 
L 480.911321 369.503268 
L 482.03289 367.599748 
L 486.519166 359.117006 
L 487.640735 357.883455 
L 488.20152 357.492242 
L 488.762305 357.252043 
L 489.323089 357.155752 
L 489.883874 357.190586 
L 491.005443 357.577794 
L 494.37015 359.396383 
L 494.930934 359.508727 
L 495.491719 359.50691 
L 496.052504 359.377612 
L 496.613288 359.112796 
L 497.734857 358.172173 
L 498.856426 356.730495 
L 500.53878 353.914764 
L 502.781918 349.949781 
L 503.903487 348.320299 
L 505.025056 347.121098 
L 506.146625 346.414261 
L 507.268194 346.182553 
L 508.389763 346.334102 
L 510.072117 346.941692 
L 511.193686 347.330075 
L 512.315255 347.496435 
L 513.436824 347.303213 
L 514.558393 346.673078 
L 515.679962 345.599669 
L 516.801531 344.146853 
L 519.04467 340.629666 
L 520.727023 338.107494 
L 521.848592 336.764811 
L 522.970161 335.803491 
L 524.09173 335.249144 
L 525.213299 335.062381 
L 526.334869 335.146666 
L 529.138791 335.606761 
L 530.26036 335.505503 
L 531.381929 335.077449 
L 532.503498 334.281804 
L 533.625068 333.136969 
L 535.307421 330.936982 
L 538.111344 327.037373 
L 539.232913 325.776085 
L 540.354482 324.821466 
L 541.476051 324.199545 
L 542.59762 323.883013 
L 543.719189 323.796947 
L 547.083896 323.766639 
L 548.205465 323.446517 
L 549.327035 322.841896 
L 550.448604 321.93937 
L 551.570173 320.773071 
L 553.813311 317.976761 
L 556.056449 315.282681 
L 557.178018 314.217564 
L 558.299587 313.41306 
L 559.421156 312.871973 
L 560.542725 312.555304 
L 562.785863 312.279833 
L 564.468217 312.000888 
L 565.589786 311.614368 
L 566.711355 311.004061 
L 567.832924 310.156561 
L 569.515278 308.503639 
L 574.001554 303.610995 
L 575.123123 302.698657 
L 576.244692 301.99527 
L 577.366261 301.488146 
L 579.048615 300.99403 
L 581.852538 300.282327 
L 582.974107 299.826479 
L 584.095676 299.200392 
L 585.778029 297.924871 
L 587.460383 296.327688 
L 591.385875 292.461919 
L 593.068228 291.202309 
L 594.750582 290.283733 
L 596.99372 289.425438 
L 599.797643 288.351831 
L 601.479997 287.422329 
L 603.16235 286.204419 
L 605.405488 284.245714 
L 608.770196 281.280086 
L 610.452549 280.064467 
L 612.134903 279.080114 
L 614.938825 277.755989 
L 617.742748 276.348601 
L 619.985886 274.896238 
L 622.789809 272.71464 
L 626.154516 270.071242 
L 628.397654 268.556212 
L 631.762362 266.617497 
L 635.127069 264.646752 
L 638.491776 262.364635 
L 644.099621 258.472398 
L 645.22119 257.751804 
L 645.22119 257.751804 
" clip-path="url(#pc8098b5c18)" style="fill: none; stroke: #a80000; stroke-width: 3; stroke-linecap: square"/>
   </g>
   <g id="line2d_35">
    <path d="M 89.374186 251.579865 
L 98.127682 248.222388 
L 106.881178 243.197364 
L 115.634674 237.604933 
L 124.38817 231.859722 
L 133.141666 226.08968 
L 141.895163 220.321422 
L 150.648659 214.555195 
L 159.402155 208.788831 
L 168.155651 203.021988 
L 176.909147 197.255124 
L 185.662643 191.488454 
L 194.416139 185.72184 
L 203.169635 179.955124 
L 211.923132 174.188332 
L 220.676628 168.421595 
L 229.430124 162.654956 
L 238.18362 156.888306 
L 246.937116 151.121527 
L 255.690612 145.354685 
L 264.444108 139.588016 
L 273.197605 133.821587 
L 281.951101 128.054952 
L 290.704597 122.287498 
L 299.458093 116.519998 
L 308.211589 110.756018 
L 316.965085 104.99676 
L 325.718581 99.21241 
L 334.472078 93.254225 
L 343.225574 86.640639 
L 351.97907 78.103002 
L 360.732566 64.706463 
L 369.486062 442.089278 
L 378.239558 434.806842 
L 386.993054 428.32868 
L 395.746551 422.271611 
L 404.500047 416.408788 
L 413.253543 410.62099 
L 422.007039 404.854461 
L 430.760535 399.090099 
L 439.514031 393.323975 
L 448.267527 387.556868 
L 457.021023 381.789841 
L 465.77452 376.023167 
L 474.528016 370.256616 
L 483.281512 364.489954 
L 492.035008 358.723165 
L 500.788504 352.956379 
L 509.542 347.189688 
L 518.295496 341.423055 
L 527.048993 335.656367 
L 535.802489 329.889579 
L 544.555985 324.122791 
L 553.309481 318.356144 
L 562.062977 312.5896 
L 570.816473 306.822851 
L 579.569969 301.055709 
L 588.323466 295.288912 
L 597.076962 289.524043 
L 605.830458 283.758404 
L 614.583954 277.96555 
L 623.33745 272.043541 
L 632.090946 265.699704 
L 640.844442 258.221061 
" clip-path="url(#pc8098b5c18)" style="fill: none; stroke: #1f77b4; stroke-width: 3; stroke-linecap: square"/>
   </g>
   <g id="patch_3">
    <path d="M 56.98625 515.68 
L 56.98625 7.2 
" style="fill: none; stroke: #000000; stroke-width: 1.5; stroke-linejoin: miter; stroke-linecap: square"/>
   </g>
   <g id="patch_4">
    <path d="M 673.232378 515.68 
L 673.232378 7.2 
" style="fill: none; stroke: #000000; stroke-width: 1.5; stroke-linejoin: miter; stroke-linecap: square"/>
   </g>
   <g id="patch_5">
    <path d="M 56.98625 515.68 
L 673.232378 515.68 
" style="fill: none; stroke: #000000; stroke-width: 1.5; stroke-linejoin: miter; stroke-linecap: square"/>
   </g>
   <g id="patch_6">
    <path d="M 56.98625 7.2 
L 673.232378 7.2 
" style="fill: none; stroke: #000000; stroke-width: 1.5; stroke-linejoin: miter; stroke-linecap: square"/>
   </g>
   <g id="legend_1">
    <g id="patch_7">
     <path d="M 576.323003 59.384375 
L 666.232378 59.384375 
Q 668.232378 59.384375 668.232378 57.384375 
L 668.232378 14.2 
Q 668.232378 12.2 666.232378 12.2 
L 576.323003 12.2 
Q 574.323003 12.2 574.323003 14.2 
L 574.323003 57.384375 
Q 574.323003 59.384375 576.323003 59.384375 
z
" style="fill: #ffffff; opacity: 0.8; stroke: #cccccc; stroke-linejoin: miter"/>
    </g>
    <g id="line2d_36">
     <path d="M 578.323003 20.259375 
L 588.323003 20.259375 
L 598.323003 20.259375 
" style="fill: none; stroke: #000000; stroke-linecap: square"/>
    </g>
    <g id="text_19">
     <!-- Init -->
     <g transform="translate(606.323003 23.759375) scale(0.1 -0.1)">
      <defs>
       <path id="Georgia-49" d="M 2244 0 
L 247 0 
L 247 222 
Q 331 228 490 240 
Q 650 253 716 278 
Q 819 319 866 389 
Q 913 459 913 584 
L 913 3797 
Q 913 3906 878 3979 
Q 844 4053 716 4103 
Q 622 4141 480 4173 
Q 338 4206 247 4213 
L 247 4434 
L 2244 4434 
L 2244 4213 
Q 2147 4209 2012 4189 
Q 1878 4169 1778 4138 
Q 1659 4100 1618 4015 
Q 1578 3931 1578 3828 
L 1578 619 
Q 1578 516 1623 436 
Q 1669 356 1778 309 
Q 1844 284 1992 254 
Q 2141 225 2244 222 
L 2244 0 
z
" transform="scale(0.015625)"/>
       <path id="Georgia-6e" d="M 3628 0 
L 2119 0 
L 2119 206 
Q 2191 213 2277 219 
Q 2363 225 2419 244 
Q 2506 272 2548 342 
Q 2591 413 2591 525 
L 2591 2109 
Q 2591 2438 2436 2616 
Q 2281 2794 2059 2794 
Q 1894 2794 1756 2742 
Q 1619 2691 1513 2616 
Q 1409 2544 1348 2461 
Q 1288 2378 1259 2328 
L 1259 556 
Q 1259 450 1303 381 
Q 1347 313 1434 275 
Q 1500 244 1576 228 
Q 1653 213 1734 206 
L 1734 0 
L 225 0 
L 225 206 
Q 297 213 373 219 
Q 450 225 506 244 
Q 594 272 636 342 
Q 678 413 678 525 
L 678 2428 
Q 678 2534 633 2623 
Q 588 2713 506 2769 
Q 447 2806 365 2823 
Q 284 2841 191 2847 
L 191 3050 
L 1216 3119 
L 1259 3075 
L 1259 2641 
L 1275 2641 
Q 1350 2716 1462 2820 
Q 1575 2925 1675 2991 
Q 1791 3066 1950 3116 
Q 2109 3166 2309 3166 
Q 2753 3166 2967 2889 
Q 3181 2613 3181 2153 
L 3181 550 
Q 3181 441 3218 373 
Q 3256 306 3347 269 
Q 3422 238 3476 225 
Q 3531 213 3628 206 
L 3628 0 
z
" transform="scale(0.015625)"/>
       <path id="Georgia-69" d="M 1722 0 
L 231 0 
L 231 206 
Q 303 213 379 219 
Q 456 225 513 244 
Q 600 272 642 342 
Q 684 413 684 525 
L 684 2428 
Q 684 2528 639 2611 
Q 594 2694 513 2750 
Q 453 2788 340 2814 
Q 228 2841 134 2847 
L 134 3050 
L 1222 3119 
L 1266 3075 
L 1266 563 
Q 1266 453 1308 381 
Q 1350 309 1441 275 
Q 1509 247 1575 230 
Q 1641 213 1722 206 
L 1722 0 
z
M 1328 4334 
Q 1328 4156 1211 4023 
Q 1094 3891 922 3891 
Q 763 3891 645 4017 
Q 528 4144 528 4306 
Q 528 4478 645 4606 
Q 763 4734 922 4734 
Q 1100 4734 1214 4614 
Q 1328 4494 1328 4334 
z
" transform="scale(0.015625)"/>
       <path id="Georgia-74" d="M 2128 134 
Q 1925 50 1744 -8 
Q 1563 -66 1300 -66 
Q 913 -66 755 129 
Q 597 325 597 681 
L 597 2769 
L 41 2769 
L 41 3069 
L 609 3069 
L 609 4028 
L 1178 4028 
L 1178 3069 
L 2063 3069 
L 2063 2769 
L 1184 2769 
L 1184 1047 
Q 1184 853 1198 723 
Q 1213 594 1266 497 
Q 1316 406 1416 359 
Q 1516 313 1684 313 
Q 1763 313 1914 327 
Q 2066 341 2128 363 
L 2128 134 
z
" transform="scale(0.015625)"/>
      </defs>
      <use xlink:href="#Georgia-49"/>
      <use xlink:href="#Georgia-6e" x="38.964844"/>
      <use xlink:href="#Georgia-69" x="98.046875"/>
      <use xlink:href="#Georgia-74" x="127.34375"/>
     </g>
    </g>
    <g id="line2d_37">
     <path d="M 578.323003 34.9875 
L 588.323003 34.9875 
L 598.323003 34.9875 
" style="fill: none; stroke: #a80000; stroke-width: 3; stroke-linecap: square"/>
    </g>
    <g id="text_20">
     <!-- 64, t=1.0 -->
     <g transform="translate(606.323003 38.4875) scale(0.1 -0.1)">
      <defs>
       <path id="Georgia-2c" d="M 1341 109 
Q 1341 -116 1239 -316 
Q 1138 -516 1006 -659 
Q 872 -809 722 -925 
Q 572 -1041 447 -1106 
L 303 -897 
Q 453 -803 572 -709 
Q 691 -616 766 -522 
Q 859 -413 925 -284 
Q 991 -156 1009 6 
L 850 6 
Q 641 6 523 115 
Q 406 225 406 409 
Q 406 541 512 664 
Q 619 788 803 788 
Q 1072 788 1206 608 
Q 1341 428 1341 109 
z
" transform="scale(0.015625)"/>
       <path id="Georgia-20" transform="scale(0.015625)"/>
       <path id="Georgia-3d" d="M 3634 2134 
L 481 2134 
L 481 2525 
L 3634 2525 
L 3634 2134 
z
M 3634 972 
L 481 972 
L 481 1363 
L 3634 1363 
L 3634 972 
z
" transform="scale(0.015625)"/>
       <path id="Georgia-2e" d="M 1297 359 
Q 1297 184 1170 60 
Q 1044 -63 869 -63 
Q 694 -63 567 60 
Q 441 184 441 359 
Q 441 534 567 661 
Q 694 788 869 788 
Q 1044 788 1170 661 
Q 1297 534 1297 359 
z
" transform="scale(0.015625)"/>
      </defs>
      <use xlink:href="#Georgia-36"/>
      <use xlink:href="#Georgia-34" x="56.591797"/>
      <use xlink:href="#Georgia-2c" x="113.085938"/>
      <use xlink:href="#Georgia-20" x="140.039062"/>
      <use xlink:href="#Georgia-74" x="164.160156"/>
      <use xlink:href="#Georgia-3d" x="198.681641"/>
      <use xlink:href="#Georgia-31" x="262.988281"/>
      <use xlink:href="#Georgia-2e" x="305.957031"/>
      <use xlink:href="#Georgia-30" x="332.910156"/>
     </g>
    </g>
    <g id="line2d_38">
     <path d="M 578.323003 49.715625 
L 588.323003 49.715625 
L 598.323003 49.715625 
" style="fill: none; stroke: #1f77b4; stroke-width: 3; stroke-linecap: square"/>
    </g>
    <g id="text_21">
     <!-- 64, t=1.0,ggb -->
     <g transform="translate(606.323003 53.215625) scale(0.1 -0.1)">
      <defs>
       <path id="Georgia-67" d="M 2866 319 
Q 2991 200 3062 50 
Q 3134 -100 3134 -322 
Q 3134 -544 3037 -739 
Q 2941 -934 2744 -1078 
Q 2534 -1225 2243 -1306 
Q 1953 -1388 1525 -1388 
Q 825 -1388 478 -1183 
Q 131 -978 131 -584 
Q 131 -266 381 -81 
Q 631 103 1019 119 
L 1019 163 
Q 925 191 825 233 
Q 725 275 653 331 
Q 572 397 522 486 
Q 472 575 472 706 
Q 472 872 589 1011 
Q 706 1150 944 1250 
L 944 1297 
Q 644 1438 478 1658 
Q 313 1878 313 2169 
Q 313 2606 639 2887 
Q 966 3169 1475 3169 
Q 1616 3169 1755 3141 
Q 1894 3113 2038 3069 
L 3113 3069 
L 3113 2769 
L 2388 2769 
L 2388 2750 
Q 2503 2616 2559 2453 
Q 2616 2291 2616 2134 
Q 2616 1728 2286 1447 
Q 1956 1166 1519 1166 
L 1141 1166 
Q 1069 1141 991 1075 
Q 913 1009 913 897 
Q 913 781 978 720 
Q 1044 659 1138 638 
Q 1228 613 1348 606 
Q 1469 600 1597 597 
Q 1734 594 1973 578 
Q 2213 563 2313 559 
Q 2456 553 2601 490 
Q 2747 428 2866 319 
z
M 2022 2147 
Q 2022 2513 1873 2730 
Q 1725 2947 1456 2947 
Q 1309 2947 1204 2886 
Q 1100 2825 1034 2713 
Q 972 2609 945 2464 
Q 919 2319 919 2166 
Q 919 1819 1070 1600 
Q 1222 1381 1463 1381 
Q 1731 1381 1876 1598 
Q 2022 1816 2022 2147 
z
M 2622 -438 
Q 2622 -263 2540 -150 
Q 2459 -38 2294 3 
Q 2206 16 1934 31 
Q 1663 47 1303 47 
Q 966 -19 823 -173 
Q 681 -328 681 -572 
Q 681 -681 728 -781 
Q 775 -881 891 -966 
Q 1000 -1047 1184 -1098 
Q 1369 -1150 1634 -1150 
Q 2094 -1150 2358 -973 
Q 2622 -797 2622 -438 
z
" transform="scale(0.015625)"/>
       <path id="Georgia-62" d="M 3353 1544 
Q 3353 850 2915 378 
Q 2478 -94 1900 -94 
Q 1647 -94 1401 -15 
Q 1156 63 941 194 
L 709 -166 
L 516 -122 
Q 531 109 537 434 
Q 544 759 544 1063 
L 544 4113 
Q 544 4219 495 4325 
Q 447 4431 372 4478 
Q 313 4519 173 4539 
Q 34 4559 -50 4566 
L -50 4766 
L 1081 4838 
L 1125 4791 
L 1125 2759 
L 1147 2753 
Q 1341 2959 1570 3062 
Q 1800 3166 2022 3166 
Q 2591 3166 2972 2716 
Q 3353 2266 3353 1544 
z
M 2700 1522 
Q 2700 1753 2650 1993 
Q 2600 2234 2494 2413 
Q 2388 2594 2216 2706 
Q 2044 2819 1803 2819 
Q 1584 2819 1420 2733 
Q 1256 2647 1125 2500 
L 1125 706 
Q 1144 631 1198 531 
Q 1253 431 1347 341 
Q 1441 253 1559 198 
Q 1678 144 1850 144 
Q 2231 144 2465 512 
Q 2700 881 2700 1522 
z
" transform="scale(0.015625)"/>
      </defs>
      <use xlink:href="#Georgia-36"/>
      <use xlink:href="#Georgia-34" x="56.591797"/>
      <use xlink:href="#Georgia-2c" x="113.085938"/>
      <use xlink:href="#Georgia-20" x="140.039062"/>
      <use xlink:href="#Georgia-74" x="164.160156"/>
      <use xlink:href="#Georgia-3d" x="198.681641"/>
      <use xlink:href="#Georgia-31" x="262.988281"/>
      <use xlink:href="#Georgia-2e" x="305.957031"/>
      <use xlink:href="#Georgia-30" x="332.910156"/>
      <use xlink:href="#Georgia-2c" x="394.287109"/>
      <use xlink:href="#Georgia-67" x="421.240234"/>
      <use xlink:href="#Georgia-67" x="472.167969"/>
      <use xlink:href="#Georgia-62" x="523.095703"/>
     </g>
    </g>
   </g>
  </g>
  <g id="axes_2">
   <g id="patch_8">
    <path d="M 747.142799 515.68 
L 993.64125 515.68 
L 993.64125 7.2 
L 747.142799 7.2 
L 747.142799 515.68 
z
" style="fill: none"/>
   </g>
   <g id="matplotlib.axis_3">
    <g id="xtick_8">
     <g id="line2d_39">
      <path d="M 758.347274 515.68 
L 758.347274 7.2 
" clip-path="url(#p5b26d046a8)" style="fill: none; stroke: #b0b0b0; stroke-width: 0.8; stroke-linecap: square"/>
     </g>
     <g id="line2d_40">
      <g>
       <use xlink:href="#ma8d8d714e2" x="758.347274" y="515.68" style="stroke: #000000; stroke-width: 0.8"/>
      </g>
     </g>
     <g id="text_22">
      <!-- 0 -->
      <g transform="translate(753.437274 534.775) scale(0.16 -0.16)">
       <use xlink:href="#Georgia-30"/>
      </g>
     </g>
    </g>
    <g id="xtick_9">
     <g id="line2d_41">
      <path d="M 829.677177 515.68 
L 829.677177 7.2 
" clip-path="url(#p5b26d046a8)" style="fill: none; stroke: #b0b0b0; stroke-width: 0.8; stroke-linecap: square"/>
     </g>
     <g id="line2d_42">
      <g>
       <use xlink:href="#ma8d8d714e2" x="829.677177" y="515.68" style="stroke: #000000; stroke-width: 0.8"/>
      </g>
     </g>
     <g id="text_23">
      <!-- 2 -->
      <g transform="translate(825.208427 534.775) scale(0.16 -0.16)">
       <use xlink:href="#Georgia-32"/>
      </g>
     </g>
    </g>
    <g id="xtick_10">
     <g id="line2d_43">
      <path d="M 901.007081 515.68 
L 901.007081 7.2 
" clip-path="url(#p5b26d046a8)" style="fill: none; stroke: #b0b0b0; stroke-width: 0.8; stroke-linecap: square"/>
     </g>
     <g id="line2d_44">
      <g>
       <use xlink:href="#ma8d8d714e2" x="901.007081" y="515.68" style="stroke: #000000; stroke-width: 0.8"/>
      </g>
     </g>
     <g id="text_24">
      <!-- 4 -->
      <g transform="translate(896.487081 534.775) scale(0.16 -0.16)">
       <use xlink:href="#Georgia-34"/>
      </g>
     </g>
    </g>
    <g id="xtick_11">
     <g id="line2d_45">
      <path d="M 972.336985 515.68 
L 972.336985 7.2 
" clip-path="url(#p5b26d046a8)" style="fill: none; stroke: #b0b0b0; stroke-width: 0.8; stroke-linecap: square"/>
     </g>
     <g id="line2d_46">
      <g>
       <use xlink:href="#ma8d8d714e2" x="972.336985" y="515.68" style="stroke: #000000; stroke-width: 0.8"/>
      </g>
     </g>
     <g id="text_25">
      <!-- 6 -->
      <g transform="translate(967.809485 534.775) scale(0.16 -0.16)">
       <use xlink:href="#Georgia-36"/>
      </g>
     </g>
    </g>
    <g id="text_26">
     <!-- $x$ -->
     <g transform="translate(864.392024 557.36375) scale(0.2 -0.2)">
      <use xlink:href="#DejaVuSans-Oblique-78" transform="translate(0 0.3125)"/>
     </g>
    </g>
   </g>
   <g id="matplotlib.axis_4">
    <g id="ytick_10">
     <g id="line2d_47">
      <path d="M 747.142799 441.725798 
L 993.64125 441.725798 
" clip-path="url(#p5b26d046a8)" style="fill: none; stroke: #b0b0b0; stroke-width: 0.8; stroke-linecap: square"/>
     </g>
     <g id="line2d_48">
      <g>
       <use xlink:href="#m8dd9bdeb0f" x="747.142799" y="441.725798" style="stroke: #000000; stroke-width: 0.8"/>
      </g>
     </g>
     <g id="text_27">
      <!-- $\mathdefault{10^{-8}}$ -->
      <g transform="translate(708.942799 447.773298) scale(0.16 -0.16)">
       <defs>
        <path id="Georgia-38" d="M 3491 1175 
Q 3491 650 3037 272 
Q 2584 -106 1847 -106 
Q 1156 -106 740 241 
Q 325 588 325 1134 
Q 325 1538 570 1808 
Q 816 2078 1297 2266 
Q 900 2488 703 2753 
Q 506 3019 506 3353 
Q 506 3863 939 4206 
Q 1372 4550 1975 4550 
Q 2578 4550 2951 4225 
Q 3325 3900 3325 3409 
Q 3325 3094 3119 2811 
Q 2913 2528 2513 2347 
Q 3031 2125 3261 1856 
Q 3491 1588 3491 1175 
z
M 2734 3444 
Q 2734 3825 2507 4064 
Q 2281 4303 1928 4303 
Q 1575 4303 1350 4073 
Q 1125 3844 1125 3503 
Q 1125 3175 1381 2947 
Q 1638 2719 2294 2459 
Q 2528 2609 2631 2856 
Q 2734 3103 2734 3444 
z
M 2866 1028 
Q 2866 1225 2781 1373 
Q 2697 1522 2538 1644 
Q 2384 1763 2111 1892 
Q 1838 2022 1519 2156 
Q 1219 1994 1078 1742 
Q 938 1491 938 1169 
Q 938 709 1208 426 
Q 1478 144 1928 144 
Q 2359 144 2612 394 
Q 2866 644 2866 1028 
z
" transform="scale(0.015625)"/>
       </defs>
       <use xlink:href="#Georgia-31" transform="translate(0 0.535938)"/>
       <use xlink:href="#Georgia-30" transform="translate(42.96875 0.535938)"/>
       <use xlink:href="#Georgia-2212" transform="translate(105.188164 34.234375) scale(0.7)"/>
       <use xlink:href="#Georgia-38" transform="translate(150.202812 34.234375) scale(0.7)"/>
      </g>
     </g>
    </g>
    <g id="ytick_11">
     <g id="line2d_49">
      <path d="M 747.142799 344.674195 
L 993.64125 344.674195 
" clip-path="url(#p5b26d046a8)" style="fill: none; stroke: #b0b0b0; stroke-width: 0.8; stroke-linecap: square"/>
     </g>
     <g id="line2d_50">
      <g>
       <use xlink:href="#m8dd9bdeb0f" x="747.142799" y="344.674195" style="stroke: #000000; stroke-width: 0.8"/>
      </g>
     </g>
     <g id="text_28">
      <!-- $\mathdefault{10^{-6}}$ -->
      <g transform="translate(709.262799 350.721695) scale(0.16 -0.16)">
       <use xlink:href="#Georgia-31" transform="translate(0 0.601562)"/>
       <use xlink:href="#Georgia-30" transform="translate(42.96875 0.601562)"/>
       <use xlink:href="#Georgia-2212" transform="translate(105.188164 34.3) scale(0.7)"/>
       <use xlink:href="#Georgia-36" transform="translate(150.202812 34.3) scale(0.7)"/>
      </g>
     </g>
    </g>
    <g id="ytick_12">
     <g id="line2d_51">
      <path d="M 747.142799 247.622591 
L 993.64125 247.622591 
" clip-path="url(#p5b26d046a8)" style="fill: none; stroke: #b0b0b0; stroke-width: 0.8; stroke-linecap: square"/>
     </g>
     <g id="line2d_52">
      <g>
       <use xlink:href="#m8dd9bdeb0f" x="747.142799" y="247.622591" style="stroke: #000000; stroke-width: 0.8"/>
      </g>
     </g>
     <g id="text_29">
      <!-- $\mathdefault{10^{-4}}$ -->
      <g transform="translate(709.262799 253.670091) scale(0.16 -0.16)">
       <use xlink:href="#Georgia-31" transform="translate(0 0.742188)"/>
       <use xlink:href="#Georgia-30" transform="translate(42.96875 0.742188)"/>
       <use xlink:href="#Georgia-2212" transform="translate(105.188164 34.440625) scale(0.7)"/>
       <use xlink:href="#Georgia-34" transform="translate(150.202812 34.440625) scale(0.7)"/>
      </g>
     </g>
    </g>
    <g id="ytick_13">
     <g id="line2d_53">
      <path d="M 747.142799 150.570987 
L 993.64125 150.570987 
" clip-path="url(#p5b26d046a8)" style="fill: none; stroke: #b0b0b0; stroke-width: 0.8; stroke-linecap: square"/>
     </g>
     <g id="line2d_54">
      <g>
       <use xlink:href="#m8dd9bdeb0f" x="747.142799" y="150.570987" style="stroke: #000000; stroke-width: 0.8"/>
      </g>
     </g>
     <g id="text_30">
      <!-- $\mathdefault{10^{-2}}$ -->
      <g transform="translate(709.422799 156.618487) scale(0.16 -0.16)">
       <use xlink:href="#Georgia-31" transform="translate(0 0.534375)"/>
       <use xlink:href="#Georgia-30" transform="translate(42.96875 0.534375)"/>
       <use xlink:href="#Georgia-2212" transform="translate(105.188164 34.232813) scale(0.7)"/>
       <use xlink:href="#Georgia-32" transform="translate(150.202812 34.232813) scale(0.7)"/>
      </g>
     </g>
    </g>
    <g id="ytick_14">
     <g id="line2d_55">
      <path d="M 747.142799 53.519383 
L 993.64125 53.519383 
" clip-path="url(#p5b26d046a8)" style="fill: none; stroke: #b0b0b0; stroke-width: 0.8; stroke-linecap: square"/>
     </g>
     <g id="line2d_56">
      <g>
       <use xlink:href="#m8dd9bdeb0f" x="747.142799" y="53.519383" style="stroke: #000000; stroke-width: 0.8"/>
      </g>
     </g>
     <g id="text_31">
      <!-- $\mathdefault{10^{0}}$ -->
      <g transform="translate(715.982799 59.566883) scale(0.16 -0.16)">
       <use xlink:href="#Georgia-31" transform="translate(0 0.534375)"/>
       <use xlink:href="#Georgia-30" transform="translate(42.96875 0.534375)"/>
       <use xlink:href="#Georgia-30" transform="translate(105.188164 34.232813) scale(0.7)"/>
      </g>
     </g>
    </g>
    <g id="text_32">
     <!-- $|y-y_{exact}|$ -->
     <g transform="translate(700.142799 311.94) rotate(-90) scale(0.2 -0.2)">
      <defs>
       <path id="DejaVuSans-7c" d="M 1344 4891 
L 1344 -1509 
L 813 -1509 
L 813 4891 
L 1344 4891 
z
" transform="scale(0.015625)"/>
       <path id="DejaVuSans-2212" d="M 678 2272 
L 4684 2272 
L 4684 1741 
L 678 1741 
L 678 2272 
z
" transform="scale(0.015625)"/>
       <path id="DejaVuSans-Oblique-65" d="M 3078 2063 
Q 3088 2113 3092 2166 
Q 3097 2219 3097 2272 
Q 3097 2653 2873 2875 
Q 2650 3097 2266 3097 
Q 1838 3097 1509 2826 
Q 1181 2556 1013 2059 
L 3078 2063 
z
M 3578 1613 
L 903 1613 
Q 884 1494 878 1425 
Q 872 1356 872 1306 
Q 872 872 1139 634 
Q 1406 397 1894 397 
Q 2269 397 2603 481 
Q 2938 566 3225 728 
L 3116 159 
Q 2806 34 2476 -28 
Q 2147 -91 1806 -91 
Q 1078 -91 686 257 
Q 294 606 294 1247 
Q 294 1794 489 2264 
Q 684 2734 1063 3103 
Q 1306 3334 1642 3459 
Q 1978 3584 2356 3584 
Q 2950 3584 3301 3228 
Q 3653 2872 3653 2272 
Q 3653 2128 3634 1964 
Q 3616 1800 3578 1613 
z
" transform="scale(0.015625)"/>
       <path id="DejaVuSans-Oblique-61" d="M 3438 1997 
L 3047 0 
L 2472 0 
L 2578 531 
Q 2325 219 2001 64 
Q 1678 -91 1281 -91 
Q 834 -91 548 182 
Q 263 456 263 884 
Q 263 1497 752 1853 
Q 1241 2209 2100 2209 
L 2900 2209 
L 2931 2363 
Q 2938 2388 2941 2417 
Q 2944 2447 2944 2509 
Q 2944 2788 2717 2942 
Q 2491 3097 2081 3097 
Q 1800 3097 1504 3025 
Q 1209 2953 897 2809 
L 997 3341 
Q 1322 3463 1633 3523 
Q 1944 3584 2234 3584 
Q 2853 3584 3176 3315 
Q 3500 3047 3500 2534 
Q 3500 2431 3484 2292 
Q 3469 2153 3438 1997 
z
M 2816 1759 
L 2241 1759 
Q 1534 1759 1195 1570 
Q 856 1381 856 984 
Q 856 709 1029 553 
Q 1203 397 1509 397 
Q 1978 397 2328 733 
Q 2678 1069 2791 1631 
L 2816 1759 
z
" transform="scale(0.015625)"/>
       <path id="DejaVuSans-Oblique-63" d="M 3431 3366 
L 3316 2797 
Q 3109 2947 2876 3022 
Q 2644 3097 2394 3097 
Q 2119 3097 1870 3000 
Q 1622 2903 1453 2725 
Q 1184 2453 1037 2087 
Q 891 1722 891 1331 
Q 891 859 1127 628 
Q 1363 397 1844 397 
Q 2081 397 2348 469 
Q 2616 541 2906 684 
L 2797 116 
Q 2547 13 2283 -39 
Q 2019 -91 1741 -91 
Q 1044 -91 669 257 
Q 294 606 294 1253 
Q 294 1797 489 2255 
Q 684 2713 1069 3078 
Q 1331 3328 1684 3456 
Q 2038 3584 2456 3584 
Q 2700 3584 2940 3529 
Q 3181 3475 3431 3366 
z
" transform="scale(0.015625)"/>
       <path id="DejaVuSans-Oblique-74" d="M 2706 3500 
L 2619 3053 
L 1472 3053 
L 1100 1153 
Q 1081 1047 1072 975 
Q 1063 903 1063 863 
Q 1063 663 1183 572 
Q 1303 481 1569 481 
L 2150 481 
L 2053 0 
L 1503 0 
Q 991 0 739 200 
Q 488 400 488 806 
Q 488 878 497 964 
Q 506 1050 525 1153 
L 897 3053 
L 409 3053 
L 500 3500 
L 978 3500 
L 1172 4494 
L 1747 4494 
L 1556 3500 
L 2706 3500 
z
" transform="scale(0.015625)"/>
      </defs>
      <use xlink:href="#DejaVuSans-7c" transform="translate(0 0.578125)"/>
      <use xlink:href="#DejaVuSans-Oblique-79" transform="translate(33.691406 0.578125)"/>
      <use xlink:href="#DejaVuSans-2212" transform="translate(112.353516 0.578125)"/>
      <use xlink:href="#DejaVuSans-Oblique-79" transform="translate(215.625 0.578125)"/>
      <use xlink:href="#DejaVuSans-Oblique-65" transform="translate(274.804688 -15.828125) scale(0.7)"/>
      <use xlink:href="#DejaVuSans-Oblique-78" transform="translate(317.871094 -15.828125) scale(0.7)"/>
      <use xlink:href="#DejaVuSans-Oblique-61" transform="translate(359.296875 -15.828125) scale(0.7)"/>
      <use xlink:href="#DejaVuSans-Oblique-63" transform="translate(402.192383 -15.828125) scale(0.7)"/>
      <use xlink:href="#DejaVuSans-Oblique-74" transform="translate(440.678711 -15.828125) scale(0.7)"/>
      <use xlink:href="#DejaVuSans-7c" transform="translate(470.859375 0.578125)"/>
     </g>
    </g>
   </g>
   <g id="line2d_57">
    <path d="M 758.347274 200.913903 
L 758.571588 207.241308 
L 758.795901 217.587175 
L 759.020215 239.063072 
L 759.244529 248.731239 
L 759.468843 224.609397 
L 759.693157 216.326434 
L 759.917471 213.211268 
L 760.141784 213.674803 
L 760.366098 218.117816 
L 760.590412 230.096508 
L 760.814726 284.319955 
L 761.03904 223.008284 
L 761.487667 198.691552 
L 761.936295 188.223814 
L 762.384922 183.586074 
L 762.609236 182.986038 
L 762.83355 183.56039 
L 763.057864 185.503604 
L 763.282178 189.270817 
L 763.506492 195.972596 
L 763.730805 209.29667 
L 763.955119 285.511894 
L 764.179433 206.23238 
L 764.628061 182.803212 
L 765.076688 172.936134 
L 765.525316 168.333696 
L 765.74963 167.484445 
L 765.973944 167.558105 
L 766.198257 168.623604 
L 766.422571 170.859601 
L 766.646885 174.643123 
L 766.871199 180.819342 
L 767.095513 191.805825 
L 767.319826 222.772755 
L 767.768454 184.097604 
L 768.217082 168.318519 
L 768.665709 161.113517 
L 769.114337 158.277968 
L 769.338651 158.20606 
L 769.562965 159.052658 
L 769.787278 160.941306 
L 770.011592 164.137684 
L 770.235906 169.203236 
L 770.46022 177.518264 
L 770.684534 194.191214 
L 770.908847 219.684434 
L 771.133161 183.80877 
L 771.581789 163.907132 
L 772.030417 155.522425 
L 772.479044 151.975925 
L 772.703358 151.568896 
L 772.927672 152.041557 
L 773.151986 153.467151 
L 773.376299 156.02453 
L 773.600613 160.084255 
L 773.824927 166.46697 
L 774.049241 177.481681 
L 774.273555 206.723674 
L 774.946496 162.074709 
L 775.395124 151.894726 
L 775.843751 147.377757 
L 776.068065 146.5569 
L 776.292379 146.603879 
L 776.516693 147.547452 
L 776.741007 149.500981 
L 776.96532 152.70984 
L 777.189634 157.686775 
L 777.413948 165.657199 
L 777.638262 180.828682 
L 777.862576 224.967455 
L 778.08689 175.788071 
L 778.535517 154.746403 
L 778.984145 146.230088 
L 779.432772 142.679521 
L 779.657086 142.273536 
L 779.8814 142.735904 
L 780.105714 144.128052 
L 780.330028 146.609673 
L 780.554341 150.512204 
L 780.778655 156.554174 
L 781.002969 166.65232 
L 781.227283 189.99505 
L 781.451597 187.732529 
L 781.675911 165.302779 
L 782.124538 148.65758 
L 782.573166 141.487737 
L 782.79748 139.679627 
L 783.021793 138.795247 
L 783.246107 138.77676 
L 783.470421 139.64072 
L 783.694735 141.484106 
L 783.919049 144.523483 
L 784.143363 149.20741 
L 784.367676 156.570469 
L 784.59199 169.850181 
L 784.816304 227.812167 
L 785.040618 172.2343 
L 785.489245 148.811913 
L 785.937873 139.80963 
L 786.386501 136.018424 
L 786.610815 135.512077 
L 786.835128 135.868624 
L 787.059442 137.135027 
L 787.283756 139.449336 
L 787.50807 143.101263 
L 787.732384 148.706249 
L 787.956697 157.818492 
L 788.405325 190.710582 
L 788.629639 161.725931 
L 789.078266 143.445197 
L 789.526894 135.807731 
L 789.975522 132.840956 
L 790.199836 132.698122 
L 790.424149 133.42722 
L 790.648463 135.107951 
L 790.872777 137.92819 
L 791.097091 142.275679 
L 791.321405 149.015579 
L 791.545718 160.635999 
L 791.770032 193.369606 
L 792.21866 153.597016 
L 792.667288 138.721792 
L 793.115915 132.249505 
L 793.340229 130.699668 
L 793.564543 130.052463 
L 793.788857 130.266481 
L 794.01317 131.373613 
L 794.237484 133.490748 
L 794.461798 136.868796 
L 794.686112 142.032346 
L 794.910426 150.24243 
L 795.134739 165.902363 
L 795.359053 204.551927 
L 795.583367 159.885524 
L 796.031995 139.413853 
L 796.480622 131.190011 
L 796.92925 127.880928 
L 797.153564 127.586866 
L 797.377878 128.157516 
L 797.602191 129.655553 
L 797.826505 132.242126 
L 798.050819 136.25107 
L 798.275133 142.406534 
L 798.499447 152.645392 
L 798.723761 176.345324 
L 798.948074 173.414714 
L 799.172388 151.299514 
L 799.621016 134.882692 
L 800.069643 127.883168 
L 800.293957 126.152954 
L 800.518271 125.343175 
L 800.742585 125.396412 
L 800.966899 126.329361 
L 801.191212 128.238886 
L 801.415526 131.341057 
L 801.63984 136.083064 
L 801.864154 143.495246 
L 802.088468 156.794715 
L 802.312782 213.544155 
L 802.537095 159.488265 
L 802.985723 136.110616 
L 803.434351 127.202795 
L 803.882978 123.506626 
L 804.107292 123.045787 
L 804.331606 123.44571 
L 804.55592 124.752541 
L 804.780234 127.102948 
L 805.004547 130.783844 
L 805.228861 136.403758 
L 805.453175 145.493501 
L 805.901803 179.550537 
L 806.126116 149.92867 
L 806.574744 131.591448 
L 807.023372 123.992675 
L 807.471999 121.075811 
L 807.696313 120.957133 
L 807.920627 121.708135 
L 808.144941 123.406855 
L 808.369255 126.238332 
L 808.593568 130.584322 
L 808.817882 137.293753 
L 809.042196 148.787854 
L 809.26651 180.252586 
L 809.715137 142.446268 
L 810.163765 127.481135 
L 810.612393 121.011156 
L 810.836707 119.469193 
L 811.06102 118.830525 
L 811.285334 119.051969 
L 811.509648 120.16358 
L 811.733962 122.279645 
L 811.958276 125.64633 
L 812.182589 130.777341 
L 812.406903 138.900105 
L 812.631217 154.231796 
L 812.855531 198.203006 
L 813.079845 149.404314 
L 813.528472 128.637396 
L 813.9771 120.3671 
L 814.425728 117.044531 
L 814.650041 116.745606 
L 814.874355 117.309696 
L 815.098669 118.797047 
L 815.322983 121.365022 
L 815.547297 125.339961 
L 815.77161 131.427009 
L 815.995924 141.493423 
L 816.220238 164.271536 
L 816.444552 164.012213 
L 816.668866 141.055883 
L 817.117493 124.400091 
L 817.566121 117.337198 
L 817.790435 115.588368 
L 818.014749 114.762384 
L 818.239062 114.79922 
L 818.463376 115.713129 
L 818.68769 117.597809 
L 818.912004 120.663921 
L 819.136318 125.346936 
L 819.360631 132.643718 
L 819.584945 145.615856 
L 819.809259 194.590601 
L 820.033573 149.807163 
L 820.482201 125.86336 
L 820.930828 116.842028 
L 821.379456 113.085524 
L 821.60377 112.598753 
L 821.828083 112.971682 
L 822.052397 114.247591 
L 822.276711 116.558999 
L 822.501025 120.185046 
L 822.725339 125.715706 
L 822.949653 134.620298 
L 823.39828 171.810271 
L 823.622594 140.128866 
L 824.071222 121.394425 
L 824.519849 113.677297 
L 824.968477 110.684633 
L 825.192791 110.53078 
L 825.417104 111.244446 
L 825.641418 112.900224 
L 825.865732 115.677619 
L 826.090046 119.947033 
L 826.31436 126.527142 
L 826.538674 137.717131 
L 826.762987 166.975253 
L 827.435929 123.127197 
L 827.884556 113.262378 
L 828.333184 109.041395 
L 828.557498 108.358596 
L 828.781812 108.535542 
L 829.006126 109.59914 
L 829.230439 111.659421 
L 829.454753 114.955013 
L 829.679067 119.982622 
L 829.903381 127.91803 
L 830.127695 142.701643 
L 830.352008 198.337258 
L 830.576322 139.673143 
L 831.02495 118.310256 
L 831.473577 109.867922 
L 831.922205 106.430787 
L 832.146519 106.079048 
L 832.370833 106.588737 
L 832.595147 108.016517 
L 832.81946 110.514344 
L 833.043774 114.398045 
L 833.268088 120.34649 
L 833.492402 130.132624 
L 833.716716 151.672067 
L 833.941029 155.216776 
L 834.165343 130.875977 
L 834.613971 113.780965 
L 835.062599 106.544497 
L 835.286912 104.728829 
L 835.511226 103.840086 
L 835.73554 103.814534 
L 835.959854 104.663077 
L 836.184168 106.475201 
L 836.408481 109.454523 
L 836.632795 114.021477 
L 836.857109 121.130648 
L 837.081423 133.652962 
L 837.305737 175.796029 
L 837.53005 139.772417 
L 837.978678 114.953346 
L 838.427306 105.701284 
L 838.875933 101.787622 
L 839.100247 101.228491 
L 839.324561 101.528112 
L 839.548875 102.72616 
L 839.773189 104.950064 
L 839.997502 108.469599 
L 840.221816 113.85271 
L 840.44613 122.497095 
L 840.894758 164.022015 
L 841.119072 129.226263 
L 841.567699 109.897772 
L 842.016327 101.951383 
L 842.464954 98.783863 
L 842.689268 98.546309 
L 842.913582 99.173966 
L 843.137896 100.737451 
L 843.36221 103.41004 
L 843.586523 107.549556 
L 843.810837 113.941702 
L 844.035151 124.756075 
L 844.259465 151.832864 
L 844.483779 140.627844 
L 844.708093 120.689645 
L 845.15672 104.949431 
L 845.605348 98.118728 
L 845.829662 96.429497 
L 846.053975 95.64976 
L 846.278289 95.729532 
L 846.502603 96.692362 
L 846.726917 98.643923 
L 846.951231 101.815324 
L 847.175545 106.686611 
L 847.399858 114.383891 
L 847.624172 128.591553 
L 847.848486 208.611428 
L 848.0728 127.27341 
L 848.521427 105.160665 
L 848.970055 96.427001 
L 849.418683 92.757664 
L 849.642996 92.294423 
L 849.86731 92.691347 
L 850.091624 94.002018 
L 850.315938 96.374 
L 850.540252 100.114872 
L 850.764566 105.883337 
L 850.988879 115.381567 
L 851.213193 135.952508 
L 851.437507 142.502133 
L 851.661821 116.847263 
L 852.110448 99.237483 
L 852.559076 91.70618 
L 853.007704 88.741806 
L 853.232018 88.588737 
L 853.456331 89.308706 
L 853.680645 90.989328 
L 853.904959 93.831572 
L 854.129273 98.250694 
L 854.353587 105.18728 
L 854.5779 117.451006 
L 854.802214 157.675026 
L 855.026528 124.007427 
L 855.475156 98.646115 
L 855.923783 89.079848 
L 856.372411 84.876668 
L 856.596725 84.176388 
L 856.821039 84.337391 
L 857.045352 85.400789 
L 857.269666 87.497216 
L 857.49398 90.903472 
L 857.718294 96.20508 
L 857.942608 104.857862 
L 858.391235 142.363403 
L 858.615549 109.959091 
L 859.064177 90.69309 
L 859.512804 82.505373 
L 859.961432 79.058964 
L 860.185746 78.688289 
L 860.41006 79.198171 
L 860.634373 80.673142 
L 860.858687 83.312345 
L 861.083001 87.530296 
L 861.307315 94.268607 
L 861.531629 106.345302 
L 861.755943 146.617279 
L 861.980256 112.378203 
L 862.428884 86.632296 
L 862.877512 76.641525 
L 863.326139 72.01699 
L 863.550453 71.116793 
L 863.774767 71.094681 
L 863.999081 72.005827 
L 864.223394 74.007697 
L 864.447708 77.434607 
L 864.672022 83.019907 
L 864.896336 92.744611 
L 865.12065 116.441107 
L 865.344964 111.108577 
L 865.569277 88.819075 
L 866.017905 71.120135 
L 866.466533 62.632084 
L 866.91516 58.488036 
L 867.139474 57.707742 
L 867.363788 57.798369 
L 867.588102 58.877696 
L 867.812416 61.207813 
L 868.036729 65.351534 
L 868.261043 72.709796 
L 868.709671 110.497677 
L 868.933985 74.716211 
L 869.382612 51.935876 
L 869.83124 39.837486 
L 870.279867 31.610912 
L 870.504181 30.467913 
L 870.952809 38.320835 
L 871.401437 49.884648 
L 871.62575 58.420872 
L 871.850064 71.315505 
L 872.074378 101.077609 
L 872.298692 89.750525 
L 872.523006 71.835215 
L 872.971633 59.217314 
L 873.420261 55.115133 
L 873.644575 54.683092 
L 873.868889 55.095861 
L 874.093202 56.304552 
L 874.54183 61.26966 
L 874.990458 70.946831 
L 875.214771 79.074944 
L 875.439085 92.616678 
L 875.663399 136.487829 
L 875.887713 100.285972 
L 876.33634 77.296407 
L 876.784968 69.672204 
L 877.009282 67.97904 
L 877.233596 67.268218 
L 877.45791 67.419572 
L 877.682223 68.396271 
L 877.906537 70.231256 
L 878.355165 77.060435 
L 878.579479 82.796027 
L 878.803792 91.425314 
L 879.028106 106.902843 
L 879.25242 162.475263 
L 879.476734 105.07587 
L 879.925362 84.973169 
L 880.373989 77.712897 
L 880.598303 76.074078 
L 880.822617 75.395458 
L 881.046931 75.577924 
L 881.271244 76.601171 
L 881.495558 78.516311 
L 881.944186 85.738682 
L 882.1685 91.958642 
L 882.392813 101.69056 
L 882.841441 135.238825 
L 883.065755 107.110886 
L 883.514383 89.97138 
L 883.96301 83.388153 
L 884.187324 81.940869 
L 884.411638 81.423369 
L 884.635952 81.761212 
L 884.860265 82.954722 
L 885.084579 85.079044 
L 885.533207 93.023527 
L 885.757521 100.019503 
L 885.981835 111.558064 
L 886.206148 140.545488 
L 886.87909 99.068624 
L 887.327717 89.991255 
L 887.776345 86.56337 
L 888.000659 86.270074 
L 888.224973 86.828739 
L 888.449286 88.263162 
L 888.6736 90.678206 
L 889.122228 99.609093 
L 889.346542 107.70312 
L 889.570856 122.160821 
L 889.795169 258.684412 
L 890.019483 122.610244 
L 890.468111 101.131717 
L 890.916738 93.242312 
L 891.141052 91.347699 
L 891.365366 90.434835 
L 891.58968 90.399606 
L 891.813994 91.219069 
L 892.038308 92.94312 
L 892.486935 99.823394 
L 892.711249 105.900648 
L 892.935563 115.53468 
L 893.38419 147.730871 
L 893.608504 120.090056 
L 894.057132 102.807369 
L 894.505759 96.006667 
L 894.730073 94.452805 
L 894.954387 93.833928 
L 895.178701 94.077706 
L 895.403015 95.187101 
L 895.627329 97.241416 
L 896.075956 105.128289 
L 896.30027 112.199538 
L 896.524584 124.084559 
L 896.748898 156.309899 
L 897.197525 118.537663 
L 897.646153 104.276497 
L 898.094781 98.468277 
L 898.319094 97.250492 
L 898.543408 96.932425 
L 898.767722 97.470935 
L 898.992036 98.895727 
L 899.21635 101.320173 
L 899.664977 110.408959 
L 899.889291 118.793346 
L 900.113605 134.271194 
L 900.337919 181.601343 
L 900.562232 130.627391 
L 901.01086 110.306005 
L 901.459488 102.602006 
L 901.683802 100.743937 
L 901.908115 99.856285 
L 902.132429 99.844082 
L 902.356743 100.691826 
L 902.581057 102.457868 
L 903.029684 109.527178 
L 903.253998 115.838757 
L 903.478312 126.037999 
L 903.702626 148.326497 
L 903.92694 150.780821 
L 904.151254 127.276962 
L 904.599881 110.960179 
L 905.048509 104.399248 
L 905.272823 102.91249 
L 905.497136 102.350005 
L 905.72145 102.649198 
L 905.945764 103.821806 
L 906.170078 105.958133 
L 906.618705 114.158772 
L 906.843019 121.606074 
L 907.067333 134.501252 
L 907.291647 177.752992 
L 907.515961 140.974759 
L 907.964588 116.902179 
L 908.413216 108.302917 
L 908.861844 105.030304 
L 909.086157 104.79009 
L 909.310471 105.408022 
L 909.534785 106.923907 
L 909.759099 109.465185 
L 910.207727 119.000112 
L 910.43204 127.956783 
L 910.880668 170.266535 
L 911.104982 135.684784 
L 911.553609 116.979694 
L 912.002237 109.669198 
L 912.226551 107.928352 
L 912.450865 107.140032 
L 912.675178 107.221854 
L 912.899492 108.16862 
L 913.123806 110.050439 
L 913.572434 117.491945 
L 913.796748 124.187504 
L 914.021061 135.274109 
L 914.245375 162.338204 
L 914.469689 152.208274 
L 914.694003 132.42466 
L 915.14263 117.281985 
L 915.591258 111.093112 
L 915.815572 109.729125 
L 916.039886 109.275873 
L 916.2642 109.682563 
L 916.488513 110.971849 
L 916.712827 113.248068 
L 917.161455 121.921576 
L 917.385769 129.902454 
L 917.610082 144.281577 
L 917.834396 252.417466 
L 918.05871 144.310734 
L 918.507338 122.669599 
L 918.955965 114.583926 
L 919.404593 111.589451 
L 919.628907 111.466941 
L 919.853221 112.204783 
L 920.077534 113.854777 
L 920.301848 116.56162 
L 920.750476 126.695934 
L 920.97479 136.420448 
L 921.199103 156.760256 
L 921.423417 166.009267 
L 921.647731 139.736926 
L 922.096359 122.630916 
L 922.544986 115.78113 
L 922.7693 114.189447 
L 922.993614 113.531901 
L 923.217928 113.739576 
L 923.442242 114.818775 
L 923.666555 116.853303 
L 924.115183 124.771722 
L 924.339497 131.956222 
L 924.563811 144.224464 
L 924.788125 180.379836 
L 925.236752 136.854901 
L 925.68538 122.879499 
L 926.134007 117.111982 
L 926.358321 115.896115 
L 926.582635 115.577921 
L 926.806949 116.119091 
L 927.031263 117.554394 
L 927.255576 120.004445 
L 927.704204 129.260114 
L 927.928518 137.911169 
L 928.152832 154.34058 
L 928.377146 187.632784 
L 928.601459 147.419386 
L 929.050087 127.94551 
L 929.498715 120.40562 
L 929.723028 118.58755 
L 929.947342 117.731363 
L 930.171656 117.749134 
L 930.39597 118.631227 
L 930.620284 120.442806 
L 931.068911 127.689717 
L 931.293225 134.207903 
L 931.517539 144.906077 
L 931.741853 169.80912 
L 931.966167 164.744969 
L 932.19048 143.627665 
L 932.639108 128.006693 
L 933.087736 121.645513 
L 933.312049 120.221206 
L 933.536363 119.713958 
L 933.760677 120.068532 
L 933.984991 121.303549 
L 934.209305 123.518249 
L 934.657932 132.002304 
L 934.882246 139.78176 
L 935.10656 153.60257 
L 935.330874 218.983407 
L 935.555188 155.829241 
L 936.003815 133.392555 
L 936.452443 125.12439 
L 936.901071 122.029332 
L 937.125384 121.865161 
L 937.349698 122.561716 
L 937.574012 124.166951 
L 937.798326 126.820091 
L 938.246953 136.764797 
L 938.471267 146.244728 
L 938.919895 179.158399 
L 939.144209 150.886518 
L 939.592836 133.329526 
L 940.041464 126.352592 
L 940.265778 124.722207 
L 940.490092 124.032252 
L 940.714405 124.20995 
L 940.938719 125.258361 
L 941.163033 127.257485 
L 941.611661 135.060632 
L 941.835974 142.119095 
L 942.060288 154.063185 
L 942.284602 187.192633 
L 942.73323 147.925555 
L 943.181857 133.681522 
L 943.630485 127.832556 
L 943.854799 126.593081 
L 944.079113 126.255562 
L 944.303426 126.77862 
L 944.52774 128.19411 
L 944.752054 130.618788 
L 945.200682 139.771183 
L 945.424995 148.280906 
L 945.649309 164.220041 
L 945.873623 203.577399 
L 946.097937 158.914283 
L 946.546565 139.03166 
L 946.995192 131.416916 
L 947.219506 129.584405 
L 947.44382 128.719828 
L 947.668134 128.732071 
L 947.892447 129.609031 
L 948.116761 131.413226 
L 948.565389 138.619254 
L 948.789703 145.077101 
L 949.014017 155.610609 
L 949.23833 179.546377 
L 949.462644 177.126014 
L 949.686958 155.258642 
L 950.135586 139.442947 
L 950.584213 133.05947 
L 950.808527 131.639111 
L 951.032841 131.14004 
L 951.257155 131.50476 
L 951.481468 132.749953 
L 951.705782 134.97253 
L 952.15441 143.445898 
L 952.378724 151.175363 
L 952.603038 164.798146 
L 952.827351 222.102058 
L 953.051665 168.08768 
L 953.500293 145.359131 
L 953.94892 137.093309 
L 954.397548 134.042135 
L 954.621862 133.905625 
L 954.846176 134.63149 
L 955.07049 136.266336 
L 955.294803 138.947628 
L 955.743431 148.927514 
L 955.967745 158.382469 
L 956.416372 192.488191 
L 956.640686 163.583167 
L 957.089314 145.989631 
L 957.537941 139.084649 
L 957.762255 137.50025 
L 957.986569 136.859939 
L 958.210883 137.089995 
L 958.435197 138.192881 
L 958.659511 140.24812 
L 959.108138 148.165901 
L 959.332452 155.279692 
L 959.556766 167.267728 
L 959.78108 200.2792 
L 960.229707 161.420984 
L 960.678335 147.30543 
L 961.126963 141.606361 
L 961.351276 140.446579 
L 961.57559 140.191806 
L 961.799904 140.80093 
L 962.024218 142.30638 
L 962.248532 144.826015 
L 962.697159 154.195536 
L 962.921473 162.8498 
L 963.145787 179.058723 
L 963.370101 216.190626 
L 963.594414 173.376114 
L 964.043042 153.856978 
L 964.49167 146.496627 
L 964.715984 144.788479 
L 964.940297 144.050268 
L 965.164611 144.192654 
L 965.388925 145.205384 
L 965.613239 147.153531 
L 966.061866 154.694141 
L 966.28618 161.374859 
L 966.510494 172.262649 
L 966.734808 197.538034 
L 966.959122 192.08288 
L 967.183436 171.283982 
L 967.632063 156.057516 
L 968.080691 150.079412 
L 968.305005 148.853761 
L 968.529318 148.552241 
L 968.753632 149.121439 
L 968.977946 150.58254 
L 969.20226 153.039008 
L 969.650887 162.096156 
L 969.875201 170.279126 
L 970.099515 184.863143 
L 970.323829 295.985874 
L 970.548143 185.372104 
L 970.99677 164.205192 
L 971.445398 156.640715 
L 971.669712 154.928631 
L 971.894026 154.214796 
L 972.118339 154.397948 
L 972.342653 155.45931 
L 972.566967 157.455556 
L 973.015595 165.03339 
L 973.239909 171.625466 
L 973.464222 182.130729 
L 973.688536 204.813712 
L 973.91285 207.286591 
L 974.137164 184.222413 
L 974.585791 168.654093 
L 975.034419 162.900868 
L 975.258733 161.851954 
L 975.483047 161.755317 
L 975.70736 162.554084 
L 975.931674 164.268719 
L 976.380302 170.993387 
L 976.604616 176.721559 
L 976.82893 185.33116 
L 977.053243 200.586823 
L 977.277557 270.646987 
L 977.501871 200.563028 
L 977.950499 180.685862 
L 978.399126 174.22895 
L 978.62344 173.121584 
L 978.847754 173.067243 
L 979.072068 173.981603 
L 979.296382 175.869379 
L 979.745009 183.067542 
L 980.193637 197.87549 
L 980.417951 212.905345 
L 980.642264 284.809247 
L 980.866578 217.244508 
L 981.090892 204.307692 
L 981.315206 198.182593 
L 981.53952 195.149833 
L 981.763833 194.135221 
L 981.988147 194.757132 
L 982.212461 196.951406 
L 982.436775 200.913903 
L 982.436775 200.913903 
" clip-path="url(#p5b26d046a8)" style="fill: none; stroke: #a80000; stroke-width: 3; stroke-linecap: square"/>
   </g>
   <g id="line2d_58">
    <path d="M 758.347274 100.819009 
L 759.244529 106.52952 
L 760.590412 116.179857 
L 761.487667 121.029073 
L 762.384922 127.338414 
L 763.057864 133.734505 
L 763.730805 141.452569 
L 764.628061 146.418228 
L 765.525316 152.926782 
L 766.198257 159.598995 
L 766.646885 165.614134 
L 767.319826 175.421503 
L 768.217082 181.406622 
L 768.890023 187.366306 
L 769.562965 195.706638 
L 770.011592 203.94833 
L 770.46022 217.671557 
L 770.684534 225.527768 
L 771.357475 231.494593 
L 772.030417 239.849007 
L 772.479044 248.111335 
L 772.927672 261.893191 
L 773.151986 274.940357 
L 773.376299 315.965435 
L 773.600613 282.024933 
L 774.049241 256.237129 
L 774.273555 255.328567 
L 775.17081 260.280234 
L 776.068065 266.764691 
L 776.741007 273.403172 
L 777.189634 279.377326 
L 778.08689 292.634161 
L 778.535517 299.718246 
L 778.984145 310.467557 
L 779.208459 318.992446 
L 779.432772 333.54004 
L 779.657086 442.445277 
L 779.8814 333.781586 
L 780.330028 310.548071 
L 780.778655 299.766555 
L 781.002969 295.920192 
L 781.227283 294.917942 
L 782.124538 299.606406 
L 783.021793 305.64556 
L 783.694735 311.676889 
L 784.367676 320.159152 
L 785.264932 335.819256 
L 785.713559 350.377838 
L 785.937873 364.887622 
L 786.162187 463.530104 
L 786.386501 365.282135 
L 786.835128 341.997117 
L 787.283756 331.205362 
L 787.956697 321.28546 
L 788.181011 319.858747 
L 789.078266 323.919593 
L 789.975522 328.954306 
L 790.648463 333.719982 
L 791.321405 339.888222 
L 791.770032 345.660974 
L 792.21866 354.608039 
L 792.667288 370.470236 
L 792.891601 387.835928 
L 793.115915 414.690593 
L 793.340229 378.474293 
L 793.788857 358.005037 
L 794.237484 347.819918 
L 794.910426 338.248394 
L 795.134739 336.126883 
L 796.480622 340.36465 
L 797.602191 344.691511 
L 798.499447 348.933659 
L 798.723761 350.986074 
L 799.172388 358.169823 
L 799.621016 369.153275 
L 799.84533 377.974036 
L 800.069643 393.43147 
L 800.293957 446.065965 
L 800.518271 390.220669 
L 800.966899 368.084845 
L 801.415526 357.528853 
L 802.088468 347.742473 
L 802.312782 347.52902 
L 805.453175 349.012759 
L 805.677489 349.72273 
L 806.35043 358.255707 
L 806.799058 366.7827 
L 807.247685 381.336584 
L 807.471999 395.837042 
L 807.696313 492.567273 
L 807.920627 396.269414 
L 808.369255 372.971611 
L 808.817882 362.177319 
L 809.042196 358.327766 
L 809.490824 355.50349 
L 810.612393 351.149825 
L 811.958276 346.89066 
L 812.631217 345.171883 
L 813.304158 351.101371 
L 813.9771 359.382312 
L 814.425728 367.537341 
L 814.874355 381.016747 
L 815.098669 393.534342 
L 815.322983 428.66279 
L 815.77161 385.945183 
L 816.220238 370.358279 
L 816.89318 359.268347 
L 817.566121 352.039792 
L 818.463376 345.14315 
L 819.360631 339.955572 
L 819.584945 338.836226 
L 819.809259 339.646041 
L 820.706514 345.144583 
L 821.379456 350.47781 
L 822.052397 357.635381 
L 822.501025 364.256794 
L 822.949653 373.965579 
L 823.173966 383.204883 
L 823.39828 427.93224 
L 823.622594 388.974659 
L 824.071222 363.718251 
L 824.519849 352.556194 
L 825.192791 342.43122 
L 825.865732 335.620775 
L 826.538674 330.481934 
L 826.762987 330.209322 
L 828.10887 333.388753 
L 829.454753 337.134564 
L 830.127695 339.324385 
L 830.576322 353.075612 
L 830.800636 366.068189 
L 831.02495 406.395634 
L 831.473577 356.73262 
L 831.922205 341.149455 
L 832.370833 332.289119 
L 833.043774 323.536496 
L 833.492402 319.232459 
L 833.716716 317.89306 
L 835.286912 314.660014 
L 837.081423 311.486044 
L 837.305737 314.382839 
L 837.754364 324.600531 
L 837.978678 332.480309 
L 838.202992 345.209857 
L 838.427306 382.487363 
L 838.875933 336.828347 
L 839.324561 321.046668 
L 839.773189 312.124475 
L 840.44613 303.331723 
L 841.343385 295.105912 
L 842.240641 289.141753 
L 843.137896 284.498495 
L 844.035151 280.69584 
L 844.259465 282.08742 
L 844.708093 289.780055 
L 845.15672 302.019937 
L 845.381034 312.566108 
L 845.605348 334.655668 
L 845.829662 338.020887 
L 846.053975 313.685734 
L 846.502603 295.503357 
L 846.951231 285.889958 
L 847.848486 270.898788 
L 848.521427 259.274868 
L 849.194369 251.826388 
L 850.091624 244.78104 
L 850.988879 239.510111 
L 851.213193 239.72507 
L 851.661821 246.198945 
L 852.110448 255.591032 
L 852.334762 262.536385 
L 852.559076 272.965838 
L 852.78339 294.514769 
L 853.007704 299.746327 
L 853.232018 274.701771 
L 853.680645 256.334661 
L 854.129273 246.672134 
L 854.5779 240.072069 
L 855.026528 213.210174 
L 855.475156 200.636896 
L 856.148097 189.779132 
L 856.821039 182.648686 
L 857.718294 175.819227 
L 858.166921 172.513045 
L 858.615549 163.64395 
L 859.288491 154.885634 
L 859.961432 148.717013 
L 860.858687 142.575206 
L 861.531629 138.916206 
L 863.326139 121.061529 
L 864.223394 115.564385 
L 865.12065 111.208547 
L 866.017905 102.56375 
L 866.91516 96.377788 
L 867.812416 91.60157 
L 868.485357 88.61787 
L 868.709671 110.307102 
L 868.933985 75.624912 
L 869.382612 49.922942 
L 869.83124 38.682718 
L 870.279867 31.391467 
L 870.504181 30.312727 
L 870.952809 37.173705 
L 871.401437 47.411985 
L 871.62575 55.316086 
L 871.850064 68.110441 
L 872.074378 106.096055 
L 872.298692 119.509735 
L 873.420261 123.932685 
L 874.317516 128.290855 
L 875.214771 133.791721 
L 875.887713 137.992623 
L 877.009282 143.056459 
L 877.906537 148.21948 
L 878.579479 153.139392 
L 879.25242 158.873997 
L 880.149675 163.25866 
L 881.046931 168.801891 
L 881.719872 174.19129 
L 882.392813 181.45085 
L 882.617127 184.557963 
L 884.411638 196.581892 
L 885.084579 203.478525 
L 885.533207 209.770094 
L 886.430462 225.458307 
L 887.103404 231.27016 
L 887.776345 239.322117 
L 888.224973 247.148542 
L 888.6736 259.736879 
L 888.897914 270.807462 
L 889.122228 295.556161 
L 889.346542 291.090557 
L 889.570856 269.323859 
L 889.795169 265.085221 
L 893.159877 266.632214 
L 894.057132 272.77148 
L 894.730073 278.936684 
L 895.403015 287.688064 
L 895.851642 296.546491 
L 896.30027 312.123568 
L 896.524584 328.814975 
L 896.748898 364.801142 
L 896.973211 373.345971 
L 897.197525 346.944693 
L 897.646153 328.245247 
L 898.094781 318.495697 
L 898.767722 309.1843 
L 899.440663 302.748539 
L 900.113605 297.825226 
L 900.337919 298.376678 
L 901.235174 302.862782 
L 902.132429 308.569519 
L 902.805371 314.166752 
L 903.478312 321.810439 
L 904.375567 335.8854 
L 904.824195 348.565029 
L 905.048509 359.776653 
L 905.272823 385.314312 
L 905.497136 378.842572 
L 905.72145 357.634358 
L 906.170078 340.368179 
L 906.618705 331.006695 
L 907.067333 324.54725 
L 907.291647 323.660376 
L 909.086157 326.41516 
L 910.656354 329.161674 
L 911.329296 335.287864 
L 912.002237 343.981683 
L 912.450865 352.751917 
L 912.899492 368.05025 
L 913.123806 384.111036 
L 913.34812 425.133984 
L 913.572434 378.817798 
L 914.021061 357.286157 
L 914.245375 352.824201 
L 915.14263 346.91198 
L 916.039886 342.300182 
L 917.161455 337.670499 
L 917.610082 336.070249 
L 917.834396 336.814113 
L 918.731652 342.327263 
L 919.404593 347.678823 
L 920.077534 354.869595 
L 920.526162 361.533646 
L 920.97479 371.335267 
L 921.199103 378.69493 
L 921.423417 389.758652 
L 921.647731 414.469851 
L 921.872045 410.102569 
L 922.096359 388.307506 
L 922.544986 370.855655 
L 922.993614 361.441985 
L 923.666555 352.337157 
L 924.339497 345.999956 
L 924.563811 344.250267 
L 924.788125 343.776581 
L 926.358321 347.38313 
L 927.704204 351.057159 
L 928.152832 352.439428 
L 928.601459 358.34127 
L 929.050087 366.77345 
L 929.498715 381.046379 
L 929.723028 395.000062 
L 929.947342 453.902851 
L 930.171656 397.747607 
L 930.620284 373.63871 
L 931.068911 362.687178 
L 931.517539 355.516923 
L 931.741853 353.309969 
L 933.087736 348.852221 
L 934.433619 345.174741 
L 935.10656 343.551632 
L 935.330874 344.635247 
L 936.003815 350.620307 
L 936.676757 359.010746 
L 937.125384 367.326024 
L 937.574012 381.25932 
L 937.798326 394.579678 
L 938.02264 439.525382 
L 938.246953 400.281156 
L 938.695581 375.048267 
L 939.144209 363.856864 
L 939.81715 353.715876 
L 940.490092 346.898265 
L 941.387347 340.286599 
L 942.060288 336.409838 
L 942.284602 336.34597 
L 943.181857 340.85586 
L 944.079113 346.601235 
L 944.752054 352.248119 
L 945.424995 359.98519 
L 945.649309 363.357244 
L 945.873623 374.700988 
L 946.097937 404.78042 
L 946.770878 359.674201 
L 947.219506 347.939943 
L 947.892447 337.508826 
L 948.565389 330.562745 
L 949.014017 326.946576 
L 949.23833 325.897097 
L 951.032841 328.865338 
L 952.603038 331.856989 
L 952.827351 336.052024 
L 953.051665 343.918443 
L 953.275979 356.61251 
L 953.500293 393.513091 
L 953.94892 348.362128 
L 954.397548 332.552606 
L 954.846176 323.621798 
L 955.519117 314.823472 
L 956.192059 308.73647 
L 958.210883 305.785097 
L 959.556766 304.024694 
L 959.78108 306.8971 
L 960.005393 315.485223 
L 960.229707 330.222939 
L 960.454021 422.784096 
L 960.678335 329.707705 
L 961.126963 306.725362 
L 961.57559 295.99421 
L 962.248532 286.108406 
L 962.921473 279.405927 
L 963.370101 276.472718 
L 964.49167 272.107791 
L 965.837553 267.839649 
L 966.510494 265.991281 
L 966.734808 269.264983 
L 966.959122 302.786709 
L 967.407749 262.346178 
L 967.856377 246.246084 
L 968.305005 237.226252 
L 968.977946 228.37055 
L 969.650887 222.154133 
L 970.099515 218.839971 
L 970.99677 198.728207 
L 971.669712 190.192882 
L 972.342653 184.134954 
L 973.239909 178.075821 
L 973.688536 175.520439 
L 974.361478 165.393716 
L 975.034419 158.582488 
L 975.931674 151.975324 
L 976.82893 146.952665 
L 977.053243 145.864028 
L 977.501871 141.319219 
L 978.174812 134.821978 
L 979.072068 128.439139 
L 979.969323 123.546758 
L 980.642264 120.503024 
L 980.866578 123.024252 
L 981.315206 131.793375 
L 981.763833 147.088229 
L 981.988147 163.141314 
L 982.212461 204.280139 
L 982.436775 157.873759 
L 982.436775 157.873759 
" clip-path="url(#p5b26d046a8)" style="fill: none; stroke: #1f77b4; stroke-width: 3; stroke-linecap: square"/>
   </g>
   <g id="patch_9">
    <path d="M 747.142799 515.68 
L 747.142799 7.2 
" style="fill: none; stroke: #000000; stroke-width: 1.5; stroke-linejoin: miter; stroke-linecap: square"/>
   </g>
   <g id="patch_10">
    <path d="M 993.64125 515.68 
L 993.64125 7.2 
" style="fill: none; stroke: #000000; stroke-width: 1.5; stroke-linejoin: miter; stroke-linecap: square"/>
   </g>
   <g id="patch_11">
    <path d="M 747.142799 515.68 
L 993.64125 515.68 
" style="fill: none; stroke: #000000; stroke-width: 1.5; stroke-linejoin: miter; stroke-linecap: square"/>
   </g>
   <g id="patch_12">
    <path d="M 747.142799 7.2 
L 993.64125 7.2 
" style="fill: none; stroke: #000000; stroke-width: 1.5; stroke-linejoin: miter; stroke-linecap: square"/>
   </g>
   <g id="legend_2">
    <g id="patch_13">
     <path d="M 896.731875 44.65625 
L 986.64125 44.65625 
Q 988.64125 44.65625 988.64125 42.65625 
L 988.64125 14.2 
Q 988.64125 12.2 986.64125 12.2 
L 896.731875 12.2 
Q 894.731875 12.2 894.731875 14.2 
L 894.731875 42.65625 
Q 894.731875 44.65625 896.731875 44.65625 
z
" style="fill: #ffffff; opacity: 0.8; stroke: #cccccc; stroke-linejoin: miter"/>
    </g>
    <g id="line2d_59">
     <path d="M 898.731875 20.259375 
L 908.731875 20.259375 
L 918.731875 20.259375 
" style="fill: none; stroke: #a80000; stroke-width: 3; stroke-linecap: square"/>
    </g>
    <g id="text_33">
     <!-- 64, t=1.0 -->
     <g transform="translate(926.731875 23.759375) scale(0.1 -0.1)">
      <use xlink:href="#Georgia-36"/>
      <use xlink:href="#Georgia-34" x="56.591797"/>
      <use xlink:href="#Georgia-2c" x="113.085938"/>
      <use xlink:href="#Georgia-20" x="140.039062"/>
      <use xlink:href="#Georgia-74" x="164.160156"/>
      <use xlink:href="#Georgia-3d" x="198.681641"/>
      <use xlink:href="#Georgia-31" x="262.988281"/>
      <use xlink:href="#Georgia-2e" x="305.957031"/>
      <use xlink:href="#Georgia-30" x="332.910156"/>
     </g>
    </g>
    <g id="line2d_60">
     <path d="M 898.731875 34.9875 
L 908.731875 34.9875 
L 918.731875 34.9875 
" style="fill: none; stroke: #1f77b4; stroke-width: 3; stroke-linecap: square"/>
    </g>
    <g id="text_34">
     <!-- 64, t=1.0,ggb -->
     <g transform="translate(926.731875 38.4875) scale(0.1 -0.1)">
      <use xlink:href="#Georgia-36"/>
      <use xlink:href="#Georgia-34" x="56.591797"/>
      <use xlink:href="#Georgia-2c" x="113.085938"/>
      <use xlink:href="#Georgia-20" x="140.039062"/>
      <use xlink:href="#Georgia-74" x="164.160156"/>
      <use xlink:href="#Georgia-3d" x="198.681641"/>
      <use xlink:href="#Georgia-31" x="262.988281"/>
      <use xlink:href="#Georgia-2e" x="305.957031"/>
      <use xlink:href="#Georgia-30" x="332.910156"/>
      <use xlink:href="#Georgia-2c" x="394.287109"/>
      <use xlink:href="#Georgia-67" x="421.240234"/>
      <use xlink:href="#Georgia-67" x="472.167969"/>
      <use xlink:href="#Georgia-62" x="523.095703"/>
     </g>
    </g>
   </g>
  </g>
 </g>
 <defs>
  <clipPath id="pc8098b5c18">
   <rect x="56.98625" y="7.2" width="616.246128" height="508.48"/>
  </clipPath>
  <clipPath id="p5b26d046a8">
   <rect x="747.142799" y="7.2" width="246.498451" height="508.48"/>
  </clipPath>
 </defs>
</svg>
