<?xml version="1.0" encoding="utf-8" standalone="no"?>
<!DOCTYPE svg PUBLIC "-//W3C//DTD SVG 1.1//EN"
  "http://www.w3.org/Graphics/SVG/1.1/DTD/svg11.dtd">
<svg xmlns:xlink="http://www.w3.org/1999/xlink" width="1000.82875pt" height="568.90125pt" viewBox="0 0 1000.82875 568.90125" xmlns="http://www.w3.org/2000/svg" version="1.1">
 <metadata>
  <rdf:RDF xmlns:dc="http://purl.org/dc/elements/1.1/" xmlns:cc="http://creativecommons.org/ns#" xmlns:rdf="http://www.w3.org/1999/02/22-rdf-syntax-ns#">
   <cc:Work>
    <dc:type rdf:resource="http://purl.org/dc/dcmitype/StillImage"/>
    <dc:date>2023-11-29T04:08:21.360284</dc:date>
    <dc:format>image/svg+xml</dc:format>
    <dc:creator>
     <cc:Agent>
      <dc:title>Matplotlib v3.6.2, https://matplotlib.org/</dc:title>
     </cc:Agent>
    </dc:creator>
   </cc:Work>
  </rdf:RDF>
 </metadata>
 <defs>
  <style type="text/css">*{stroke-linejoin: round; stroke-linecap: butt}</style>
 </defs>
 <g id="figure_1">
  <g id="patch_1">
   <path d="M 0 568.90125 
L 1000.82875 568.90125 
L 1000.82875 0 
L 0 0 
L 0 568.90125 
z
" style="fill: none"/>
  </g>
  <g id="axes_1">
   <g id="patch_2">
    <path d="M 61.60875 515.68 
L 670.978025 515.68 
L 670.978025 7.2 
L 61.60875 7.2 
L 61.60875 515.68 
z
" style="fill: none"/>
   </g>
   <g id="matplotlib.axis_1">
    <g id="xtick_1">
     <g id="line2d_1">
      <path d="M 89.307353 515.68 
L 89.307353 7.2 
" clip-path="url(#pdfc4727441)" style="fill: none; stroke: #b0b0b0; stroke-width: 0.8; stroke-linecap: square"/>
     </g>
     <g id="line2d_2">
      <defs>
       <path id="m6e66c2cfce" d="M 0 0 
L 0 3.5 
" style="stroke: #000000; stroke-width: 0.8"/>
      </defs>
      <g>
       <use xlink:href="#m6e66c2cfce" x="89.307353" y="515.68" style="stroke: #000000; stroke-width: 0.8"/>
      </g>
     </g>
     <g id="text_1">
      <!-- 0 -->
      <g transform="translate(84.397353 534.775) scale(0.16 -0.16)">
       <defs>
        <path id="Georgia-30" d="M 3209 2919 
Q 3409 2678 3507 2354 
Q 3606 2031 3606 1678 
Q 3606 1253 3484 917 
Q 3363 581 3150 359 
Q 2931 131 2631 15 
Q 2331 -100 1963 -100 
Q 1559 -100 1243 34 
Q 928 169 731 403 
Q 525 647 423 973 
Q 322 1300 322 1678 
Q 322 2050 420 2362 
Q 519 2675 728 2928 
Q 928 3172 1243 3312 
Q 1559 3453 1966 3453 
Q 2394 3453 2700 3309 
Q 3006 3166 3209 2919 
z
M 2916 1678 
Q 2916 2422 2661 2831 
Q 2406 3241 1969 3241 
Q 1525 3241 1269 2831 
Q 1013 2422 1013 1678 
Q 1013 972 1258 542 
Q 1503 113 1963 113 
Q 2422 113 2669 542 
Q 2916 972 2916 1678 
z
" transform="scale(0.015625)"/>
       </defs>
       <use xlink:href="#Georgia-30"/>
      </g>
     </g>
    </g>
    <g id="xtick_2">
     <g id="line2d_3">
      <path d="M 177.474746 515.68 
L 177.474746 7.2 
" clip-path="url(#pdfc4727441)" style="fill: none; stroke: #b0b0b0; stroke-width: 0.8; stroke-linecap: square"/>
     </g>
     <g id="line2d_4">
      <g>
       <use xlink:href="#m6e66c2cfce" x="177.474746" y="515.68" style="stroke: #000000; stroke-width: 0.8"/>
      </g>
     </g>
     <g id="text_2">
      <!-- 1 -->
      <g transform="translate(174.037246 534.775) scale(0.16 -0.16)">
       <defs>
        <path id="Georgia-31" d="M 2528 0 
L 422 0 
L 422 222 
Q 516 228 714 248 
Q 913 269 988 291 
Q 1084 322 1136 392 
Q 1188 463 1188 603 
L 1188 2797 
L 409 2797 
L 409 3059 
L 581 3059 
Q 919 3059 1186 3184 
Q 1453 3309 1569 3453 
L 1828 3453 
Q 1819 3250 1809 2978 
Q 1800 2706 1800 2491 
L 1800 638 
Q 1800 528 1848 442 
Q 1897 356 1988 316 
Q 2069 281 2253 253 
Q 2438 225 2528 222 
L 2528 0 
z
" transform="scale(0.015625)"/>
       </defs>
       <use xlink:href="#Georgia-31"/>
      </g>
     </g>
    </g>
    <g id="xtick_3">
     <g id="line2d_5">
      <path d="M 265.642139 515.68 
L 265.642139 7.2 
" clip-path="url(#pdfc4727441)" style="fill: none; stroke: #b0b0b0; stroke-width: 0.8; stroke-linecap: square"/>
     </g>
     <g id="line2d_6">
      <g>
       <use xlink:href="#m6e66c2cfce" x="265.642139" y="515.68" style="stroke: #000000; stroke-width: 0.8"/>
      </g>
     </g>
     <g id="text_3">
      <!-- 2 -->
      <g transform="translate(261.173389 534.775) scale(0.16 -0.16)">
       <defs>
        <path id="Georgia-32" d="M 3272 0 
L 344 0 
L 344 425 
Q 428 522 578 642 
Q 728 763 934 903 
Q 1059 988 1234 1088 
Q 1409 1188 1631 1306 
Q 1878 1438 2011 1538 
Q 2144 1638 2253 1784 
Q 2325 1881 2369 2026 
Q 2413 2172 2413 2441 
Q 2413 2831 2203 3014 
Q 1994 3197 1666 3197 
Q 1463 3197 1281 3117 
Q 1100 3038 1009 2897 
Q 1031 2797 1064 2659 
Q 1097 2522 1097 2391 
Q 1097 2272 998 2180 
Q 900 2088 706 2088 
Q 550 2088 465 2195 
Q 381 2303 381 2484 
Q 381 2653 475 2823 
Q 569 2994 744 3138 
Q 916 3278 1169 3365 
Q 1422 3453 1716 3453 
Q 2356 3453 2732 3167 
Q 3109 2881 3109 2403 
Q 3109 2175 3042 1987 
Q 2975 1800 2825 1656 
Q 2659 1497 2437 1383 
Q 2216 1269 1759 1066 
Q 1488 944 1253 811 
Q 1019 678 869 553 
L 3272 553 
L 3272 0 
z
" transform="scale(0.015625)"/>
       </defs>
       <use xlink:href="#Georgia-32"/>
      </g>
     </g>
    </g>
    <g id="xtick_4">
     <g id="line2d_7">
      <path d="M 353.809532 515.68 
L 353.809532 7.2 
" clip-path="url(#pdfc4727441)" style="fill: none; stroke: #b0b0b0; stroke-width: 0.8; stroke-linecap: square"/>
     </g>
     <g id="line2d_8">
      <g>
       <use xlink:href="#m6e66c2cfce" x="353.809532" y="515.68" style="stroke: #000000; stroke-width: 0.8"/>
      </g>
     </g>
     <g id="text_4">
      <!-- 3 -->
      <g transform="translate(349.395782 534.775) scale(0.16 -0.16)">
       <defs>
        <path id="Georgia-33" d="M 1522 -1141 
Q 1228 -1141 984 -1067 
Q 741 -994 566 -869 
Q 391 -744 295 -581 
Q 200 -419 200 -247 
Q 200 -94 275 29 
Q 350 153 516 153 
Q 703 153 801 61 
Q 900 -31 900 -150 
Q 900 -250 867 -403 
Q 834 -556 816 -622 
Q 838 -650 895 -697 
Q 953 -744 1038 -781 
Q 1138 -828 1247 -856 
Q 1356 -884 1556 -884 
Q 1744 -884 1917 -821 
Q 2091 -759 2222 -622 
Q 2359 -478 2436 -286 
Q 2513 -94 2513 219 
Q 2513 388 2477 553 
Q 2441 719 2344 841 
Q 2247 963 2080 1030 
Q 1913 1097 1656 1097 
L 1247 1097 
L 1247 1456 
L 1519 1456 
Q 1950 1456 2140 1693 
Q 2331 1931 2331 2409 
Q 2331 2800 2147 2998 
Q 1963 3197 1625 3197 
Q 1463 3197 1358 3158 
Q 1253 3119 1188 3081 
Q 1109 3038 1059 2984 
Q 1009 2931 984 2906 
Q 1006 2806 1037 2661 
Q 1069 2516 1069 2384 
Q 1069 2269 970 2176 
Q 872 2084 681 2084 
Q 516 2084 439 2203 
Q 363 2322 363 2478 
Q 363 2641 453 2809 
Q 544 2978 722 3125 
Q 900 3272 1156 3362 
Q 1413 3453 1747 3453 
Q 2131 3453 2382 3339 
Q 2634 3225 2778 3063 
Q 2919 2903 2972 2728 
Q 3025 2553 3025 2428 
Q 3025 2272 2981 2114 
Q 2938 1956 2838 1822 
Q 2728 1675 2548 1554 
Q 2369 1434 2097 1359 
L 2097 1309 
Q 2272 1294 2470 1231 
Q 2669 1169 2828 1047 
Q 2994 919 3100 717 
Q 3206 516 3206 206 
Q 3206 -394 2725 -767 
Q 2244 -1141 1522 -1141 
z
" transform="scale(0.015625)"/>
       </defs>
       <use xlink:href="#Georgia-33"/>
      </g>
     </g>
    </g>
    <g id="xtick_5">
     <g id="line2d_9">
      <path d="M 441.976926 515.68 
L 441.976926 7.2 
" clip-path="url(#pdfc4727441)" style="fill: none; stroke: #b0b0b0; stroke-width: 0.8; stroke-linecap: square"/>
     </g>
     <g id="line2d_10">
      <g>
       <use xlink:href="#m6e66c2cfce" x="441.976926" y="515.68" style="stroke: #000000; stroke-width: 0.8"/>
      </g>
     </g>
     <g id="text_5">
      <!-- 4 -->
      <g transform="translate(437.456926 534.775) scale(0.16 -0.16)">
       <defs>
        <path id="Georgia-34" d="M 3388 281 
L 2753 281 
L 2753 -1141 
L 2153 -1141 
L 2153 281 
L 153 281 
L 153 763 
L 2344 3434 
L 2753 3434 
L 2753 691 
L 3388 691 
L 3388 281 
z
M 2153 691 
L 2153 2738 
L 466 691 
L 2153 691 
z
" transform="scale(0.015625)"/>
       </defs>
       <use xlink:href="#Georgia-34"/>
      </g>
     </g>
    </g>
    <g id="xtick_6">
     <g id="line2d_11">
      <path d="M 530.144319 515.68 
L 530.144319 7.2 
" clip-path="url(#pdfc4727441)" style="fill: none; stroke: #b0b0b0; stroke-width: 0.8; stroke-linecap: square"/>
     </g>
     <g id="line2d_12">
      <g>
       <use xlink:href="#m6e66c2cfce" x="530.144319" y="515.68" style="stroke: #000000; stroke-width: 0.8"/>
      </g>
     </g>
     <g id="text_6">
      <!-- 5 -->
      <g transform="translate(525.918069 534.775) scale(0.16 -0.16)">
       <defs>
        <path id="Georgia-35" d="M 2634 1466 
Q 2841 1303 2977 1047 
Q 3113 791 3113 406 
Q 3113 -266 2653 -703 
Q 2194 -1141 1488 -1141 
Q 941 -1141 562 -881 
Q 184 -622 184 -278 
Q 184 -119 262 0 
Q 341 119 503 119 
Q 691 119 789 20 
Q 888 -78 888 -194 
Q 888 -294 853 -444 
Q 819 -594 800 -666 
Q 825 -688 881 -725 
Q 938 -763 1016 -797 
Q 1097 -831 1214 -857 
Q 1331 -884 1488 -884 
Q 1688 -884 1866 -803 
Q 2044 -722 2166 -563 
Q 2300 -388 2367 -164 
Q 2434 59 2434 403 
Q 2434 844 2189 1133 
Q 1944 1422 1544 1422 
Q 1294 1422 1076 1328 
Q 859 1234 688 1016 
L 478 1097 
L 744 3353 
L 2981 3353 
L 2981 2797 
L 997 2797 
L 834 1472 
Q 975 1572 1204 1670 
Q 1434 1769 1709 1769 
Q 1938 1769 2183 1698 
Q 2428 1628 2634 1466 
z
" transform="scale(0.015625)"/>
       </defs>
       <use xlink:href="#Georgia-35"/>
      </g>
     </g>
    </g>
    <g id="xtick_7">
     <g id="line2d_13">
      <path d="M 618.311712 515.68 
L 618.311712 7.2 
" clip-path="url(#pdfc4727441)" style="fill: none; stroke: #b0b0b0; stroke-width: 0.8; stroke-linecap: square"/>
     </g>
     <g id="line2d_14">
      <g>
       <use xlink:href="#m6e66c2cfce" x="618.311712" y="515.68" style="stroke: #000000; stroke-width: 0.8"/>
      </g>
     </g>
     <g id="text_7">
      <!-- 6 -->
      <g transform="translate(613.784212 534.775) scale(0.16 -0.16)">
       <defs>
        <path id="Georgia-36" d="M 3359 1441 
Q 3359 1116 3242 831 
Q 3125 547 2928 347 
Q 2700 119 2423 9 
Q 2147 -100 1847 -100 
Q 1500 -100 1219 28 
Q 938 156 741 391 
Q 541 628 431 972 
Q 322 1316 322 1744 
Q 322 2859 986 3625 
Q 1650 4391 2766 4544 
L 2822 4263 
L 2541 4213 
Q 1863 3994 1492 3531 
Q 1122 3069 1013 2409 
Q 1281 2644 1543 2741 
Q 1806 2838 2097 2838 
Q 2619 2838 2989 2438 
Q 3359 2038 3359 1441 
z
M 2681 1356 
Q 2681 1863 2448 2169 
Q 2216 2475 1825 2475 
Q 1591 2475 1389 2387 
Q 1188 2300 1000 2094 
Q 997 2056 990 1920 
Q 984 1784 984 1706 
Q 984 975 1223 561 
Q 1463 147 1853 147 
Q 2225 147 2453 470 
Q 2681 794 2681 1356 
z
" transform="scale(0.015625)"/>
       </defs>
       <use xlink:href="#Georgia-36"/>
      </g>
     </g>
    </g>
    <g id="text_8">
     <!-- $x$ -->
     <g transform="translate(360.293388 557.36375) scale(0.2 -0.2)">
      <defs>
       <path id="DejaVuSans-Oblique-78" d="M 3841 3500 
L 2234 1784 
L 3219 0 
L 2559 0 
L 1819 1388 
L 531 0 
L -166 0 
L 1556 1844 
L 641 3500 
L 1300 3500 
L 1972 2234 
L 3144 3500 
L 3841 3500 
z
" transform="scale(0.015625)"/>
      </defs>
      <use xlink:href="#DejaVuSans-Oblique-78" transform="translate(0 0.3125)"/>
     </g>
    </g>
   </g>
   <g id="matplotlib.axis_2">
    <g id="ytick_1">
     <g id="line2d_15">
      <path d="M 61.60875 447.856806 
L 670.978025 447.856806 
" clip-path="url(#pdfc4727441)" style="fill: none; stroke: #b0b0b0; stroke-width: 0.8; stroke-linecap: square"/>
     </g>
     <g id="line2d_16">
      <defs>
       <path id="m75a6d59c7c" d="M 0 0 
L -3.5 0 
" style="stroke: #000000; stroke-width: 0.8"/>
      </defs>
      <g>
       <use xlink:href="#m75a6d59c7c" x="61.60875" y="447.856806" style="stroke: #000000; stroke-width: 0.8"/>
      </g>
     </g>
     <g id="text_9">
      <!-- 0.0 -->
      <g transform="translate(30.65625 453.904306) scale(0.16 -0.16)">
       <defs>
        <path id="Georgia-2e" d="M 1297 359 
Q 1297 184 1170 60 
Q 1044 -63 869 -63 
Q 694 -63 567 60 
Q 441 184 441 359 
Q 441 534 567 661 
Q 694 788 869 788 
Q 1044 788 1170 661 
Q 1297 534 1297 359 
z
" transform="scale(0.015625)"/>
       </defs>
       <use xlink:href="#Georgia-30"/>
       <use xlink:href="#Georgia-2e" x="61.376953"/>
       <use xlink:href="#Georgia-30" x="88.330078"/>
      </g>
     </g>
    </g>
    <g id="ytick_2">
     <g id="line2d_17">
      <path d="M 61.60875 364.347171 
L 670.978025 364.347171 
" clip-path="url(#pdfc4727441)" style="fill: none; stroke: #b0b0b0; stroke-width: 0.8; stroke-linecap: square"/>
     </g>
     <g id="line2d_18">
      <g>
       <use xlink:href="#m75a6d59c7c" x="61.60875" y="364.347171" style="stroke: #000000; stroke-width: 0.8"/>
      </g>
     </g>
     <g id="text_10">
      <!-- 0.2 -->
      <g transform="translate(31.53875 370.394671) scale(0.16 -0.16)">
       <use xlink:href="#Georgia-30"/>
       <use xlink:href="#Georgia-2e" x="61.376953"/>
       <use xlink:href="#Georgia-32" x="88.330078"/>
      </g>
     </g>
    </g>
    <g id="ytick_3">
     <g id="line2d_19">
      <path d="M 61.60875 280.837536 
L 670.978025 280.837536 
" clip-path="url(#pdfc4727441)" style="fill: none; stroke: #b0b0b0; stroke-width: 0.8; stroke-linecap: square"/>
     </g>
     <g id="line2d_20">
      <g>
       <use xlink:href="#m75a6d59c7c" x="61.60875" y="280.837536" style="stroke: #000000; stroke-width: 0.8"/>
      </g>
     </g>
     <g id="text_11">
      <!-- 0.4 -->
      <g transform="translate(31.43625 286.885036) scale(0.16 -0.16)">
       <use xlink:href="#Georgia-30"/>
       <use xlink:href="#Georgia-2e" x="61.376953"/>
       <use xlink:href="#Georgia-34" x="88.330078"/>
      </g>
     </g>
    </g>
    <g id="ytick_4">
     <g id="line2d_21">
      <path d="M 61.60875 197.327902 
L 670.978025 197.327902 
" clip-path="url(#pdfc4727441)" style="fill: none; stroke: #b0b0b0; stroke-width: 0.8; stroke-linecap: square"/>
     </g>
     <g id="line2d_22">
      <g>
       <use xlink:href="#m75a6d59c7c" x="61.60875" y="197.327902" style="stroke: #000000; stroke-width: 0.8"/>
      </g>
     </g>
     <g id="text_12">
      <!-- 0.6 -->
      <g transform="translate(31.42125 203.375402) scale(0.16 -0.16)">
       <use xlink:href="#Georgia-30"/>
       <use xlink:href="#Georgia-2e" x="61.376953"/>
       <use xlink:href="#Georgia-36" x="88.330078"/>
      </g>
     </g>
    </g>
    <g id="ytick_5">
     <g id="line2d_23">
      <path d="M 61.60875 113.818267 
L 670.978025 113.818267 
" clip-path="url(#pdfc4727441)" style="fill: none; stroke: #b0b0b0; stroke-width: 0.8; stroke-linecap: square"/>
     </g>
     <g id="line2d_24">
      <g>
       <use xlink:href="#m75a6d59c7c" x="61.60875" y="113.818267" style="stroke: #000000; stroke-width: 0.8"/>
      </g>
     </g>
     <g id="text_13">
      <!-- 0.8 -->
      <g transform="translate(30.93625 119.865767) scale(0.16 -0.16)">
       <defs>
        <path id="Georgia-38" d="M 3491 1175 
Q 3491 650 3037 272 
Q 2584 -106 1847 -106 
Q 1156 -106 740 241 
Q 325 588 325 1134 
Q 325 1538 570 1808 
Q 816 2078 1297 2266 
Q 900 2488 703 2753 
Q 506 3019 506 3353 
Q 506 3863 939 4206 
Q 1372 4550 1975 4550 
Q 2578 4550 2951 4225 
Q 3325 3900 3325 3409 
Q 3325 3094 3119 2811 
Q 2913 2528 2513 2347 
Q 3031 2125 3261 1856 
Q 3491 1588 3491 1175 
z
M 2734 3444 
Q 2734 3825 2507 4064 
Q 2281 4303 1928 4303 
Q 1575 4303 1350 4073 
Q 1125 3844 1125 3503 
Q 1125 3175 1381 2947 
Q 1638 2719 2294 2459 
Q 2528 2609 2631 2856 
Q 2734 3103 2734 3444 
z
M 2866 1028 
Q 2866 1225 2781 1373 
Q 2697 1522 2538 1644 
Q 2384 1763 2111 1892 
Q 1838 2022 1519 2156 
Q 1219 1994 1078 1742 
Q 938 1491 938 1169 
Q 938 709 1208 426 
Q 1478 144 1928 144 
Q 2359 144 2612 394 
Q 2866 644 2866 1028 
z
" transform="scale(0.015625)"/>
       </defs>
       <use xlink:href="#Georgia-30"/>
       <use xlink:href="#Georgia-2e" x="61.376953"/>
       <use xlink:href="#Georgia-38" x="88.330078"/>
      </g>
     </g>
    </g>
    <g id="ytick_6">
     <g id="line2d_25">
      <path d="M 61.60875 30.308632 
L 670.978025 30.308632 
" clip-path="url(#pdfc4727441)" style="fill: none; stroke: #b0b0b0; stroke-width: 0.8; stroke-linecap: square"/>
     </g>
     <g id="line2d_26">
      <g>
       <use xlink:href="#m75a6d59c7c" x="61.60875" y="30.308632" style="stroke: #000000; stroke-width: 0.8"/>
      </g>
     </g>
     <g id="text_14">
      <!-- 1.0 -->
      <g transform="translate(33.60125 36.356132) scale(0.16 -0.16)">
       <use xlink:href="#Georgia-31"/>
       <use xlink:href="#Georgia-2e" x="42.96875"/>
       <use xlink:href="#Georgia-30" x="69.921875"/>
      </g>
     </g>
    </g>
    <g id="text_15">
     <!-- $y$ -->
     <g transform="translate(22.31875 267.44) rotate(-90) scale(0.2 -0.2)">
      <defs>
       <path id="DejaVuSans-Oblique-79" d="M 1588 -325 
Q 1188 -997 936 -1164 
Q 684 -1331 294 -1331 
L -159 -1331 
L -63 -850 
L 269 -850 
Q 509 -850 678 -719 
Q 847 -588 1056 -206 
L 1234 128 
L 459 3500 
L 1069 3500 
L 1650 819 
L 3256 3500 
L 3859 3500 
L 1588 -325 
z
" transform="scale(0.015625)"/>
      </defs>
      <use xlink:href="#DejaVuSans-Oblique-79" transform="translate(0 0.3125)"/>
     </g>
    </g>
   </g>
   <g id="line2d_27">
    <path d="M 89.307353 447.835209 
L 120.915369 447.676158 
L 136.442114 447.390066 
L 147.532646 446.971607 
L 156.405071 446.412968 
L 163.613917 445.740008 
L 169.71371 444.961184 
L 175.258976 444.038882 
L 180.249715 442.99311 
L 184.685928 441.857693 
L 189.122141 440.494589 
L 193.003827 439.086572 
L 196.885513 437.449696 
L 200.767199 435.555096 
L 204.094359 433.702638 
L 207.421518 431.617544 
L 210.748678 429.278278 
L 214.075837 426.662492 
L 217.402997 423.747178 
L 220.730156 420.50886 
L 224.057316 416.92381 
L 227.384476 412.968303 
L 230.711635 408.618906 
L 234.038795 403.852798 
L 237.365954 398.648118 
L 240.693114 392.984349 
L 244.020273 386.842722 
L 247.347433 380.206642 
L 250.674593 373.062131 
L 254.001752 365.398278 
L 257.328912 357.207696 
L 260.656071 348.486969 
L 264.537757 337.644327 
L 268.419444 326.091556 
L 272.30113 313.848302 
L 276.737343 299.049607 
L 281.173555 283.451232 
L 286.164295 265.050057 
L 291.709561 243.719061 
L 298.918406 214.995663 
L 316.663257 143.702695 
L 321.653997 124.725914 
L 326.090209 108.69549 
L 329.971896 95.48447 
L 333.299055 84.873621 
L 336.626215 75.006696 
L 339.398848 67.408309 
L 342.171481 60.422129 
L 344.944114 54.08726 
L 347.16222 49.512541 
L 349.380326 45.39445 
L 351.598433 41.74818 
L 353.816539 38.587273 
L 355.480119 36.542282 
L 357.143699 34.781301 
L 358.807279 33.308059 
L 360.470858 32.125684 
L 362.134438 31.236689 
L 363.798018 30.642971 
L 365.461598 30.345794 
L 367.125178 30.345794 
L 368.788757 30.642971 
L 370.452337 31.236689 
L 372.115917 32.125684 
L 373.779497 33.308059 
L 375.443076 34.781301 
L 377.106656 36.542282 
L 378.770236 38.587273 
L 380.988342 41.74818 
L 383.206449 45.39445 
L 385.424555 49.512541 
L 387.642662 54.08726 
L 389.860768 59.101854 
L 392.633401 65.960802 
L 395.406034 73.440018 
L 398.178667 81.498086 
L 401.505826 91.869802 
L 404.832986 102.931688 
L 408.714672 116.598124 
L 413.150885 133.053023 
L 418.696151 154.572747 
L 426.459523 185.75861 
L 439.768161 239.36105 
L 445.867954 262.955512 
L 450.858693 281.449077 
L 455.294906 297.14205 
L 459.731119 312.044519 
L 463.612805 324.384208 
L 467.494491 336.037059 
L 471.376177 346.981974 
L 475.257864 357.207696 
L 478.585023 365.398278 
L 481.912183 373.062131 
L 485.239342 380.206642 
L 488.566502 386.842722 
L 491.893661 392.984349 
L 495.220821 398.648118 
L 498.547981 403.852798 
L 501.87514 408.618906 
L 505.2023 412.968303 
L 508.529459 416.92381 
L 511.856619 420.50886 
L 515.183778 423.747178 
L 518.510938 426.662492 
L 521.838098 429.278278 
L 525.165257 431.617544 
L 528.492417 433.702638 
L 531.819576 435.555096 
L 535.701262 437.449696 
L 539.582949 439.086572 
L 543.464635 440.494589 
L 547.900847 441.857693 
L 552.33706 442.99311 
L 557.3278 444.038882 
L 562.873066 444.961184 
L 568.972858 445.740008 
L 575.627177 446.369138 
L 583.39055 446.885065 
L 592.817502 447.289382 
L 605.017087 447.583401 
L 622.761938 447.768522 
L 643.279422 447.835209 
L 643.279422 447.835209 
" clip-path="url(#pdfc4727441)" style="fill: none; stroke: #000000; stroke-linecap: square"/>
   </g>
   <g id="line2d_28">
    <path d="M 89.307353 492.567273 
L 92.634513 492.454654 
L 95.961673 492.116957 
L 99.288832 491.554663 
L 102.615992 490.768573 
L 105.943151 489.759806 
L 109.270311 488.529798 
L 112.59747 487.080301 
L 115.92463 485.413379 
L 119.806316 483.197019 
L 123.688002 480.692257 
L 127.569688 477.903948 
L 131.451375 474.837496 
L 135.333061 471.498843 
L 139.214747 467.89446 
L 143.65096 463.458764 
L 148.087172 458.69636 
L 152.523385 453.619302 
L 157.514125 447.547532 
L 162.504864 441.113263 
L 167.495603 434.337107 
L 173.040869 426.4335 
L 179.140662 417.32035 
L 185.240454 407.810386 
L 191.894773 397.036824 
L 199.658146 384.021234 
L 208.530571 368.681351 
L 219.621103 349.037027 
L 249.565539 295.729227 
L 258.437965 280.515102 
L 266.201337 267.644719 
L 272.855656 257.020862 
L 278.955449 247.667835 
L 285.055241 238.729701 
L 290.600507 231.000185 
L 295.591247 224.392326 
L 300.581986 218.136801 
L 305.572725 212.253649 
L 310.008938 207.352053 
L 314.445151 202.771992 
L 318.881364 198.525058 
L 322.76305 195.090732 
L 326.644736 191.926355 
L 330.526422 189.038061 
L 334.408108 186.431446 
L 338.289795 184.111563 
L 342.171481 182.082908 
L 345.49864 180.578849 
L 348.8258 179.293792 
L 352.152959 178.229568 
L 355.480119 177.387691 
L 358.807279 176.769361 
L 362.134438 176.375457 
L 365.461598 176.206541 
L 368.788757 176.262853 
L 372.115917 176.544313 
L 375.443076 177.05052 
L 378.770236 177.780754 
L 382.097396 178.733974 
L 385.424555 179.908823 
L 388.751715 181.303629 
L 392.078874 182.916406 
L 395.96056 185.070388 
L 399.842247 187.513739 
L 403.723933 190.241724 
L 407.605619 193.249056 
L 411.487305 196.529907 
L 415.368991 200.077919 
L 419.805204 204.451081 
L 424.241417 209.153121 
L 428.67763 214.172137 
L 433.668369 220.181567 
L 438.659108 226.55682 
L 443.649848 233.277474 
L 449.195114 241.123747 
L 455.294906 250.179362 
L 461.394699 259.637855 
L 468.049018 270.362468 
L 475.257864 282.390171 
L 483.575762 296.694717 
L 494.111768 315.278441 
L 530.155996 379.274265 
L 538.473895 393.363274 
L 545.682741 405.15383 
L 552.33706 415.619472 
L 558.436853 424.808071 
L 563.982119 432.787028 
L 569.527385 440.376853 
L 574.518124 446.850147 
L 579.508863 452.963177 
L 584.499603 458.69636 
L 588.935816 463.458764 
L 593.372028 467.89446 
L 597.808241 471.992219 
L 601.689927 475.29237 
L 605.571613 478.319439 
L 609.4533 481.067559 
L 613.334986 483.531405 
L 617.216672 485.706201 
L 620.543831 487.337042 
L 623.870991 488.750093 
L 627.198151 489.94334 
L 630.52531 490.915086 
L 633.85247 491.663946 
L 637.179629 492.188854 
L 640.506789 492.489062 
L 643.279422 492.567273 
L 643.279422 492.567273 
" clip-path="url(#pdfc4727441)" style="fill: none; stroke: #a80000; stroke-width: 3; stroke-linecap: square"/>
   </g>
   <g id="line2d_29">
    <path d="M 89.307353 451.276719 
L 94.852619 451.165854 
L 100.397885 450.839235 
L 106.497678 450.252013 
L 113.151997 449.382921 
L 121.469896 448.060182 
L 145.31454 444.106448 
L 153.077912 443.12329 
L 160.841284 442.360044 
L 171.931816 441.530607 
L 181.913295 440.716311 
L 187.458561 440.039449 
L 191.894773 439.283287 
L 195.77646 438.407091 
L 199.103619 437.457646 
L 202.430779 436.290835 
L 205.757938 434.873239 
L 208.530571 433.47582 
L 211.303204 431.860861 
L 214.075837 430.008675 
L 216.84847 427.89984 
L 219.621103 425.515384 
L 222.393736 422.836971 
L 225.166369 419.847081 
L 227.939002 416.529197 
L 230.711635 412.867988 
L 233.484268 408.849485 
L 236.256901 404.461258 
L 239.029534 399.692577 
L 241.802167 394.534574 
L 245.129327 387.821553 
L 248.456486 380.53038 
L 251.783646 372.658037 
L 255.110805 364.206509 
L 258.437965 355.182995 
L 262.319651 343.949712 
L 266.201337 331.984631 
L 270.083023 319.327402 
L 274.519236 304.078871 
L 279.509976 286.035051 
L 285.055241 265.063541 
L 291.709561 238.953509 
L 314.445151 148.796211 
L 319.43589 130.351222 
L 323.872103 114.812378 
L 327.753789 102.016764 
L 331.080949 91.730982 
L 334.408108 82.143594 
L 337.180741 74.73205 
L 339.953374 67.881529 
L 342.726007 61.623022 
L 345.49864 55.985023 
L 347.716747 51.938831 
L 349.934853 48.318253 
L 352.152959 45.133986 
L 354.371066 42.395467 
L 356.034646 40.639043 
L 357.698225 39.140899 
L 359.361805 37.903545 
L 361.025385 36.929062 
L 362.688965 36.219085 
L 364.352545 35.774809 
L 366.016124 35.596983 
L 367.679704 35.685904 
L 369.343284 36.041424 
L 371.006864 36.662945 
L 372.670443 37.54942 
L 374.334023 38.699359 
L 375.997603 40.110831 
L 377.661183 41.781467 
L 379.324763 43.708469 
L 381.542869 46.670961 
L 383.760975 50.074643 
L 385.979082 53.909442 
L 388.197188 58.164047 
L 390.969821 64.053501 
L 393.742454 70.552378 
L 396.515087 77.63116 
L 399.28772 85.257915 
L 402.61488 95.085125 
L 405.942039 105.589385 
L 409.823725 118.611432 
L 414.259938 134.369807 
L 419.250677 153.009972 
L 425.35047 176.751287 
L 434.777422 214.506038 
L 445.313427 256.454687 
L 451.41322 279.835883 
L 456.403959 298.162385 
L 460.840172 313.702988 
L 465.276385 328.436918 
L 469.158071 340.604249 
L 473.039757 352.050065 
L 476.921443 362.742039 
L 480.248603 371.289541 
L 483.575762 379.258691 
L 486.902922 386.646649 
L 490.230082 393.455614 
L 493.557241 399.692577 
L 496.329874 404.461258 
L 499.102507 408.849485 
L 501.87514 412.867988 
L 504.647773 416.529197 
L 507.420406 419.847081 
L 510.193039 422.836971 
L 512.965672 425.515384 
L 515.738305 427.89984 
L 518.510938 430.008675 
L 521.283571 431.860861 
L 524.056204 433.47582 
L 527.383363 435.128359 
L 530.710523 436.501808 
L 534.037683 437.630092 
L 537.919369 438.680914 
L 541.801055 439.494356 
L 546.237268 440.195307 
L 551.782534 440.825669 
L 559.545906 441.452053 
L 575.072651 442.6619 
L 582.836023 443.517197 
L 590.599395 444.593363 
L 600.026347 446.134531 
L 619.434778 449.382921 
L 626.643624 450.314402 
L 632.743417 450.881192 
L 638.288682 451.186841 
L 643.279422 451.276719 
L 643.279422 451.276719 
" clip-path="url(#pdfc4727441)" style="fill: none; stroke: #1f77b4; stroke-width: 3; stroke-linecap: square"/>
   </g>
   <g id="line2d_30">
    <path d="M 89.307353 447.821167 
L 117.58821 447.71205 
L 134.224008 447.448195 
L 145.869066 447.050792 
L 154.741492 446.537097 
L 161.950337 445.916265 
L 168.604657 445.119392 
L 174.149922 444.24196 
L 179.140662 443.245367 
L 184.131401 442.011505 
L 188.567614 440.678806 
L 192.4493 439.301254 
L 196.330986 437.698772 
L 200.212672 435.842802 
L 203.539832 434.02705 
L 206.866992 431.982161 
L 210.194151 429.686749 
L 213.521311 427.118596 
L 216.84847 424.254795 
L 220.17563 421.071934 
L 223.502789 417.546311 
L 226.829949 413.654184 
L 230.157109 409.372048 
L 233.484268 404.676953 
L 236.811428 399.546854 
L 240.138587 393.960978 
L 243.465747 387.900234 
L 246.792906 381.347632 
L 250.120066 374.288725 
L 253.447226 366.712059 
L 256.774385 358.609626 
L 260.101545 349.977317 
L 263.983231 339.237146 
L 267.864917 327.784846 
L 271.746603 315.638627 
L 276.182816 300.94466 
L 280.619029 285.442145 
L 285.609768 267.135148 
L 291.155034 245.887717 
L 297.809353 219.465744 
L 318.326837 137.283232 
L 323.317577 118.609997 
L 327.753789 102.931723 
L 331.635475 90.091084 
L 334.962635 79.842275 
L 338.289795 70.376518 
L 341.062428 63.140589 
L 343.835061 56.540693 
L 346.053167 51.743843 
L 348.271273 47.395432 
L 350.48938 43.511447 
L 352.707486 40.106265 
L 354.925592 37.192572 
L 356.589172 35.336474 
L 358.252752 33.766938 
L 359.916332 32.487294 
L 361.579912 31.500262 
L 363.243491 30.807945 
L 364.907071 30.411818 
L 366.570651 30.312727 
L 368.234231 30.510885 
L 369.89781 31.005867 
L 371.56139 31.796618 
L 373.22497 32.881451 
L 374.88855 34.258058 
L 376.55213 35.923515 
L 378.215709 37.874291 
L 379.879289 40.106265 
L 382.097396 43.511447 
L 384.315502 47.395432 
L 386.533608 51.743843 
L 388.751715 56.540693 
L 391.524348 63.140589 
L 394.296981 70.376518 
L 397.069614 78.208191 
L 400.396773 88.331885 
L 403.723933 99.172832 
L 407.605619 112.617086 
L 412.041832 128.866194 
L 417.032571 148.027093 
L 423.68689 174.534901 
L 441.986268 248.049182 
L 447.531534 269.210618 
L 452.522273 287.421648 
L 456.958486 302.827041 
L 461.394699 317.415319 
L 465.276385 329.463907 
L 469.158071 340.815357 
L 473.039757 351.452879 
L 476.921443 361.369194 
L 480.248603 369.295714 
L 483.575762 376.698724 
L 486.902922 383.587433 
L 490.230082 389.974342 
L 493.557241 395.874796 
L 496.884401 401.306534 
L 500.21156 406.289253 
L 503.53872 410.844192 
L 506.865879 414.993742 
L 510.193039 418.761071 
L 513.520199 422.169798 
L 516.847358 425.243682 
L 520.174518 428.006354 
L 523.501677 430.481078 
L 526.828837 432.690552 
L 530.155996 434.656731 
L 534.037683 436.671175 
L 537.919369 438.414875 
L 541.801055 439.917586 
L 546.237268 441.375243 
L 550.67348 442.591966 
L 555.66422 443.715088 
L 561.209486 444.708021 
L 567.309278 445.548741 
L 573.963597 446.229897 
L 581.72697 446.790463 
L 591.153922 447.231823 
L 602.79898 447.544546 
L 619.434778 447.74824 
L 643.279422 447.821167 
L 643.279422 447.821167 
" clip-path="url(#pdfc4727441)" style="fill: none; stroke: #ff7f0e; stroke-width: 3; stroke-linecap: square"/>
   </g>
   <g id="patch_3">
    <path d="M 61.60875 515.68 
L 61.60875 7.2 
" style="fill: none; stroke: #000000; stroke-width: 1.5; stroke-linejoin: miter; stroke-linecap: square"/>
   </g>
   <g id="patch_4">
    <path d="M 670.978025 515.68 
L 670.978025 7.2 
" style="fill: none; stroke: #000000; stroke-width: 1.5; stroke-linejoin: miter; stroke-linecap: square"/>
   </g>
   <g id="patch_5">
    <path d="M 61.60875 515.68 
L 670.978025 515.68 
" style="fill: none; stroke: #000000; stroke-width: 1.5; stroke-linejoin: miter; stroke-linecap: square"/>
   </g>
   <g id="patch_6">
    <path d="M 61.60875 7.2 
L 670.978025 7.2 
" style="fill: none; stroke: #000000; stroke-width: 1.5; stroke-linejoin: miter; stroke-linecap: square"/>
   </g>
   <g id="legend_1">
    <g id="patch_7">
     <path d="M 600.89365 74.1125 
L 663.978025 74.1125 
Q 665.978025 74.1125 665.978025 72.1125 
L 665.978025 14.2 
Q 665.978025 12.2 663.978025 12.2 
L 600.89365 12.2 
Q 598.89365 12.2 598.89365 14.2 
L 598.89365 72.1125 
Q 598.89365 74.1125 600.89365 74.1125 
z
" style="fill: #ffffff; opacity: 0.8; stroke: #cccccc; stroke-linejoin: miter"/>
    </g>
    <g id="line2d_31">
     <path d="M 602.89365 20.259375 
L 612.89365 20.259375 
L 622.89365 20.259375 
" style="fill: none; stroke: #000000; stroke-linecap: square"/>
    </g>
    <g id="text_16">
     <!-- Init -->
     <g transform="translate(630.89365 23.759375) scale(0.1 -0.1)">
      <defs>
       <path id="Georgia-49" d="M 2244 0 
L 247 0 
L 247 222 
Q 331 228 490 240 
Q 650 253 716 278 
Q 819 319 866 389 
Q 913 459 913 584 
L 913 3797 
Q 913 3906 878 3979 
Q 844 4053 716 4103 
Q 622 4141 480 4173 
Q 338 4206 247 4213 
L 247 4434 
L 2244 4434 
L 2244 4213 
Q 2147 4209 2012 4189 
Q 1878 4169 1778 4138 
Q 1659 4100 1618 4015 
Q 1578 3931 1578 3828 
L 1578 619 
Q 1578 516 1623 436 
Q 1669 356 1778 309 
Q 1844 284 1992 254 
Q 2141 225 2244 222 
L 2244 0 
z
" transform="scale(0.015625)"/>
       <path id="Georgia-6e" d="M 3628 0 
L 2119 0 
L 2119 206 
Q 2191 213 2277 219 
Q 2363 225 2419 244 
Q 2506 272 2548 342 
Q 2591 413 2591 525 
L 2591 2109 
Q 2591 2438 2436 2616 
Q 2281 2794 2059 2794 
Q 1894 2794 1756 2742 
Q 1619 2691 1513 2616 
Q 1409 2544 1348 2461 
Q 1288 2378 1259 2328 
L 1259 556 
Q 1259 450 1303 381 
Q 1347 313 1434 275 
Q 1500 244 1576 228 
Q 1653 213 1734 206 
L 1734 0 
L 225 0 
L 225 206 
Q 297 213 373 219 
Q 450 225 506 244 
Q 594 272 636 342 
Q 678 413 678 525 
L 678 2428 
Q 678 2534 633 2623 
Q 588 2713 506 2769 
Q 447 2806 365 2823 
Q 284 2841 191 2847 
L 191 3050 
L 1216 3119 
L 1259 3075 
L 1259 2641 
L 1275 2641 
Q 1350 2716 1462 2820 
Q 1575 2925 1675 2991 
Q 1791 3066 1950 3116 
Q 2109 3166 2309 3166 
Q 2753 3166 2967 2889 
Q 3181 2613 3181 2153 
L 3181 550 
Q 3181 441 3218 373 
Q 3256 306 3347 269 
Q 3422 238 3476 225 
Q 3531 213 3628 206 
L 3628 0 
z
" transform="scale(0.015625)"/>
       <path id="Georgia-69" d="M 1722 0 
L 231 0 
L 231 206 
Q 303 213 379 219 
Q 456 225 513 244 
Q 600 272 642 342 
Q 684 413 684 525 
L 684 2428 
Q 684 2528 639 2611 
Q 594 2694 513 2750 
Q 453 2788 340 2814 
Q 228 2841 134 2847 
L 134 3050 
L 1222 3119 
L 1266 3075 
L 1266 563 
Q 1266 453 1308 381 
Q 1350 309 1441 275 
Q 1509 247 1575 230 
Q 1641 213 1722 206 
L 1722 0 
z
M 1328 4334 
Q 1328 4156 1211 4023 
Q 1094 3891 922 3891 
Q 763 3891 645 4017 
Q 528 4144 528 4306 
Q 528 4478 645 4606 
Q 763 4734 922 4734 
Q 1100 4734 1214 4614 
Q 1328 4494 1328 4334 
z
" transform="scale(0.015625)"/>
       <path id="Georgia-74" d="M 2128 134 
Q 1925 50 1744 -8 
Q 1563 -66 1300 -66 
Q 913 -66 755 129 
Q 597 325 597 681 
L 597 2769 
L 41 2769 
L 41 3069 
L 609 3069 
L 609 4028 
L 1178 4028 
L 1178 3069 
L 2063 3069 
L 2063 2769 
L 1184 2769 
L 1184 1047 
Q 1184 853 1198 723 
Q 1213 594 1266 497 
Q 1316 406 1416 359 
Q 1516 313 1684 313 
Q 1763 313 1914 327 
Q 2066 341 2128 363 
L 2128 134 
z
" transform="scale(0.015625)"/>
      </defs>
      <use xlink:href="#Georgia-49"/>
      <use xlink:href="#Georgia-6e" x="38.964844"/>
      <use xlink:href="#Georgia-69" x="98.046875"/>
      <use xlink:href="#Georgia-74" x="127.34375"/>
     </g>
    </g>
    <g id="line2d_32">
     <path d="M 602.89365 34.9875 
L 612.89365 34.9875 
L 622.89365 34.9875 
" style="fill: none; stroke: #a80000; stroke-width: 3; stroke-linecap: square"/>
    </g>
    <g id="text_17">
     <!-- 4, t=0 -->
     <g transform="translate(630.89365 38.4875) scale(0.1 -0.1)">
      <defs>
       <path id="Georgia-2c" d="M 1341 109 
Q 1341 -116 1239 -316 
Q 1138 -516 1006 -659 
Q 872 -809 722 -925 
Q 572 -1041 447 -1106 
L 303 -897 
Q 453 -803 572 -709 
Q 691 -616 766 -522 
Q 859 -413 925 -284 
Q 991 -156 1009 6 
L 850 6 
Q 641 6 523 115 
Q 406 225 406 409 
Q 406 541 512 664 
Q 619 788 803 788 
Q 1072 788 1206 608 
Q 1341 428 1341 109 
z
" transform="scale(0.015625)"/>
       <path id="Georgia-20" transform="scale(0.015625)"/>
       <path id="Georgia-3d" d="M 3634 2134 
L 481 2134 
L 481 2525 
L 3634 2525 
L 3634 2134 
z
M 3634 972 
L 481 972 
L 481 1363 
L 3634 1363 
L 3634 972 
z
" transform="scale(0.015625)"/>
      </defs>
      <use xlink:href="#Georgia-34"/>
      <use xlink:href="#Georgia-2c" x="56.494141"/>
      <use xlink:href="#Georgia-20" x="83.447266"/>
      <use xlink:href="#Georgia-74" x="107.568359"/>
      <use xlink:href="#Georgia-3d" x="142.089844"/>
      <use xlink:href="#Georgia-30" x="206.396484"/>
     </g>
    </g>
    <g id="line2d_33">
     <path d="M 602.89365 49.715625 
L 612.89365 49.715625 
L 622.89365 49.715625 
" style="fill: none; stroke: #1f77b4; stroke-width: 3; stroke-linecap: square"/>
    </g>
    <g id="text_18">
     <!-- 8, t=0 -->
     <g transform="translate(630.89365 53.215625) scale(0.1 -0.1)">
      <use xlink:href="#Georgia-38"/>
      <use xlink:href="#Georgia-2c" x="59.619141"/>
      <use xlink:href="#Georgia-20" x="86.572266"/>
      <use xlink:href="#Georgia-74" x="110.693359"/>
      <use xlink:href="#Georgia-3d" x="145.214844"/>
      <use xlink:href="#Georgia-30" x="209.521484"/>
     </g>
    </g>
    <g id="line2d_34">
     <path d="M 602.89365 64.44375 
L 612.89365 64.44375 
L 622.89365 64.44375 
" style="fill: none; stroke: #ff7f0e; stroke-width: 3; stroke-linecap: square"/>
    </g>
    <g id="text_19">
     <!-- 16, t=0 -->
     <g transform="translate(630.89365 67.94375) scale(0.1 -0.1)">
      <use xlink:href="#Georgia-31"/>
      <use xlink:href="#Georgia-36" x="42.96875"/>
      <use xlink:href="#Georgia-2c" x="99.560547"/>
      <use xlink:href="#Georgia-20" x="126.513672"/>
      <use xlink:href="#Georgia-74" x="150.634766"/>
      <use xlink:href="#Georgia-3d" x="185.15625"/>
      <use xlink:href="#Georgia-30" x="249.462891"/>
     </g>
    </g>
   </g>
  </g>
  <g id="axes_2">
   <g id="patch_8">
    <path d="M 749.88104 515.68 
L 993.62875 515.68 
L 993.62875 7.2 
L 749.88104 7.2 
L 749.88104 515.68 
z
" style="fill: none"/>
   </g>
   <g id="matplotlib.axis_3">
    <g id="xtick_8">
     <g id="line2d_35">
      <path d="M 760.960481 515.68 
L 760.960481 7.2 
" clip-path="url(#pd802ed5816)" style="fill: none; stroke: #b0b0b0; stroke-width: 0.8; stroke-linecap: square"/>
     </g>
     <g id="line2d_36">
      <g>
       <use xlink:href="#m6e66c2cfce" x="760.960481" y="515.68" style="stroke: #000000; stroke-width: 0.8"/>
      </g>
     </g>
     <g id="text_20">
      <!-- 0 -->
      <g transform="translate(756.050481 534.775) scale(0.16 -0.16)">
       <use xlink:href="#Georgia-30"/>
      </g>
     </g>
    </g>
    <g id="xtick_9">
     <g id="line2d_37">
      <path d="M 831.494396 515.68 
L 831.494396 7.2 
" clip-path="url(#pd802ed5816)" style="fill: none; stroke: #b0b0b0; stroke-width: 0.8; stroke-linecap: square"/>
     </g>
     <g id="line2d_38">
      <g>
       <use xlink:href="#m6e66c2cfce" x="831.494396" y="515.68" style="stroke: #000000; stroke-width: 0.8"/>
      </g>
     </g>
     <g id="text_21">
      <!-- 2 -->
      <g transform="translate(827.025646 534.775) scale(0.16 -0.16)">
       <use xlink:href="#Georgia-32"/>
      </g>
     </g>
    </g>
    <g id="xtick_10">
     <g id="line2d_39">
      <path d="M 902.02831 515.68 
L 902.02831 7.2 
" clip-path="url(#pd802ed5816)" style="fill: none; stroke: #b0b0b0; stroke-width: 0.8; stroke-linecap: square"/>
     </g>
     <g id="line2d_40">
      <g>
       <use xlink:href="#m6e66c2cfce" x="902.02831" y="515.68" style="stroke: #000000; stroke-width: 0.8"/>
      </g>
     </g>
     <g id="text_22">
      <!-- 4 -->
      <g transform="translate(897.50831 534.775) scale(0.16 -0.16)">
       <use xlink:href="#Georgia-34"/>
      </g>
     </g>
    </g>
    <g id="xtick_11">
     <g id="line2d_41">
      <path d="M 972.562225 515.68 
L 972.562225 7.2 
" clip-path="url(#pd802ed5816)" style="fill: none; stroke: #b0b0b0; stroke-width: 0.8; stroke-linecap: square"/>
     </g>
     <g id="line2d_42">
      <g>
       <use xlink:href="#m6e66c2cfce" x="972.562225" y="515.68" style="stroke: #000000; stroke-width: 0.8"/>
      </g>
     </g>
     <g id="text_23">
      <!-- 6 -->
      <g transform="translate(968.034725 534.775) scale(0.16 -0.16)">
       <use xlink:href="#Georgia-36"/>
      </g>
     </g>
    </g>
    <g id="text_24">
     <!-- $x$ -->
     <g transform="translate(865.754895 557.36375) scale(0.2 -0.2)">
      <use xlink:href="#DejaVuSans-Oblique-78" transform="translate(0 0.3125)"/>
     </g>
    </g>
   </g>
   <g id="matplotlib.axis_4">
    <g id="ytick_7">
     <g id="line2d_43">
      <path d="M 749.88104 515.68 
L 993.62875 515.68 
" clip-path="url(#pd802ed5816)" style="fill: none; stroke: #b0b0b0; stroke-width: 0.8; stroke-linecap: square"/>
     </g>
     <g id="line2d_44">
      <g>
       <use xlink:href="#m75a6d59c7c" x="749.88104" y="515.68" style="stroke: #000000; stroke-width: 0.8"/>
      </g>
     </g>
     <g id="text_25">
      <!-- $\mathdefault{10^{-10}}$ -->
      <g transform="translate(706.72104 521.7275) scale(0.16 -0.16)">
       <defs>
        <path id="Georgia-2212" d="M 3650 1553 
L 466 1553 
L 466 1944 
L 3650 1944 
L 3650 1553 
z
" transform="scale(0.015625)"/>
       </defs>
       <use xlink:href="#Georgia-31" transform="translate(0 0.534375)"/>
       <use xlink:href="#Georgia-30" transform="translate(42.96875 0.534375)"/>
       <use xlink:href="#Georgia-2212" transform="translate(105.188164 34.232813) scale(0.7)"/>
       <use xlink:href="#Georgia-31" transform="translate(150.202812 34.232813) scale(0.7)"/>
       <use xlink:href="#Georgia-30" transform="translate(180.280937 34.232813) scale(0.7)"/>
      </g>
     </g>
    </g>
    <g id="ytick_8">
     <g id="line2d_45">
      <path d="M 749.88104 423.229091 
L 993.62875 423.229091 
" clip-path="url(#pd802ed5816)" style="fill: none; stroke: #b0b0b0; stroke-width: 0.8; stroke-linecap: square"/>
     </g>
     <g id="line2d_46">
      <g>
       <use xlink:href="#m75a6d59c7c" x="749.88104" y="423.229091" style="stroke: #000000; stroke-width: 0.8"/>
      </g>
     </g>
     <g id="text_26">
      <!-- $\mathdefault{10^{-8}}$ -->
      <g transform="translate(711.68104 429.276591) scale(0.16 -0.16)">
       <use xlink:href="#Georgia-31" transform="translate(0 0.535938)"/>
       <use xlink:href="#Georgia-30" transform="translate(42.96875 0.535938)"/>
       <use xlink:href="#Georgia-2212" transform="translate(105.188164 34.234375) scale(0.7)"/>
       <use xlink:href="#Georgia-38" transform="translate(150.202812 34.234375) scale(0.7)"/>
      </g>
     </g>
    </g>
    <g id="ytick_9">
     <g id="line2d_47">
      <path d="M 749.88104 330.778182 
L 993.62875 330.778182 
" clip-path="url(#pd802ed5816)" style="fill: none; stroke: #b0b0b0; stroke-width: 0.8; stroke-linecap: square"/>
     </g>
     <g id="line2d_48">
      <g>
       <use xlink:href="#m75a6d59c7c" x="749.88104" y="330.778182" style="stroke: #000000; stroke-width: 0.8"/>
      </g>
     </g>
     <g id="text_27">
      <!-- $\mathdefault{10^{-6}}$ -->
      <g transform="translate(712.00104 336.825682) scale(0.16 -0.16)">
       <use xlink:href="#Georgia-31" transform="translate(0 0.601562)"/>
       <use xlink:href="#Georgia-30" transform="translate(42.96875 0.601562)"/>
       <use xlink:href="#Georgia-2212" transform="translate(105.188164 34.3) scale(0.7)"/>
       <use xlink:href="#Georgia-36" transform="translate(150.202812 34.3) scale(0.7)"/>
      </g>
     </g>
    </g>
    <g id="ytick_10">
     <g id="line2d_49">
      <path d="M 749.88104 238.327273 
L 993.62875 238.327273 
" clip-path="url(#pd802ed5816)" style="fill: none; stroke: #b0b0b0; stroke-width: 0.8; stroke-linecap: square"/>
     </g>
     <g id="line2d_50">
      <g>
       <use xlink:href="#m75a6d59c7c" x="749.88104" y="238.327273" style="stroke: #000000; stroke-width: 0.8"/>
      </g>
     </g>
     <g id="text_28">
      <!-- $\mathdefault{10^{-4}}$ -->
      <g transform="translate(712.00104 244.374773) scale(0.16 -0.16)">
       <use xlink:href="#Georgia-31" transform="translate(0 0.742188)"/>
       <use xlink:href="#Georgia-30" transform="translate(42.96875 0.742188)"/>
       <use xlink:href="#Georgia-2212" transform="translate(105.188164 34.440625) scale(0.7)"/>
       <use xlink:href="#Georgia-34" transform="translate(150.202812 34.440625) scale(0.7)"/>
      </g>
     </g>
    </g>
    <g id="ytick_11">
     <g id="line2d_51">
      <path d="M 749.88104 145.876364 
L 993.62875 145.876364 
" clip-path="url(#pd802ed5816)" style="fill: none; stroke: #b0b0b0; stroke-width: 0.8; stroke-linecap: square"/>
     </g>
     <g id="line2d_52">
      <g>
       <use xlink:href="#m75a6d59c7c" x="749.88104" y="145.876364" style="stroke: #000000; stroke-width: 0.8"/>
      </g>
     </g>
     <g id="text_29">
      <!-- $\mathdefault{10^{-2}}$ -->
      <g transform="translate(712.16104 151.923864) scale(0.16 -0.16)">
       <use xlink:href="#Georgia-31" transform="translate(0 0.534375)"/>
       <use xlink:href="#Georgia-30" transform="translate(42.96875 0.534375)"/>
       <use xlink:href="#Georgia-2212" transform="translate(105.188164 34.232813) scale(0.7)"/>
       <use xlink:href="#Georgia-32" transform="translate(150.202812 34.232813) scale(0.7)"/>
      </g>
     </g>
    </g>
    <g id="ytick_12">
     <g id="line2d_53">
      <path d="M 749.88104 53.425455 
L 993.62875 53.425455 
" clip-path="url(#pd802ed5816)" style="fill: none; stroke: #b0b0b0; stroke-width: 0.8; stroke-linecap: square"/>
     </g>
     <g id="line2d_54">
      <g>
       <use xlink:href="#m75a6d59c7c" x="749.88104" y="53.425455" style="stroke: #000000; stroke-width: 0.8"/>
      </g>
     </g>
     <g id="text_30">
      <!-- $\mathdefault{10^{0}}$ -->
      <g transform="translate(718.72104 59.472955) scale(0.16 -0.16)">
       <use xlink:href="#Georgia-31" transform="translate(0 0.534375)"/>
       <use xlink:href="#Georgia-30" transform="translate(42.96875 0.534375)"/>
       <use xlink:href="#Georgia-30" transform="translate(105.188164 34.232813) scale(0.7)"/>
      </g>
     </g>
    </g>
    <g id="text_31">
     <!-- $|y-y_{exact}|$ -->
     <g transform="translate(697.92104 311.94) rotate(-90) scale(0.2 -0.2)">
      <defs>
       <path id="DejaVuSans-7c" d="M 1344 4891 
L 1344 -1509 
L 813 -1509 
L 813 4891 
L 1344 4891 
z
" transform="scale(0.015625)"/>
       <path id="DejaVuSans-2212" d="M 678 2272 
L 4684 2272 
L 4684 1741 
L 678 1741 
L 678 2272 
z
" transform="scale(0.015625)"/>
       <path id="DejaVuSans-Oblique-65" d="M 3078 2063 
Q 3088 2113 3092 2166 
Q 3097 2219 3097 2272 
Q 3097 2653 2873 2875 
Q 2650 3097 2266 3097 
Q 1838 3097 1509 2826 
Q 1181 2556 1013 2059 
L 3078 2063 
z
M 3578 1613 
L 903 1613 
Q 884 1494 878 1425 
Q 872 1356 872 1306 
Q 872 872 1139 634 
Q 1406 397 1894 397 
Q 2269 397 2603 481 
Q 2938 566 3225 728 
L 3116 159 
Q 2806 34 2476 -28 
Q 2147 -91 1806 -91 
Q 1078 -91 686 257 
Q 294 606 294 1247 
Q 294 1794 489 2264 
Q 684 2734 1063 3103 
Q 1306 3334 1642 3459 
Q 1978 3584 2356 3584 
Q 2950 3584 3301 3228 
Q 3653 2872 3653 2272 
Q 3653 2128 3634 1964 
Q 3616 1800 3578 1613 
z
" transform="scale(0.015625)"/>
       <path id="DejaVuSans-Oblique-61" d="M 3438 1997 
L 3047 0 
L 2472 0 
L 2578 531 
Q 2325 219 2001 64 
Q 1678 -91 1281 -91 
Q 834 -91 548 182 
Q 263 456 263 884 
Q 263 1497 752 1853 
Q 1241 2209 2100 2209 
L 2900 2209 
L 2931 2363 
Q 2938 2388 2941 2417 
Q 2944 2447 2944 2509 
Q 2944 2788 2717 2942 
Q 2491 3097 2081 3097 
Q 1800 3097 1504 3025 
Q 1209 2953 897 2809 
L 997 3341 
Q 1322 3463 1633 3523 
Q 1944 3584 2234 3584 
Q 2853 3584 3176 3315 
Q 3500 3047 3500 2534 
Q 3500 2431 3484 2292 
Q 3469 2153 3438 1997 
z
M 2816 1759 
L 2241 1759 
Q 1534 1759 1195 1570 
Q 856 1381 856 984 
Q 856 709 1029 553 
Q 1203 397 1509 397 
Q 1978 397 2328 733 
Q 2678 1069 2791 1631 
L 2816 1759 
z
" transform="scale(0.015625)"/>
       <path id="DejaVuSans-Oblique-63" d="M 3431 3366 
L 3316 2797 
Q 3109 2947 2876 3022 
Q 2644 3097 2394 3097 
Q 2119 3097 1870 3000 
Q 1622 2903 1453 2725 
Q 1184 2453 1037 2087 
Q 891 1722 891 1331 
Q 891 859 1127 628 
Q 1363 397 1844 397 
Q 2081 397 2348 469 
Q 2616 541 2906 684 
L 2797 116 
Q 2547 13 2283 -39 
Q 2019 -91 1741 -91 
Q 1044 -91 669 257 
Q 294 606 294 1253 
Q 294 1797 489 2255 
Q 684 2713 1069 3078 
Q 1331 3328 1684 3456 
Q 2038 3584 2456 3584 
Q 2700 3584 2940 3529 
Q 3181 3475 3431 3366 
z
" transform="scale(0.015625)"/>
       <path id="DejaVuSans-Oblique-74" d="M 2706 3500 
L 2619 3053 
L 1472 3053 
L 1100 1153 
Q 1081 1047 1072 975 
Q 1063 903 1063 863 
Q 1063 663 1183 572 
Q 1303 481 1569 481 
L 2150 481 
L 2053 0 
L 1503 0 
Q 991 0 739 200 
Q 488 400 488 806 
Q 488 878 497 964 
Q 506 1050 525 1153 
L 897 3053 
L 409 3053 
L 500 3500 
L 978 3500 
L 1172 4494 
L 1747 4494 
L 1556 3500 
L 2706 3500 
z
" transform="scale(0.015625)"/>
      </defs>
      <use xlink:href="#DejaVuSans-7c" transform="translate(0 0.578125)"/>
      <use xlink:href="#DejaVuSans-Oblique-79" transform="translate(33.691406 0.578125)"/>
      <use xlink:href="#DejaVuSans-2212" transform="translate(112.353516 0.578125)"/>
      <use xlink:href="#DejaVuSans-Oblique-79" transform="translate(215.625 0.578125)"/>
      <use xlink:href="#DejaVuSans-Oblique-65" transform="translate(274.804688 -15.828125) scale(0.7)"/>
      <use xlink:href="#DejaVuSans-Oblique-78" transform="translate(317.871094 -15.828125) scale(0.7)"/>
      <use xlink:href="#DejaVuSans-Oblique-61" transform="translate(359.296875 -15.828125) scale(0.7)"/>
      <use xlink:href="#DejaVuSans-Oblique-63" transform="translate(402.192383 -15.828125) scale(0.7)"/>
      <use xlink:href="#DejaVuSans-Oblique-74" transform="translate(440.678711 -15.828125) scale(0.7)"/>
      <use xlink:href="#DejaVuSans-7c" transform="translate(470.859375 0.578125)"/>
     </g>
    </g>
   </g>
   <g id="line2d_55">
    <path d="M 760.960481 98.268197 
L 762.956777 98.378106 
L 764.953073 98.717852 
L 766.949368 99.29762 
L 768.723854 100.029225 
L 770.498339 100.984858 
L 772.272824 102.193043 
L 774.047309 103.694384 
L 775.599983 105.293891 
L 777.152658 107.218387 
L 778.483522 109.187575 
L 779.814386 111.530208 
L 781.145249 114.359089 
L 782.254303 117.214345 
L 783.363356 120.698649 
L 784.250598 124.126309 
L 785.137841 128.395359 
L 786.025083 133.992508 
L 786.690515 139.672607 
L 787.355947 147.794921 
L 787.799568 156.046763 
L 788.24319 170.520349 
L 788.465 185.77176 
L 788.686811 224.788612 
L 788.908622 180.630842 
L 789.352243 160.027916 
L 789.795864 150.006721 
L 790.461296 140.626136 
L 791.126728 134.194459 
L 792.013971 127.874464 
L 792.901213 123.021917 
L 794.010266 118.198889 
L 795.11932 114.276401 
L 796.450183 110.372261 
L 797.781047 107.091693 
L 799.333722 103.840505 
L 800.886396 101.061387 
L 802.660881 98.335594 
L 804.435366 95.997107 
L 806.431662 93.748867 
L 808.427958 91.846575 
L 810.424254 90.249225 
L 812.420549 88.930188 
L 814.416845 87.873315 
L 816.413141 87.070717 
L 818.409437 86.521625 
L 820.183922 86.251054 
L 821.958407 86.194325 
L 823.732892 86.365388 
L 825.507377 86.784358 
L 827.060051 87.376203 
L 828.612726 88.204915 
L 830.1654 89.305143 
L 831.496264 90.499972 
L 832.827128 91.970229 
L 834.157992 93.77304 
L 835.488856 95.99057 
L 836.597909 98.242961 
L 837.706962 100.977968 
L 838.816015 104.368868 
L 839.703258 107.746881 
L 840.5905 111.998552 
L 841.477743 117.632923 
L 842.143175 123.413104 
L 842.808607 131.7945 
L 843.252228 140.48878 
L 843.695849 156.47563 
L 844.139471 185.798 
L 844.361281 159.658893 
L 844.804902 141.525722 
L 845.248524 132.082414 
L 845.913956 123.038358 
L 846.579388 116.764025 
L 847.46663 110.564395 
L 848.353873 105.794927 
L 849.462926 101.060055 
L 850.571979 97.225228 
L 851.902843 93.436712 
L 853.233707 90.289136 
L 854.786381 87.219267 
L 856.339056 84.652069 
L 857.89173 82.488009 
L 859.444405 80.66024 
L 861.21889 78.923907 
L 862.993375 77.517201 
L 864.76786 76.405863 
L 866.542345 75.565865 
L 868.31683 74.980637 
L 870.091315 74.639386 
L 871.8658 74.536085 
L 873.640285 74.668948 
L 875.41477 75.040276 
L 877.189256 75.656653 
L 878.963741 76.529529 
L 880.738226 77.676296 
L 882.512711 79.122083 
L 884.065385 80.66024 
L 885.61806 82.488009 
L 887.170734 84.652069 
L 888.723409 87.219267 
L 890.054273 89.814722 
L 891.385136 92.872853 
L 892.716 96.539864 
L 893.825053 100.232109 
L 894.934107 104.756476 
L 895.821349 109.265397 
L 896.708592 115.032698 
L 897.374024 120.729874 
L 898.039456 128.608692 
L 898.483077 136.264744 
L 898.926698 148.632781 
L 899.148509 159.658893 
L 899.370319 185.798 
L 899.59213 175.59975 
L 900.035751 146.907593 
L 900.479373 135.660362 
L 901.144804 125.819089 
L 901.810236 119.36656 
L 902.697479 113.24872 
L 903.584722 108.713724 
L 904.693775 104.368868 
L 905.802828 100.977968 
L 906.911881 98.242961 
L 908.242745 95.587608 
L 909.573609 93.446391 
L 910.904473 91.703883 
L 912.235336 90.282981 
L 913.788011 88.960605 
L 915.340685 87.942152 
L 916.89336 87.184199 
L 918.446034 86.654995 
L 920.220519 86.300287 
L 921.995004 86.187791 
L 923.76949 86.299076 
L 925.543975 86.621537 
L 927.54027 87.227243 
L 929.536566 88.08604 
L 931.532862 89.200224 
L 933.529158 90.579387 
L 935.525453 92.24177 
L 937.521749 94.216784 
L 939.296234 96.270705 
L 941.070719 98.653504 
L 942.845204 101.433764 
L 944.397879 104.273139 
L 945.950553 107.602924 
L 947.281417 110.974051 
L 948.612281 115.004508 
L 949.721334 119.079344 
L 950.830387 124.134407 
L 951.71763 129.285009 
L 952.383062 134.194459 
L 953.048494 140.626136 
L 953.713926 150.006721 
L 954.157547 160.027916 
L 954.379358 167.816314 
L 954.601168 180.630842 
L 954.822979 224.788612 
L 955.04479 185.77176 
L 955.488411 161.988825 
L 955.932032 151.488981 
L 956.597464 142.01867 
L 957.262896 135.702544 
L 958.150138 129.642743 
L 959.037381 125.10107 
L 960.146434 120.698649 
L 961.255487 117.214345 
L 962.586351 113.847361 
L 963.917215 111.109664 
L 965.248079 108.835838 
L 966.800753 106.631214 
L 968.353428 104.806562 
L 970.127913 103.093795 
L 971.902398 101.708116 
L 973.676883 100.598652 
L 975.451368 99.72985 
L 977.447664 99.009339 
L 979.44396 98.538002 
L 981.440255 98.301219 
L 982.549309 98.268197 
L 982.549309 98.268197 
" clip-path="url(#pd802ed5816)" style="fill: none; stroke: #a80000; stroke-width: 3; stroke-linecap: square"/>
   </g>
   <g id="line2d_56">
    <path d="M 760.960481 149.757341 
L 761.847724 149.839896 
L 762.734966 150.12892 
L 763.622209 150.630164 
L 764.509451 151.354445 
L 765.396694 152.318641 
L 766.505747 153.899776 
L 767.6148 155.96774 
L 768.723854 158.637544 
L 769.611096 161.330443 
L 770.498339 164.687599 
L 771.385581 168.982585 
L 772.051013 173.117247 
L 772.716445 178.492955 
L 773.381877 186.04457 
L 773.825498 193.448741 
L 774.26912 205.427869 
L 774.49093 216.010997 
L 774.712741 239.878475 
L 774.934551 234.823352 
L 775.156362 214.307461 
L 775.599983 197.762516 
L 776.043605 188.834365 
L 776.709037 180.231563 
L 777.374468 174.295279 
L 778.261711 168.514555 
L 779.148954 164.17365 
L 780.036196 160.759158 
L 781.145249 157.395966 
L 782.254303 154.772114 
L 783.363356 152.718507 
L 784.472409 151.131379 
L 785.581462 149.944568 
L 786.690515 149.115683 
L 787.577758 148.692403 
L 788.465 148.47394 
L 789.352243 148.457322 
L 790.239485 148.643759 
L 791.126728 149.03874 
L 792.013971 149.652505 
L 792.901213 150.500956 
L 793.788456 151.607225 
L 794.897509 153.404017 
L 795.784751 155.23272 
L 796.671994 157.489024 
L 797.559237 160.287409 
L 798.446479 163.812441 
L 799.333722 168.388302 
L 799.999154 172.876588 
L 800.664585 178.866865 
L 801.108207 184.282575 
L 801.551828 191.838702 
L 801.995449 204.273282 
L 802.21726 215.612072 
L 802.439071 244.39436 
L 803.104502 201.138659 
L 803.548124 189.953053 
L 804.213556 180.026375 
L 804.878988 173.45435 
L 805.76623 167.187879 
L 806.653473 162.537282 
L 807.540715 158.898258 
L 808.649768 155.319403 
L 809.758822 152.522159 
L 810.867875 150.321262 
L 811.976928 148.604177 
L 813.085981 147.299495 
L 814.195034 146.361396 
L 815.304088 145.761475 
L 816.19133 145.514326 
L 817.078573 145.47076 
L 817.965815 145.632148 
L 818.853058 146.004149 
L 819.7403 146.597188 
L 820.627543 147.427393 
L 821.514785 148.51818 
L 822.402028 149.902855 
L 823.289271 151.628913 
L 824.176513 153.765416 
L 825.063756 156.416387 
L 825.950998 159.747077 
L 826.838241 164.041463 
L 827.503673 168.206401 
L 828.169105 173.665433 
L 828.834536 181.426876 
L 829.278158 189.170014 
L 829.721779 202.128239 
L 829.94359 214.360131 
L 830.1654 251.387856 
L 830.609022 205.79969 
L 831.052643 190.845915 
L 831.496264 182.370705 
L 832.161696 174.035201 
L 832.827128 168.211582 
L 833.714371 162.495819 
L 834.601613 158.178861 
L 835.710666 154.026333 
L 836.819719 150.822905 
L 837.928773 148.313553 
L 839.037826 146.349484 
L 840.146879 144.838259 
L 841.255932 143.720682 
L 842.364985 142.959043 
L 843.252228 142.590468 
L 844.139471 142.42911 
L 845.026713 142.473331 
L 845.913956 142.725663 
L 846.801198 143.193023 
L 847.688441 143.887302 
L 848.575683 144.826461 
L 849.462926 146.036356 
L 850.571979 147.986826 
L 851.459222 149.965117 
L 852.346464 152.405371 
L 853.233707 155.439518 
L 854.120949 159.285255 
L 855.008192 164.338577 
L 855.673624 169.3918 
L 856.339056 176.353798 
L 856.782677 182.963109 
L 857.226298 192.996657 
L 857.448109 200.910865 
L 857.669919 214.209321 
L 857.89173 271.074297 
L 858.113541 216.700256 
L 858.557162 193.76794 
L 859.000783 183.356172 
L 859.666215 173.878799 
L 860.331647 167.535771 
L 861.21889 161.465477 
L 862.106132 156.961377 
L 862.993375 153.447194 
L 864.102428 150.010513 
L 865.211481 147.348957 
L 866.320534 145.282003 
L 867.429588 143.699632 
L 868.538641 142.531891 
L 869.647694 141.733866 
L 870.534936 141.342513 
L 871.422179 141.161567 
L 872.309422 141.187351 
L 873.196664 141.420387 
L 874.083907 141.865433 
L 874.971149 142.531891 
L 875.858392 143.434647 
L 876.967445 144.929453 
L 878.076498 146.892274 
L 879.185551 149.423362 
L 880.072794 151.963434 
L 880.960036 155.102976 
L 881.847279 159.063362 
L 882.734522 164.248845 
L 883.399953 169.425144 
L 884.065385 176.55993 
L 884.509007 183.356172 
L 884.952628 193.76794 
L 885.174439 202.122445 
L 885.396249 216.700256 
L 885.61806 271.074297 
L 885.83987 214.209321 
L 886.283492 192.996657 
L 886.727113 182.963109 
L 887.392545 173.739233 
L 888.057977 167.54697 
L 888.945219 161.624341 
L 889.832462 157.242104 
L 890.719705 153.8373 
L 891.828758 150.527715 
L 892.937811 147.986826 
L 894.046864 146.036356 
L 895.155917 144.567458 
L 896.26497 143.510834 
L 897.152213 142.931848 
L 898.039456 142.573158 
L 898.926698 142.425463 
L 899.813941 142.484087 
L 900.701183 142.748586 
L 901.588426 143.222718 
L 902.475668 143.914764 
L 903.584722 145.107481 
L 904.693775 146.703692 
L 905.802828 148.768056 
L 906.911881 151.401895 
L 907.799124 154.026333 
L 908.686366 157.254187 
L 909.573609 161.310606 
L 910.460851 166.608351 
L 911.126283 171.892421 
L 911.791715 179.185796 
L 912.235336 186.163113 
L 912.678958 196.963999 
L 912.900768 205.79969 
L 913.122579 221.926666 
L 913.34439 251.387856 
L 913.5662 214.360131 
L 914.009821 194.606963 
L 914.453443 184.916177 
L 915.118875 175.9163 
L 915.784307 169.849579 
L 916.671549 164.041463 
L 917.558792 159.747077 
L 918.446034 156.416387 
L 919.555087 153.187901 
L 920.664141 150.719517 
L 921.773194 148.835227 
L 922.882247 147.427393 
L 923.9913 146.427434 
L 924.878543 145.890922 
L 925.765785 145.572353 
L 926.653028 145.462562 
L 927.54027 145.556989 
L 928.427513 145.855308 
L 929.314756 146.361396 
L 930.201998 147.083673 
L 931.311051 148.312016 
L 932.420104 149.941888 
L 933.529158 152.03865 
L 934.638211 154.704795 
L 935.525453 157.356386 
L 936.412696 160.614662 
L 937.299938 164.708682 
L 938.187181 170.060006 
L 938.852613 175.40817 
L 939.518045 182.818282 
L 939.961666 189.953053 
L 940.405287 201.138659 
L 940.627098 210.496235 
L 941.070719 244.39436 
L 941.29253 215.612072 
L 941.736151 197.094708 
L 942.179773 187.696435 
L 942.845204 178.866865 
L 943.510636 172.876588 
L 944.397879 167.118981 
L 945.285121 162.848783 
L 946.172364 159.528539 
L 947.281417 156.301441 
L 948.39047 153.825713 
L 949.499524 151.927668 
L 950.608577 150.500956 
L 951.71763 149.477792 
L 952.604873 148.919972 
L 953.492115 148.577889 
L 954.379358 148.442559 
L 955.2666 148.509589 
L 956.153843 148.778811 
L 957.041085 149.25427 
L 957.928328 149.944568 
L 959.037381 151.131379 
L 960.146434 152.718507 
L 961.255487 154.772114 
L 962.364541 157.395966 
L 963.251783 160.0158 
L 964.139026 163.246364 
L 965.026268 167.320763 
L 965.913511 172.669657 
L 966.578943 178.041231 
L 967.244375 185.530166 
L 967.687996 192.802216 
L 968.131617 204.374534 
L 968.353428 214.307461 
L 968.575238 234.823352 
L 968.797049 239.878475 
L 969.01886 216.010997 
L 969.462481 198.548667 
L 969.906102 189.399226 
L 970.571534 180.694615 
L 971.236966 174.74057 
L 972.124209 168.982585 
L 973.011451 164.687599 
L 973.898694 161.330443 
L 975.007747 158.047801 
L 976.1168 155.510481 
L 977.225853 153.547404 
L 978.334907 152.053906 
L 979.44396 150.963528 
L 980.553013 150.234005 
L 981.440255 149.892651 
L 982.327498 149.758764 
L 982.549309 149.757341 
L 982.549309 149.757341 
" clip-path="url(#pd802ed5816)" style="fill: none; stroke: #1f77b4; stroke-width: 3; stroke-linecap: square"/>
   </g>
   <g id="line2d_57">
    <path d="M 760.960481 260.204186 
L 762.513156 269.419558 
L 763.84402 278.807406 
L 764.953073 288.428385 
L 765.840315 298.298313 
L 766.505747 308.236651 
L 766.949368 317.414036 
L 767.39299 331.728202 
L 767.6148 344.473012 
L 767.836611 379.680067 
L 768.280232 339.050228 
L 768.723854 325.441309 
L 769.167475 318.45407 
L 769.611096 314.061423 
L 770.276528 309.944577 
L 770.94196 307.540149 
L 771.385581 306.559988 
L 771.829203 305.955019 
L 772.272824 305.659742 
L 772.716445 305.629282 
L 773.160066 305.832398 
L 773.603688 306.247389 
L 774.26912 307.236652 
L 774.934551 308.644042 
L 775.821794 311.166673 
L 776.709037 314.47782 
L 777.596279 318.713948 
L 778.483522 324.1554 
L 779.370764 331.392098 
L 780.036196 338.808938 
L 780.479817 345.476509 
L 780.923439 354.880644 
L 781.36706 371.477778 
L 781.810681 403.799106 
L 782.032492 376.828208 
L 782.476113 359.364689 
L 782.919734 350.846647 
L 783.585166 343.349845 
L 784.250598 338.765083 
L 784.91603 335.774882 
L 785.581462 333.829413 
L 786.246894 332.650543 
L 786.690515 332.210594 
L 787.134137 332.01199 
L 787.577758 332.03459 
L 788.021379 332.264849 
L 788.465 332.694499 
L 789.130432 333.70581 
L 789.795864 335.163462 
L 790.461296 337.095088 
L 791.348539 340.509529 
L 792.235781 345.126593 
L 792.901213 349.68228 
L 793.566645 355.662688 
L 794.232077 364.101056 
L 794.675698 372.433701 
L 795.11932 386.303285 
L 795.34113 399.566884 
L 795.562941 449.13018 
L 795.784751 403.844002 
L 796.228373 381.013953 
L 796.671994 371.127926 
L 797.337426 362.607293 
L 798.002858 357.353153 
L 798.66829 353.829156 
L 799.333722 351.419408 
L 799.999154 349.818547 
L 800.664585 348.857219 
L 801.108207 348.520932 
L 801.551828 348.405886 
L 801.995449 348.499982 
L 802.439071 348.796145 
L 803.104502 349.614567 
L 803.769934 350.891344 
L 804.435366 352.65837 
L 805.100798 354.977285 
L 805.76623 357.954193 
L 806.431662 361.771209 
L 807.097094 366.759688 
L 807.762526 373.600629 
L 808.206147 379.953198 
L 808.649768 389.184006 
L 808.871579 396.003077 
L 809.09339 406.244903 
L 809.3152 427.664363 
L 809.537011 430.360615 
L 809.758822 407.632139 
L 810.202443 390.827388 
L 810.646064 382.200606 
L 811.311496 374.313276 
L 811.976928 369.269059 
L 812.64236 365.804116 
L 813.307792 363.384783 
L 813.973224 361.739211 
L 814.638656 360.714463 
L 815.082277 360.330222 
L 815.525898 360.164908 
L 815.969519 360.207872 
L 816.413141 360.453272 
L 816.856762 360.899574 
L 817.522194 361.952681 
L 818.187626 363.492874 
L 818.853058 365.576641 
L 819.51849 368.302051 
L 820.183922 371.836896 
L 820.849354 376.482932 
L 821.514785 382.846497 
L 821.958407 388.698756 
L 822.402028 397.008454 
L 822.845649 411.265426 
L 823.06746 425.617959 
L 823.289271 494.689235 
L 823.511081 424.643972 
L 823.954702 403.345056 
L 824.398324 393.585135 
L 825.063756 384.939148 
L 825.729188 379.4624 
L 826.394619 375.685315 
L 827.060051 373.011399 
L 827.725483 371.142923 
L 828.390915 369.914115 
L 829.056347 369.228085 
L 829.499968 369.043525 
L 829.94359 369.065636 
L 830.387211 369.289797 
L 830.830832 369.715624 
L 831.496264 370.742051 
L 832.161696 372.264594 
L 832.827128 374.346154 
L 833.49256 377.094992 
L 834.157992 380.697323 
L 834.823424 385.493393 
L 835.488856 392.187531 
L 835.932477 398.502376 
L 836.376098 407.838319 
L 836.597909 414.871228 
L 836.819719 425.726867 
L 837.04153 450.743455 
L 837.263341 443.23002 
L 837.485151 423.529134 
L 837.928773 407.497542 
L 838.372394 398.97288 
L 839.037826 391.014519 
L 839.703258 385.818265 
L 840.36869 382.171622 
L 841.034122 379.557087 
L 841.699554 377.709511 
L 842.364985 376.479252 
L 843.030417 375.778601 
L 843.474039 375.57999 
L 843.91766 375.586221 
L 844.361281 375.793875 
L 844.804902 376.203724 
L 845.470334 377.209868 
L 846.135766 378.720994 
L 846.801198 380.806964 
L 847.46663 383.587349 
L 848.132062 387.269304 
L 848.797494 392.238167 
L 849.462926 399.318705 
L 849.906547 406.196948 
L 850.350168 416.893724 
L 850.571979 425.620087 
L 850.79379 441.356637 
L 851.0156 475.271726 
L 851.237411 435.167255 
L 851.681032 415.208686 
L 852.124653 405.621942 
L 852.790085 396.940228 
L 853.455517 391.328649 
L 854.120949 387.380709 
L 854.786381 384.518723 
L 855.451813 382.452569 
L 856.117245 381.020175 
L 856.782677 380.126719 
L 857.226298 379.802408 
L 857.669919 379.683946 
L 858.113541 379.76697 
L 858.557162 380.051339 
L 859.000783 380.541126 
L 859.666215 381.681264 
L 860.331647 383.357212 
L 860.997079 385.661646 
L 861.662511 388.752908 
L 862.327943 392.913633 
L 862.993375 398.703347 
L 863.436996 404.059472 
L 863.880617 411.627958 
L 864.324239 424.204535 
L 864.546049 435.779569 
L 864.76786 466.23093 
L 865.211481 429.960837 
L 865.655102 414.600468 
L 866.098724 406.1598 
L 866.764156 398.116164 
L 867.429588 392.754415 
L 868.095019 388.910745 
L 868.760451 386.083321 
L 869.425883 384.013634 
L 870.091315 382.555406 
L 870.756747 381.622885 
L 871.200368 381.268185 
L 871.64399 381.117482 
L 872.087611 381.16763 
L 872.531232 381.419671 
L 872.974853 381.878917 
L 873.640285 382.979755 
L 874.305717 384.629934 
L 874.971149 386.931892 
L 875.636581 390.061296 
L 876.302013 394.336252 
L 876.967445 400.404225 
L 877.411066 406.1598 
L 877.854687 414.600468 
L 878.298309 429.960836 
L 878.74193 466.230934 
L 878.963741 435.779568 
L 879.407362 416.929606 
L 879.850983 407.468987 
L 880.516415 398.703347 
L 881.181847 392.913633 
L 881.847279 388.752908 
L 882.512711 385.661646 
L 883.178143 383.357212 
L 883.843575 381.681264 
L 884.509007 380.541126 
L 885.174439 379.883833 
L 885.61806 379.700378 
L 886.061681 379.71782 
L 886.505302 379.938388 
L 886.948924 380.368668 
L 887.614356 381.434081 
L 888.279787 383.064624 
L 888.945219 385.373487 
L 889.610651 388.555911 
L 890.276083 392.971345 
L 890.941515 399.374572 
L 891.385136 405.621942 
L 891.828758 415.208686 
L 892.050568 422.74892 
L 892.272379 435.167257 
L 892.49419 475.271732 
L 892.716 441.356636 
L 893.159622 416.893723 
L 893.603243 406.196948 
L 894.268675 396.636192 
L 894.934107 390.402254 
L 895.599539 385.923335 
L 896.486781 381.648711 
L 897.152213 379.347806 
L 897.817645 377.654795 
L 898.483077 376.485867 
L 899.148509 375.793875 
L 899.59213 375.586221 
L 900.035751 375.57999 
L 900.479373 375.778601 
L 900.922994 376.18995 
L 901.588426 377.236133 
L 902.253858 378.865073 
L 902.91929 381.201834 
L 903.584722 384.46386 
L 904.250153 389.059094 
L 904.915585 395.874824 
L 905.359207 402.739636 
L 905.802828 413.889822 
L 906.024639 423.529133 
L 906.246449 443.230019 
L 906.46826 450.743457 
L 906.69007 425.726868 
L 907.133692 407.838319 
L 907.577313 398.502376 
L 908.242745 389.672297 
L 908.908177 383.730197 
L 909.573609 379.385241 
L 910.460851 375.181159 
L 911.348094 372.264594 
L 912.013526 370.742051 
L 912.678958 369.715624 
L 913.34439 369.152581 
L 913.788011 369.029137 
L 914.231632 369.109509 
L 914.675253 369.400556 
L 915.118875 369.914115 
L 915.784307 371.142923 
L 916.449739 373.011399 
L 917.11517 375.685315 
L 917.780602 379.4624 
L 918.446034 384.939148 
L 918.889656 390.176624 
L 919.333277 397.819367 
L 919.776898 411.200298 
L 919.998709 424.643973 
L 920.220519 494.689251 
L 920.44233 425.617958 
L 920.885951 402.919877 
L 921.329573 392.430299 
L 921.995004 382.846497 
L 922.660436 376.482932 
L 923.325868 371.836896 
L 924.213111 367.313836 
L 925.100353 364.123261 
L 925.765785 362.409839 
L 926.431217 361.198721 
L 927.096649 360.453272 
L 927.54027 360.207872 
L 927.983892 360.164908 
L 928.427513 360.330222 
L 928.871134 360.714463 
L 929.314756 361.334058 
L 929.980187 362.759555 
L 930.645619 364.898334 
L 931.311051 367.973043 
L 931.976483 372.403397 
L 932.420104 376.521827 
L 932.863726 382.200606 
L 933.307347 390.827388 
L 933.529158 397.422736 
L 933.750968 407.632139 
L 933.972779 430.360615 
L 934.19459 427.664363 
L 934.4164 406.244903 
L 934.860021 389.184006 
L 935.303643 379.953198 
L 935.969075 371.044334 
L 936.634507 364.935766 
L 937.521749 359.120975 
L 938.408992 354.977285 
L 939.296234 352.011812 
L 939.961666 350.413378 
L 940.627098 349.291706 
L 941.29253 348.623071 
L 941.736151 348.427342 
L 942.179773 348.436638 
L 942.623394 348.660441 
L 943.067015 349.113749 
L 943.510636 349.818547 
L 944.176068 351.419408 
L 944.8415 353.829156 
L 945.506932 357.353153 
L 946.172364 362.607293 
L 946.615985 367.740726 
L 947.059607 375.382718 
L 947.503228 389.190533 
L 947.725038 403.844002 
L 947.946849 449.130181 
L 948.16866 399.566884 
L 948.612281 378.253068 
L 949.055902 367.865042 
L 949.721334 358.11938 
L 950.386766 351.484195 
L 951.274009 345.126593 
L 952.161251 340.509529 
L 953.048494 337.095088 
L 953.935736 334.62678 
L 954.601168 333.319804 
L 955.2666 332.455084 
L 955.710221 332.124392 
L 956.153843 331.996622 
L 956.597464 332.082557 
L 957.041085 332.398833 
L 957.484707 332.969625 
L 957.928328 333.829413 
L 958.59376 335.774882 
L 959.259192 338.765083 
L 959.924624 343.349845 
L 960.368245 347.871221 
L 960.811866 354.551983 
L 961.255487 366.072419 
L 961.477298 376.828208 
L 961.699109 403.799106 
L 962.586351 354.880644 
L 963.251783 341.906639 
L 963.917215 333.616048 
L 964.804458 325.76165 
L 965.6917 319.945633 
L 966.578943 315.442347 
L 967.466185 311.916929 
L 968.353428 309.204746 
L 969.24067 307.236652 
L 969.906102 306.247389 
L 970.571534 305.703188 
L 971.015155 305.613623 
L 971.458777 305.771856 
L 971.902398 306.215292 
L 972.346019 306.997983 
L 972.789641 308.199946 
L 973.233262 309.944577 
L 973.676883 312.434208 
L 974.120504 316.032463 
L 974.564126 321.494396 
L 975.007747 330.852186 
L 975.229558 339.050228 
L 975.451368 354.856502 
L 975.673179 379.680067 
L 975.894989 344.473012 
L 976.338611 323.548874 
L 976.782232 312.446663 
L 977.447664 301.275907 
L 978.334907 290.658342 
L 979.44396 280.567508 
L 980.774824 270.868346 
L 982.327498 261.436366 
L 982.549309 260.204186 
L 982.549309 260.204186 
" clip-path="url(#pd802ed5816)" style="fill: none; stroke: #ff7f0e; stroke-width: 3; stroke-linecap: square"/>
   </g>
   <g id="patch_9">
    <path d="M 749.88104 515.68 
L 749.88104 7.2 
" style="fill: none; stroke: #000000; stroke-width: 1.5; stroke-linejoin: miter; stroke-linecap: square"/>
   </g>
   <g id="patch_10">
    <path d="M 993.62875 515.68 
L 993.62875 7.2 
" style="fill: none; stroke: #000000; stroke-width: 1.5; stroke-linejoin: miter; stroke-linecap: square"/>
   </g>
   <g id="patch_11">
    <path d="M 749.88104 515.68 
L 993.62875 515.68 
" style="fill: none; stroke: #000000; stroke-width: 1.5; stroke-linejoin: miter; stroke-linecap: square"/>
   </g>
   <g id="patch_12">
    <path d="M 749.88104 7.2 
L 993.62875 7.2 
" style="fill: none; stroke: #000000; stroke-width: 1.5; stroke-linejoin: miter; stroke-linecap: square"/>
   </g>
   <g id="legend_2">
    <g id="patch_13">
     <path d="M 923.544375 59.384375 
L 986.62875 59.384375 
Q 988.62875 59.384375 988.62875 57.384375 
L 988.62875 14.2 
Q 988.62875 12.2 986.62875 12.2 
L 923.544375 12.2 
Q 921.544375 12.2 921.544375 14.2 
L 921.544375 57.384375 
Q 921.544375 59.384375 923.544375 59.384375 
z
" style="fill: #ffffff; opacity: 0.8; stroke: #cccccc; stroke-linejoin: miter"/>
    </g>
    <g id="line2d_58">
     <path d="M 925.544375 20.259375 
L 935.544375 20.259375 
L 945.544375 20.259375 
" style="fill: none; stroke: #a80000; stroke-width: 3; stroke-linecap: square"/>
    </g>
    <g id="text_32">
     <!-- 4, t=0 -->
     <g transform="translate(953.544375 23.759375) scale(0.1 -0.1)">
      <use xlink:href="#Georgia-34"/>
      <use xlink:href="#Georgia-2c" x="56.494141"/>
      <use xlink:href="#Georgia-20" x="83.447266"/>
      <use xlink:href="#Georgia-74" x="107.568359"/>
      <use xlink:href="#Georgia-3d" x="142.089844"/>
      <use xlink:href="#Georgia-30" x="206.396484"/>
     </g>
    </g>
    <g id="line2d_59">
     <path d="M 925.544375 34.9875 
L 935.544375 34.9875 
L 945.544375 34.9875 
" style="fill: none; stroke: #1f77b4; stroke-width: 3; stroke-linecap: square"/>
    </g>
    <g id="text_33">
     <!-- 8, t=0 -->
     <g transform="translate(953.544375 38.4875) scale(0.1 -0.1)">
      <use xlink:href="#Georgia-38"/>
      <use xlink:href="#Georgia-2c" x="59.619141"/>
      <use xlink:href="#Georgia-20" x="86.572266"/>
      <use xlink:href="#Georgia-74" x="110.693359"/>
      <use xlink:href="#Georgia-3d" x="145.214844"/>
      <use xlink:href="#Georgia-30" x="209.521484"/>
     </g>
    </g>
    <g id="line2d_60">
     <path d="M 925.544375 49.715625 
L 935.544375 49.715625 
L 945.544375 49.715625 
" style="fill: none; stroke: #ff7f0e; stroke-width: 3; stroke-linecap: square"/>
    </g>
    <g id="text_34">
     <!-- 16, t=0 -->
     <g transform="translate(953.544375 53.215625) scale(0.1 -0.1)">
      <use xlink:href="#Georgia-31"/>
      <use xlink:href="#Georgia-36" x="42.96875"/>
      <use xlink:href="#Georgia-2c" x="99.560547"/>
      <use xlink:href="#Georgia-20" x="126.513672"/>
      <use xlink:href="#Georgia-74" x="150.634766"/>
      <use xlink:href="#Georgia-3d" x="185.15625"/>
      <use xlink:href="#Georgia-30" x="249.462891"/>
     </g>
    </g>
   </g>
  </g>
 </g>
 <defs>
  <clipPath id="pdfc4727441">
   <rect x="61.60875" y="7.2" width="609.369275" height="508.48"/>
  </clipPath>
  <clipPath id="pd802ed5816">
   <rect x="749.88104" y="7.2" width="243.74771" height="508.48"/>
  </clipPath>
 </defs>
</svg>
