<?xml version="1.0" encoding="utf-8" standalone="no"?>
<!DOCTYPE svg PUBLIC "-//W3C//DTD SVG 1.1//EN"
  "http://www.w3.org/Graphics/SVG/1.1/DTD/svg11.dtd">
<svg xmlns:xlink="http://www.w3.org/1999/xlink" width="1000.7675pt" height="568.885pt" viewBox="0 0 1000.7675 568.885" xmlns="http://www.w3.org/2000/svg" version="1.1">
 <metadata>
  <rdf:RDF xmlns:dc="http://purl.org/dc/elements/1.1/" xmlns:cc="http://creativecommons.org/ns#" xmlns:rdf="http://www.w3.org/1999/02/22-rdf-syntax-ns#">
   <cc:Work>
    <dc:type rdf:resource="http://purl.org/dc/dcmitype/StillImage"/>
    <dc:date>2023-11-29T02:00:15.595185</dc:date>
    <dc:format>image/svg+xml</dc:format>
    <dc:creator>
     <cc:Agent>
      <dc:title>Matplotlib v3.6.2, https://matplotlib.org/</dc:title>
     </cc:Agent>
    </dc:creator>
   </cc:Work>
  </rdf:RDF>
 </metadata>
 <defs>
  <style type="text/css">*{stroke-linejoin: round; stroke-linecap: butt}</style>
 </defs>
 <g id="figure_1">
  <g id="patch_1">
   <path d="M 0 568.885 
L 1000.7675 568.885 
L 1000.7675 0 
L 0 0 
L 0 568.885 
z
" style="fill: none"/>
  </g>
  <g id="axes_1">
   <g id="patch_2">
    <path d="M 33.4275 539.12 
L 684.637914 539.12 
L 684.637914 7.2 
L 33.4275 7.2 
L 33.4275 539.12 
z
" style="fill: none"/>
   </g>
   <g id="matplotlib.axis_1">
    <g id="xtick_1">
     <g id="line2d_1">
      <path d="M 63.027973 539.12 
L 63.027973 7.2 
" clip-path="url(#p78265f678b)" style="fill: none; stroke: #b0b0b0; stroke-width: 0.8; stroke-linecap: square"/>
     </g>
     <g id="line2d_2">
      <defs>
       <path id="mf7b9d8ef12" d="M 0 0 
L 0 3.5 
" style="stroke: #000000; stroke-width: 0.8"/>
      </defs>
      <g>
       <use xlink:href="#mf7b9d8ef12" x="63.027973" y="539.12" style="stroke: #000000; stroke-width: 0.8"/>
      </g>
     </g>
     <g id="text_1">
      <!-- 0 -->
      <g transform="translate(58.117973 558.215) scale(0.16 -0.16)">
       <defs>
        <path id="Georgia-30" d="M 3209 2919 
Q 3409 2678 3507 2354 
Q 3606 2031 3606 1678 
Q 3606 1253 3484 917 
Q 3363 581 3150 359 
Q 2931 131 2631 15 
Q 2331 -100 1963 -100 
Q 1559 -100 1243 34 
Q 928 169 731 403 
Q 525 647 423 973 
Q 322 1300 322 1678 
Q 322 2050 420 2362 
Q 519 2675 728 2928 
Q 928 3172 1243 3312 
Q 1559 3453 1966 3453 
Q 2394 3453 2700 3309 
Q 3006 3166 3209 2919 
z
M 2916 1678 
Q 2916 2422 2661 2831 
Q 2406 3241 1969 3241 
Q 1525 3241 1269 2831 
Q 1013 2422 1013 1678 
Q 1013 972 1258 542 
Q 1503 113 1963 113 
Q 2422 113 2669 542 
Q 2916 972 2916 1678 
z
" transform="scale(0.015625)"/>
       </defs>
       <use xlink:href="#Georgia-30"/>
      </g>
     </g>
    </g>
    <g id="xtick_2">
     <g id="line2d_3">
      <path d="M 157.249206 539.12 
L 157.249206 7.2 
" clip-path="url(#p78265f678b)" style="fill: none; stroke: #b0b0b0; stroke-width: 0.8; stroke-linecap: square"/>
     </g>
     <g id="line2d_4">
      <g>
       <use xlink:href="#mf7b9d8ef12" x="157.249206" y="539.12" style="stroke: #000000; stroke-width: 0.8"/>
      </g>
     </g>
     <g id="text_2">
      <!-- 1 -->
      <g transform="translate(153.811706 558.215) scale(0.16 -0.16)">
       <defs>
        <path id="Georgia-31" d="M 2528 0 
L 422 0 
L 422 222 
Q 516 228 714 248 
Q 913 269 988 291 
Q 1084 322 1136 392 
Q 1188 463 1188 603 
L 1188 2797 
L 409 2797 
L 409 3059 
L 581 3059 
Q 919 3059 1186 3184 
Q 1453 3309 1569 3453 
L 1828 3453 
Q 1819 3250 1809 2978 
Q 1800 2706 1800 2491 
L 1800 638 
Q 1800 528 1848 442 
Q 1897 356 1988 316 
Q 2069 281 2253 253 
Q 2438 225 2528 222 
L 2528 0 
z
" transform="scale(0.015625)"/>
       </defs>
       <use xlink:href="#Georgia-31"/>
      </g>
     </g>
    </g>
    <g id="xtick_3">
     <g id="line2d_5">
      <path d="M 251.470439 539.12 
L 251.470439 7.2 
" clip-path="url(#p78265f678b)" style="fill: none; stroke: #b0b0b0; stroke-width: 0.8; stroke-linecap: square"/>
     </g>
     <g id="line2d_6">
      <g>
       <use xlink:href="#mf7b9d8ef12" x="251.470439" y="539.12" style="stroke: #000000; stroke-width: 0.8"/>
      </g>
     </g>
     <g id="text_3">
      <!-- 2 -->
      <g transform="translate(247.001689 558.215) scale(0.16 -0.16)">
       <defs>
        <path id="Georgia-32" d="M 3272 0 
L 344 0 
L 344 425 
Q 428 522 578 642 
Q 728 763 934 903 
Q 1059 988 1234 1088 
Q 1409 1188 1631 1306 
Q 1878 1438 2011 1538 
Q 2144 1638 2253 1784 
Q 2325 1881 2369 2026 
Q 2413 2172 2413 2441 
Q 2413 2831 2203 3014 
Q 1994 3197 1666 3197 
Q 1463 3197 1281 3117 
Q 1100 3038 1009 2897 
Q 1031 2797 1064 2659 
Q 1097 2522 1097 2391 
Q 1097 2272 998 2180 
Q 900 2088 706 2088 
Q 550 2088 465 2195 
Q 381 2303 381 2484 
Q 381 2653 475 2823 
Q 569 2994 744 3138 
Q 916 3278 1169 3365 
Q 1422 3453 1716 3453 
Q 2356 3453 2732 3167 
Q 3109 2881 3109 2403 
Q 3109 2175 3042 1987 
Q 2975 1800 2825 1656 
Q 2659 1497 2437 1383 
Q 2216 1269 1759 1066 
Q 1488 944 1253 811 
Q 1019 678 869 553 
L 3272 553 
L 3272 0 
z
" transform="scale(0.015625)"/>
       </defs>
       <use xlink:href="#Georgia-32"/>
      </g>
     </g>
    </g>
    <g id="xtick_4">
     <g id="line2d_7">
      <path d="M 345.691672 539.12 
L 345.691672 7.2 
" clip-path="url(#p78265f678b)" style="fill: none; stroke: #b0b0b0; stroke-width: 0.8; stroke-linecap: square"/>
     </g>
     <g id="line2d_8">
      <g>
       <use xlink:href="#mf7b9d8ef12" x="345.691672" y="539.12" style="stroke: #000000; stroke-width: 0.8"/>
      </g>
     </g>
     <g id="text_4">
      <!-- 3 -->
      <g transform="translate(341.277922 558.215) scale(0.16 -0.16)">
       <defs>
        <path id="Georgia-33" d="M 1522 -1141 
Q 1228 -1141 984 -1067 
Q 741 -994 566 -869 
Q 391 -744 295 -581 
Q 200 -419 200 -247 
Q 200 -94 275 29 
Q 350 153 516 153 
Q 703 153 801 61 
Q 900 -31 900 -150 
Q 900 -250 867 -403 
Q 834 -556 816 -622 
Q 838 -650 895 -697 
Q 953 -744 1038 -781 
Q 1138 -828 1247 -856 
Q 1356 -884 1556 -884 
Q 1744 -884 1917 -821 
Q 2091 -759 2222 -622 
Q 2359 -478 2436 -286 
Q 2513 -94 2513 219 
Q 2513 388 2477 553 
Q 2441 719 2344 841 
Q 2247 963 2080 1030 
Q 1913 1097 1656 1097 
L 1247 1097 
L 1247 1456 
L 1519 1456 
Q 1950 1456 2140 1693 
Q 2331 1931 2331 2409 
Q 2331 2800 2147 2998 
Q 1963 3197 1625 3197 
Q 1463 3197 1358 3158 
Q 1253 3119 1188 3081 
Q 1109 3038 1059 2984 
Q 1009 2931 984 2906 
Q 1006 2806 1037 2661 
Q 1069 2516 1069 2384 
Q 1069 2269 970 2176 
Q 872 2084 681 2084 
Q 516 2084 439 2203 
Q 363 2322 363 2478 
Q 363 2641 453 2809 
Q 544 2978 722 3125 
Q 900 3272 1156 3362 
Q 1413 3453 1747 3453 
Q 2131 3453 2382 3339 
Q 2634 3225 2778 3063 
Q 2919 2903 2972 2728 
Q 3025 2553 3025 2428 
Q 3025 2272 2981 2114 
Q 2938 1956 2838 1822 
Q 2728 1675 2548 1554 
Q 2369 1434 2097 1359 
L 2097 1309 
Q 2272 1294 2470 1231 
Q 2669 1169 2828 1047 
Q 2994 919 3100 717 
Q 3206 516 3206 206 
Q 3206 -394 2725 -767 
Q 2244 -1141 1522 -1141 
z
" transform="scale(0.015625)"/>
       </defs>
       <use xlink:href="#Georgia-33"/>
      </g>
     </g>
    </g>
    <g id="xtick_5">
     <g id="line2d_9">
      <path d="M 439.912906 539.12 
L 439.912906 7.2 
" clip-path="url(#p78265f678b)" style="fill: none; stroke: #b0b0b0; stroke-width: 0.8; stroke-linecap: square"/>
     </g>
     <g id="line2d_10">
      <g>
       <use xlink:href="#mf7b9d8ef12" x="439.912906" y="539.12" style="stroke: #000000; stroke-width: 0.8"/>
      </g>
     </g>
     <g id="text_5">
      <!-- 4 -->
      <g transform="translate(435.392906 558.215) scale(0.16 -0.16)">
       <defs>
        <path id="Georgia-34" d="M 3388 281 
L 2753 281 
L 2753 -1141 
L 2153 -1141 
L 2153 281 
L 153 281 
L 153 763 
L 2344 3434 
L 2753 3434 
L 2753 691 
L 3388 691 
L 3388 281 
z
M 2153 691 
L 2153 2738 
L 466 691 
L 2153 691 
z
" transform="scale(0.015625)"/>
       </defs>
       <use xlink:href="#Georgia-34"/>
      </g>
     </g>
    </g>
    <g id="xtick_6">
     <g id="line2d_11">
      <path d="M 534.134139 539.12 
L 534.134139 7.2 
" clip-path="url(#p78265f678b)" style="fill: none; stroke: #b0b0b0; stroke-width: 0.8; stroke-linecap: square"/>
     </g>
     <g id="line2d_12">
      <g>
       <use xlink:href="#mf7b9d8ef12" x="534.134139" y="539.12" style="stroke: #000000; stroke-width: 0.8"/>
      </g>
     </g>
     <g id="text_6">
      <!-- 5 -->
      <g transform="translate(529.907889 558.215) scale(0.16 -0.16)">
       <defs>
        <path id="Georgia-35" d="M 2634 1466 
Q 2841 1303 2977 1047 
Q 3113 791 3113 406 
Q 3113 -266 2653 -703 
Q 2194 -1141 1488 -1141 
Q 941 -1141 562 -881 
Q 184 -622 184 -278 
Q 184 -119 262 0 
Q 341 119 503 119 
Q 691 119 789 20 
Q 888 -78 888 -194 
Q 888 -294 853 -444 
Q 819 -594 800 -666 
Q 825 -688 881 -725 
Q 938 -763 1016 -797 
Q 1097 -831 1214 -857 
Q 1331 -884 1488 -884 
Q 1688 -884 1866 -803 
Q 2044 -722 2166 -563 
Q 2300 -388 2367 -164 
Q 2434 59 2434 403 
Q 2434 844 2189 1133 
Q 1944 1422 1544 1422 
Q 1294 1422 1076 1328 
Q 859 1234 688 1016 
L 478 1097 
L 744 3353 
L 2981 3353 
L 2981 2797 
L 997 2797 
L 834 1472 
Q 975 1572 1204 1670 
Q 1434 1769 1709 1769 
Q 1938 1769 2183 1698 
Q 2428 1628 2634 1466 
z
" transform="scale(0.015625)"/>
       </defs>
       <use xlink:href="#Georgia-35"/>
      </g>
     </g>
    </g>
    <g id="xtick_7">
     <g id="line2d_13">
      <path d="M 628.355372 539.12 
L 628.355372 7.2 
" clip-path="url(#p78265f678b)" style="fill: none; stroke: #b0b0b0; stroke-width: 0.8; stroke-linecap: square"/>
     </g>
     <g id="line2d_14">
      <g>
       <use xlink:href="#mf7b9d8ef12" x="628.355372" y="539.12" style="stroke: #000000; stroke-width: 0.8"/>
      </g>
     </g>
     <g id="text_7">
      <!-- 6 -->
      <g transform="translate(623.827872 558.215) scale(0.16 -0.16)">
       <defs>
        <path id="Georgia-36" d="M 3359 1441 
Q 3359 1116 3242 831 
Q 3125 547 2928 347 
Q 2700 119 2423 9 
Q 2147 -100 1847 -100 
Q 1500 -100 1219 28 
Q 938 156 741 391 
Q 541 628 431 972 
Q 322 1316 322 1744 
Q 322 2859 986 3625 
Q 1650 4391 2766 4544 
L 2822 4263 
L 2541 4213 
Q 1863 3994 1492 3531 
Q 1122 3069 1013 2409 
Q 1281 2644 1543 2741 
Q 1806 2838 2097 2838 
Q 2619 2838 2989 2438 
Q 3359 2038 3359 1441 
z
M 2681 1356 
Q 2681 1863 2448 2169 
Q 2216 2475 1825 2475 
Q 1591 2475 1389 2387 
Q 1188 2300 1000 2094 
Q 997 2056 990 1920 
Q 984 1784 984 1706 
Q 984 975 1223 561 
Q 1463 147 1853 147 
Q 2225 147 2453 470 
Q 2681 794 2681 1356 
z
" transform="scale(0.015625)"/>
       </defs>
       <use xlink:href="#Georgia-36"/>
      </g>
     </g>
    </g>
   </g>
   <g id="matplotlib.axis_2">
    <g id="ytick_1">
     <g id="line2d_15">
      <path d="M 33.4275 504.275976 
L 684.637914 504.275976 
" clip-path="url(#p78265f678b)" style="fill: none; stroke: #b0b0b0; stroke-width: 0.8; stroke-linecap: square"/>
     </g>
     <g id="line2d_16">
      <defs>
       <path id="me344d5913d" d="M 0 0 
L -3.5 0 
" style="stroke: #000000; stroke-width: 0.8"/>
      </defs>
      <g>
       <use xlink:href="#me344d5913d" x="33.4275" y="504.275976" style="stroke: #000000; stroke-width: 0.8"/>
      </g>
     </g>
     <g id="text_8">
      <!-- −3 -->
      <g transform="translate(7.31 510.323476) scale(0.16 -0.16)">
       <defs>
        <path id="Georgia-2212" d="M 3650 1553 
L 466 1553 
L 466 1944 
L 3650 1944 
L 3650 1553 
z
" transform="scale(0.015625)"/>
       </defs>
       <use xlink:href="#Georgia-2212"/>
       <use xlink:href="#Georgia-33" x="64.306641"/>
      </g>
     </g>
    </g>
    <g id="ytick_2">
     <g id="line2d_17">
      <path d="M 33.4275 427.237318 
L 684.637914 427.237318 
" clip-path="url(#p78265f678b)" style="fill: none; stroke: #b0b0b0; stroke-width: 0.8; stroke-linecap: square"/>
     </g>
     <g id="line2d_18">
      <g>
       <use xlink:href="#me344d5913d" x="33.4275" y="427.237318" style="stroke: #000000; stroke-width: 0.8"/>
      </g>
     </g>
     <g id="text_9">
      <!-- −2 -->
      <g transform="translate(7.2 433.284818) scale(0.16 -0.16)">
       <use xlink:href="#Georgia-2212"/>
       <use xlink:href="#Georgia-32" x="64.306641"/>
      </g>
     </g>
    </g>
    <g id="ytick_3">
     <g id="line2d_19">
      <path d="M 33.4275 350.198659 
L 684.637914 350.198659 
" clip-path="url(#p78265f678b)" style="fill: none; stroke: #b0b0b0; stroke-width: 0.8; stroke-linecap: square"/>
     </g>
     <g id="line2d_20">
      <g>
       <use xlink:href="#me344d5913d" x="33.4275" y="350.198659" style="stroke: #000000; stroke-width: 0.8"/>
      </g>
     </g>
     <g id="text_10">
      <!-- −1 -->
      <g transform="translate(9.2625 356.246159) scale(0.16 -0.16)">
       <use xlink:href="#Georgia-2212"/>
       <use xlink:href="#Georgia-31" x="64.306641"/>
      </g>
     </g>
    </g>
    <g id="ytick_4">
     <g id="line2d_21">
      <path d="M 33.4275 273.16 
L 684.637914 273.16 
" clip-path="url(#p78265f678b)" style="fill: none; stroke: #b0b0b0; stroke-width: 0.8; stroke-linecap: square"/>
     </g>
     <g id="line2d_22">
      <g>
       <use xlink:href="#me344d5913d" x="33.4275" y="273.16" style="stroke: #000000; stroke-width: 0.8"/>
      </g>
     </g>
     <g id="text_11">
      <!-- 0 -->
      <g transform="translate(16.6075 279.2075) scale(0.16 -0.16)">
       <use xlink:href="#Georgia-30"/>
      </g>
     </g>
    </g>
    <g id="ytick_5">
     <g id="line2d_23">
      <path d="M 33.4275 196.121341 
L 684.637914 196.121341 
" clip-path="url(#p78265f678b)" style="fill: none; stroke: #b0b0b0; stroke-width: 0.8; stroke-linecap: square"/>
     </g>
     <g id="line2d_24">
      <g>
       <use xlink:href="#me344d5913d" x="33.4275" y="196.121341" style="stroke: #000000; stroke-width: 0.8"/>
      </g>
     </g>
     <g id="text_12">
      <!-- 1 -->
      <g transform="translate(19.5525 202.168841) scale(0.16 -0.16)">
       <use xlink:href="#Georgia-31"/>
      </g>
     </g>
    </g>
    <g id="ytick_6">
     <g id="line2d_25">
      <path d="M 33.4275 119.082682 
L 684.637914 119.082682 
" clip-path="url(#p78265f678b)" style="fill: none; stroke: #b0b0b0; stroke-width: 0.8; stroke-linecap: square"/>
     </g>
     <g id="line2d_26">
      <g>
       <use xlink:href="#me344d5913d" x="33.4275" y="119.082682" style="stroke: #000000; stroke-width: 0.8"/>
      </g>
     </g>
     <g id="text_13">
      <!-- 2 -->
      <g transform="translate(17.49 125.130182) scale(0.16 -0.16)">
       <use xlink:href="#Georgia-32"/>
      </g>
     </g>
    </g>
    <g id="ytick_7">
     <g id="line2d_27">
      <path d="M 33.4275 42.044024 
L 684.637914 42.044024 
" clip-path="url(#p78265f678b)" style="fill: none; stroke: #b0b0b0; stroke-width: 0.8; stroke-linecap: square"/>
     </g>
     <g id="line2d_28">
      <g>
       <use xlink:href="#me344d5913d" x="33.4275" y="42.044024" style="stroke: #000000; stroke-width: 0.8"/>
      </g>
     </g>
     <g id="text_14">
      <!-- 3 -->
      <g transform="translate(17.6 48.091524) scale(0.16 -0.16)">
       <use xlink:href="#Georgia-33"/>
      </g>
     </g>
    </g>
   </g>
   <g id="line2d_29">
    <path d="M 63.027973 273.16 
L 358.736406 31.378182 
L 359.329008 514.941818 
L 655.03744 273.16 
L 655.03744 273.16 
" clip-path="url(#p78265f678b)" style="fill: none; stroke: #000000; stroke-linecap: square"/>
   </g>
   <g id="line2d_30">
    <path d="M 63.027973 273.194493 
L 74.880015 263.295603 
L 81.398637 258.131092 
L 87.91726 253.249169 
L 95.028485 248.210646 
L 116.36216 233.328676 
L 122.880782 228.351492 
L 129.399405 223.086715 
L 138.881038 215.09535 
L 148.955273 206.661357 
L 154.881294 201.968659 
L 160.214713 197.99843 
L 166.140733 193.877338 
L 172.659356 189.626569 
L 188.659612 179.345297 
L 193.993031 175.585049 
L 199.326449 171.539124 
L 204.659868 167.212227 
L 211.771093 161.129472 
L 222.43793 151.997074 
L 227.178747 148.238059 
L 231.326961 145.220607 
L 235.475175 142.504786 
L 239.030788 140.430579 
L 243.179002 138.294396 
L 247.327217 136.41894 
L 253.253238 134.030205 
L 260.957064 130.941708 
L 265.105279 129.027117 
L 268.660891 127.129177 
L 271.623902 125.32286 
L 274.586912 123.29028 
L 277.549922 121.025307 
L 281.105535 118.015973 
L 285.253749 114.172814 
L 297.105791 102.844393 
L 300.068801 100.480772 
L 302.439209 98.906024 
L 304.217016 97.958775 
L 305.994822 97.248127 
L 307.772628 96.806896 
L 309.550434 96.667729 
L 310.735638 96.758643 
L 311.920842 97.007374 
L 313.106047 97.42297 
L 314.291251 98.014184 
L 315.476455 98.789426 
L 316.661659 99.756711 
L 317.846863 100.923609 
L 319.624669 103.063562 
L 321.402476 105.689999 
L 323.180282 108.821413 
L 324.958088 112.472927 
L 326.735894 116.656016 
L 328.5137 121.37827 
L 330.291507 126.643196 
L 332.661915 134.505358 
L 335.032323 143.31666 
L 337.402731 153.049345 
L 339.77314 163.661748 
L 342.73615 178.078966 
L 345.69916 193.647374 
L 349.254773 213.615052 
L 353.402987 238.259198 
L 360.514212 282.210107 
L 367.032835 322.010494 
L 371.181049 345.932103 
L 374.736662 365.046621 
L 377.699672 379.761646 
L 380.662682 393.217762 
L 383.033091 402.998934 
L 385.403499 411.858294 
L 387.773907 419.766869 
L 389.551713 425.064826 
L 391.32952 429.818073 
L 393.107326 434.02969 
L 394.885132 437.706882 
L 396.662938 440.860781 
L 398.440745 443.50622 
L 400.218551 445.661456 
L 401.996357 447.34787 
L 403.181561 448.22352 
L 404.366765 448.909275 
L 405.551969 449.413345 
L 406.737173 449.744322 
L 407.922378 449.91113 
L 409.107582 449.922971 
L 410.885388 449.670839 
L 412.663194 449.12378 
L 414.441 448.314773 
L 416.218807 447.276893 
L 418.589215 445.593623 
L 420.959623 443.637499 
L 423.922633 440.918493 
L 429.256052 435.642375 
L 435.182073 429.842132 
L 438.737685 426.640476 
L 442.293298 423.746648 
L 445.256308 421.596436 
L 448.219318 419.685602 
L 451.774931 417.687351 
L 455.330543 415.963748 
L 459.478758 414.208622 
L 474.886411 408.017202 
L 478.442024 406.246849 
L 481.997636 404.249181 
L 485.553249 402.01018 
L 489.108861 399.534506 
L 493.257076 396.376642 
L 497.997892 392.484723 
L 505.109117 386.325098 
L 514.59075 378.149515 
L 519.924169 373.833888 
L 525.257587 369.812876 
L 530.591006 366.083686 
L 537.109629 361.831379 
L 553.702487 351.210684 
L 559.035905 347.473226 
L 564.369324 343.480702 
L 570.295345 338.761345 
L 577.999171 332.31224 
L 592.221621 320.35518 
L 598.740244 315.203662 
L 605.258867 310.351507 
L 612.370091 305.344861 
L 631.333358 292.18046 
L 637.85198 287.283057 
L 644.370603 282.102984 
L 652.667032 275.199376 
L 655.03744 273.194493 
L 655.03744 273.194493 
" clip-path="url(#p78265f678b)" style="fill: none; stroke: #a80000; stroke-width: 3; stroke-linecap: square"/>
   </g>
   <g id="line2d_31">
    <path d="M 81.528269 258.406411 
L 118.528861 230.821579 
L 155.529453 202.675675 
L 192.530044 174.981515 
L 229.530636 148.75191 
L 266.531228 124.999675 
L 303.531819 104.737623 
L 340.532411 88.978567 
L 377.533003 457.552082 
L 414.533594 441.618136 
L 451.534186 421.293269 
L 488.534778 397.54679 
L 525.53537 371.348012 
L 562.535961 343.666244 
L 599.536553 315.470798 
L 636.537145 287.730984 
" clip-path="url(#p78265f678b)" style="fill: none; stroke: #1f77b4; stroke-width: 3; stroke-linecap: square"/>
   </g>
   <g id="patch_3">
    <path d="M 33.4275 539.12 
L 33.4275 7.2 
" style="fill: none; stroke: #000000; stroke-width: 1.5; stroke-linejoin: miter; stroke-linecap: square"/>
   </g>
   <g id="patch_4">
    <path d="M 684.637914 539.12 
L 684.637914 7.2 
" style="fill: none; stroke: #000000; stroke-width: 1.5; stroke-linejoin: miter; stroke-linecap: square"/>
   </g>
   <g id="patch_5">
    <path d="M 33.4275 539.12 
L 684.637914 539.12 
" style="fill: none; stroke: #000000; stroke-width: 1.5; stroke-linejoin: miter; stroke-linecap: square"/>
   </g>
   <g id="patch_6">
    <path d="M 33.4275 7.2 
L 684.637914 7.2 
" style="fill: none; stroke: #000000; stroke-width: 1.5; stroke-linejoin: miter; stroke-linecap: square"/>
   </g>
   <g id="legend_1">
    <g id="patch_7">
     <path d="M 558.162914 59.384375 
L 677.637914 59.384375 
Q 679.637914 59.384375 679.637914 57.384375 
L 679.637914 14.2 
Q 679.637914 12.2 677.637914 12.2 
L 558.162914 12.2 
Q 556.162914 12.2 556.162914 14.2 
L 556.162914 57.384375 
Q 556.162914 59.384375 558.162914 59.384375 
z
" style="fill: #ffffff; opacity: 0.8; stroke: #cccccc; stroke-linejoin: miter"/>
    </g>
    <g id="line2d_32">
     <path d="M 560.162914 20.259375 
L 570.162914 20.259375 
L 580.162914 20.259375 
" style="fill: none; stroke: #000000; stroke-linecap: square"/>
    </g>
    <g id="text_15">
     <!-- Init -->
     <g transform="translate(588.162914 23.759375) scale(0.1 -0.1)">
      <defs>
       <path id="Georgia-49" d="M 2244 0 
L 247 0 
L 247 222 
Q 331 228 490 240 
Q 650 253 716 278 
Q 819 319 866 389 
Q 913 459 913 584 
L 913 3797 
Q 913 3906 878 3979 
Q 844 4053 716 4103 
Q 622 4141 480 4173 
Q 338 4206 247 4213 
L 247 4434 
L 2244 4434 
L 2244 4213 
Q 2147 4209 2012 4189 
Q 1878 4169 1778 4138 
Q 1659 4100 1618 4015 
Q 1578 3931 1578 3828 
L 1578 619 
Q 1578 516 1623 436 
Q 1669 356 1778 309 
Q 1844 284 1992 254 
Q 2141 225 2244 222 
L 2244 0 
z
" transform="scale(0.015625)"/>
       <path id="Georgia-6e" d="M 3628 0 
L 2119 0 
L 2119 206 
Q 2191 213 2277 219 
Q 2363 225 2419 244 
Q 2506 272 2548 342 
Q 2591 413 2591 525 
L 2591 2109 
Q 2591 2438 2436 2616 
Q 2281 2794 2059 2794 
Q 1894 2794 1756 2742 
Q 1619 2691 1513 2616 
Q 1409 2544 1348 2461 
Q 1288 2378 1259 2328 
L 1259 556 
Q 1259 450 1303 381 
Q 1347 313 1434 275 
Q 1500 244 1576 228 
Q 1653 213 1734 206 
L 1734 0 
L 225 0 
L 225 206 
Q 297 213 373 219 
Q 450 225 506 244 
Q 594 272 636 342 
Q 678 413 678 525 
L 678 2428 
Q 678 2534 633 2623 
Q 588 2713 506 2769 
Q 447 2806 365 2823 
Q 284 2841 191 2847 
L 191 3050 
L 1216 3119 
L 1259 3075 
L 1259 2641 
L 1275 2641 
Q 1350 2716 1462 2820 
Q 1575 2925 1675 2991 
Q 1791 3066 1950 3116 
Q 2109 3166 2309 3166 
Q 2753 3166 2967 2889 
Q 3181 2613 3181 2153 
L 3181 550 
Q 3181 441 3218 373 
Q 3256 306 3347 269 
Q 3422 238 3476 225 
Q 3531 213 3628 206 
L 3628 0 
z
" transform="scale(0.015625)"/>
       <path id="Georgia-69" d="M 1722 0 
L 231 0 
L 231 206 
Q 303 213 379 219 
Q 456 225 513 244 
Q 600 272 642 342 
Q 684 413 684 525 
L 684 2428 
Q 684 2528 639 2611 
Q 594 2694 513 2750 
Q 453 2788 340 2814 
Q 228 2841 134 2847 
L 134 3050 
L 1222 3119 
L 1266 3075 
L 1266 563 
Q 1266 453 1308 381 
Q 1350 309 1441 275 
Q 1509 247 1575 230 
Q 1641 213 1722 206 
L 1722 0 
z
M 1328 4334 
Q 1328 4156 1211 4023 
Q 1094 3891 922 3891 
Q 763 3891 645 4017 
Q 528 4144 528 4306 
Q 528 4478 645 4606 
Q 763 4734 922 4734 
Q 1100 4734 1214 4614 
Q 1328 4494 1328 4334 
z
" transform="scale(0.015625)"/>
       <path id="Georgia-74" d="M 2128 134 
Q 1925 50 1744 -8 
Q 1563 -66 1300 -66 
Q 913 -66 755 129 
Q 597 325 597 681 
L 597 2769 
L 41 2769 
L 41 3069 
L 609 3069 
L 609 4028 
L 1178 4028 
L 1178 3069 
L 2063 3069 
L 2063 2769 
L 1184 2769 
L 1184 1047 
Q 1184 853 1198 723 
Q 1213 594 1266 497 
Q 1316 406 1416 359 
Q 1516 313 1684 313 
Q 1763 313 1914 327 
Q 2066 341 2128 363 
L 2128 134 
z
" transform="scale(0.015625)"/>
      </defs>
      <use xlink:href="#Georgia-49"/>
      <use xlink:href="#Georgia-6e" x="38.964844"/>
      <use xlink:href="#Georgia-69" x="98.046875"/>
      <use xlink:href="#Georgia-74" x="127.34375"/>
     </g>
    </g>
    <g id="line2d_33">
     <path d="M 560.162914 34.9875 
L 570.162914 34.9875 
L 580.162914 34.9875 
" style="fill: none; stroke: #a80000; stroke-width: 3; stroke-linecap: square"/>
    </g>
    <g id="text_16">
     <!-- 16, t=1.0,cesaro -->
     <g transform="translate(588.162914 38.4875) scale(0.1 -0.1)">
      <defs>
       <path id="Georgia-2c" d="M 1341 109 
Q 1341 -116 1239 -316 
Q 1138 -516 1006 -659 
Q 872 -809 722 -925 
Q 572 -1041 447 -1106 
L 303 -897 
Q 453 -803 572 -709 
Q 691 -616 766 -522 
Q 859 -413 925 -284 
Q 991 -156 1009 6 
L 850 6 
Q 641 6 523 115 
Q 406 225 406 409 
Q 406 541 512 664 
Q 619 788 803 788 
Q 1072 788 1206 608 
Q 1341 428 1341 109 
z
" transform="scale(0.015625)"/>
       <path id="Georgia-20" transform="scale(0.015625)"/>
       <path id="Georgia-3d" d="M 3634 2134 
L 481 2134 
L 481 2525 
L 3634 2525 
L 3634 2134 
z
M 3634 972 
L 481 972 
L 481 1363 
L 3634 1363 
L 3634 972 
z
" transform="scale(0.015625)"/>
       <path id="Georgia-2e" d="M 1297 359 
Q 1297 184 1170 60 
Q 1044 -63 869 -63 
Q 694 -63 567 60 
Q 441 184 441 359 
Q 441 534 567 661 
Q 694 788 869 788 
Q 1044 788 1170 661 
Q 1297 534 1297 359 
z
" transform="scale(0.015625)"/>
       <path id="Georgia-63" d="M 1650 -81 
Q 981 -81 603 362 
Q 225 806 225 1553 
Q 225 1878 326 2161 
Q 428 2444 622 2675 
Q 806 2897 1084 3033 
Q 1363 3169 1691 3169 
Q 2144 3169 2428 2951 
Q 2713 2734 2713 2359 
Q 2713 2203 2638 2083 
Q 2563 1963 2391 1963 
Q 2206 1963 2104 2056 
Q 2003 2150 2003 2266 
Q 2003 2406 2040 2554 
Q 2078 2703 2084 2772 
Q 2028 2869 1917 2901 
Q 1806 2934 1678 2934 
Q 1528 2934 1392 2870 
Q 1256 2806 1128 2634 
Q 1013 2478 941 2212 
Q 869 1947 869 1578 
Q 869 997 1126 630 
Q 1384 263 1803 263 
Q 2106 263 2311 409 
Q 2516 556 2691 850 
L 2891 719 
Q 2684 350 2346 134 
Q 2009 -81 1650 -81 
z
" transform="scale(0.015625)"/>
       <path id="Georgia-65" d="M 2963 725 
Q 2769 356 2444 137 
Q 2119 -81 1697 -81 
Q 1325 -81 1045 50 
Q 766 181 584 406 
Q 403 631 314 931 
Q 225 1231 225 1566 
Q 225 1866 320 2155 
Q 416 2444 600 2675 
Q 778 2897 1042 3033 
Q 1306 3169 1634 3169 
Q 1972 3169 2212 3062 
Q 2453 2956 2603 2772 
Q 2747 2597 2817 2359 
Q 2888 2122 2888 1844 
L 2888 1638 
L 847 1638 
Q 847 1334 905 1087 
Q 963 841 1088 653 
Q 1209 472 1406 367 
Q 1603 263 1875 263 
Q 2153 263 2354 392 
Q 2556 522 2744 859 
L 2963 725 
z
M 2272 1900 
Q 2272 2075 2242 2275 
Q 2213 2475 2147 2609 
Q 2075 2753 1950 2843 
Q 1825 2934 1628 2934 
Q 1300 2934 1083 2661 
Q 866 2388 847 1900 
L 2272 1900 
z
" transform="scale(0.015625)"/>
       <path id="Georgia-73" d="M 2259 1509 
Q 2388 1397 2456 1250 
Q 2525 1103 2525 891 
Q 2525 463 2204 191 
Q 1884 -81 1375 -81 
Q 1106 -81 879 16 
Q 653 113 556 194 
L 494 -9 
L 259 -9 
L 228 1063 
L 444 1063 
Q 469 941 550 778 
Q 631 616 747 484 
Q 869 347 1039 253 
Q 1209 159 1422 159 
Q 1722 159 1884 295 
Q 2047 431 2047 684 
Q 2047 816 1995 911 
Q 1944 1006 1844 1078 
Q 1741 1150 1591 1208 
Q 1441 1266 1256 1322 
Q 1109 1366 929 1442 
Q 750 1519 622 1622 
Q 484 1731 396 1890 
Q 309 2050 309 2266 
Q 309 2644 590 2906 
Q 872 3169 1344 3169 
Q 1525 3169 1714 3122 
Q 1903 3075 2022 3009 
L 2094 3172 
L 2319 3172 
L 2366 2181 
L 2150 2181 
Q 2084 2513 1867 2720 
Q 1650 2928 1338 2928 
Q 1081 2928 934 2800 
Q 788 2672 788 2491 
Q 788 2350 836 2256 
Q 884 2163 981 2097 
Q 1075 2034 1217 1979 
Q 1359 1925 1569 1856 
Q 1775 1791 1958 1703 
Q 2141 1616 2259 1509 
z
" transform="scale(0.015625)"/>
       <path id="Georgia-61" d="M 3144 56 
Q 2997 3 2886 -30 
Q 2775 -63 2634 -63 
Q 2391 -63 2245 51 
Q 2100 166 2059 384 
L 2041 384 
Q 1838 159 1605 40 
Q 1372 -78 1044 -78 
Q 697 -78 473 134 
Q 250 347 250 691 
Q 250 869 300 1009 
Q 350 1150 450 1263 
Q 528 1356 656 1429 
Q 784 1503 897 1547 
Q 1038 1600 1467 1744 
Q 1897 1888 2047 1969 
L 2047 2278 
Q 2047 2319 2030 2434 
Q 2013 2550 1956 2653 
Q 1894 2769 1780 2855 
Q 1666 2941 1456 2941 
Q 1313 2941 1189 2892 
Q 1066 2844 1016 2791 
Q 1016 2728 1045 2606 
Q 1075 2484 1075 2381 
Q 1075 2272 976 2181 
Q 878 2091 703 2091 
Q 547 2091 473 2202 
Q 400 2313 400 2450 
Q 400 2594 501 2725 
Q 603 2856 766 2959 
Q 906 3047 1106 3108 
Q 1306 3169 1497 3169 
Q 1759 3169 1954 3133 
Q 2150 3097 2309 2978 
Q 2469 2863 2551 2664 
Q 2634 2466 2634 2153 
Q 2634 1706 2625 1361 
Q 2616 1016 2616 606 
Q 2616 484 2658 412 
Q 2700 341 2788 291 
Q 2834 263 2936 259 
Q 3038 256 3144 256 
L 3144 56 
z
M 2053 1706 
Q 1788 1628 1588 1553 
Q 1388 1478 1216 1366 
Q 1059 1259 968 1114 
Q 878 969 878 769 
Q 878 509 1014 387 
Q 1150 266 1359 266 
Q 1581 266 1750 373 
Q 1919 481 2034 628 
L 2053 1706 
z
" transform="scale(0.015625)"/>
       <path id="Georgia-72" d="M 2584 2684 
Q 2584 2525 2506 2401 
Q 2428 2278 2266 2278 
Q 2091 2278 1998 2368 
Q 1906 2459 1906 2569 
Q 1906 2638 1917 2694 
Q 1928 2750 1938 2806 
Q 1791 2806 1594 2687 
Q 1397 2569 1259 2350 
L 1259 556 
Q 1259 447 1301 378 
Q 1344 309 1434 275 
Q 1513 244 1636 228 
Q 1759 213 1850 206 
L 1850 0 
L 225 0 
L 225 206 
Q 297 213 373 219 
Q 450 225 506 244 
Q 594 272 636 342 
Q 678 413 678 525 
L 678 2428 
Q 678 2525 633 2619 
Q 588 2713 506 2769 
Q 447 2806 365 2823 
Q 284 2841 191 2847 
L 191 3050 
L 1216 3119 
L 1259 3075 
L 1259 2641 
L 1275 2641 
Q 1469 2894 1706 3025 
Q 1944 3156 2141 3156 
Q 2338 3156 2461 3028 
Q 2584 2900 2584 2684 
z
" transform="scale(0.015625)"/>
       <path id="Georgia-6f" d="M 3228 1572 
Q 3228 1247 3125 933 
Q 3022 619 2831 400 
Q 2616 150 2331 28 
Q 2047 -94 1694 -94 
Q 1400 -94 1134 17 
Q 869 128 663 341 
Q 459 550 339 851 
Q 219 1153 219 1528 
Q 219 2250 639 2709 
Q 1059 3169 1741 3169 
Q 2388 3169 2808 2733 
Q 3228 2297 3228 1572 
z
M 2581 1566 
Q 2581 1800 2534 2061 
Q 2488 2322 2394 2503 
Q 2294 2697 2131 2814 
Q 1969 2931 1734 2931 
Q 1494 2931 1323 2812 
Q 1153 2694 1047 2488 
Q 947 2297 906 2053 
Q 866 1809 866 1581 
Q 866 1281 914 1026 
Q 963 772 1069 572 
Q 1175 372 1336 258 
Q 1497 144 1734 144 
Q 2125 144 2353 522 
Q 2581 900 2581 1566 
z
" transform="scale(0.015625)"/>
      </defs>
      <use xlink:href="#Georgia-31"/>
      <use xlink:href="#Georgia-36" x="42.96875"/>
      <use xlink:href="#Georgia-2c" x="99.560547"/>
      <use xlink:href="#Georgia-20" x="126.513672"/>
      <use xlink:href="#Georgia-74" x="150.634766"/>
      <use xlink:href="#Georgia-3d" x="185.15625"/>
      <use xlink:href="#Georgia-31" x="249.462891"/>
      <use xlink:href="#Georgia-2e" x="292.431641"/>
      <use xlink:href="#Georgia-30" x="319.384766"/>
      <use xlink:href="#Georgia-2c" x="380.761719"/>
      <use xlink:href="#Georgia-63" x="407.714844"/>
      <use xlink:href="#Georgia-65" x="453.125"/>
      <use xlink:href="#Georgia-73" x="501.464844"/>
      <use xlink:href="#Georgia-61" x="544.677734"/>
      <use xlink:href="#Georgia-72" x="595.068359"/>
      <use xlink:href="#Georgia-6f" x="636.035156"/>
     </g>
    </g>
    <g id="line2d_34">
     <path d="M 560.162914 49.715625 
L 570.162914 49.715625 
L 580.162914 49.715625 
" style="fill: none; stroke: #1f77b4; stroke-width: 3; stroke-linecap: square"/>
    </g>
    <g id="text_17">
     <!-- 16, t=1.0,cesaro,ggb -->
     <g transform="translate(588.162914 53.215625) scale(0.1 -0.1)">
      <defs>
       <path id="Georgia-67" d="M 2866 319 
Q 2991 200 3062 50 
Q 3134 -100 3134 -322 
Q 3134 -544 3037 -739 
Q 2941 -934 2744 -1078 
Q 2534 -1225 2243 -1306 
Q 1953 -1388 1525 -1388 
Q 825 -1388 478 -1183 
Q 131 -978 131 -584 
Q 131 -266 381 -81 
Q 631 103 1019 119 
L 1019 163 
Q 925 191 825 233 
Q 725 275 653 331 
Q 572 397 522 486 
Q 472 575 472 706 
Q 472 872 589 1011 
Q 706 1150 944 1250 
L 944 1297 
Q 644 1438 478 1658 
Q 313 1878 313 2169 
Q 313 2606 639 2887 
Q 966 3169 1475 3169 
Q 1616 3169 1755 3141 
Q 1894 3113 2038 3069 
L 3113 3069 
L 3113 2769 
L 2388 2769 
L 2388 2750 
Q 2503 2616 2559 2453 
Q 2616 2291 2616 2134 
Q 2616 1728 2286 1447 
Q 1956 1166 1519 1166 
L 1141 1166 
Q 1069 1141 991 1075 
Q 913 1009 913 897 
Q 913 781 978 720 
Q 1044 659 1138 638 
Q 1228 613 1348 606 
Q 1469 600 1597 597 
Q 1734 594 1973 578 
Q 2213 563 2313 559 
Q 2456 553 2601 490 
Q 2747 428 2866 319 
z
M 2022 2147 
Q 2022 2513 1873 2730 
Q 1725 2947 1456 2947 
Q 1309 2947 1204 2886 
Q 1100 2825 1034 2713 
Q 972 2609 945 2464 
Q 919 2319 919 2166 
Q 919 1819 1070 1600 
Q 1222 1381 1463 1381 
Q 1731 1381 1876 1598 
Q 2022 1816 2022 2147 
z
M 2622 -438 
Q 2622 -263 2540 -150 
Q 2459 -38 2294 3 
Q 2206 16 1934 31 
Q 1663 47 1303 47 
Q 966 -19 823 -173 
Q 681 -328 681 -572 
Q 681 -681 728 -781 
Q 775 -881 891 -966 
Q 1000 -1047 1184 -1098 
Q 1369 -1150 1634 -1150 
Q 2094 -1150 2358 -973 
Q 2622 -797 2622 -438 
z
" transform="scale(0.015625)"/>
       <path id="Georgia-62" d="M 3353 1544 
Q 3353 850 2915 378 
Q 2478 -94 1900 -94 
Q 1647 -94 1401 -15 
Q 1156 63 941 194 
L 709 -166 
L 516 -122 
Q 531 109 537 434 
Q 544 759 544 1063 
L 544 4113 
Q 544 4219 495 4325 
Q 447 4431 372 4478 
Q 313 4519 173 4539 
Q 34 4559 -50 4566 
L -50 4766 
L 1081 4838 
L 1125 4791 
L 1125 2759 
L 1147 2753 
Q 1341 2959 1570 3062 
Q 1800 3166 2022 3166 
Q 2591 3166 2972 2716 
Q 3353 2266 3353 1544 
z
M 2700 1522 
Q 2700 1753 2650 1993 
Q 2600 2234 2494 2413 
Q 2388 2594 2216 2706 
Q 2044 2819 1803 2819 
Q 1584 2819 1420 2733 
Q 1256 2647 1125 2500 
L 1125 706 
Q 1144 631 1198 531 
Q 1253 431 1347 341 
Q 1441 253 1559 198 
Q 1678 144 1850 144 
Q 2231 144 2465 512 
Q 2700 881 2700 1522 
z
" transform="scale(0.015625)"/>
      </defs>
      <use xlink:href="#Georgia-31"/>
      <use xlink:href="#Georgia-36" x="42.96875"/>
      <use xlink:href="#Georgia-2c" x="99.560547"/>
      <use xlink:href="#Georgia-20" x="126.513672"/>
      <use xlink:href="#Georgia-74" x="150.634766"/>
      <use xlink:href="#Georgia-3d" x="185.15625"/>
      <use xlink:href="#Georgia-31" x="249.462891"/>
      <use xlink:href="#Georgia-2e" x="292.431641"/>
      <use xlink:href="#Georgia-30" x="319.384766"/>
      <use xlink:href="#Georgia-2c" x="380.761719"/>
      <use xlink:href="#Georgia-63" x="407.714844"/>
      <use xlink:href="#Georgia-65" x="453.125"/>
      <use xlink:href="#Georgia-73" x="501.464844"/>
      <use xlink:href="#Georgia-61" x="544.677734"/>
      <use xlink:href="#Georgia-72" x="595.068359"/>
      <use xlink:href="#Georgia-6f" x="636.035156"/>
      <use xlink:href="#Georgia-2c" x="689.941406"/>
      <use xlink:href="#Georgia-67" x="716.894531"/>
      <use xlink:href="#Georgia-67" x="767.822266"/>
      <use xlink:href="#Georgia-62" x="818.75"/>
     </g>
    </g>
   </g>
  </g>
  <g id="axes_2">
   <g id="patch_8">
    <path d="M 733.083334 539.12 
L 993.5675 539.12 
L 993.5675 7.2 
L 733.083334 7.2 
L 733.083334 539.12 
z
" style="fill: none"/>
   </g>
   <g id="matplotlib.axis_3">
    <g id="xtick_8">
     <g id="line2d_35">
      <g>
       <use xlink:href="#mf7b9d8ef12" x="744.923524" y="539.12" style="stroke: #000000; stroke-width: 0.8"/>
      </g>
     </g>
     <g id="text_18">
      <!-- 0 -->
      <g transform="translate(740.013524 558.215) scale(0.16 -0.16)">
       <use xlink:href="#Georgia-30"/>
      </g>
     </g>
    </g>
    <g id="xtick_9">
     <g id="line2d_36">
      <g>
       <use xlink:href="#mf7b9d8ef12" x="820.30051" y="539.12" style="stroke: #000000; stroke-width: 0.8"/>
      </g>
     </g>
     <g id="text_19">
      <!-- 2 -->
      <g transform="translate(815.83176 558.215) scale(0.16 -0.16)">
       <use xlink:href="#Georgia-32"/>
      </g>
     </g>
    </g>
    <g id="xtick_10">
     <g id="line2d_37">
      <g>
       <use xlink:href="#mf7b9d8ef12" x="895.677497" y="539.12" style="stroke: #000000; stroke-width: 0.8"/>
      </g>
     </g>
     <g id="text_20">
      <!-- 4 -->
      <g transform="translate(891.157497 558.215) scale(0.16 -0.16)">
       <use xlink:href="#Georgia-34"/>
      </g>
     </g>
    </g>
    <g id="xtick_11">
     <g id="line2d_38">
      <g>
       <use xlink:href="#mf7b9d8ef12" x="971.054483" y="539.12" style="stroke: #000000; stroke-width: 0.8"/>
      </g>
     </g>
     <g id="text_21">
      <!-- 6 -->
      <g transform="translate(966.526983 558.215) scale(0.16 -0.16)">
       <use xlink:href="#Georgia-36"/>
      </g>
     </g>
    </g>
   </g>
   <g id="matplotlib.axis_4">
    <g id="ytick_8">
     <g id="line2d_39">
      <g>
       <use xlink:href="#me344d5913d" x="733.083334" y="464.788566" style="stroke: #000000; stroke-width: 0.8"/>
      </g>
     </g>
     <g id="text_22">
      <!-- $\mathdefault{10^{-5}}$ -->
      <g transform="translate(695.683334 470.836066) scale(0.16 -0.16)">
       <use xlink:href="#Georgia-31" transform="translate(0 0.628125)"/>
       <use xlink:href="#Georgia-30" transform="translate(42.96875 0.628125)"/>
       <use xlink:href="#Georgia-2212" transform="translate(105.188164 34.326563) scale(0.7)"/>
       <use xlink:href="#Georgia-35" transform="translate(150.202812 34.326563) scale(0.7)"/>
      </g>
     </g>
    </g>
    <g id="ytick_9">
     <g id="line2d_40">
      <g>
       <use xlink:href="#me344d5913d" x="733.083334" y="385.896087" style="stroke: #000000; stroke-width: 0.8"/>
      </g>
     </g>
     <g id="text_23">
      <!-- $\mathdefault{10^{-4}}$ -->
      <g transform="translate(695.203334 391.943587) scale(0.16 -0.16)">
       <use xlink:href="#Georgia-31" transform="translate(0 0.742188)"/>
       <use xlink:href="#Georgia-30" transform="translate(42.96875 0.742188)"/>
       <use xlink:href="#Georgia-2212" transform="translate(105.188164 34.440625) scale(0.7)"/>
       <use xlink:href="#Georgia-34" transform="translate(150.202812 34.440625) scale(0.7)"/>
      </g>
     </g>
    </g>
    <g id="ytick_10">
     <g id="line2d_41">
      <g>
       <use xlink:href="#me344d5913d" x="733.083334" y="307.003607" style="stroke: #000000; stroke-width: 0.8"/>
      </g>
     </g>
     <g id="text_24">
      <!-- $\mathdefault{10^{-3}}$ -->
      <g transform="translate(695.363334 313.051107) scale(0.16 -0.16)">
       <use xlink:href="#Georgia-31" transform="translate(0 0.534375)"/>
       <use xlink:href="#Georgia-30" transform="translate(42.96875 0.534375)"/>
       <use xlink:href="#Georgia-2212" transform="translate(105.188164 34.232813) scale(0.7)"/>
       <use xlink:href="#Georgia-33" transform="translate(150.202812 34.232813) scale(0.7)"/>
      </g>
     </g>
    </g>
    <g id="ytick_11">
     <g id="line2d_42">
      <g>
       <use xlink:href="#me344d5913d" x="733.083334" y="228.111128" style="stroke: #000000; stroke-width: 0.8"/>
      </g>
     </g>
     <g id="text_25">
      <!-- $\mathdefault{10^{-2}}$ -->
      <g transform="translate(695.363334 234.158628) scale(0.16 -0.16)">
       <use xlink:href="#Georgia-31" transform="translate(0 0.534375)"/>
       <use xlink:href="#Georgia-30" transform="translate(42.96875 0.534375)"/>
       <use xlink:href="#Georgia-2212" transform="translate(105.188164 34.232813) scale(0.7)"/>
       <use xlink:href="#Georgia-32" transform="translate(150.202812 34.232813) scale(0.7)"/>
      </g>
     </g>
    </g>
    <g id="ytick_12">
     <g id="line2d_43">
      <g>
       <use xlink:href="#me344d5913d" x="733.083334" y="149.218648" style="stroke: #000000; stroke-width: 0.8"/>
      </g>
     </g>
     <g id="text_26">
      <!-- $\mathdefault{10^{-1}}$ -->
      <g transform="translate(696.803334 155.266148) scale(0.16 -0.16)">
       <use xlink:href="#Georgia-31" transform="translate(0 0.534375)"/>
       <use xlink:href="#Georgia-30" transform="translate(42.96875 0.534375)"/>
       <use xlink:href="#Georgia-2212" transform="translate(105.188164 34.232813) scale(0.7)"/>
       <use xlink:href="#Georgia-31" transform="translate(150.202812 34.232813) scale(0.7)"/>
      </g>
     </g>
    </g>
    <g id="ytick_13">
     <g id="line2d_44">
      <g>
       <use xlink:href="#me344d5913d" x="733.083334" y="70.326169" style="stroke: #000000; stroke-width: 0.8"/>
      </g>
     </g>
     <g id="text_27">
      <!-- $\mathdefault{10^{0}}$ -->
      <g transform="translate(701.923334 76.373669) scale(0.16 -0.16)">
       <use xlink:href="#Georgia-31" transform="translate(0 0.534375)"/>
       <use xlink:href="#Georgia-30" transform="translate(42.96875 0.534375)"/>
       <use xlink:href="#Georgia-30" transform="translate(105.188164 34.232813) scale(0.7)"/>
      </g>
     </g>
    </g>
    <g id="ytick_14">
     <g id="line2d_45">
      <defs>
       <path id="me5aaa320f7" d="M 0 0 
L -2 0 
" style="stroke: #000000; stroke-width: 0.6"/>
      </defs>
      <g>
       <use xlink:href="#me5aaa320f7" x="733.083334" y="519.932043" style="stroke: #000000; stroke-width: 0.6"/>
      </g>
     </g>
    </g>
    <g id="ytick_15">
     <g id="line2d_46">
      <g>
       <use xlink:href="#me5aaa320f7" x="733.083334" y="506.039767" style="stroke: #000000; stroke-width: 0.6"/>
      </g>
     </g>
    </g>
    <g id="ytick_16">
     <g id="line2d_47">
      <g>
       <use xlink:href="#me5aaa320f7" x="733.083334" y="496.18304" style="stroke: #000000; stroke-width: 0.6"/>
      </g>
     </g>
    </g>
    <g id="ytick_17">
     <g id="line2d_48">
      <g>
       <use xlink:href="#me5aaa320f7" x="733.083334" y="488.537569" style="stroke: #000000; stroke-width: 0.6"/>
      </g>
     </g>
    </g>
    <g id="ytick_18">
     <g id="line2d_49">
      <g>
       <use xlink:href="#me5aaa320f7" x="733.083334" y="482.290764" style="stroke: #000000; stroke-width: 0.6"/>
      </g>
     </g>
    </g>
    <g id="ytick_19">
     <g id="line2d_50">
      <g>
       <use xlink:href="#me5aaa320f7" x="733.083334" y="477.009166" style="stroke: #000000; stroke-width: 0.6"/>
      </g>
     </g>
    </g>
    <g id="ytick_20">
     <g id="line2d_51">
      <g>
       <use xlink:href="#me5aaa320f7" x="733.083334" y="472.434037" style="stroke: #000000; stroke-width: 0.6"/>
      </g>
     </g>
    </g>
    <g id="ytick_21">
     <g id="line2d_52">
      <g>
       <use xlink:href="#me5aaa320f7" x="733.083334" y="468.398488" style="stroke: #000000; stroke-width: 0.6"/>
      </g>
     </g>
    </g>
    <g id="ytick_22">
     <g id="line2d_53">
      <g>
       <use xlink:href="#me5aaa320f7" x="733.083334" y="441.039563" style="stroke: #000000; stroke-width: 0.6"/>
      </g>
     </g>
    </g>
    <g id="ytick_23">
     <g id="line2d_54">
      <g>
       <use xlink:href="#me5aaa320f7" x="733.083334" y="427.147287" style="stroke: #000000; stroke-width: 0.6"/>
      </g>
     </g>
    </g>
    <g id="ytick_24">
     <g id="line2d_55">
      <g>
       <use xlink:href="#me5aaa320f7" x="733.083334" y="417.290561" style="stroke: #000000; stroke-width: 0.6"/>
      </g>
     </g>
    </g>
    <g id="ytick_25">
     <g id="line2d_56">
      <g>
       <use xlink:href="#me5aaa320f7" x="733.083334" y="409.645089" style="stroke: #000000; stroke-width: 0.6"/>
      </g>
     </g>
    </g>
    <g id="ytick_26">
     <g id="line2d_57">
      <g>
       <use xlink:href="#me5aaa320f7" x="733.083334" y="403.398285" style="stroke: #000000; stroke-width: 0.6"/>
      </g>
     </g>
    </g>
    <g id="ytick_27">
     <g id="line2d_58">
      <g>
       <use xlink:href="#me5aaa320f7" x="733.083334" y="398.116686" style="stroke: #000000; stroke-width: 0.6"/>
      </g>
     </g>
    </g>
    <g id="ytick_28">
     <g id="line2d_59">
      <g>
       <use xlink:href="#me5aaa320f7" x="733.083334" y="393.541558" style="stroke: #000000; stroke-width: 0.6"/>
      </g>
     </g>
    </g>
    <g id="ytick_29">
     <g id="line2d_60">
      <g>
       <use xlink:href="#me5aaa320f7" x="733.083334" y="389.506009" style="stroke: #000000; stroke-width: 0.6"/>
      </g>
     </g>
    </g>
    <g id="ytick_30">
     <g id="line2d_61">
      <g>
       <use xlink:href="#me5aaa320f7" x="733.083334" y="362.147084" style="stroke: #000000; stroke-width: 0.6"/>
      </g>
     </g>
    </g>
    <g id="ytick_31">
     <g id="line2d_62">
      <g>
       <use xlink:href="#me5aaa320f7" x="733.083334" y="348.254808" style="stroke: #000000; stroke-width: 0.6"/>
      </g>
     </g>
    </g>
    <g id="ytick_32">
     <g id="line2d_63">
      <g>
       <use xlink:href="#me5aaa320f7" x="733.083334" y="338.398081" style="stroke: #000000; stroke-width: 0.6"/>
      </g>
     </g>
    </g>
    <g id="ytick_33">
     <g id="line2d_64">
      <g>
       <use xlink:href="#me5aaa320f7" x="733.083334" y="330.75261" style="stroke: #000000; stroke-width: 0.6"/>
      </g>
     </g>
    </g>
    <g id="ytick_34">
     <g id="line2d_65">
      <g>
       <use xlink:href="#me5aaa320f7" x="733.083334" y="324.505805" style="stroke: #000000; stroke-width: 0.6"/>
      </g>
     </g>
    </g>
    <g id="ytick_35">
     <g id="line2d_66">
      <g>
       <use xlink:href="#me5aaa320f7" x="733.083334" y="319.224207" style="stroke: #000000; stroke-width: 0.6"/>
      </g>
     </g>
    </g>
    <g id="ytick_36">
     <g id="line2d_67">
      <g>
       <use xlink:href="#me5aaa320f7" x="733.083334" y="314.649078" style="stroke: #000000; stroke-width: 0.6"/>
      </g>
     </g>
    </g>
    <g id="ytick_37">
     <g id="line2d_68">
      <g>
       <use xlink:href="#me5aaa320f7" x="733.083334" y="310.613529" style="stroke: #000000; stroke-width: 0.6"/>
      </g>
     </g>
    </g>
    <g id="ytick_38">
     <g id="line2d_69">
      <g>
       <use xlink:href="#me5aaa320f7" x="733.083334" y="283.254605" style="stroke: #000000; stroke-width: 0.6"/>
      </g>
     </g>
    </g>
    <g id="ytick_39">
     <g id="line2d_70">
      <g>
       <use xlink:href="#me5aaa320f7" x="733.083334" y="269.362328" style="stroke: #000000; stroke-width: 0.6"/>
      </g>
     </g>
    </g>
    <g id="ytick_40">
     <g id="line2d_71">
      <g>
       <use xlink:href="#me5aaa320f7" x="733.083334" y="259.505602" style="stroke: #000000; stroke-width: 0.6"/>
      </g>
     </g>
    </g>
    <g id="ytick_41">
     <g id="line2d_72">
      <g>
       <use xlink:href="#me5aaa320f7" x="733.083334" y="251.860131" style="stroke: #000000; stroke-width: 0.6"/>
      </g>
     </g>
    </g>
    <g id="ytick_42">
     <g id="line2d_73">
      <g>
       <use xlink:href="#me5aaa320f7" x="733.083334" y="245.613326" style="stroke: #000000; stroke-width: 0.6"/>
      </g>
     </g>
    </g>
    <g id="ytick_43">
     <g id="line2d_74">
      <g>
       <use xlink:href="#me5aaa320f7" x="733.083334" y="240.331728" style="stroke: #000000; stroke-width: 0.6"/>
      </g>
     </g>
    </g>
    <g id="ytick_44">
     <g id="line2d_75">
      <g>
       <use xlink:href="#me5aaa320f7" x="733.083334" y="235.756599" style="stroke: #000000; stroke-width: 0.6"/>
      </g>
     </g>
    </g>
    <g id="ytick_45">
     <g id="line2d_76">
      <g>
       <use xlink:href="#me5aaa320f7" x="733.083334" y="231.72105" style="stroke: #000000; stroke-width: 0.6"/>
      </g>
     </g>
    </g>
    <g id="ytick_46">
     <g id="line2d_77">
      <g>
       <use xlink:href="#me5aaa320f7" x="733.083334" y="204.362125" style="stroke: #000000; stroke-width: 0.6"/>
      </g>
     </g>
    </g>
    <g id="ytick_47">
     <g id="line2d_78">
      <g>
       <use xlink:href="#me5aaa320f7" x="733.083334" y="190.469849" style="stroke: #000000; stroke-width: 0.6"/>
      </g>
     </g>
    </g>
    <g id="ytick_48">
     <g id="line2d_79">
      <g>
       <use xlink:href="#me5aaa320f7" x="733.083334" y="180.613122" style="stroke: #000000; stroke-width: 0.6"/>
      </g>
     </g>
    </g>
    <g id="ytick_49">
     <g id="line2d_80">
      <g>
       <use xlink:href="#me5aaa320f7" x="733.083334" y="172.967651" style="stroke: #000000; stroke-width: 0.6"/>
      </g>
     </g>
    </g>
    <g id="ytick_50">
     <g id="line2d_81">
      <g>
       <use xlink:href="#me5aaa320f7" x="733.083334" y="166.720846" style="stroke: #000000; stroke-width: 0.6"/>
      </g>
     </g>
    </g>
    <g id="ytick_51">
     <g id="line2d_82">
      <g>
       <use xlink:href="#me5aaa320f7" x="733.083334" y="161.439248" style="stroke: #000000; stroke-width: 0.6"/>
      </g>
     </g>
    </g>
    <g id="ytick_52">
     <g id="line2d_83">
      <g>
       <use xlink:href="#me5aaa320f7" x="733.083334" y="156.86412" style="stroke: #000000; stroke-width: 0.6"/>
      </g>
     </g>
    </g>
    <g id="ytick_53">
     <g id="line2d_84">
      <g>
       <use xlink:href="#me5aaa320f7" x="733.083334" y="152.82857" style="stroke: #000000; stroke-width: 0.6"/>
      </g>
     </g>
    </g>
    <g id="ytick_54">
     <g id="line2d_85">
      <g>
       <use xlink:href="#me5aaa320f7" x="733.083334" y="125.469646" style="stroke: #000000; stroke-width: 0.6"/>
      </g>
     </g>
    </g>
    <g id="ytick_55">
     <g id="line2d_86">
      <g>
       <use xlink:href="#me5aaa320f7" x="733.083334" y="111.57737" style="stroke: #000000; stroke-width: 0.6"/>
      </g>
     </g>
    </g>
    <g id="ytick_56">
     <g id="line2d_87">
      <g>
       <use xlink:href="#me5aaa320f7" x="733.083334" y="101.720643" style="stroke: #000000; stroke-width: 0.6"/>
      </g>
     </g>
    </g>
    <g id="ytick_57">
     <g id="line2d_88">
      <g>
       <use xlink:href="#me5aaa320f7" x="733.083334" y="94.075172" style="stroke: #000000; stroke-width: 0.6"/>
      </g>
     </g>
    </g>
    <g id="ytick_58">
     <g id="line2d_89">
      <g>
       <use xlink:href="#me5aaa320f7" x="733.083334" y="87.828367" style="stroke: #000000; stroke-width: 0.6"/>
      </g>
     </g>
    </g>
    <g id="ytick_59">
     <g id="line2d_90">
      <g>
       <use xlink:href="#me5aaa320f7" x="733.083334" y="82.546769" style="stroke: #000000; stroke-width: 0.6"/>
      </g>
     </g>
    </g>
    <g id="ytick_60">
     <g id="line2d_91">
      <g>
       <use xlink:href="#me5aaa320f7" x="733.083334" y="77.97164" style="stroke: #000000; stroke-width: 0.6"/>
      </g>
     </g>
    </g>
    <g id="ytick_61">
     <g id="line2d_92">
      <g>
       <use xlink:href="#me5aaa320f7" x="733.083334" y="73.936091" style="stroke: #000000; stroke-width: 0.6"/>
      </g>
     </g>
    </g>
    <g id="ytick_62">
     <g id="line2d_93">
      <g>
       <use xlink:href="#me5aaa320f7" x="733.083334" y="46.577166" style="stroke: #000000; stroke-width: 0.6"/>
      </g>
     </g>
    </g>
    <g id="ytick_63">
     <g id="line2d_94">
      <g>
       <use xlink:href="#me5aaa320f7" x="733.083334" y="32.68489" style="stroke: #000000; stroke-width: 0.6"/>
      </g>
     </g>
    </g>
    <g id="ytick_64">
     <g id="line2d_95">
      <g>
       <use xlink:href="#me5aaa320f7" x="733.083334" y="22.828163" style="stroke: #000000; stroke-width: 0.6"/>
      </g>
     </g>
    </g>
    <g id="ytick_65">
     <g id="line2d_96">
      <g>
       <use xlink:href="#me5aaa320f7" x="733.083334" y="15.182692" style="stroke: #000000; stroke-width: 0.6"/>
      </g>
     </g>
    </g>
    <g id="ytick_66">
     <g id="line2d_97">
      <g>
       <use xlink:href="#me5aaa320f7" x="733.083334" y="8.935887" style="stroke: #000000; stroke-width: 0.6"/>
      </g>
     </g>
    </g>
   </g>
   <g id="line2d_98">
    <path d="M 744.923524 334.535082 
L 745.160565 358.146243 
L 745.397605 514.941818 
L 745.634646 359.176944 
L 746.108728 321.933115 
L 746.58281 305.357415 
L 747.056891 295.143382 
L 747.530973 288.251617 
L 748.005055 283.544435 
L 748.479136 280.507409 
L 748.953218 278.910836 
L 749.190259 278.629842 
L 749.4273 278.700195 
L 749.66434 279.138972 
L 749.901381 279.974963 
L 750.375463 283.034083 
L 750.849545 288.53723 
L 751.323626 298.019697 
L 751.797708 316.153044 
L 752.034749 334.153757 
L 752.271789 382.953665 
L 752.982912 303.458437 
L 753.456994 281.968418 
L 754.168116 261.647647 
L 754.879239 247.337842 
L 755.827402 232.92102 
L 756.775565 221.665977 
L 757.960769 210.447398 
L 759.145973 201.451472 
L 760.331178 194.115095 
L 761.516382 188.098981 
L 762.701586 183.180573 
L 763.88679 179.204281 
L 765.071994 176.05528 
L 766.020157 174.071087 
L 766.968321 172.520614 
L 767.916484 171.369511 
L 768.864647 170.585323 
L 769.812811 170.135676 
L 770.760974 169.986526 
L 771.709137 170.100418 
L 772.657301 170.434748 
L 773.842505 171.086663 
L 777.872199 173.594342 
L 778.820362 173.809861 
L 779.531485 173.776274 
L 780.242607 173.547548 
L 780.95373 173.106413 
L 781.664852 172.444243 
L 782.613015 171.220043 
L 783.561179 169.631636 
L 784.746383 167.212536 
L 786.405669 163.259807 
L 791.383526 150.960494 
L 793.042812 147.618101 
L 794.465057 145.249002 
L 795.650261 143.653675 
L 796.835465 142.411813 
L 798.020669 141.521002 
L 798.968833 141.053202 
L 799.916996 140.79143 
L 800.865159 140.720114 
L 802.050363 140.866725 
L 803.472608 141.316079 
L 805.843017 142.390896 
L 807.502302 143.028371 
L 808.687506 143.2258 
L 809.63567 143.14216 
L 810.583833 142.790799 
L 811.531996 142.137207 
L 812.48016 141.164932 
L 813.428323 139.877732 
L 814.613527 137.863229 
L 816.035772 134.962347 
L 818.16914 130.016755 
L 821.724752 121.762974 
L 823.384038 118.451736 
L 824.806283 116.052241 
L 825.991487 114.407215 
L 827.176691 113.107719 
L 828.361895 112.165338 
L 829.310058 111.670216 
L 830.258222 111.401258 
L 831.206385 111.349507 
L 832.154548 111.499762 
L 833.339753 111.935679 
L 834.761998 112.730353 
L 837.606487 114.444798 
L 838.554651 114.738299 
L 839.265773 114.755152 
L 839.976896 114.543661 
L 840.688018 114.05833 
L 841.399141 113.260661 
L 842.110263 112.122889 
L 843.058426 110.05468 
L 844.00659 107.367313 
L 845.191794 103.223034 
L 846.614039 97.339069 
L 848.747406 87.413846 
L 853.488223 65.081311 
L 855.858631 55.127995 
L 857.991999 47.13039 
L 859.888325 40.801345 
L 861.784652 35.186498 
L 863.206897 31.424429 
L 863.443938 31.378182 
L 865.340264 36.474145 
L 867.236591 42.264601 
L 869.132918 48.782239 
L 871.266285 57.004326 
L 873.399652 66.141914 
L 876.007102 78.342455 
L 880.510877 99.678914 
L 881.933122 105.329323 
L 883.118326 109.175687 
L 884.06649 111.569904 
L 885.014653 113.316489 
L 885.725775 114.208646 
L 886.436898 114.768258 
L 887.14802 115.032005 
L 887.859143 115.045216 
L 888.570265 114.857782 
L 889.518429 114.383134 
L 891.177714 113.243636 
L 893.074041 111.984778 
L 894.259245 111.434579 
L 895.207409 111.190613 
L 896.155572 111.14928 
L 897.103735 111.327664 
L 898.051898 111.736258 
L 899.000062 112.380257 
L 899.948225 113.26043 
L 901.133429 114.687599 
L 902.318633 116.464145 
L 903.740878 119.022492 
L 905.400164 122.513066 
L 907.533532 127.562477 
L 911.089144 136.081518 
L 912.511389 138.955576 
L 913.696593 140.900528 
L 914.644756 142.103934 
L 915.59292 142.972544 
L 916.541083 143.509349 
L 917.489246 143.738481 
L 918.43741 143.702002 
L 919.622614 143.36715 
L 921.2819 142.576175 
L 923.889349 141.279352 
L 925.074553 140.904438 
L 926.259757 140.763967 
L 927.20792 140.8546 
L 928.156084 141.146851 
L 929.104247 141.654911 
L 930.05241 142.38853 
L 931.237614 143.631004 
L 932.422819 145.236868 
L 933.608023 147.198418 
L 935.030268 149.99383 
L 936.689553 153.784461 
L 939.059962 159.860462 
L 941.904452 167.114438 
L 943.326697 170.158375 
L 944.511901 172.152624 
L 945.460064 173.3175 
L 946.171187 173.923082 
L 946.882309 174.300089 
L 947.593431 174.46016 
L 948.304554 174.423718 
L 949.252717 174.117817 
L 950.437921 173.433833 
L 954.704656 170.593875 
L 955.65282 170.317992 
L 956.600983 170.287977 
L 957.312105 170.451242 
L 958.023228 170.790841 
L 958.971391 171.542582 
L 959.919555 172.665825 
L 960.867718 174.19337 
L 961.815881 176.160087 
L 962.764044 178.605038 
L 963.712208 181.574041 
L 964.897412 186.108726 
L 966.082616 191.694152 
L 967.26782 198.533874 
L 968.453024 206.935318 
L 969.401188 215.108282 
L 970.349351 225.027749 
L 971.297514 237.471203 
L 972.008637 249.38682 
L 972.719759 265.178268 
L 973.193841 279.77226 
L 973.667923 301.911946 
L 973.904963 320.2279 
L 974.142004 357.274697 
L 974.379045 364.378762 
L 974.616086 326.020175 
L 975.090167 299.251066 
L 975.564249 286.665882 
L 976.038331 279.27436 
L 976.512412 274.723869 
L 976.986494 272.063284 
L 977.460576 270.834526 
L 977.697617 270.679248 
L 977.934657 270.806725 
L 978.171698 271.207808 
L 978.64578 272.822239 
L 979.119862 275.560046 
L 979.593943 279.557949 
L 980.068025 285.09768 
L 980.542107 292.726805 
L 981.016188 303.599957 
L 981.49027 320.740917 
L 981.727311 334.535082 
L 981.727311 334.535082 
" clip-path="url(#p63c65dec8e)" style="fill: none; stroke: #a80000; stroke-width: 3; stroke-linecap: square"/>
   </g>
   <g id="line2d_99">
    <path d="M 744.923524 126.956061 
L 746.108728 133.101944 
L 747.293932 140.596587 
L 748.242095 148.054452 
L 749.190259 157.600766 
L 749.901381 167.047936 
L 750.612504 180.1355 
L 751.086585 192.855072 
L 751.560667 213.309127 
L 751.797708 231.289282 
L 752.034749 271.425786 
L 752.271789 264.426897 
L 752.50883 250.032178 
L 753.219953 240.636005 
L 754.168116 231.128802 
L 755.116279 223.69477 
L 756.301484 216.219394 
L 757.486688 210.086457 
L 758.908933 203.934832 
L 760.331178 198.721382 
L 761.990463 193.498304 
L 763.649749 188.967132 
L 765.546076 184.430511 
L 767.205362 180.93542 
L 769.57577 177.342813 
L 772.183219 173.782622 
L 775.027709 170.279136 
L 778.10924 166.848884 
L 781.427811 163.502535 
L 782.613015 162.245379 
L 785.694546 158.944093 
L 789.013118 155.712112 
L 792.56873 152.557381 
L 796.361383 149.484608 
L 796.835465 149.070463 
L 799.916996 145.548289 
L 802.998527 142.354679 
L 806.317098 139.218812 
L 809.872711 136.149775 
L 811.769037 134.500207 
L 814.613527 131.062421 
L 817.695058 127.690409 
L 821.013629 124.395607 
L 824.569242 121.185112 
L 826.702609 119.228439 
L 829.547099 115.842509 
L 832.62863 112.516614 
L 835.947202 109.262748 
L 839.502814 106.088569 
L 841.636182 104.130251 
L 844.717712 100.707271 
L 848.036284 97.36735 
L 851.591896 94.116922 
L 855.38455 90.95926 
L 855.858631 90.584254 
L 857.517917 66.702479 
L 858.46608 57.756144 
L 859.414244 50.66875 
L 860.599448 43.47638 
L 861.784652 37.535006 
L 863.206897 31.544823 
L 863.443938 31.575043 
L 864.866183 37.571002 
L 866.051387 43.519196 
L 867.236591 50.721575 
L 868.184754 57.82112 
L 869.132918 66.786865 
L 869.84404 75.490551 
L 870.792203 90.753257 
L 874.584857 93.851469 
L 878.140469 97.034825 
L 881.459041 100.299026 
L 884.540571 103.636552 
L 885.962816 105.134277 
L 889.75547 108.411198 
L 893.074041 111.5605 
L 896.155572 114.769123 
L 899.237103 118.30957 
L 900.659348 119.92969 
L 904.21496 123.022169 
L 907.533532 126.184279 
L 910.615062 129.407225 
L 913.459552 132.677928 
L 915.59292 135.124986 
L 919.385573 138.332899 
L 922.941185 141.640216 
L 926.259757 145.044608 
L 929.341288 148.540663 
L 930.289451 149.528697 
L 934.082104 152.621205 
L 937.637717 155.798138 
L 940.956288 159.055104 
L 944.037819 162.384488 
L 945.460064 163.863496 
L 948.778636 167.163579 
L 951.860166 170.54155 
L 954.704656 173.986047 
L 957.312105 177.479907 
L 959.445473 180.629808 
L 960.630677 182.915253 
L 962.527004 186.975789 
L 964.42333 191.58307 
L 966.082616 196.194981 
L 967.741902 201.525684 
L 969.164147 206.86466 
L 970.586392 213.191956 
L 971.771596 219.535601 
L 972.719759 225.620406 
L 973.667923 233.024305 
L 974.142004 237.427918 
L 974.379045 246.568072 
L 974.616086 334.032139 
L 974.853127 241.609083 
L 975.327208 205.542379 
L 975.80129 188.363969 
L 976.512412 172.443922 
L 977.223535 161.616607 
L 978.171698 151.049568 
L 979.119862 142.984871 
L 980.305066 135.007674 
L 981.49027 128.54149 
L 981.727311 127.382774 
L 981.727311 127.382774 
" clip-path="url(#p63c65dec8e)" style="fill: none; stroke: #1f77b4; stroke-width: 3; stroke-linecap: square"/>
   </g>
   <g id="patch_9">
    <path d="M 733.083334 539.12 
L 733.083334 7.2 
" style="fill: none; stroke: #000000; stroke-width: 1.5; stroke-linejoin: miter; stroke-linecap: square"/>
   </g>
   <g id="patch_10">
    <path d="M 993.5675 539.12 
L 993.5675 7.2 
" style="fill: none; stroke: #000000; stroke-width: 1.5; stroke-linejoin: miter; stroke-linecap: square"/>
   </g>
   <g id="patch_11">
    <path d="M 733.083334 539.12 
L 993.5675 539.12 
" style="fill: none; stroke: #000000; stroke-width: 1.5; stroke-linejoin: miter; stroke-linecap: square"/>
   </g>
   <g id="patch_12">
    <path d="M 733.083334 7.2 
L 993.5675 7.2 
" style="fill: none; stroke: #000000; stroke-width: 1.5; stroke-linejoin: miter; stroke-linecap: square"/>
   </g>
   <g id="legend_2">
    <g id="patch_13">
     <path d="M 867.0925 534.12 
L 986.5675 534.12 
Q 988.5675 534.12 988.5675 532.12 
L 988.5675 503.66375 
Q 988.5675 501.66375 986.5675 501.66375 
L 867.0925 501.66375 
Q 865.0925 501.66375 865.0925 503.66375 
L 865.0925 532.12 
Q 865.0925 534.12 867.0925 534.12 
z
" style="fill: #ffffff; opacity: 0.8; stroke: #cccccc; stroke-linejoin: miter"/>
    </g>
    <g id="line2d_100">
     <path d="M 869.0925 509.723125 
L 879.0925 509.723125 
L 889.0925 509.723125 
" style="fill: none; stroke: #a80000; stroke-width: 3; stroke-linecap: square"/>
    </g>
    <g id="text_28">
     <!-- 16, t=1.0,cesaro -->
     <g transform="translate(897.0925 513.223125) scale(0.1 -0.1)">
      <use xlink:href="#Georgia-31"/>
      <use xlink:href="#Georgia-36" x="42.96875"/>
      <use xlink:href="#Georgia-2c" x="99.560547"/>
      <use xlink:href="#Georgia-20" x="126.513672"/>
      <use xlink:href="#Georgia-74" x="150.634766"/>
      <use xlink:href="#Georgia-3d" x="185.15625"/>
      <use xlink:href="#Georgia-31" x="249.462891"/>
      <use xlink:href="#Georgia-2e" x="292.431641"/>
      <use xlink:href="#Georgia-30" x="319.384766"/>
      <use xlink:href="#Georgia-2c" x="380.761719"/>
      <use xlink:href="#Georgia-63" x="407.714844"/>
      <use xlink:href="#Georgia-65" x="453.125"/>
      <use xlink:href="#Georgia-73" x="501.464844"/>
      <use xlink:href="#Georgia-61" x="544.677734"/>
      <use xlink:href="#Georgia-72" x="595.068359"/>
      <use xlink:href="#Georgia-6f" x="636.035156"/>
     </g>
    </g>
    <g id="line2d_101">
     <path d="M 869.0925 524.45125 
L 879.0925 524.45125 
L 889.0925 524.45125 
" style="fill: none; stroke: #1f77b4; stroke-width: 3; stroke-linecap: square"/>
    </g>
    <g id="text_29">
     <!-- 16, t=1.0,cesaro,ggb -->
     <g transform="translate(897.0925 527.95125) scale(0.1 -0.1)">
      <use xlink:href="#Georgia-31"/>
      <use xlink:href="#Georgia-36" x="42.96875"/>
      <use xlink:href="#Georgia-2c" x="99.560547"/>
      <use xlink:href="#Georgia-20" x="126.513672"/>
      <use xlink:href="#Georgia-74" x="150.634766"/>
      <use xlink:href="#Georgia-3d" x="185.15625"/>
      <use xlink:href="#Georgia-31" x="249.462891"/>
      <use xlink:href="#Georgia-2e" x="292.431641"/>
      <use xlink:href="#Georgia-30" x="319.384766"/>
      <use xlink:href="#Georgia-2c" x="380.761719"/>
      <use xlink:href="#Georgia-63" x="407.714844"/>
      <use xlink:href="#Georgia-65" x="453.125"/>
      <use xlink:href="#Georgia-73" x="501.464844"/>
      <use xlink:href="#Georgia-61" x="544.677734"/>
      <use xlink:href="#Georgia-72" x="595.068359"/>
      <use xlink:href="#Georgia-6f" x="636.035156"/>
      <use xlink:href="#Georgia-2c" x="689.941406"/>
      <use xlink:href="#Georgia-67" x="716.894531"/>
      <use xlink:href="#Georgia-67" x="767.822266"/>
      <use xlink:href="#Georgia-62" x="818.75"/>
     </g>
    </g>
   </g>
  </g>
 </g>
 <defs>
  <clipPath id="p78265f678b">
   <rect x="33.4275" y="7.2" width="651.210414" height="531.92"/>
  </clipPath>
  <clipPath id="p63c65dec8e">
   <rect x="733.083334" y="7.2" width="260.484166" height="531.92"/>
  </clipPath>
 </defs>
</svg>
