<?xml version="1.0" encoding="utf-8" standalone="no"?>
<!DOCTYPE svg PUBLIC "-//W3C//DTD SVG 1.1//EN"
  "http://www.w3.org/Graphics/SVG/1.1/DTD/svg11.dtd">
<svg xmlns:xlink="http://www.w3.org/1999/xlink" width="1000.7675pt" height="568.885pt" viewBox="0 0 1000.7675 568.885" xmlns="http://www.w3.org/2000/svg" version="1.1">
 <metadata>
  <rdf:RDF xmlns:dc="http://purl.org/dc/elements/1.1/" xmlns:cc="http://creativecommons.org/ns#" xmlns:rdf="http://www.w3.org/1999/02/22-rdf-syntax-ns#">
   <cc:Work>
    <dc:type rdf:resource="http://purl.org/dc/dcmitype/StillImage"/>
    <dc:date>2023-11-29T01:31:29.909454</dc:date>
    <dc:format>image/svg+xml</dc:format>
    <dc:creator>
     <cc:Agent>
      <dc:title>Matplotlib v3.6.2, https://matplotlib.org/</dc:title>
     </cc:Agent>
    </dc:creator>
   </cc:Work>
  </rdf:RDF>
 </metadata>
 <defs>
  <style type="text/css">*{stroke-linejoin: round; stroke-linecap: butt}</style>
 </defs>
 <g id="figure_1">
  <g id="patch_1">
   <path d="M 0 568.885 
L 1000.7675 568.885 
L 1000.7675 0 
L 0 0 
L 0 568.885 
z
" style="fill: none"/>
  </g>
  <g id="axes_1">
   <g id="patch_2">
    <path d="M 33.4275 539.12 
L 684.637914 539.12 
L 684.637914 7.2 
L 33.4275 7.2 
L 33.4275 539.12 
z
" style="fill: none"/>
   </g>
   <g id="matplotlib.axis_1">
    <g id="xtick_1">
     <g id="line2d_1">
      <path d="M 63.027973 539.12 
L 63.027973 7.2 
" clip-path="url(#p754cc61479)" style="fill: none; stroke: #b0b0b0; stroke-width: 0.8; stroke-linecap: square"/>
     </g>
     <g id="line2d_2">
      <defs>
       <path id="m6ea4218535" d="M 0 0 
L 0 3.5 
" style="stroke: #000000; stroke-width: 0.8"/>
      </defs>
      <g>
       <use xlink:href="#m6ea4218535" x="63.027973" y="539.12" style="stroke: #000000; stroke-width: 0.8"/>
      </g>
     </g>
     <g id="text_1">
      <!-- 0 -->
      <g transform="translate(58.117973 558.215) scale(0.16 -0.16)">
       <defs>
        <path id="Georgia-30" d="M 3209 2919 
Q 3409 2678 3507 2354 
Q 3606 2031 3606 1678 
Q 3606 1253 3484 917 
Q 3363 581 3150 359 
Q 2931 131 2631 15 
Q 2331 -100 1963 -100 
Q 1559 -100 1243 34 
Q 928 169 731 403 
Q 525 647 423 973 
Q 322 1300 322 1678 
Q 322 2050 420 2362 
Q 519 2675 728 2928 
Q 928 3172 1243 3312 
Q 1559 3453 1966 3453 
Q 2394 3453 2700 3309 
Q 3006 3166 3209 2919 
z
M 2916 1678 
Q 2916 2422 2661 2831 
Q 2406 3241 1969 3241 
Q 1525 3241 1269 2831 
Q 1013 2422 1013 1678 
Q 1013 972 1258 542 
Q 1503 113 1963 113 
Q 2422 113 2669 542 
Q 2916 972 2916 1678 
z
" transform="scale(0.015625)"/>
       </defs>
       <use xlink:href="#Georgia-30"/>
      </g>
     </g>
    </g>
    <g id="xtick_2">
     <g id="line2d_3">
      <path d="M 157.249206 539.12 
L 157.249206 7.2 
" clip-path="url(#p754cc61479)" style="fill: none; stroke: #b0b0b0; stroke-width: 0.8; stroke-linecap: square"/>
     </g>
     <g id="line2d_4">
      <g>
       <use xlink:href="#m6ea4218535" x="157.249206" y="539.12" style="stroke: #000000; stroke-width: 0.8"/>
      </g>
     </g>
     <g id="text_2">
      <!-- 1 -->
      <g transform="translate(153.811706 558.215) scale(0.16 -0.16)">
       <defs>
        <path id="Georgia-31" d="M 2528 0 
L 422 0 
L 422 222 
Q 516 228 714 248 
Q 913 269 988 291 
Q 1084 322 1136 392 
Q 1188 463 1188 603 
L 1188 2797 
L 409 2797 
L 409 3059 
L 581 3059 
Q 919 3059 1186 3184 
Q 1453 3309 1569 3453 
L 1828 3453 
Q 1819 3250 1809 2978 
Q 1800 2706 1800 2491 
L 1800 638 
Q 1800 528 1848 442 
Q 1897 356 1988 316 
Q 2069 281 2253 253 
Q 2438 225 2528 222 
L 2528 0 
z
" transform="scale(0.015625)"/>
       </defs>
       <use xlink:href="#Georgia-31"/>
      </g>
     </g>
    </g>
    <g id="xtick_3">
     <g id="line2d_5">
      <path d="M 251.470439 539.12 
L 251.470439 7.2 
" clip-path="url(#p754cc61479)" style="fill: none; stroke: #b0b0b0; stroke-width: 0.8; stroke-linecap: square"/>
     </g>
     <g id="line2d_6">
      <g>
       <use xlink:href="#m6ea4218535" x="251.470439" y="539.12" style="stroke: #000000; stroke-width: 0.8"/>
      </g>
     </g>
     <g id="text_3">
      <!-- 2 -->
      <g transform="translate(247.001689 558.215) scale(0.16 -0.16)">
       <defs>
        <path id="Georgia-32" d="M 3272 0 
L 344 0 
L 344 425 
Q 428 522 578 642 
Q 728 763 934 903 
Q 1059 988 1234 1088 
Q 1409 1188 1631 1306 
Q 1878 1438 2011 1538 
Q 2144 1638 2253 1784 
Q 2325 1881 2369 2026 
Q 2413 2172 2413 2441 
Q 2413 2831 2203 3014 
Q 1994 3197 1666 3197 
Q 1463 3197 1281 3117 
Q 1100 3038 1009 2897 
Q 1031 2797 1064 2659 
Q 1097 2522 1097 2391 
Q 1097 2272 998 2180 
Q 900 2088 706 2088 
Q 550 2088 465 2195 
Q 381 2303 381 2484 
Q 381 2653 475 2823 
Q 569 2994 744 3138 
Q 916 3278 1169 3365 
Q 1422 3453 1716 3453 
Q 2356 3453 2732 3167 
Q 3109 2881 3109 2403 
Q 3109 2175 3042 1987 
Q 2975 1800 2825 1656 
Q 2659 1497 2437 1383 
Q 2216 1269 1759 1066 
Q 1488 944 1253 811 
Q 1019 678 869 553 
L 3272 553 
L 3272 0 
z
" transform="scale(0.015625)"/>
       </defs>
       <use xlink:href="#Georgia-32"/>
      </g>
     </g>
    </g>
    <g id="xtick_4">
     <g id="line2d_7">
      <path d="M 345.691672 539.12 
L 345.691672 7.2 
" clip-path="url(#p754cc61479)" style="fill: none; stroke: #b0b0b0; stroke-width: 0.8; stroke-linecap: square"/>
     </g>
     <g id="line2d_8">
      <g>
       <use xlink:href="#m6ea4218535" x="345.691672" y="539.12" style="stroke: #000000; stroke-width: 0.8"/>
      </g>
     </g>
     <g id="text_4">
      <!-- 3 -->
      <g transform="translate(341.277922 558.215) scale(0.16 -0.16)">
       <defs>
        <path id="Georgia-33" d="M 1522 -1141 
Q 1228 -1141 984 -1067 
Q 741 -994 566 -869 
Q 391 -744 295 -581 
Q 200 -419 200 -247 
Q 200 -94 275 29 
Q 350 153 516 153 
Q 703 153 801 61 
Q 900 -31 900 -150 
Q 900 -250 867 -403 
Q 834 -556 816 -622 
Q 838 -650 895 -697 
Q 953 -744 1038 -781 
Q 1138 -828 1247 -856 
Q 1356 -884 1556 -884 
Q 1744 -884 1917 -821 
Q 2091 -759 2222 -622 
Q 2359 -478 2436 -286 
Q 2513 -94 2513 219 
Q 2513 388 2477 553 
Q 2441 719 2344 841 
Q 2247 963 2080 1030 
Q 1913 1097 1656 1097 
L 1247 1097 
L 1247 1456 
L 1519 1456 
Q 1950 1456 2140 1693 
Q 2331 1931 2331 2409 
Q 2331 2800 2147 2998 
Q 1963 3197 1625 3197 
Q 1463 3197 1358 3158 
Q 1253 3119 1188 3081 
Q 1109 3038 1059 2984 
Q 1009 2931 984 2906 
Q 1006 2806 1037 2661 
Q 1069 2516 1069 2384 
Q 1069 2269 970 2176 
Q 872 2084 681 2084 
Q 516 2084 439 2203 
Q 363 2322 363 2478 
Q 363 2641 453 2809 
Q 544 2978 722 3125 
Q 900 3272 1156 3362 
Q 1413 3453 1747 3453 
Q 2131 3453 2382 3339 
Q 2634 3225 2778 3063 
Q 2919 2903 2972 2728 
Q 3025 2553 3025 2428 
Q 3025 2272 2981 2114 
Q 2938 1956 2838 1822 
Q 2728 1675 2548 1554 
Q 2369 1434 2097 1359 
L 2097 1309 
Q 2272 1294 2470 1231 
Q 2669 1169 2828 1047 
Q 2994 919 3100 717 
Q 3206 516 3206 206 
Q 3206 -394 2725 -767 
Q 2244 -1141 1522 -1141 
z
" transform="scale(0.015625)"/>
       </defs>
       <use xlink:href="#Georgia-33"/>
      </g>
     </g>
    </g>
    <g id="xtick_5">
     <g id="line2d_9">
      <path d="M 439.912906 539.12 
L 439.912906 7.2 
" clip-path="url(#p754cc61479)" style="fill: none; stroke: #b0b0b0; stroke-width: 0.8; stroke-linecap: square"/>
     </g>
     <g id="line2d_10">
      <g>
       <use xlink:href="#m6ea4218535" x="439.912906" y="539.12" style="stroke: #000000; stroke-width: 0.8"/>
      </g>
     </g>
     <g id="text_5">
      <!-- 4 -->
      <g transform="translate(435.392906 558.215) scale(0.16 -0.16)">
       <defs>
        <path id="Georgia-34" d="M 3388 281 
L 2753 281 
L 2753 -1141 
L 2153 -1141 
L 2153 281 
L 153 281 
L 153 763 
L 2344 3434 
L 2753 3434 
L 2753 691 
L 3388 691 
L 3388 281 
z
M 2153 691 
L 2153 2738 
L 466 691 
L 2153 691 
z
" transform="scale(0.015625)"/>
       </defs>
       <use xlink:href="#Georgia-34"/>
      </g>
     </g>
    </g>
    <g id="xtick_6">
     <g id="line2d_11">
      <path d="M 534.134139 539.12 
L 534.134139 7.2 
" clip-path="url(#p754cc61479)" style="fill: none; stroke: #b0b0b0; stroke-width: 0.8; stroke-linecap: square"/>
     </g>
     <g id="line2d_12">
      <g>
       <use xlink:href="#m6ea4218535" x="534.134139" y="539.12" style="stroke: #000000; stroke-width: 0.8"/>
      </g>
     </g>
     <g id="text_6">
      <!-- 5 -->
      <g transform="translate(529.907889 558.215) scale(0.16 -0.16)">
       <defs>
        <path id="Georgia-35" d="M 2634 1466 
Q 2841 1303 2977 1047 
Q 3113 791 3113 406 
Q 3113 -266 2653 -703 
Q 2194 -1141 1488 -1141 
Q 941 -1141 562 -881 
Q 184 -622 184 -278 
Q 184 -119 262 0 
Q 341 119 503 119 
Q 691 119 789 20 
Q 888 -78 888 -194 
Q 888 -294 853 -444 
Q 819 -594 800 -666 
Q 825 -688 881 -725 
Q 938 -763 1016 -797 
Q 1097 -831 1214 -857 
Q 1331 -884 1488 -884 
Q 1688 -884 1866 -803 
Q 2044 -722 2166 -563 
Q 2300 -388 2367 -164 
Q 2434 59 2434 403 
Q 2434 844 2189 1133 
Q 1944 1422 1544 1422 
Q 1294 1422 1076 1328 
Q 859 1234 688 1016 
L 478 1097 
L 744 3353 
L 2981 3353 
L 2981 2797 
L 997 2797 
L 834 1472 
Q 975 1572 1204 1670 
Q 1434 1769 1709 1769 
Q 1938 1769 2183 1698 
Q 2428 1628 2634 1466 
z
" transform="scale(0.015625)"/>
       </defs>
       <use xlink:href="#Georgia-35"/>
      </g>
     </g>
    </g>
    <g id="xtick_7">
     <g id="line2d_13">
      <path d="M 628.355372 539.12 
L 628.355372 7.2 
" clip-path="url(#p754cc61479)" style="fill: none; stroke: #b0b0b0; stroke-width: 0.8; stroke-linecap: square"/>
     </g>
     <g id="line2d_14">
      <g>
       <use xlink:href="#m6ea4218535" x="628.355372" y="539.12" style="stroke: #000000; stroke-width: 0.8"/>
      </g>
     </g>
     <g id="text_7">
      <!-- 6 -->
      <g transform="translate(623.827872 558.215) scale(0.16 -0.16)">
       <defs>
        <path id="Georgia-36" d="M 3359 1441 
Q 3359 1116 3242 831 
Q 3125 547 2928 347 
Q 2700 119 2423 9 
Q 2147 -100 1847 -100 
Q 1500 -100 1219 28 
Q 938 156 741 391 
Q 541 628 431 972 
Q 322 1316 322 1744 
Q 322 2859 986 3625 
Q 1650 4391 2766 4544 
L 2822 4263 
L 2541 4213 
Q 1863 3994 1492 3531 
Q 1122 3069 1013 2409 
Q 1281 2644 1543 2741 
Q 1806 2838 2097 2838 
Q 2619 2838 2989 2438 
Q 3359 2038 3359 1441 
z
M 2681 1356 
Q 2681 1863 2448 2169 
Q 2216 2475 1825 2475 
Q 1591 2475 1389 2387 
Q 1188 2300 1000 2094 
Q 997 2056 990 1920 
Q 984 1784 984 1706 
Q 984 975 1223 561 
Q 1463 147 1853 147 
Q 2225 147 2453 470 
Q 2681 794 2681 1356 
z
" transform="scale(0.015625)"/>
       </defs>
       <use xlink:href="#Georgia-36"/>
      </g>
     </g>
    </g>
   </g>
   <g id="matplotlib.axis_2">
    <g id="ytick_1">
     <g id="line2d_15">
      <path d="M 33.4275 504.275976 
L 684.637914 504.275976 
" clip-path="url(#p754cc61479)" style="fill: none; stroke: #b0b0b0; stroke-width: 0.8; stroke-linecap: square"/>
     </g>
     <g id="line2d_16">
      <defs>
       <path id="me8980d39f9" d="M 0 0 
L -3.5 0 
" style="stroke: #000000; stroke-width: 0.8"/>
      </defs>
      <g>
       <use xlink:href="#me8980d39f9" x="33.4275" y="504.275976" style="stroke: #000000; stroke-width: 0.8"/>
      </g>
     </g>
     <g id="text_8">
      <!-- −3 -->
      <g transform="translate(7.31 510.323476) scale(0.16 -0.16)">
       <defs>
        <path id="Georgia-2212" d="M 3650 1553 
L 466 1553 
L 466 1944 
L 3650 1944 
L 3650 1553 
z
" transform="scale(0.015625)"/>
       </defs>
       <use xlink:href="#Georgia-2212"/>
       <use xlink:href="#Georgia-33" x="64.306641"/>
      </g>
     </g>
    </g>
    <g id="ytick_2">
     <g id="line2d_17">
      <path d="M 33.4275 427.237318 
L 684.637914 427.237318 
" clip-path="url(#p754cc61479)" style="fill: none; stroke: #b0b0b0; stroke-width: 0.8; stroke-linecap: square"/>
     </g>
     <g id="line2d_18">
      <g>
       <use xlink:href="#me8980d39f9" x="33.4275" y="427.237318" style="stroke: #000000; stroke-width: 0.8"/>
      </g>
     </g>
     <g id="text_9">
      <!-- −2 -->
      <g transform="translate(7.2 433.284818) scale(0.16 -0.16)">
       <use xlink:href="#Georgia-2212"/>
       <use xlink:href="#Georgia-32" x="64.306641"/>
      </g>
     </g>
    </g>
    <g id="ytick_3">
     <g id="line2d_19">
      <path d="M 33.4275 350.198659 
L 684.637914 350.198659 
" clip-path="url(#p754cc61479)" style="fill: none; stroke: #b0b0b0; stroke-width: 0.8; stroke-linecap: square"/>
     </g>
     <g id="line2d_20">
      <g>
       <use xlink:href="#me8980d39f9" x="33.4275" y="350.198659" style="stroke: #000000; stroke-width: 0.8"/>
      </g>
     </g>
     <g id="text_10">
      <!-- −1 -->
      <g transform="translate(9.2625 356.246159) scale(0.16 -0.16)">
       <use xlink:href="#Georgia-2212"/>
       <use xlink:href="#Georgia-31" x="64.306641"/>
      </g>
     </g>
    </g>
    <g id="ytick_4">
     <g id="line2d_21">
      <path d="M 33.4275 273.16 
L 684.637914 273.16 
" clip-path="url(#p754cc61479)" style="fill: none; stroke: #b0b0b0; stroke-width: 0.8; stroke-linecap: square"/>
     </g>
     <g id="line2d_22">
      <g>
       <use xlink:href="#me8980d39f9" x="33.4275" y="273.16" style="stroke: #000000; stroke-width: 0.8"/>
      </g>
     </g>
     <g id="text_11">
      <!-- 0 -->
      <g transform="translate(16.6075 279.2075) scale(0.16 -0.16)">
       <use xlink:href="#Georgia-30"/>
      </g>
     </g>
    </g>
    <g id="ytick_5">
     <g id="line2d_23">
      <path d="M 33.4275 196.121341 
L 684.637914 196.121341 
" clip-path="url(#p754cc61479)" style="fill: none; stroke: #b0b0b0; stroke-width: 0.8; stroke-linecap: square"/>
     </g>
     <g id="line2d_24">
      <g>
       <use xlink:href="#me8980d39f9" x="33.4275" y="196.121341" style="stroke: #000000; stroke-width: 0.8"/>
      </g>
     </g>
     <g id="text_12">
      <!-- 1 -->
      <g transform="translate(19.5525 202.168841) scale(0.16 -0.16)">
       <use xlink:href="#Georgia-31"/>
      </g>
     </g>
    </g>
    <g id="ytick_6">
     <g id="line2d_25">
      <path d="M 33.4275 119.082682 
L 684.637914 119.082682 
" clip-path="url(#p754cc61479)" style="fill: none; stroke: #b0b0b0; stroke-width: 0.8; stroke-linecap: square"/>
     </g>
     <g id="line2d_26">
      <g>
       <use xlink:href="#me8980d39f9" x="33.4275" y="119.082682" style="stroke: #000000; stroke-width: 0.8"/>
      </g>
     </g>
     <g id="text_13">
      <!-- 2 -->
      <g transform="translate(17.49 125.130182) scale(0.16 -0.16)">
       <use xlink:href="#Georgia-32"/>
      </g>
     </g>
    </g>
    <g id="ytick_7">
     <g id="line2d_27">
      <path d="M 33.4275 42.044024 
L 684.637914 42.044024 
" clip-path="url(#p754cc61479)" style="fill: none; stroke: #b0b0b0; stroke-width: 0.8; stroke-linecap: square"/>
     </g>
     <g id="line2d_28">
      <g>
       <use xlink:href="#me8980d39f9" x="33.4275" y="42.044024" style="stroke: #000000; stroke-width: 0.8"/>
      </g>
     </g>
     <g id="text_14">
      <!-- 3 -->
      <g transform="translate(17.6 48.091524) scale(0.16 -0.16)">
       <use xlink:href="#Georgia-33"/>
      </g>
     </g>
    </g>
   </g>
   <g id="line2d_29">
    <path d="M 63.027973 273.16 
L 358.736406 31.378182 
L 359.329008 514.941818 
L 655.03744 273.16 
L 655.03744 273.16 
" clip-path="url(#p754cc61479)" style="fill: none; stroke: #000000; stroke-linecap: square"/>
   </g>
   <g id="line2d_30">
    <path d="M 63.027973 273.194493 
L 74.880015 263.295603 
L 81.398637 258.131092 
L 87.91726 253.249169 
L 95.028485 248.210646 
L 116.36216 233.328676 
L 122.880782 228.351492 
L 129.399405 223.086715 
L 138.881038 215.09535 
L 148.955273 206.661357 
L 154.881294 201.968659 
L 160.214713 197.99843 
L 166.140733 193.877338 
L 172.659356 189.626569 
L 188.659612 179.345297 
L 193.993031 175.585049 
L 199.326449 171.539124 
L 204.659868 167.212227 
L 211.771093 161.129472 
L 222.43793 151.997074 
L 227.178747 148.238059 
L 231.326961 145.220607 
L 235.475175 142.504786 
L 239.030788 140.430579 
L 243.179002 138.294396 
L 247.327217 136.41894 
L 253.253238 134.030205 
L 260.957064 130.941708 
L 265.105279 129.027117 
L 268.660891 127.129177 
L 271.623902 125.32286 
L 274.586912 123.29028 
L 277.549922 121.025307 
L 281.105535 118.015973 
L 285.253749 114.172814 
L 297.105791 102.844393 
L 300.068801 100.480772 
L 302.439209 98.906024 
L 304.217016 97.958775 
L 305.994822 97.248127 
L 307.772628 96.806896 
L 309.550434 96.667729 
L 310.735638 96.758643 
L 311.920842 97.007374 
L 313.106047 97.42297 
L 314.291251 98.014184 
L 315.476455 98.789426 
L 316.661659 99.756711 
L 317.846863 100.923609 
L 319.624669 103.063562 
L 321.402476 105.689999 
L 323.180282 108.821413 
L 324.958088 112.472927 
L 326.735894 116.656016 
L 328.5137 121.37827 
L 330.291507 126.643196 
L 332.661915 134.505358 
L 335.032323 143.31666 
L 337.402731 153.049345 
L 339.77314 163.661748 
L 342.73615 178.078966 
L 345.69916 193.647374 
L 349.254773 213.615052 
L 353.402987 238.259198 
L 360.514212 282.210107 
L 367.032835 322.010494 
L 371.181049 345.932103 
L 374.736662 365.046621 
L 377.699672 379.761646 
L 380.662682 393.217762 
L 383.033091 402.998934 
L 385.403499 411.858294 
L 387.773907 419.766869 
L 389.551713 425.064826 
L 391.32952 429.818073 
L 393.107326 434.02969 
L 394.885132 437.706882 
L 396.662938 440.860781 
L 398.440745 443.50622 
L 400.218551 445.661456 
L 401.996357 447.34787 
L 403.181561 448.22352 
L 404.366765 448.909275 
L 405.551969 449.413345 
L 406.737173 449.744322 
L 407.922378 449.91113 
L 409.107582 449.922971 
L 410.885388 449.670839 
L 412.663194 449.12378 
L 414.441 448.314773 
L 416.218807 447.276893 
L 418.589215 445.593623 
L 420.959623 443.637499 
L 423.922633 440.918493 
L 429.256052 435.642375 
L 435.182073 429.842132 
L 438.737685 426.640476 
L 442.293298 423.746648 
L 445.256308 421.596436 
L 448.219318 419.685602 
L 451.774931 417.687351 
L 455.330543 415.963748 
L 459.478758 414.208622 
L 474.886411 408.017202 
L 478.442024 406.246849 
L 481.997636 404.249181 
L 485.553249 402.01018 
L 489.108861 399.534506 
L 493.257076 396.376642 
L 497.997892 392.484723 
L 505.109117 386.325098 
L 514.59075 378.149515 
L 519.924169 373.833888 
L 525.257587 369.812876 
L 530.591006 366.083686 
L 537.109629 361.831379 
L 553.702487 351.210684 
L 559.035905 347.473226 
L 564.369324 343.480702 
L 570.295345 338.761345 
L 577.999171 332.31224 
L 592.221621 320.35518 
L 598.740244 315.203662 
L 605.258867 310.351507 
L 612.370091 305.344861 
L 631.333358 292.18046 
L 637.85198 287.283057 
L 644.370603 282.102984 
L 652.667032 275.199376 
L 655.03744 273.194493 
L 655.03744 273.194493 
" clip-path="url(#p754cc61479)" style="fill: none; stroke: #a80000; stroke-width: 3; stroke-linecap: square"/>
   </g>
   <g id="line2d_31">
    <path d="M 63.027973 273.170668 
L 71.324402 266.453074 
L 80.806035 258.877112 
L 90.287669 251.201054 
L 99.1767 244.09957 
L 108.658333 236.42089 
L 117.547364 229.332018 
L 127.028997 221.652055 
L 135.918028 214.580375 
L 145.399661 206.90048 
L 154.288692 199.851991 
L 163.770325 192.173652 
L 172.659356 185.156547 
L 182.140989 177.481552 
L 191.03002 170.507485 
L 200.511653 162.838189 
L 209.400684 155.924488 
L 218.289715 148.714251 
L 228.363951 140.950249 
L 236.067778 134.682537 
L 247.919819 125.624298 
L 253.84584 120.791574 
L 257.401452 118.220105 
L 262.734871 114.401498 
L 266.290483 111.520314 
L 271.623902 107.128497 
L 274.586912 105.015094 
L 281.698137 100.234627 
L 284.661147 97.833583 
L 289.994566 93.420128 
L 292.364974 91.813844 
L 295.327984 90.142562 
L 298.883597 88.124174 
L 301.254005 86.446288 
L 303.624413 84.465082 
L 307.180026 81.414348 
L 308.957832 80.145345 
L 310.735638 79.169224 
L 312.513444 78.473063 
L 317.254261 76.948813 
L 319.032067 75.993632 
L 320.809873 74.678523 
L 323.180282 72.535464 
L 324.958088 70.952518 
L 326.143292 70.085688 
L 327.328496 69.474019 
L 328.5137 69.181052 
L 329.698904 69.232359 
L 330.884109 69.606249 
L 332.069313 70.23054 
L 335.032323 72.030089 
L 336.217527 72.423845 
L 336.810129 72.474491 
L 337.402731 72.409188 
L 337.995333 72.219317 
L 339.180538 71.4583 
L 340.365742 70.240277 
L 343.328752 66.566761 
L 343.921354 66.084024 
L 344.513956 65.825998 
L 345.106558 65.863647 
L 345.69916 66.271266 
L 346.291762 67.125088 
L 346.884364 68.501763 
L 347.476967 70.476745 
L 348.069569 73.12261 
L 348.662171 76.507364 
L 349.254773 80.692763 
L 350.439977 91.671688 
L 351.625181 106.370013 
L 352.810385 124.909238 
L 353.995589 147.19496 
L 355.773396 186.887569 
L 357.551202 232.268768 
L 362.88462 372.645975 
L 364.662427 410.606282 
L 365.847631 431.49015 
L 367.032835 448.506289 
L 368.218039 461.62988 
L 369.403243 471.051024 
L 369.995845 474.484046 
L 370.588447 477.14389 
L 371.181049 479.098868 
L 371.773651 480.422813 
L 372.366253 481.193328 
L 372.958856 481.49003 
L 373.551458 481.392838 
L 374.14406 480.980332 
L 374.736662 480.328222 
L 375.921866 478.585591 
L 377.699672 475.764123 
L 378.884876 474.260629 
L 380.07008 473.300841 
L 380.662682 473.049696 
L 381.255284 472.949934 
L 381.847887 472.992973 
L 383.033091 473.448292 
L 384.218295 474.26142 
L 387.181305 476.616484 
L 388.366509 477.232938 
L 389.551713 477.485941 
L 390.736918 477.332891 
L 391.922122 476.787544 
L 393.107326 475.911578 
L 394.885132 474.192455 
L 397.848142 471.174873 
L 399.625949 469.759149 
L 400.811153 469.06451 
L 402.588959 468.360495 
L 404.959367 467.778862 
L 407.329776 467.11326 
L 409.107582 466.29706 
L 410.885388 465.131754 
L 412.663194 463.669513 
L 418.589215 458.500938 
L 420.367021 457.31237 
L 422.737429 455.999351 
L 426.293042 454.101975 
L 428.66345 452.540369 
L 431.033858 450.662517 
L 438.145083 444.723846 
L 441.108093 442.727497 
L 445.84891 439.642252 
L 448.81192 437.383037 
L 458.293553 429.677245 
L 466.589982 423.706346 
L 471.330799 419.757762 
L 475.479013 416.399836 
L 480.21983 412.916748 
L 484.368045 409.804966 
L 489.108861 405.907919 
L 494.44228 401.576031 
L 506.886923 391.90857 
L 513.405546 386.606795 
L 525.257587 377.318012 
L 532.368812 371.542314 
L 543.035649 363.153962 
L 551.332078 356.412972 
L 561.406314 348.453285 
L 570.295345 341.238439 
L 579.776978 333.720972 
L 589.258611 326.032217 
L 598.147642 318.966387 
L 608.221877 310.804122 
L 617.110908 303.709143 
L 626.592541 296.026355 
L 635.481572 288.930549 
L 644.963205 281.241145 
L 654.444838 273.659562 
L 655.03744 273.170668 
L 655.03744 273.170668 
" clip-path="url(#p754cc61479)" style="fill: none; stroke: #1f77b4; stroke-width: 3; stroke-linecap: square"/>
   </g>
   <g id="line2d_32">
    <path d="M 63.027973 273.165569 
L 76.657821 262.094911 
L 90.880271 250.570799 
L 104.510118 239.504667 
L 118.139966 228.471027 
L 132.362415 216.926764 
L 145.399661 206.388221 
L 160.807315 193.901208 
L 172.659356 184.334863 
L 191.03002 169.498301 
L 214.734103 150.344324 
L 228.363951 139.458348 
L 237.252982 132.344945 
L 252.660635 119.990873 
L 257.401452 116.260771 
L 261.549667 112.920741 
L 266.290483 109.24467 
L 271.0313 105.442794 
L 275.179514 102.277995 
L 279.920331 98.458637 
L 284.661147 94.892856 
L 288.809362 91.540562 
L 294.14278 87.605821 
L 297.698393 84.718242 
L 303.624413 80.466225 
L 306.587424 78.041458 
L 308.36523 76.880746 
L 311.32824 75.007327 
L 313.106047 73.563037 
L 315.476455 71.600509 
L 317.254261 70.498351 
L 320.217271 68.945932 
L 321.402476 68.088375 
L 324.958088 65.170139 
L 326.143292 64.559174 
L 329.698904 63.288802 
L 330.884109 62.463941 
L 333.847119 60.001157 
L 335.032323 59.544042 
L 336.217527 59.54348 
L 337.995333 59.818015 
L 338.587936 59.783681 
L 339.180538 59.619461 
L 339.77314 59.313167 
L 340.958344 58.359102 
L 342.143548 57.341488 
L 342.73615 57.013864 
L 343.328752 56.915334 
L 343.921354 57.1025 
L 344.513956 57.597076 
L 345.106558 58.377366 
L 347.476967 62.447897 
L 348.069569 63.019612 
L 348.662171 63.175058 
L 349.254773 62.887092 
L 349.847375 62.222012 
L 351.032579 60.587614 
L 351.625181 60.323034 
L 352.217783 61.06823 
L 352.810385 63.393293 
L 353.402987 67.891919 
L 353.995589 75.132232 
L 354.588191 85.604304 
L 355.180793 99.669355 
L 355.773396 117.515802 
L 356.9586 164.263971 
L 358.143804 223.075379 
L 361.106814 380.716689 
L 362.292018 429.259769 
L 362.88462 447.944837 
L 363.477222 462.690692 
L 364.069824 473.618629 
L 364.662427 481.049296 
L 365.255029 485.462686 
L 365.847631 487.447617 
L 366.440233 487.645934 
L 367.032835 486.696894 
L 368.810641 482.335726 
L 369.403243 481.604427 
L 369.995845 481.520009 
L 370.588447 482.068137 
L 371.181049 483.139624 
L 373.551458 488.918851 
L 374.14406 489.840336 
L 374.736662 490.336789 
L 375.329264 490.402201 
L 375.921866 490.085506 
L 376.514468 489.477811 
L 378.884876 486.466225 
L 379.477478 486.046645 
L 380.07008 485.847007 
L 380.662682 485.847856 
L 381.847887 486.236515 
L 383.033091 486.660605 
L 383.625693 486.71947 
L 384.218295 486.62086 
L 384.810897 486.353336 
L 385.996101 485.38384 
L 388.366509 482.966347 
L 389.551713 482.18835 
L 390.736918 481.792134 
L 392.514724 481.409747 
L 393.699928 480.90161 
L 394.885132 480.051766 
L 398.440745 476.888734 
L 399.625949 476.182084 
L 403.181561 474.37555 
L 404.959367 472.935913 
L 407.329776 470.856015 
L 409.107582 469.636017 
L 412.663194 467.44489 
L 414.441 465.976926 
L 417.404011 463.511116 
L 419.774419 461.940453 
L 422.144827 460.283252 
L 428.66345 455.128529 
L 431.62646 452.977668 
L 437.552481 448.226113 
L 441.108093 445.576494 
L 447.034114 440.825312 
L 450.589727 438.108712 
L 455.923145 433.800142 
L 460.07136 430.592739 
L 465.404778 426.29105 
L 469.552993 423.040835 
L 474.886411 418.744878 
L 479.034626 415.461482 
L 484.368045 411.170242 
L 488.516259 407.860734 
L 493.849678 403.573303 
L 498.590494 399.752117 
L 503.331311 395.958587 
L 508.072127 392.12169 
L 513.405546 387.86191 
L 525.257587 378.295834 
L 532.368812 372.565452 
L 555.480293 353.838827 
L 605.851469 313.067248 
L 626.592541 296.246646 
L 642.592797 283.265048 
L 655.03744 273.165569 
L 655.03744 273.165569 
" clip-path="url(#p754cc61479)" style="fill: none; stroke: #ff7f0e; stroke-width: 3; stroke-linecap: square"/>
   </g>
   <g id="patch_3">
    <path d="M 33.4275 539.12 
L 33.4275 7.2 
" style="fill: none; stroke: #000000; stroke-width: 1.5; stroke-linejoin: miter; stroke-linecap: square"/>
   </g>
   <g id="patch_4">
    <path d="M 684.637914 539.12 
L 684.637914 7.2 
" style="fill: none; stroke: #000000; stroke-width: 1.5; stroke-linejoin: miter; stroke-linecap: square"/>
   </g>
   <g id="patch_5">
    <path d="M 33.4275 539.12 
L 684.637914 539.12 
" style="fill: none; stroke: #000000; stroke-width: 1.5; stroke-linejoin: miter; stroke-linecap: square"/>
   </g>
   <g id="patch_6">
    <path d="M 33.4275 7.2 
L 684.637914 7.2 
" style="fill: none; stroke: #000000; stroke-width: 1.5; stroke-linejoin: miter; stroke-linecap: square"/>
   </g>
   <g id="legend_1">
    <g id="patch_7">
     <path d="M 570.753539 74.1125 
L 677.637914 74.1125 
Q 679.637914 74.1125 679.637914 72.1125 
L 679.637914 14.2 
Q 679.637914 12.2 677.637914 12.2 
L 570.753539 12.2 
Q 568.753539 12.2 568.753539 14.2 
L 568.753539 72.1125 
Q 568.753539 74.1125 570.753539 74.1125 
z
" style="fill: #ffffff; opacity: 0.8; stroke: #cccccc; stroke-linejoin: miter"/>
    </g>
    <g id="line2d_33">
     <path d="M 572.753539 20.259375 
L 582.753539 20.259375 
L 592.753539 20.259375 
" style="fill: none; stroke: #000000; stroke-linecap: square"/>
    </g>
    <g id="text_15">
     <!-- Init -->
     <g transform="translate(600.753539 23.759375) scale(0.1 -0.1)">
      <defs>
       <path id="Georgia-49" d="M 2244 0 
L 247 0 
L 247 222 
Q 331 228 490 240 
Q 650 253 716 278 
Q 819 319 866 389 
Q 913 459 913 584 
L 913 3797 
Q 913 3906 878 3979 
Q 844 4053 716 4103 
Q 622 4141 480 4173 
Q 338 4206 247 4213 
L 247 4434 
L 2244 4434 
L 2244 4213 
Q 2147 4209 2012 4189 
Q 1878 4169 1778 4138 
Q 1659 4100 1618 4015 
Q 1578 3931 1578 3828 
L 1578 619 
Q 1578 516 1623 436 
Q 1669 356 1778 309 
Q 1844 284 1992 254 
Q 2141 225 2244 222 
L 2244 0 
z
" transform="scale(0.015625)"/>
       <path id="Georgia-6e" d="M 3628 0 
L 2119 0 
L 2119 206 
Q 2191 213 2277 219 
Q 2363 225 2419 244 
Q 2506 272 2548 342 
Q 2591 413 2591 525 
L 2591 2109 
Q 2591 2438 2436 2616 
Q 2281 2794 2059 2794 
Q 1894 2794 1756 2742 
Q 1619 2691 1513 2616 
Q 1409 2544 1348 2461 
Q 1288 2378 1259 2328 
L 1259 556 
Q 1259 450 1303 381 
Q 1347 313 1434 275 
Q 1500 244 1576 228 
Q 1653 213 1734 206 
L 1734 0 
L 225 0 
L 225 206 
Q 297 213 373 219 
Q 450 225 506 244 
Q 594 272 636 342 
Q 678 413 678 525 
L 678 2428 
Q 678 2534 633 2623 
Q 588 2713 506 2769 
Q 447 2806 365 2823 
Q 284 2841 191 2847 
L 191 3050 
L 1216 3119 
L 1259 3075 
L 1259 2641 
L 1275 2641 
Q 1350 2716 1462 2820 
Q 1575 2925 1675 2991 
Q 1791 3066 1950 3116 
Q 2109 3166 2309 3166 
Q 2753 3166 2967 2889 
Q 3181 2613 3181 2153 
L 3181 550 
Q 3181 441 3218 373 
Q 3256 306 3347 269 
Q 3422 238 3476 225 
Q 3531 213 3628 206 
L 3628 0 
z
" transform="scale(0.015625)"/>
       <path id="Georgia-69" d="M 1722 0 
L 231 0 
L 231 206 
Q 303 213 379 219 
Q 456 225 513 244 
Q 600 272 642 342 
Q 684 413 684 525 
L 684 2428 
Q 684 2528 639 2611 
Q 594 2694 513 2750 
Q 453 2788 340 2814 
Q 228 2841 134 2847 
L 134 3050 
L 1222 3119 
L 1266 3075 
L 1266 563 
Q 1266 453 1308 381 
Q 1350 309 1441 275 
Q 1509 247 1575 230 
Q 1641 213 1722 206 
L 1722 0 
z
M 1328 4334 
Q 1328 4156 1211 4023 
Q 1094 3891 922 3891 
Q 763 3891 645 4017 
Q 528 4144 528 4306 
Q 528 4478 645 4606 
Q 763 4734 922 4734 
Q 1100 4734 1214 4614 
Q 1328 4494 1328 4334 
z
" transform="scale(0.015625)"/>
       <path id="Georgia-74" d="M 2128 134 
Q 1925 50 1744 -8 
Q 1563 -66 1300 -66 
Q 913 -66 755 129 
Q 597 325 597 681 
L 597 2769 
L 41 2769 
L 41 3069 
L 609 3069 
L 609 4028 
L 1178 4028 
L 1178 3069 
L 2063 3069 
L 2063 2769 
L 1184 2769 
L 1184 1047 
Q 1184 853 1198 723 
Q 1213 594 1266 497 
Q 1316 406 1416 359 
Q 1516 313 1684 313 
Q 1763 313 1914 327 
Q 2066 341 2128 363 
L 2128 134 
z
" transform="scale(0.015625)"/>
      </defs>
      <use xlink:href="#Georgia-49"/>
      <use xlink:href="#Georgia-6e" x="38.964844"/>
      <use xlink:href="#Georgia-69" x="98.046875"/>
      <use xlink:href="#Georgia-74" x="127.34375"/>
     </g>
    </g>
    <g id="line2d_34">
     <path d="M 572.753539 34.9875 
L 582.753539 34.9875 
L 592.753539 34.9875 
" style="fill: none; stroke: #a80000; stroke-width: 3; stroke-linecap: square"/>
    </g>
    <g id="text_16">
     <!-- 16, t=1.0,cesaro -->
     <g transform="translate(600.753539 38.4875) scale(0.1 -0.1)">
      <defs>
       <path id="Georgia-2c" d="M 1341 109 
Q 1341 -116 1239 -316 
Q 1138 -516 1006 -659 
Q 872 -809 722 -925 
Q 572 -1041 447 -1106 
L 303 -897 
Q 453 -803 572 -709 
Q 691 -616 766 -522 
Q 859 -413 925 -284 
Q 991 -156 1009 6 
L 850 6 
Q 641 6 523 115 
Q 406 225 406 409 
Q 406 541 512 664 
Q 619 788 803 788 
Q 1072 788 1206 608 
Q 1341 428 1341 109 
z
" transform="scale(0.015625)"/>
       <path id="Georgia-20" transform="scale(0.015625)"/>
       <path id="Georgia-3d" d="M 3634 2134 
L 481 2134 
L 481 2525 
L 3634 2525 
L 3634 2134 
z
M 3634 972 
L 481 972 
L 481 1363 
L 3634 1363 
L 3634 972 
z
" transform="scale(0.015625)"/>
       <path id="Georgia-2e" d="M 1297 359 
Q 1297 184 1170 60 
Q 1044 -63 869 -63 
Q 694 -63 567 60 
Q 441 184 441 359 
Q 441 534 567 661 
Q 694 788 869 788 
Q 1044 788 1170 661 
Q 1297 534 1297 359 
z
" transform="scale(0.015625)"/>
       <path id="Georgia-63" d="M 1650 -81 
Q 981 -81 603 362 
Q 225 806 225 1553 
Q 225 1878 326 2161 
Q 428 2444 622 2675 
Q 806 2897 1084 3033 
Q 1363 3169 1691 3169 
Q 2144 3169 2428 2951 
Q 2713 2734 2713 2359 
Q 2713 2203 2638 2083 
Q 2563 1963 2391 1963 
Q 2206 1963 2104 2056 
Q 2003 2150 2003 2266 
Q 2003 2406 2040 2554 
Q 2078 2703 2084 2772 
Q 2028 2869 1917 2901 
Q 1806 2934 1678 2934 
Q 1528 2934 1392 2870 
Q 1256 2806 1128 2634 
Q 1013 2478 941 2212 
Q 869 1947 869 1578 
Q 869 997 1126 630 
Q 1384 263 1803 263 
Q 2106 263 2311 409 
Q 2516 556 2691 850 
L 2891 719 
Q 2684 350 2346 134 
Q 2009 -81 1650 -81 
z
" transform="scale(0.015625)"/>
       <path id="Georgia-65" d="M 2963 725 
Q 2769 356 2444 137 
Q 2119 -81 1697 -81 
Q 1325 -81 1045 50 
Q 766 181 584 406 
Q 403 631 314 931 
Q 225 1231 225 1566 
Q 225 1866 320 2155 
Q 416 2444 600 2675 
Q 778 2897 1042 3033 
Q 1306 3169 1634 3169 
Q 1972 3169 2212 3062 
Q 2453 2956 2603 2772 
Q 2747 2597 2817 2359 
Q 2888 2122 2888 1844 
L 2888 1638 
L 847 1638 
Q 847 1334 905 1087 
Q 963 841 1088 653 
Q 1209 472 1406 367 
Q 1603 263 1875 263 
Q 2153 263 2354 392 
Q 2556 522 2744 859 
L 2963 725 
z
M 2272 1900 
Q 2272 2075 2242 2275 
Q 2213 2475 2147 2609 
Q 2075 2753 1950 2843 
Q 1825 2934 1628 2934 
Q 1300 2934 1083 2661 
Q 866 2388 847 1900 
L 2272 1900 
z
" transform="scale(0.015625)"/>
       <path id="Georgia-73" d="M 2259 1509 
Q 2388 1397 2456 1250 
Q 2525 1103 2525 891 
Q 2525 463 2204 191 
Q 1884 -81 1375 -81 
Q 1106 -81 879 16 
Q 653 113 556 194 
L 494 -9 
L 259 -9 
L 228 1063 
L 444 1063 
Q 469 941 550 778 
Q 631 616 747 484 
Q 869 347 1039 253 
Q 1209 159 1422 159 
Q 1722 159 1884 295 
Q 2047 431 2047 684 
Q 2047 816 1995 911 
Q 1944 1006 1844 1078 
Q 1741 1150 1591 1208 
Q 1441 1266 1256 1322 
Q 1109 1366 929 1442 
Q 750 1519 622 1622 
Q 484 1731 396 1890 
Q 309 2050 309 2266 
Q 309 2644 590 2906 
Q 872 3169 1344 3169 
Q 1525 3169 1714 3122 
Q 1903 3075 2022 3009 
L 2094 3172 
L 2319 3172 
L 2366 2181 
L 2150 2181 
Q 2084 2513 1867 2720 
Q 1650 2928 1338 2928 
Q 1081 2928 934 2800 
Q 788 2672 788 2491 
Q 788 2350 836 2256 
Q 884 2163 981 2097 
Q 1075 2034 1217 1979 
Q 1359 1925 1569 1856 
Q 1775 1791 1958 1703 
Q 2141 1616 2259 1509 
z
" transform="scale(0.015625)"/>
       <path id="Georgia-61" d="M 3144 56 
Q 2997 3 2886 -30 
Q 2775 -63 2634 -63 
Q 2391 -63 2245 51 
Q 2100 166 2059 384 
L 2041 384 
Q 1838 159 1605 40 
Q 1372 -78 1044 -78 
Q 697 -78 473 134 
Q 250 347 250 691 
Q 250 869 300 1009 
Q 350 1150 450 1263 
Q 528 1356 656 1429 
Q 784 1503 897 1547 
Q 1038 1600 1467 1744 
Q 1897 1888 2047 1969 
L 2047 2278 
Q 2047 2319 2030 2434 
Q 2013 2550 1956 2653 
Q 1894 2769 1780 2855 
Q 1666 2941 1456 2941 
Q 1313 2941 1189 2892 
Q 1066 2844 1016 2791 
Q 1016 2728 1045 2606 
Q 1075 2484 1075 2381 
Q 1075 2272 976 2181 
Q 878 2091 703 2091 
Q 547 2091 473 2202 
Q 400 2313 400 2450 
Q 400 2594 501 2725 
Q 603 2856 766 2959 
Q 906 3047 1106 3108 
Q 1306 3169 1497 3169 
Q 1759 3169 1954 3133 
Q 2150 3097 2309 2978 
Q 2469 2863 2551 2664 
Q 2634 2466 2634 2153 
Q 2634 1706 2625 1361 
Q 2616 1016 2616 606 
Q 2616 484 2658 412 
Q 2700 341 2788 291 
Q 2834 263 2936 259 
Q 3038 256 3144 256 
L 3144 56 
z
M 2053 1706 
Q 1788 1628 1588 1553 
Q 1388 1478 1216 1366 
Q 1059 1259 968 1114 
Q 878 969 878 769 
Q 878 509 1014 387 
Q 1150 266 1359 266 
Q 1581 266 1750 373 
Q 1919 481 2034 628 
L 2053 1706 
z
" transform="scale(0.015625)"/>
       <path id="Georgia-72" d="M 2584 2684 
Q 2584 2525 2506 2401 
Q 2428 2278 2266 2278 
Q 2091 2278 1998 2368 
Q 1906 2459 1906 2569 
Q 1906 2638 1917 2694 
Q 1928 2750 1938 2806 
Q 1791 2806 1594 2687 
Q 1397 2569 1259 2350 
L 1259 556 
Q 1259 447 1301 378 
Q 1344 309 1434 275 
Q 1513 244 1636 228 
Q 1759 213 1850 206 
L 1850 0 
L 225 0 
L 225 206 
Q 297 213 373 219 
Q 450 225 506 244 
Q 594 272 636 342 
Q 678 413 678 525 
L 678 2428 
Q 678 2525 633 2619 
Q 588 2713 506 2769 
Q 447 2806 365 2823 
Q 284 2841 191 2847 
L 191 3050 
L 1216 3119 
L 1259 3075 
L 1259 2641 
L 1275 2641 
Q 1469 2894 1706 3025 
Q 1944 3156 2141 3156 
Q 2338 3156 2461 3028 
Q 2584 2900 2584 2684 
z
" transform="scale(0.015625)"/>
       <path id="Georgia-6f" d="M 3228 1572 
Q 3228 1247 3125 933 
Q 3022 619 2831 400 
Q 2616 150 2331 28 
Q 2047 -94 1694 -94 
Q 1400 -94 1134 17 
Q 869 128 663 341 
Q 459 550 339 851 
Q 219 1153 219 1528 
Q 219 2250 639 2709 
Q 1059 3169 1741 3169 
Q 2388 3169 2808 2733 
Q 3228 2297 3228 1572 
z
M 2581 1566 
Q 2581 1800 2534 2061 
Q 2488 2322 2394 2503 
Q 2294 2697 2131 2814 
Q 1969 2931 1734 2931 
Q 1494 2931 1323 2812 
Q 1153 2694 1047 2488 
Q 947 2297 906 2053 
Q 866 1809 866 1581 
Q 866 1281 914 1026 
Q 963 772 1069 572 
Q 1175 372 1336 258 
Q 1497 144 1734 144 
Q 2125 144 2353 522 
Q 2581 900 2581 1566 
z
" transform="scale(0.015625)"/>
      </defs>
      <use xlink:href="#Georgia-31"/>
      <use xlink:href="#Georgia-36" x="42.96875"/>
      <use xlink:href="#Georgia-2c" x="99.560547"/>
      <use xlink:href="#Georgia-20" x="126.513672"/>
      <use xlink:href="#Georgia-74" x="150.634766"/>
      <use xlink:href="#Georgia-3d" x="185.15625"/>
      <use xlink:href="#Georgia-31" x="249.462891"/>
      <use xlink:href="#Georgia-2e" x="292.431641"/>
      <use xlink:href="#Georgia-30" x="319.384766"/>
      <use xlink:href="#Georgia-2c" x="380.761719"/>
      <use xlink:href="#Georgia-63" x="407.714844"/>
      <use xlink:href="#Georgia-65" x="453.125"/>
      <use xlink:href="#Georgia-73" x="501.464844"/>
      <use xlink:href="#Georgia-61" x="544.677734"/>
      <use xlink:href="#Georgia-72" x="595.068359"/>
      <use xlink:href="#Georgia-6f" x="636.035156"/>
     </g>
    </g>
    <g id="line2d_35">
     <path d="M 572.753539 49.715625 
L 582.753539 49.715625 
L 592.753539 49.715625 
" style="fill: none; stroke: #1f77b4; stroke-width: 3; stroke-linecap: square"/>
    </g>
    <g id="text_17">
     <!-- 64, t=1.0,cesaro -->
     <g transform="translate(600.753539 53.215625) scale(0.1 -0.1)">
      <use xlink:href="#Georgia-36"/>
      <use xlink:href="#Georgia-34" x="56.591797"/>
      <use xlink:href="#Georgia-2c" x="113.085938"/>
      <use xlink:href="#Georgia-20" x="140.039062"/>
      <use xlink:href="#Georgia-74" x="164.160156"/>
      <use xlink:href="#Georgia-3d" x="198.681641"/>
      <use xlink:href="#Georgia-31" x="262.988281"/>
      <use xlink:href="#Georgia-2e" x="305.957031"/>
      <use xlink:href="#Georgia-30" x="332.910156"/>
      <use xlink:href="#Georgia-2c" x="394.287109"/>
      <use xlink:href="#Georgia-63" x="421.240234"/>
      <use xlink:href="#Georgia-65" x="466.650391"/>
      <use xlink:href="#Georgia-73" x="514.990234"/>
      <use xlink:href="#Georgia-61" x="558.203125"/>
      <use xlink:href="#Georgia-72" x="608.59375"/>
      <use xlink:href="#Georgia-6f" x="649.560547"/>
     </g>
    </g>
    <g id="line2d_36">
     <path d="M 572.753539 64.44375 
L 582.753539 64.44375 
L 592.753539 64.44375 
" style="fill: none; stroke: #ff7f0e; stroke-width: 3; stroke-linecap: square"/>
    </g>
    <g id="text_18">
     <!-- 128, t=1.0,cesaro -->
     <g transform="translate(600.753539 67.94375) scale(0.1 -0.1)">
      <defs>
       <path id="Georgia-38" d="M 3491 1175 
Q 3491 650 3037 272 
Q 2584 -106 1847 -106 
Q 1156 -106 740 241 
Q 325 588 325 1134 
Q 325 1538 570 1808 
Q 816 2078 1297 2266 
Q 900 2488 703 2753 
Q 506 3019 506 3353 
Q 506 3863 939 4206 
Q 1372 4550 1975 4550 
Q 2578 4550 2951 4225 
Q 3325 3900 3325 3409 
Q 3325 3094 3119 2811 
Q 2913 2528 2513 2347 
Q 3031 2125 3261 1856 
Q 3491 1588 3491 1175 
z
M 2734 3444 
Q 2734 3825 2507 4064 
Q 2281 4303 1928 4303 
Q 1575 4303 1350 4073 
Q 1125 3844 1125 3503 
Q 1125 3175 1381 2947 
Q 1638 2719 2294 2459 
Q 2528 2609 2631 2856 
Q 2734 3103 2734 3444 
z
M 2866 1028 
Q 2866 1225 2781 1373 
Q 2697 1522 2538 1644 
Q 2384 1763 2111 1892 
Q 1838 2022 1519 2156 
Q 1219 1994 1078 1742 
Q 938 1491 938 1169 
Q 938 709 1208 426 
Q 1478 144 1928 144 
Q 2359 144 2612 394 
Q 2866 644 2866 1028 
z
" transform="scale(0.015625)"/>
      </defs>
      <use xlink:href="#Georgia-31"/>
      <use xlink:href="#Georgia-32" x="42.96875"/>
      <use xlink:href="#Georgia-38" x="98.828125"/>
      <use xlink:href="#Georgia-2c" x="158.447266"/>
      <use xlink:href="#Georgia-20" x="185.400391"/>
      <use xlink:href="#Georgia-74" x="209.521484"/>
      <use xlink:href="#Georgia-3d" x="244.042969"/>
      <use xlink:href="#Georgia-31" x="308.349609"/>
      <use xlink:href="#Georgia-2e" x="351.318359"/>
      <use xlink:href="#Georgia-30" x="378.271484"/>
      <use xlink:href="#Georgia-2c" x="439.648438"/>
      <use xlink:href="#Georgia-63" x="466.601562"/>
      <use xlink:href="#Georgia-65" x="512.011719"/>
      <use xlink:href="#Georgia-73" x="560.351562"/>
      <use xlink:href="#Georgia-61" x="603.564453"/>
      <use xlink:href="#Georgia-72" x="653.955078"/>
      <use xlink:href="#Georgia-6f" x="694.921875"/>
     </g>
    </g>
   </g>
  </g>
  <g id="axes_2">
   <g id="patch_8">
    <path d="M 733.083334 539.12 
L 993.5675 539.12 
L 993.5675 7.2 
L 733.083334 7.2 
L 733.083334 539.12 
z
" style="fill: none"/>
   </g>
   <g id="matplotlib.axis_3">
    <g id="xtick_8">
     <g id="line2d_37">
      <g>
       <use xlink:href="#m6ea4218535" x="744.923524" y="539.12" style="stroke: #000000; stroke-width: 0.8"/>
      </g>
     </g>
     <g id="text_19">
      <!-- 0 -->
      <g transform="translate(740.013524 558.215) scale(0.16 -0.16)">
       <use xlink:href="#Georgia-30"/>
      </g>
     </g>
    </g>
    <g id="xtick_9">
     <g id="line2d_38">
      <g>
       <use xlink:href="#m6ea4218535" x="820.30051" y="539.12" style="stroke: #000000; stroke-width: 0.8"/>
      </g>
     </g>
     <g id="text_20">
      <!-- 2 -->
      <g transform="translate(815.83176 558.215) scale(0.16 -0.16)">
       <use xlink:href="#Georgia-32"/>
      </g>
     </g>
    </g>
    <g id="xtick_10">
     <g id="line2d_39">
      <g>
       <use xlink:href="#m6ea4218535" x="895.677497" y="539.12" style="stroke: #000000; stroke-width: 0.8"/>
      </g>
     </g>
     <g id="text_21">
      <!-- 4 -->
      <g transform="translate(891.157497 558.215) scale(0.16 -0.16)">
       <use xlink:href="#Georgia-34"/>
      </g>
     </g>
    </g>
    <g id="xtick_11">
     <g id="line2d_40">
      <g>
       <use xlink:href="#m6ea4218535" x="971.054483" y="539.12" style="stroke: #000000; stroke-width: 0.8"/>
      </g>
     </g>
     <g id="text_22">
      <!-- 6 -->
      <g transform="translate(966.526983 558.215) scale(0.16 -0.16)">
       <use xlink:href="#Georgia-36"/>
      </g>
     </g>
    </g>
   </g>
   <g id="matplotlib.axis_4">
    <g id="ytick_8">
     <g id="line2d_41">
      <g>
       <use xlink:href="#me8980d39f9" x="733.083334" y="464.788566" style="stroke: #000000; stroke-width: 0.8"/>
      </g>
     </g>
     <g id="text_23">
      <!-- $\mathdefault{10^{-5}}$ -->
      <g transform="translate(695.683334 470.836066) scale(0.16 -0.16)">
       <use xlink:href="#Georgia-31" transform="translate(0 0.628125)"/>
       <use xlink:href="#Georgia-30" transform="translate(42.96875 0.628125)"/>
       <use xlink:href="#Georgia-2212" transform="translate(105.188164 34.326563) scale(0.7)"/>
       <use xlink:href="#Georgia-35" transform="translate(150.202812 34.326563) scale(0.7)"/>
      </g>
     </g>
    </g>
    <g id="ytick_9">
     <g id="line2d_42">
      <g>
       <use xlink:href="#me8980d39f9" x="733.083334" y="385.896087" style="stroke: #000000; stroke-width: 0.8"/>
      </g>
     </g>
     <g id="text_24">
      <!-- $\mathdefault{10^{-4}}$ -->
      <g transform="translate(695.203334 391.943587) scale(0.16 -0.16)">
       <use xlink:href="#Georgia-31" transform="translate(0 0.742188)"/>
       <use xlink:href="#Georgia-30" transform="translate(42.96875 0.742188)"/>
       <use xlink:href="#Georgia-2212" transform="translate(105.188164 34.440625) scale(0.7)"/>
       <use xlink:href="#Georgia-34" transform="translate(150.202812 34.440625) scale(0.7)"/>
      </g>
     </g>
    </g>
    <g id="ytick_10">
     <g id="line2d_43">
      <g>
       <use xlink:href="#me8980d39f9" x="733.083334" y="307.003607" style="stroke: #000000; stroke-width: 0.8"/>
      </g>
     </g>
     <g id="text_25">
      <!-- $\mathdefault{10^{-3}}$ -->
      <g transform="translate(695.363334 313.051107) scale(0.16 -0.16)">
       <use xlink:href="#Georgia-31" transform="translate(0 0.534375)"/>
       <use xlink:href="#Georgia-30" transform="translate(42.96875 0.534375)"/>
       <use xlink:href="#Georgia-2212" transform="translate(105.188164 34.232813) scale(0.7)"/>
       <use xlink:href="#Georgia-33" transform="translate(150.202812 34.232813) scale(0.7)"/>
      </g>
     </g>
    </g>
    <g id="ytick_11">
     <g id="line2d_44">
      <g>
       <use xlink:href="#me8980d39f9" x="733.083334" y="228.111128" style="stroke: #000000; stroke-width: 0.8"/>
      </g>
     </g>
     <g id="text_26">
      <!-- $\mathdefault{10^{-2}}$ -->
      <g transform="translate(695.363334 234.158628) scale(0.16 -0.16)">
       <use xlink:href="#Georgia-31" transform="translate(0 0.534375)"/>
       <use xlink:href="#Georgia-30" transform="translate(42.96875 0.534375)"/>
       <use xlink:href="#Georgia-2212" transform="translate(105.188164 34.232813) scale(0.7)"/>
       <use xlink:href="#Georgia-32" transform="translate(150.202812 34.232813) scale(0.7)"/>
      </g>
     </g>
    </g>
    <g id="ytick_12">
     <g id="line2d_45">
      <g>
       <use xlink:href="#me8980d39f9" x="733.083334" y="149.218648" style="stroke: #000000; stroke-width: 0.8"/>
      </g>
     </g>
     <g id="text_27">
      <!-- $\mathdefault{10^{-1}}$ -->
      <g transform="translate(696.803334 155.266148) scale(0.16 -0.16)">
       <use xlink:href="#Georgia-31" transform="translate(0 0.534375)"/>
       <use xlink:href="#Georgia-30" transform="translate(42.96875 0.534375)"/>
       <use xlink:href="#Georgia-2212" transform="translate(105.188164 34.232813) scale(0.7)"/>
       <use xlink:href="#Georgia-31" transform="translate(150.202812 34.232813) scale(0.7)"/>
      </g>
     </g>
    </g>
    <g id="ytick_13">
     <g id="line2d_46">
      <g>
       <use xlink:href="#me8980d39f9" x="733.083334" y="70.326169" style="stroke: #000000; stroke-width: 0.8"/>
      </g>
     </g>
     <g id="text_28">
      <!-- $\mathdefault{10^{0}}$ -->
      <g transform="translate(701.923334 76.373669) scale(0.16 -0.16)">
       <use xlink:href="#Georgia-31" transform="translate(0 0.534375)"/>
       <use xlink:href="#Georgia-30" transform="translate(42.96875 0.534375)"/>
       <use xlink:href="#Georgia-30" transform="translate(105.188164 34.232813) scale(0.7)"/>
      </g>
     </g>
    </g>
    <g id="ytick_14">
     <g id="line2d_47">
      <defs>
       <path id="mcc1a4dcc4d" d="M 0 0 
L -2 0 
" style="stroke: #000000; stroke-width: 0.6"/>
      </defs>
      <g>
       <use xlink:href="#mcc1a4dcc4d" x="733.083334" y="519.932043" style="stroke: #000000; stroke-width: 0.6"/>
      </g>
     </g>
    </g>
    <g id="ytick_15">
     <g id="line2d_48">
      <g>
       <use xlink:href="#mcc1a4dcc4d" x="733.083334" y="506.039767" style="stroke: #000000; stroke-width: 0.6"/>
      </g>
     </g>
    </g>
    <g id="ytick_16">
     <g id="line2d_49">
      <g>
       <use xlink:href="#mcc1a4dcc4d" x="733.083334" y="496.18304" style="stroke: #000000; stroke-width: 0.6"/>
      </g>
     </g>
    </g>
    <g id="ytick_17">
     <g id="line2d_50">
      <g>
       <use xlink:href="#mcc1a4dcc4d" x="733.083334" y="488.537569" style="stroke: #000000; stroke-width: 0.6"/>
      </g>
     </g>
    </g>
    <g id="ytick_18">
     <g id="line2d_51">
      <g>
       <use xlink:href="#mcc1a4dcc4d" x="733.083334" y="482.290764" style="stroke: #000000; stroke-width: 0.6"/>
      </g>
     </g>
    </g>
    <g id="ytick_19">
     <g id="line2d_52">
      <g>
       <use xlink:href="#mcc1a4dcc4d" x="733.083334" y="477.009166" style="stroke: #000000; stroke-width: 0.6"/>
      </g>
     </g>
    </g>
    <g id="ytick_20">
     <g id="line2d_53">
      <g>
       <use xlink:href="#mcc1a4dcc4d" x="733.083334" y="472.434037" style="stroke: #000000; stroke-width: 0.6"/>
      </g>
     </g>
    </g>
    <g id="ytick_21">
     <g id="line2d_54">
      <g>
       <use xlink:href="#mcc1a4dcc4d" x="733.083334" y="468.398488" style="stroke: #000000; stroke-width: 0.6"/>
      </g>
     </g>
    </g>
    <g id="ytick_22">
     <g id="line2d_55">
      <g>
       <use xlink:href="#mcc1a4dcc4d" x="733.083334" y="441.039563" style="stroke: #000000; stroke-width: 0.6"/>
      </g>
     </g>
    </g>
    <g id="ytick_23">
     <g id="line2d_56">
      <g>
       <use xlink:href="#mcc1a4dcc4d" x="733.083334" y="427.147287" style="stroke: #000000; stroke-width: 0.6"/>
      </g>
     </g>
    </g>
    <g id="ytick_24">
     <g id="line2d_57">
      <g>
       <use xlink:href="#mcc1a4dcc4d" x="733.083334" y="417.290561" style="stroke: #000000; stroke-width: 0.6"/>
      </g>
     </g>
    </g>
    <g id="ytick_25">
     <g id="line2d_58">
      <g>
       <use xlink:href="#mcc1a4dcc4d" x="733.083334" y="409.645089" style="stroke: #000000; stroke-width: 0.6"/>
      </g>
     </g>
    </g>
    <g id="ytick_26">
     <g id="line2d_59">
      <g>
       <use xlink:href="#mcc1a4dcc4d" x="733.083334" y="403.398285" style="stroke: #000000; stroke-width: 0.6"/>
      </g>
     </g>
    </g>
    <g id="ytick_27">
     <g id="line2d_60">
      <g>
       <use xlink:href="#mcc1a4dcc4d" x="733.083334" y="398.116686" style="stroke: #000000; stroke-width: 0.6"/>
      </g>
     </g>
    </g>
    <g id="ytick_28">
     <g id="line2d_61">
      <g>
       <use xlink:href="#mcc1a4dcc4d" x="733.083334" y="393.541558" style="stroke: #000000; stroke-width: 0.6"/>
      </g>
     </g>
    </g>
    <g id="ytick_29">
     <g id="line2d_62">
      <g>
       <use xlink:href="#mcc1a4dcc4d" x="733.083334" y="389.506009" style="stroke: #000000; stroke-width: 0.6"/>
      </g>
     </g>
    </g>
    <g id="ytick_30">
     <g id="line2d_63">
      <g>
       <use xlink:href="#mcc1a4dcc4d" x="733.083334" y="362.147084" style="stroke: #000000; stroke-width: 0.6"/>
      </g>
     </g>
    </g>
    <g id="ytick_31">
     <g id="line2d_64">
      <g>
       <use xlink:href="#mcc1a4dcc4d" x="733.083334" y="348.254808" style="stroke: #000000; stroke-width: 0.6"/>
      </g>
     </g>
    </g>
    <g id="ytick_32">
     <g id="line2d_65">
      <g>
       <use xlink:href="#mcc1a4dcc4d" x="733.083334" y="338.398081" style="stroke: #000000; stroke-width: 0.6"/>
      </g>
     </g>
    </g>
    <g id="ytick_33">
     <g id="line2d_66">
      <g>
       <use xlink:href="#mcc1a4dcc4d" x="733.083334" y="330.75261" style="stroke: #000000; stroke-width: 0.6"/>
      </g>
     </g>
    </g>
    <g id="ytick_34">
     <g id="line2d_67">
      <g>
       <use xlink:href="#mcc1a4dcc4d" x="733.083334" y="324.505805" style="stroke: #000000; stroke-width: 0.6"/>
      </g>
     </g>
    </g>
    <g id="ytick_35">
     <g id="line2d_68">
      <g>
       <use xlink:href="#mcc1a4dcc4d" x="733.083334" y="319.224207" style="stroke: #000000; stroke-width: 0.6"/>
      </g>
     </g>
    </g>
    <g id="ytick_36">
     <g id="line2d_69">
      <g>
       <use xlink:href="#mcc1a4dcc4d" x="733.083334" y="314.649078" style="stroke: #000000; stroke-width: 0.6"/>
      </g>
     </g>
    </g>
    <g id="ytick_37">
     <g id="line2d_70">
      <g>
       <use xlink:href="#mcc1a4dcc4d" x="733.083334" y="310.613529" style="stroke: #000000; stroke-width: 0.6"/>
      </g>
     </g>
    </g>
    <g id="ytick_38">
     <g id="line2d_71">
      <g>
       <use xlink:href="#mcc1a4dcc4d" x="733.083334" y="283.254605" style="stroke: #000000; stroke-width: 0.6"/>
      </g>
     </g>
    </g>
    <g id="ytick_39">
     <g id="line2d_72">
      <g>
       <use xlink:href="#mcc1a4dcc4d" x="733.083334" y="269.362328" style="stroke: #000000; stroke-width: 0.6"/>
      </g>
     </g>
    </g>
    <g id="ytick_40">
     <g id="line2d_73">
      <g>
       <use xlink:href="#mcc1a4dcc4d" x="733.083334" y="259.505602" style="stroke: #000000; stroke-width: 0.6"/>
      </g>
     </g>
    </g>
    <g id="ytick_41">
     <g id="line2d_74">
      <g>
       <use xlink:href="#mcc1a4dcc4d" x="733.083334" y="251.860131" style="stroke: #000000; stroke-width: 0.6"/>
      </g>
     </g>
    </g>
    <g id="ytick_42">
     <g id="line2d_75">
      <g>
       <use xlink:href="#mcc1a4dcc4d" x="733.083334" y="245.613326" style="stroke: #000000; stroke-width: 0.6"/>
      </g>
     </g>
    </g>
    <g id="ytick_43">
     <g id="line2d_76">
      <g>
       <use xlink:href="#mcc1a4dcc4d" x="733.083334" y="240.331728" style="stroke: #000000; stroke-width: 0.6"/>
      </g>
     </g>
    </g>
    <g id="ytick_44">
     <g id="line2d_77">
      <g>
       <use xlink:href="#mcc1a4dcc4d" x="733.083334" y="235.756599" style="stroke: #000000; stroke-width: 0.6"/>
      </g>
     </g>
    </g>
    <g id="ytick_45">
     <g id="line2d_78">
      <g>
       <use xlink:href="#mcc1a4dcc4d" x="733.083334" y="231.72105" style="stroke: #000000; stroke-width: 0.6"/>
      </g>
     </g>
    </g>
    <g id="ytick_46">
     <g id="line2d_79">
      <g>
       <use xlink:href="#mcc1a4dcc4d" x="733.083334" y="204.362125" style="stroke: #000000; stroke-width: 0.6"/>
      </g>
     </g>
    </g>
    <g id="ytick_47">
     <g id="line2d_80">
      <g>
       <use xlink:href="#mcc1a4dcc4d" x="733.083334" y="190.469849" style="stroke: #000000; stroke-width: 0.6"/>
      </g>
     </g>
    </g>
    <g id="ytick_48">
     <g id="line2d_81">
      <g>
       <use xlink:href="#mcc1a4dcc4d" x="733.083334" y="180.613122" style="stroke: #000000; stroke-width: 0.6"/>
      </g>
     </g>
    </g>
    <g id="ytick_49">
     <g id="line2d_82">
      <g>
       <use xlink:href="#mcc1a4dcc4d" x="733.083334" y="172.967651" style="stroke: #000000; stroke-width: 0.6"/>
      </g>
     </g>
    </g>
    <g id="ytick_50">
     <g id="line2d_83">
      <g>
       <use xlink:href="#mcc1a4dcc4d" x="733.083334" y="166.720846" style="stroke: #000000; stroke-width: 0.6"/>
      </g>
     </g>
    </g>
    <g id="ytick_51">
     <g id="line2d_84">
      <g>
       <use xlink:href="#mcc1a4dcc4d" x="733.083334" y="161.439248" style="stroke: #000000; stroke-width: 0.6"/>
      </g>
     </g>
    </g>
    <g id="ytick_52">
     <g id="line2d_85">
      <g>
       <use xlink:href="#mcc1a4dcc4d" x="733.083334" y="156.86412" style="stroke: #000000; stroke-width: 0.6"/>
      </g>
     </g>
    </g>
    <g id="ytick_53">
     <g id="line2d_86">
      <g>
       <use xlink:href="#mcc1a4dcc4d" x="733.083334" y="152.82857" style="stroke: #000000; stroke-width: 0.6"/>
      </g>
     </g>
    </g>
    <g id="ytick_54">
     <g id="line2d_87">
      <g>
       <use xlink:href="#mcc1a4dcc4d" x="733.083334" y="125.469646" style="stroke: #000000; stroke-width: 0.6"/>
      </g>
     </g>
    </g>
    <g id="ytick_55">
     <g id="line2d_88">
      <g>
       <use xlink:href="#mcc1a4dcc4d" x="733.083334" y="111.57737" style="stroke: #000000; stroke-width: 0.6"/>
      </g>
     </g>
    </g>
    <g id="ytick_56">
     <g id="line2d_89">
      <g>
       <use xlink:href="#mcc1a4dcc4d" x="733.083334" y="101.720643" style="stroke: #000000; stroke-width: 0.6"/>
      </g>
     </g>
    </g>
    <g id="ytick_57">
     <g id="line2d_90">
      <g>
       <use xlink:href="#mcc1a4dcc4d" x="733.083334" y="94.075172" style="stroke: #000000; stroke-width: 0.6"/>
      </g>
     </g>
    </g>
    <g id="ytick_58">
     <g id="line2d_91">
      <g>
       <use xlink:href="#mcc1a4dcc4d" x="733.083334" y="87.828367" style="stroke: #000000; stroke-width: 0.6"/>
      </g>
     </g>
    </g>
    <g id="ytick_59">
     <g id="line2d_92">
      <g>
       <use xlink:href="#mcc1a4dcc4d" x="733.083334" y="82.546769" style="stroke: #000000; stroke-width: 0.6"/>
      </g>
     </g>
    </g>
    <g id="ytick_60">
     <g id="line2d_93">
      <g>
       <use xlink:href="#mcc1a4dcc4d" x="733.083334" y="77.97164" style="stroke: #000000; stroke-width: 0.6"/>
      </g>
     </g>
    </g>
    <g id="ytick_61">
     <g id="line2d_94">
      <g>
       <use xlink:href="#mcc1a4dcc4d" x="733.083334" y="73.936091" style="stroke: #000000; stroke-width: 0.6"/>
      </g>
     </g>
    </g>
    <g id="ytick_62">
     <g id="line2d_95">
      <g>
       <use xlink:href="#mcc1a4dcc4d" x="733.083334" y="46.577166" style="stroke: #000000; stroke-width: 0.6"/>
      </g>
     </g>
    </g>
    <g id="ytick_63">
     <g id="line2d_96">
      <g>
       <use xlink:href="#mcc1a4dcc4d" x="733.083334" y="32.68489" style="stroke: #000000; stroke-width: 0.6"/>
      </g>
     </g>
    </g>
    <g id="ytick_64">
     <g id="line2d_97">
      <g>
       <use xlink:href="#mcc1a4dcc4d" x="733.083334" y="22.828163" style="stroke: #000000; stroke-width: 0.6"/>
      </g>
     </g>
    </g>
    <g id="ytick_65">
     <g id="line2d_98">
      <g>
       <use xlink:href="#mcc1a4dcc4d" x="733.083334" y="15.182692" style="stroke: #000000; stroke-width: 0.6"/>
      </g>
     </g>
    </g>
    <g id="ytick_66">
     <g id="line2d_99">
      <g>
       <use xlink:href="#mcc1a4dcc4d" x="733.083334" y="8.935887" style="stroke: #000000; stroke-width: 0.6"/>
      </g>
     </g>
    </g>
   </g>
   <g id="line2d_100">
    <path d="M 744.923524 334.535082 
L 745.160565 358.146243 
L 745.397605 514.941818 
L 745.634646 359.176944 
L 746.108728 321.933115 
L 746.58281 305.357415 
L 747.056891 295.143382 
L 747.530973 288.251617 
L 748.005055 283.544435 
L 748.479136 280.507409 
L 748.953218 278.910836 
L 749.190259 278.629842 
L 749.4273 278.700195 
L 749.66434 279.138972 
L 749.901381 279.974963 
L 750.375463 283.034083 
L 750.849545 288.53723 
L 751.323626 298.019697 
L 751.797708 316.153044 
L 752.034749 334.153757 
L 752.271789 382.953665 
L 752.982912 303.458437 
L 753.456994 281.968418 
L 754.168116 261.647647 
L 754.879239 247.337842 
L 755.827402 232.92102 
L 756.775565 221.665977 
L 757.960769 210.447398 
L 759.145973 201.451472 
L 760.331178 194.115095 
L 761.516382 188.098981 
L 762.701586 183.180573 
L 763.88679 179.204281 
L 765.071994 176.05528 
L 766.020157 174.071087 
L 766.968321 172.520614 
L 767.916484 171.369511 
L 768.864647 170.585323 
L 769.812811 170.135676 
L 770.760974 169.986526 
L 771.709137 170.100418 
L 772.657301 170.434748 
L 773.842505 171.086663 
L 777.872199 173.594342 
L 778.820362 173.809861 
L 779.531485 173.776274 
L 780.242607 173.547548 
L 780.95373 173.106413 
L 781.664852 172.444243 
L 782.613015 171.220043 
L 783.561179 169.631636 
L 784.746383 167.212536 
L 786.405669 163.259807 
L 791.383526 150.960494 
L 793.042812 147.618101 
L 794.465057 145.249002 
L 795.650261 143.653675 
L 796.835465 142.411813 
L 798.020669 141.521002 
L 798.968833 141.053202 
L 799.916996 140.79143 
L 800.865159 140.720114 
L 802.050363 140.866725 
L 803.472608 141.316079 
L 805.843017 142.390896 
L 807.502302 143.028371 
L 808.687506 143.2258 
L 809.63567 143.14216 
L 810.583833 142.790799 
L 811.531996 142.137207 
L 812.48016 141.164932 
L 813.428323 139.877732 
L 814.613527 137.863229 
L 816.035772 134.962347 
L 818.16914 130.016755 
L 821.724752 121.762974 
L 823.384038 118.451736 
L 824.806283 116.052241 
L 825.991487 114.407215 
L 827.176691 113.107719 
L 828.361895 112.165338 
L 829.310058 111.670216 
L 830.258222 111.401258 
L 831.206385 111.349507 
L 832.154548 111.499762 
L 833.339753 111.935679 
L 834.761998 112.730353 
L 837.606487 114.444798 
L 838.554651 114.738299 
L 839.265773 114.755152 
L 839.976896 114.543661 
L 840.688018 114.05833 
L 841.399141 113.260661 
L 842.110263 112.122889 
L 843.058426 110.05468 
L 844.00659 107.367313 
L 845.191794 103.223034 
L 846.614039 97.339069 
L 848.747406 87.413846 
L 853.488223 65.081311 
L 855.858631 55.127995 
L 857.991999 47.13039 
L 859.888325 40.801345 
L 861.784652 35.186498 
L 863.206897 31.424429 
L 863.443938 31.378182 
L 865.340264 36.474145 
L 867.236591 42.264601 
L 869.132918 48.782239 
L 871.266285 57.004326 
L 873.399652 66.141914 
L 876.007102 78.342455 
L 880.510877 99.678914 
L 881.933122 105.329323 
L 883.118326 109.175687 
L 884.06649 111.569904 
L 885.014653 113.316489 
L 885.725775 114.208646 
L 886.436898 114.768258 
L 887.14802 115.032005 
L 887.859143 115.045216 
L 888.570265 114.857782 
L 889.518429 114.383134 
L 891.177714 113.243636 
L 893.074041 111.984778 
L 894.259245 111.434579 
L 895.207409 111.190613 
L 896.155572 111.14928 
L 897.103735 111.327664 
L 898.051898 111.736258 
L 899.000062 112.380257 
L 899.948225 113.26043 
L 901.133429 114.687599 
L 902.318633 116.464145 
L 903.740878 119.022492 
L 905.400164 122.513066 
L 907.533532 127.562477 
L 911.089144 136.081518 
L 912.511389 138.955576 
L 913.696593 140.900528 
L 914.644756 142.103934 
L 915.59292 142.972544 
L 916.541083 143.509349 
L 917.489246 143.738481 
L 918.43741 143.702002 
L 919.622614 143.36715 
L 921.2819 142.576175 
L 923.889349 141.279352 
L 925.074553 140.904438 
L 926.259757 140.763967 
L 927.20792 140.8546 
L 928.156084 141.146851 
L 929.104247 141.654911 
L 930.05241 142.38853 
L 931.237614 143.631004 
L 932.422819 145.236868 
L 933.608023 147.198418 
L 935.030268 149.99383 
L 936.689553 153.784461 
L 939.059962 159.860462 
L 941.904452 167.114438 
L 943.326697 170.158375 
L 944.511901 172.152624 
L 945.460064 173.3175 
L 946.171187 173.923082 
L 946.882309 174.300089 
L 947.593431 174.46016 
L 948.304554 174.423718 
L 949.252717 174.117817 
L 950.437921 173.433833 
L 954.704656 170.593875 
L 955.65282 170.317992 
L 956.600983 170.287977 
L 957.312105 170.451242 
L 958.023228 170.790841 
L 958.971391 171.542582 
L 959.919555 172.665825 
L 960.867718 174.19337 
L 961.815881 176.160087 
L 962.764044 178.605038 
L 963.712208 181.574041 
L 964.897412 186.108726 
L 966.082616 191.694152 
L 967.26782 198.533874 
L 968.453024 206.935318 
L 969.401188 215.108282 
L 970.349351 225.027749 
L 971.297514 237.471203 
L 972.008637 249.38682 
L 972.719759 265.178268 
L 973.193841 279.77226 
L 973.667923 301.911946 
L 973.904963 320.2279 
L 974.142004 357.274697 
L 974.379045 364.378762 
L 974.616086 326.020175 
L 975.090167 299.251066 
L 975.564249 286.665882 
L 976.038331 279.27436 
L 976.512412 274.723869 
L 976.986494 272.063284 
L 977.460576 270.834526 
L 977.697617 270.679248 
L 977.934657 270.806725 
L 978.171698 271.207808 
L 978.64578 272.822239 
L 979.119862 275.560046 
L 979.593943 279.557949 
L 980.068025 285.09768 
L 980.542107 292.726805 
L 981.016188 303.599957 
L 981.49027 320.740917 
L 981.727311 334.535082 
L 981.727311 334.535082 
" clip-path="url(#p3b5259ad59)" style="fill: none; stroke: #a80000; stroke-width: 3; stroke-linecap: square"/>
   </g>
   <g id="line2d_101">
    <path d="M 744.923524 374.741703 
L 745.160565 395.15527 
L 745.397605 450.731644 
L 745.871687 393.856851 
L 746.108728 385.677954 
L 746.345769 386.544104 
L 746.58281 399.175632 
L 746.81985 476.4098 
L 747.056891 391.211418 
L 747.530973 341.368353 
L 748.005055 316.308402 
L 748.716177 293.190893 
L 749.4273 279.084233 
L 749.901381 272.973646 
L 750.375463 268.907002 
L 750.849545 266.549421 
L 751.086585 265.923002 
L 751.323626 265.618724 
L 751.560667 265.599725 
L 751.797708 265.825405 
L 752.271789 266.821082 
L 753.219953 269.286493 
L 753.456994 269.588366 
L 753.694034 269.627147 
L 753.931075 269.354185 
L 754.168116 268.742112 
L 754.642198 266.514215 
L 755.35332 261.263868 
L 756.775565 249.751159 
L 757.486688 245.770052 
L 757.960769 244.080947 
L 758.434851 243.153896 
L 758.671892 242.952793 
L 758.908933 242.906364 
L 759.383014 243.193028 
L 760.805259 244.929466 
L 761.0423 244.981472 
L 761.279341 244.88204 
L 761.516382 244.613025 
L 761.990463 243.542125 
L 762.464545 241.819879 
L 763.412708 237.226479 
L 764.360872 232.758476 
L 765.071994 230.387012 
L 765.546076 229.431009 
L 766.020157 228.974804 
L 766.494239 228.955004 
L 766.968321 229.255922 
L 768.153525 230.279678 
L 768.627607 230.293452 
L 769.101688 229.856688 
L 769.57577 228.928035 
L 770.286892 226.762248 
L 772.183219 220.285249 
L 772.657301 219.29575 
L 773.131382 218.69772 
L 773.605464 218.475219 
L 774.079546 218.565518 
L 774.790668 219.047986 
L 775.501791 219.510779 
L 775.975872 219.556236 
L 776.449954 219.257078 
L 776.924036 218.567777 
L 777.635158 216.886257 
L 779.768525 211.04521 
L 780.242607 210.33407 
L 780.716689 209.950286 
L 781.19077 209.868022 
L 781.664852 210.021173 
L 783.087097 210.779573 
L 783.561179 210.713707 
L 784.03526 210.332272 
L 784.509342 209.617757 
L 785.220465 208.03348 
L 786.87975 203.887078 
L 787.590873 202.778949 
L 788.064954 202.398931 
L 788.539036 202.292446 
L 789.013118 202.405693 
L 790.672404 203.111022 
L 791.146485 202.947816 
L 791.620567 202.486842 
L 792.094649 201.731628 
L 793.042812 199.605511 
L 794.228016 196.894822 
L 794.939138 195.81546 
L 795.41322 195.425547 
L 795.887302 195.293965 
L 796.361383 195.375684 
L 798.020669 196.051664 
L 798.494751 195.927873 
L 798.968833 195.526051 
L 799.442914 194.841278 
L 800.154037 193.396278 
L 801.813322 189.791964 
L 802.524445 188.884378 
L 802.998527 188.600421 
L 803.472608 188.554111 
L 804.183731 188.801715 
L 805.131894 189.233311 
L 805.605976 189.254724 
L 806.080057 189.032024 
L 806.554139 188.527366 
L 807.265261 187.283875 
L 809.398629 182.762021 
L 809.872711 182.182607 
L 810.346792 181.861289 
L 810.820874 181.78278 
L 811.531996 182.002197 
L 812.717201 182.493179 
L 813.191282 182.426221 
L 813.665364 182.089713 
L 814.139445 181.462579 
L 814.850568 180.058672 
L 816.746895 175.859406 
L 817.458017 174.999141 
L 817.932099 174.756787 
L 818.40618 174.751814 
L 819.117303 175.042132 
L 820.065466 175.446974 
L 820.539548 175.403627 
L 821.013629 175.080593 
L 821.487711 174.446733 
L 822.198834 172.982666 
L 824.332201 168.013024 
L 824.806283 167.419509 
L 825.280364 167.112203 
L 825.754446 167.067518 
L 826.465569 167.347313 
L 827.413732 167.800234 
L 827.887814 167.779802 
L 828.361895 167.457431 
L 828.835977 166.788371 
L 829.547099 165.191833 
L 831.680467 159.51631 
L 832.154548 158.791865 
L 832.62863 158.387822 
L 833.102712 158.285817 
L 833.576793 158.423893 
L 834.999038 159.10729 
L 835.47312 158.95043 
L 835.947202 158.409718 
L 836.421283 157.456194 
L 837.132406 155.375638 
L 839.028732 149.271696 
L 839.502814 148.335425 
L 839.976896 147.775187 
L 840.450977 147.5794 
L 840.925059 147.685339 
L 842.347304 148.470247 
L 842.821386 148.296461 
L 843.295467 147.643016 
L 843.769549 146.455454 
L 844.480671 143.804386 
L 846.376998 135.750392 
L 847.088121 133.961319 
L 847.562202 133.364474 
L 848.036284 133.215156 
L 848.510366 133.414148 
L 849.458529 134.109611 
L 849.69557 134.159952 
L 849.93261 134.090305 
L 850.169651 133.868221 
L 850.643733 132.86746 
L 851.117815 131.050703 
L 851.828937 126.97237 
L 853.725264 114.421463 
L 854.436386 111.49297 
L 854.910468 110.45318 
L 855.147509 110.21486 
L 855.38455 110.155999 
L 855.62159 110.262411 
L 856.095672 110.872673 
L 857.043835 112.358384 
L 857.280876 112.35566 
L 857.517917 112.013863 
L 857.754958 111.238648 
L 858.229039 108.111626 
L 858.703121 102.762601 
L 859.414244 91.470274 
L 861.784652 50.198966 
L 862.732815 37.652783 
L 863.206897 32.415811 
L 863.443938 32.198704 
L 864.392101 43.346152 
L 865.340264 57.419489 
L 866.525468 78.812618 
L 867.947713 104.286786 
L 868.421795 109.797655 
L 868.895877 112.790606 
L 869.132918 113.390757 
L 869.369958 113.503523 
L 869.606999 113.24173 
L 870.081081 112.058516 
L 870.792203 110.061348 
L 871.266285 109.311622 
L 871.503326 109.21437 
L 871.740367 109.324498 
L 871.977407 109.650014 
L 872.451489 110.953029 
L 872.925571 113.091921 
L 873.636693 117.640231 
L 875.770061 133.228252 
L 876.244142 134.987464 
L 876.718224 135.723974 
L 876.955265 135.755779 
L 877.192306 135.610827 
L 877.666387 134.96771 
L 878.614551 133.475891 
L 879.088632 133.168254 
L 879.325673 133.200165 
L 879.562714 133.371077 
L 880.036796 134.148356 
L 880.510877 135.496248 
L 881.222 138.427848 
L 883.118326 147.423579 
L 883.592408 148.751884 
L 884.06649 149.433451 
L 884.30353 149.544205 
L 884.777612 149.394793 
L 885.488735 148.640468 
L 886.199857 147.916901 
L 886.673939 147.754041 
L 887.14802 147.979393 
L 887.622102 148.64118 
L 888.096184 149.73202 
L 888.807306 152.027637 
L 890.466592 157.995258 
L 890.940674 159.098655 
L 891.414755 159.727506 
L 891.888837 159.896612 
L 892.362919 159.705398 
L 894.022204 158.519798 
L 894.496286 158.629806 
L 894.970368 159.091844 
L 895.444449 159.912965 
L 896.155572 161.719292 
L 898.051898 167.202527 
L 898.52598 167.994291 
L 899.000062 168.393769 
L 899.474143 168.43334 
L 899.948225 168.208871 
L 901.37047 167.321063 
L 901.844552 167.36771 
L 902.318633 167.714368 
L 902.792715 168.376969 
L 903.503838 169.894472 
L 905.637205 175.163714 
L 906.111287 175.746823 
L 906.585368 175.988965 
L 907.05945 175.936851 
L 907.770572 175.526748 
L 908.481695 175.094176 
L 908.955777 174.986604 
L 909.429858 175.120408 
L 909.90394 175.537658 
L 910.378022 176.241072 
L 911.089144 177.74331 
L 912.74843 181.692883 
L 913.222511 182.433399 
L 913.696593 182.863209 
L 914.170675 182.986972 
L 914.644756 182.864435 
L 916.304042 182.050568 
L 916.778124 182.14271 
L 917.252206 182.500952 
L 917.726287 183.134739 
L 918.43741 184.530293 
L 920.333736 188.767968 
L 920.807818 189.379829 
L 921.2819 189.687785 
L 921.755981 189.714924 
L 922.467104 189.397972 
L 923.415267 188.88709 
L 923.889349 188.834514 
L 924.36343 189.018721 
L 924.837512 189.474034 
L 925.548635 190.648659 
L 926.496798 192.834017 
L 927.444961 194.994765 
L 928.156084 196.082789 
L 928.630165 196.436122 
L 929.104247 196.500279 
L 929.578329 196.341662 
L 931.000574 195.612742 
L 931.474655 195.643252 
L 931.948737 195.933553 
L 932.422819 196.506308 
L 933.133941 197.85053 
L 935.504349 203.060932 
L 935.978431 203.47614 
L 936.452513 203.582363 
L 936.926594 203.441838 
L 938.58588 202.628038 
L 939.059962 202.759405 
L 939.534043 203.181768 
L 940.008125 203.906057 
L 940.719247 205.483087 
L 942.615574 210.254166 
L 943.089656 210.933084 
L 943.563737 211.261747 
L 944.037819 211.268405 
L 944.748942 210.877593 
L 945.697105 210.298932 
L 946.171187 210.269947 
L 946.645268 210.534831 
L 947.11935 211.135338 
L 947.593431 212.069804 
L 948.304554 213.984883 
L 949.96384 218.810641 
L 950.437921 219.652632 
L 950.912003 220.090078 
L 951.386085 220.142875 
L 951.860166 219.904669 
L 953.045371 219.019747 
L 953.519452 218.950563 
L 953.993534 219.217635 
L 954.467615 219.878812 
L 954.941697 220.943473 
L 955.65282 223.192399 
L 957.549146 229.811901 
L 958.023228 230.689982 
L 958.49731 231.056136 
L 958.971391 230.968177 
L 959.682514 230.321575 
L 960.393636 229.661443 
L 960.867718 229.531382 
L 961.341799 229.815839 
L 961.815881 230.599793 
L 962.289963 231.912427 
L 963.001085 234.789069 
L 965.134453 244.765603 
L 965.608534 245.763408 
L 965.845575 245.984994 
L 966.082616 246.034 
L 966.319657 245.932025 
L 966.793739 245.39845 
L 967.741902 244.052036 
L 968.215983 243.806513 
L 968.453024 243.890696 
L 968.690065 244.140378 
L 969.164147 245.194809 
L 969.638228 247.047537 
L 970.349351 251.328653 
L 971.297514 259.221988 
L 972.245678 267.270968 
L 972.719759 270.095183 
L 973.193841 271.547921 
L 973.430882 271.734253 
L 973.667923 271.599855 
L 974.142004 270.614601 
L 975.090167 267.922594 
L 975.327208 267.519777 
L 975.564249 267.342021 
L 975.80129 267.435718 
L 976.038331 267.842458 
L 976.275372 268.600828 
L 976.749453 271.323508 
L 977.223535 275.929936 
L 977.697617 282.84919 
L 978.171698 292.762651 
L 978.64578 306.968013 
L 979.119862 328.659927 
L 979.356902 345.244763 
L 979.593943 371.979097 
L 979.830984 514.551997 
L 980.068025 381.472032 
L 980.305066 362.567513 
L 980.542107 354.557112 
L 980.779147 351.641506 
L 981.016188 352.228542 
L 981.253229 355.914395 
L 981.49027 362.999013 
L 981.727311 374.741703 
L 981.727311 374.741703 
" clip-path="url(#p3b5259ad59)" style="fill: none; stroke: #1f77b4; stroke-width: 3; stroke-linecap: square"/>
   </g>
   <g id="line2d_102">
    <path d="M 744.923524 397.015992 
L 745.160565 418.59481 
L 745.397605 479.866652 
L 745.634646 461.706812 
L 745.871687 505.903644 
L 746.108728 420.138176 
L 746.58281 360.028425 
L 747.056891 332.925149 
L 747.530973 318.770064 
L 748.005055 312.73382 
L 748.242095 311.973666 
L 748.479136 312.342025 
L 749.4273 316.564342 
L 749.66434 315.676348 
L 749.901381 313.411727 
L 750.612504 302.011718 
L 751.086585 295.133605 
L 751.560667 291.126326 
L 751.797708 290.289964 
L 752.034749 290.135919 
L 752.271789 290.512416 
L 752.982912 292.4241 
L 753.219953 292.387801 
L 753.456994 291.66368 
L 753.931075 288.240965 
L 754.879239 279.455141 
L 755.35332 277.179525 
L 755.590361 276.797346 
L 755.827402 276.845774 
L 756.301484 277.707016 
L 756.538524 278.159737 
L 756.775565 278.36679 
L 757.012606 278.170994 
L 757.249647 277.492265 
L 757.723729 274.848334 
L 758.671892 268.647495 
L 759.145973 267.219151 
L 759.383014 267.061914 
L 759.620055 267.202523 
L 760.331178 268.205959 
L 760.568218 268.255331 
L 760.805259 267.967543 
L 761.0423 267.306747 
L 761.516382 265.070654 
L 762.227504 261.249966 
L 762.701586 259.720274 
L 762.938627 259.413875 
L 763.175668 259.387137 
L 763.649749 259.872812 
L 764.123831 260.337983 
L 764.360872 260.278586 
L 764.597913 259.927143 
L 765.071994 258.368574 
L 766.020157 254.210927 
L 766.494239 253.111448 
L 766.73128 252.947141 
L 766.968321 253.001901 
L 767.916484 253.769767 
L 768.153525 253.626972 
L 768.390566 253.227208 
L 768.864647 251.739347 
L 769.812811 248.235033 
L 770.286892 247.446964 
L 770.523933 247.382012 
L 770.998015 247.698744 
L 771.472097 248.07899 
L 771.709137 248.077646 
L 771.946178 247.866732 
L 772.42026 246.785703 
L 773.605464 243.000452 
L 774.079546 242.44943 
L 774.316586 242.456078 
L 775.26475 243.076152 
L 775.501791 243.005962 
L 775.738831 242.737192 
L 776.212913 241.62947 
L 777.161076 238.760234 
L 777.635158 238.031673 
L 777.872199 237.939592 
L 778.346281 238.155799 
L 778.820362 238.48846 
L 779.057403 238.519941 
L 779.294444 238.387501 
L 779.768525 237.572598 
L 781.19077 234.008235 
L 781.427811 233.821353 
L 781.664852 233.793843 
L 782.138934 234.054641 
L 782.613015 234.321325 
L 782.850056 234.295577 
L 783.087097 234.105827 
L 783.561179 233.225062 
L 784.746383 230.290078 
L 785.220465 229.898763 
L 785.694546 230.043976 
L 786.405669 230.400164 
L 786.642709 230.318662 
L 786.87975 230.075512 
L 787.353832 229.137761 
L 788.301995 226.808057 
L 788.776077 226.249077 
L 789.013118 226.192838 
L 789.487199 226.393911 
L 789.961281 226.654932 
L 790.198322 226.660357 
L 790.435363 226.524172 
L 790.909444 225.792031 
L 792.094649 223.080182 
L 792.56873 222.653449 
L 793.042812 222.741386 
L 793.753934 223.094403 
L 793.990975 223.049796 
L 794.228016 222.85972 
L 794.702098 222.048348 
L 795.887302 219.487889 
L 796.361383 219.179877 
L 796.835465 219.331962 
L 797.309547 219.59113 
L 797.546588 219.62102 
L 797.783628 219.524546 
L 798.25771 218.895472 
L 799.679955 215.988143 
L 800.154037 215.78726 
L 800.628118 215.988463 
L 801.1022 216.211276 
L 801.339241 216.196044 
L 801.576282 216.045809 
L 802.050363 215.320989 
L 803.235567 212.793991 
L 803.709649 212.42931 
L 804.183731 212.536574 
L 804.894853 212.848206 
L 805.131894 212.783634 
L 805.605976 212.228544 
L 806.317098 210.641543 
L 806.79118 209.649677 
L 807.265261 209.115728 
L 807.739343 209.098981 
L 808.687506 209.467231 
L 808.924547 209.348944 
L 809.398629 208.683059 
L 810.820874 205.820009 
L 811.294956 205.653399 
L 812.48016 206.03304 
L 812.717201 205.856348 
L 813.191282 205.076784 
L 814.376486 202.513887 
L 814.850568 202.175796 
L 815.32465 202.30652 
L 815.798731 202.563907 
L 816.035772 202.598727 
L 816.272813 202.507862 
L 816.746895 201.879507 
L 818.16914 198.83009 
L 818.643221 198.587085 
L 819.117303 198.777808 
L 819.591385 199.012422 
L 819.828425 199.00196 
L 820.065466 198.849306 
L 820.539548 198.084142 
L 821.724752 195.304204 
L 822.198834 194.867574 
L 822.672915 194.956444 
L 823.384038 195.296444 
L 823.621079 195.230961 
L 823.858119 195.007559 
L 824.332201 194.093736 
L 825.517405 191.251488 
L 825.991487 190.90699 
L 826.465569 191.06961 
L 826.93965 191.34156 
L 827.176691 191.358426 
L 827.413732 191.226385 
L 827.887814 190.449175 
L 829.310058 186.940576 
L 829.547099 186.736463 
L 829.78414 186.690267 
L 830.258222 186.920002 
L 830.732303 187.165283 
L 830.969344 187.125316 
L 831.206385 186.912461 
L 831.680467 185.943008 
L 832.865671 182.619072 
L 833.339753 182.127277 
L 833.576793 182.130101 
L 834.524957 182.613894 
L 834.761998 182.500086 
L 834.999038 182.187963 
L 835.47312 180.992865 
L 836.421283 177.948698 
L 836.895365 177.161757 
L 837.132406 177.054782 
L 837.606487 177.262378 
L 838.080569 177.570351 
L 838.31761 177.557952 
L 838.554651 177.347338 
L 839.028732 176.259785 
L 840.450977 171.658962 
L 840.688018 171.402082 
L 840.925059 171.346966 
L 841.399141 171.637144 
L 841.873222 171.906704 
L 842.110263 171.80749 
L 842.347304 171.466937 
L 842.821386 170.043975 
L 844.00659 165.41443 
L 844.243631 164.956864 
L 844.480671 164.741509 
L 844.717712 164.74019 
L 845.665876 165.290956 
L 845.902916 165.063259 
L 846.139957 164.54077 
L 846.614039 162.667049 
L 847.562202 158.09627 
L 848.036284 156.919523 
L 848.273325 156.744579 
L 848.510366 156.797025 
L 849.221488 157.34175 
L 849.458529 157.236091 
L 849.69557 156.805794 
L 850.169651 154.873889 
L 851.354855 148.004394 
L 851.828937 146.756173 
L 852.065978 146.612469 
L 852.303019 146.709483 
L 852.7771 147.125566 
L 853.014141 147.125419 
L 853.251182 146.778238 
L 853.488223 145.983381 
L 853.962305 143.059265 
L 855.147509 134.23048 
L 855.62159 132.827925 
L 855.858631 132.68907 
L 856.569754 132.920525 
L 856.806794 132.489565 
L 857.043835 131.451895 
L 857.517917 127.337832 
L 858.703121 113.479343 
L 859.177203 110.919248 
L 859.414244 110.634571 
L 859.651284 110.895959 
L 860.125366 111.876788 
L 860.362407 111.549418 
L 860.599448 109.774624 
L 860.836489 106.034682 
L 861.31057 92.887655 
L 862.732815 45.259136 
L 863.206897 33.773976 
L 863.443938 33.323484 
L 864.15506 51.676283 
L 864.866183 76.631248 
L 865.577305 103.178564 
L 866.051387 113.011252 
L 866.288428 114.083431 
L 866.525468 113.350447 
L 867.236591 109.087618 
L 867.473632 108.749109 
L 867.710673 109.299675 
L 867.947713 110.762922 
L 868.421795 116.181669 
L 869.606999 134.013521 
L 869.84404 135.619868 
L 870.081081 136.125494 
L 870.318122 135.753729 
L 871.029244 133.056012 
L 871.266285 132.673704 
L 871.503326 132.852404 
L 871.740367 133.647418 
L 872.214448 136.972584 
L 873.399652 148.0525 
L 873.636693 148.998277 
L 873.873734 149.269064 
L 874.110775 148.996371 
L 874.821897 147.177819 
L 875.058938 146.941112 
L 875.295979 147.115166 
L 875.53302 147.745603 
L 876.007102 150.277389 
L 877.192306 158.142876 
L 877.429346 158.726666 
L 877.666387 158.837875 
L 877.903428 158.580657 
L 878.614551 157.253141 
L 878.851591 157.141862 
L 879.088632 157.363446 
L 879.325673 157.947634 
L 879.799755 160.087682 
L 880.747918 165.329506 
L 880.984959 166.070842 
L 881.222 166.427179 
L 881.459041 166.430038 
L 881.933122 165.785325 
L 882.407204 165.166182 
L 882.644245 165.153675 
L 882.881286 165.426775 
L 883.355367 166.849061 
L 884.540571 172.122875 
L 884.777612 172.639655 
L 885.014653 172.841539 
L 885.251694 172.770325 
L 886.199857 171.748245 
L 886.436898 171.816097 
L 886.673939 172.136671 
L 887.14802 173.509935 
L 888.333225 177.931698 
L 888.570265 178.286177 
L 888.807306 178.377892 
L 889.044347 178.256158 
L 889.75547 177.506796 
L 889.99251 177.439658 
L 890.229551 177.575639 
L 890.466592 177.938783 
L 890.940674 179.281818 
L 891.888837 182.574167 
L 892.362919 183.27551 
L 892.599959 183.286306 
L 893.074041 182.889749 
L 893.548123 182.501101 
L 893.785164 182.503167 
L 894.022204 182.698873 
L 894.496286 183.689272 
L 895.68149 187.296579 
L 895.918531 187.645614 
L 896.155572 187.781414 
L 896.392613 187.732003 
L 897.340776 187.044686 
L 897.577817 187.109402 
L 897.814858 187.35877 
L 898.288939 188.390024 
L 899.474143 191.615419 
L 899.711184 191.86526 
L 899.948225 191.924826 
L 900.422307 191.644357 
L 900.896388 191.288571 
L 901.133429 191.253728 
L 901.37047 191.376626 
L 901.844552 192.141132 
L 903.266797 195.629165 
L 903.503838 195.795875 
L 903.740878 195.79426 
L 904.926082 195.21344 
L 905.163123 195.391356 
L 905.637205 196.228777 
L 906.822409 199.144044 
L 907.05945 199.411975 
L 907.296491 199.508165 
L 907.770572 199.308952 
L 908.244654 198.975169 
L 908.481695 198.915212 
L 908.718736 198.989371 
L 908.955777 199.220005 
L 909.429858 200.124377 
L 910.378022 202.467594 
L 910.852103 203.022207 
L 911.089144 203.058213 
L 911.563226 202.806752 
L 912.037307 202.518403 
L 912.274348 202.506274 
L 912.511389 202.634287 
L 912.985471 203.342061 
L 914.407716 206.378499 
L 914.644756 206.507804 
L 915.118838 206.372808 
L 915.829961 205.972823 
L 916.067001 206.010557 
L 916.304042 206.192638 
L 916.778124 206.987796 
L 917.963328 209.614482 
L 918.200369 209.839543 
L 918.43741 209.909926 
L 918.911491 209.70935 
L 919.385573 209.415377 
L 919.622614 209.37699 
L 919.859655 209.466914 
L 920.333736 210.084019 
L 921.755981 213.084383 
L 921.993022 213.248238 
L 922.230063 213.265567 
L 922.704145 213.014069 
L 923.178226 212.758979 
L 923.415267 212.766571 
L 923.652308 212.91135 
L 924.12639 213.63253 
L 925.311594 216.272569 
L 925.785675 216.639913 
L 926.259757 216.484582 
L 926.970879 216.117989 
L 927.20792 216.176225 
L 927.444961 216.378951 
L 927.919043 217.205491 
L 929.104247 219.793925 
L 929.341288 219.997952 
L 929.578329 220.04936 
L 930.05241 219.828517 
L 930.526492 219.547399 
L 930.763533 219.527321 
L 931.000574 219.641362 
L 931.474655 220.314345 
L 932.8969 223.365558 
L 933.133941 223.512931 
L 933.608023 223.402463 
L 934.319145 222.994964 
L 934.556186 223.024261 
L 934.793227 223.200001 
L 935.267308 224.000782 
L 936.452513 226.772043 
L 936.689553 227.026976 
L 936.926594 227.118057 
L 937.400676 226.926502 
L 937.874758 226.612409 
L 938.111798 226.563982 
L 938.348839 226.650576 
L 938.822921 227.296842 
L 939.534043 229.11376 
L 940.008125 230.251883 
L 940.482207 230.823117 
L 940.719247 230.858038 
L 941.193329 230.593662 
L 941.667411 230.302133 
L 941.904452 230.302022 
L 942.141492 230.455251 
L 942.615574 231.257199 
L 944.037819 234.665145 
L 944.27486 234.807531 
L 944.511901 234.786155 
L 945.460064 234.207527 
L 945.697105 234.267011 
L 945.934146 234.498326 
L 946.408227 235.475976 
L 947.593431 238.692017 
L 947.830472 238.96543 
L 948.067513 239.046969 
L 948.541595 238.790242 
L 949.015676 238.433486 
L 949.252717 238.399511 
L 949.489758 238.532618 
L 949.96384 239.368328 
L 951.386085 243.39571 
L 951.623126 243.612083 
L 951.860166 243.628455 
L 952.334248 243.277088 
L 952.80833 242.942828 
L 953.045371 242.971743 
L 953.282411 243.196807 
L 953.756493 244.266767 
L 954.941697 248.186438 
L 955.178738 248.573946 
L 955.415779 248.725699 
L 955.65282 248.670919 
L 956.600983 247.940908 
L 956.838024 248.053936 
L 957.075065 248.396306 
L 957.549146 249.757001 
L 958.73435 254.065829 
L 958.971391 254.403954 
L 959.208432 254.480448 
L 959.682514 254.086839 
L 960.156595 253.620373 
L 960.393636 253.608108 
L 960.630677 253.835808 
L 960.867718 254.332936 
L 961.341799 256.070882 
L 962.289963 260.289663 
L 962.527004 260.882637 
L 962.764044 261.159525 
L 963.001085 261.144507 
L 963.475167 260.587727 
L 963.949249 260.135165 
L 964.186289 260.223884 
L 964.42333 260.614072 
L 964.897412 262.337868 
L 966.082616 268.521731 
L 966.319657 269.104467 
L 966.556698 269.300793 
L 966.793739 269.16658 
L 967.504861 268.096206 
L 967.741902 268.012328 
L 967.978943 268.259718 
L 968.215983 268.895784 
L 968.690065 271.322234 
L 969.875269 279.047603 
L 970.11231 279.620884 
L 970.349351 279.699425 
L 970.586392 279.391131 
L 971.297514 278.047341 
L 971.534555 278.09387 
L 971.771596 278.614072 
L 972.008637 279.666022 
L 972.482718 283.301998 
L 973.430882 292.587023 
L 973.667923 293.918171 
L 973.904963 294.488067 
L 974.142004 294.355647 
L 975.090167 291.960718 
L 975.327208 292.288155 
L 975.564249 293.37037 
L 976.038331 298.054238 
L 976.749453 310.218683 
L 977.223535 317.978821 
L 977.460576 320.143465 
L 977.697617 320.745289 
L 977.934657 320.000908 
L 978.64578 315.757196 
L 978.882821 315.625712 
L 979.119862 316.837435 
L 979.356902 319.718891 
L 979.593943 324.634856 
L 980.068025 342.996111 
L 980.305066 359.205666 
L 980.542107 386.441649 
L 980.779147 512.655912 
L 981.016188 402.028376 
L 981.253229 388.076963 
L 981.49027 387.823342 
L 981.727311 397.015992 
L 981.727311 397.015992 
" clip-path="url(#p3b5259ad59)" style="fill: none; stroke: #ff7f0e; stroke-width: 3; stroke-linecap: square"/>
   </g>
   <g id="patch_9">
    <path d="M 733.083334 539.12 
L 733.083334 7.2 
" style="fill: none; stroke: #000000; stroke-width: 1.5; stroke-linejoin: miter; stroke-linecap: square"/>
   </g>
   <g id="patch_10">
    <path d="M 993.5675 539.12 
L 993.5675 7.2 
" style="fill: none; stroke: #000000; stroke-width: 1.5; stroke-linejoin: miter; stroke-linecap: square"/>
   </g>
   <g id="patch_11">
    <path d="M 733.083334 539.12 
L 993.5675 539.12 
" style="fill: none; stroke: #000000; stroke-width: 1.5; stroke-linejoin: miter; stroke-linecap: square"/>
   </g>
   <g id="patch_12">
    <path d="M 733.083334 7.2 
L 993.5675 7.2 
" style="fill: none; stroke: #000000; stroke-width: 1.5; stroke-linejoin: miter; stroke-linecap: square"/>
   </g>
   <g id="legend_2">
    <g id="patch_13">
     <path d="M 879.683125 59.384375 
L 986.5675 59.384375 
Q 988.5675 59.384375 988.5675 57.384375 
L 988.5675 14.2 
Q 988.5675 12.2 986.5675 12.2 
L 879.683125 12.2 
Q 877.683125 12.2 877.683125 14.2 
L 877.683125 57.384375 
Q 877.683125 59.384375 879.683125 59.384375 
z
" style="fill: #ffffff; opacity: 0.8; stroke: #cccccc; stroke-linejoin: miter"/>
    </g>
    <g id="line2d_103">
     <path d="M 881.683125 20.259375 
L 891.683125 20.259375 
L 901.683125 20.259375 
" style="fill: none; stroke: #a80000; stroke-width: 3; stroke-linecap: square"/>
    </g>
    <g id="text_29">
     <!-- 16, t=1.0,cesaro -->
     <g transform="translate(909.683125 23.759375) scale(0.1 -0.1)">
      <use xlink:href="#Georgia-31"/>
      <use xlink:href="#Georgia-36" x="42.96875"/>
      <use xlink:href="#Georgia-2c" x="99.560547"/>
      <use xlink:href="#Georgia-20" x="126.513672"/>
      <use xlink:href="#Georgia-74" x="150.634766"/>
      <use xlink:href="#Georgia-3d" x="185.15625"/>
      <use xlink:href="#Georgia-31" x="249.462891"/>
      <use xlink:href="#Georgia-2e" x="292.431641"/>
      <use xlink:href="#Georgia-30" x="319.384766"/>
      <use xlink:href="#Georgia-2c" x="380.761719"/>
      <use xlink:href="#Georgia-63" x="407.714844"/>
      <use xlink:href="#Georgia-65" x="453.125"/>
      <use xlink:href="#Georgia-73" x="501.464844"/>
      <use xlink:href="#Georgia-61" x="544.677734"/>
      <use xlink:href="#Georgia-72" x="595.068359"/>
      <use xlink:href="#Georgia-6f" x="636.035156"/>
     </g>
    </g>
    <g id="line2d_104">
     <path d="M 881.683125 34.9875 
L 891.683125 34.9875 
L 901.683125 34.9875 
" style="fill: none; stroke: #1f77b4; stroke-width: 3; stroke-linecap: square"/>
    </g>
    <g id="text_30">
     <!-- 64, t=1.0,cesaro -->
     <g transform="translate(909.683125 38.4875) scale(0.1 -0.1)">
      <use xlink:href="#Georgia-36"/>
      <use xlink:href="#Georgia-34" x="56.591797"/>
      <use xlink:href="#Georgia-2c" x="113.085938"/>
      <use xlink:href="#Georgia-20" x="140.039062"/>
      <use xlink:href="#Georgia-74" x="164.160156"/>
      <use xlink:href="#Georgia-3d" x="198.681641"/>
      <use xlink:href="#Georgia-31" x="262.988281"/>
      <use xlink:href="#Georgia-2e" x="305.957031"/>
      <use xlink:href="#Georgia-30" x="332.910156"/>
      <use xlink:href="#Georgia-2c" x="394.287109"/>
      <use xlink:href="#Georgia-63" x="421.240234"/>
      <use xlink:href="#Georgia-65" x="466.650391"/>
      <use xlink:href="#Georgia-73" x="514.990234"/>
      <use xlink:href="#Georgia-61" x="558.203125"/>
      <use xlink:href="#Georgia-72" x="608.59375"/>
      <use xlink:href="#Georgia-6f" x="649.560547"/>
     </g>
    </g>
    <g id="line2d_105">
     <path d="M 881.683125 49.715625 
L 891.683125 49.715625 
L 901.683125 49.715625 
" style="fill: none; stroke: #ff7f0e; stroke-width: 3; stroke-linecap: square"/>
    </g>
    <g id="text_31">
     <!-- 128, t=1.0,cesaro -->
     <g transform="translate(909.683125 53.215625) scale(0.1 -0.1)">
      <use xlink:href="#Georgia-31"/>
      <use xlink:href="#Georgia-32" x="42.96875"/>
      <use xlink:href="#Georgia-38" x="98.828125"/>
      <use xlink:href="#Georgia-2c" x="158.447266"/>
      <use xlink:href="#Georgia-20" x="185.400391"/>
      <use xlink:href="#Georgia-74" x="209.521484"/>
      <use xlink:href="#Georgia-3d" x="244.042969"/>
      <use xlink:href="#Georgia-31" x="308.349609"/>
      <use xlink:href="#Georgia-2e" x="351.318359"/>
      <use xlink:href="#Georgia-30" x="378.271484"/>
      <use xlink:href="#Georgia-2c" x="439.648438"/>
      <use xlink:href="#Georgia-63" x="466.601562"/>
      <use xlink:href="#Georgia-65" x="512.011719"/>
      <use xlink:href="#Georgia-73" x="560.351562"/>
      <use xlink:href="#Georgia-61" x="603.564453"/>
      <use xlink:href="#Georgia-72" x="653.955078"/>
      <use xlink:href="#Georgia-6f" x="694.921875"/>
     </g>
    </g>
   </g>
  </g>
 </g>
 <defs>
  <clipPath id="p754cc61479">
   <rect x="33.4275" y="7.2" width="651.210414" height="531.92"/>
  </clipPath>
  <clipPath id="p3b5259ad59">
   <rect x="733.083334" y="7.2" width="260.484166" height="531.92"/>
  </clipPath>
 </defs>
</svg>
